<svg width="71" height="71" viewBox="0 0 71 71" fill="none" xmlns="http://www.w3.org/2000/svg">
<path fill-rule="evenodd" clip-rule="evenodd" d="M50.0559 25.251C48.3569 25.251 46.7378 25.6219 45.2613 26.291C46.6477 24.1018 47.4613 21.4496 47.4613 18.5894C47.4613 11.0842 41.8715 5 34.9764 5C28.0814 5 22.4918 11.0842 22.4918 18.5894C22.4918 21.3126 23.2305 23.8464 24.4975 25.9725C23.2378 25.5072 21.8889 25.251 20.4846 25.251C13.5894 25.251 8 31.3352 8 38.8404C8 46.3455 13.5894 52.4298 20.4846 52.4298C22.0418 52.4298 23.5314 52.1167 24.9061 51.5496C24.9059 51.5528 30.7164 49.8449 34.5359 42.2777V46.834C34.5359 46.834 32.5776 61.1962 18.7711 62.7683H16.5677V65.0065H54.1686V62.7683H51.9654C38.159 61.1962 36.2004 46.834 36.2004 46.834V42.5844C36.9118 44.2896 40.8452 52.6273 49.685 52.4203C49.8085 52.4234 49.9315 52.4298 50.0559 52.4298C56.9512 52.4298 62.5406 46.3455 62.5406 38.8404C62.5406 31.3352 56.9512 25.251 50.0559 25.251Z" fill="#212020"/>
</svg>
