<svg width="71" height="71" viewBox="0 0 71 71" fill="none" xmlns="http://www.w3.org/2000/svg">
<path fill-rule="evenodd" clip-rule="evenodd" d="M48.0916 53.077C58.3803 53.2099 64.7097 45.6389 61.2282 37.6698C57.7468 29.7005 54.276 27.9075 48.8109 22.1298C43.3431 16.3522 35.3924 6.35749 35.43 4C35.4703 6.35749 27.847 16.3522 22.3792 22.1298C16.9141 27.9075 13.4461 29.7005 9.96193 37.6698C6.48047 45.6389 12.8126 53.2099 23.0986 53.077C30.1608 52.9858 33.339 48.3261 34.6355 45.4129L34.6355 49.2257C34.6355 49.2257 32.3807 62.9787 16.4685 64.4843H13.9319V66.6274L57.2609 66.6274V64.4843H54.7216C38.8121 62.9787 36.5547 49.2257 36.5547 49.2257V45.9135C38.082 48.8299 41.4212 52.9909 48.0916 53.077Z" fill="#212020"/>
</svg>
