<?xml version="1.0" encoding="UTF-8" standalone="no"?><svg xmlns="http://www.w3.org/2000/svg" xmlns:xlink="http://www.w3.org/1999/xlink" contentScriptType="application/ecmascript" contentStyleType="text/css" height="1046px" preserveAspectRatio="none" style="width:929px;height:1046px;background:#F9F9F9;" version="1.1" viewBox="0 0 929 1046" width="929px" zoomAndPan="magnify"><defs/><g><text fill="#000000" font-family="sans-serif" font-size="18" lengthAdjust="spacing" textLength="165" x="375.5" y="18.6855">Klondike Instructions</text><g id="GamePrepared"><polygon fill="#FEFECE" points="604,159.6406,604,159.8508,614.2222,159.2263,624.4444,159.8339,634.6667,160.0403,644.8889,158.9272,655.1111,159.5629,665.3333,159.2141,675.5556,159.2571,685.7778,159.5725,696,159.6406,695.9118,159.4277,697.8384,160.5434,699.4551,160.911,701.2781,161.7764,703.1262,162.7026,704.8388,163.3018,704.8124,163.2908,705.5921,165.0783,706.2935,166.8332,707.0905,168.6279,707.8414,170.4034,708.5,172.1406,708.6952,172.1406,708.7237,177.1406,708.7264,182.1406,708.5849,187.1406,708.6545,192.1406,708.5,197.1406,708.7163,197.2302,707.5457,198.8164,707.2445,200.7627,706.212,202.4061,705.7355,204.2798,704.8388,205.9795,704.7757,205.827,703.0623,206.6906,701.3979,207.6723,699.5293,208.1612,697.7812,208.9408,696,209.6406,696,209.9793,685.7778,210.0569,675.5556,209.6367,665.3333,209.9278,655.1111,209.0682,644.8889,209.925,634.6667,210.1888,624.4444,210.0852,614.2222,210.2536,604,209.6406,603.9384,209.4919,602.149,208.7075,600.3852,207.9848,598.6892,207.4258,596.9039,206.6512,595.1612,205.9795,595.371,206.0664,594.3751,204.1894,593.5911,202.4002,593.0348,200.7053,592.0269,198.8233,591.5,197.1406,591.327,197.1406,591.7163,192.1406,591.6452,187.1406,591.7448,182.1406,591.3927,177.1406,591.5,172.1406,591.5983,172.1813,592.4141,170.4482,592.819,168.5448,593.6672,166.8251,594.4677,165.0856,595.1612,163.3018,595.2443,163.5025,596.9284,162.5683,598.7557,161.9798,600.3938,160.9345,602.1458,160.1643,604,159.6406" style="stroke:#A80036;stroke-width:1.5;"/><path d="M591.5,187.25 L591.5,187.5302 L601.25,186.6976 L611,187.5077 L620.75,187.7829 L630.5,186.2988 L640.25,187.1464 L650,186.6813 L659.75,186.7387 L669.5,187.1591 L679.25,186.3282 L689,187.9882 L698.75,186.4096 L708.5,187.25 " fill="#FEFECE" style="stroke:#A80036;stroke-width:1.5;"/><text fill="#000000" font-family="sans-serif" font-size="14" lengthAdjust="spacing" textLength="97" x="601.5" y="179.1738">GamePrepared</text></g><polygon fill="#FEFECE" points="650,303.6406,650.0495,303.6902,652.3023,305.943,654.8456,308.4862,657.2942,310.9348,659.4319,313.0725,662,315.6406,661.9817,315.6223,659.4995,317.9401,657.1096,320.3502,654.7839,322.8246,652.237,325.0777,650,327.6406,650.1305,327.7711,647.4514,325.0921,645.1534,322.794,642.9018,320.5424,640.3798,318.0204,638,315.6406,638.0161,315.6567,640.3925,313.2331,642.8421,310.8827,645.2564,308.497,647.738,306.1787,650,303.6406" style="stroke:#A80036;stroke-width:1.5;"/><polygon fill="#FEFECE" points="559,421.6406,559.0495,421.6902,561.3023,423.943,563.8456,426.4862,566.2942,428.9348,568.4319,431.0725,571,433.6406,570.9817,433.6223,568.4995,435.9401,566.1096,438.3502,563.7839,440.8246,561.237,443.0777,559,445.6406,559.1305,445.7711,556.4514,443.0921,554.1534,440.794,551.9018,438.5424,549.3798,436.0204,547,433.6406,547.0161,433.6567,549.3925,431.2331,551.8421,428.8827,554.2564,426.497,556.738,424.1787,559,421.6406" style="stroke:#A80036;stroke-width:1.5;"/><polygon fill="#FEFECE" points="356,569.6406,356.0495,569.6902,358.3023,571.943,360.8456,574.4862,363.2942,576.9348,365.4319,579.0725,368,581.6406,367.9817,581.6223,365.4995,583.9401,363.1096,586.3502,360.7839,588.8246,358.237,591.0777,356,593.6406,356.1305,593.7711,353.4514,591.0921,351.1534,588.794,348.9018,586.5424,346.3798,584.0204,344,581.6406,344.0161,581.6567,346.3925,579.2331,348.8421,576.8827,351.2564,574.497,353.738,572.1787,356,569.6406" style="stroke:#A80036;stroke-width:1.5;"/><polygon fill="#FEFECE" points="396,730.6406,396.0495,730.6902,398.3023,732.943,400.8456,735.4862,403.2942,737.9348,405.4319,740.0725,408,742.6406,407.9817,742.6223,405.4995,744.9401,403.1096,747.3502,400.7839,749.8246,398.237,752.0777,396,754.6406,396.1305,754.7711,393.4514,752.0921,391.1534,749.794,388.9018,747.5424,386.3798,745.0204,384,742.6406,384.0161,742.6567,386.3925,740.2331,388.8421,737.8827,391.2564,735.497,393.738,733.1787,396,730.6406" style="stroke:#A80036;stroke-width:1.5;"/><polygon fill="#FEFECE" points="785,730.6406,785.0495,730.6902,787.3023,732.943,789.8456,735.4862,792.2942,737.9348,794.4319,740.0725,797,742.6406,796.9817,742.6223,794.4995,744.9401,792.1096,747.3502,789.7839,749.8246,787.237,752.0777,785,754.6406,785.1305,754.7711,782.4514,752.0921,780.1534,749.794,777.9018,747.5424,775.3798,745.0204,773,742.6406,773.0161,742.6567,775.3925,740.2331,777.8421,737.8827,780.2564,735.497,782.738,733.1787,785,730.6406" style="stroke:#A80036;stroke-width:1.5;"/><polygon fill="#FEFECE" points="172,867.1406,172.0495,867.1902,174.3023,869.443,176.8456,871.9862,179.2942,874.4348,181.4319,876.5725,184,879.1406,183.9817,879.1223,181.4995,881.4401,179.1096,883.8502,176.7839,886.3246,174.237,888.5777,172,891.1406,172.1305,891.2711,169.4514,888.5921,167.1534,886.294,164.9018,884.0424,162.3798,881.5204,160,879.1406,160.0161,879.1567,162.3925,876.7331,164.8421,874.3827,167.2564,871.997,169.738,869.6787,172,867.1406" style="stroke:#A80036;stroke-width:1.5;"/><g id="CardMovedToFoundation"><polygon fill="#FEFECE" points="486.5,556.6406,486.5,556.8508,496.3125,556.2263,506.125,556.8339,515.9375,557.0403,525.75,555.9272,535.5625,556.5629,545.375,556.2141,555.1875,556.2571,565,556.5725,574.8125,555.9493,584.625,557.1943,594.4375,556.0103,604.25,556.4429,614.0625,557.0726,623.875,556.5548,633.6875,556.7089,643.5,556.6406,643.4959,556.6308,645.2905,557.4278,647.066,558.1787,648.878,559.0177,650.6567,559.7762,652.3388,560.3018,652.548,560.3884,653.1495,562.102,653.9461,563.8965,654.7518,565.6947,655.0457,567.2809,656,569.1406,656.2262,569.1406,655.9012,574.1406,656.1779,579.1406,655.835,584.1406,655.9772,589.1406,656,594.1406,656.2284,594.2352,655.2528,595.9022,654.568,597.6896,653.9076,599.4871,653.1993,601.2648,652.3388,602.9795,652.3383,602.9783,650.6077,603.8001,648.7303,604.2676,647.0718,605.2637,645.3377,606.0772,643.5,606.6406,643.5,607.0852,633.6875,607.2536,623.875,606.1575,614.0625,605.9884,604.25,606.0192,594.4375,606.5817,584.625,606.4441,574.8125,607.322,565,606.4659,555.1875,606.2976,545.375,606.8689,535.5625,605.9738,525.75,606.1215,515.9375,607.2896,506.125,607.0763,496.3125,607.3751,486.5,606.6406,486.459,606.5415,484.773,606.0067,483.0398,605.358,481.1364,604.2984,479.4167,603.6822,477.6612,602.9795,477.7,602.9955,477.1296,601.2948,476.1954,599.4434,475.6069,597.7352,474.5617,595.8378,474,594.1406,473.7742,594.1406,474.1679,589.1406,473.761,584.1406,474.1697,579.1406,474.0689,574.1406,474,569.1406,473.9175,569.1064,474.6233,567.3277,475.6057,565.6636,476.1045,563.7991,477.1112,562.1451,477.6612,560.3018,477.5907,560.1316,479.5077,559.7597,481.2585,558.9865,482.9957,558.1805,484.7383,557.3874,486.5,556.6406" style="stroke:#A80036;stroke-width:1.5;"/><path d="M474,584.25 L474,584.5302 L484.1111,583.6976 L494.2222,584.5077 L504.3333,584.7829 L514.4444,583.2988 L524.5556,584.1464 L534.6667,583.6813 L544.7778,583.7387 L554.8889,584.1591 L565,583.3282 L575.1111,584.9882 L585.2222,583.4096 L595.3333,583.9863 L605.4444,584.8259 L615.5556,584.1356 L625.6667,584.341 L635.7778,584.2074 L645.8889,584.488 L656,584.25 " fill="#FEFECE" style="stroke:#A80036;stroke-width:1.5;"/><text fill="#000000" font-family="sans-serif" font-size="14" lengthAdjust="spacing" textLength="162" x="484" y="576.1738">CardMovedToFoundation</text></g><g id="CardMovedToTableau"><polygon fill="#FEFECE" points="103.5,717.6406,103.5,717.8508,113.2857,717.2263,123.0714,717.8339,132.8571,718.0403,142.6429,716.9272,152.4286,717.5629,162.2143,717.2141,172,717.2571,181.7857,717.5725,191.5714,716.9493,201.3571,718.1943,211.1429,717.0103,220.9286,717.4429,230.7143,718.0726,240.5,717.6406,240.4891,717.6142,242.2765,718.3939,244.0315,719.0953,245.8261,719.8923,247.6016,720.6432,249.3388,721.3018,249.5192,721.3765,250.2777,723.1552,251.0125,724.924,251.6139,726.6376,252.4105,728.432,253,730.1406,253.2341,730.1406,252.7596,735.1406,253.2262,740.1406,252.9012,745.1406,253.1779,750.1406,253,755.1406,252.8476,755.0775,252.2467,756.8997,251.7639,758.7708,250.7883,760.4377,250.1035,762.2251,249.3388,763.9795,249.382,764.0837,247.6242,764.8399,245.8028,765.4427,244.0722,766.2646,242.1947,766.7321,240.5,767.6406,240.5,767.925,230.7143,768.1888,220.9286,768.0852,211.1429,768.2536,201.3571,767.1575,191.5714,766.9884,181.7857,767.0192,172,767.5817,162.2143,767.4441,152.4286,768.322,142.6429,767.4659,132.8571,767.2976,123.0714,767.8689,113.2857,766.9738,103.5,767.6406,103.4338,767.4808,101.815,767.1082,100.02,766.3103,98.2904,765.6701,96.3879,764.6126,94.6612,763.9795,94.7595,764.0202,94.1108,762.287,93.0512,760.3837,92.4349,758.6639,91.771,756.9245,91,755.1406,91.2173,755.1406,90.9986,750.1406,91.1542,745.1406,90.8154,740.1406,90.7742,735.1406,91,730.1406,91.1551,730.2049,91.5114,728.2814,92.6212,726.67,93.2603,724.8637,93.8464,723.0354,94.6612,721.3018,94.616,721.1928,96.4875,720.7108,98.1585,719.7451,100.04,719.2874,101.6617,718.2026,103.5,717.6406" style="stroke:#A80036;stroke-width:1.5;"/><path d="M91,745.25 L91,745.5302 L101.125,744.6976 L111.25,745.5077 L121.375,745.7829 L131.5,744.2988 L141.625,745.1464 L151.75,744.6813 L161.875,744.7387 L172,745.1591 L182.125,744.3282 L192.25,745.9882 L202.375,744.4096 L212.5,744.9863 L222.625,745.8259 L232.75,745.1356 L242.875,745.341 L253,745.25 " fill="#FEFECE" style="stroke:#A80036;stroke-width:1.5;"/><text fill="#000000" font-family="sans-serif" font-size="14" lengthAdjust="spacing" textLength="142" x="101" y="737.1738">CardMovedToTableau</text></g><g id="CardMovedToWaste"><polygon fill="#FEFECE" points="472.5,990.6406,472.5,990.8508,482.1154,990.2263,491.7308,990.8339,501.3462,991.0403,510.9615,989.9272,520.5769,990.5629,530.1923,990.2141,539.8077,990.2571,549.4231,990.5725,559.0385,989.9493,568.6538,991.1943,578.2692,990.0103,587.8846,990.4429,597.5,990.6406,597.5551,990.7736,599.2568,991.3464,601.0442,992.1261,602.7992,992.8275,604.5938,993.6245,606.3388,994.3018,606.4125,994.3323,607.2514,996.1443,608.01,997.9229,608.7447,999.6917,609.3462,1001.4053,610,1003.1406,610.1545,1003.1406,610.2341,1008.1406,609.7596,1013.1406,610.2262,1018.1406,609.9012,1023.1406,610,1028.1406,610.1644,1028.2087,609.1153,1029.8452,608.5144,1031.6674,608.0317,1033.5385,607.0561,1035.2055,606.3388,1036.9795,606.3523,1037.0119,604.6143,1037.816,602.8564,1038.5721,601.035,1039.175,599.3044,1039.9968,597.5,1040.6406,597.5,1040.0682,587.8846,1040.925,578.2692,1041.1888,568.6538,1041.0852,559.0385,1041.2536,549.4231,1040.1575,539.8077,1039.9884,530.1923,1040.0192,520.5769,1040.5817,510.9615,1040.4441,501.3462,1041.322,491.7308,1040.4659,482.1154,1040.2976,472.5,1040.6406,472.5291,1040.7109,470.6472,1039.703,468.8982,1039.0163,467.2795,1038.6438,465.4845,1037.8459,463.6612,1036.9795,463.8874,1037.0732,462.8298,1035.1706,462.295,1033.4846,461.6463,1031.7515,460.5868,1029.8481,460,1028.1406,459.968,1028.1406,460.042,1023.1406,460.2173,1018.1406,459.9986,1013.1406,460.1542,1008.1406,460,1003.1406,459.8295,1003.07,460.5237,1001.2865,461.6196,999.6693,461.9759,997.7459,463.0857,996.1345,463.6612,994.3018,463.6875,994.3654,465.3948,993.487,467.1516,992.7284,469.023,992.2464,470.694,991.2807,472.5,990.6406" style="stroke:#A80036;stroke-width:1.5;"/><path d="M460,1018.25 L460,1018.5302 L470,1017.6976 L480,1018.5077 L490,1018.7829 L500,1017.2988 L510,1018.1464 L520,1017.6813 L530,1017.7387 L540,1018.1591 L550,1017.3282 L560,1018.9882 L570,1017.4096 L580,1017.9863 L590,1018.8259 L600,1018.1356 L610,1018.25 " fill="#FEFECE" style="stroke:#A80036;stroke-width:1.5;"/><text fill="#000000" font-family="sans-serif" font-size="14" lengthAdjust="spacing" textLength="130" x="470" y="1010.1738">CardMovedToWaste</text></g><g id="CardRaisedInTableau"><polygon fill="#FEFECE" points="19.5,990.6406,19.5,990.8508,29.7308,990.2263,39.9615,990.8339,50.1923,991.0403,60.4231,989.9272,70.6538,990.5629,80.8846,990.2141,91.1154,990.2571,101.3462,990.5725,111.5769,989.9493,121.8077,991.1943,132.0385,990.0103,142.2692,990.4429,152.5,990.6406,152.5551,990.7736,154.2568,991.3464,156.0442,992.1261,157.7992,992.8275,159.5938,993.6245,161.3388,994.3018,161.4125,994.3323,162.2514,996.1443,163.01,997.9229,163.7447,999.6917,164.3462,1001.4053,165,1003.1406,165.1545,1003.1406,165.2341,1008.1406,164.7596,1013.1406,165.2262,1018.1406,164.9012,1023.1406,165,1028.1406,165.1644,1028.2087,164.1153,1029.8452,163.5144,1031.6674,163.0317,1033.5385,162.0561,1035.2055,161.3388,1036.9795,161.3523,1037.0119,159.6143,1037.816,157.8564,1038.5721,156.035,1039.175,154.3044,1039.9968,152.5,1040.6406,152.5,1040.0682,142.2692,1040.925,132.0385,1041.1888,121.8077,1041.0852,111.5769,1041.2536,101.3462,1040.1575,91.1154,1039.9884,80.8846,1040.0192,70.6538,1040.5817,60.4231,1040.4441,50.1923,1041.322,39.9615,1040.4659,29.7308,1040.2976,19.5,1040.6406,19.5291,1040.7109,17.6472,1039.703,15.8982,1039.0163,14.2795,1038.6438,12.4845,1037.8459,10.6612,1036.9795,10.8874,1037.0732,9.8298,1035.1706,9.295,1033.4846,8.6463,1031.7515,7.5868,1029.8481,7,1028.1406,6.968,1028.1406,7.042,1023.1406,7.2173,1018.1406,6.9986,1013.1406,7.1542,1008.1406,7,1003.1406,6.8295,1003.07,7.5237,1001.2865,8.6196,999.6693,8.9759,997.7459,10.0857,996.1345,10.6612,994.3018,10.6875,994.3654,12.3948,993.487,14.1516,992.7284,16.023,992.2464,17.694,991.2807,19.5,990.6406" style="stroke:#A80036;stroke-width:1.5;"/><path d="M7,1018.25 L7,1018.5302 L16.875,1017.6976 L26.75,1018.5077 L36.625,1018.7829 L46.5,1017.2988 L56.375,1018.1464 L66.25,1017.6813 L76.125,1017.7387 L86,1018.1591 L95.875,1017.3282 L105.75,1018.9882 L115.625,1017.4096 L125.5,1017.9863 L135.375,1018.8259 L145.25,1018.1356 L155.125,1018.341 L165,1018.25 " fill="#FEFECE" style="stroke:#A80036;stroke-width:1.5;"/><text fill="#000000" font-family="sans-serif" font-size="14" lengthAdjust="spacing" textLength="138" x="17" y="1010.1738">CardRaisedInTableau</text></g><g id="StockRecovered"><polygon fill="#FEFECE" points="342.5,854.1406,342.5,854.3508,352.4,853.7263,362.3,854.3339,372.2,854.5403,382.1,853.4272,392,854.0629,401.9,853.7141,411.8,853.7571,421.7,854.0725,431.6,853.4493,441.5,854.1406,441.5706,854.3111,443.1874,854.6788,445.0103,855.5442,446.8584,856.4703,448.5601,857.0431,450.3388,857.8018,450.3598,857.8105,451.0612,859.5655,451.8583,861.3601,452.6092,863.1356,453.4481,864.9476,454,866.6406,454.2237,866.6406,454.2264,871.6406,454.0849,876.6406,454.1545,881.6406,454.2341,886.6406,454,891.6406,453.7779,891.5486,453.4767,893.4949,452.4442,895.1383,451.9677,897.012,450.9186,898.6485,450.3388,900.4795,450.3301,900.4584,448.6657,901.4401,446.7971,901.9289,445.049,902.7086,443.311,903.5127,441.5,904.1406,441.5,904.5569,431.6,904.1367,421.7,904.4278,411.8,903.5682,401.9,904.425,392,904.6888,382.1,904.5852,372.2,904.7536,362.3,903.6575,352.4,903.4884,342.5,904.1406,342.4207,903.9493,340.7247,903.3903,338.9394,902.6156,337.2836,902.1538,335.4067,901.1579,333.6612,900.4795,333.5555,900.4357,332.9992,898.7408,331.9913,896.8589,331.3046,895.1099,330.9321,893.4912,330,891.6406,330.1452,891.6406,330.2448,886.6406,329.8927,881.6406,330.1064,876.6406,330.1968,871.6406,330,866.6406,329.8545,866.5804,330.7027,864.8606,331.5033,863.1212,332.3974,861.4205,332.9276,859.569,333.6612,857.8018,333.7202,857.9442,335.3583,856.899,337.1103,856.1288,339.0287,855.7602,340.6408,854.6521,342.5,854.1406" style="stroke:#A80036;stroke-width:1.5;"/><path d="M330,881.75 L330,882.0302 L340.3333,881.1976 L350.6667,882.0077 L361,882.2829 L371.3333,880.7988 L381.6667,881.6464 L392,881.1813 L402.3333,881.2387 L412.6667,881.6591 L423,880.8282 L433.3333,882.4882 L443.6667,880.9096 L454,881.75 " fill="#FEFECE" style="stroke:#A80036;stroke-width:1.5;"/><text fill="#000000" font-family="sans-serif" font-size="14" lengthAdjust="spacing" textLength="104" x="340" y="873.6738">StockRecovered</text></g><g id="FoundationComplete"><polygon fill="#FEFECE" points="779.5,854.1406,779.5,854.3508,789.2692,853.7263,799.0385,854.3339,808.8077,854.5403,818.5769,853.4272,828.3462,854.0629,838.1154,853.7141,847.8846,853.7571,857.6538,854.0725,867.4231,853.4493,877.1923,854.6943,886.9615,853.5103,896.7308,853.9429,906.5,854.1406,906.5551,854.2736,908.2568,854.8464,910.0442,855.6261,911.7992,856.3275,913.5938,857.1245,915.3388,857.8018,915.4125,857.8323,916.2514,859.6443,917.01,861.4229,917.7447,863.1917,918.3462,864.9053,919,866.6406,919.1545,866.6406,919.2341,871.6406,918.7596,876.6406,919.2262,881.6406,918.9012,886.6406,919,891.6406,919.1644,891.7087,918.1153,893.3452,917.5144,895.1674,917.0317,897.0385,916.0561,898.7055,915.3388,900.4795,915.3523,900.5119,913.6143,901.316,911.8564,902.0721,910.035,902.675,908.3044,903.4968,906.5,904.1406,906.5,903.5682,896.7308,904.425,886.9615,904.6888,877.1923,904.5852,867.4231,904.7536,857.6538,903.6575,847.8846,903.4884,838.1154,903.5192,828.3462,904.0817,818.5769,903.9441,808.8077,904.822,799.0385,903.9659,789.2692,903.7976,779.5,904.1406,779.5291,904.2109,777.6472,903.203,775.8982,902.5163,774.2795,902.1438,772.4845,901.3459,770.6612,900.4795,770.8874,900.5732,769.8298,898.6706,769.295,896.9846,768.6463,895.2515,767.5868,893.3481,767,891.6406,766.968,891.6406,767.042,886.6406,767.2173,881.6406,766.9986,876.6406,767.1542,871.6406,767,866.6406,766.8295,866.57,767.5237,864.7865,768.6196,863.1693,768.9759,861.2459,770.0857,859.6345,770.6612,857.8018,770.6875,857.8654,772.3948,856.987,774.1516,856.2284,776.023,855.7464,777.694,854.7807,779.5,854.1406" style="stroke:#A80036;stroke-width:1.5;"/><path d="M767,881.75 L767,882.0302 L777.1333,881.1976 L787.2667,882.0077 L797.4,882.2829 L807.5333,880.7988 L817.6667,881.6464 L827.8,881.1813 L837.9333,881.2387 L848.0667,881.6591 L858.2,880.8282 L868.3333,882.4882 L878.4667,880.9096 L888.6,881.4863 L898.7333,882.3259 L908.8667,881.6356 L919,881.75 " fill="#FEFECE" style="stroke:#A80036;stroke-width:1.5;"/><text fill="#000000" font-family="sans-serif" font-size="14" lengthAdjust="spacing" textLength="132" x="777" y="873.6738">FoundationComplete</text></g><polygon fill="#000000" points="660.0552,41.073,658.5894,43.0759,656.8556,46.0094,654.376,47.9864,651.7703,49.0675,649.6927,49.1614,647.0224,47.8093,644.5029,46.926,642.5905,45.1326,641.5873,43.0795,640.9924,41.4447,640.4096,39.3094,639.4636,37.472,640.1906,35.6779,640.8275,33.7126,643.2175,32.1583,644.8991,30.1416,646.9804,29.4719,649.4547,28.8952,652.6276,29.2379,654.3655,30.0575,656.3861,30.429,658.8429,32.9461,659.6993,35.6033,660.0714,37.4164,659.65,40.4041" style="stroke:none;stroke-width:1.0;"/><polygon fill="none" points="853.0552,1018.073,851.5894,1020.0759,849.8556,1023.0094,847.376,1024.9864,844.7703,1026.0675,842.6927,1026.1614,840.0224,1024.8093,837.5029,1023.926,835.5905,1022.1326,834.5873,1020.0795,833.9924,1018.4447,833.4096,1016.3094,832.4636,1014.472,833.1906,1012.6779,833.8275,1010.7126,836.2175,1009.1583,837.8991,1007.1416,839.9804,1006.4719,842.4547,1005.8952,845.6276,1006.2379,847.3655,1007.0575,849.3861,1007.429,851.8429,1009.9461,852.6993,1012.6033,853.0714,1014.4164,852.65,1017.4041" style="stroke:#000000;stroke-width:1.0;"/><polygon fill="#000000" points="849.5331,1017.6001,848.6536,1018.8018,847.6134,1020.5619,846.1256,1021.7481,844.5622,1022.3968,843.3156,1022.4531,841.7135,1021.6418,840.2017,1021.1119,839.0543,1020.0358,838.4524,1018.804,838.0955,1017.8231,837.7458,1016.5419,837.1782,1015.4394,837.6143,1014.363,837.9965,1013.1838,839.4305,1012.2512,840.4394,1011.0412,841.6882,1010.6394,843.1728,1010.2934,845.0766,1010.499,846.1193,1010.9907,847.3317,1011.2136,848.8057,1012.7239,849.3196,1014.3182,849.5429,1015.4061,849.29,1017.1987" style="stroke:none;stroke-width:1.0;"/><!--MD5=[d566c117c3e0d58251a1231f44740e7d]
link *start to GamePrepared--><path d="M650,48.6506 L650.2802,48.6506 L649.4476,58.2615 L650.2577,67.8724 L650.5329,77.4834 L649.0488,87.0943 L649.8964,96.7052 L649.4313,106.3161 L649.4887,115.927 L649.9091,125.5379 L649.0782,135.1488 L650.7382,144.7597 L650,154.3706 " fill="none" style="stroke:#191919;stroke-width:1.0;"/><polygon fill="#191919" points="650,159.5106,650.064,159.5391,650.6738,157.6545,651.6589,155.9368,652.5217,154.1647,652.9827,152.214,654,150.5106,653.9817,150.4923,653.0995,151.2101,652.3096,152.0202,651.5839,152.8946,650.637,153.5477,650,154.5106,650.1305,154.6411,649.0514,153.5621,648.3534,152.864,647.7018,152.2124,646.7798,151.2904,646,150.5106,646.0208,150.5199,646.7903,152.3063,647.6544,154.1348,648.4728,155.943,649.3784,157.7899,650,159.5106" style="stroke:#191919;stroke-width:1.0;"/><text fill="#000000" font-family="sans-serif" font-size="13" lengthAdjust="spacing" textLength="69" x="685" y="93.1357">shuffle deck</text><text fill="#000000" font-family="sans-serif" font-size="13" lengthAdjust="spacing" textLength="130" x="656.5" y="109.4873">/ put cards to tableaus</text><text fill="#000000" font-family="sans-serif" font-size="13" lengthAdjust="spacing" textLength="137" x="655" y="125.8389">/ put cards to stock pile</text><!--MD5=[cc75377b78f26e45e2350c9143575416]
link GamePrepared to CheckPossibleMovements--><path d="M650,209.9006 L650.2802,209.9006 L649.4476,219.7184 L650.2577,229.5362 L650.5329,239.354 L649.0488,249.1717 L649.8964,258.9895 L649.4313,268.8073 L649.4887,278.6251 L649.9091,288.4428 L650,298.2606 " fill="none" style="stroke:#191919;stroke-width:1.0;"/><polygon fill="#191919" points="650,303.5306,650.064,303.5591,650.6738,301.6745,651.6589,299.9568,652.5217,298.1847,652.9827,296.234,654,294.5306,653.9817,294.5123,653.0995,295.2301,652.3096,296.0402,651.5839,296.9146,650.637,297.5677,650,298.5306,650.1305,298.6611,649.0514,297.5821,648.3534,296.884,647.7018,296.2324,646.7798,295.3104,646,294.5306,646.0208,294.5399,646.7903,296.3263,647.6544,298.1548,648.4728,299.963,649.3784,301.8099,650,303.5306" style="stroke:#191919;stroke-width:1.0;"/><text fill="#000000" font-family="sans-serif" font-size="13" lengthAdjust="spacing" textLength="100" x="656.5" y="254.1357">init game / check</text><text fill="#000000" font-family="sans-serif" font-size="13" lengthAdjust="spacing" textLength="111" x="655" y="270.4873">possible movement</text><!--MD5=[9d5426cd1f4c1ccad440ce3110892d14]
link CheckPossibleMovements to CheckFoundation--><path d="M641.83,319.5706 L641.8667,319.6565 L639.2206,320.4852 L636.7897,321.8175 L634.2887,322.9858 L631.5573,323.6148 L629.1448,324.9903 L629.1288,324.9597 L625.9479,326.4566 L622.8481,328.1076 L619.8046,329.8657 L616.567,331.2546 L613.6013,333.1606 L613.7404,333.3636 L610.2655,335.1082 L607.1969,337.4453 L604.1778,339.8546 L600.8703,341.8434 L597.7145,344.0534 L597.7359,344.075 L594.9616,346.7608 L592.2846,349.5447 L589.5606,352.2813 L586.9261,355.1081 L584,357.6406 L584.2527,357.7991 L582.4327,360.7089 L580.4496,363.5166 L578.7052,366.4738 L576.9719,369.438 L574.8844,372.1802 L574.5884,372.0571 L573.8369,375.4838 L572.111,378.5052 L571.1258,381.8348 L569.3777,384.847 L568.255,388.1194 L568.2258,388.1109 L567.6673,391.3442 L566.4254,394.3803 L565.5868,397.5328 L564.7821,400.695 L563.7331,403.7867 L563.9144,403.8236 L563.1728,406.5312 L562.741,409.3017 L561.808,411.9703 L561.6225,414.7911 L560.94,417.5106 " fill="none" style="stroke:#191919;stroke-width:1.0;"/><polygon fill="#191919" points="560.14,422.6306,560.1989,422.6686,561.092,420.9006,562.3301,419.3553,563.4559,417.7375,564.2122,415.8813,565.48,414.3551,565.4647,414.3342,564.4824,414.9073,563.577,415.586,562.7252,416.3379,561.6889,416.8372,560.911,417.6904,561.0601,417.7992,560.0743,416.6528,559.5236,415.824,559.0261,415.0339,558.2196,414.0184,557.5757,413.1215,557.5976,413.1274,558.0783,415.0205,558.6589,416.9406,559.1912,418.8477,559.8156,420.7796,560.14,422.6306" style="stroke:#191919;stroke-width:1.0;"/><text fill="#000000" font-family="sans-serif" font-size="13" lengthAdjust="spacing" textLength="98" x="585" y="372.1357">check movement</text><text fill="#000000" font-family="sans-serif" font-size="13" lengthAdjust="spacing" textLength="74" x="601" y="388.4873">to foundation</text><!--MD5=[ca7e07f0c25dc739ad30f7a2127e23f1]
link CheckFoundation to CardMovedToFoundation--><path d="M558.05,444.7406 L558.1431,444.748 L557.6367,447.6459 L557.6761,450.5869 L557.5378,453.5138 L556.8149,456.3948 L556.9013,459.3394 L556.8668,459.3375 L556.5317,462.5892 L556.3706,465.8505 L556.3303,469.1185 L555.8734,472.3634 L556,475.6406 L556.2458,475.6511 L555.5975,478.4982 L555.6669,481.3759 L555.8239,484.2573 L555.4714,487.117 L555.3869,489.9881 L555.4172,489.9892 L555.2928,492.2226 L555.3064,494.461 L555.2535,496.6969 L555.3275,498.9374 L554.9875,501.1631 L555.2857,501.166 L555.3108,503.3988 L555.1434,505.6297 L555.2577,507.8633 L555.3851,510.0971 L555.0944,512.3269 L554.7745,512.3066 L555.5765,515.2087 L555.3251,518.0441 L555.8745,520.9301 L555.5993,523.764 L556,526.6406 L555.9697,526.6373 L556.5971,529.1358 L556.5175,531.5568 L556.855,534.0235 L557.2276,536.494 L557.3475,538.9369 L557.5304,538.9644 L557.7143,541.3854 L558.2107,543.8534 L558.2014,546.2453 L558.9465,548.7507 L559.19,551.1806 " fill="none" style="stroke:#191919;stroke-width:1.0;"/><polygon fill="#191919" points="560.11,556.5506,560.1779,556.5679,560.4613,554.6075,561.1427,552.7483,561.6945,550.8561,561.8201,548.8557,562.5357,547.0051,562.5145,546.9902,561.7659,547.8464,561.1239,548.7781,560.556,549.7622,559.7328,550.5656,559.2672,551.6222,559.3738,551.7728,558.2224,550.797,557.3823,550.261,556.5801,549.7786,555.557,548.984,554.6501,548.3537,554.6691,548.3663,555.7332,549.9872,556.8836,551.6654,557.9924,553.316,559.1805,555.0195,560.11,556.5506" style="stroke:#191919;stroke-width:1.0;"/><text fill="#000000" font-family="sans-serif" font-size="13" lengthAdjust="spacing" textLength="98" x="571" y="490.1357">[ if you can move</text><text fill="#000000" font-family="sans-serif" font-size="13" lengthAdjust="spacing" textLength="122" x="561" y="506.4873">card to a foundation ]</text><text fill="#000000" font-family="sans-serif" font-size="13" lengthAdjust="spacing" textLength="67" x="590.5" y="522.8389">/ move card</text><!--MD5=[8468072ab4215ce1bf33282165d60243]
link CardMovedToFoundation to CheckFoundationComplete--><path d="M598.41,606.7906 L598.5742,607.0178 L606.08,612.1202 L614.5482,618.554 L622.7031,624.5544 L629.8274,629.1288 L638.3175,635.593 L646.0387,640.9934 L654.0659,646.8171 L662.3059,652.9352 L669.8128,658.039 L678.7788,665.1616 L685.8477,669.6595 L694.1792,675.9042 L702.6646,682.362 L710.2539,687.5797 L718.3678,693.5235 L726.2832,699.1925 L734.4413,705.1972 L742.4822,711.04 L750.7465,717.1917 L758.8068,723.0612 L766.8069,728.8474 L774.27,733.8906 " fill="none" style="stroke:#191919;stroke-width:1.0;"/><polygon fill="#191919" points="778.47,736.9206,778.5305,736.9559,777.3594,735.149,776.5431,733.5487,775.6113,731.8812,774.2994,729.9923,773.5137,728.4098,773.4881,728.4056,773.5538,729.504,773.7483,730.6232,774.0325,731.7568,774.0079,732.8406,774.4159,733.9942,774.4453,734.1764,773.2655,733.9672,772.1716,734.29,771.0881,734.6777,769.9437,734.6877,768.8314,734.8964,768.8361,734.9187,770.7569,735.2908,772.6991,735.7643,774.6309,736.1889,776.5824,736.7068,778.47,736.9206" style="stroke:#191919;stroke-width:1.0;"/><!--MD5=[78c55a8717abf2288f9dcd36aa1693e8]
link CheckFoundationComplete to FoundationComplete--><path d="M788.45,751.6506 L788.7073,751.7616 L791.7691,760.3055 L796.3394,769.4999 L800.4184,778.4825 L802.882,786.7685 L807.4867,795.9778 L810.886,804.6673 L814.765,813.5636 L818.9775,822.6037 L822.0408,831.1483 L827.3915,840.6793 L830.54,849.2606 " fill="none" style="stroke:#191919;stroke-width:1.0;"/><polygon fill="#191919" points="832.64,854.1106,832.7101,854.1113,832.5208,852.1396,832.7422,850.1719,832.8298,848.2029,832.4777,846.2296,832.7343,844.2622,832.7103,844.2527,832.1859,845.2619,831.783,846.3192,831.4645,847.4099,830.8551,848.3855,830.6532,849.5223,830.7211,849.6939,829.5239,848.9107,828.5249,848.6286,827.5501,848.4075,826.4346,847.8308,825.3931,847.4412,825.4085,847.4579,826.8352,848.7672,828.3321,850.1527,829.7952,851.5015,831.3228,852.9204,832.64,854.1106" style="stroke:#191919;stroke-width:1.0;"/><!--MD5=[a80d6d7a9addf8d8a8c2ce384c8c19b1]
link CheckFoundationComplete to CheckPossibleMovements--><path d="M786.91,732.4106 L787.0018,732.4277 L787.1157,730.2937 L787.768,728.2596 L788.2449,726.193 L788.1453,724.0194 L788.8438,721.994 L788.8097,721.9883 L789.1162,719.1999 L789.5944,716.4401 L790.192,713.7001 L790.3781,710.8917 L791.1406,708.1792 L791.3841,708.2145 L791.352,704.7677 L792.0308,701.424 L792.7964,698.0929 L793.0573,694.6886 L793.5836,691.3228 L793.6138,691.3264 L794.044,687.4128 L794.6114,683.5158 L795.1126,679.6108 L795.74,675.7211 L795.9561,671.7814 L796.2528,671.8118 L796.4748,669.6789 L796.5055,667.5265 L796.8163,665.4027 L797.1402,663.2803 L797.0481,661.1153 L796.7288,661.087 L797.5471,658.9011 L797.314,656.6221 L797.8802,654.414 L797.6234,652.1329 L798.0411,649.9116 L798.0108,649.9093 L798.5432,647.5966 L798.3663,645.2313 L798.608,642.897 L798.8848,640.5654 L798.9081,638.2149 L799.0928,638.2258 L799.0492,635.7858 L799.3211,633.3644 L799.0825,630.9129 L799.6054,628.5063 L799.622,626.0698 L799.8654,626.0802 L799.9261,623.5684 L800.1076,621.0618 L799.7276,618.5314 L799.7592,616.0184 L800.1556,613.5209 L799.8795,613.5139 L800.1946,610.9386 L800.1987,608.3554 L800.654,605.7837 L800.3389,603.1924 L800.4818,600.6127 L800.3293,600.6117 L800.6016,597.9689 L800.2221,595.3215 L800.3061,592.6774 L800.8436,590.0364 L800.5735,587.3899 L800.7672,587.3923 L800.866,584.6954 L800.3626,581.9909 L800.6135,579.2959 L800.7001,576.5988 L800.4038,573.8969 L800.1939,573.8899 L800.2695,571.1517 L800.2763,568.4113 L800.4182,565.6754 L800.0351,562.922 L799.9453,560.1783 L800.1506,560.1898 L799.5447,557.3847 L799.3351,554.6018 L799.7042,551.851 L799.0078,549.041 L799.1711,546.2788 L799.3966,546.2967 L799.0392,543.4789 L798.6055,540.655 L798.3441,537.8447 L798.4807,535.0662 L798.054,532.2428 L797.9217,532.2289 L798.0182,529.4448 L797.2149,526.566 L797.4347,523.7949 L797.0784,520.9631 L796.5669,518.115 L796.6749,518.1294 L796.2109,515.2828 L796.1334,512.4875 L795.7068,509.6459 L795.1342,506.7849 L794.6828,503.9399 L794.8005,503.9591 L794.164,501.0951 L794.0738,498.32 L793.3658,495.4443 L792.9119,492.61 L792.3745,489.7621 L792.1092,489.7103 L791.6458,486.9005 L791.5022,484.153 L790.9063,481.3172 L790.1481,478.4497 L789.615,475.6262 L789.4754,475.5941 L788.8726,472.7945 L788.0226,469.9379 L787.8518,467.2379 L787.3449,464.4604 L786.377,461.5767 L786.603,461.6375 L785.9266,458.8732 L784.821,455.9935 L784.1684,453.2357 L783.216,450.3972 L782.6336,447.6582 L782.7542,447.6957 L781.8832,444.9422 L781.1577,442.234 L779.9706,439.3821 L779.1558,436.6461 L778.3576,433.9153 L778.5432,433.9817 L777.6279,431.2956 L776.2089,428.4295 L775.3751,425.7726 L774.5516,423.1194 L773.522,420.3925 L773.2707,420.2897 L772.5829,417.8004 L771.4591,415.1327 L770.2271,412.4207 L769.2426,409.81 L768.0996,407.1344 L768.3931,407.2713 L766.7663,404.4859 L765.8119,402.0141 L764.5928,399.4188 L763.3171,396.7971 L762.0632,394.1856 L762.1186,394.215 L760.7723,391.6903 L759.1472,389.0177 L757.8995,386.5452 L756.5402,384.0136 L755.3859,381.5907 L755.4102,381.6053 L753.9504,379.1716 L752.5094,376.7492 L750.8679,374.2061 L749.4839,371.818 L748.0406,369.3942 L747.9965,369.364 L746.6441,367.1882 L744.9808,364.7998 L743.0381,362.2202 L741.5814,359.973 L740,357.6406 L739.8072,357.4713 L738.5856,356.005 L737.1817,354.3787 L735.6497,352.6398 L733.8116,350.6322 L732.4464,349.0398 L732.5776,349.1988 L730.4593,347.3183 L728.9493,346.1745 L727.0312,344.5364 L725.3664,343.2052 L723.5622,341.7052 L723.619,341.7956 L721.7117,340.6497 L719.4676,338.9681 L717.7881,338.1849 L715.7556,336.8399 L713.7513,335.5398 L713.8211,335.6815 L711.8315,334.8194 L709.6189,333.5048 L707.5855,332.5539 L705.5262,331.5506 L703.4175,330.4469 L703.4496,330.5284 L701.3268,329.623 L699.3521,329.0938 L697.0465,327.7242 L695.1473,327.3866 L692.9646,326.3294 L692.8805,326.0651 L690.8581,325.4528 L688.9028,325.0508 L686.8676,324.398 L684.7637,323.5296 L682.7966,323.0905 L682.8389,323.2694 L679.2344,322.2916 L675.7243,321.7128 L672.1449,320.8411 L668.4574,319.5127 L664.93,318.8606 " fill="none" style="stroke:#191919;stroke-width:1.0;"/><polygon fill="#191919" points="659.83,317.9506,659.8692,318.0087,661.386,318.9373,663.1325,320.2064,664.8041,321.3646,666.2299,322.1582,667.9961,323.4565,667.9749,323.4417,667.2311,322.448,666.5944,321.5291,666.032,320.6623,665.2133,319.6162,664.7536,318.8212,664.8594,318.9724,665.5603,318.0005,666.57,317.4702,667.6174,316.9937,668.4455,316.2038,669.389,315.5787,669.3945,315.6008,667.4746,316.0428,665.5797,316.5852,663.6728,317.0792,661.7888,317.6657,659.83,317.9506" style="stroke:#191919;stroke-width:1.0;"/><!--MD5=[93e8fb0fe01e14ec4fb5e737ed7e2191]
link CheckFoundation to CheckTableau--><path d="M549.49,436.2106 L549.508,436.3023 L547.627,436.3885 L545.8514,437.0122 L544.0415,437.4608 L542.1186,437.334 L540.3521,438.0037 L540.3445,437.97 L538.0299,438.3304 L535.7534,438.8606 L533.5034,439.509 L531.162,439.7503 L528.9486,440.5617 L529.0101,440.8 L526.2521,440.9682 L523.6736,441.832 L521.1171,442.7806 L518.4331,443.2355 L515.8161,443.9501 L515.8248,443.9792 L512.9471,444.7933 L510.1089,445.7398 L507.2516,446.6225 L504.4308,447.6269 L501.4913,448.2344 L501.5898,448.5159 L498.5949,449.5684 L495.5364,450.4395 L492.571,451.5762 L489.6099,452.7255 L486.5106,453.4801 L486.3876,453.1841 L483.6063,455.0131 L480.4201,455.8674 L477.5417,457.4627 L474.3463,458.295 L471.4108,459.7527 L471.3971,459.7254 L468.6221,461.5203 L465.5281,462.6793 L462.6223,464.2135 L459.7323,465.7792 L456.7284,467.1177 L456.826,467.2748 L453.9818,468.8208 L451.3044,470.6353 L448.3572,472.0153 L445.8123,474.0434 L443,475.6406 L443.1496,475.8329 L440.402,477.9124 L437.7286,480.0874 L434.7101,481.8188 L431.9445,483.8753 L429.4032,486.2199 L429.2151,486.0177 L426.8205,488.5865 L424.214,490.9275 L421.915,493.599 L419.091,495.7061 L416.5791,498.1488 L416.4677,498.0446 L414.2673,500.7697 L411.5909,503.0497 L409.253,505.6463 L407.2463,508.5525 L404.6498,510.9073 L404.7984,511.0314 L402.7179,513.7302 L400.1751,516.0429 L398.2113,518.8392 L396.1214,521.5301 L393.7375,523.9756 L393.5703,523.8486 L391.7489,526.5215 L389.8728,529.1529 L388.1042,531.8659 L385.9174,534.2612 L383.9643,536.834 L384.1325,536.9521 L382.0604,539.1183 L380.313,541.5125 L379.0402,544.2397 L376.8938,546.3537 L375.4522,548.9625 L375.6414,549.0865 L374.1032,551.1886 L372.5011,553.2488 L371.0434,555.4036 L369.9197,557.7773 L368.3234,559.8413 L368.2102,559.7714 L367.4226,561.8014 L365.865,563.356 L365.1829,565.4511 L364.0078,567.2418 L362.7,568.9506 " fill="none" style="stroke:#191919;stroke-width:1.0;"/><polygon fill="#191919" points="360.08,573.3806,360.1206,573.4377,361.6048,572.126,363.327,571.1488,364.9718,570.0627,366.3615,568.6183,368.1042,567.6699,368.0977,567.6448,366.973,567.8136,365.8808,568.1089,364.8111,568.4921,363.6636,568.5722,362.6251,569.0768,362.8038,569.1227,362.1402,567.9288,361.9985,566.8688,361.9204,565.8252,361.4718,564.6865,361.2181,563.5978,361.2407,563.6004,360.9799,565.5531,360.822,567.5178,360.6144,569.4767,360.5016,571.4466,360.08,573.3806" style="stroke:#191919;stroke-width:1.0;"/><text fill="#000000" font-family="sans-serif" font-size="13" lengthAdjust="spacing" textLength="98" x="444" y="498.6357">check movement</text><text fill="#000000" font-family="sans-serif" font-size="13" lengthAdjust="spacing" textLength="57" x="468.5" y="514.9873">to tableau</text><!--MD5=[10084fc9b49872a363cbf816cfd2fad6]
link CheckTableau to CardMovedToTableau--><path d="M344.32,582.2406 L344.3208,582.334 L341.4326,582.0827 L338.5492,582.379 L335.6643,582.497 L332.774,582.0286 L329.8911,582.3719 L329.8892,582.3374 L326.1701,582.3874 L322.4607,582.6113 L318.7578,582.956 L315.032,582.8842 L311.3384,583.3958 L311.362,583.6407 L309.2236,583.3179 L307.154,583.7103 L305.0928,584.1898 L302.9827,584.1618 L300.8983,584.4007 L300.9022,584.4308 L298.6942,584.6702 L296.5037,585.0466 L294.3048,585.3569 L292.1221,585.7932 L289.8865,585.8187 L289.9353,586.1129 L287.6498,586.4953 L285.3328,586.688 L283.0619,587.1585 L280.7932,587.642 L278.456,587.7129 L278.3907,587.3991 L276.1783,588.495 L273.7508,588.5575 L271.4868,589.4056 L269.0544,589.4447 L266.76,590.1469 L266.7524,590.1174 L264.4804,591.0735 L262.0312,591.3406 L259.6865,592.0143 L257.3506,592.7221 L254.9515,593.1837 L255.007,593.3602 L252.5973,593.9227 L250.2826,594.7867 L247.8143,595.1629 L245.575,596.2668 L243.1835,596.8868 L243.2706,597.1143 L240.9393,597.9578 L238.6512,598.9143 L236.1621,599.3459 L233.8204,600.1622 L231.6092,601.3194 L231.4926,601.069 L229.3526,602.3408 L227.0813,603.3304 L225.0004,604.7292 L222.5943,605.4294 L220.3816,606.5448 L220.3064,606.4122 L218.286,607.8494 L215.9443,608.7196 L213.8311,609.9931 L211.9416,611.661 L209.6538,612.6264 L209.7643,612.7854 L207.8251,614.2946 L205.5422,615.3093 L203.6898,616.9434 L201.7436,618.4426 L199.5789,619.6273 L199.4418,619.4682 L197.6973,621.1918 L195.9078,622.8632 L194.2065,624.637 L192.1625,626.0128 L190.3099,627.611 L190.4612,627.7502 L188.4668,629.2502 L186.7645,631.019 L185.4887,633.1803 L183.4275,634.6189 L182,636.6406 L182.1872,636.7676 L180.9441,638.361 L179.6377,639.9115 L178.4743,641.5589 L177.6413,643.4305 L176.3407,644.9849 L176.2203,644.9284 L175.7231,646.9214 L174.4068,648.5301 L174.022,650.5757 L173.1127,652.3754 L172.062,654.1088 L172.1659,654.1415 L171.4714,656.0503 L171.1487,658.0763 L170.4902,659.9964 L169.6913,661.8722 L169.0089,663.7848 L169.1258,663.8079 L168.5556,665.7737 L168.5282,667.847 L167.8868,669.7987 L167.498,671.8004 L167.0263,673.7856 L166.7574,673.7572 L166.6337,675.7864 L166.834,677.8498 L166.5759,679.8647 L166.1535,681.8623 L165.9591,683.884 L165.816,683.8796 L165.8005,685.8747 L165.5316,687.862 L165.9593,689.8708 L166.0422,691.8689 L165.6523,693.8525 L165.8859,693.8656 L166.1702,697.5975 L166.0107,701.3043 L166.3196,705.0376 L166.3185,708.7533 L166.7,712.4906 " fill="none" style="stroke:#191919;stroke-width:1.0;"/><polygon fill="#191919" points="167.31,717.5706,167.3769,717.5914,167.7613,715.6483,168.5381,713.8268,169.187,711.9658,169.4159,709.9745,170.2263,708.1634,170.206,708.1474,169.4141,708.9638,168.7247,709.861,168.1067,710.8144,167.243,711.5741,166.7233,712.6052,166.8376,712.7501,165.7049,711.7396,164.9058,711.1522,164.1474,710.6164,163.1522,709.7803,162.2816,709.1022,162.3011,709.1138,163.2781,710.7904,164.3441,712.5199,165.3672,714.2239,166.4722,715.9766,167.31,717.5706" style="stroke:#191919;stroke-width:1.0;"/><text fill="#000000" font-family="sans-serif" font-size="13" lengthAdjust="spacing" textLength="98" x="188.5" y="651.1357">[ if you can move</text><text fill="#000000" font-family="sans-serif" font-size="13" lengthAdjust="spacing" textLength="105" x="187" y="667.4873">card to a tableau ]</text><text fill="#000000" font-family="sans-serif" font-size="13" lengthAdjust="spacing" textLength="67" x="208" y="683.8389">/ move card</text><!--MD5=[9042969b4a5a9d75271dc42c00e689fd]
link CardMovedToTableau to CheckSwipeCard--><path d="M170.91,767.8306 L171.0034,767.834 L170.6207,770.7713 L170.7854,773.7282 L170.7718,776.6787 L170.1721,779.6083 L170.3838,782.5669 L170.3492,782.566 L170.1175,785.5768 L170.0599,788.592 L170.1232,791.6104 L169.7696,794.6181 L170,797.6406 L170.2461,797.6419 L169.7017,801.1016 L169.8757,804.5651 L170.1374,808.029 L169.8891,811.4903 L169.9091,814.953 L169.9394,814.9534 L169.9476,818.43 L170.0938,821.9087 L170.1734,825.3864 L170.3801,828.866 L170.1725,832.3394 L170.4706,832.3481 L170.5697,835.5912 L170.4765,838.8285 L170.6648,842.0742 L170.8662,845.3202 L170.6497,848.5539 L170.3294,848.5411 L171.0611,851.3253 L170.7381,854.0673 L171.2169,856.8414 L170.8701,859.5825 L171.2,862.3506 " fill="none" style="stroke:#191919;stroke-width:1.0;"/><polygon fill="#191919" points="171.44,867.4606,171.5053,867.4861,172.0283,865.5757,172.9339,863.8148,173.715,862.0052,174.0864,860.0354,175.0248,858.2873,175.0057,858.2699,174.1572,859.0272,173.4051,859.8726,172.7201,860.7791,171.8041,861.4748,171.2117,862.4658,171.3361,862.6022,170.2343,861.548,169.4958,860.8919,168.8016,860.2843,167.8496,859.3942,167.0332,858.6527,167.0535,858.6629,167.905,860.4095,168.8491,862.2025,169.7486,863.9731,170.7332,865.7864,171.44,867.4606" style="stroke:#191919;stroke-width:1.0;"/><text fill="#000000" font-family="sans-serif" font-size="13" lengthAdjust="spacing" textLength="125" x="171" y="812.1357">[if card can be raised]</text><!--MD5=[fa06613b127f714602367c517e2d5db1]
link CheckSwipeCard to CardRaisedInTableau--><path d="M167.62,886.9906 L167.8561,887.1416 L161.8796,894.943 L157.2871,903.6295 L152.244,912.0277 L145.7186,919.4782 L141.1577,928.1848 L135.4909,936.1843 L130.2642,944.4652 L125.3434,952.9417 L119.3684,960.744 L115.4919,969.8883 L108.887,977.2879 L104.32,985.9906 " fill="none" style="stroke:#191919;stroke-width:1.0;"/><polygon fill="#191919" points="101.4,990.5606,101.4386,990.6191,102.9686,989.3613,104.7247,988.4463,106.4072,987.4197,107.8477,986.0259,109.6232,985.1404,109.6176,985.115,108.4876,985.2435,107.3855,985.4996,106.3028,985.8443,105.1532,985.8834,104.0973,986.3506,104.2776,986.39,103.65,985.2004,103.5488,984.1261,103.5118,983.0658,103.1012,981.9237,102.8871,980.8247,102.9096,980.8281,102.5791,982.7703,102.3511,984.728,102.0736,986.6783,101.8904,988.6429,101.4,990.5606" style="stroke:#191919;stroke-width:1.0;"/><text fill="#000000" font-family="sans-serif" font-size="13" lengthAdjust="spacing" textLength="57" x="133" y="957.1357">raise card</text><!--MD5=[f7f9bd056c4807a43b64772fbcd7bdde]
link CheckSwipeCard to CheckTableau--><path d="M181.52,876.4306 L181.5402,876.5218 L183.6263,875.7765 L185.8306,875.5658 L187.9964,875.181 L190.0356,874.2237 L192.2501,874.0589 L192.2413,874.0255 L194.9214,873.1607 L197.6457,872.4643 L200.4008,871.8849 L203.0499,870.9021 L205.8475,870.4844 L205.9214,870.7191 L208.8897,869.2327 L212.0738,868.4315 L215.2842,867.7139 L218.3415,866.5099 L221.4793,865.5617 L221.4901,865.5901 L224.8409,864.2652 L228.2408,863.0694 L231.6171,861.8114 L235.0386,860.6721 L238.3125,859.1456 L238.439,859.4157 L241.8809,857.8081 L245.2411,856.0262 L248.7209,854.4993 L252.2062,852.9844 L255.5141,851.0908 L255.3517,850.8145 L259.0144,849.383 L262.1422,847.0416 L265.6766,845.392 L268.7923,843.03 L272.2512,841.2519 L272.2328,841.2277 L275.539,839.1604 L278.414,836.5273 L281.5434,834.2281 L284.6942,831.9569 L287.6909,829.4836 L287.8242,829.6118 L290.3514,826.7138 L293.1065,824.0349 L295.4929,821.0015 L298.4293,818.4968 L301,815.6406 L301.2027,815.7758 L302.1805,814.2264 L303.2589,812.7441 L303.8697,810.9499 L304.8233,809.3844 L306.0805,808.0213 L305.8336,807.8976 L307.0343,806.0591 L307.9568,804.0812 L309.2828,802.3055 L309.9199,800.1846 L310.9664,798.2688 L310.8251,798.2118 L311.9971,795.9868 L312.5647,793.5178 L313.5622,791.2223 L314.9801,789.0966 L315.6492,786.6686 L315.8326,786.7309 L316.8525,784.1411 L317.3022,781.3577 L318.4662,778.8168 L319.4746,776.2231 L320.1203,773.5062 L319.9189,773.447 L320.9296,770.6064 L321.8744,767.7465 L322.9487,764.9247 L323.5192,761.9545 L324.3712,759.0672 L324.5702,759.1191 L324.9375,755.9191 L325.6888,752.8193 L327.0011,749.8656 L327.2806,746.6428 L328.3934,743.6371 L328.6136,743.6888 L329.2398,740.4309 L329.7914,737.1556 L330.5113,733.9198 L331.6199,730.7751 L332.1783,727.5014 L332.0482,727.4736 L333.1434,724.2452 L333.3538,720.8277 L334.5702,717.6253 L335.2202,714.3018 L335.7175,710.9456 L335.8243,710.9666 L336.3951,707.6116 L337.3483,704.3319 L337.956,700.9841 L338.4192,697.6079 L339.0024,694.2553 L339.1196,694.2767 L339.5498,690.9371 L340.5244,687.6968 L340.8833,684.3441 L341.4955,681.0377 L342.0244,677.716 L341.7579,677.6705 L342.397,674.4651 L343.3572,671.3146 L343.8631,668.0865 L344.2062,664.8306 L344.7751,661.6132 L344.6337,661.5905 L345.1732,658.5217 L345.4623,655.4126 L346.4396,652.414 L347.0763,649.3608 L347.2459,646.2325 L347.4774,646.2668 L348.365,640.7871 L348.813,635.2423 L349.725,629.7663 L350.3299,624.2447 L351.3139,618.7793 L351.439,618.7961 L351.9918,614.5662 L352.6956,610.3566 L352.9204,606.0825 L353.5316,601.8604 L354.16,597.6406 " fill="none" style="stroke:#191919;stroke-width:1.0;"/><polygon fill="#191919" points="354.81,592.5106,354.8699,592.5469,353.6718,594.1242,352.825,595.9141,351.8637,597.6348,350.5263,599.1277,349.7096,600.936,349.6938,600.9155,350.5168,600.1306,351.4199,599.4489,352.3786,598.839,353.1456,597.9818,354.181,597.4709,354.3269,597.5839,354.708,598.2365,355.5149,599.2191,356.3739,600.2419,356.9305,601.0305,357.6461,601.9423,357.6679,601.9489,357.0687,600.0529,356.5686,598.1868,356.0208,596.3063,355.5642,594.4532,354.81,592.5106" style="stroke:#191919;stroke-width:1.0;"/><text fill="#000000" font-family="sans-serif" font-size="13" lengthAdjust="spacing" textLength="24" x="335" y="748.1357">else</text><!--MD5=[a90f929da01bc4483a9149cc89156a2c]
link CardRaisedInTableau to CheckPossibleMovements--><path d="M71.6,990.2906 L71.6829,990.3336 L70.3358,988.0829 L69.4749,986.0841 L68.4556,984.0034 L66.9157,981.6526 L66.0965,979.6756 L66.0653,979.6607 L64.783,977.1957 L63.6579,974.8056 L62.6421,972.4675 L61.2496,969.9501 L60.3847,967.6839 L60.6108,967.7809 L59.0013,964.9474 L58.052,962.3971 L57.1832,959.8813 L55.8458,957.1645 L54.7549,954.5534 L54.7833,954.5641 L53.6901,951.7421 L52.7262,948.9686 L51.7,946.1718 L50.7927,943.4195 L49.4975,940.5219 L49.7822,940.6109 L48.8667,937.673 L47.7677,934.6777 L46.9374,931.7665 L46.1197,928.8592 L44.9029,925.8271 L44.5913,925.752 L44.4678,922.8736 L43.3183,919.7481 L42.9488,916.8104 L41.7759,913.6793 L41.2616,910.7067 L41.2315,910.702 L41.1076,907.6961 L40.2811,904.5801 L39.8691,901.5291 L39.492,898.4836 L38.8638,895.3987 L39.0485,895.4091 L38.6893,892.3469 L38.6457,889.3027 L38.0915,886.2295 L38.2989,883.1994 L38,880.1406 L38.7309,880.1406 L38.5927,870.1962 L38.8174,860.2517 L37.3559,850.3073 L37.1304,840.3628 L37.1715,830.4184 L37.9215,820.474 L37.738,810.5295 L38.9085,800.5851 L37.7671,790.6406 L37.5426,780.6962 L38.3044,770.7517 L37.1109,760.8073 L37.3078,750.8628 L38.8653,740.9184 L38.5809,730.974 L38.9793,721.0295 L37.5709,711.0851 L38.4256,701.1406 L38.7872,691.1962 L37.3701,681.2517 L37.8722,671.3073 L38.168,661.3628 L38.869,651.4184 L37.9944,641.474 L38.6168,631.5295 L37.2616,621.5851 L37.097,611.6406 L38.6715,601.6962 L37.0441,591.7517 L38.6786,581.8073 L38.2755,571.8628 L37.6428,561.9184 L37.5283,551.974 L38.6117,542.0295 L37.6009,532.0851 L38.7891,522.1406 L37.263,512.1962 L38.8232,502.2517 L38.6457,492.3073 L38.3266,482.3628 L38.063,472.4184 L38.9688,462.474 L38.8181,452.5295 L38.2257,442.5851 L38,432.6406 L38.107,432.6931 L39.0757,430.313 L40.5414,428.1763 L41.445,425.7644 L42.5798,423.4656 L43.6386,421.1297 L43.4851,420.9071 L46.743,418.7704 L50.1857,416.9018 L53.3669,414.6538 L56.4542,412.2699 L59.6717,410.0745 L59.6113,409.9447 L61.9308,408.9166 L64.1434,407.6586 L66.6499,407.0326 L69.0109,406.0938 L71.1724,404.7261 L71.2563,404.9445 L74.0038,403.9695 L76.5918,402.5795 L79.3481,401.6275 L81.993,400.3856 L84.7753,399.5015 L84.8147,399.6214 L87.9174,398.5862 L91.0677,397.6957 L94.0672,396.346 L97.1883,395.3667 L100.3148,394.404 L100.3692,394.5934 L103.8465,393.6529 L107.1763,392.1982 L110.6774,391.3409 L114.1816,390.4941 L117.6255,389.4369 L117.5583,389.1738 L121.4476,388.6224 L125.2204,387.6146 L128.9641,386.4935 L132.7741,385.6314 L136.5417,384.6035 L136.6145,384.9191 L140.5818,383.5287 L144.7158,382.8614 L148.7841,381.9094 L152.8384,380.8965 L156.8981,379.9071 L156.911,379.9684 L161.2347,379.0453 L165.4934,377.8133 L169.84,376.9992 L174.1607,376.0616 L178.5292,375.3511 L178.5346,375.3789 L183.0847,374.507 L187.6389,373.6566 L192.1486,372.5766 L196.7156,371.7916 L201.2693,370.9386 L201.2598,370.886 L206.0515,370.3378 L210.7764,369.4189 L215.4413,368.1669 L220.2106,367.4942 L224.9531,366.673 L224.9105,366.42 L229.8668,365.9763 L234.7827,365.2936 L239.6704,364.4425 L244.4905,363.1898 L249.415,362.5576 L249.4472,362.7613 L254.3784,361.4392 L259.4587,361.0607 L264.439,360.0491 L269.4814,359.4306 L274.4896,358.5957 L274.5053,358.7014 L279.6248,358.0422 L284.6511,356.7572 L289.8337,356.5217 L294.9186,355.63 L300.0113,354.7906 L300.0333,354.947 L305.2184,354.3907 L310.3329,353.335 L315.5041,352.6807 L320.6672,351.9685 L325.8146,351.1456 L325.8262,351.2325 L330.9984,350.4489 L336.2244,350.066 L341.3301,348.788 L346.5836,348.6093 L351.734,347.6639 L351.6305,346.8384 L361.9494,345.6571 L372.3507,345.1329 L382.6539,343.8253 L392.8725,341.8439 L403.2593,341.2039 L403.3225,341.7519 L413.2767,340.1947 L423.3718,339.8596 L433.3635,338.6273 L443.1938,335.9966 L453.2631,335.4369 L453.2066,334.9094 L462.6764,334.2562 L472.1769,333.8893 L481.6153,332.9427 L491.0325,331.7981 L500.4214,330.3894 L500.4063,330.2382 L509.0473,329.8104 L517.645,328.9489 L526.2126,327.7874 L534.8019,326.8422 L543.4103,326.0876 L543.3935,325.91 L550.9004,325.2867 L558.4141,324.7366 L565.9046,323.9396 L573.3892,323.079 L580.9056,322.558 L580.9621,323.2054 L591.4954,321.0209 L602.2495,321.3703 L612.8837,320.3431 L623.5202,319.342 L634.12,317.9206 " fill="none" style="stroke:#191919;stroke-width:1.0;"/><polygon fill="#191919" points="639.38,317.4906,639.4031,317.5568,637.4745,316.712,635.6811,316.2551,633.8436,315.6718,631.8615,314.6733,630.0797,314.2496,630.0629,314.2299,630.8513,314.8721,631.7241,315.6141,632.6555,316.4253,633.3848,316.9978,634.3972,317.9047,634.538,318.0239,633.5058,318.6324,632.8848,319.5891,632.314,320.5882,631.4513,321.3402,630.7421,322.2222,630.7531,322.2421,632.4646,321.2665,634.2259,320.3817,635.9632,319.4532,637.7462,318.6082,639.38,317.4906" style="stroke:#191919;stroke-width:1.0;"/><!--MD5=[5db876fa46bfdee5cd8c152858e00dea]
link CheckTableau to CheckRaiseCard--><path d="M358.27,591.6406 L358.5418,591.709 L360.1786,601.2223 L363.4085,611.1364 L366.1197,620.9199 L367.1247,630.2743 L370.3909,640.1975 L372.3842,649.8005 L374.8841,659.5309 L377.7362,669.3499 L379.3746,678.8636 L383.4287,688.985 L384.3422,698.3163 L387.3457,708.1734 L390.6042,718.0947 L392.49,727.6706 " fill="none" style="stroke:#191919;stroke-width:1.0;"/><polygon fill="#191919" points="393.76,732.7306,393.829,732.7427,393.9635,730.7665,394.5026,728.8612,394.9099,726.9327,394.884,724.9285,395.4577,723.0292,395.4355,723.0159,394.7538,723.9262,394.184,724.9037,393.692,725.9279,392.9318,726.7912,392.5473,727.8799,392.6423,728.0382,391.4691,727.1177,390.5731,726.6592,389.711,726.2571,388.652,725.5271,387.6966,724.9695,387.7145,724.9835,388.9009,726.5152,390.1689,728.1106,391.3975,729.6752,392.7012,731.2986,393.76,732.7306" style="stroke:#191919;stroke-width:1.0;"/><text fill="#000000" font-family="sans-serif" font-size="13" lengthAdjust="spacing" textLength="35" x="394" y="659.6357">check</text><text fill="#000000" font-family="sans-serif" font-size="13" lengthAdjust="spacing" textLength="57" x="387" y="675.9873">raise card</text><!--MD5=[b7521dff51c67358ac2cef414f5e3f82]
link CheckRaiseCard to CardMovedToWaste--><path d="M405.92,744.9206 L405.9361,745.0126 L407.923,745.0961 L410.0044,745.7189 L412.055,746.1661 L414.0043,746.0357 L416.0939,746.7048 L416.0864,746.6711 L418.5803,747.0777 L421.1118,747.6544 L423.6693,748.3493 L426.1369,748.6368 L428.7305,749.4948 L428.7963,749.7319 L431.5208,750.0208 L434.4376,751.0019 L437.3778,752.0675 L440.1816,752.6417 L443.0571,753.4743 L443.0672,753.5029 L446.1012,754.5314 L449.1811,755.6902 L452.2388,756.7861 L455.3387,758.002 L458.3013,758.8269 L458.4234,759.099 L461.5027,760.4841 L464.5032,761.6938 L467.619,763.1604 L470.7403,764.639 L473.6902,765.7362 L473.5282,765.4596 L476.7949,767.7263 L479.5281,769.0823 L482.6669,771.1306 L485.3879,772.466 L488.4514,774.3858 L488.4325,774.3619 L491.3281,776.759 L493.7823,778.5982 L496.4969,780.7666 L499.2334,782.9627 L501.8122,784.9594 L501.9509,785.0818 L504.0485,787.4945 L506.383,790.1163 L508.3341,792.3998 L510.8572,795.188 L513,797.6406 L513.2049,797.7724 L514.5689,799.9294 L516.0347,802.1519 L517.0277,804.0704 L518.3672,806.2117 L520.0138,808.5504 L519.7688,808.4229 L521.1898,810.8409 L522.3347,813.1152 L523.8799,815.598 L524.7417,817.7248 L526.0097,820.0633 L525.8691,820.0042 L527.1122,822.5046 L527.7544,824.7526 L528.8239,827.1801 L530.3114,829.7833 L531.0545,832.0736 L531.2381,832.1352 L532.1961,834.658 L532.5831,836.9891 L533.6853,839.5602 L534.6317,842.0791 L535.215,844.4761 L535.012,844.4226 L535.8424,847.003 L536.6063,849.566 L537.5009,852.1633 L537.8876,854.6268 L538.558,857.1651 L538.7595,857.2057 L538.8352,859.6906 L539.2999,862.2537 L540.3328,864.9314 L540.3195,867.3983 L541.1503,870.0353 L541.3741,870.0682 L541.6228,872.6378 L541.7959,875.1962 L542.1398,877.7798 L542.8787,880.4216 L543.0587,882.981 L542.9263,882.9678 L543.5787,885.5903 L543.3308,888.1229 L544.1065,890.7578 L544.3059,893.3351 L544.35,895.8969 L544.4587,895.9032 L544.5191,898.4542 L544.9688,901.0278 L545.0668,903.581 L545.0179,906.1256 L545.091,908.6774 L545.2101,908.6798 L545.0846,911.1841 L545.5123,913.6998 L545.3143,916.2026 L545.3736,918.7107 L545.3484,921.2171 L545.0781,921.2136 L545.1365,923.6534 L545.5206,926.0975 L545.4439,928.5356 L545.202,930.9715 L545.1892,933.4105 L545.0461,933.4043 L544.9901,935.7546 L544.6808,938.0939 L545.0678,940.4634 L545.1102,942.818 L544.68,945.152 L544.9134,945.1686 L544.8296,947.4107 L544.3025,949.6215 L544.2433,951.8653 L543.8743,954.0873 L543.8877,956.3363 L544.0134,956.3484 L543.7951,958.4511 L543.7286,960.5684 L543.1809,962.6395 L543.0213,964.7478 L542.8791,966.8578 L543.0745,966.883 L542.6493,970.6166 L541.6935,974.2819 L541.3542,978.0265 L541.0256,981.7725 L540.48,985.4906 " fill="none" style="stroke:#191919;stroke-width:1.0;"/><polygon fill="#191919" points="539.7,990.4906,539.759,990.5284,540.6471,988.758,541.8809,987.2092,543.0021,985.5882,543.7531,983.7298,545.0166,982.2,545.0013,982.1792,544.0205,982.7551,543.1171,983.4363,542.2674,984.1907,541.2326,984.6929,540.4571,985.5483,540.6058,985.6575,539.6181,984.512,539.0646,983.6854,538.5642,982.8978,537.7554,981.8837,537.1088,980.9887,537.1308,980.9947,537.6168,982.8863,538.2027,984.8051,538.7404,986.7108,539.3701,988.6416,539.7,990.4906" style="stroke:#191919;stroke-width:1.0;"/><text fill="#000000" font-family="sans-serif" font-size="13" lengthAdjust="spacing" textLength="96" x="559" y="860.1357">[ if you can raise</text><text fill="#000000" font-family="sans-serif" font-size="13" lengthAdjust="spacing" textLength="98" x="560" y="876.4873">card from stock ]</text><text fill="#000000" font-family="sans-serif" font-size="13" lengthAdjust="spacing" textLength="65" x="576.5" y="892.8389">/ raise card</text><text fill="#000000" font-family="sans-serif" font-size="13" lengthAdjust="spacing" textLength="120" x="551" y="909.1904">/ move card to waste</text><!--MD5=[30e3791f0c171f8f64840c30c31128c5]
link CheckRaiseCard to StockRecovered--><path d="M392.49,751.4906 L392.5765,751.5258 L391.5719,753.2577 L391.0744,755.196 L390.4118,757.0671 L389.2061,758.7171 L388.7522,760.6731 L388.7197,760.6614 L387.748,762.8891 L386.9401,765.1761 L386.2459,767.5043 L385.1595,769.6905 L384.6225,772.0756 L384.8581,772.1467 L383.5906,774.5242 L383.011,777.1092 L382.5152,779.7196 L381.5313,782.1826 L380.8041,784.7231 L380.8337,784.7296 L380.2294,787.3036 L379.76,789.907 L379.2255,792.4962 L378.8152,795.1123 L378,797.6406 L378.2973,797.665 L378.0878,800.2688 L377.6865,802.8569 L377.566,805.4679 L377.4586,808.0801 L376.9344,810.6581 L376.6142,810.6426 L377.3637,813.3182 L377.059,815.9428 L377.5557,818.6061 L377.2271,821.2295 L377.575,823.8856 L377.5449,823.8812 L378.2797,826.5145 L378.3108,829.0445 L378.7572,831.6354 L379.2384,834.2315 L379.4681,836.7906 L379.6487,836.831 L380.0048,839.2002 L380.6695,841.6385 L380.835,843.9652 L381.745,846.4582 L382.16,848.8406 " fill="none" style="stroke:#191919;stroke-width:1.0;"/><polygon fill="#191919" points="383.52,853.8606,383.5892,853.8713,383.6827,851.8927,384.182,849.9766,384.5492,848.0401,384.4817,846.0368,385.0159,844.126,384.9934,844.1132,384.3307,845.0375,383.7813,846.0266,383.3107,847.0608,382.5686,847.9397,382.2068,849.0361,382.2985,849.1963,381.1205,848.292,380.21,847.8553,379.3323,847.4757,378.2645,846.7641,377.2967,846.2271,377.3143,846.2415,378.5331,847.7471,379.8321,849.3181,381.0925,850.8576,382.4267,852.4573,383.52,853.8606" style="stroke:#191919;stroke-width:1.0;"/><text fill="#000000" font-family="sans-serif" font-size="13" lengthAdjust="spacing" textLength="129" x="379" y="812.1357">[ else ] / recover stock</text><!--MD5=[1f2148b3869dd4745a4b1a326eca2022]
link StockRecovered to CardMovedToWaste--><path d="M405.21,904.2806 L405.2893,904.33 L406.7585,906.9219 L408.6925,909.8032 L410.4751,912.5903 L411.76,915.0674 L413.7339,917.9736 L413.7055,917.954 L415.6084,920.806 L417.6546,923.757 L419.8004,926.7768 L421.6029,929.5596 L423.8863,932.6744 L424.0794,932.8268 L425.9687,935.4197 L428.4219,938.4575 L430.944,941.5496 L433.0657,944.3259 L435.398,947.2683 L435.42,947.2891 L437.908,949.933 L440.4965,952.6716 L443.0365,955.3646 L445.669,958.1447 L448,960.6406 L448.1978,960.8638 L449.8584,962.3362 L451.3913,963.6647 L453.111,965.2039 L454.8395,966.7529 L456.2906,967.9891 L456.0925,967.7371 L458.2499,969.6204 L459.7549,970.6741 L461.7559,972.3585 L463.2461,973.3934 L465.155,974.9606 L465.1374,974.9358 L467.1879,976.5395 L468.8262,977.5636 L470.7078,978.9297 L472.6097,980.3245 L474.3644,981.5122 L474.4655,981.6671 L476.2286,982.7284 L478.1644,984.0544 L479.8207,984.9522 L481.894,986.4888 L483.69,987.6006 " fill="none" style="stroke:#191919;stroke-width:1.0;"/><polygon fill="#191919" points="488.24,990.4106,488.2979,990.4501,487.017,988.7048,486.0756,987.1908,485.0236,985.6015,483.6081,983.7646,482.6959,982.2704,482.6706,982.2645,482.8162,983.3393,483.0889,984.444,483.45,985.5694,483.5065,986.6233,483.9896,987.7774,484.0318,987.957,482.8402,987.8316,481.7717,988.2307,480.7184,988.6938,479.5775,988.7845,478.4827,989.0711,478.4858,989.0936,480.4327,989.3285,482.3937,989.6659,484.3479,989.9538,486.3151,990.3361,488.24,990.4106" style="stroke:#191919;stroke-width:1.0;"/><text fill="#000000" font-family="sans-serif" font-size="13" lengthAdjust="spacing" textLength="59" x="449" y="957.1357">move card</text><!--MD5=[e81b8e7b62843cf6b2da70507d60c707]
link CardMovedToWaste to CheckPossibleMovements--><path d="M610.13,991.1106 L610.1673,991.1963 L611.9044,990.1363 L613.8602,989.5784 L615.7449,988.857 L617.3952,987.598 L619.3698,987.0832 L619.3551,987.052 L621.1467,986.0356 L623.0126,985.1767 L624.9302,984.4272 L626.6698,983.3005 L628.6587,982.7022 L628.7709,982.9212 L630.3806,981.5046 L632.3181,980.7273 L634.2955,980.028 L636.0403,978.8749 L637.9075,977.9605 L637.9223,977.9869 L639.7245,976.9261 L641.5942,975.9857 L643.4314,974.9872 L645.3306,974.0996 L647.0273,972.8505 L647.1838,973.1044 L648.9661,972.0104 L650.6474,970.7526 L652.4765,969.7346 L654.3125,968.7278 L655.9292,967.365 L655.7484,967.1002 L657.8182,966.4403 L659.2928,964.9088 L661.2198,964.0399 L662.6809,962.4886 L664.5239,961.4966 L664.5055,961.4724 L666.3637,960.5069 L667.7903,958.9759 L669.4715,957.7786 L671.1742,956.6093 L672.7226,955.238 L672.8435,955.3781 L674.2642,953.9055 L675.8915,952.6722 L677.1846,951.0517 L678.9761,950.0088 L680.4363,948.5819 L680.6141,948.7484 L683.3036,945.8101 L686.0815,942.9545 L688.4491,939.7145 L691.1174,936.7563 L694.0522,934.0476 L693.8211,933.8964 L696.1517,930.7908 L698.222,927.5148 L700.67,924.486 L702.4731,921.0351 L704.6595,917.8352 L704.5172,917.7805 L706.1316,914.2816 L707.1375,910.5492 L708.5761,906.9828 L710.4381,903.5789 L711.5462,899.8857 L711.7383,899.9096 L712.3609,895.977 L712.3858,891.97 L713.1593,888.0562 L713.7696,884.122 L714,880.1406 L713.3701,880.1406 L713.8722,870.1962 L714.168,860.2517 L714.869,850.3073 L713.9944,840.3628 L714.6168,830.4184 L713.2616,820.474 L713.097,810.5295 L714.6715,800.5851 L713.0441,790.6406 L714.6786,780.6962 L714.2755,770.7517 L713.6428,760.8073 L713.5283,750.8628 L714.6117,740.9184 L713.6009,730.974 L714.7891,721.0295 L713.263,711.0851 L714.8232,701.1406 L714.6457,691.1962 L714.3266,681.2517 L714.063,671.3073 L714.9688,661.3628 L714.8181,651.4184 L714.2257,641.474 L714.3576,631.5295 L713.8263,621.5851 L714.9553,611.6406 L714.2065,601.6962 L714.2301,591.7517 L713.1889,581.8073 L713.4597,571.8628 L714.7077,561.9184 L714.573,551.974 L713.9428,542.0295 L713.5704,532.0851 L713.7081,522.1406 L713.0851,512.1962 L714.553,502.2517 L714.9861,492.3073 L714.7019,482.3628 L714.9266,472.4184 L713.8177,462.474 L714.1163,452.5295 L713.4832,442.5851 L714,432.6406 L714.1262,432.6429 L714.0674,430.2474 L714.161,427.8546 L713.7713,425.4533 L713.7714,423.0589 L713.7889,420.6648 L713.9855,420.6785 L713.8986,418.6398 L713.278,416.5641 L713.2774,414.5314 L713.2877,412.4994 L713.0797,410.4523 L712.8133,410.4001 L712.5604,407.0475 L711.8453,403.6042 L711.0154,400.1384 L710.448,396.7241 L709.7125,393.2769 L710.0117,393.4007 L708.2393,389.975 L707.1525,386.833 L705.7957,383.5793 L704.3813,380.3017 L702.9891,377.0333 L703.0441,377.0631 L702.0525,375.2478 L700.7834,373.282 L699.8898,371.5198 L698.8851,369.6974 L698.0846,367.9856 L698.109,368 L696.9014,365.9365 L695.7127,363.8841 L694.3224,361.7131 L693.191,359.6944 L692,357.6406 L691.9564,357.6097 L690.8166,355.8279 L689.3696,353.8281 L687.6466,351.6322 L686.4037,349.7772 L685.0377,347.8348 L684.8473,347.6629 L683.508,346.1222 L681.9888,344.4189 L680.3429,342.6013 L678.3949,340.5107 L676.9137,338.8419 L677.0549,338.9922 L675.0102,337.0264 L673.6193,335.7573 L671.7897,334.0207 L670.2325,332.5743 L668.5255,330.9683 L668.5938,331.0504 L667.1085,329.8401 L665.2187,328.1432 L664.0073,327.2622 L662.3717,325.871 L660.77,324.5206 " fill="none" style="stroke:#191919;stroke-width:1.0;"/><polygon fill="#191919" points="656.72,321.4106,656.7816,321.444,657.5379,323.0762,658.6551,324.9042,659.6549,326.6684,660.268,328.2229,661.4163,330.0677,661.3906,330.0643,661.1288,328.9274,660.9965,327.8075,660.9542,326.6992,660.6017,325.5505,660.6837,324.4585,660.7076,324.6415,661.7783,324.1036,662.9188,324.1001,664.0678,324.1617,665.1673,323.844,666.2929,323.7259,666.2982,323.748,664.3758,323.2525,662.4777,322.8576,660.5679,322.4142,658.6805,322.0634,656.72,321.4106" style="stroke:#191919;stroke-width:1.0;"/><!--MD5=[dc94113a04d8177e84daa760cd065d72]
link FoundationComplete to *end--><path d="M843,904.1906 L843.2802,904.1906 L842.4476,913.8086 L843.2577,923.4266 L843.5329,933.0446 L842.0488,942.6626 L842.8964,952.2806 L842.4313,961.8986 L842.4887,971.5166 L842.9091,981.1346 L842.0782,990.7526 L843,1000.3706 " fill="none" style="stroke:#191919;stroke-width:1.0;"/><polygon fill="#191919" points="843,1005.4306,843.0639,1005.4593,843.6791,1003.5765,844.6691,1001.8615,845.537,1000.092,846.0035,998.1426,847.0257,996.4421,847.0074,996.4237,846.1232,997.139,845.331,997.9469,844.6028,998.8191,843.6541,999.4695,843.0143,1000.4306,843.1452,1000.5608,842.0676,999.4802,841.3721,998.7796,840.7233,998.1253,839.8032,997.2014,839.0257,996.4192,839.0465,996.4284,839.8108,998.2172,840.6699,1000.0478,841.4832,1001.8582,842.3838,1003.7071,843,1005.4306" style="stroke:#191919;stroke-width:1.0;"/><text fill="#000000" font-family="sans-serif" font-size="13" lengthAdjust="spacing" textLength="77" x="844" y="957.1357">win the game</text><!--MD5=[9bbcfbec21a5e819053a6fd3dbd3f4bd]
@startuml klondike- -instructions
skinparam handwritten true
!theme mars

title Klondike Instructions

state GamePrepared

state CheckPossibleMovements <<choice>>
state CheckFoundation <<choice>>
state CheckTableau <<choice>>
state CheckRaiseCard <<choice>>
state CheckFoundationComplete <<choice>>
state CheckSwipeCard <<choice>>

state CardMovedToFoundation
state CardMovedToTableau
state CardMovedToWaste
state CardRaisedInTableau

state StockRecovered
state FoundationComplete


[*] - -> GamePrepared : shuffle deck \n / put cards to tableaus \n / put cards to stock pile
GamePrepared - -> CheckPossibleMovements : init game / check \n possible movement

CheckPossibleMovements - -> CheckFoundation : check movement \n to foundation
CheckFoundation - -> CardMovedToFoundation : [ if you can move \n card to a foundation ] \n / move card
CardMovedToFoundation - -> CheckFoundationComplete
CheckFoundationComplete - -> FoundationComplete

CheckFoundationComplete - -> CheckPossibleMovements

CheckFoundation - -> CheckTableau : check movement \n to tableau
CheckTableau - -> CardMovedToTableau : [ if you can move \n card to a tableau ] \n / move card

CardMovedToTableau - -> CheckSwipeCard : [if card can be raised]
CheckSwipeCard - -> CardRaisedInTableau : raise card
CheckSwipeCard - -> CheckTableau : else
CardRaisedInTableau - -> CheckPossibleMovements

CheckTableau - -> CheckRaiseCard : check \n raise card
CheckRaiseCard - ->CardMovedToWaste : [ if you can raise \n card from stock ] \n / raise card \n / move card to waste
CheckRaiseCard - -> StockRecovered : [ else ] / recover stock
StockRecovered - -> CardMovedToWaste : move card

CardMovedToWaste - -> CheckPossibleMovements

FoundationComplete - -> [*] : win the game


@enduml

@startuml klondike- -instructions
skinparam handwritten true
skinparam BackgroundColor F9F9F9
skinparam shadowing false
skinparam RoundCorner 7
skinparam ArrowColor 191919
skinparam FontColor 191919
skinparam SequenceLifeLineBorderColor 393939
skinparam SequenceGroupHeaderFontColor 191919
skinparam SequenceGroupFontColor 393939
skinparam SequenceGroupBorderColor 393939
skinparam SequenceGroupBorderThickness 1

skinparam sequenceDivider {
    BorderColor 191919
    BorderThickness 1
    FontColor 191919
}

skinparam participant {
    BackgroundColor E55756
    BorderColor 191919
    FontColor F9F9F9
    BorderThickness 1.5
}

skinparam database {
    BackgroundColor A4DBD8
    BorderColor 191919
    FontColor 191919
}

skinparam entity {
    BackgroundColor EFBABC
    BorderColor 191919
    FontColor 191919
}

skinparam note {
    BackgroundColor e5e5e5
    BorderColor 191919
    FontColor 191919
    BorderThickness 1.5
}

skinparam actor {
    BackgroundColor 191919
    BorderColor 191919
    FontColor 191919
}

skinparam boundary {
    BackgroundColor EFBABC
    BorderColor 191919
    FontColor 191919
}

skinparam control {
    BackgroundColor EFBABC
    BorderColor 191919
    FontColor 191919
}

skinparam collections {
    BackgroundColor E55756
    BorderColor 191919
    FontColor 191919
    BorderThickness 1.5
}

skinparam queue {
    BackgroundColor E55756
    BorderColor 191919
    FontColor FFF
    BorderThickness 1.5
}

title Klondike Instructions

state GamePrepared

state CheckPossibleMovements <<choice>>
state CheckFoundation <<choice>>
state CheckTableau <<choice>>
state CheckRaiseCard <<choice>>
state CheckFoundationComplete <<choice>>
state CheckSwipeCard <<choice>>

state CardMovedToFoundation
state CardMovedToTableau
state CardMovedToWaste
state CardRaisedInTableau

state StockRecovered
state FoundationComplete


[*] - -> GamePrepared : shuffle deck \n / put cards to tableaus \n / put cards to stock pile
GamePrepared - -> CheckPossibleMovements : init game / check \n possible movement

CheckPossibleMovements - -> CheckFoundation : check movement \n to foundation
CheckFoundation - -> CardMovedToFoundation : [ if you can move \n card to a foundation ] \n / move card
CardMovedToFoundation - -> CheckFoundationComplete
CheckFoundationComplete - -> FoundationComplete

CheckFoundationComplete - -> CheckPossibleMovements

CheckFoundation - -> CheckTableau : check movement \n to tableau
CheckTableau - -> CardMovedToTableau : [ if you can move \n card to a tableau ] \n / move card

CardMovedToTableau - -> CheckSwipeCard : [if card can be raised]
CheckSwipeCard - -> CardRaisedInTableau : raise card
CheckSwipeCard - -> CheckTableau : else
CardRaisedInTableau - -> CheckPossibleMovements

CheckTableau - -> CheckRaiseCard : check \n raise card
CheckRaiseCard - ->CardMovedToWaste : [ if you can raise \n card from stock ] \n / raise card \n / move card to waste
CheckRaiseCard - -> StockRecovered : [ else ] / recover stock
StockRecovered - -> CardMovedToWaste : move card

CardMovedToWaste - -> CheckPossibleMovements

FoundationComplete - -> [*] : win the game


@enduml

PlantUML version 1.2022.0(Tue Jan 11 17:16:42 CET 2022)
(GPL source distribution)
Java Runtime: Java(TM) SE Runtime Environment
JVM: Java HotSpot(TM) 64-Bit Server VM
Default Encoding: Cp1252
Language: es
Country: ES
--></g></svg>