<?xml version="1.0" encoding="UTF-8" standalone="no"?><svg xmlns="http://www.w3.org/2000/svg" xmlns:xlink="http://www.w3.org/1999/xlink" contentScriptType="application/ecmascript" contentStyleType="text/css" height="1123px" preserveAspectRatio="none" style="width:1018px;height:1123px;background:#F9F9F9;" version="1.1" viewBox="0 0 1018 1123" width="1018px" zoomAndPan="magnify"><defs/><g><text fill="#000000" font-family="sans-serif" font-size="18" lengthAdjust="spacing" textLength="165" x="417.5" y="18.6855">Klondike Instructions</text><text fill="#000000" font-family="sans-serif" font-size="18" lengthAdjust="spacing" textLength="0" x="505" y="41.3262"/><g id="GamePrepared"><polygon fill="#FEFECE" points="271,80.6377,271,80.8479,281.2222,80.2234,291.4444,80.831,301.6667,81.0374,311.8889,79.9243,322.1111,80.56,332.3333,80.2112,342.5556,80.2542,352.7778,80.5695,363,80.6377,362.9118,80.4248,364.8384,81.5404,366.4551,81.9081,368.2781,82.7735,370.1262,83.6996,371.8388,84.2989,371.8124,84.2879,372.5921,86.0753,373.2935,87.8303,374.0905,89.6249,374.8414,91.4004,375.5,93.1377,375.6952,93.1377,375.7237,98.1377,375.7264,103.1377,375.5849,108.1377,375.6545,113.1377,375.5,118.1377,375.7163,118.2273,374.5457,119.8135,374.2445,121.7598,373.212,123.4032,372.7355,125.2769,371.8388,126.9765,371.7757,126.8241,370.0623,127.6877,368.3979,128.6694,366.5293,129.1582,364.7812,129.9379,363,130.6377,363,130.9763,352.7778,131.0539,342.5556,130.6338,332.3333,130.9249,322.1111,130.0653,311.8889,130.9221,301.6667,131.1859,291.4444,131.0822,281.2222,131.2507,271,130.6377,270.9384,130.4889,269.149,129.7046,267.3852,128.9819,265.6892,128.4229,263.9039,127.6482,262.1612,126.9765,262.371,127.0635,261.3751,125.1865,260.5911,123.3972,260.0348,121.7023,259.0269,119.8204,258.5,118.1377,258.327,118.1377,258.7163,113.1377,258.6452,108.1377,258.7448,103.1377,258.3927,98.1377,258.5,93.1377,258.5983,93.1784,259.4141,91.4452,259.819,89.5419,260.6672,87.8222,261.4677,86.0827,262.1612,84.2989,262.2443,84.4996,263.9284,83.5653,265.7557,82.9768,267.3938,81.9316,269.1458,81.1614,271,80.6377" style="stroke:#A80036;stroke-width:1.5;"/><path d="M258.5,108.2471 L258.5,108.5273 L268.25,107.6946 L278,108.5048 L287.75,108.78 L297.5,107.2959 L307.25,108.1435 L317,107.6784 L326.75,107.7357 L336.5,108.1562 L346.25,107.3252 L356,108.9853 L365.75,107.4067 L375.5,108.2471 " fill="#FEFECE" style="stroke:#A80036;stroke-width:1.5;"/><text fill="#000000" font-family="sans-serif" font-size="14" lengthAdjust="spacing" textLength="97" x="268.5" y="100.1709">GamePrepared</text></g><polygon fill="#FEFECE" points="317,214.6377,317.0495,214.6872,319.3023,216.94,321.8456,219.4833,324.2942,221.9319,326.4319,224.0695,329,226.6377,328.9817,226.6194,326.4995,228.9372,324.1096,231.3473,321.7839,233.8216,319.237,236.0747,317,238.6377,317.1305,238.7682,314.4514,236.0891,312.1534,233.7911,309.9018,231.5395,307.3798,229.0175,305,226.6377,305.0161,226.6538,307.3925,224.2302,309.8421,221.8798,312.2564,219.4941,314.738,217.1757,317,214.6377" style="stroke:#A80036;stroke-width:1.5;"/><polygon fill="#FEFECE" points="474,322.6377,474.0495,322.6872,476.3023,324.94,478.8456,327.4833,481.2942,329.9319,483.4319,332.0695,486,334.6377,485.9817,334.6194,483.4995,336.9372,481.1096,339.3473,478.7839,341.8216,476.237,344.0747,474,346.6377,474.1305,346.7682,471.4514,344.0891,469.1534,341.7911,466.9018,339.5395,464.3798,337.0175,462,334.6377,462.0161,334.6538,464.3925,332.2302,466.8421,329.8798,469.2564,327.4941,471.738,325.1757,474,322.6377" style="stroke:#A80036;stroke-width:1.5;"/><polygon fill="#FEFECE" points="474,460.6377,474.0495,460.6872,476.3023,462.94,478.8456,465.4833,481.2942,467.9319,483.4319,470.0695,486,472.6377,485.9817,472.6194,483.4995,474.9372,481.1096,477.3473,478.7839,479.8216,476.237,482.0747,474,484.6377,474.1305,484.7682,471.4514,482.0891,469.1534,479.7911,466.9018,477.5395,464.3798,475.0175,462,472.6377,462.0161,472.6538,464.3925,470.2302,466.8421,467.8798,469.2564,465.4941,471.738,463.1757,474,460.6377" style="stroke:#A80036;stroke-width:1.5;"/><polygon fill="#FEFECE" points="624,643.6377,624.0495,643.6872,626.3023,645.94,628.8456,648.4833,631.2942,650.9319,633.4319,653.0695,636,655.6377,635.9817,655.6194,633.4995,657.9372,631.1096,660.3473,628.7839,662.8216,626.237,665.0747,624,667.6377,624.1305,667.7682,621.4514,665.0891,619.1534,662.7911,616.9018,660.5395,614.3798,658.0175,612,655.6377,612.0161,655.6538,614.3925,653.2302,616.8421,650.8798,619.2564,648.4941,621.738,646.1757,624,643.6377" style="stroke:#A80036;stroke-width:1.5;"/><polygon fill="#FEFECE" points="305,795.1377,305.0495,795.1872,307.3023,797.44,309.8456,799.9833,312.2942,802.4319,314.4319,804.5695,317,807.1377,316.9817,807.1194,314.4995,809.4372,312.1096,811.8473,309.7839,814.3216,307.237,816.5747,305,819.1377,305.1305,819.2682,302.4514,816.5891,300.1534,814.2911,297.9018,812.0395,295.3798,809.5175,293,807.1377,293.0161,807.1538,295.3925,804.7302,297.8421,802.3798,300.2564,799.9941,302.738,797.6757,305,795.1377" style="stroke:#A80036;stroke-width:1.5;"/><polygon fill="#FEFECE" points="871,643.6377,871.0495,643.6872,873.3023,645.94,875.8456,648.4833,878.2942,650.9319,880.4319,653.0695,883,655.6377,882.9817,655.6194,880.4995,657.9372,878.1096,660.3473,875.7839,662.8216,873.237,665.0747,871,667.6377,871.1305,667.7682,868.4514,665.0891,866.1534,662.7911,863.9018,660.5395,861.3798,658.0175,859,655.6377,859.0161,655.6538,861.3925,653.2302,863.8421,650.8798,866.2564,648.4941,868.738,646.1757,871,643.6377" style="stroke:#A80036;stroke-width:1.5;"/><g id="CardMovedToFoundation"><polygon fill="#FEFECE" points="605.5,447.6377,605.5,447.8479,615.3125,447.2234,625.125,447.831,634.9375,448.0374,644.75,446.9243,654.5625,447.56,664.375,447.2112,674.1875,447.2542,684,447.5695,693.8125,446.9463,703.625,448.1913,713.4375,447.0074,723.25,447.4399,733.0625,448.0696,742.875,447.5519,752.6875,447.7059,762.5,447.6377,762.4959,447.6279,764.2905,448.4249,766.066,449.1758,767.878,450.0148,769.6567,450.7733,771.3388,451.2989,771.548,451.3855,772.1495,453.0991,772.9461,454.8935,773.7518,456.6917,774.0457,458.2779,775,460.1377,775.2262,460.1377,774.9012,465.1377,775.1779,470.1377,774.835,475.1377,774.9772,480.1377,775,485.1377,775.2284,485.2323,774.2528,486.8992,773.568,488.6867,772.9076,490.4842,772.1993,492.2619,771.3388,493.9765,771.3383,493.9753,769.6077,494.7972,767.7303,495.2647,766.0718,496.2608,764.3377,497.0743,762.5,497.6377,762.5,498.0822,752.6875,498.2507,742.875,497.1546,733.0625,496.9855,723.25,497.0163,713.4375,497.5788,703.625,497.4412,693.8125,498.3191,684,497.463,674.1875,497.2946,664.375,497.866,654.5625,496.9709,644.75,497.1186,634.9375,498.2866,625.125,498.0734,615.3125,498.3722,605.5,497.6377,605.459,497.5386,603.773,497.0038,602.0398,496.3551,600.1364,495.2955,598.4167,494.6792,596.6612,493.9765,596.7,493.9926,596.1296,492.2919,595.1954,490.4405,594.6069,488.7322,593.5617,486.8348,593,485.1377,592.7742,485.1377,593.1679,480.1377,592.761,475.1377,593.1697,470.1377,593.0689,465.1377,593,460.1377,592.9175,460.1035,593.6233,458.3248,594.6057,456.6607,595.1045,454.7962,596.1112,453.1421,596.6612,451.2989,596.5907,451.1286,598.5077,450.7568,600.2585,449.9835,601.9957,449.1776,603.7383,448.3845,605.5,447.6377" style="stroke:#A80036;stroke-width:1.5;"/><path d="M593,475.2471 L593,475.5273 L603.1111,474.6946 L613.2222,475.5048 L623.3333,475.78 L633.4444,474.2959 L643.5556,475.1435 L653.6667,474.6784 L663.7778,474.7357 L673.8889,475.1562 L684,474.3252 L694.1111,475.9853 L704.2222,474.4067 L714.3333,474.9834 L724.4444,475.823 L734.5556,475.1327 L744.6667,475.3381 L754.7778,475.2045 L764.8889,475.4851 L775,475.2471 " fill="#FEFECE" style="stroke:#A80036;stroke-width:1.5;"/><text fill="#000000" font-family="sans-serif" font-size="14" lengthAdjust="spacing" textLength="162" x="603" y="467.1709">CardMovedToFoundation</text></g><g id="CardMovedToTableau"><polygon fill="#FEFECE" points="393.5,630.6377,393.5,630.8479,403.2857,630.2234,413.0714,630.831,422.8571,631.0374,432.6429,629.9243,442.4286,630.56,452.2143,630.2112,462,630.2542,471.7857,630.5695,481.5714,629.9463,491.3571,631.1913,501.1429,630.0074,510.9286,630.4399,520.7143,631.0696,530.5,630.6377,530.4891,630.6113,532.2765,631.3909,534.0315,632.0923,535.8261,632.8894,537.6016,633.6403,539.3388,634.2989,539.5192,634.3736,540.2777,636.1522,541.0125,637.921,541.6139,639.6346,542.4105,641.4291,543,643.1377,543.2341,643.1377,542.7596,648.1377,543.2262,653.1377,542.9012,658.1377,543.1779,663.1377,543,668.1377,542.8476,668.0745,542.2467,669.8967,541.7639,671.7678,540.7883,673.4348,540.1035,675.2222,539.3388,676.9765,539.382,677.0808,537.6242,677.8369,535.8028,678.4398,534.0722,679.2617,532.1947,679.7292,530.5,680.6377,530.5,680.9221,520.7143,681.1859,510.9286,681.0822,501.1429,681.2507,491.3571,680.1546,481.5714,679.9855,471.7857,680.0163,462,680.5788,452.2143,680.4412,442.4286,681.3191,432.6429,680.463,422.8571,680.2946,413.0714,680.866,403.2857,679.9709,393.5,680.6377,393.4338,680.4778,391.815,680.1053,390.02,679.3074,388.2904,678.6672,386.3879,677.6097,384.6612,676.9765,384.7595,677.0172,384.1108,675.2841,383.0512,673.3807,382.4349,671.661,381.771,669.9215,381,668.1377,381.2173,668.1377,380.9986,663.1377,381.1542,658.1377,380.8154,653.1377,380.7742,648.1377,381,643.1377,381.1551,643.2019,381.5114,641.2785,382.6212,639.6671,383.2603,637.8608,383.8464,636.0325,384.6612,634.2989,384.616,634.1899,386.4875,633.7079,388.1585,632.7422,390.04,632.2844,391.6617,631.1997,393.5,630.6377" style="stroke:#A80036;stroke-width:1.5;"/><path d="M381,658.2471 L381,658.5273 L391.125,657.6946 L401.25,658.5048 L411.375,658.78 L421.5,657.2959 L431.625,658.1435 L441.75,657.6784 L451.875,657.7357 L462,658.1562 L472.125,657.3252 L482.25,658.9853 L492.375,657.4067 L502.5,657.9834 L512.625,658.823 L522.75,658.1327 L532.875,658.3381 L543,658.2471 " fill="#FEFECE" style="stroke:#A80036;stroke-width:1.5;"/><text fill="#000000" font-family="sans-serif" font-size="14" lengthAdjust="spacing" textLength="142" x="391" y="650.1709">CardMovedToTableau</text></g><g id="CardMovedToWaste"><polygon fill="#FEFECE" points="455.5,1067.6377,455.5,1067.8479,465.1154,1067.2234,474.7308,1067.831,484.3462,1068.0374,493.9615,1066.9243,503.5769,1067.56,513.1923,1067.2112,522.8077,1067.2542,532.4231,1067.5695,542.0385,1066.9463,551.6538,1068.1913,561.2692,1067.0074,570.8846,1067.4399,580.5,1067.6377,580.5551,1067.7707,582.2568,1068.3435,584.0442,1069.1232,585.7992,1069.8246,587.5938,1070.6216,589.3388,1071.2989,589.4125,1071.3294,590.2514,1073.1413,591.01,1074.92,591.7447,1076.6888,592.3462,1078.4024,593,1080.1377,593.1545,1080.1377,593.2341,1085.1377,592.7596,1090.1377,593.2262,1095.1377,592.9012,1100.1377,593,1105.1377,593.1644,1105.2058,592.1153,1106.8423,591.5144,1108.6645,591.0317,1110.5356,590.0561,1112.2025,589.3388,1113.9765,589.3523,1114.009,587.6143,1114.813,585.8564,1115.5692,584.035,1116.172,582.3044,1116.9939,580.5,1117.6377,580.5,1117.0653,570.8846,1117.9221,561.2692,1118.1859,551.6538,1118.0822,542.0385,1118.2507,532.4231,1117.1546,522.8077,1116.9855,513.1923,1117.0163,503.5769,1117.5788,493.9615,1117.4412,484.3462,1118.3191,474.7308,1117.463,465.1154,1117.2946,455.5,1117.6377,455.5291,1117.708,453.6472,1116.7001,451.8982,1116.0134,450.2795,1115.6408,448.4845,1114.8429,446.6612,1113.9765,446.8874,1114.0702,445.8298,1112.1677,445.295,1110.4817,444.6463,1108.7485,443.5868,1106.8452,443,1105.1377,442.968,1105.1377,443.042,1100.1377,443.2173,1095.1377,442.9986,1090.1377,443.1542,1085.1377,443,1080.1377,442.8295,1080.0671,443.5237,1078.2835,444.6196,1076.6664,444.9759,1074.7429,446.0857,1073.1316,446.6612,1071.2989,446.6875,1071.3625,448.3948,1070.4841,450.1516,1069.7254,452.023,1069.2434,453.694,1068.2777,455.5,1067.6377" style="stroke:#A80036;stroke-width:1.5;"/><path d="M443,1095.2471 L443,1095.5273 L453,1094.6946 L463,1095.5048 L473,1095.78 L483,1094.2959 L493,1095.1435 L503,1094.6784 L513,1094.7357 L523,1095.1562 L533,1094.3252 L543,1095.9853 L553,1094.4067 L563,1094.9834 L573,1095.823 L583,1095.1327 L593,1095.2471 " fill="#FEFECE" style="stroke:#A80036;stroke-width:1.5;"/><text fill="#000000" font-family="sans-serif" font-size="14" lengthAdjust="spacing" textLength="130" x="453" y="1087.1709">CardMovedToWaste</text></g><g id="CardRaisedInTableau"><polygon fill="#FEFECE" points="191.5,949.6377,191.5,949.8479,201.7308,949.2234,211.9615,949.831,222.1923,950.0374,232.4231,948.9243,242.6538,949.56,252.8846,949.2112,263.1154,949.2542,273.3462,949.5695,283.5769,948.9463,293.8077,950.1913,304.0385,949.0074,314.2692,949.4399,324.5,949.6377,324.5551,949.7707,326.2568,950.3435,328.0442,951.1232,329.7992,951.8246,331.5938,952.6216,333.3388,953.2989,333.4125,953.3294,334.2514,955.1413,335.01,956.92,335.7447,958.6888,336.3462,960.4024,337,962.1377,337.1545,962.1377,337.2341,967.1377,336.7596,972.1377,337.2262,977.1377,336.9012,982.1377,337,987.1377,337.1644,987.2058,336.1153,988.8423,335.5144,990.6645,335.0317,992.5356,334.0561,994.2025,333.3388,995.9765,333.3523,996.009,331.6143,996.813,329.8564,997.5692,328.035,998.172,326.3044,998.9939,324.5,999.6377,324.5,999.0653,314.2692,999.9221,304.0385,1000.1859,293.8077,1000.0822,283.5769,1000.2507,273.3462,999.1546,263.1154,998.9855,252.8846,999.0163,242.6538,999.5788,232.4231,999.4412,222.1923,1000.3191,211.9615,999.463,201.7308,999.2946,191.5,999.6377,191.5291,999.708,189.6472,998.7001,187.8982,998.0134,186.2795,997.6408,184.4845,996.8429,182.6612,995.9765,182.8874,996.0702,181.8298,994.1677,181.295,992.4817,180.6463,990.7485,179.5868,988.8452,179,987.1377,178.968,987.1377,179.042,982.1377,179.2173,977.1377,178.9986,972.1377,179.1542,967.1377,179,962.1377,178.8295,962.0671,179.5237,960.2835,180.6196,958.6664,180.9759,956.7429,182.0857,955.1316,182.6612,953.2989,182.6875,953.3625,184.3948,952.4841,186.1516,951.7254,188.023,951.2434,189.694,950.2777,191.5,949.6377" style="stroke:#A80036;stroke-width:1.5;"/><path d="M179,977.2471 L179,977.5273 L188.875,976.6946 L198.75,977.5048 L208.625,977.78 L218.5,976.2959 L228.375,977.1435 L238.25,976.6784 L248.125,976.7357 L258,977.1562 L267.875,976.3252 L277.75,977.9853 L287.625,976.4067 L297.5,976.9834 L307.375,977.823 L317.25,977.1327 L327.125,977.3381 L337,977.2471 " fill="#FEFECE" style="stroke:#A80036;stroke-width:1.5;"/><text fill="#000000" font-family="sans-serif" font-size="14" lengthAdjust="spacing" textLength="138" x="189" y="969.1709">CardRaisedInTableau</text></g><g id="StockRecovered"><polygon fill="#FEFECE" points="612.5,782.1377,612.5,782.3479,622.4,781.7234,632.3,782.331,642.2,782.5374,652.1,781.4243,662,782.06,671.9,781.7112,681.8,781.7542,691.7,782.0695,701.6,781.4463,711.5,782.1377,711.5706,782.3082,713.1874,782.6758,715.0103,783.5413,716.8584,784.4674,718.5601,785.0402,720.3388,785.7989,720.3598,785.8076,721.0612,787.5626,721.8583,789.3572,722.6092,791.1327,723.4481,792.9446,724,794.6377,724.2237,794.6377,724.2264,799.6377,724.0849,804.6377,724.1545,809.6377,724.2341,814.6377,724,819.6377,723.7779,819.5457,723.4767,821.492,722.4442,823.1354,721.9677,825.0091,720.9186,826.6456,720.3388,828.4765,720.3301,828.4554,718.6657,829.4371,716.7971,829.926,715.049,830.7057,713.311,831.5097,711.5,832.1377,711.5,832.5539,701.6,832.1338,691.7,832.4249,681.8,831.5653,671.9,832.4221,662,832.6859,652.1,832.5822,642.2,832.7507,632.3,831.6546,622.4,831.4855,612.5,832.1377,612.4207,831.9463,610.7247,831.3873,608.9394,830.6127,607.2836,830.1508,605.4067,829.155,603.6612,828.4765,603.5555,828.4328,602.9992,826.7379,601.9913,824.8559,601.3046,823.107,600.9321,821.4882,600,819.6377,600.1452,819.6377,600.2448,814.6377,599.8927,809.6377,600.1064,804.6377,600.1968,799.6377,600,794.6377,599.8545,794.5774,600.7027,792.8577,601.5033,791.1182,602.3974,789.4175,602.9276,787.5661,603.6612,785.7989,603.7202,785.9413,605.3583,784.8961,607.1103,784.1258,609.0287,783.7573,610.6408,782.6491,612.5,782.1377" style="stroke:#A80036;stroke-width:1.5;"/><path d="M600,809.7471 L600,810.0273 L610.3333,809.1946 L620.6667,810.0048 L631,810.28 L641.3333,808.7959 L651.6667,809.6435 L662,809.1784 L672.3333,809.2357 L682.6667,809.6562 L693,808.8252 L703.3333,810.4853 L713.6667,808.9067 L724,809.7471 " fill="#FEFECE" style="stroke:#A80036;stroke-width:1.5;"/><text fill="#000000" font-family="sans-serif" font-size="14" lengthAdjust="spacing" textLength="104" x="610" y="801.6709">StockRecovered</text></g><g id="FoundationComplete"><polygon fill="#FEFECE" points="843.5,949.6377,843.5,949.8479,853.2692,949.2234,863.0385,949.831,872.8077,950.0374,882.5769,948.9243,892.3462,949.56,902.1154,949.2112,911.8846,949.2542,921.6538,949.5695,931.4231,948.9463,941.1923,950.1913,950.9615,949.0074,960.7308,949.4399,970.5,949.6377,970.5551,949.7707,972.2568,950.3435,974.0442,951.1232,975.7992,951.8246,977.5938,952.6216,979.3388,953.2989,979.4125,953.3294,980.2514,955.1413,981.01,956.92,981.7447,958.6888,982.3462,960.4024,983,962.1377,983.1545,962.1377,983.2341,967.1377,982.7596,972.1377,983.2262,977.1377,982.9012,982.1377,983,987.1377,983.1644,987.2058,982.1153,988.8423,981.5144,990.6645,981.0317,992.5356,980.0561,994.2025,979.3388,995.9765,979.3523,996.009,977.6143,996.813,975.8564,997.5692,974.035,998.172,972.3044,998.9939,970.5,999.6377,970.5,999.0653,960.7308,999.9221,950.9615,1000.1859,941.1923,1000.0822,931.4231,1000.2507,921.6538,999.1546,911.8846,998.9855,902.1154,999.0163,892.3462,999.5788,882.5769,999.4412,872.8077,1000.3191,863.0385,999.463,853.2692,999.2946,843.5,999.6377,843.5291,999.708,841.6472,998.7001,839.8982,998.0134,838.2795,997.6408,836.4845,996.8429,834.6612,995.9765,834.8874,996.0702,833.8298,994.1677,833.295,992.4817,832.6463,990.7485,831.5868,988.8452,831,987.1377,830.968,987.1377,831.042,982.1377,831.2173,977.1377,830.9986,972.1377,831.1542,967.1377,831,962.1377,830.8295,962.0671,831.5237,960.2835,832.6196,958.6664,832.9759,956.7429,834.0857,955.1316,834.6612,953.2989,834.6875,953.3625,836.3948,952.4841,838.1516,951.7254,840.023,951.2434,841.694,950.2777,843.5,949.6377" style="stroke:#A80036;stroke-width:1.5;"/><path d="M831,977.2471 L831,977.5273 L841.1333,976.6946 L851.2667,977.5048 L861.4,977.78 L871.5333,976.2959 L881.6667,977.1435 L891.8,976.6784 L901.9333,976.7357 L912.0667,977.1562 L922.2,976.3252 L932.3333,977.9853 L942.4667,976.4067 L952.6,976.9834 L962.7333,977.823 L972.8667,977.1327 L983,977.2471 " fill="#FEFECE" style="stroke:#A80036;stroke-width:1.5;"/><text fill="#000000" font-family="sans-serif" font-size="14" lengthAdjust="spacing" textLength="132" x="841" y="969.1709">FoundationComplete</text></g><polygon fill="#000000" points="26.0552,108.0701,24.5894,110.073,22.8556,113.0065,20.376,114.9835,17.7703,116.0646,15.6927,116.1584,13.0224,114.8064,10.5029,113.9231,8.5905,112.1297,7.5873,110.0766,6.9924,108.4418,6.4096,106.3065,5.4636,104.469,6.1906,102.675,6.8275,100.7097,9.2175,99.1554,10.8991,97.1387,12.9804,96.469,15.4547,95.8923,18.6276,96.2349,20.3655,97.0545,22.3861,97.426,24.8429,99.9431,25.6993,102.6004,26.0714,104.4135,25.65,107.4012" style="stroke:none;stroke-width:1.0;"/><polygon fill="none" points="917.0552,1095.0701,915.5894,1097.073,913.8556,1100.0065,911.376,1101.9835,908.7703,1103.0646,906.6927,1103.1584,904.0224,1101.8064,901.5029,1100.9231,899.5905,1099.1297,898.5873,1097.0766,897.9924,1095.4418,897.4096,1093.3065,896.4636,1091.469,897.1906,1089.675,897.8275,1087.7097,900.2175,1086.1554,901.8991,1084.1387,903.9804,1083.469,906.4547,1082.8923,909.6276,1083.2349,911.3655,1084.0545,913.3861,1084.426,915.8429,1086.9431,916.6993,1089.6004,917.0714,1091.4135,916.65,1094.4012" style="stroke:#000000;stroke-width:1.0;"/><polygon fill="#000000" points="913.5331,1094.5971,912.6536,1095.7989,911.6134,1097.559,910.1256,1098.7452,908.5622,1099.3938,907.3156,1099.4501,905.7135,1098.6389,904.2017,1098.1089,903.0543,1097.0329,902.4524,1095.801,902.0955,1094.8202,901.7458,1093.539,901.1782,1092.4365,901.6143,1091.3601,901.9965,1090.1809,903.4305,1089.2483,904.4394,1088.0383,905.6882,1087.6365,907.1728,1087.2904,909.0766,1087.496,910.1193,1087.9878,911.3317,1088.2107,912.8057,1089.721,913.3196,1091.3153,913.5429,1092.4032,913.29,1094.1958" style="stroke:none;stroke-width:1.0;"/><!--MD5=[d566c117c3e0d58251a1231f44740e7d]
link *start to GamePrepared--><path d="M26.01,105.6377 L26.01,105.9179 L35.8857,105.0853 L45.7613,105.8954 L55.637,106.1706 L65.5126,104.6865 L75.3883,105.5341 L85.2639,105.069 L95.1396,105.1264 L105.0152,105.5468 L114.8909,104.7159 L124.7665,106.3759 L134.6422,104.7973 L144.5178,105.374 L154.3935,106.2136 L164.2691,105.5233 L174.1448,105.7287 L184.0204,105.5951 L193.8961,105.8757 L203.7717,105.9565 L213.6474,106.4186 L223.523,106.5324 L233.3987,106.5434 L243.2743,105.9772 L253.15,105.6377 " fill="none" style="stroke:#191919;stroke-width:1.0;"/><polygon fill="#191919" points="258.45,105.6377,258.4785,105.7017,256.5939,104.7115,254.8762,104.0966,253.1041,103.3594,251.1534,102.2204,249.45,101.6377,249.4317,101.6194,250.1495,102.3372,250.9596,103.1473,251.8339,104.0216,252.487,104.6747,253.45,105.6377,253.5805,105.7682,252.5014,106.2891,251.8034,107.1911,251.1518,108.1395,250.2298,108.8175,249.45,109.6377,249.4592,109.6585,251.2457,108.828,253.0742,108.0921,254.8824,107.3105,256.7293,106.6161,258.45,105.6377" style="stroke:#191919;stroke-width:1.0;"/><text fill="#000000" font-family="sans-serif" font-size="13" lengthAdjust="spacing" textLength="69" x="105.75" y="66.1328">shuffle deck</text><text fill="#000000" font-family="sans-serif" font-size="13" lengthAdjust="spacing" textLength="130" x="77.25" y="82.4844">/ put cards to tableaus</text><text fill="#000000" font-family="sans-serif" font-size="13" lengthAdjust="spacing" textLength="177" x="55.75" y="98.8359">/ put rest of cards to stock pile</text><!--MD5=[6c72427a252bbe53dcda76da4f0c066e]
link GamePrepared to _CheckPossibleMovement--><path d="M317,130.7177 L317.2802,130.7177 L316.4476,140.5577 L317.2577,150.3977 L317.5329,160.2377 L316.0488,170.0777 L316.8964,179.9177 L316.4313,189.7577 L316.4887,199.5977 L317,209.4377 " fill="none" style="stroke:#191919;stroke-width:1.0;"/><polygon fill="#191919" points="317,214.5077,317.064,214.5361,317.6738,212.6516,318.6589,210.9339,319.5217,209.1618,319.9827,207.2111,321,205.5077,320.9817,205.4894,320.0995,206.2072,319.3096,207.0173,318.5839,207.8916,317.637,208.5447,317,209.5077,317.1305,209.6382,316.0514,208.5591,315.3534,207.8611,314.7018,207.2095,313.7798,206.2875,313,205.5077,313.0208,205.5169,313.7903,207.3034,314.6544,209.1319,315.4728,210.9401,316.3784,212.787,317,214.5077" style="stroke:#191919;stroke-width:1.0;"/><text fill="#000000" font-family="sans-serif" font-size="13" lengthAdjust="spacing" textLength="35" x="356" y="170.1328">check</text><text fill="#000000" font-family="sans-serif" font-size="13" lengthAdjust="spacing" textLength="111" x="322" y="186.4844">possible movement</text><!--MD5=[ec5769159bcb934b7efe9f1c1eb3ef96]
link _CheckPossibleMovement to _CheckMoveToFoundation--><path d="M323.75,232.1877 L323.9068,232.42 L331.6121,237.2469 L340.2366,243.4354 L348.5617,249.1805 L355.9024,253.4676 L364.5479,259.6871 L372.4588,264.8188 L380.6621,270.3833 L389.0686,276.2489 L396.7748,281.0772 L405.8748,287.9701 L413.1627,292.1789 L421.6566,298.1739 L430.2976,304.3868 L438.0825,309.3317 L446.3686,315.019 L454.465,320.4253 L462.66,325.9777 " fill="none" style="stroke:#008000;stroke-width:2.0;"/><polygon fill="#008000" points="467.1,328.9777,467.1594,329.0149,465.9369,327.2353,465.0625,325.6737,464.0748,324.0412,462.7144,322.1751,461.8699,320.6323,461.8444,320.6273,461.947,321.7155,462.1776,322.8287,462.4974,323.9593,462.5101,325.0299,462.953,326.1845,462.9883,326.3656,461.8023,326.1949,460.7194,326.553,459.6492,326.9757,458.5057,327.0229,457.4007,327.2676,457.4047,327.29,459.3387,327.5991,461.2908,328.0102,463.2341,328.3721,465.194,328.8279,467.1,328.9777" style="stroke:#008000;stroke-width:2.0;"/><text fill="#000000" font-family="sans-serif" font-size="13" lengthAdjust="spacing" textLength="98" x="420" y="278.1328">check movement</text><text fill="#000000" font-family="sans-serif" font-size="13" lengthAdjust="spacing" textLength="85" x="430.5" y="294.4844">to a foundation</text><!--MD5=[52dd405b63e0fc2187f8cfdce723a908]
link _CheckMoveToFoundation to CardMovedToFoundation--><path d="M484.49,336.4577 L484.5003,336.5505 L486.4871,336.4988 L488.5344,336.9914 L490.5619,337.3067 L492.5248,337.0392 L494.5772,337.5785 L494.5724,337.5443 L497.068,337.7471 L499.588,338.1223 L502.125,338.6174 L504.6035,338.6995 L507.1639,339.36 L507.207,339.6023 L510.0136,339.6003 L512.946,340.3055 L515.8938,341.0971 L518.7523,341.3866 L521.6577,341.9401 L521.6643,341.9697 L524.8163,342.6295 L527.9984,343.4241 L531.1659,344.1537 L534.3611,345.0073 L537.4663,345.4564 L537.546,345.7438 L540.8532,346.6654 L544.1089,347.4016 L547.4399,348.4091 L550.7745,349.4293 L553.9971,350.0467 L553.8917,349.744 L557.4285,351.4918 L560.6181,352.2429 L564.0717,353.7518 L567.2534,354.4803 L570.658,355.8485 L570.6457,355.8206 L574.0308,357.5802 L577.1286,358.6891 L580.3959,360.182 L583.6775,361.707 L586.8564,362.9996 L586.948,363.1603 L589.8842,364.7257 L592.9771,366.5657 L595.8165,367.9615 L599.0339,370.0199 L602,371.6377 L602.1426,371.8352 L604.1569,373.2713 L606.2419,374.8055 L607.998,375.8839 L609.9953,377.2964 L612.2061,379.0049 L612.0269,378.7948 L614.1324,380.6433 L616.0359,382.2551 L618.2324,384.2103 L619.9286,385.5792 L621.9222,387.2966 L621.8156,387.1876 L623.8294,389.1644 L625.3875,390.6752 L627.2696,392.5174 L629.4688,394.6839 L631.1034,396.2729 L631.2464,396.4035 L633.0648,398.3772 L634.4384,399.9449 L636.3691,402.0212 L638.1785,403.9867 L639.705,405.6939 L639.5433,405.56 L641.2676,407.5919 L642.939,409.58 L644.7144,411.6543 L646.0853,413.3935 L647.6822,415.3198 L647.8457,415.4444 L648.9481,417.0888 L650.366,418.9737 L652.2451,421.21 L653.2752,422.7994 L654.9903,424.9107 L655.1749,425.0414 L656.3841,426.8269 L657.5308,428.5682 L658.8185,430.4094 L660.4321,432.4812 L661.5845,434.2266 L661.4736,434.1531 L662.9708,436.1322 L663.7139,437.6113 L665.3145,439.6589 L666.4323,441.3864 L667.42,443.0277 " fill="none" style="stroke:#191919;stroke-width:1.0;"/><polygon fill="#191919" points="670.2,447.4277,670.2693,447.4378,669.7783,445.4587,669.6937,443.5389,669.4767,441.5999,668.8245,439.5971,668.7748,437.6825,668.7495,437.6768,668.387,438.7548,668.152,439.8616,668.0054,440.9884,667.5538,442.0462,667.5295,443.2006,667.5701,443.3806,666.3796,442.7466,665.3078,442.6382,664.2503,442.5939,663.1087,442.1765,662.0114,441.9553,662.0241,441.9742,663.6432,443.0409,665.3199,444.1937,666.9689,445.305,668.6708,446.4955,670.2,447.4277" style="stroke:#191919;stroke-width:1.0;"/><text fill="#000000" font-family="sans-serif" font-size="13" lengthAdjust="spacing" textLength="86" x="679" y="386.1328">[ if card can be</text><text fill="#000000" font-family="sans-serif" font-size="13" lengthAdjust="spacing" textLength="134" x="657" y="402.4844">moved to a foundation ]</text><text fill="#000000" font-family="sans-serif" font-size="13" lengthAdjust="spacing" textLength="67" x="692.5" y="418.8359">/ move card</text><!--MD5=[9d6c4a1d80287f8289258f5a16234ff0]
link CardMovedToFoundation to _CheckFoundationComplete--><path d="M693.63,497.7777 L693.7162,497.8137 L694.6001,500.4373 L695.9893,503.2719 L697.214,506.0378 L697.8975,508.5777 L699.3301,511.4304 L699.2984,511.4167 L700.4695,514.3946 L701.8005,517.4417 L703.2426,520.5367 L704.3017,523.4662 L705.8972,526.6275 L706.1215,526.7287 L707.0804,529.7014 L708.6942,532.9694 L710.3879,536.2735 L711.6167,539.3679 L713.09,542.5726 L713.1174,542.5856 L714.5927,545.7457 L716.1926,548.9653 L717.7325,552.1561 L719.387,555.4017 L720.6675,558.4689 L720.9329,558.6051 L722.4803,561.617 L723.8566,564.5411 L725.4834,567.5937 L727.1219,570.6524 L728.3884,573.5202 L728.1098,573.3618 L730.1752,576.3511 L731.3231,578.8189 L733.1685,581.6832 L734.2957,584.1391 L736.0116,586.9297 L735.9862,586.9129 L737.743,589.3063 L738.9072,591.3063 L740.4211,593.5384 L741.9644,595.7901 L743.2958,597.9011 L743.4356,598.0222 L744.6353,599.4473 L746.074,601.0793 L747.1261,602.3764 L748.7547,604.1731 L750,605.6377 L750.1529,605.8274 L752.6179,607.8015 L755.1588,609.8698 L757.3471,611.5004 L759.7938,613.4519 L762.4697,615.6875 L762.3224,615.4539 L765.2031,617.3965 L767.9179,619.0759 L770.8733,621.1371 L773.4179,622.5464 L776.2067,624.3432 L776.1377,624.2072 L779.1494,625.9043 L781.8662,627.0202 L784.7927,628.5494 L787.9245,630.4829 L790.6907,631.6964 L790.7653,631.8751 L793.7586,633.2261 L796.5198,634.0214 L799.5717,635.5128 L802.5603,636.8526 L805.4012,637.8389 L805.3322,637.6407 L808.2706,638.8034 L811.1863,639.9013 L814.1465,641.1267 L816.9339,641.8561 L819.8179,642.8626 L819.8758,643.0598 L822.4689,643.4258 L825.1739,644.1724 L828.0423,645.4753 L830.6099,645.7541 L833.4202,646.8591 L833.4749,647.0786 L835.8959,647.5604 L838.2983,647.968 L840.7426,648.5432 L843.2835,649.5058 L845.6877,649.9202 L845.66,649.7901 L847.8249,650.621 L849.8014,650.5669 L851.9922,651.5191 L854.0624,651.9047 L856.1,652.1377 " fill="none" style="stroke:#191919;stroke-width:1.0;"/><polygon fill="#191919" points="861.28,653.1077,861.3197,653.1654,859.5785,651.8781,858.0699,650.9293,856.4855,649.8703,854.6521,648.4488,853.1635,647.529,853.1421,647.5143,853.6864,648.3814,854.3384,649.3223,855.0653,650.3146,855.5342,651.1299,856.3643,652.1932,856.4688,652.3453,855.3126,652.6601,854.4614,653.4192,853.6473,654.2324,852.6168,654.7303,851.7002,655.394,851.7055,655.4162,853.6137,654.9264,855.5459,654.5374,857.4666,654.0998,859.4094,653.7549,861.28,653.1077" style="stroke:#191919;stroke-width:1.0;"/><text fill="#000000" font-family="sans-serif" font-size="13" lengthAdjust="spacing" textLength="45" x="767" y="553.1328">check if</text><text fill="#000000" font-family="sans-serif" font-size="13" lengthAdjust="spacing" textLength="73" x="755" y="569.4844">foundation is</text><text fill="#000000" font-family="sans-serif" font-size="13" lengthAdjust="spacing" textLength="53" x="767" y="585.8359">complete</text><!--MD5=[238fc620bf0a8a74ec9ae18b580686bd]
link _CheckFoundationComplete to FoundationComplete--><path d="M872.16,666.8277 L872.4385,666.8593 L872.7368,676.6782 L874.6675,686.6825 L876.0666,696.6264 L875.7177,706.3718 L877.6856,716.3803 L878.3493,726.2407 L879.5319,736.16 L881.0754,746.1203 L881.3755,755.9394 L884.1506,766.0396 L883.7078,775.7743 L885.4066,785.7522 L887.3665,795.7598 L887.8064,805.5948 L889.1361,815.5308 L890.1291,825.4286 L891.5337,835.3731 L892.7397,845.2951 L894.3245,855.2601 L895.5633,865.1858 L896.6999,875.0999 L897.263,884.9489 L898.6656,894.8932 L900.1075,904.8419 L899.3474,914.5406 L902.3275,924.6641 L902.1615,934.4302 L903.68,944.3877 " fill="none" style="stroke:#191919;stroke-width:1.0;"/><polygon fill="#191919" points="904.26,949.5077,904.3268,949.5288,904.7223,947.588,905.5093,945.7709,906.1689,943.9136,906.4091,941.9236,907.2298,940.1173,907.2095,940.1011,906.413,940.9129,905.7186,941.8062,905.0951,942.7561,904.2271,943.5109,903.7016,944.539,903.8167,944.6832,902.6862,943.6691,901.8917,943.0762,901.1383,942.5346,900.1463,941.6941,899.2798,941.0108,899.2995,941.0223,900.2667,942.7048,901.3232,944.4396,902.3367,946.1492,903.4324,947.907,904.26,949.5077" style="stroke:#191919;stroke-width:1.0;"/><text fill="#000000" font-family="sans-serif" font-size="13" lengthAdjust="spacing" textLength="91" x="900" y="796.1328">[ if foundation is</text><text fill="#000000" font-family="sans-serif" font-size="13" lengthAdjust="spacing" textLength="61" x="917" y="812.4844">complete ]</text><text fill="#000000" font-family="sans-serif" font-size="13" lengthAdjust="spacing" textLength="107" x="896" y="828.8359">/ sing the victory ;)</text><!--MD5=[5cd2f4fd1478e34d8a08f8b4af197fa0]
link _CheckFoundationComplete to _CheckPossibleMovement--><path d="M871.88,644.4177 L871.9733,644.4225 L871.9017,640.4528 L872.3769,636.5116 L872.6741,632.561 L872.3856,628.5801 L872.9078,624.6412 L872.8732,624.6404 L872.7789,622.0236 L872.8587,619.4108 L873.0595,616.8009 L872.8432,614.1812 L873.2111,611.5752 L873.4571,611.5753 L872.9325,608.6055 L873.1264,605.6361 L873.4078,602.6668 L873.1793,599.6972 L873.2191,596.7277 L873.2494,596.7284 L873.1242,593.4521 L873.137,590.1792 L873.0832,586.9047 L873.1565,583.6333 L872.8156,580.3516 L873.1135,580.3673 L872.9309,576.8372 L872.5562,573.2969 L872.4627,569.7714 L872.3825,566.2466 L871.8846,562.6998 L871.5652,562.6729 L871.8701,558.9902 L871.1233,555.2188 L871.1761,551.5149 L870.4055,547.7415 L870.3098,544.025 L870.2795,544.0214 L870.1701,540.1754 L869.3543,536.2445 L868.9554,532.3637 L868.5914,528.4871 L867.975,524.5802 L868.1579,524.6076 L867.6756,522.5935 L867.5058,520.6262 L866.8302,518.5832 L866.9091,516.6532 L866.4863,514.648 L866.7265,514.6892 L866.3366,512.6754 L866.066,510.6821 L865.2414,508.5937 L864.8229,506.575 L864.7642,504.6181 L864.4931,504.5652 L864.3444,502.5939 L863.8903,500.5629 L863.8792,498.6185 L863.1118,496.5264 L862.7939,494.5221 L862.645,494.4892 L862.4464,492.5178 L861.6113,490.406 L861.2289,488.3941 L861.2893,486.4797 L860.5611,484.3915 L860.749,484.4381 L860.3759,482.4433 L859.4183,480.3038 L859.1928,478.3456 L858.8078,476.3479 L858.0511,474.2581 L857.8488,474.202 L857.4497,472.2258 L856.9844,470.2312 L856.6493,468.2727 L855.8081,466.1738 L855.2495,464.1534 L855.4459,464.2141 L854.3929,462.0717 L853.7189,460.0466 L853.5987,458.1929 L852.459,456.0237 L852.1418,454.109 L852.3557,454.1826 L851.543,452.1484 L850.6579,450.0892 L849.9361,448.0862 L849.5919,446.2134 L848.7134,444.1564 L848.5892,444.1089 L848.2064,442.2847 L846.9786,440.137 L846.7116,438.3572 L845.9036,436.3702 L844.9499,434.3275 L845.0501,434.3701 L844.1465,432.4009 L843.6017,430.5843 L842.7329,428.6298 L841.7285,426.6178 L840.8366,424.6536 L840.9444,424.7045 L839.8887,422.7314 L839.3336,420.9946 L838.2123,418.9907 L837.324,417.0966 L836.3591,415.1664 L836.1196,415.041 L835.2283,413.2291 L834.6255,411.5684 L833.6145,409.6938 L832.4572,407.7425 L831.5029,405.8976 L831.3791,405.8256 L830.3689,404.0449 L829.1395,402.1366 L828.5125,400.579 L827.5873,398.8479 L826.2533,396.8787 L826.4497,397.0059 L825.3811,395.2991 L823.9394,393.3508 L822.8915,391.6574 L821.5829,389.7952 L820.596,388.1414 L820.6984,388.2153 L819.4691,386.5207 L818.3633,384.9154 L816.8655,383.0271 L815.6839,381.367 L814.5164,379.7172 L814.6698,379.8409 L813.4094,378.2596 L811.7326,376.3424 L810.5395,374.8154 L809.3549,373.2952 L808,371.6377 L807.7963,371.4582 L806.542,369.9531 L804.9343,368.1366 L803.2389,366.2427 L801.7441,364.5256 L800.1208,362.6954 L800.3565,362.9175 L798.4666,360.9516 L797.1167,359.4945 L795.5542,357.8371 L793.9463,356.1369 L792.3558,354.4532 L792.3999,354.4978 L790.858,352.9739 L789.0943,351.2254 L787.6308,349.7808 L786.0786,348.2464 L784.6895,346.8771 L784.7087,346.898 L783.1993,345.5171 L781.7047,344.1524 L780.0522,342.6152 L778.6026,341.2996 L777.1062,339.9329 L777.0726,339.8914 L774.2715,337.7064 L771.2334,335.2287 L767.9823,332.4879 L765.1017,330.2046 L762.1261,327.804 L761.9826,327.5914 L759.2306,325.9082 L756.343,324.0241 L753.36,321.9985 L750.1492,319.6354 L747.2903,317.7938 L747.3898,317.9744 L744.1677,315.8718 L741.4067,314.606 L738.3363,312.7787 L735.4579,311.3 L732.4739,309.6294 L732.5171,309.7271 L729.5743,308.5031 L726.3758,306.7002 L723.606,305.868 L720.5682,304.4289 L717.5518,303.0382 L717.6038,303.1873 L714.6307,302.2938 L711.4914,300.9241 L708.4857,299.9372 L705.4607,298.895 L702.3988,297.7473 L702.422,297.8318 L699.297,296.8943 L696.279,296.3465 L693.0217,294.928 L690.0584,294.5789 L686.89,293.4839 L686.8306,293.2131 L683.6406,292.5477 L680.4979,292.0979 L677.2988,291.3911 L674.0513,290.4632 L670.9002,289.9754 L670.9332,290.1563 L667.5898,289.4177 L664.3199,289.0825 L660.996,288.4512 L657.5879,287.3582 L654.3045,286.9489 L654.2761,286.7744 L650.8299,286.3288 L647.3991,285.978 L643.9371,285.4354 L640.4645,284.8273 L636.9777,284.1317 L636.9539,283.9816 L633.3853,283.8349 L629.7485,283.2576 L626.0646,282.3825 L622.4147,281.7222 L618.7947,281.251 L618.7652,281.075 L614.9461,280.5135 L611.1391,280.0244 L607.2911,279.2908 L603.4326,278.4943 L599.6305,278.034 L599.6707,278.2468 L595.5386,277.0683 L591.5637,276.723 L587.5034,275.925 L583.4448,275.1356 L579.36,274.2079 L579.4234,274.5091 L577.2197,273.6557 L575.0969,273.1865 L573.054,273.0976 L570.8341,272.167 L568.7709,271.9813 L568.7478,271.8799 L566.5997,271.5351 L564.4126,271.0186 L562.188,270.3372 L560.0365,269.9777 L557.8582,269.5001 L557.9373,269.8214 L555.6768,269.226 L553.2942,268.1348 L551.1155,267.8721 L548.8022,267.0625 L546.6065,266.7303 L546.6035,266.719 L544.3187,266.2376 L542.0119,265.6736 L539.5665,264.5893 L537.3671,264.4282 L535,263.6377 L535.001,263.6413 L532.1092,262.6502 L529.2912,261.9375 L526.5543,261.5313 L523.718,260.7495 L520.8619,259.8932 L520.8602,259.8861 L517.9022,258.9007 L515.1526,258.7729 L512.1616,257.6517 L509.2497,256.856 L506.416,256.3817 L506.4095,256.3525 L503.5442,255.9808 L500.6176,255.3353 L497.6321,254.427 L494.6849,253.6896 L491.7705,253.0985 L491.7858,253.1724 L488.8399,252.5676 L485.8299,251.6536 L482.9658,251.4428 L480.0315,250.8939 L477.0336,250.0388 L477.0154,249.9446 L474.0534,249.2833 L471.2024,249.1969 L468.2033,248.3434 L465.2575,247.766 L462.3135,247.1979 L462.3371,247.3287 L459.3437,246.3902 L456.5172,246.3791 L453.5553,245.6152 L450.6901,245.3891 L447.7185,244.5712 L447.7025,244.4766 L444.8763,244.267 L441.941,243.4097 L439.1194,243.2283 L436.257,242.8037 L433.3566,242.154 L433.334,242.0103 L430.5777,241.8708 L427.7089,241.0181 L424.9118,240.6199 L422.1876,240.6837 L419.3363,239.9414 L419.3796,240.2425 L414.0556,239.4256 L408.68,238.2511 L403.4104,237.8127 L398.0394,236.6701 L392.7526,236.1118 L392.7559,236.1375 L387.9687,235.4978 L383.1701,234.7693 L378.4358,234.5431 L373.6422,233.8536 L368.8333,233.0447 L368.817,232.9031 L364.7821,232.8088 L360.6822,232.1484 L356.57,231.3817 L352.5099,231.068 L348.4438,230.7026 L348.4198,230.4703 L345.2387,230.3101 L342.0175,229.7626 L338.8201,229.4443 L335.652,229.4097 L332.45,229.0477 " fill="none" style="stroke:#191919;stroke-width:1.0;"/><polygon fill="#191919" points="327.16,228.5377,327.1944,228.5987,328.8087,229.3837,330.6245,230.5265,332.3747,231.5529,333.9091,232.1959,335.7422,233.3695,335.7222,233.353,334.9117,232.4069,334.2019,231.5441,333.562,230.7391,332.681,229.7348,332.1377,229.0097,332.2553,229.1519,332.8757,228.1269,333.8396,227.5171,334.8453,226.958,335.6073,226.1041,336.4974,225.4052,336.5047,225.4268,334.6266,226.0216,332.7814,226.7146,330.9203,227.3603,329.0896,228.0963,327.16,228.5377" style="stroke:#191919;stroke-width:1.0;"/><text fill="#000000" font-family="sans-serif" font-size="13" lengthAdjust="spacing" textLength="40" x="841" y="402.6328">[ else ]</text><!--MD5=[ab7f3af6e98ecb1de846c01b77ef904d]
link _CheckMoveToFoundation to _CheckMoveToTableau--><path d="M474,346.7677 L474.2802,346.7677 L473.4476,356.6186 L474.2577,366.4695 L474.5329,376.3204 L473.0488,386.1713 L473.8964,396.0222 L473.4313,405.8731 L473.4887,415.7241 L473.9091,425.575 L473.0782,435.4259 L474.7382,445.2768 L474,455.1277 " fill="none" style="stroke:#191919;stroke-width:1.0;"/><polygon fill="#191919" points="474,460.3577,474.064,460.3861,474.6738,458.5016,475.6589,456.7839,476.5217,455.0118,476.9827,453.0611,478,451.3577,477.9817,451.3394,477.0995,452.0572,476.3096,452.8673,475.5839,453.7416,474.637,454.3947,474,455.3577,474.1305,455.4882,473.0514,454.4091,472.3534,453.7111,471.7018,453.0595,470.7798,452.1375,470,451.3577,470.0208,451.3669,470.7903,453.1534,471.6544,454.9819,472.4728,456.7901,473.3784,458.637,474,460.3577" style="stroke:#191919;stroke-width:1.0;"/><text fill="#000000" font-family="sans-serif" font-size="13" lengthAdjust="spacing" textLength="40" x="510" y="386.1328">[ else ]</text><text fill="#000000" font-family="sans-serif" font-size="13" lengthAdjust="spacing" textLength="106" x="479" y="402.4844">/ check movement</text><text fill="#000000" font-family="sans-serif" font-size="13" lengthAdjust="spacing" textLength="57" x="505.5" y="418.8359">to tableau</text><!--MD5=[e400538ab9236065dbf0a71d17218731]
link _CheckMoveToTableau to CardMovedToTableau--><path d="M467.74,478.8677 L467.8042,478.9355 L465.9934,480.2683 L464.5592,481.9987 L463.0023,483.5996 L461.0422,484.7747 L459.6403,486.5393 L459.6147,486.5161 L457.6416,488.4689 L455.7977,490.5384 L454.0436,492.689 L451.9801,494.56 L450.35,496.8227 L450.55,496.9661 L448.3663,499.1092 L446.7664,501.6709 L445.2378,504.2836 L443.2948,506.5992 L441.5697,509.0711 L441.597,509.0844 L440.243,511.7783 L439.0132,514.5323 L437.7235,517.2574 L436.5482,520.0378 L435,522.6377 L435.2841,522.7286 L434.5133,525.1493 L433.5594,527.5114 L432.8736,529.9593 L432.2004,532.4113 L431.1289,534.7358 L430.8175,534.6602 L430.9109,536.914 L429.9787,538.919 L429.8262,541.1132 L428.8707,543.1126 L428.5734,545.2716 L428.5431,545.269 L428.5852,549.0046 L427.9185,552.6797 L427.67,556.3905 L427.4566,560.1043 L426.99,563.7964 L427.1735,563.8202 L427.4726,567.5353 L428.0852,571.291 L428.1906,574.981 L429.0526,578.7691 L429.4116,582.4919 L429.6491,582.5461 L430.0943,584.6857 L430.6575,586.8521 L430.6727,588.8937 L431.0895,591.0268 L431.8623,593.241 L431.5946,593.1733 L432.4645,595.7139 L433.0327,598.1783 L434.0385,600.7533 L434.2972,603.1393 L435,605.6377 L434.8554,605.5894 L435.778,607.7116 L436.0824,609.6273 L436.8264,611.6899 L438.0006,613.896 L438.4088,615.8464 L438.5845,615.9278 L439.6192,617.9579 L440.1075,619.7348 L441.2802,621.8288 L442.3039,623.8537 L442.98,625.7177 " fill="none" style="stroke:#191919;stroke-width:1.0;"/><polygon fill="#191919" points="445.55,630.4777,445.6198,630.4832,445.2576,628.5032,445.3048,626.5554,445.2187,624.5971,444.6941,622.6043,444.7765,620.6593,444.7517,620.6519,444.3183,621.7034,444.0101,622.7921,443.7889,623.9066,443.2678,624.9321,443.1667,626.0822,443.2193,626.2591,442.0224,625.5589,440.9788,625.3751,439.9539,625.2544,438.8202,624.767,437.7438,624.4725,437.7576,624.4905,439.2985,625.6651,440.9025,626.9217,442.4761,628.1388,444.1078,629.4314,445.55,630.4777" style="stroke:#191919;stroke-width:1.0;"/><text fill="#000000" font-family="sans-serif" font-size="13" lengthAdjust="spacing" textLength="86" x="453.5" y="553.1328">[ if card can be</text><text fill="#000000" font-family="sans-serif" font-size="13" lengthAdjust="spacing" textLength="117" x="440" y="569.4844">moved to a tableau ]</text><text fill="#000000" font-family="sans-serif" font-size="13" lengthAdjust="spacing" textLength="67" x="467" y="585.8359">/ move card</text><!--MD5=[57b024d0e14470d71383fcdac2371aeb]
link CardMovedToTableau to _CheckRaiseInTableau--><path d="M413.64,680.7677 L413.6892,680.8471 L411.7388,681.7289 L410.0769,683.0763 L408.321,684.272 L406.2563,684.9693 L404.6191,686.3566 L404.5997,686.328 L402.7271,687.406 L400.952,688.6283 L399.2447,689.9509 L397.3038,690.9279 L395.69,692.3889 L395.8373,692.586 L393.7995,693.4524 L392.1917,694.8942 L390.6365,696.4062 L388.7759,697.5098 L387.0759,698.8282 L387.0955,698.8514 L385.4516,700.1792 L383.8967,701.6126 L382.2989,702.9951 L380.783,704.4748 L379,705.6377 L379.2082,705.8512 L376.9902,708.0195 L374.6378,710.0501 L372.482,712.2822 L370.3354,714.5238 L367.8969,716.4661 L367.6587,716.2516 L366.0072,719.0146 L363.5715,721.0713 L361.732,723.665 L359.2785,725.7058 L357.3283,728.1997 L357.3046,728.1805 L355.6001,730.8523 L353.3432,733.0758 L351.4123,735.5637 L349.5087,738.0739 L347.4077,740.4239 L347.5561,740.5344 L345.5745,742.8829 L343.8465,745.4202 L341.7083,747.652 L340.1819,750.3394 L338.2488,752.7239 L338.449,752.8627 L336.7544,755.2287 L335.1592,757.6635 L333.102,759.7784 L331.3834,762.1278 L329.9649,764.6851 L329.7335,764.5344 L328.484,766.9123 L326.9737,769.1204 L325.8417,771.5748 L324.0638,773.6087 L322.6698,775.8925 L322.5401,775.8125 L321.5176,777.9536 L319.9405,779.7526 L318.7578,781.7949 L317.9611,784.0753 L316.477,785.9317 L316.6439,786.0299 L315.7629,787.7884 L314.363,789.2415 L313.6131,791.0772 L312.7215,792.8296 L311.5,794.3877 " fill="none" style="stroke:#191919;stroke-width:1.0;"/><polygon fill="#191919" points="309.01,798.7877,309.0516,798.844,310.5118,797.5057,312.2162,796.4976,313.841,795.3819,315.2043,793.9126,316.9296,792.9328,316.9227,792.9079,315.8012,793.0969,314.7145,793.4119,313.6519,793.8144,312.5061,793.9153,311.4769,794.4386,311.6548,794.4877,310.9732,793.2921,310.811,792.24,310.7122,791.2053,310.2447,790.0688,309.9711,788.9858,309.9937,788.9881,309.7683,790.9452,309.6459,792.9124,309.4738,794.8747,309.3965,796.8464,309.01,798.7877" style="stroke:#191919;stroke-width:1.0;"/><text fill="#000000" font-family="sans-serif" font-size="13" lengthAdjust="spacing" textLength="56" x="399.5" y="720.1328">check if a</text><text fill="#000000" font-family="sans-serif" font-size="13" lengthAdjust="spacing" textLength="68" x="395.5" y="736.4844">card can be</text><text fill="#000000" font-family="sans-serif" font-size="13" lengthAdjust="spacing" textLength="95" x="384" y="752.8359">raised in tableau</text><!--MD5=[5e5efcafd66efda1825870cfd81c9895]
link _CheckRaiseInTableau to CardRaisedInTableau--><path d="M302.47,817.0377 L302.7396,817.1143 L299.1517,826.7006 L297.1441,836.7358 L294.6219,846.6248 L290.4073,856.0332 L288.4357,866.0786 L285.2014,875.7654 L282.4697,885.5949 L280.0872,895.5236 L276.5009,905.1105 L275.3109,915.3778 L271.0054,924.7604 L268.7733,934.7318 L266.24,944.6177 " fill="none" style="stroke:#191919;stroke-width:1.0;"/><polygon fill="#191919" points="264.82,949.6077,264.8739,949.6525,265.9734,948.0049,267.3886,946.62,268.7011,945.1496,269.6754,943.3979,271.1178,942.0355,271.1051,942.0129,270.0609,942.4636,269.0804,943.0282,268.1442,943.6722,267.0554,944.043,266.1804,944.7963,266.3414,944.8864,265.4448,943.7063,265.0185,942.7892,264.6495,941.9041,263.9468,940.8324,263.4195,939.8589,263.4421,939.8621,263.6891,941.8072,264.0386,943.7669,264.3387,945.7195,264.7332,947.6857,264.82,949.6077" style="stroke:#191919;stroke-width:1.0;"/><text fill="#000000" font-family="sans-serif" font-size="13" lengthAdjust="spacing" textLength="86" x="301.5" y="880.1328">[ if card can be</text><text fill="#000000" font-family="sans-serif" font-size="13" lengthAdjust="spacing" textLength="103" x="295" y="896.4844">raised in tableau ]</text><text fill="#000000" font-family="sans-serif" font-size="13" lengthAdjust="spacing" textLength="65" x="316" y="912.8359">/ raise card</text><!--MD5=[67a1422a59b07cfab1de402c4f0f5579]
link _CheckRaiseInTableau to _CheckPossibleMovement--><path d="M305.23,794.9577 L305.5102,794.9635 L304.8857,784.9202 L305.9037,774.911 L306.3868,764.8907 L305.111,754.834 L306.1664,744.8255 L305.9095,734.7899 L306.1748,724.7651 L306.8031,714.7478 L306.1804,704.7046 L308.048,694.713 L306.6778,684.6543 L307.4624,674.6402 L308.5098,664.6316 L308.0277,654.5913 L308.441,644.5696 L308.5154,634.5408 L309.004,624.5206 L309.2928,614.4963 L309.9628,604.4799 L310.2845,594.4563 L310.5035,584.4305 L310.1454,574.3927 L310.632,564.3725 L311.1581,554.3531 L309.4686,544.2878 L311.5425,534.3005 L310.4507,524.2475 L311.7656,514.2445 L310.6021,504.19 L311.3787,494.1758 L312.6666,484.1722 L311.821,474.1243 L312.2344,464.1026 L312.7534,454.0831 L313.0649,444.0592 L312.7128,434.0216 L313.3089,424.0036 L312.3709,413.9539 L313.7211,403.9516 L314.2808,393.9329 L314.3506,383.904 L314.7832,373.8826 L313.53,363.8263 L313.5126,353.7957 L313.7616,343.7705 L314.7195,333.7601 L314.744,323.7303 L316.1224,313.7285 L315.1891,303.6789 L315.1727,293.6482 L316.1423,283.638 L315.1571,273.5873 L315.562,263.5653 L317.3271,253.5716 L316.67,243.5277 " fill="none" style="stroke:#191919;stroke-width:1.0;"/><polygon fill="#191919" points="316.78,238.4277,316.8434,238.4574,315.8191,240.1527,315.1667,242.0223,314.3931,243.8352,313.2213,245.4614,312.6008,247.3459,312.5829,247.3272,313.3182,246.4596,314.1439,245.686,315.0326,244.978,315.7045,244.0444,316.68,243.4267,316.8131,243.5546,317.3124,244.097,318.2002,245.0127,319.1354,245.974,319.7948,246.6702,320.5992,247.5059,320.6202,247.5147,319.8256,245.6861,319.1264,243.8977,318.3812,242.0899,317.7238,240.319,316.78,238.4277" style="stroke:#191919;stroke-width:1.0;"/><text fill="#000000" font-family="sans-serif" font-size="13" lengthAdjust="spacing" textLength="40" x="314" y="478.1328">[ else ]</text><!--MD5=[5ebd9f3a52d471b86ddaf510f7b53bb5]
link CardRaisedInTableau to _CheckPossibleMovement--><path d="M241.27,949.3677 L241.3497,949.4165 L239.5411,946.7049 L238.1996,944.2793 L236.706,941.7606 L234.7123,938.9356 L233.4108,936.5345 L233.3807,936.5176 L231.5717,933.4661 L229.9144,930.5 L228.3626,927.5933 L226.4472,924.482 L225.0411,921.6572 L225.2606,921.7684 L223.1112,918.2131 L221.6027,914.9823 L220.1724,911.7912 L218.2871,908.3696 L216.6411,905.0692 L216.6688,905.0815 L215.0382,901.4704 L213.5337,897.9152 L211.9684,894.3331 L210.5193,890.8023 L208.6912,887.1039 L208.9692,887.2121 L208.2414,885.3344 L207.3343,883.387 L206.6896,881.5417 L206.0573,879.7012 L205.0352,877.709 L204.7327,877.6032 L204.6472,875.8857 L203.5655,873.8198 L203.2411,872.0188 L202.1369,869.9449 L201.6719,868.0947 L201.6428,868.0858 L201.3848,866.2332 L200.4469,864.1716 L199.9102,862.2334 L199.4072,860.3055 L198.6612,858.3029 L198.8402,858.3497 L198.1399,856.3169 L197.7455,854.3641 L196.8563,852.2818 L196.7051,850.3926 L196.0633,848.375 L196.3016,848.4256 L195.8315,846.4116 L195.4798,844.4227 L194.5782,842.3172 L194.0796,840.2972 L193.9382,838.3529 L193.6654,838.3098 L193.5939,836.3339 L193.215,834.3094 L193.2819,832.3554 L192.5877,830.281 L192.3459,828.2782 L192.1942,828.2632 L192.247,826.2711 L191.6512,824.2147 L191.5166,822.2041 L191.8334,820.2382 L191.3465,818.1926 L191.54,818.1993 L191.6034,816.1928 L191.065,814.1657 L191.2804,812.1645 L191.3315,810.1577 L191,808.1377 L190.3701,808.1377 L190.8722,798.042 L191.168,787.9462 L191.869,777.8505 L190.9944,767.7547 L191.6168,757.659 L190.2616,747.5632 L190.097,737.4675 L191.6715,727.3717 L190.0441,717.276 L191.6786,707.1802 L191.2755,697.0845 L190.6428,686.9888 L190.5283,676.893 L191.6117,666.7973 L190.6009,656.7015 L191.7891,646.6058 L190.263,636.51 L191.8232,626.4143 L191.6457,616.3185 L191.3266,606.2228 L191.063,596.1271 L191.9688,586.0313 L191.8181,575.9356 L191.2257,565.8398 L191.3576,555.7441 L190.8263,545.6483 L191.9553,535.5526 L191.2065,525.4568 L191.2301,515.3611 L190.1889,505.2654 L190.4597,495.1696 L191.7077,485.0739 L191.573,474.9781 L190.9428,464.8824 L190.5704,454.7866 L190.7081,444.6909 L190.0851,434.5951 L191.553,424.4994 L191.9861,414.4037 L191.7019,404.3079 L191.9266,394.2122 L190.8177,384.1164 L191.1163,374.0207 L190.4832,363.9249 L191.3787,353.8292 L191.329,343.7334 L191,333.6377 L191.2446,333.6586 L191.0798,331.5012 L191.3034,329.377 L191.7407,327.271 L191.977,325.1478 L191.9073,322.9986 L191.6867,322.9416 L192.3433,320.9683 L193.0103,318.9978 L193.2027,316.9045 L194.137,315.0031 L194.5044,312.9551 L194.6096,313.0007 L195.2832,311.0466 L196.2023,309.1988 L197.2614,307.4118 L197.6567,305.3369 L198.6042,303.5015 L198.7237,303.5745 L199.7957,301.7939 L200.8144,299.9807 L201.9071,298.2127 L202.9798,296.4325 L204.0198,294.6324 L203.8021,294.4605 L205.1889,292.8639 L206.4766,291.1891 L207.9687,289.6757 L209.286,288.0244 L210.5641,286.342 L210.6157,286.3921 L211.9685,284.7085 L213.537,283.2343 L215.0174,281.6745 L216.7369,280.3468 L218.0501,278.6248 L218.1743,278.768 L219.5568,277.0319 L221.3251,275.7405 L222.8263,274.1413 L224.7265,273.002 L226.2906,271.4753 L226.4526,271.6918 L228.1972,270.3516 L229.6979,268.6852 L231.699,267.6879 L233.1394,265.9408 L235.0988,264.8877 L235.1476,264.9621 L236.8635,263.5703 L238.7978,262.5112 L240.6705,261.3583 L242.5648,260.2382 L244.2874,258.8565 L244.126,258.5802 L246.2704,257.9429 L248.0801,256.7328 L249.9963,255.7047 L251.9607,254.7592 L253.6694,253.3762 L253.6706,253.3783 L255.5834,252.4581 L257.469,251.4861 L259.3433,250.4927 L261.1801,249.4277 L263.0579,248.441 L263.194,248.7261 L264.7827,247.3174 L266.8493,246.9095 L268.4632,245.5534 L270.3208,244.7079 L272.2658,244.0455 L272.2727,244.0619 L275.6958,242.6182 L279.0312,240.9657 L282.6124,239.8983 L285.985,238.3345 L289.3914,236.8509 L289.5009,237.1548 L292.3237,236.1092 L294.9873,234.6222 L297.8266,233.6226 L300.6988,232.7143 L303.55,231.7477 " fill="none" style="stroke:#191919;stroke-width:1.0;"/><polygon fill="#191919" points="308.34,230.1977,308.3471,230.2674,306.3664,229.86,304.4274,229.8611,302.4749,229.7292,300.4776,229.1597,298.5422,229.1959,298.5305,229.1728,299.4871,229.5806,300.5028,230.1048,301.5595,230.71,302.4747,231.0361,303.5881,231.7531,303.7527,231.8365,302.8893,232.6673,302.5064,233.7417,302.1822,234.8457,301.5168,235.7769,301.0309,236.799,301.0462,236.8159,302.4856,235.4708,303.9944,234.2026,305.4698,232.8974,307.009,231.6628,308.34,230.1977" style="stroke:#191919;stroke-width:1.0;"/><!--MD5=[c9f79de9bfccf38268589239791163ef]
link _CheckMoveToTableau to _CheckRaiseCardFromStock--><path d="M482.97,475.9177 L482.9981,476.0068 L486.5086,476.8778 L490.1841,478.271 L493.8058,479.4942 L497.2508,480.1582 L500.9405,481.5963 L500.9282,481.564 L503.1127,482.2661 L505.3589,483.1311 L507.6478,484.1093 L509.7891,484.6974 L512.1372,485.8319 L512.2354,486.0575 L514.4247,486.6195 L516.9007,487.8401 L519.4118,489.1412 L521.7192,489.9746 L524.1338,491.0539 L524.1475,491.081 L526.5854,492.2913 L529.0859,493.6247 L531.5562,494.8987 L534.0841,496.286 L536.4242,497.3039 L536.5788,497.559 L538.9964,499.026 L541.3142,500.3285 L543.7781,501.8719 L546.2487,503.4265 L548.5027,504.6235 L548.3116,504.3661 L550.9545,506.5518 L552.9684,507.8899 L555.4604,509.8724 L557.46,511.1914 L559.8632,513.0542 L559.8423,513.0321 L562.117,515.2104 L563.9031,516.8719 L565.9774,518.8383 L568.076,520.8304 L570,522.6377 L570.1443,522.7534 L572.2309,525.4206 L574.5641,528.2856 L576.4982,530.8306 L579.0276,533.8529 L581.1612,536.5578 L581.3676,536.6872 L583.2507,539.7285 L585.2362,542.8341 L586.7455,545.6411 L588.6039,548.667 L590.7716,551.8868 L590.5251,551.7622 L592.3801,555.1028 L593.9574,558.3031 L595.9376,561.707 L597.2299,564.7633 L598.9311,568.0262 L598.7904,567.9676 L600.3866,571.3355 L601.3811,574.4529 L602.8035,577.7484 L604.6445,581.2183 L605.74,584.3777 L605.9229,584.4414 L607.1599,587.6781 L607.8282,590.7168 L609.2089,594.0035 L610.4344,597.2362 L611.2982,600.343 L611.0968,600.2837 L612.1389,603.3271 L613.115,606.351 L614.2208,609.4131 L614.8226,612.327 L615.7059,615.3236 L615.9054,615.3736 L616.1386,617.9433 L616.7569,620.6095 L617.9374,623.4167 L618.0826,625.9643 L619.0632,628.7213 L619.2843,628.7688 L619.6343,630.9839 L619.9095,633.1829 L620.3535,635.4182 L621.188,637.7372 L621.47,639.9377 " fill="none" style="stroke:#191919;stroke-width:1.0;"/><polygon fill="#191919" points="622.45,645.1177,622.5182,645.1338,622.7675,643.1688,623.4165,641.298,623.9353,639.3965,624.0261,637.3942,624.7094,635.5315,624.688,635.5169,623.9544,636.386,623.3287,637.3287,622.778,638.3226,621.9688,639.1401,621.5217,640.2046,621.6257,640.3571,620.4686,639.3935,619.6153,638.8751,618.7989,638.4109,617.767,637.6308,616.8485,637.0169,616.8672,637.0298,617.9601,638.631,619.1381,640.291,620.275,641.9227,621.4903,643.6086,622.45,645.1177" style="stroke:#191919;stroke-width:1.0;"/><text fill="#000000" font-family="sans-serif" font-size="13" lengthAdjust="spacing" textLength="40" x="630" y="537.1328">[ else ]</text><text fill="#000000" font-family="sans-serif" font-size="13" lengthAdjust="spacing" textLength="64" x="620" y="553.4844">/ check if a</text><text fill="#000000" font-family="sans-serif" font-size="13" lengthAdjust="spacing" textLength="68" x="618" y="569.8359">card can be</text><text fill="#000000" font-family="sans-serif" font-size="13" lengthAdjust="spacing" textLength="64" x="620" y="586.1875">raised from</text><text fill="#000000" font-family="sans-serif" font-size="13" lengthAdjust="spacing" textLength="32" x="638" y="602.5391">stock</text><!--MD5=[ccbf9da1182c24153c964d9670b19f46]
link _CheckRaiseCardFromStock to CardMovedToWaste--><path d="M618.82,662.6677 L618.8922,662.727 L616.7837,664.8577 L615.0984,667.3359 L613.2754,669.7009 L610.999,671.6938 L609.3501,674.2019 L609.323,674.1805 L607.9752,675.6352 L606.764,677.1979 L605.6477,678.8357 L604.2043,680.2148 L603.2191,681.9562 L603.4143,682.1061 L601.622,683.5764 L600.3996,685.4842 L599.2467,687.4453 L597.6893,689.0959 L596.3447,690.9099 L596.369,690.928 L594.8378,692.9132 L593.4174,694.9808 L591.9436,697.0086 L590.5717,699.1123 L588.8673,700.9687 L589.1097,701.1426 L587.5247,703.3587 L585.7834,705.4627 L584.2709,707.7308 L582.7691,710.0066 L580.9275,712.0387 L580.6636,711.8568 L579.5235,714.6072 L577.5143,716.7586 L576.1658,719.3654 L574.137,721.5033 L572.6658,724.0255 L572.6403,724.0088 L571.2523,726.7689 L569.2704,729.1375 L567.6389,731.7371 L566.0368,734.3561 L564.2225,736.8352 L564.3793,736.9334 L562.5242,739.5419 L560.937,742.3183 L558.9164,744.8231 L557.5422,747.733 L555.7382,750.3735 L555.9479,750.4976 L554.2313,753.3087 L552.6188,756.1814 L550.5225,758.7679 L548.7809,761.5642 L547.3534,764.5464 L547.1118,764.4126 L545.7015,767.4764 L544.019,770.3894 L542.7314,773.5211 L540.7696,776.2794 L539.2085,779.2597 L539.0728,779.1902 L537.7459,782.3379 L535.839,785.1884 L534.3445,788.2503 L533.2537,791.5188 L531.4441,794.4193 L531.6195,794.5012 L530.2911,797.6597 L528.4171,800.5634 L527.2265,803.7863 L525.887,806.9397 L524.2005,809.931 L524.0067,809.8501 L522.8447,813.0685 L521.6193,816.2604 L520.5185,819.5044 L518.933,822.546 L517.6183,825.7007 L517.8116,825.7708 L516.2309,828.8035 L515.0232,831.9715 L514.3605,835.3372 L512.6945,838.3389 L511.838,841.6343 L512.0545,841.6998 L510.9583,844.8616 L509.7888,848.0012 L508.7847,851.1908 L508.1628,854.496 L507,857.6377 L506.8706,857.6069 L506.6069,860.4218 L505.463,863.0271 L505.3198,865.8708 L504.6133,868.5803 L503.7548,871.2535 L503.862,871.2729 L503.2708,874.0413 L503.0633,876.8791 L502.5092,879.6541 L501.8103,882.4029 L501.2316,885.1734 L501.3498,885.189 L500.803,887.993 L500.8049,890.8692 L500.1862,893.6638 L499.8227,896.492 L499.3754,899.3091 L499.1061,899.2857 L498.9473,902.1461 L499.1129,905.0349 L498.8194,907.8837 L498.3613,910.7181 L498.1316,913.5724 L497.9885,913.5655 L497.8971,916.4282 L497.5524,919.2788 L497.9038,922.1627 L497.9107,925.0301 L497.4451,927.8749 L497.6791,927.8779 L497.7172,930.7296 L497.3109,933.5755 L497.3736,936.4275 L497.1259,939.2754 L497.2614,942.1284 L497.3876,942.1307 L497.4238,944.9536 L497.6125,947.7794 L497.3177,950.5962 L497.4129,953.4202 L497.5254,956.2446 L497.7223,956.2539 L497.9087,959.0346 L497.5607,961.79 L497.8336,964.5749 L498.1174,967.3602 L498.1825,970.1352 L497.9117,970.1153 L498.5382,972.862 L498.695,975.5743 L498.735,978.278 L499.0418,981.0013 L499.1778,983.712 L499.5001,983.7433 L499.2951,986.3335 L499.8286,988.9954 L500.0713,991.6291 L500.2519,994.2567 L500.4564,996.8867 L500.5186,996.8941 L500.808,999.4295 L500.7839,1001.9277 L501.1839,1004.4763 L501.4585,1007.01 L501.9637,1009.5711 L501.9918,1009.575 L502.3387,1011.9976 L502.7073,1014.4232 L502.8442,1016.8167 L503.2788,1019.2515 L503.6447,1021.6768 L503.5919,1021.6685 L504.2579,1024.0044 L504.5519,1026.2817 L504.5115,1028.5065 L505.0526,1030.8227 L505.4446,1033.1155 L505.1919,1033.0714 L505.9437,1035.2743 L506.4567,1037.4355 L506.8015,1039.5673 L506.7452,1041.6291 L507.3087,1043.7991 L507.511,1043.8391 L507.7251,1047.4849 L508.8765,1051.3158 L509.399,1055.0225 L510.3119,1058.8063 L511.01,1062.5477 " fill="none" style="stroke:#191919;stroke-width:1.0;"/><polygon fill="#191919" points="512.09,1067.5377,512.1586,1067.552,512.356,1065.5811,512.9556,1063.6939,513.4242,1061.7794,513.4622,1059.7754,514.0962,1057.8953,514.0744,1057.8813,513.364,1058.7694,512.7633,1059.7283,512.2389,1060.7363,511.4516,1061.5749,511.0326,1062.6508,511.1325,1062.8059,509.9677,1061.8614,509.0947,1061.3699,508.2573,1060.9337,507.2128,1060.1759,506.2771,1059.5872,506.2955,1059.6006,507.4311,1061.171,508.6503,1062.8025,509.8292,1064.4045,511.085,1066.0628,512.09,1067.5377" style="stroke:#191919;stroke-width:1.0;"/><text fill="#000000" font-family="sans-serif" font-size="13" lengthAdjust="spacing" textLength="86" x="521" y="872.1328">[ if card can be</text><text fill="#000000" font-family="sans-serif" font-size="13" lengthAdjust="spacing" textLength="108" x="512" y="888.4844">raised from stock ]</text><text fill="#000000" font-family="sans-serif" font-size="13" lengthAdjust="spacing" textLength="65" x="533.5" y="904.8359">/ raise card</text><text fill="#000000" font-family="sans-serif" font-size="13" lengthAdjust="spacing" textLength="108" x="514" y="921.1875">/ put card to waste</text><!--MD5=[77dd83cc02231ecce47cd233c6d1b400]
link _CheckRaiseCardFromStock to StockRecovered--><path d="M626.26,665.5377 L626.5316,665.6067 L628.0879,674.6983 L631.2364,684.1945 L633.8665,693.559 L634.7915,702.49 L637.9762,711.9955 L639.8889,721.1776 L642.3078,730.4884 L645.0786,739.8886 L646.6366,748.9806 L650.6088,758.6862 L651.4422,767.594 L654.62,777.0977 " fill="none" style="stroke:#191919;stroke-width:1.0;"/><polygon fill="#191919" points="655.87,782.0177,655.9391,782.0295,656.0667,780.0529,656.5991,778.1457,656.9998,776.2159,656.9669,774.2117,657.5341,772.3104,657.5118,772.2972,656.8332,773.2099,656.2668,774.1894,655.7784,775.2153,655.0212,776.0812,654.6405,777.1712,654.7349,777.3298,653.5609,776.412,652.6625,775.9571,651.7977,775.5588,650.7373,774.8318,649.7797,774.2776,649.7976,774.2917,650.9894,775.8191,652.2626,777.4105,653.4965,778.971,654.8054,780.5904,655.87,782.0177" style="stroke:#191919;stroke-width:1.0;"/><text fill="#000000" font-family="sans-serif" font-size="13" lengthAdjust="spacing" textLength="40" x="672.5" y="728.6328">[ else ]</text><text fill="#000000" font-family="sans-serif" font-size="13" lengthAdjust="spacing" textLength="85" x="654" y="744.9844">/ recover stock</text><!--MD5=[1f2148b3869dd4745a4b1a326eca2022]
link StockRecovered to CardMovedToWaste--><path d="M659.61,832.1777 L659.7026,832.1902 L659.1666,834.085 L659.1733,836.0531 L659.0033,837.9973 L658.2521,839.863 L658.3054,841.8374 L658.2713,841.8321 L657.785,843.9483 L657.4707,846.0914 L657.2761,848.253 L656.6692,850.3505 L656.6397,852.5379 L656.8819,852.5813 L655.9512,854.7867 L655.7277,857.1191 L655.5904,859.4669 L654.9512,861.7247 L654.576,864.0298 L654.6057,864.036 L654.0624,866.4337 L653.6543,868.8596 L653.181,871.2719 L652.8321,873.71 L652.0775,876.0639 L652.3674,876.1338 L651.777,878.6001 L650.9995,881.0213 L650.4958,883.5085 L650.0049,885.9988 L649.1075,888.3911 L648.7989,888.3043 L648.7021,890.9469 L647.5892,893.3037 L647.2488,895.8778 L646.1129,898.2282 L645.6291,900.7619 L645.6002,900.7524 L645.1373,903.2985 L643.9991,905.6212 L643.2594,908.0758 L642.5531,910.5414 L641.6055,912.9272 L641.7777,912.9949 L640.6828,915.2687 L639.8821,917.6581 L638.6054,919.8604 L638.0387,922.3419 L637,924.6377 L637.222,924.7381 L636.2702,926.7303 L635.4286,928.7723 L634.0749,930.5827 L633.0967,932.5629 L632.4509,934.6935 L632.2033,934.5711 L631.4372,936.6859 L630.3921,938.6627 L629.7517,940.8395 L628.4204,942.6749 L627.4997,944.7133 L627.3652,944.6416 L626.5286,946.7514 L625.1169,948.5546 L624.1142,950.5759 L623.5117,952.8104 L622.1965,954.6651 L622.3648,954.7609 L621.3592,956.7969 L619.8301,958.5351 L618.9567,960.6463 L617.9405,962.6763 L616.5914,964.5169 L616.4116,964.4086 L615.3836,966.4389 L614.2967,968.4337 L613.3255,970.4983 L611.9044,972.2918 L610.7347,974.2367 L610.9083,974.3468 L609.3152,976.0161 L608.0572,977.8978 L607.2888,980.09 L605.619,981.7107 L604.6765,983.7925 L604.865,983.9175 L603.5111,985.7152 L602.0934,987.4706 L600.8197,989.3214 L599.8787,991.393 L598.4669,993.1522 L598.3575,993.0766 L597.4212,995.1281 L595.7406,996.6652 L594.9063,998.7873 L593.5955,1000.58 L592.1563,1002.2839 L592.2447,1002.3474 L590.901,1004.0705 L589.874,1006.0208 L588.5609,1007.7659 L587.1281,1009.4251 L585.7946,1011.1556 L585.8903,1011.2266 L584.4756,1012.8371 L583.5054,1014.7771 L582.0324,1016.3444 L580.7662,1018.065 L579.4321,1019.7353 L579.2185,1019.5696 L576.7845,1022.8559 L574.6079,1026.3418 L572.0671,1029.5454 L569.3957,1032.6476 L566.9055,1035.8904 L566.7946,1035.7998 L564.4445,1038.7494 L561.8981,1041.5386 L559.8915,1044.7687 L557.6178,1047.7806 L554.9776,1050.4932 L555.1555,1050.6451 L553.027,1053.2527 L550.5604,1055.5715 L548.4505,1058.1951 L546.1045,1060.6169 L544.05,1063.2877 " fill="none" style="stroke:#191919;stroke-width:1.0;"/><polygon fill="#191919" points="540.45,1067.3977,540.4793,1067.4613,542.1811,1066.4478,544.0548,1065.8073,545.8725,1065.0453,547.5062,1063.8838,549.3946,1063.2753,549.3929,1063.2495,548.2564,1063.2066,547.1283,1063.294,546.0061,1063.4721,544.8637,1063.3379,543.7496,1063.641,543.9338,1063.6529,543.4668,1062.4984,543.5375,1061.3787,543.6739,1060.2633,543.4285,1059.1231,543.3839,1057.996,543.4056,1058.0028,542.787,1059.8732,542.2672,1061.7744,541.6997,1063.6608,541.2232,1065.5755,540.45,1067.3977" style="stroke:#191919;stroke-width:1.0;"/><text fill="#000000" font-family="sans-serif" font-size="13" lengthAdjust="spacing" textLength="57" x="651.5" y="972.1328">raise card</text><text fill="#000000" font-family="sans-serif" font-size="13" lengthAdjust="spacing" textLength="108" x="630" y="988.4844">/ put card to waste</text><!--MD5=[9f25ef67fed3b28abdceb7440bc6bca4]
link CardMovedToWaste to _CheckPossibleMovement--><path d="M442.76,1087.4777 L442.7672,1087.5708 L437.7332,1086.9092 L432.7412,1086.7935 L427.7356,1086.5001 L422.685,1085.6219 L417.6966,1085.5532 L417.6936,1085.5188 L412.2288,1084.8855 L406.7793,1084.4257 L401.3403,1084.0864 L395.8649,1083.3317 L390.4406,1083.1589 L390.4652,1083.4038 L384.6279,1082.2986 L378.8626,1081.9083 L373.106,1081.6051 L367.2984,1080.7946 L361.5176,1080.2509 L361.521,1080.281 L355.5031,1079.5436 L349.5009,1078.9434 L343.4912,1078.277 L337.496,1077.7368 L331.4533,1076.785 L331.4925,1077.0807 L325.357,1076.2708 L319.1962,1075.2701 L313.0724,1074.5486 L306.9504,1073.8402 L300.7733,1072.7172 L300.7266,1072.4001 L297.7361,1072.5609 L294.5915,1071.6775 L291.564,1071.5879 L288.416,1070.6809 L285.3668,1070.4438 L285.362,1070.4138 L282.3458,1070.2813 L279.218,1069.4463 L276.1561,1069.0258 L273.0997,1068.6401 L270.0034,1068.0034 L270.0347,1068.1858 L266.9522,1067.4791 L263.9232,1067.0841 L260.8078,1066.1849 L257.8212,1066.0376 L254.749,1065.3905 L254.7933,1065.6301 L251.769,1065.0266 L248.7666,1064.542 L245.662,1063.5048 L242.6324,1062.8727 L239.6692,1062.5995 L239.6149,1062.3287 L236.6961,1061.979 L233.7162,1061.3241 L230.825,1061.1118 L227.7823,1060.1438 L224.8297,1059.625 L224.7973,1059.476 L221.9446,1059.0914 L218.9533,1058.07 L216.0606,1057.5014 L213.2643,1057.376 L210.2963,1056.4614 L210.3409,1056.6499 L207.5392,1056.1075 L204.5986,1054.979 L201.832,1054.5846 L199.0274,1054.0303 L196.1346,1053.1033 L196.0819,1052.9001 L193.379,1052.3504 L190.6589,1051.7342 L187.9727,1051.2488 L185.1547,1050.255 L182.4103,1049.5451 L182.4666,1049.7429 L179.6987,1048.5557 L177.0395,1047.7501 L174.539,1047.5021 L171.7462,1046.2277 L169.1893,1045.7814 L169.2571,1045.9972 L166.6863,1045.074 L164.0927,1044.0778 L161.5508,1043.2464 L159.1286,1042.796 L156.5371,1041.8065 L156.4932,1041.6809 L154.2202,1041.2166 L151.6491,1039.898 L149.4168,1039.5507 L146.9938,1038.6566 L144.5194,1037.615 L144.559,1037.7165 L142.2636,1036.7519 L140.1098,1036.1505 L137.8281,1035.221 L135.4929,1034.1543 L133.2021,1033.2015 L133.2501,1033.3106 L131.0685,1032.2202 L129.1098,1031.6365 L126.899,1030.4798 L124.7919,1029.5587 L122.6507,1028.5603 L122.5295,1028.3186 L120.6261,1027.4244 L118.8686,1026.8214 L116.9046,1025.8064 L114.8665,1024.6438 L112.9311,1023.686 L112.855,1023.5647 L109.5431,1021.5096 L106.0964,1019.2397 L103.0203,1017.5601 L99.7607,1015.5883 L96.2497,1013.2159 L96.4074,1013.3887 L93.9447,1011.1503 L91.1823,1008.5836 L88.7362,1006.3634 L86.0807,1003.9137 L83.6837,1001.7472 L83.7903,1001.8148 L82.1913,999.3037 L80.721,996.8741 L78.8423,994.1858 L77.2931,991.7062 L75.7585,989.2359 L75.9517,989.275 L75.4539,986.5664 L74.4319,983.7513 L74.019,981.0598 L73.6167,978.3705 L73,975.6377 L72.1855,975.6377 L73.4712,965.6064 L73.344,955.5752 L72.8657,945.5439 L73.1897,935.5127 L73.9716,925.4814 L72.5828,915.4502 L73.42,905.4189 L73.3809,895.3877 L73.1544,885.3564 L73.1879,875.3252 L73.1513,865.2939 L72.1678,855.2627 L72.4656,845.2314 L72.3846,835.2002 L73.0851,825.1689 L73.1175,815.1377 L73.2157,805.1064 L72.612,795.0752 L72.91,785.0439 L72.8397,775.0127 L73.7691,764.9814 L73.5688,754.9502 L72.3526,744.9189 L72.9028,734.8877 L72.2304,724.8564 L73.3845,714.8252 L73.8113,704.7939 L73.7261,694.7627 L72.4193,684.7314 L73.6186,674.7002 L72.0096,664.6689 L73.2669,654.6377 L72.6009,644.6064 L73.129,634.5752 L73.3204,624.5439 L73.6295,614.5127 L72.0401,604.4814 L73.634,594.4502 L73.2376,584.4189 L73.4738,574.3877 L73.9971,564.3564 L73.0073,554.3252 L73.2337,544.2939 L73.2846,534.2627 L73.263,524.2314 L72.9989,514.2002 L73.9476,504.1689 L72.187,494.1377 L73.7537,484.1064 L72.168,474.0752 L72.2796,464.0439 L73.0533,454.0127 L73.0377,443.9814 L72.3429,433.9502 L73.5516,423.9189 L73.1451,413.8877 L73.9689,403.8564 L73.8895,393.8252 L72.4023,383.7939 L72.4694,373.7627 L72.8278,363.7314 L73.474,353.7002 L73.5373,343.6689 L73,333.6377 L73.133,333.6524 L73.2386,330.1071 L74.0604,326.6412 L74.4489,323.1272 L74.5377,319.58 L74.9482,316.0684 L74.8482,316.0326 L75.8927,312.9015 L77.0832,309.8226 L78.3429,306.7685 L79.3692,303.6308 L80.5102,300.5342 L80.3539,300.4339 L82.4427,297.9267 L83.8392,294.9747 L85.9489,292.481 L87.6711,289.7383 L89.2617,286.911 L89.3802,287.0263 L91.7857,284.7584 L93.7902,282.1004 L96.0762,279.7162 L98.6406,277.6029 L100.7788,275.0749 L100.6218,274.861 L103.4889,272.9564 L106.3525,271.047 L109.1119,268.9956 L111.7712,266.8079 L114.6372,264.9017 L114.628,264.885 L117.9512,263.4652 L121.0859,261.7009 L123.9754,259.4888 L127.2746,258.025 L130.413,256.2676 L130.3249,256.0568 L133.8623,254.813 L137.3708,253.5001 L140.8463,252.1082 L144.1142,250.2197 L147.6819,249.0484 L147.7367,249.2178 L151.3507,247.8663 L154.9412,246.4423 L158.6204,245.2923 L162.397,244.444 L166.02,243.1202 L166.047,243.2279 L169.8148,242.1609 L173.5406,240.926 L177.481,240.5472 L181.1727,239.1768 L185.0031,238.3589 L184.9585,238.1285 L188.8382,237.5859 L192.7345,237.1289 L196.5774,236.3965 L200.3692,235.3996 L204.207,234.6406 L204.1972,234.5742 L208.0182,234.1554 L211.8194,233.6028 L215.5746,232.7377 L219.4345,232.5831 L223.2078,231.8412 L223.2347,232.0881 L226.8721,231.345 L230.5365,230.8498 L234.2644,230.9366 L237.9076,230.2469 L241.5812,229.8368 L241.5812,229.8367 L245.0559,229.7026 L248.488,229.0172 L251.9926,229.2715 L255.4384,228.763 L258.9033,228.5032 L258.918,228.8001 L262.0679,228.25 L265.2509,228.3701 L268.4014,227.8341 L271.5859,227.9826 L274.7498,227.7165 L274.7542,227.885 L277.5354,227.4983 L280.3328,227.7322 L283.1114,227.2443 L285.9019,227.2164 L288.6968,227.3527 L288.6985,227.6561 L291.0231,227.6438 L293.3475,227.5793 L295.6698,227.1535 L297.9963,227.4715 L300.32,227.2877 " fill="none" style="stroke:#191919;stroke-width:1.0;"/><polygon fill="#191919" points="305.56,227.3277,305.589,227.3915,303.7098,226.3866,302.0005,225.7555,300.2359,225.0028,298.2893,223.8496,296.5946,223.2507,296.5761,223.2325,297.2863,223.9579,298.0897,224.7747,298.9578,225.6553,299.6027,226.3165,300.5602,227.2848,300.6896,227.4164,299.6061,227.9281,298.9003,228.8241,298.2406,229.7669,297.3128,230.4369,296.526,231.2504,296.5351,231.2713,298.3286,230.4561,300.1633,229.7359,301.9782,228.9699,303.831,228.2913,305.56,227.3277" style="stroke:#191919;stroke-width:1.0;"/><text fill="#000000" font-family="sans-serif" font-size="13" lengthAdjust="spacing" textLength="40" x="74" y="661.1328">[ else ]</text><!--MD5=[dc94113a04d8177e84daa760cd065d72]
link FoundationComplete to *end--><path d="M907,999.6777 L907.2802,999.6777 L906.4476,1009.4164 L907.2577,1019.1552 L907.5329,1028.8939 L906.0488,1038.6327 L906.8964,1048.3714 L906.4313,1058.1102 L906.4887,1067.8489 L907,1077.5877 " fill="none" style="stroke:#008000;stroke-width:2.0;"/><polygon fill="#008000" points="907,1082.5977,907.064,1082.6261,907.6738,1080.7416,908.6589,1079.0239,909.5217,1077.2518,909.9827,1075.3011,911,1073.5977,910.9817,1073.5794,910.0995,1074.2972,909.3096,1075.1073,908.5839,1075.9816,907.637,1076.6347,907,1077.5977,907.1305,1077.7282,906.0514,1076.6491,905.3534,1075.9511,904.7018,1075.2995,903.7798,1074.3775,903,1073.5977,903.0208,1073.6069,903.7903,1075.3934,904.6544,1077.2219,905.4728,1079.0301,906.3784,1080.877,907,1082.5977" style="stroke:#008000;stroke-width:2.0;"/><text fill="#000000" font-family="sans-serif" font-size="13" lengthAdjust="spacing" textLength="102" x="908" y="1039.1328">you win the game</text><!--MD5=[ddd752ffe82b342416fd9519f2b94579]
@startuml klondike- -instructions

skinparam handwritten true
skinparam nodesep 50
skinparam ranksep 50
!theme mars

title Klondike Instructions \n

state GamePrepared
state _CheckPossibleMovement <<choice>>
state _CheckMoveToFoundation <<choice>>
state _CheckMoveToTableau <<choice>>
state _CheckRaiseCardFromStock <<choice>>
state _CheckRaiseInTableau <<choice>>
state _CheckFoundationComplete <<choice>>
state CardMovedToFoundation
state CardMovedToTableau
state CardMovedToWaste
state CardRaisedInTableau
state StockRecovered
state FoundationComplete


[*]                         -r-> GamePrepared : shuffle deck \n / put cards to tableaus \n / put rest of cards to stock pile
GamePrepared                - -> _CheckPossibleMovement : check \n possible movement
_CheckPossibleMovement      -[#green,bold]-> _CheckMoveToFoundation : check movement \n to a foundation
_CheckMoveToFoundation      - -> CardMovedToFoundation : [ if card can be \n moved to a foundation ] \n / move card
CardMovedToFoundation       - -> _CheckFoundationComplete : check if \n foundation is \n complete
_CheckFoundationComplete    - - -> FoundationComplete : [ if foundation is \n complete ] \n / sing the victory ;)
_CheckFoundationComplete    - -> _CheckPossibleMovement : [ else ]
_CheckMoveToFoundation      - -> _CheckMoveToTableau : [ else ] \n / check movement \n to tableau
_CheckMoveToTableau         - -> CardMovedToTableau : [ if card can be \n moved to a tableau ] \n / move card
CardMovedToTableau          - -> _CheckRaiseInTableau : check if a \n card can be \n raised in tableau
_CheckRaiseInTableau        - -> CardRaisedInTableau : [ if card can be \n raised in tableau ] \n / raise card
_CheckRaiseInTableau        - -> _CheckPossibleMovement : [ else ]
CardRaisedInTableau         - -> _CheckPossibleMovement
_CheckMoveToTableau         - -> _CheckRaiseCardFromStock : [ else ] \n / check if a \n card can be \n raised from \n stock
_CheckRaiseCardFromStock    - -> CardMovedToWaste : [ if card can be \n raised from stock ] \n / raise card \n / put card to waste
_CheckRaiseCardFromStock    - -> StockRecovered : [ else ] \n / recover stock
StockRecovered              - - -> CardMovedToWaste : raise card \n / put card to waste
CardMovedToWaste            - -> _CheckPossibleMovement : [ else ]
FoundationComplete          -[#green,bold]-> [*] : you win the game


@enduml

@startuml klondike- -instructions

skinparam handwritten true
skinparam nodesep 50
skinparam ranksep 50
skinparam BackgroundColor F9F9F9
skinparam shadowing false
skinparam RoundCorner 7
skinparam ArrowColor 191919
skinparam FontColor 191919
skinparam SequenceLifeLineBorderColor 393939
skinparam SequenceGroupHeaderFontColor 191919
skinparam SequenceGroupFontColor 393939
skinparam SequenceGroupBorderColor 393939
skinparam SequenceGroupBorderThickness 1

skinparam sequenceDivider {
    BorderColor 191919
    BorderThickness 1
    FontColor 191919
}

skinparam participant {
    BackgroundColor E55756
    BorderColor 191919
    FontColor F9F9F9
    BorderThickness 1.5
}

skinparam database {
    BackgroundColor A4DBD8
    BorderColor 191919
    FontColor 191919
}

skinparam entity {
    BackgroundColor EFBABC
    BorderColor 191919
    FontColor 191919
}

skinparam note {
    BackgroundColor e5e5e5
    BorderColor 191919
    FontColor 191919
    BorderThickness 1.5
}

skinparam actor {
    BackgroundColor 191919
    BorderColor 191919
    FontColor 191919
}

skinparam boundary {
    BackgroundColor EFBABC
    BorderColor 191919
    FontColor 191919
}

skinparam control {
    BackgroundColor EFBABC
    BorderColor 191919
    FontColor 191919
}

skinparam collections {
    BackgroundColor E55756
    BorderColor 191919
    FontColor 191919
    BorderThickness 1.5
}

skinparam queue {
    BackgroundColor E55756
    BorderColor 191919
    FontColor FFF
    BorderThickness 1.5
}

title Klondike Instructions \n

state GamePrepared
state _CheckPossibleMovement <<choice>>
state _CheckMoveToFoundation <<choice>>
state _CheckMoveToTableau <<choice>>
state _CheckRaiseCardFromStock <<choice>>
state _CheckRaiseInTableau <<choice>>
state _CheckFoundationComplete <<choice>>
state CardMovedToFoundation
state CardMovedToTableau
state CardMovedToWaste
state CardRaisedInTableau
state StockRecovered
state FoundationComplete


[*]                         -r-> GamePrepared : shuffle deck \n / put cards to tableaus \n / put rest of cards to stock pile
GamePrepared                - -> _CheckPossibleMovement : check \n possible movement
_CheckPossibleMovement      -[#green,bold]-> _CheckMoveToFoundation : check movement \n to a foundation
_CheckMoveToFoundation      - -> CardMovedToFoundation : [ if card can be \n moved to a foundation ] \n / move card
CardMovedToFoundation       - -> _CheckFoundationComplete : check if \n foundation is \n complete
_CheckFoundationComplete    - - -> FoundationComplete : [ if foundation is \n complete ] \n / sing the victory ;)
_CheckFoundationComplete    - -> _CheckPossibleMovement : [ else ]
_CheckMoveToFoundation      - -> _CheckMoveToTableau : [ else ] \n / check movement \n to tableau
_CheckMoveToTableau         - -> CardMovedToTableau : [ if card can be \n moved to a tableau ] \n / move card
CardMovedToTableau          - -> _CheckRaiseInTableau : check if a \n card can be \n raised in tableau
_CheckRaiseInTableau        - -> CardRaisedInTableau : [ if card can be \n raised in tableau ] \n / raise card
_CheckRaiseInTableau        - -> _CheckPossibleMovement : [ else ]
CardRaisedInTableau         - -> _CheckPossibleMovement
_CheckMoveToTableau         - -> _CheckRaiseCardFromStock : [ else ] \n / check if a \n card can be \n raised from \n stock
_CheckRaiseCardFromStock    - -> CardMovedToWaste : [ if card can be \n raised from stock ] \n / raise card \n / put card to waste
_CheckRaiseCardFromStock    - -> StockRecovered : [ else ] \n / recover stock
StockRecovered              - - -> CardMovedToWaste : raise card \n / put card to waste
CardMovedToWaste            - -> _CheckPossibleMovement : [ else ]
FoundationComplete          -[#green,bold]-> [*] : you win the game


@enduml

PlantUML version 1.2022.0(Tue Jan 11 17:16:42 CET 2022)
(GPL source distribution)
Java Runtime: Java(TM) SE Runtime Environment
JVM: Java HotSpot(TM) 64-Bit Server VM
Default Encoding: Cp1252
Language: es
Country: ES
--></g></svg>