<?xml version="1.0" encoding="UTF-8" standalone="no"?><svg xmlns="http://www.w3.org/2000/svg" xmlns:xlink="http://www.w3.org/1999/xlink" contentScriptType="application/ecmascript" contentStyleType="text/css" height="664px" preserveAspectRatio="none" style="width:1444px;height:664px;background:#FFFFFF;" version="1.1" viewBox="0 0 1444 664" width="1444px" zoomAndPan="magnify"><defs><filter height="300%" id="f198g0skkr2t99" width="300%" x="-1" y="-1"><feGaussianBlur result="blurOut" stdDeviation="2.0"/><feColorMatrix in="blurOut" result="blurOut2" type="matrix" values="0 0 0 0 0 0 0 0 0 0 0 0 0 0 0 0 0 0 .4 0"/><feOffset dx="4.0" dy="4.0" in="blurOut2" result="blurOut3"/><feBlend in="SourceGraphic" in2="blurOut3" mode="normal"/></filter></defs><g><text fill="#000000" font-family="sans-serif" font-size="18" lengthAdjust="spacing" textLength="167" x="632" y="18.6855">Klondike. Initial State</text><polygon fill="#FEFECE" filter="url(#f198g0skkr2t99)" points="183,29.6406,183,29.8508,192.9231,29.2263,202.8462,29.8339,212.7692,30.0403,222.6923,28.9272,232.6154,29.5629,242.5385,29.2141,252.4615,29.2571,262.3846,29.5725,272.3077,28.9493,282.2308,30.1943,292.1538,29.0103,302.0769,29.4429,312,29.6406,312.4319,29.6406,311.9142,40.0906,312.0682,50.5406,311.9681,60.9906,312.1785,71.4406,312,81.8906,312,82.1298,302.0769,82.4763,292.1538,82.5617,282.2308,82.5699,272.3077,82.1453,262.3846,82.3542,252.4615,82.5929,242.5385,81.1694,232.6154,82.5691,222.6923,81.5941,212.7692,82.4244,202.8462,81.3956,192.9231,81.8221,183,81.8906,183.7416,81.8906,182.9513,71.4406,183.1053,60.9906,183.3386,50.5406,183.4162,40.0906,183,29.6406" style="stroke:#A80036;stroke-width:1.5;"/><text fill="#000000" font-family="sans-serif" font-size="12" lengthAdjust="spacing" textLength="115" x="190" y="44.0977">Klondike:myKlondike</text><path d="M184,48.7344 L184,49.0146 L193.7692,48.1819 L203.5385,48.9921 L213.3077,49.2673 L223.0769,47.7832 L232.8462,48.6308 L242.6154,48.1657 L252.3846,48.223 L262.1538,48.6435 L271.9231,47.8125 L281.6923,49.4726 L291.4615,47.894 L301.2308,48.4707 L311,48.7344 " fill="#FEFECE" style="stroke:#A80036;stroke-width:1.5;"/><text fill="#000000" font-family="sans-serif" font-size="10" lengthAdjust="spacing" textLength="53" x="189" y="63.1152">nGame = 1</text><text fill="#000000" font-family="sans-serif" font-size="10" lengthAdjust="spacing" textLength="44" x="189" y="75.6934">status = 1</text><polygon fill="#FEFECE" filter="url(#f198g0skkr2t99)" points="102.5,255.6406,102.5,255.8508,112.2143,255.2263,121.9286,255.8339,131.6429,256.0403,141.3571,254.9272,151.0714,255.5629,160.7857,255.2141,170.5,255.6406,170.3722,255.6406,170.4773,263.575,170.2695,271.5094,170.6845,279.4438,170.2899,287.3781,170.5,295.3125,170.5,295.1147,160.7857,295.7444,151.0714,295.2267,141.3571,295.3807,131.6429,295.2806,121.9286,295.491,112.2143,295.5516,102.5,295.3125,102.6952,295.3125,102.7237,287.3781,102.7264,279.4438,102.5849,271.5094,102.6545,263.575,102.5,255.6406" style="stroke:#A80036;stroke-width:1.5;"/><text fill="#000000" font-family="sans-serif" font-size="12" lengthAdjust="spacing" textLength="53" x="110" y="270.0977">Goal:goal</text><path d="M103.5,274.7344 L103.5,275.0146 L112.9286,274.1819 L122.3571,274.9921 L131.7857,275.2673 L141.2143,273.7832 L150.6429,274.6308 L160.0714,274.1657 L169.5,274.7344 " fill="#FEFECE" style="stroke:#A80036;stroke-width:1.5;"/><text fill="#000000" font-family="sans-serif" font-size="10" lengthAdjust="spacing" textLength="56" x="108.5" y="289.1152">status = true</text><polygon fill="#FEFECE" filter="url(#f198g0skkr2t99)" points="188.5,142.6406,188.5,142.8508,198.3333,142.2263,208.1667,142.8339,218,143.0403,227.8333,141.9272,237.6667,142.5629,247.5,142.2141,257.3333,142.2571,267.1667,142.5725,277,141.9493,286.8333,143.1943,296.6667,142.0103,306.5,142.6406,306.3022,142.6406,306.9319,153.0906,306.4142,163.5406,306.5682,173.9906,306.4681,184.4406,306.5,194.8906,306.5,195.0692,296.6667,195.1298,286.8333,195.4763,277,195.5617,267.1667,195.5699,257.3333,195.1453,247.5,195.3542,237.6667,195.5929,227.8333,194.1694,218,195.5691,208.1667,194.5941,198.3333,195.4244,188.5,194.8906,188.005,194.8906,188.4315,184.4406,189.2416,173.9906,188.4513,163.5406,188.6053,153.0906,188.5,142.6406" style="stroke:#A80036;stroke-width:1.5;"/><text fill="#000000" font-family="sans-serif" font-size="12" lengthAdjust="spacing" textLength="104" x="195.5" y="157.0977">Player:setilloPlayer</text><path d="M189.5,161.7344 L189.5,162.0146 L199.1667,161.1819 L208.8333,161.9921 L218.5,162.2673 L228.1667,160.7832 L237.8333,161.6308 L247.5,161.1657 L257.1667,161.223 L266.8333,161.6435 L276.5,160.8125 L286.1667,162.4726 L295.8333,160.894 L305.5,161.7344 " fill="#FEFECE" style="stroke:#A80036;stroke-width:1.5;"/><text fill="#000000" font-family="sans-serif" font-size="10" lengthAdjust="spacing" textLength="27" x="194.5" y="176.1152">id = 1</text><text fill="#000000" font-family="sans-serif" font-size="10" lengthAdjust="spacing" textLength="74" x="194.5" y="188.6934">name = 'Setillo'</text><polygon fill="#FEFECE" filter="url(#f198g0skkr2t99)" points="604,258.1406,604,258.3508,613.9231,257.7263,623.8462,258.3339,633.7692,258.5403,643.6923,257.4272,653.6154,258.0629,663.5385,257.7141,673.4615,257.7571,683.3846,258.0725,693.3077,257.4493,703.2308,258.6943,713.1538,257.5103,723.0769,257.9429,733,258.1406,733.144,258.1406,732.9714,265.1594,733.0227,272.1781,732.9894,279.1969,733.0595,286.2156,733,293.2344,733,293.4735,723.0769,293.8201,713.1538,293.9054,703.2308,293.9136,693.3077,293.489,683.3846,293.698,673.4615,293.9366,663.5385,292.5132,653.6154,293.9129,643.6923,292.9379,633.7692,293.7682,623.8462,292.7394,613.9231,293.1659,604,293.2344,604.2472,293.2344,603.9838,286.2156,604.0351,279.1969,604.1129,272.1781,604.1387,265.1594,604,258.1406" style="stroke:#A80036;stroke-width:1.5;"/><text fill="#000000" font-family="sans-serif" font-size="12" lengthAdjust="spacing" textLength="115" x="611" y="272.5977">Board:klondikeBoard</text><path d="M605,277.2344 L605,277.5146 L614.7692,276.6819 L624.5385,277.4921 L634.3077,277.7673 L644.0769,276.2832 L653.8462,277.1308 L663.6154,276.6657 L673.3846,276.723 L683.1538,277.1435 L692.9231,276.3125 L702.6923,277.9726 L712.4615,276.394 L722.2308,276.9707 L732,277.2344 " fill="#FEFECE" style="stroke:#A80036;stroke-width:1.5;"/><polygon fill="#FEFECE" filter="url(#f198g0skkr2t99)" points="1333,373.6406,1333,373.8508,1342.7,373.2263,1352.4,373.8339,1362.1,374.0403,1371.8,372.9272,1381.5,373.5629,1391.2,373.2141,1400.9,373.2571,1410.6,373.5725,1420.3,372.9493,1430,373.6406,1430.1845,373.6406,1429.7899,381.575,1429.9341,389.5094,1430.144,397.4438,1429.9714,405.3781,1430,413.3125,1430,413.3807,1420.3,413.2806,1410.6,413.491,1400.9,413.5516,1391.2,413.8982,1381.5,413.9836,1371.8,413.9918,1362.1,413.5671,1352.4,413.7761,1342.7,414.0147,1333,413.3125,1332.7596,413.3125,1333.2262,405.3781,1332.9012,397.4438,1333.1779,389.5094,1332.835,381.575,1333,373.6406" style="stroke:#A80036;stroke-width:1.5;"/><text fill="#000000" font-family="sans-serif" font-size="12" lengthAdjust="spacing" textLength="83" x="1340" y="388.0977">Stock:stockPile</text><path d="M1334,392.7344 L1334,393.0146 L1343.5,392.1819 L1353,392.9921 L1362.5,393.2673 L1372,391.7832 L1381.5,392.6308 L1391,392.1657 L1400.5,392.223 L1410,392.6435 L1419.5,391.8125 L1429,392.7344 " fill="#FEFECE" style="stroke:#A80036;stroke-width:1.5;"/><text fill="#000000" font-family="sans-serif" font-size="10" lengthAdjust="spacing" textLength="50" x="1339" y="407.1152">nCards = 0</text><polygon fill="#FEFECE" filter="url(#f198g0skkr2t99)" points="439.5,373.6406,439.5,373.8508,449.1364,373.2263,458.7727,373.8339,468.4091,374.0403,478.0455,372.9272,487.6818,373.5629,497.3182,373.2141,506.9545,373.2571,516.5909,373.5725,526.2273,372.9493,535.8636,374.1943,545.5,373.6406,545.2899,373.6406,545.4341,381.575,545.644,389.5094,545.4714,397.4438,545.5227,405.3781,545.5,413.3125,545.5,413.2806,535.8636,413.491,526.2273,413.5516,516.5909,413.8982,506.9545,413.9836,497.3182,413.9918,487.6818,413.5671,478.0455,413.7761,468.4091,414.0147,458.7727,412.5913,449.1364,413.991,439.5,413.3125,439.4012,413.3125,439.6779,405.3781,439.335,397.4438,439.4772,389.5094,439.7472,381.575,439.5,373.6406" style="stroke:#A80036;stroke-width:1.5;"/><text fill="#000000" font-family="sans-serif" font-size="12" lengthAdjust="spacing" textLength="92" x="446.5" y="388.0977">Waste:wastePile</text><path d="M440.5,392.7344 L440.5,393.0146 L450.9,392.1819 L461.3,392.9921 L471.7,393.2673 L482.1,391.7832 L492.5,392.6308 L502.9,392.1657 L513.3,392.223 L523.7,392.6435 L534.1,391.8125 L544.5,392.7344 " fill="#FEFECE" style="stroke:#A80036;stroke-width:1.5;"/><text fill="#000000" font-family="sans-serif" font-size="10" lengthAdjust="spacing" textLength="50" x="445.5" y="407.1152">nCards = 0</text><polygon fill="#FEFECE" filter="url(#f198g0skkr2t99)" points="89,373.6406,89,373.8508,98.85,373.2263,108.7,373.8339,118.55,374.0403,128.4,372.9272,138.25,373.5629,148.1,373.2141,157.95,373.2571,167.8,373.5725,177.65,372.9493,187.5,374.1943,197.35,373.0103,207.2,373.4429,217.05,374.0726,226.9,373.5548,236.75,373.7089,246.6,373.6087,256.45,373.8192,266.3,373.8798,276.15,374.2263,286,373.6406,286.2237,373.6406,286.2264,381.575,286.0849,389.5094,286.1545,397.4438,286.2341,405.3781,286,413.3125,286,412.5913,276.15,413.991,266.3,413.016,256.45,413.8463,246.6,412.8175,236.75,413.244,226.9,414.0541,217.05,413.2638,207.2,413.4178,197.35,413.6511,187.5,413.7287,177.65,413.3086,167.8,413.5997,157.95,412.7401,148.1,413.5969,138.25,413.8607,128.4,413.757,118.55,413.9255,108.7,412.8294,98.85,412.6603,89,413.3125,88.7929,413.3125,88.9804,405.3781,88.9345,397.4438,89.2271,389.5094,88.9418,381.575,89,373.6406" style="stroke:#A80036;stroke-width:1.5;"/><text fill="#000000" font-family="sans-serif" font-size="12" lengthAdjust="spacing" textLength="183" x="96" y="388.0977">Foundation:diamondsFoundation</text><path d="M90,392.7344 L90,393.0146 L99.75,392.1819 L109.5,392.9921 L119.25,393.2673 L129,391.7832 L138.75,392.6308 L148.5,392.1657 L158.25,392.223 L168,392.6435 L177.75,391.8125 L187.5,393.4726 L197.25,391.894 L207,392.4707 L216.75,393.3103 L226.5,392.62 L236.25,392.8254 L246,392.6918 L255.75,392.9724 L265.5,393.0532 L275.25,393.5153 L285,392.7344 " fill="#FEFECE" style="stroke:#A80036;stroke-width:1.5;"/><text fill="#000000" font-family="sans-serif" font-size="10" lengthAdjust="spacing" textLength="56" x="95" y="407.1152">nCards = 13</text><polygon fill="#FEFECE" filter="url(#f198g0skkr2t99)" points="580.5,373.6406,580.5,373.8508,590.2778,373.2263,600.0556,373.8339,609.8333,374.0403,619.6111,372.9272,629.3889,373.5629,639.1667,373.2141,648.9444,373.2571,658.7222,373.5725,668.5,372.9493,678.2778,374.1943,688.0556,373.0103,697.8333,373.4429,707.6111,374.0726,717.3889,373.5548,727.1667,373.7089,736.9444,373.6087,746.7222,373.8192,756.5,373.6406,756.5797,373.6406,756.6952,381.575,756.7237,389.5094,756.7264,397.4438,756.5849,405.3781,756.5,413.3125,756.5,413.7761,746.7222,414.0147,736.9444,412.5913,727.1667,413.991,717.3889,413.016,707.6111,413.8463,697.8333,412.8175,688.0556,413.244,678.2778,414.0541,668.5,413.2638,658.7222,413.4178,648.9444,413.6511,639.1667,413.7287,629.3889,413.3086,619.6111,413.5997,609.8333,412.7401,600.0556,413.5969,590.2778,413.8607,580.5,413.3125,580.6482,413.3125,580.7043,405.3781,580.339,397.4438,580.2826,389.5094,580.2929,381.575,580.5,373.6406" style="stroke:#A80036;stroke-width:1.5;"/><text fill="#000000" font-family="sans-serif" font-size="12" lengthAdjust="spacing" textLength="162" x="587.5" y="388.0977">Foundation:heartsFoundation</text><path d="M581.5,392.7344 L581.5,393.0146 L591.7353,392.1819 L601.9706,392.9921 L612.2059,393.2673 L622.4412,391.7832 L632.6765,392.6308 L642.9118,392.1657 L653.1471,392.223 L663.3824,392.6435 L673.6176,391.8125 L683.8529,393.4726 L694.0882,391.894 L704.3235,392.4707 L714.5588,393.3103 L724.7941,392.62 L735.0294,392.8254 L745.2647,392.6918 L755.5,392.7344 " fill="#FEFECE" style="stroke:#A80036;stroke-width:1.5;"/><text fill="#000000" font-family="sans-serif" font-size="10" lengthAdjust="spacing" textLength="56" x="586.5" y="407.1152">nCards = 13</text><polygon fill="#FEFECE" filter="url(#f198g0skkr2t99)" points="791.5,373.6406,791.5,373.8508,801.6111,373.2263,811.7222,373.8339,821.8333,374.0403,831.9444,372.9272,842.0556,373.5629,852.1667,373.2141,862.2778,373.2571,872.3889,373.5725,882.5,372.9493,892.6111,374.1943,902.7222,373.0103,912.8333,373.4429,922.9444,374.0726,933.0556,373.5548,943.1667,373.7089,953.2778,373.6087,963.3889,373.8192,973.5,373.6406,973.5797,373.6406,973.6952,381.575,973.7237,389.5094,973.7264,397.4438,973.5849,405.3781,973.5,413.3125,973.5,413.7761,963.3889,414.0147,953.2778,412.5913,943.1667,413.991,933.0556,413.016,922.9444,413.8463,912.8333,412.8175,902.7222,413.244,892.6111,414.0541,882.5,413.2638,872.3889,413.4178,862.2778,413.6511,852.1667,413.7287,842.0556,413.3086,831.9444,413.5997,821.8333,412.7401,811.7222,413.5969,801.6111,413.8607,791.5,413.3125,791.6482,413.3125,791.7043,405.3781,791.339,397.4438,791.2826,389.5094,791.2929,381.575,791.5,373.6406" style="stroke:#A80036;stroke-width:1.5;"/><text fill="#000000" font-family="sans-serif" font-size="12" lengthAdjust="spacing" textLength="168" x="798.5" y="388.0977">Foundation:spacesFoundation</text><path d="M792.5,392.7344 L792.5,393.0146 L802.5,392.1819 L812.5,392.9921 L822.5,393.2673 L832.5,391.7832 L842.5,392.6308 L852.5,392.1657 L862.5,392.223 L872.5,392.6435 L882.5,391.8125 L892.5,393.4726 L902.5,391.894 L912.5,392.4707 L922.5,393.3103 L932.5,392.62 L942.5,392.8254 L952.5,392.6918 L962.5,392.9724 L972.5,392.7344 " fill="#FEFECE" style="stroke:#A80036;stroke-width:1.5;"/><text fill="#000000" font-family="sans-serif" font-size="10" lengthAdjust="spacing" textLength="56" x="797.5" y="407.1152">nCards = 13</text><polygon fill="#FEFECE" filter="url(#f198g0skkr2t99)" points="1009,373.6406,1009,373.8508,1019.0588,373.2263,1029.1176,373.8339,1039.1765,374.0403,1049.2353,372.9272,1059.2941,373.5629,1069.3529,373.2141,1079.4118,373.2571,1089.4706,373.5725,1099.5294,372.9493,1109.5882,374.1943,1119.6471,373.0103,1129.7059,373.4429,1139.7647,374.0726,1149.8235,373.5548,1159.8824,373.7089,1169.9412,373.6087,1180,373.6406,1180.0595,373.6406,1180.0797,381.575,1180.1952,389.5094,1180.2237,397.4438,1180.2264,405.3781,1180,413.3125,1180,413.5671,1169.9412,413.7761,1159.8824,414.0147,1149.8235,412.5913,1139.7647,413.991,1129.7059,413.016,1119.6471,413.8463,1109.5882,412.8175,1099.5294,413.244,1089.4706,414.0541,1079.4118,413.2638,1069.3529,413.4178,1059.2941,413.6511,1049.2353,413.7287,1039.1765,413.3086,1029.1176,413.5997,1019.0588,412.7401,1009,413.3125,1009.0948,413.3125,1009.1827,405.3781,1009.1482,397.4438,1009.2043,389.5094,1008.839,381.575,1009,373.6406" style="stroke:#A80036;stroke-width:1.5;"/><text fill="#000000" font-family="sans-serif" font-size="12" lengthAdjust="spacing" textLength="157" x="1016" y="388.0977">Foundation:clubsFoundation</text><path d="M1010,392.7344 L1010,393.0146 L1019.9412,392.1819 L1029.8824,392.9921 L1039.8235,393.2673 L1049.7647,391.7832 L1059.7059,392.6308 L1069.6471,392.1657 L1079.5882,392.223 L1089.5294,392.6435 L1099.4706,391.8125 L1109.4118,393.4726 L1119.3529,391.894 L1129.2941,392.4707 L1139.2353,393.3103 L1149.1765,392.62 L1159.1176,392.8254 L1169.0588,392.6918 L1179,392.7344 " fill="#FEFECE" style="stroke:#A80036;stroke-width:1.5;"/><text fill="#000000" font-family="sans-serif" font-size="10" lengthAdjust="spacing" textLength="56" x="1015" y="407.1152">nCards = 13</text><polygon fill="#FEFECE" filter="url(#f198g0skkr2t99)" points="48.5,486.1406,48.5,486.3508,58,485.7263,67.5,486.3339,77,486.5403,86.5,485.4272,96,486.0629,105.5,485.7141,115,485.7571,124.5,486.1406,124.4318,486.1406,123.8086,496.5906,125.0536,507.0406,123.8697,517.4906,124.3022,527.9406,124.5,538.3906,124.5,538.8226,115,538.3048,105.5,538.4589,96,538.3587,86.5,538.5692,77,538.6298,67.5,538.9763,58,539.0617,48.5,538.3906,49.1793,538.3906,48.7546,527.9406,48.9636,517.4906,49.2022,507.0406,47.7788,496.5906,48.5,486.1406" style="stroke:#A80036;stroke-width:1.5;"/><text fill="#000000" font-family="sans-serif" font-size="12" lengthAdjust="spacing" textLength="61" x="56" y="500.5977">Card:card1</text><path d="M49.5,505.2344 L49.5,505.5146 L60.0714,504.6819 L70.6429,505.4921 L81.2143,505.7673 L91.7857,504.2832 L102.3571,505.1308 L112.9286,504.6657 L123.5,505.2344 " fill="#FEFECE" style="stroke:#A80036;stroke-width:1.5;"/><text fill="#000000" font-family="sans-serif" font-size="10" lengthAdjust="spacing" textLength="56" x="54.5" y="519.6152">rank  = King</text><text fill="#000000" font-family="sans-serif" font-size="10" lengthAdjust="spacing" textLength="64" x="54.5" y="532.1934">faceUp = true</text><polygon fill="#FEFECE" filter="url(#f198g0skkr2t99)" points="685.5,486.1406,685.5,486.3508,695.75,485.7263,706,486.3339,716.25,486.5403,726.5,485.4272,736.75,486.0629,747,485.7141,757.25,485.7571,767.5,486.1406,767.4318,486.1406,766.8086,496.5906,768.0536,507.0406,766.8697,517.4906,767.3022,527.9406,767.5,538.3906,767.5,538.8226,757.25,538.3048,747,538.4589,736.75,538.3587,726.5,538.5692,716.25,538.6298,706,538.9763,695.75,539.0617,685.5,538.3906,686.1793,538.3906,685.7546,527.9406,685.9636,517.4906,686.2022,507.0406,684.7788,496.5906,685.5,486.1406" style="stroke:#A80036;stroke-width:1.5;"/><text fill="#000000" font-family="sans-serif" font-size="12" lengthAdjust="spacing" textLength="68" x="692.5" y="500.5977">Card:card23</text><path d="M686.5,505.2344 L686.5,505.5146 L696.5,504.6819 L706.5,505.4921 L716.5,505.7673 L726.5,504.2832 L736.5,505.1308 L746.5,504.6657 L756.5,504.723 L766.5,505.2344 " fill="#FEFECE" style="stroke:#A80036;stroke-width:1.5;"/><text fill="#000000" font-family="sans-serif" font-size="10" lengthAdjust="spacing" textLength="53" x="691.5" y="519.6152">rank  = Ace</text><text fill="#000000" font-family="sans-serif" font-size="10" lengthAdjust="spacing" textLength="64" x="691.5" y="532.1934">faceUp = true</text><polygon fill="#FEFECE" filter="url(#f198g0skkr2t99)" points="1023.5,486.1406,1023.5,486.3508,1033.75,485.7263,1044,486.3339,1054.25,486.5403,1064.5,485.4272,1074.75,486.0629,1085,485.7141,1095.25,485.7571,1105.5,486.1406,1105.4318,486.1406,1104.8086,496.5906,1106.0536,507.0406,1104.8697,517.4906,1105.3022,527.9406,1105.5,538.3906,1105.5,538.8226,1095.25,538.3048,1085,538.4589,1074.75,538.3587,1064.5,538.5692,1054.25,538.6298,1044,538.9763,1033.75,539.0617,1023.5,538.3906,1024.1793,538.3906,1023.7546,527.9406,1023.9636,517.4906,1024.2022,507.0406,1022.7788,496.5906,1023.5,486.1406" style="stroke:#A80036;stroke-width:1.5;"/><text fill="#000000" font-family="sans-serif" font-size="12" lengthAdjust="spacing" textLength="68" x="1030.5" y="500.5977">Card:card24</text><path d="M1024.5,505.2344 L1024.5,505.5146 L1034.5,504.6819 L1044.5,505.4921 L1054.5,505.7673 L1064.5,504.2832 L1074.5,505.1308 L1084.5,504.6657 L1094.5,504.723 L1104.5,505.2344 " fill="#FEFECE" style="stroke:#A80036;stroke-width:1.5;"/><text fill="#000000" font-family="sans-serif" font-size="10" lengthAdjust="spacing" textLength="53" x="1029.5" y="519.6152">rank = King</text><text fill="#000000" font-family="sans-serif" font-size="10" lengthAdjust="spacing" textLength="64" x="1029.5" y="532.1934">faceUp = true</text><polygon fill="#FEFECE" filter="url(#f198g0skkr2t99)" points="568.5,486.1406,568.5,486.3508,578.75,485.7263,589,486.3339,599.25,486.5403,609.5,485.4272,619.75,486.0629,630,485.7141,640.25,485.7571,650.5,486.1406,650.4318,486.1406,649.8086,496.5906,651.0536,507.0406,649.8697,517.4906,650.3022,527.9406,650.5,538.3906,650.5,538.8226,640.25,538.3048,630,538.4589,619.75,538.3587,609.5,538.5692,599.25,538.6298,589,538.9763,578.75,539.0617,568.5,538.3906,569.1793,538.3906,568.7546,527.9406,568.9636,517.4906,569.2022,507.0406,567.7788,496.5906,568.5,486.1406" style="stroke:#A80036;stroke-width:1.5;"/><text fill="#000000" font-family="sans-serif" font-size="12" lengthAdjust="spacing" textLength="68" x="575.5" y="500.5977">Card:card25</text><path d="M569.5,505.2344 L569.5,505.5146 L579.5,504.6819 L589.5,505.4921 L599.5,505.7673 L609.5,504.2832 L619.5,505.1308 L629.5,504.6657 L639.5,504.723 L649.5,505.2344 " fill="#FEFECE" style="stroke:#A80036;stroke-width:1.5;"/><text fill="#000000" font-family="sans-serif" font-size="10" lengthAdjust="spacing" textLength="53" x="574.5" y="519.6152">rank = King</text><text fill="#000000" font-family="sans-serif" font-size="10" lengthAdjust="spacing" textLength="64" x="574.5" y="532.1934">faceUp = true</text><polygon fill="#FEFECE" filter="url(#f198g0skkr2t99)" points="841.5,486.1406,841.5,486.3508,851.75,485.7263,862,486.3339,872.25,486.5403,882.5,485.4272,892.75,486.0629,903,485.7141,913.25,485.7571,923.5,486.1406,923.4318,486.1406,922.8086,496.5906,924.0536,507.0406,922.8697,517.4906,923.3022,527.9406,923.5,538.3906,923.5,538.8226,913.25,538.3048,903,538.4589,892.75,538.3587,882.5,538.5692,872.25,538.6298,862,538.9763,851.75,539.0617,841.5,538.3906,842.1793,538.3906,841.7546,527.9406,841.9636,517.4906,842.2022,507.0406,840.7788,496.5906,841.5,486.1406" style="stroke:#A80036;stroke-width:1.5;"/><text fill="#000000" font-family="sans-serif" font-size="12" lengthAdjust="spacing" textLength="68" x="848.5" y="500.5977">Card:card30</text><path d="M842.5,505.2344 L842.5,505.5146 L852.5,504.6819 L862.5,505.4921 L872.5,505.7673 L882.5,504.2832 L892.5,505.1308 L902.5,504.6657 L912.5,504.723 L922.5,505.2344 " fill="#FEFECE" style="stroke:#A80036;stroke-width:1.5;"/><text fill="#000000" font-family="sans-serif" font-size="10" lengthAdjust="spacing" textLength="56" x="847.5" y="519.6152">rank  = King</text><text fill="#000000" font-family="sans-serif" font-size="10" lengthAdjust="spacing" textLength="64" x="847.5" y="532.1934">faceUp = true</text><polygon fill="#FEFECE" filter="url(#f198g0skkr2t99)" points="321,373.6406,321,373.8508,331.375,373.2263,341.75,373.8339,352.125,374.0403,362.5,372.9272,372.875,373.5629,383.25,373.2141,393.625,373.2571,404,373.6406,403.9773,373.6406,403.7695,381.575,404.1845,389.5094,403.7899,397.4438,403.9341,405.3781,404,413.3125,404,413.7444,393.625,413.2267,383.25,413.3807,372.875,413.2806,362.5,413.491,352.125,413.5516,341.75,413.8982,331.375,413.9836,321,413.3125,321.2264,413.3125,321.0849,405.3781,321.1545,397.4438,321.2341,389.5094,320.7596,381.575,321,373.6406" style="stroke:#A80036;stroke-width:1.5;"/><text fill="#000000" font-family="sans-serif" font-size="12" lengthAdjust="spacing" textLength="69" x="328" y="388.0977">tableauPile7</text><path d="M322,392.7344 L322,393.0146 L332.125,392.1819 L342.25,392.9921 L352.375,393.2673 L362.5,391.7832 L372.625,392.6308 L382.75,392.1657 L392.875,392.223 L403,392.7344 " fill="#FEFECE" style="stroke:#A80036;stroke-width:1.5;"/><text fill="#000000" font-family="sans-serif" font-size="10" lengthAdjust="spacing" textLength="50" x="327" y="407.1152">nCards = 0</text><path d="M211,474.6406 L211,550.0469 A0,0 0 0 0 211,550.0469 L514,550.0469 A0,0 0 0 0 514,550.0469 L514,484.6406 L504,474.6406 L366.5,474.6406 L362.5,413.8806 L358.5,474.6406 L211,474.6406 A0,0 0 0 0 211,474.6406 " fill="#FBFB77" filter="url(#f198g0skkr2t99)" style="stroke:#A80036;stroke-width:1.0;"/><path d="M504,474.6406 L504.1868,474.6406 L503.6317,476.6406 L504.1718,478.6406 L504.3553,480.6406 L503.3659,482.6406 L504,484.6406 L504,484.5715 L506,484.2615 L508,484.2997 L510,484.58 L512,484.0261 L514,484.6406 L514.348,484.9886 L511.6038,482.2445 L509.8757,480.5163 L508.2715,478.9121 L505.9461,476.5867 L504,474.6406 " fill="#FBFB77" style="stroke:#A80036;stroke-width:1.0;"/><text fill="#000000" font-family="sans-serif" font-size="13" lengthAdjust="spacing" textLength="113" x="217" y="493.1357">7 total tableau piles</text><text fill="#000000" font-family="sans-serif" font-size="13" lengthAdjust="spacing" textLength="170" x="217" y="509.4873">Last card face up in each pile</text><text fill="#000000" font-family="sans-serif" font-size="13" lengthAdjust="spacing" textLength="278" x="217" y="525.8389">0, 1, 2, 3, 4, 5 &amp; 6 face down cards in each pile,</text><text fill="#000000" font-family="sans-serif" font-size="13" lengthAdjust="spacing" textLength="155" x="217" y="542.1904">repectively, from 1 to 7 pile</text><path d="M1140.5,490.6406 L1140.5,533.3438 A0,0 0 0 0 1140.5,533.3438 L1298.5,533.3438 A0,0 0 0 0 1298.5,533.3438 L1298.5,500.6406 L1288.5,490.6406 L1201.14,490.6406 L1115.14,413.8806 L1193.14,490.6406 L1140.5,490.6406 A0,0 0 0 0 1140.5,490.6406 " fill="#FBFB77" filter="url(#f198g0skkr2t99)" style="stroke:#A80036;stroke-width:1.0;"/><path d="M1288.5,490.6406 L1288.6868,490.6406 L1288.1317,492.6406 L1288.6718,494.6406 L1288.8553,496.6406 L1287.8659,498.6406 L1288.5,500.6406 L1288.5,500.5715 L1290.5,500.2615 L1292.5,500.2997 L1294.5,500.58 L1296.5,500.0261 L1298.5,500.6406 L1298.848,500.9886 L1296.1038,498.2445 L1294.3757,496.5163 L1292.7715,494.9121 L1290.4461,492.5867 L1288.5,490.6406 " fill="#FBFB77" style="stroke:#A80036;stroke-width:1.0;"/><text fill="#000000" font-family="sans-serif" font-size="13" lengthAdjust="spacing" textLength="137" x="1146.5" y="509.1357">4 total foundations piles</text><text fill="#000000" font-family="sans-serif" font-size="13" lengthAdjust="spacing" textLength="76" x="1146.5" y="525.4873">with all cards</text><polygon fill="#FEFECE" filter="url(#f198g0skkr2t99)" points="1215,373.6406,1215,373.8508,1225.375,373.2263,1235.75,373.8339,1246.125,374.0403,1256.5,372.9272,1266.875,373.5629,1277.25,373.2141,1287.625,373.2571,1298,373.6406,1297.9773,373.6406,1297.7695,381.575,1298.1845,389.5094,1297.7899,397.4438,1297.9341,405.3781,1298,413.3125,1298,413.7444,1287.625,413.2267,1277.25,413.3807,1266.875,413.2806,1256.5,413.491,1246.125,413.5516,1235.75,413.8982,1225.375,413.9836,1215,413.3125,1215.2264,413.3125,1215.0849,405.3781,1215.1545,397.4438,1215.2341,389.5094,1214.7596,381.575,1215,373.6406" style="stroke:#A80036;stroke-width:1.5;"/><text fill="#000000" font-family="sans-serif" font-size="12" lengthAdjust="spacing" textLength="69" x="1222" y="388.0977">tableauPile1</text><path d="M1216,392.7344 L1216,393.0146 L1226.125,392.1819 L1236.25,392.9921 L1246.375,393.2673 L1256.5,391.7832 L1266.625,392.6308 L1276.75,392.1657 L1286.875,392.223 L1297,392.7344 " fill="#FEFECE" style="stroke:#A80036;stroke-width:1.5;"/><text fill="#000000" font-family="sans-serif" font-size="10" lengthAdjust="spacing" textLength="50" x="1221" y="407.1152">nCards = 0</text><polygon fill="#FEFECE" filter="url(#f198g0skkr2t99)" points="7,610.6406,7,610.8508,16.9375,610.2263,26.875,610.8339,36.8125,611.0403,46.75,609.9272,56.6875,610.5629,66.625,610.2141,76.5625,610.2571,86.5,610.5725,96.4375,609.9493,106.375,611.1943,116.3125,610.0103,126.25,610.4429,136.1875,611.0726,146.125,610.5548,156.0625,610.7089,166,610.6406,165.9894,610.6406,166.0595,618.575,166.0797,626.5094,166.1952,634.4438,166.2237,642.3781,166,650.3125,166,650.9918,156.0625,650.5671,146.125,650.7761,136.1875,651.0147,126.25,649.5913,116.3125,650.991,106.375,650.016,96.4375,650.8463,86.5,649.8175,76.5625,650.244,66.625,651.0541,56.6875,650.2638,46.75,650.4178,36.8125,650.6511,26.875,650.7287,16.9375,650.3086,7,650.3125,7.0957,650.3125,6.8092,642.3781,7.0948,634.4438,7.1827,626.5094,7.1482,618.575,7,610.6406" style="stroke:#A80036;stroke-width:1.5;"/><text fill="#000000" font-family="sans-serif" font-size="12" lengthAdjust="spacing" textLength="145" x="14" y="625.0977">Diamonds:diamondsSuite</text><path d="M8,629.7344 L8,630.0146 L17.8125,629.1819 L27.625,629.9921 L37.4375,630.2673 L47.25,628.7832 L57.0625,629.6308 L66.875,629.1657 L76.6875,629.223 L86.5,629.6435 L96.3125,628.8125 L106.125,630.4726 L115.9375,628.894 L125.75,629.4707 L135.5625,630.3103 L145.375,629.62 L155.1875,629.8254 L165,629.7344 " fill="#FEFECE" style="stroke:#A80036;stroke-width:1.5;"/><text fill="#000000" font-family="sans-serif" font-size="10" lengthAdjust="spacing" textLength="51" x="13" y="644.1152">color = red</text><polygon fill="#FEFECE" filter="url(#f198g0skkr2t99)" points="609,610.6406,609,610.8508,618.75,610.2263,628.5,610.8339,638.25,611.0403,648,609.9272,657.75,610.5629,667.5,610.2141,677.25,610.2571,687,610.5725,696.75,609.9493,706.5,611.1943,716.25,610.0103,726,610.6406,725.9341,610.6406,726.144,618.575,725.9714,626.5094,726.0227,634.4438,725.9894,642.3781,726,650.3125,726,650.491,716.25,650.5516,706.5,650.8982,696.75,650.9836,687,650.9918,677.25,650.5671,667.5,650.7761,657.75,651.0147,648,649.5913,638.25,650.991,628.5,650.016,618.75,650.8463,609,650.3125,608.835,650.3125,608.9772,642.3781,609.2472,634.4438,608.9838,626.5094,609.0351,618.575,609,610.6406" style="stroke:#A80036;stroke-width:1.5;"/><text fill="#000000" font-family="sans-serif" font-size="12" lengthAdjust="spacing" textLength="103" x="616" y="625.0977">Hearst:heartsSuite</text><path d="M610,629.7344 L610,630.0146 L619.5833,629.1819 L629.1667,629.9921 L638.75,630.2673 L648.3333,628.7832 L657.9167,629.6308 L667.5,629.1657 L677.0833,629.223 L686.6667,629.6435 L696.25,628.8125 L705.8333,630.4726 L715.4167,628.894 L725,629.7344 " fill="#FEFECE" style="stroke:#A80036;stroke-width:1.5;"/><text fill="#000000" font-family="sans-serif" font-size="10" lengthAdjust="spacing" textLength="51" x="615" y="644.1152">color = red</text><polygon fill="#FEFECE" filter="url(#f198g0skkr2t99)" points="1010.5,610.6406,1010.5,610.8508,1020.3182,610.2263,1030.1364,610.8339,1039.9545,611.0403,1049.7727,609.9272,1059.5909,610.5629,1069.4091,610.2141,1079.2273,610.2571,1089.0455,610.5725,1098.8636,609.9493,1108.6818,611.1943,1118.5,610.6406,1118.2899,610.6406,1118.4341,618.575,1118.644,626.5094,1118.4714,634.4438,1118.5227,642.3781,1118.5,650.3125,1118.5,650.2806,1108.6818,650.491,1098.8636,650.5516,1089.0455,650.8982,1079.2273,650.9836,1069.4091,650.9918,1059.5909,650.5671,1049.7727,650.7761,1039.9545,651.0147,1030.1364,649.5913,1020.3182,650.991,1010.5,650.3125,1010.4012,650.3125,1010.6779,642.3781,1010.335,634.4438,1010.4772,626.5094,1010.7472,618.575,1010.5,610.6406" style="stroke:#A80036;stroke-width:1.5;"/><text fill="#000000" font-family="sans-serif" font-size="12" lengthAdjust="spacing" textLength="94" x="1017.5" y="625.0977">Clubs:clubsSuite</text><path d="M1011.5,629.7344 L1011.5,630.0146 L1021.1364,629.1819 L1030.7727,629.9921 L1040.4091,630.2673 L1050.0455,628.7832 L1059.6818,629.6308 L1069.3182,629.1657 L1078.9545,629.223 L1088.5909,629.6435 L1098.2273,628.8125 L1107.8636,630.4726 L1117.5,629.7344 " fill="#FEFECE" style="stroke:#A80036;stroke-width:1.5;"/><text fill="#000000" font-family="sans-serif" font-size="10" lengthAdjust="spacing" textLength="61" x="1016.5" y="644.1152">color = black</text><polygon fill="#FEFECE" filter="url(#f198g0skkr2t99)" points="818.5,610.6406,818.5,610.8508,828.3462,610.2263,838.1923,610.8339,848.0385,611.0403,857.8846,609.9272,867.7308,610.5629,877.5769,610.2141,887.4231,610.2571,897.2692,610.5725,907.1154,609.9493,916.9615,611.1943,926.8077,610.0103,936.6538,610.4429,946.5,610.6406,946.644,610.6406,946.4714,618.575,946.5227,626.5094,946.4894,634.4438,946.5595,642.3781,946.5,650.3125,946.5,650.5516,936.6538,650.8982,926.8077,650.9836,916.9615,650.9918,907.1154,650.5671,897.2692,650.7761,887.4231,651.0147,877.5769,649.5913,867.7308,650.991,857.8846,650.016,848.0385,650.8463,838.1923,649.8175,828.3462,650.244,818.5,650.3125,818.7472,650.3125,818.4838,642.3781,818.5351,634.4438,818.6129,626.5094,818.6387,618.575,818.5,610.6406" style="stroke:#A80036;stroke-width:1.5;"/><text fill="#000000" font-family="sans-serif" font-size="12" lengthAdjust="spacing" textLength="114" x="825.5" y="625.0977">Spaces:spacesSuite</text><path d="M819.5,629.7344 L819.5,630.0146 L829.1923,629.1819 L838.8846,629.9921 L848.5769,630.2673 L858.2692,628.7832 L867.9615,629.6308 L877.6538,629.1657 L887.3462,629.223 L897.0385,629.6435 L906.7308,628.8125 L916.4231,630.4726 L926.1154,628.894 L935.8077,629.4707 L945.5,629.7344 " fill="#FEFECE" style="stroke:#A80036;stroke-width:1.5;"/><text fill="#000000" font-family="sans-serif" font-size="10" lengthAdjust="spacing" textLength="61" x="824.5" y="644.1152">color = black</text><polygon fill="#FEFECE" filter="url(#f198g0skkr2t99)" points="205.5,258.1406,205.5,258.3508,216,257.7263,226.5,258.3339,237,258.5403,247.5,257.4272,258,258.0629,268.5,257.7141,279,257.7571,289.5,258.1406,289.4773,258.1406,289.2695,265.1594,289.6845,272.1781,289.2899,279.1969,289.4341,286.2156,289.5,293.2344,289.5,293.6663,279,293.1486,268.5,293.3026,258,293.2024,247.5,293.4129,237,293.4735,226.5,293.8201,216,293.9054,205.5,293.2344,205.7264,293.2344,205.5849,286.2156,205.6545,279.1969,205.7341,272.1781,205.2596,265.1594,205.5,258.1406" style="stroke:#A80036;stroke-width:1.5;"/><text fill="#000000" font-family="sans-serif" font-size="12" lengthAdjust="spacing" textLength="70" x="212.5" y="272.5977">Move:moveN</text><path d="M206.5,277.2344 L206.5,277.5146 L216.75,276.6819 L227,277.4921 L237.25,277.7673 L247.5,276.2832 L257.75,277.1308 L268,276.6657 L278.25,276.723 L288.5,277.2344 " fill="#FEFECE" style="stroke:#A80036;stroke-width:1.5;"/><!--MD5=[07dd720996138132cabe80b3693ac342]
link myKlondike to player--><path d="M247.5,93.8306 L247.5934,93.8306 L247.3159,100.9066 L247.5859,107.9826 L247.6776,115.0586 L247.1829,122.1346 L247.5,129.2106 " fill="none" style="stroke:#A80036;stroke-width:1.0;"/><polygon fill="#A80036" points="247.5,142.5506,247.564,142.5791,248.1738,140.6945,249.1589,138.9768,250.0217,137.2047,250.4827,135.254,251.5,133.5506,251.4817,133.5323,250.5995,134.2501,249.8096,135.0602,249.0839,135.9346,248.137,136.5877,247.5,137.5506,247.6305,137.6811,246.5514,136.6021,245.8534,135.904,245.2018,135.2524,244.2798,134.3304,243.5,133.5506,243.5208,133.5599,244.2903,135.3463,245.1544,137.1748,245.9728,138.983,246.8784,140.8299,247.5,142.5506" style="stroke:#A80036;stroke-width:1.0;"/><path d="M247.5,137.5506 L247.5934,137.5506 L247.3159,135.9506 L247.5859,134.3506 L247.6776,132.7506 L247.1829,131.1506 L247.5,129.5506 " fill="#A80036" style="stroke:#A80036;stroke-width:1.0;"/><polygon fill="#A80036" points="247.5,81.8306,247.5583,81.8695,246.5851,82.954,245.9536,84.2664,245.2109,85.5045,244.1021,86.4987,243.5,87.8306,243.4784,87.8163,244.1817,88.9518,244.9936,90.1597,245.8811,91.418,246.5082,92.5028,247.5,93.8306,247.6536,93.933,248.1252,92.5141,249.0451,91.3941,250.0198,90.3105,250.6762,89.0148,251.5,87.8306,251.5189,87.8432,250.6911,86.6247,249.9495,85.4636,249.1663,84.2748,248.4624,83.1389,247.5,81.8306" style="stroke:#A80036;stroke-width:1.0;"/><!--MD5=[80ccac3c40792434d6b02a71eeec0756]
link myKlondike to goal--><path d="M210.3712,90.4523 L210.4415,90.5137 L209.2671,91.437 L208.5053,92.7203 L207.6091,93.8865 L206.2711,94.6669 L205.5447,95.9812 L205.5182,95.959 L203.1261,98.5723 L200.8674,101.2973 L198.7015,104.1001 L196.2159,106.635 L194.1781,109.5452 L194.3705,109.6985 L192.6236,111.0462 L191.4386,112.8417 L190.3221,114.6917 L188.8068,116.2239 L187.5012,117.9233 L187.5254,117.9416 L186.1777,119.652 L184.9401,121.4457 L183.6494,123.1993 L182.4601,125.0294 L180.9402,126.6098 L181.1901,126.7725 L179.1051,129.9807 L176.8589,133.0839 L174.8487,136.3407 L172.8496,139.6048 L170.5,142.6406 L170.212,142.5 L169.578,145.217 L167.9956,147.471 L167.1342,150.077 L165.5303,152.3206 L164.535,154.8612 L164.5069,154.8496 L163.7902,157.5451 L162.4155,159.9706 L161.4292,162.5553 L160.4754,165.1535 L159.2864,167.6552 L159.4611,167.7161 L158.3697,170.2777 L157.5768,172.9435 L156.301,175.4408 L155.7455,178.1894 L154.7112,180.7709 L154.9446,180.8408 L154.1115,183.4647 L153.3942,186.1234 L152.1385,188.621 L151.2775,191.2366 L150.7663,193.9569 L150.4988,193.8878 L150.0694,196.5512 L149.3387,199.1369 L149.0449,201.8353 L148.005,204.3411 L147.4087,206.9614 L147.2599,206.9281 L146.9451,209.4979 L145.9942,211.9253 L145.4956,214.454 L145.4396,217.0816 L144.5955,219.533 L144.7855,219.5699 L144.4535,221.9727 L143.5303,224.2604 L143.3476,226.6922 L143.0035,229.0926 L142.2836,231.4199 L142.0766,231.3849 L141.8709,233.6029 L141.5974,235.8095 L141.457,238.0387 L140.7989,240.1802 L140.43,242.3706 " fill="none" style="stroke:#A80036;stroke-width:1.0;"/><polygon fill="#A80036" points="138.57,255.2406,138.6293,255.2779,139.502,253.4998,140.7222,251.9403,141.8293,250.3096,142.5641,248.4448,143.8143,246.9041,143.7987,246.8833,142.8231,247.4678,141.9256,248.1568,141.0825,248.9186,140.0521,249.4298,139.284,250.2919,139.4318,250.4024,138.4382,249.26,137.8761,248.4403,137.3667,247.66,136.5509,246.6506,135.8962,245.7616,135.9181,245.7678,136.4207,247.6546,137.023,249.5694,137.5772,251.4707,138.2231,253.3978,138.57,255.2406" style="stroke:#A80036;stroke-width:1.0;"/><path d="M139.284,250.2919 L139.3765,250.3052 L139.33,248.6814 L139.8254,247.1356 L140.1444,245.5644 L139.883,243.9097 L140.425,242.3706 " fill="#A80036" style="stroke:#A80036;stroke-width:1.0;"/><polygon fill="#A80036" points="218.83,81.9406,218.844,82.0093,217.3892,82.0925,216.0162,82.5782,214.6166,82.9329,213.1293,82.8566,211.7634,83.3768,211.7379,83.3718,211.3454,84.7645,211.0811,86.1823,210.9057,87.6177,210.4235,88.9927,210.3712,90.4523,210.4079,90.6331,211.7426,89.9591,213.1847,89.8132,214.6398,89.7316,216.0188,89.2753,217.4378,89.0161,217.4601,89.0204,217.7058,87.5989,218.0531,86.1974,218.3513,84.7862,218.7431,83.3934,218.83,81.9406" style="stroke:#A80036;stroke-width:1.0;"/><!--MD5=[6b236512f49617fb9349ca6db5e2cc1a]
link myKlondike to board--><path d="M306.451,87.159 L306.5799,87.4079 L315.037,91.2463 L324.2495,96.5435 L333.216,101.3657 L341.3735,104.6257 L350.6032,109.9561 L359.2294,114.121 L368.0957,118.7497 L377.129,123.7009 L385.5869,127.5409 L395.1902,133.5928 L403.3043,136.7688 L412.4094,141.8587 L421.6355,147.1821 L430.158,151.147 L439.0924,155.9072 L447.871,160.3664 L456.84,165.1934 L465.7171,169.843 L474.7696,174.8311 L483.6619,179.51 L492.5069,184.0975 L501.0865,188.1726 L510.0546,192.9978 L519.0409,197.8582 L527.0081,200.7507 L536.7063,206.9858 L544.9485,210.4092 L554.2975,215.9701 L562.5067,219.3298 L571.6082,224.4126 L580.9448,229.9496 L589.3002,233.5916 L598.2346,238.3518 L607.2177,243.2059 L616.1052,247.8756 L624.69,251.9606 " fill="none" style="stroke:#A80036;stroke-width:1.0;"/><polygon fill="#A80036" points="636.58,258.1106,636.6347,258.1544,635.2425,256.4856,634.171,255.0732,632.9951,253.5773,631.4756,251.8069,630.4318,250.4165,630.4071,250.4087,630.6381,251.452,630.9937,252.5348,631.4358,253.6451,631.5797,254.6608,632.1413,255.8089,632.1971,255.9848,630.9993,255.9505,629.9644,256.4299,628.9494,256.9719,627.8188,257.1493,626.749,257.5184,626.7503,257.5411,628.7145,257.6262,630.685,257.8147,632.6524,257.9533,634.6255,258.1871,636.58,258.1106" style="stroke:#A80036;stroke-width:1.0;"/><path d="M632.1413,255.8089 L632.1843,255.8918 L630.6354,254.9097 L629.3383,254.4139 L627.9592,253.7597 L626.3105,252.5847 L625.035,252.1306 " fill="#A80036" style="stroke:#A80036;stroke-width:1.0;"/><polygon fill="#A80036" points="295.79,81.6506,295.8513,81.6846,296.3681,82.8453,297.2441,84.205,298.0032,85.4999,298.3775,86.5817,299.2844,87.9585,299.2815,87.9328,300.7019,87.6573,302.1369,87.5117,303.5818,87.4562,304.9921,87.0899,306.451,87.159,306.6125,87.2485,305.5684,85.7957,304.9956,84.6039,304.4803,83.4441,303.6305,82.0989,302.9566,80.8512,302.9592,80.8738,301.5221,81.0005,300.0966,81.2301,298.6655,81.4101,297.245,81.6848,295.79,81.6506" style="stroke:#A80036;stroke-width:1.0;"/><!--MD5=[dc3ce9bb748f29abe953416d64d14ca9]
link player to goal--><path d="M220.91,194.7906 L221.1026,194.9942 L212.9841,201.5281 L205.9946,209.2553 L198.6375,216.594 L190.0713,222.6546 L183.1075,230.4091 L175.2417,237.21 L167.7349,244.3904 L160.54,251.9006 " fill="none" style="stroke:#A80036;stroke-width:1.0;"/><polygon fill="#A80036" points="156.62,255.6106,156.6432,255.6767,158.4334,254.8292,160.3594,254.3692,162.2412,253.7831,163.9776,252.7818,165.9153,252.3551,165.9145,252.3293,164.7801,252.1788,163.6497,252.1588,162.522,252.2296,161.3849,251.9877,160.261,252.1838,160.4455,252.1894,160.0853,251.0466,160.2636,249.9201,160.5077,248.7956,160.3695,247.6595,160.4323,246.5295,160.4533,246.5383,159.6601,248.3416,158.9623,250.185,158.2184,252.009,157.5625,253.87,156.62,255.6106" style="stroke:#A80036;stroke-width:1.0;"/><!--MD5=[e2b9286a6e0ed5484b113f424108e554]
link board to stockPile--><path d="M745.3444,284.2234 L745.3554,284.3162 L748.5601,284.4247 L751.8292,285.0769 L755.0773,285.5521 L758.2564,285.445 L761.5311,286.144 L761.5269,286.1097 L770.3881,287.0484 L779.2707,288.1598 L788.168,289.3915 L797.0144,290.2091 L805.9322,291.6066 L806.0265,292.3387 L815.3072,291.9954 L824.8634,293.7896 L834.4532,295.8446 L843.8474,296.3823 L853.3562,297.8082 L862.8216,298.898 L872.3095,300.1625 L872.32,300.2412 L880.2197,301.3274 L888.1362,302.5397 L896.0373,303.6368 L903.9338,304.7 L911.7897,305.4604 L911.8053,305.5725 L920.345,306.845 L928.8865,308.1307 L937.3268,308.6846 L945.9391,310.4814 L954.4247,311.3633 L954.3686,310.9719 L963.5277,313.3582 L972.335,313.2907 L981.4177,315.144 L990.5729,317.5036 L999.4346,317.8152 L999.425,317.7509 L1008.7763,319.343 L1018.1432,321.0397 L1027.4794,322.531 L1036.7179,323.366 L1046.0396,324.7601 L1046.0985,325.1385 L1055.4063,325.4823 L1065.0661,328.0874 L1074.6043,329.9114 L1084.0671,331.2511 L1093.46,332.1418 L1093.592,332.9485 L1102.8473,333.0587 L1112.302,334.3887 L1121.7999,335.9817 L1131.4121,338.2744 L1140.916,339.9043 L1140.8713,339.6461 L1150.4133,342.417 L1159.561,342.9097 L1168.865,344.306 L1178.3373,346.674 L1187.6278,347.9916 L1187.4661,347.1173 L1196.5395,348.9821 L1205.8602,352.1847 L1214.8461,353.5763 L1223.9561,355.6392 L1232.8155,356.3474 L1232.7881,356.207 L1237.1985,357.3389 L1241.5774,358.3094 L1245.8425,358.698 L1250.2303,359.7145 L1254.5943,360.6085 L1254.6054,360.6634 L1258.8732,361.7538 L1263.036,362.3296 L1267.2985,363.3943 L1271.4293,363.8132 L1275.6995,364.9158 L1275.6366,364.6214 L1279.8132,366.0039 L1283.7667,366.3427 L1287.9475,367.7448 L1291.9863,368.4827 L1296.034,369.2622 L1296.0078,369.146 L1299.8927,369.9844 L1303.8651,371.2125 L1307.6844,371.7594 L1311.6645,373.0216 L1315.5,373.6406 L1315.4433,373.4016 L1316.5333,374.1376 L1317.4897,374.3101 L1318.4351,374.4366 L1319.3848,374.581 L1320.35,374.7906 " fill="none" style="stroke:#A80036;stroke-width:1.0;"/><polygon fill="#A80036" points="1332.99,378.0406,1333.0335,378.0955,1331.3607,376.7086,1329.9431,375.6435,1328.4424,374.4736,1326.6684,372.959,1325.2727,371.9215,1325.2504,371.9084,1325.7254,372.8236,1326.3128,373.8052,1326.9784,374.8329,1327.3746,375.7016,1328.1481,376.7931,1328.2419,376.952,1327.067,377.1872,1326.166,377.8865,1325.2984,378.6423,1324.2364,379.0688,1323.2766,379.6685,1323.2804,379.6909,1325.2175,379.3324,1327.1718,379.076,1329.1178,378.7704,1331.0796,378.5587,1332.99,378.0406" style="stroke:#A80036;stroke-width:1.0;"/><path d="M1328.1481,376.7931 L1328.1714,376.8835 L1326.5537,376.2172 L1325.0722,376.0813 L1323.5464,375.7727 L1321.8748,374.896 L1320.405,374.8056 " fill="#A80036" style="stroke:#A80036;stroke-width:1.0;"/><polygon fill="#A80036" points="733.41,282.9706,733.4547,283.0245,734.4317,283.7852,735.671,284.862,736.8248,285.8359,737.6979,286.4712,738.9596,287.5752,738.9476,287.5522,740.1705,286.7789,741.4541,286.1213,742.7799,285.544,743.9603,284.6897,745.3444,284.2234,745.4623,284.3654,744.1004,283.1408,743.0825,282.3309,742.1066,281.5715,740.8865,280.5178,739.7948,279.6189,739.8054,279.639,738.5129,280.2798,737.2685,281.0123,736.001,281.7005,734.7777,282.4731,733.41,282.9706" style="stroke:#A80036;stroke-width:1.0;"/><!--MD5=[11d36bc7cb4129f6f7429d8d353a258b]
link board to wastePile--><path d="M633.259,299.8621 L633.4132,300.0961 L624.5509,304.9399 L616.5926,311.1554 L608.34,316.9242 L599.1192,321.2241 L591.1816,327.4708 L582.5216,332.6215 L574.149,338.2085 L565.9763,344.0986 L557.115,348.9438 L549.6244,355.8689 L540.3516,360.0899 L532.41,366.3306 " fill="none" style="stroke:#A80036;stroke-width:1.0;"/><polygon fill="#A80036" points="521.47,373.5406,521.4814,373.6097,523.3909,373.0834,525.3674,372.9622,527.322,372.7091,529.205,372.0221,531.1872,371.9357,531.182,371.9104,530.0505,371.5679,528.9453,371.3533,527.8585,371.2276,526.7085,370.7955,525.6471,370.7925,525.8278,370.8298,525.67,369.6421,526.0398,368.5632,526.474,367.4976,526.5336,366.3547,526.7903,365.2524,526.8094,365.2647,525.7173,366.9043,524.7123,368.5998,523.6652,370.2684,522.6984,371.9884,521.47,373.5406" style="stroke:#A80036;stroke-width:1.0;"/><path d="M525.6471,370.7925 L525.6985,370.8706 L526.8824,369.7584 L528.3675,369.1035 L529.7545,368.2997 L530.819,367.0062 L532.33,366.3906 " fill="#A80036" style="stroke:#A80036;stroke-width:1.0;"/><polygon fill="#A80036" points="643.28,293.2606,643.2804,293.3307,641.837,293.1146,640.396,293.3092,638.9541,293.3701,637.5099,292.9911,636.069,293.221,636.0451,293.2109,635.3761,294.4938,634.8273,295.8276,634.3621,297.1968,633.6088,298.4441,633.259,299.8621,633.26,300.0466,634.7,299.6599,636.143,299.812,637.5864,300.0298,639.0276,299.8652,640.47,299.9017,640.4909,299.9106,641.0222,298.5693,641.6488,297.2685,642.2294,295.9481,642.8978,294.6649,643.28,293.2606" style="stroke:#A80036;stroke-width:1.0;"/><!--MD5=[74db22bb4b12d89f9d0bc88ff04086ba]
link board to clubsFoundation--><path d="M741.1187,296.4125 L741.1923,296.6829 L750.6364,298.5108 L760.5122,301.9238 L770.2474,304.8207 L779.5204,306.0201 L789.406,309.4693 L798.9467,311.652 L808.6247,314.3386 L818.398,317.3757 L827.8426,319.2053 L837.9417,323.4383 L847.1898,324.5466 L857.0043,327.7344 L866.8878,331.1759 L876.3693,333.1412 L886.0862,335.9707 L895.714,338.4732 L905.4506,341.3753 L915.1347,344.0846 L924.919,347.1618 L934.6119,349.903 L944.2776,352.5449 L953.7918,354.63 L963.5279,357.5302 L973.2744,360.4686 L982.4386,361.2687 L992.5919,365.7008 L1001.9132,367.0778 L1011.68,370.0906 " fill="none" style="stroke:#A80036;stroke-width:1.0;"/><polygon fill="#A80036" points="1024.37,373.5406,1024.4143,373.5949,1022.7561,372.1889,1021.3574,371.1012,1019.8741,369.9098,1018.113,368.3776,1016.7366,367.3172,1016.7141,367.3043,1017.175,368.2286,1017.7492,369.2178,1018.4022,370.252,1018.7837,371.1309,1019.5455,372.2274,1019.6372,372.3876,1018.4592,372.6068,1017.5487,373.2937,1016.6709,374.0377,1015.6032,374.4497,1014.6354,375.0363,1014.6388,375.0588,1016.5807,374.7267,1018.5383,374.4969,1020.4883,374.2177,1022.4527,374.0327,1024.37,373.5406" style="stroke:#A80036;stroke-width:1.0;"/><path d="M1019.5455,372.2274 L1019.57,372.3175 L1017.9532,371.6303 L1016.4798,371.4716 L1014.9598,371.1407 L1013.286,370.244 L1011.825,370.1306 " fill="#A80036" style="stroke:#A80036;stroke-width:1.0;"/><polygon fill="#A80036" points="729.54,293.2606,729.5928,293.3067,730.3836,294.257,731.4841,295.4772,732.4837,296.6095,733.1517,297.4527,734.2787,298.6961,734.2705,298.6715,735.6017,298.1045,736.9742,297.6614,738.3755,297.3044,739.6777,296.6506,741.1187,296.4125,741.2578,296.5337,740.0126,295.1873,739.1735,294.1949,738.384,293.2458,737.3061,292.0453,736.38,290.977,736.3872,290.9986,735.0086,291.4236,733.6628,291.9469,732.3012,292.4228,730.9698,292.9891,729.54,293.2606" style="stroke:#A80036;stroke-width:1.0;"/><!--MD5=[af1a2cc39fa055b104a1f856628bf00d]
link board to diamondsFoundation--><path d="M591.9631,295.0886 L592.0289,295.361 L582.0591,296.9091 L572.4746,300.0542 L562.7647,302.6793 L552.6422,303.5942 L543.0665,306.7757 L533.183,308.6812 L523.4219,311.0944 L513.7461,313.8607 L503.7767,315.4105 L494.3915,319.3818 L484.2469,320.2048 L474.6076,323.123 L465.03,326.2968 L455.0937,327.9833 L445.3674,330.5405 L435.5616,332.7682 L425.8529,335.3986 L416.0974,337.8347 L406.4313,340.6414 L396.6835,343.1097 L386.9116,345.4779 L377.0043,347.285 L367.2952,349.9134 L357.5953,352.5803 L347.3759,353.0929 L338.039,357.2647 L327.9597,358.3585 L318.4448,361.7923 L308.3487,362.8163 L298.7075,365.7267 L289.1863,369.1343 L279.18,370.5306 " fill="none" style="stroke:#A80036;stroke-width:1.0;"/><polygon fill="#A80036" points="266.49,373.5906,266.5027,373.6595,268.4022,373.8114,270.3761,374.3672,272.3258,374.7914,274.1958,374.7831,276.1761,375.3736,276.1626,375.3515,275.1369,374.6618,274.1794,374.0834,273.2693,373.5825,272.1959,372.8147,271.3512,372.4206,271.5086,372.517,271.7626,371.346,272.4761,370.4563,273.2458,369.6008,273.6892,368.5458,274.3042,367.5957,274.318,367.6138,272.7348,368.7862,271.2147,370.0409,269.6642,371.2559,268.1717,372.5465,266.49,373.5906" style="stroke:#A80036;stroke-width:1.0;"/><path d="M271.3512,372.4206 L271.3731,372.5115 L272.8628,371.8666 L274.4809,371.7541 L276.0571,371.4683 L277.4959,370.6124 L279.125,370.5456 " fill="#A80036" style="stroke:#A80036;stroke-width:1.0;"/><polygon fill="#A80036" points="603.63,292.2806,603.6541,292.3464,602.2285,291.654,600.9444,291.3471,599.6143,290.9147,598.1325,290.0694,596.8606,289.7957,596.8416,289.7781,595.7768,290.7577,594.8078,291.826,593.9055,292.956,592.7735,293.8735,591.9631,295.0886,592.0267,295.2618,593.2446,295.3883,594.6482,296.0207,596.0744,296.7147,597.3688,297.0497,598.7326,297.5736,598.7493,297.589,599.7042,296.5077,600.7352,295.4968,601.7295,294.4519,602.7938,293.4718,603.63,292.2806" style="stroke:#A80036;stroke-width:1.0;"/><!--MD5=[0e5e6536124d1e9b400eb9bb7eecf849]
link board to heartsFoundation--><path d="M668.5,305.2606 L668.7802,305.2606 L667.9476,316.2426 L668.7577,327.2246 L669.0329,338.2066 L667.5488,349.1886 L668.5,360.1706 " fill="none" style="stroke:#A80036;stroke-width:1.0;"/><polygon fill="#A80036" points="668.5,373.3406,668.564,373.3691,669.1738,371.4845,670.1589,369.7668,671.0217,367.9947,671.4827,366.044,672.5,364.3406,672.4817,364.3223,671.5995,365.0401,670.8096,365.8502,670.0839,366.7246,669.137,367.3777,668.5,368.3406,668.6305,368.4711,667.5514,367.3921,666.8534,366.694,666.2018,366.0424,665.2798,365.1204,664.5,364.3406,664.5208,364.3499,665.2903,366.1363,666.1544,367.9648,666.9728,369.773,667.8784,371.6199,668.5,373.3406" style="stroke:#A80036;stroke-width:1.0;"/><path d="M668.5,368.3406 L668.5934,368.3406 L668.3159,366.7406 L668.5859,365.1406 L668.6776,363.5406 L668.1829,361.9406 L668.5,360.3406 " fill="#A80036" style="stroke:#A80036;stroke-width:1.0;"/><polygon fill="#A80036" points="668.5,293.2606,668.5583,293.2995,667.5851,294.384,666.9536,295.6964,666.2109,296.9345,665.1021,297.9287,664.5,299.2606,664.4784,299.2463,665.1817,300.3818,665.9936,301.5897,666.8811,302.848,667.5082,303.9328,668.5,305.2606,668.6536,305.363,669.1252,303.9441,670.0451,302.8241,671.0198,301.7405,671.6762,300.4448,672.5,299.2606,672.5189,299.2732,671.6911,298.0547,670.9495,296.8936,670.1663,295.7048,669.4624,294.5689,668.5,293.2606" style="stroke:#A80036;stroke-width:1.0;"/><!--MD5=[e50d76c52f3e8de5296def5181fcdf37]
link board to spacesFoundation--><path d="M709.7078,298.9828 L709.8414,299.2292 L718.4447,303.3756 L727.8309,308.9662 L736.9622,314.0866 L745.2552,317.6602 L754.6592,323.2838 L763.4378,327.7534 L772.4652,332.6822 L781.6658,337.9302 L790.2699,342.0781 L800.0611,348.4159 L808.3091,351.9066 L817.584,357.292 L826.9843,362.9085 L835.71,367.2806 " fill="none" style="stroke:#A80036;stroke-width:1.0;"/><polygon fill="#A80036" points="847.27,373.5406,847.3255,373.5833,845.9598,371.8949,844.9197,370.4569,843.7735,368.9373,842.2787,367.1496,841.2665,365.733,841.2417,365.7257,841.4519,366.7773,841.7874,367.866,842.2099,368.9806,842.3324,370.0062,842.8751,371.1564,842.9276,371.3333,841.7307,371.2767,840.687,371.7366,839.662,372.2595,838.5283,372.4158,837.4517,372.7649,837.4535,372.7876,839.4146,372.9094,841.3837,373.1345,843.349,373.3098,845.3217,373.5801,847.27,373.5406" style="stroke:#A80036;stroke-width:1.0;"/><path d="M842.8751,371.1564 L842.9195,371.2385 L841.3804,370.2333 L840.1019,369.7096 L838.7386,369.0292 L837.0962,367.8329 L835.84,367.3506 " fill="#A80036" style="stroke:#A80036;stroke-width:1.0;"/><polygon fill="#A80036" points="699.16,293.2606,699.222,293.2933,699.7112,294.4716,700.5636,295.8415,701.2977,297.149,701.6429,298.2512,702.5265,299.6377,702.5242,299.6119,703.9499,299.3651,705.3874,299.2484,706.8332,299.2221,708.2506,298.8843,709.7078,298.9828,709.871,299.069,708.8487,297.6093,708.3029,296.4012,707.8152,295.2238,706.9893,293.8678,706.3413,292.6058,706.3434,292.6284,704.9041,292.7261,703.4742,292.927,702.0398,293.0781,700.614,293.3241,699.16,293.2606" style="stroke:#A80036;stroke-width:1.0;"/><!--MD5=[aad61eb72c3137c333ed1aa13d03ee71]
link board to tableauPile1--><path d="M744.8714,287.453 L744.9162,287.7296 L754.4689,288.4794 L764.2846,290.8509 L774.0147,292.6942 L783.463,292.801 L793.3013,295.3117 L793.2841,295.2095 L803.8041,296.5302 L814.4105,298.366 L825.0771,300.5599 L835.5364,301.5197 L846.286,304.2081 L846.4125,304.9353 L855.4921,305.0064 L864.9411,307.2008 L874.4351,309.6542 L883.6669,310.6004 L893.0523,312.429 L902.3795,313.9236 L911.7369,315.5918 L911.7509,315.6699 L918.9211,316.9827 L926.1137,318.4206 L933.2857,319.7443 L940.4517,321.0342 L947.5638,322.0233 L947.5842,322.1346 L955.0121,323.5903 L962.4423,325.0589 L969.7389,325.8011 L977.2625,327.7772 L984.619,328.8449 L984.5944,328.7155 L992.194,330.5049 L999.6397,331.4825 L1007.2058,333.0957 L1014.8037,334.8763 L1022.2732,335.9794 L1022.269,335.9581 L1029.8069,337.4993 L1037.3516,339.0751 L1044.883,340.583 L1052.3718,341.8737 L1059.8969,343.3494 L1059.9224,343.4745 L1067.239,344.6058 L1074.7077,346.4846 L1082.1239,348.1052 L1089.5075,349.5657 L1096.8609,350.8778 L1096.9177,351.1443 L1103.9511,352.1898 L1111.0703,353.6381 L1118.2081,355.1734 L1125.3953,356.9398 L1132.5357,358.4873 L1132.5164,358.4021 L1139.3535,360.3054 L1146.021,361.4569 L1152.7558,362.9066 L1159.5629,364.677 L1166.2918,366.1007 L1166.2222,365.8126 L1172.4793,367.3844 L1178.8428,369.397 L1185.0622,370.8129 L1191.335,372.4499 L1197.5,373.6406 L1197.464,373.5022 L1198.4437,374.0139 L1199.382,374.3666 L1200.1712,374.1454 L1201.1213,374.5434 L1202.04,374.8206 " fill="none" style="stroke:#A80036;stroke-width:1.0;"/><polygon fill="#A80036" points="1214.79,378.4706,1214.835,378.5243,1213.1917,377.0995,1211.8121,375.9894,1210.3467,374.7768,1208.5987,373.2271,1207.2418,372.1441,1207.2192,372.1315,1207.6659,373.0647,1208.2268,374.0613,1208.8672,375.1018,1209.2339,375.9907,1209.9838,377.0919,1210.0733,377.2534,1208.8924,377.4566,1207.9727,378.1311,1207.0849,378.8631,1206.0117,379.2605,1205.036,379.8339,1205.0391,379.8565,1206.9853,379.5507,1208.9458,379.3475,1210.8994,379.0949,1212.8662,378.9366,1214.79,378.4706" style="stroke:#A80036;stroke-width:1.0;"/><path d="M1209.9838,377.0919 L1210.0095,377.1818 L1208.3955,376.4756 L1206.9319,376.296 L1205.4193,375.945 L1203.7457,375.03 L1202.295,374.8956 " fill="#A80036" style="stroke:#A80036;stroke-width:1.0;"/><polygon fill="#A80036" points="733,285.7006,733.047,285.7526,733.9777,286.5648,735.1838,287.6818,736.3002,288.6995,737.1219,289.3908,738.3516,290.5339,738.3405,290.5105,739.5948,289.7892,740.9049,289.186,742.2537,288.6648,743.4689,287.8608,744.8714,287.453,744.9951,287.59,743.6602,286.3304,742.6866,285.4708,741.7569,284.6599,740.571,283.5651,739.5198,282.6197,739.5295,282.6403,738.2113,283.2263,736.9373,283.9059,735.642,284.5403,734.3874,285.261,733,285.7006" style="stroke:#A80036;stroke-width:1.0;"/><!--MD5=[f741a03cdd29a0ba0b491cb0a722a2b3]
link board to tableauPile7--><path d="M613.4366,297.5073 L613.5359,297.7694 L603.8671,300.5448 L594.7806,304.8562 L585.5046,308.6675 L575.6048,310.8338 L566.5316,315.1803 L556.9931,318.2994 L547.6398,321.907 L538.4152,325.8541 L528.7469,328.6311 L519.9618,333.7372 L510.0285,335.8152 L500.8593,339.9084 L491.7833,344.2474 L482.165,347.1559 L472.8641,350.9019 L463.4431,354.331 L454.169,358.1473 L444.824,361.7769 L435.6141,365.7629 L426.2808,369.4233 L416.59,372.1406 " fill="none" style="stroke:#A80036;stroke-width:1.0;"/><polygon fill="#A80036" points="404.3,376.8006,404.3039,376.8706,406.2591,376.7719,408.2371,377.0834,410.2076,377.2613,412.1538,377,414.1337,377.3466,414.1231,377.323,413.0436,376.7529,412.0176,376.3019,411.0289,375.9338,409.9119,375.2802,408.9746,375.0264,409.1429,375.1021,409.2471,373.9084,409.8426,372.9357,410.4981,371.99,410.8048,370.8874,411.2949,369.8673,411.3109,369.8834,409.8884,371.2464,408.5388,372.6829,407.1541,374.0839,405.8364,375.5526,404.3,376.8006" style="stroke:#A80036;stroke-width:1.0;"/><path d="M408.9746,375.0264 L409.0078,375.1137 L410.4053,374.2861 L411.9973,373.9704 L413.5259,373.488 L414.8464,372.4574 L416.455,372.1856 " fill="#A80036" style="stroke:#A80036;stroke-width:1.0;"/><polygon fill="#A80036" points="624.66,293.2606,624.6757,293.3289,623.2236,292.8025,621.8635,292.6763,620.4735,292.4198,618.9848,291.7347,617.6327,291.6428,617.6116,291.6278,616.6779,292.733,615.8503,293.9142,615.0965,295.1483,614.0884,296.2003,613.4366,297.5073,613.478,297.6872,614.7949,297.6262,616.2327,298.0902,617.6852,298.6183,619.052,298.7737,620.4639,299.1251,620.4823,299.1384,621.2944,297.946,622.1907,296.814,623.0464,295.6528,623.9795,294.5471,624.66,293.2606" style="stroke:#A80036;stroke-width:1.0;"/><!--MD5=[922d46f35df561838f2dbe45971e9e73]
link diamondsFoundation to card1--><path d="M162.9563,422.945 L163.1681,423.1285 L155.988,430.1396 L150.0492,438.2268 L143.7063,445.9636 L136.034,452.548 L130.1235,460.6597 L123.2212,467.9116 L117.1,475.8406 " fill="none" style="stroke:#A80036;stroke-width:1.0;"/><polygon fill="#A80036" points="108.51,485.7506,108.5397,485.8141,110.2353,484.7901,112.105,484.1382,113.918,483.3651,115.5445,482.1936,117.4292,481.5736,117.4274,481.5478,116.2906,481.5118,115.1631,481.6062,114.042,481.7911,112.8988,481.6639,111.7865,481.9738,111.9706,481.9869,111.4969,480.8304,111.5607,479.7121,111.69,478.5984,111.4378,477.4576,111.3863,476.3311,111.4081,476.3378,110.8009,478.2119,110.2927,480.1163,109.7368,482.0061,109.272,483.9237,108.51,485.7506" style="stroke:#A80036;stroke-width:1.0;"/><path d="M111.7865,481.9738 L111.8571,482.035 L112.6951,480.6446 L113.9468,479.6128 L115.0638,478.4643 L115.7377,476.9316 L117.025,475.9306 " fill="#A80036" style="stroke:#A80036;stroke-width:1.0;"/><polygon fill="#FFFFFF" points="170.82,413.8806,170.8386,413.9482,169.3927,414.1296,168.0558,414.7071,166.6833,415.1557,165.1943,415.1801,163.8667,415.7916,163.841,415.7883,163.5436,417.2043,163.3757,418.6368,163.2979,420.0807,162.9098,421.4852,162.9563,422.945,163.0052,423.1229,164.2913,422.3602,165.7202,422.117,167.1664,421.9372,168.5114,421.3886,169.9096,421.034,169.9322,421.0369,170.0811,419.602,170.3328,418.1802,170.5349,416.752,170.8316,415.336,170.82,413.8806" style="stroke:#A80036;stroke-width:1.0;"/><!--MD5=[978a922f35eb630b96cb8223bf6b50be]
link spacesFoundation to card30--><path d="M882.5,425.8806 L882.7802,425.8806 L881.9476,435.1786 L882.7577,444.4766 L883.0329,453.7746 L881.5488,463.0726 L882.5,472.3706 " fill="none" style="stroke:#A80036;stroke-width:1.0;"/><polygon fill="#A80036" points="882.5,485.7506,882.564,485.7791,883.1738,483.8945,884.1589,482.1768,885.0217,480.4047,885.4827,478.454,886.5,476.7506,886.4817,476.7323,885.5995,477.4501,884.8096,478.2602,884.0839,479.1346,883.137,479.7877,882.5,480.7506,882.6305,480.8811,881.5514,479.8021,880.8534,479.104,880.2018,478.4524,879.2798,477.5304,878.5,476.7506,878.5208,476.7599,879.2903,478.5463,880.1544,480.3748,880.9728,482.183,881.8784,484.0299,882.5,485.7506" style="stroke:#A80036;stroke-width:1.0;"/><path d="M882.5,480.7506 L882.5934,480.7506 L882.3159,479.1506 L882.5859,477.5506 L882.6776,475.9506 L882.1829,474.3506 L882.5,472.7506 " fill="#A80036" style="stroke:#A80036;stroke-width:1.0;"/><polygon fill="#FFFFFF" points="882.5,413.8806,882.5583,413.9195,881.5851,415.004,880.9536,416.3164,880.2109,417.5545,879.1021,418.5487,878.5,419.8806,878.4784,419.8663,879.1817,421.0018,879.9936,422.2097,880.8811,423.468,881.5082,424.5528,882.5,425.8806,882.6536,425.983,883.1252,424.5641,884.0451,423.4441,885.0198,422.3605,885.6762,421.0648,886.5,419.8806,886.5189,419.8932,885.6911,418.6747,884.9495,417.5136,884.1663,416.3248,883.4624,415.1889,882.5,413.8806" style="stroke:#A80036;stroke-width:1.0;"/><!--MD5=[ed8de6cc17606b5f946dc857877257a5]
link heartsFoundation to card23--><path d="M683.4254,424.6243 L683.6763,424.7492 L687.0183,432.5875 L691.831,441.1579 L696.1648,449.49 L698.9237,457.0379 L703.7698,465.6251 L707.95,473.8806 " fill="none" style="stroke:#A80036;stroke-width:1.0;"/><polygon fill="#A80036" points="713.86,485.7506,713.93,485.7536,713.6374,483.7767,713.7552,481.8175,713.7393,479.8525,713.284,477.8686,713.437,475.9109,713.4124,475.9026,712.9418,476.938,712.595,478.015,712.3342,479.1209,711.7769,480.1272,711.6349,481.273,711.6937,481.4479,710.4956,480.7135,709.4691,480.4897,708.4635,480.3283,707.3361,479.8043,706.2728,479.471,706.2873,479.4885,707.7834,480.7187,709.3456,482.0287,710.8759,483.3002,712.467,484.6451,713.86,485.7506" style="stroke:#A80036;stroke-width:1.0;"/><path d="M711.6349,481.273 L711.7185,481.3147 L710.7562,479.7593 L710.2838,478.4484 L709.6519,477.0579 L708.4953,475.4056 L708.065,474.1156 " fill="#A80036" style="stroke:#A80036;stroke-width:1.0;"/><polygon fill="#FFFFFF" points="678.08,413.8806,678.1495,413.8895,677.7613,415.294,677.7805,416.7502,677.6671,418.1896,677.1173,419.5736,677.1715,421.0343,677.1586,421.0118,678.3515,421.629,679.6094,422.3594,680.9125,423.1686,682.0599,423.7064,683.4254,424.6243,683.6085,424.6475,683.3987,423.1671,683.7234,421.7545,684.1134,420.3502,684.1239,418.8978,684.3339,417.4706,684.3453,417.4904,683.0778,416.7434,681.862,416.0862,680.6213,415.3858,679.428,414.7679,678.08,413.8806" style="stroke:#A80036;stroke-width:1.0;"/><!--MD5=[5fc21359f0fcbfca4968579e023ec7d5]
link clubsFoundation to card24--><path d="M1086.5559,425.5011 L1086.8272,425.571 L1083.5657,434.8932 L1081.8951,444.6252 L1079.7064,454.2238 L1075.8141,463.3834 L1074.28,473.1506 " fill="none" style="stroke:#A80036;stroke-width:1.0;"/><polygon fill="#A80036" points="1071.04,485.7506,1071.0949,485.7941,1072.1552,484.1211,1073.5373,482.7031,1074.8146,481.202,1075.7472,479.4278,1077.157,478.0317,1077.1438,478.0093,1076.1105,478.4846,1075.1437,479.0723,1074.223,479.7382,1073.1432,480.1346,1072.2862,480.9084,1072.4451,481.0023,1071.53,479.8274,1071.0788,478.9266,1070.6841,478.0592,1069.9602,476.9973,1069.4095,476.0377,1069.4319,476.0414,1069.7251,477.9785,1070.1204,479.9327,1070.4664,481.8786,1070.9064,483.8404,1071.04,485.7506" style="stroke:#A80036;stroke-width:1.0;"/><path d="M1072.2862,480.9084 L1072.3767,480.9317 L1072.5067,479.3139 L1073.1669,477.8327 L1073.6545,476.307 L1073.5742,474.6351 L1074.28,473.1656 " fill="#A80036" style="stroke:#A80036;stroke-width:1.0;"/><polygon fill="#FFFFFF" points="1089.55,413.8806,1089.5968,413.9328,1088.3837,414.7402,1087.4448,415.8535,1086.4166,416.8672,1085.0949,417.5533,1084.1794,418.6928,1084.155,418.6843,1084.5205,420.0076,1085.0093,421.374,1085.5838,422.7703,1085.863,424.0635,1086.5559,425.5011,1086.679,425.6385,1087.4898,424.3822,1088.6601,423.5271,1089.8743,422.721,1090.8332,421.63,1091.9264,420.6889,1091.9479,420.6964,1091.4411,419.3237,1091.032,417.9852,1090.5758,416.6302,1090.2096,415.3066,1089.55,413.8806" style="stroke:#A80036;stroke-width:1.0;"/><!--MD5=[2f5857483a57bdc3c237f5f2849fa806]
link heartsFoundation to card25--><path d="M653.3408,424.5873 L653.5908,424.7139 L648.6862,432.5532 L645.2471,441.1348 L641.3308,449.4748 L635.8451,457.0197 L632.4394,465.6182 L628.37,473.8806 " fill="none" style="stroke:#A80036;stroke-width:1.0;"/><polygon fill="#A80036" points="622.36,485.7506,622.4043,485.8049,623.7994,484.3989,625.454,483.3111,627.0242,482.1197,628.3164,480.5875,629.9933,479.5271,629.9852,479.5025,628.874,479.7445,627.8034,480.1106,626.7611,480.563,625.6213,480.7181,624.618,481.2895,624.7934,481.347,624.0659,480.149,623.8504,479.1189,623.6974,478.1092,623.1809,476.9804,622.8556,475.9142,622.8783,475.9154,622.7458,477.881,622.7168,479.8518,622.6378,481.8201,622.6541,483.7932,622.36,485.7506" style="stroke:#A80036;stroke-width:1.0;"/><path d="M624.618,481.2895 L624.7014,481.3317 L625.1761,479.7796 L626.1395,478.4748 L626.9437,477.0894 L627.2247,475.4392 L628.23,474.1556 " fill="#A80036" style="stroke:#A80036;stroke-width:1.0;"/><polygon fill="#FFFFFF" points="658.76,413.8806,658.7945,413.9416,657.4364,414.4698,656.2803,415.3555,655.0584,416.1248,653.6202,416.5111,652.4815,417.4275,652.4558,417.4244,652.5122,418.8425,652.6983,420.2762,652.9745,421.7207,652.9401,423.1278,653.3408,424.5873,653.4315,424.7479,654.4931,423.6949,655.8197,423.1111,657.1787,422.5845,658.3495,421.7248,659.6193,421.0404,659.6418,421.0431,659.4368,419.6071,659.3346,418.1836,659.1828,416.754,659.1257,415.3358,658.76,413.8806" style="stroke:#A80036;stroke-width:1.0;"/><!--MD5=[ab89c98bfd8d5af0a0d43ee0ce8d2c3a]
link card1 to diamond--><path d="M86.5,550.4206 L86.7802,550.4206 L85.9476,559.8066 L86.7577,569.1926 L87.0329,578.5786 L85.5488,587.9646 L86.5,597.3506 " fill="none" style="stroke:#A80036;stroke-width:1.0;"/><polygon fill="#A80036" points="86.5,610.5506,86.564,610.5791,87.1738,608.6945,88.1589,606.9768,89.0217,605.2047,89.4827,603.254,90.5,601.5506,90.4817,601.5323,89.5995,602.2501,88.8096,603.0602,88.0839,603.9346,87.137,604.5877,86.5,605.5506,86.6305,605.6811,85.5514,604.6021,84.8534,603.904,84.2018,603.2524,83.2798,602.3304,82.5,601.5506,82.5208,601.5599,83.2903,603.3463,84.1544,605.1748,84.9728,606.983,85.8784,608.8299,86.5,610.5506" style="stroke:#A80036;stroke-width:1.0;"/><path d="M86.5,605.5506 L86.5934,605.5506 L86.3159,603.9506 L86.5859,602.3506 L86.6776,600.7506 L86.1829,599.1506 L86.5,597.5506 " fill="#A80036" style="stroke:#A80036;stroke-width:1.0;"/><polygon fill="#A80036" points="86.5,538.4206,86.5583,538.4595,85.5851,539.544,84.9536,540.8564,84.2109,542.0945,83.1021,543.0887,82.5,544.4206,82.4784,544.4063,83.1817,545.5418,83.9936,546.7497,84.8811,548.008,85.5082,549.0928,86.5,550.4206,86.6536,550.523,87.1252,549.1041,88.0451,547.9841,89.0198,546.9005,89.6762,545.6048,90.5,544.4206,90.5189,544.4332,89.6911,543.2147,88.9495,542.0536,88.1663,540.8648,87.4624,539.7289,86.5,538.4206" style="stroke:#A80036;stroke-width:1.0;"/><!--MD5=[ab2bd451babeb530ac2c7f2a594f6978]
link card23 to hearts--><path d="M708.2754,549.1246 L708.5255,549.2512 L703.5884,557.1577 L700.1169,565.8063 L696.1681,574.2133 L690.6499,581.8256 L687.2118,590.4911 L683.11,598.8206 " fill="none" style="stroke:#A80036;stroke-width:1.0;"/><polygon fill="#A80036" points="677.17,610.5506,677.2143,610.6049,678.6094,609.1989,680.264,608.1111,681.8342,606.9197,683.1264,605.3875,684.8033,604.3271,684.7952,604.3025,683.684,604.5445,682.6134,604.9106,681.5711,605.363,680.4313,605.5181,679.428,606.0895,679.6034,606.147,678.8759,604.949,678.6604,603.9189,678.5074,602.9092,677.9909,601.7804,677.6656,600.7142,677.6883,600.7154,677.5558,602.681,677.5268,604.6518,677.4478,606.6201,677.4641,608.5932,677.17,610.5506" style="stroke:#A80036;stroke-width:1.0;"/><path d="M679.428,606.0895 L679.5114,606.1317 L679.9861,604.5777 L680.9495,603.2707 L681.7537,601.8833 L682.0346,600.2313 L683.04,598.9456 " fill="#A80036" style="stroke:#A80036;stroke-width:1.0;"/><polygon fill="#A80036" points="713.7,538.4206,713.7344,538.4816,712.3761,539.0091,711.2196,539.8942,709.9973,540.6629,708.5589,541.0485,707.4197,541.9644,707.394,541.9613,707.4497,543.3796,707.6351,544.8133,707.9106,546.2578,707.8755,547.6652,708.2754,549.1246,708.3661,549.2853,709.4282,548.2328,710.7551,547.6496,712.1144,547.1237,713.2856,546.2646,714.5557,545.5808,714.5783,545.5835,714.374,544.1475,714.2725,542.7238,714.1214,541.2941,714.065,539.8758,713.7,538.4206" style="stroke:#A80036;stroke-width:1.0;"/><!--MD5=[8c7ba3118683edb52b1fc3a34bb4683c]
link card25 to hearts--><path d="M627.4354,549.1643 L627.6863,549.2892 L631.0667,557.2041 L635.9177,565.8513 L640.2898,574.26 L643.087,581.8845 L647.9715,590.5484 L652.19,598.8806 " fill="none" style="stroke:#A80036;stroke-width:1.0;"/><polygon fill="#A80036" points="657.99,610.5506,658.06,610.5537,657.7645,608.5767,657.8793,606.6178,657.8606,604.6531,657.4024,602.6688,657.5525,600.7115,657.5279,600.7033,657.0588,601.7394,656.7136,602.8169,656.4544,603.9232,655.8986,604.9302,655.7583,606.0763,655.8169,606.2513,654.6187,605.5182,653.5915,605.2961,652.5851,605.1364,651.4574,604.6139,650.3935,604.2822,650.408,604.2997,651.906,605.5276,653.47,606.8354,655.0021,608.1047,656.595,609.4475,657.99,610.5506" style="stroke:#A80036;stroke-width:1.0;"/><path d="M655.7583,606.0763 L655.842,606.1178 L654.8817,604.5613 L654.4119,603.2482 L653.7824,601.8559 L652.6277,600.2027 L652.2,598.9106 " fill="#A80036" style="stroke:#A80036;stroke-width:1.0;"/><polygon fill="#A80036" points="622.09,538.4206,622.1595,538.4295,621.7713,539.834,621.7905,541.2902,621.6771,542.7296,621.1273,544.1136,621.1815,545.5743,621.1686,545.5518,622.3615,546.169,623.6194,546.8994,624.9225,547.7086,626.0699,548.2464,627.4354,549.1643,627.6185,549.1875,627.4087,547.7071,627.7334,546.2945,628.1234,544.8902,628.1339,543.4378,628.3439,542.0106,628.3553,542.0304,627.0878,541.2834,625.872,540.6262,624.6313,539.9258,623.438,539.3079,622.09,538.4206" style="stroke:#A80036;stroke-width:1.0;"/><!--MD5=[7b89f1733cfc0f47d18f8dec88b9e335]
link card24 to clubs--><path d="M1064.5,550.4206 L1064.7802,550.4206 L1063.9476,559.8066 L1064.7577,569.1926 L1065.0329,578.5786 L1063.5488,587.9646 L1064.5,597.3506 " fill="none" style="stroke:#A80036;stroke-width:1.0;"/><polygon fill="#A80036" points="1064.5,610.5506,1064.564,610.5791,1065.1738,608.6945,1066.1589,606.9768,1067.0217,605.2047,1067.4827,603.254,1068.5,601.5506,1068.4817,601.5323,1067.5995,602.2501,1066.8096,603.0602,1066.0839,603.9346,1065.137,604.5877,1064.5,605.5506,1064.6305,605.6811,1063.5514,604.6021,1062.8534,603.904,1062.2018,603.2524,1061.2798,602.3304,1060.5,601.5506,1060.5208,601.5599,1061.2903,603.3463,1062.1544,605.1748,1062.9728,606.983,1063.8784,608.8299,1064.5,610.5506" style="stroke:#A80036;stroke-width:1.0;"/><path d="M1064.5,605.5506 L1064.5934,605.5506 L1064.3159,603.9506 L1064.5859,602.3506 L1064.6776,600.7506 L1064.1829,599.1506 L1064.5,597.5506 " fill="#A80036" style="stroke:#A80036;stroke-width:1.0;"/><polygon fill="#A80036" points="1064.5,538.4206,1064.5583,538.4595,1063.5851,539.544,1062.9536,540.8564,1062.2109,542.0945,1061.1021,543.0887,1060.5,544.4206,1060.4784,544.4063,1061.1817,545.5418,1061.9936,546.7497,1062.8811,548.008,1063.5082,549.0928,1064.5,550.4206,1064.6536,550.523,1065.1252,549.1041,1066.0451,547.9841,1067.0198,546.9005,1067.6762,545.6048,1068.5,544.4206,1068.5189,544.4332,1067.6911,543.2147,1066.9495,542.0536,1066.1663,540.8648,1065.4624,539.7289,1064.5,538.4206" style="stroke:#A80036;stroke-width:1.0;"/><!--MD5=[795a1dbf4b507fd8ea2e5f87bc53c135]
link card30 to spaces--><path d="M882.5,550.4206 L882.7802,550.4206 L881.9476,559.8066 L882.7577,569.1926 L883.0329,578.5786 L881.5488,587.9646 L882.5,597.3506 " fill="none" style="stroke:#A80036;stroke-width:1.0;"/><polygon fill="#A80036" points="882.5,610.5506,882.564,610.5791,883.1738,608.6945,884.1589,606.9768,885.0217,605.2047,885.4827,603.254,886.5,601.5506,886.4817,601.5323,885.5995,602.2501,884.8096,603.0602,884.0839,603.9346,883.137,604.5877,882.5,605.5506,882.6305,605.6811,881.5514,604.6021,880.8534,603.904,880.2018,603.2524,879.2798,602.3304,878.5,601.5506,878.5208,601.5599,879.2903,603.3463,880.1544,605.1748,880.9728,606.983,881.8784,608.8299,882.5,610.5506" style="stroke:#A80036;stroke-width:1.0;"/><path d="M882.5,605.5506 L882.5934,605.5506 L882.3159,603.9506 L882.5859,602.3506 L882.6776,600.7506 L882.1829,599.1506 L882.5,597.5506 " fill="#A80036" style="stroke:#A80036;stroke-width:1.0;"/><polygon fill="#A80036" points="882.5,538.4206,882.5583,538.4595,881.5851,539.544,880.9536,540.8564,880.2109,542.0945,879.1021,543.0887,878.5,544.4206,878.4784,544.4063,879.1817,545.5418,879.9936,546.7497,880.8811,548.008,881.5082,549.0928,882.5,550.4206,882.6536,550.523,883.1252,549.1041,884.0451,547.9841,885.0198,546.9005,885.6762,545.6048,886.5,544.4206,886.5189,544.4332,885.6911,543.2147,884.9495,542.0536,884.1663,540.8648,883.4624,539.7289,882.5,538.4206" style="stroke:#A80036;stroke-width:1.0;"/><!--MD5=[d3f35737b7ef3f2cb274c91b895397db]
link player to moveN--><path d="M247.5,194.7906 L247.7802,194.7906 L246.9476,204.469 L247.7577,214.1473 L248.0329,223.8256 L246.5488,233.504 L247.3964,243.1823 L247.5,252.8606 " fill="none" style="stroke:#A80036;stroke-width:1.0;stroke-dasharray:7.0,7.0;"/><polygon fill="#A80036" points="247.5,257.8806,247.564,257.9091,248.1738,256.0245,249.1589,254.3068,250.0217,252.5347,250.4827,250.584,251.5,248.8806,251.4817,248.8623,250.5995,249.5801,249.8096,250.3902,249.0839,251.2646,248.137,251.9177,247.5,252.8806,247.6305,253.0111,246.5514,251.9321,245.8534,251.234,245.2018,250.5824,244.2798,249.6604,243.5,248.8806,243.5208,248.8899,244.2903,250.6763,245.1544,252.5048,245.9728,254.313,246.8784,256.1599,247.5,257.8806" style="stroke:#A80036;stroke-width:1.0;"/><!--MD5=[5999fbd41c24b863a7d27bbc4190e31a]
link moveN to card1--><path d="M206.78,293.3006 L206.8175,293.3862 L202.9625,294.7728 L199.3273,296.661 L195.6205,298.3858 L191.6783,299.5736 L188.062,301.5048 L188.0476,301.4734 L183.9496,303.1873 L179.9243,305.0594 L175.9495,307.0415 L171.8005,308.6445 L167.8956,310.7784 L168.0021,311.0003 L165.7105,311.5165 L163.7299,312.6803 L161.7871,313.9232 L159.6237,314.7063 L157.5763,315.7313 L157.5898,315.7584 L155.5074,316.7422 L153.4864,317.8496 L151.4357,318.8974 L149.4416,320.059 L147.2633,320.8494 L147.3999,321.1145 L145.3648,322.1676 L143.2416,323.0498 L141.2474,324.1822 L139.2592,325.3264 L137.0794,326.0989 L136.9275,325.8166 L135.236,327.4338 L133.0442,328.1215 L131.2327,329.5158 L129.0296,330.1826 L127.1475,331.4456 L127.1325,331.4191 L125.3984,332.8145 L123.314,333.5908 L121.4363,334.7324 L119.5759,335.9046 L117.5904,336.8557 L117.6856,337.0143 L115.7775,337.942 L114.0322,339.1408 L112.0237,339.9011 L110.4078,341.3155 L108.5308,342.295 L108.6666,342.4973 L105.4139,344.6251 L102.2286,346.8533 L98.73,348.6149 L95.4611,350.7186 L92.3956,353.1253 L92.219,352.913 L89.8447,355.213 L87.2713,357.2739 L84.9866,359.6817 L82.2091,361.497 L79.7245,363.6646 L79.6069,363.5676 L78.1579,365.7243 L76.206,367.4665 L74.6118,369.5034 L73.3675,371.8289 L71.5,373.6406 L71.6757,373.7219 L70.6096,376.3439 L68.9968,378.7131 L68.0686,381.3989 L66.9913,384.0158 L65.5664,386.4719 L65.363,386.42 L64.8288,389.1908 L64.228,391.9446 L63.7581,394.7318 L62.7792,397.3892 L62.0847,400.1191 L62.2893,400.139 L61.5644,402.9228 L61.2345,405.7451 L61.4815,408.6235 L60.6663,411.3985 L60.7081,414.257 L60.9342,414.263 L60.8763,417.1202 L60.7418,419.9753 L60.7801,422.835 L61.2174,425.7053 L61.09,428.5606 L60.958,428.5439 L61.7097,431.4226 L61.5638,434.1874 L62.4385,437.0817 L62.7386,439.9031 L62.8838,442.7049 L62.9904,442.7272 L63.4761,445.4411 L64.3435,448.235 L64.8661,450.9566 L65.2446,453.6481 L65.7428,456.3647 L65.8576,456.3967 L66.4026,458.9192 L67.4806,461.5902 L67.9557,464.0933 L68.6788,466.6655 L69.3204,469.215 L69.0642,469.1286 L69.9397,471.5006 L71.1238,473.9766 L71.8712,476.3054 L72.462,478.5814 L73.27,480.9306 " fill="none" style="stroke:#A80036;stroke-width:1.0;"/><polygon fill="#A80036" points="75.13,485.8806,75.1999,485.8846,75.1039,483.9062,75.4179,481.9511,75.5984,479.9884,75.3397,478.0007,75.689,476.0476,75.6653,476.037,75.094,477.0204,74.6416,478.0575,74.272,479.1319,73.6172,480.0777,73.3619,481.2037,73.4378,481.3719,72.2443,480.5468,71.2724,480.2128,70.3275,479.9387,69.2253,479.316,68.2058,478.8766,68.222,478.8926,69.5831,480.2699,71.0178,481.7201,72.417,483.1351,73.884,484.6171,75.13,485.8806" style="stroke:#A80036;stroke-width:1.0;"/><!--MD5=[e44833184f2b8ab9cba424b04e6a0ba6]
link moveN to tableauPile7--><path d="M263.98,293.2606 L264.179,293.4579 L270.4631,299.8072 L277.9139,307.313 L284.9848,314.4422 L290.8063,320.3328 L298.2837,327.8649 L304.8289,334.473 L311.745,341.4488 L318.9191,348.6803 L325.2044,355.0307 L333.2588,363.1349 L339.61,369.5506 " fill="none" style="stroke:#A80036;stroke-width:1.0;"/><polygon fill="#A80036" points="343.37,373.3406,343.4354,373.3656,342.5376,371.4514,342.0234,369.6838,341.3843,367.8685,340.3343,365.8961,339.853,364.1411,339.8271,364.1411,339.7086,365.2722,339.7206,366.4036,339.8235,367.5352,339.6134,368.6661,339.8416,369.798,339.842,369.9825,338.7098,369.5856,337.5787,369.7275,336.4478,369.9351,335.3161,369.7602,334.1848,369.7865,334.193,369.8077,336.018,370.4874,337.8803,371.2637,339.7247,371.9933,341.6034,372.8119,343.37,373.3406" style="stroke:#A80036;stroke-width:1.0;"/><text fill="#000000" font-family="sans-serif" font-size="13" lengthAdjust="spacing" textLength="31" x="312.5" y="340.1357">origin</text><!--MD5=[323df5ccb9bb10ec2d1bf80c78ad63a9]
link moveN to diamondsFoundation--><path d="M221.18,293.3006 L221.2396,293.3726 L219.4342,294.5069 L217.9781,296.063 L216.4082,297.4818 L214.4644,298.4489 L213.0383,300.0413 L213.0141,300.0166 L211.3353,301.4437 L209.7782,302.9952 L208.3059,304.6332 L206.5417,305.9732 L205.1862,307.7306 L205.3765,307.8867 L203.5647,309.2648 L202.3082,311.0986 L201.1196,312.988 L199.5367,314.5539 L198.1611,316.29 L198.187,316.3057 L197.0167,318.1528 L195.9645,320.0713 L194.8554,321.9554 L193.8549,323.9053 L192.5,325.6406 L192.7786,325.747 L191.9922,327.8162 L191.0262,329.8168 L190.3231,331.9179 L189.6324,334.0236 L188.5511,335.9802 L188.2377,335.9131 L188.377,338.2351 L187.4843,340.3363 L187.3762,342.6053 L186.4601,344.7015 L186.2063,346.9394 L186.1759,346.9364 L186.3207,349.1687 L185.7575,351.3322 L185.6121,353.5363 L185.5017,355.7438 L185.1383,357.9267 L185.3233,357.9288 L185.1129,360.0115 L185.2186,362.0977 L184.8129,364.1782 L185.17,366.2673 L185.02,368.3506 " fill="none" style="stroke:#A80036;stroke-width:1.0;"/><polygon fill="#A80036" points="185.23,373.4506,185.2952,373.4763,185.8237,371.5674,186.7343,369.809,187.5205,368.0017,187.8975,366.033,188.841,364.2876,188.8219,364.2701,187.9712,365.025,187.2168,365.8682,186.5292,366.7728,185.6111,367.4659,185.0159,368.4552,185.1407,368.5912,184.0403,367.5354,183.3043,366.8766,182.6127,366.2663,181.6625,365.3741,180.8483,364.6302,180.8687,364.6403,181.7151,366.3895,182.6543,368.1848,183.5487,369.9579,184.5285,371.7734,185.23,373.4506" style="stroke:#A80036;stroke-width:1.0;"/><text fill="#000000" font-family="sans-serif" font-size="13" lengthAdjust="spacing" textLength="63" x="193.5" y="340.1357">destination</text><!--MD5=[24e6dc35b4955a429cc5ed54926b37b3]
@startuml klondike- -final-state
skinparam handwritten true

title Klondike. Initial State

object "Klondike:myKlondike" as myKlondike{
    nGame = 1
    status = 1
}

object "Goal:goal" as goal {
    status = true
}

object "Player:setilloPlayer" as player {
    id = 1
    name = 'Setillo'
}

object "Board:klondikeBoard" as board {

}


object "Stock:stockPile" as stockPile
object "Waste:wastePile" as wastePile

object stockPile {
    nCards = 0
}
object wastePile {
    nCards = 0
}


object "Foundation:diamondsFoundation" as diamondsFoundation {
    nCards = 13
}
object "Foundation:heartsFoundation" as heartsFoundation {
    nCards = 13
}

object "Foundation:spacesFoundation" as spacesFoundation {
    nCards = 13
}

object "Foundation:clubsFoundation" as clubsFoundation {
    nCards = 13
}

object "Card:card1" as card1 {  
    rank  = King
    faceUp = true
}

object "Card:card23" as card23 {
        rank  = Ace
        faceUp = true
}

object "Card:card24" as card24 {
        rank = King
        faceUp = true
}

object "Card:card25" as card25 {
        rank = King    
        faceUp = true
}

object "Card:card30" as card30 {  
    rank  = King
    faceUp = true
}

note bottom of tableauPile7
    7 total tableau piles
    Last card face up in each pile
    0, 1, 2, 3, 4, 5 & 6 face down cards in each pile, 
    repectively, from 1 to 7 pile
end note

note bottom of clubsFoundation
    4 total foundations piles
    with all cards
end note


object tableauPile1 {
    nCards = 0
}
object tableauPile7 {
    nCards = 0
}

object "Diamonds:diamondsSuite" as diamond {
    color = red
}
object "Hearst:heartsSuite" as hearts {
    color = red
}
object "Clubs:clubsSuite" as clubs {
    color = black
}

object "Spaces:spacesSuite" as spaces{
    color = black
}

object "Move:moveN" as moveN {
 
} 

myKlondike *- -> player
myKlondike *- -> goal
myKlondike *- -> board

player - -> goal

board *- -> stockPile
board *- -> wastePile
board *- -> clubsFoundation
board *- -> diamondsFoundation
board *- -> heartsFoundation
board *- -> spacesFoundation
board *- -> tableauPile1
board *- -> tableauPile7

diamondsFoundation o- -> card1
spacesFoundation o- -> card30
heartsFoundation o- -> card23
clubsFoundation o- -> card24

heartsFoundation o- -> card25

card1  *- -> diamond
card23 *- -> hearts
card25 *- -> hearts
card24 *- -> clubs
card30 *- -> spaces

player ..> moveN
moveN - -> card1
moveN - -> tableauPile7 : origin
moveN - -> diamondsFoundation : destination
@enduml

PlantUML version 1.2022.0(Tue Jan 11 17:16:42 CET 2022)
(GPL source distribution)
Java Runtime: Java(TM) SE Runtime Environment
JVM: Java HotSpot(TM) 64-Bit Server VM
Default Encoding: Cp1252
Language: es
Country: ES
--></g></svg>