<?xml version="1.0" encoding="UTF-8" standalone="no"?><svg xmlns="http://www.w3.org/2000/svg" xmlns:xlink="http://www.w3.org/1999/xlink" contentScriptType="application/ecmascript" contentStyleType="text/css" height="564px" preserveAspectRatio="none" style="width:1169px;height:564px;background:#FFFFFF;" version="1.1" viewBox="0 0 1169 564" width="1169px" zoomAndPan="magnify"><defs><filter height="300%" id="f1qa24g7mge92i" width="300%" x="-1" y="-1"><feGaussianBlur result="blurOut" stdDeviation="2.0"/><feColorMatrix in="blurOut" result="blurOut2" type="matrix" values="0 0 0 0 0 0 0 0 0 0 0 0 0 0 0 0 0 0 .4 0"/><feOffset dx="4.0" dy="4.0" in="blurOut2" result="blurOut3"/><feBlend in="SourceGraphic" in2="blurOut3" mode="normal"/></filter></defs><g><text fill="#000000" font-family="sans-serif" font-size="18" lengthAdjust="spacing" textLength="167" x="491.25" y="18.6855">Klondike. Initial State</text><text fill="#000000" font-family="sans-serif" font-size="18" lengthAdjust="spacing" textLength="0" x="579.75" y="41.3262"/><!--MD5=[5c487f3734c31763e227d8cc19c73cdf]
entity ##40--><polygon fill="#FEFECE" filter="url(#f1qa24g7mge92i)" points="113.5,52.2813,113.5,52.4914,123.4231,51.8669,133.3462,52.4745,143.2692,52.6809,153.1923,51.5679,163.1154,52.2035,173.0385,51.8548,182.9615,51.8978,192.8846,52.2131,202.8077,51.5899,212.7308,52.8349,222.6538,51.651,232.5769,52.0835,242.5,52.2813,242.9319,52.2813,242.4142,62.7313,242.5682,73.1813,242.4681,83.6313,242.6785,94.0813,242.5,104.5313,242.5,104.7704,232.5769,105.1169,222.6538,105.2023,212.7308,105.2105,202.8077,104.7859,192.8846,104.9948,182.9615,105.2335,173.0385,103.8101,163.1154,105.2098,153.1923,104.2347,143.2692,105.0651,133.3462,104.0362,123.4231,104.4628,113.5,104.5313,114.2416,104.5313,113.4513,94.0813,113.6053,83.6313,113.8386,73.1813,113.9162,62.7313,113.5,52.2813" style="stroke:#A80036;stroke-width:1.5;"/><text fill="#000000" font-family="sans-serif" font-size="12" lengthAdjust="spacing" textLength="115" x="120.5" y="66.7383">Klondike:myKlondike</text><path d="M114.5,71.375 L114.5,71.6552 L124.2692,70.8226 L134.0385,71.6327 L143.8077,71.9079 L153.5769,70.4238 L163.3462,71.2714 L173.1154,70.8063 L182.8846,70.8637 L192.6538,71.2841 L202.4231,70.4532 L212.1923,72.1132 L221.9615,70.5346 L231.7308,71.1113 L241.5,71.375 " fill="#FEFECE" style="stroke:#A80036;stroke-width:1.5;"/><text fill="#000000" font-family="sans-serif" font-size="10" lengthAdjust="spacing" textLength="53" x="119.5" y="85.7559">nGame = 1</text><text fill="#000000" font-family="sans-serif" font-size="10" lengthAdjust="spacing" textLength="44" x="119.5" y="98.334">status = 1</text><polygon fill="#FEFECE" filter="url(#f1qa24g7mge92i)" points="30,299.2813,30,299.4914,40.2857,298.8669,50.5714,299.4745,60.8571,299.6809,71.1429,298.5679,81.4286,299.2035,91.7143,298.8548,102,299.2813,101.8722,299.2813,101.9773,307.2156,101.7695,315.15,102.1845,323.0844,101.7899,331.0188,102,338.9531,102,338.7554,91.7143,339.3851,81.4286,338.8673,71.1429,339.0214,60.8571,338.9212,50.5714,339.1317,40.2857,339.1923,30,338.9531,30.1952,338.9531,30.2237,331.0188,30.2264,323.0844,30.0849,315.15,30.1545,307.2156,30,299.2813" style="stroke:#A80036;stroke-width:1.5;"/><text fill="#000000" font-family="sans-serif" font-size="12" lengthAdjust="spacing" textLength="53" x="39.5" y="313.7383">Goal:goal</text><path d="M31,318.375 L31,318.6552 L41,317.8226 L51,318.6327 L61,318.9079 L71,317.4238 L81,318.2714 L91,317.8063 L101,318.375 " fill="#FEFECE" style="stroke:#A80036;stroke-width:1.5;"/><text fill="#000000" font-family="sans-serif" font-size="10" lengthAdjust="spacing" textLength="60" x="36" y="332.7559">status = false</text><polygon fill="#FEFECE" filter="url(#f1qa24g7mge92i)" points="7,175.7813,7,175.9914,16.8333,175.3669,26.6667,175.9745,36.5,176.1809,46.3333,175.0679,56.1667,175.7035,66,175.3548,75.8333,175.3978,85.6667,175.7131,95.5,175.0899,105.3333,176.3349,115.1667,175.151,125,175.7813,124.8022,175.7813,125.4319,186.2313,124.9142,196.6813,125.0682,207.1313,124.9681,217.5813,125,228.0313,125,228.2098,115.1667,228.2704,105.3333,228.6169,95.5,228.7023,85.6667,228.7105,75.8333,228.2859,66,228.4948,56.1667,228.7335,46.3333,227.3101,36.5,228.7098,26.6667,227.7347,16.8333,228.5651,7,228.0313,6.505,228.0313,6.9315,217.5813,7.7416,207.1313,6.9513,196.6813,7.1053,186.2313,7,175.7813" style="stroke:#A80036;stroke-width:1.5;"/><text fill="#000000" font-family="sans-serif" font-size="12" lengthAdjust="spacing" textLength="104" x="14" y="190.2383">Player:setilloPlayer</text><path d="M8,194.875 L8,195.1552 L17.6667,194.3226 L27.3333,195.1327 L37,195.4079 L46.6667,193.9238 L56.3333,194.7714 L66,194.3063 L75.6667,194.3637 L85.3333,194.7841 L95,193.9532 L104.6667,195.6132 L114.3333,194.0346 L124,194.875 " fill="#FEFECE" style="stroke:#A80036;stroke-width:1.5;"/><text fill="#000000" font-family="sans-serif" font-size="10" lengthAdjust="spacing" textLength="27" x="13" y="209.2559">id = 1</text><text fill="#000000" font-family="sans-serif" font-size="10" lengthAdjust="spacing" textLength="74" x="13" y="221.834">name = 'Setillo'</text><polygon fill="#FEFECE" filter="url(#f1qa24g7mge92i)" points="508.5,184.2813,508.5,184.4914,518.4231,183.8669,528.3462,184.4745,538.2692,184.6809,548.1923,183.5679,558.1154,184.2035,568.0385,183.8548,577.9615,183.8978,587.8846,184.2131,597.8077,183.5899,607.7308,184.8349,617.6538,183.651,627.5769,184.0835,637.5,184.2813,637.644,184.2813,637.4714,191.3,637.5227,198.3188,637.4894,205.3375,637.5595,212.3563,637.5,219.375,637.5,219.6141,627.5769,219.9607,617.6538,220.0461,607.7308,220.0543,597.8077,219.6296,587.8846,219.8386,577.9615,220.0772,568.0385,218.6538,558.1154,220.0535,548.1923,219.0785,538.2692,219.9088,528.3462,218.88,518.4231,219.3065,508.5,219.375,508.7472,219.375,508.4838,212.3563,508.5351,205.3375,508.6129,198.3188,508.6387,191.3,508.5,184.2813" style="stroke:#A80036;stroke-width:1.5;"/><text fill="#000000" font-family="sans-serif" font-size="12" lengthAdjust="spacing" textLength="115" x="515.5" y="198.7383">Board:klondikeBoard</text><path d="M509.5,203.375 L509.5,203.6552 L519.2692,202.8226 L529.0385,203.6327 L538.8077,203.9079 L548.5769,202.4238 L558.3462,203.2714 L568.1154,202.8063 L577.8846,202.8637 L587.6538,203.2841 L597.4231,202.4532 L607.1923,204.1132 L616.9615,202.5346 L626.7308,203.1113 L636.5,203.375 " fill="#FEFECE" style="stroke:#A80036;stroke-width:1.5;"/><polygon fill="#FEFECE" filter="url(#f1qa24g7mge92i)" points="693.5,299.2813,693.5,299.4914,703.2,298.8669,712.9,299.4745,722.6,299.6809,732.3,298.5679,742,299.2035,751.7,298.8548,761.4,298.8978,771.1,299.2131,780.8,298.5899,790.5,299.2813,790.6845,299.2813,790.2899,307.2156,790.4341,315.15,790.644,323.0844,790.4714,331.0188,790.5,338.9531,790.5,339.0214,780.8,338.9212,771.1,339.1317,761.4,339.1923,751.7,339.5388,742,339.6242,732.3,339.6324,722.6,339.2078,712.9,339.4167,703.2,339.6554,693.5,338.9531,693.2596,338.9531,693.7262,331.0188,693.4012,323.0844,693.6779,315.15,693.335,307.2156,693.5,299.2813" style="stroke:#A80036;stroke-width:1.5;"/><text fill="#000000" font-family="sans-serif" font-size="12" lengthAdjust="spacing" textLength="83" x="700.5" y="313.7383">Stock:stockPile</text><path d="M694.5,318.375 L694.5,318.6552 L704,317.8226 L713.5,318.6327 L723,318.9079 L732.5,317.4238 L742,318.2714 L751.5,317.8063 L761,317.8637 L770.5,318.2841 L780,317.4532 L789.5,318.375 " fill="#FEFECE" style="stroke:#A80036;stroke-width:1.5;"/><text fill="#000000" font-family="sans-serif" font-size="10" lengthAdjust="spacing" textLength="56" x="699.5" y="332.7559">nCards = 23</text><polygon fill="#FEFECE" filter="url(#f1qa24g7mge92i)" points="826,299.2813,826,299.4914,835.6364,298.8669,845.2727,299.4745,854.9091,299.6809,864.5455,298.5679,874.1818,299.2035,883.8182,298.8548,893.4545,298.8978,903.0909,299.2131,912.7273,298.5899,922.3636,299.8349,932,299.2813,931.7899,299.2813,931.9341,307.2156,932.144,315.15,931.9714,323.0844,932.0227,331.0188,932,338.9531,932,338.9212,922.3636,339.1317,912.7273,339.1923,903.0909,339.5388,893.4545,339.6242,883.8182,339.6324,874.1818,339.2078,864.5455,339.4167,854.9091,339.6554,845.2727,338.2319,835.6364,339.6316,826,338.9531,825.9012,338.9531,826.1779,331.0188,825.835,323.0844,825.9772,315.15,826.2472,307.2156,826,299.2813" style="stroke:#A80036;stroke-width:1.5;"/><text fill="#000000" font-family="sans-serif" font-size="12" lengthAdjust="spacing" textLength="92" x="833" y="313.7383">Waste:wastePile</text><path d="M827,318.375 L827,318.6552 L837.4,317.8226 L847.8,318.6327 L858.2,318.9079 L868.6,317.4238 L879,318.2714 L889.4,317.8063 L899.8,317.8637 L910.2,318.2841 L920.6,317.4532 L931,318.375 " fill="#FEFECE" style="stroke:#A80036;stroke-width:1.5;"/><text fill="#000000" font-family="sans-serif" font-size="10" lengthAdjust="spacing" textLength="50" x="832" y="332.7559">nCards = 0</text><polygon fill="#FEFECE" filter="url(#f1qa24g7mge92i)" points="255.5,299.2813,255.5,299.4914,265.35,298.8669,275.2,299.4745,285.05,299.6809,294.9,298.5679,304.75,299.2035,314.6,298.8548,324.45,298.8978,334.3,299.2131,344.15,298.5899,354,299.8349,363.85,298.651,373.7,299.0835,383.55,299.7132,393.4,299.1955,403.25,299.3495,413.1,299.2493,422.95,299.4598,432.8,299.5204,442.65,299.8669,452.5,299.2813,452.7237,299.2813,452.7264,307.2156,452.5849,315.15,452.6545,323.0844,452.7341,331.0188,452.5,338.9531,452.5,338.2319,442.65,339.6316,432.8,338.6566,422.95,339.4869,413.1,338.4581,403.25,338.8846,393.4,339.6947,383.55,338.9044,373.7,339.0584,363.85,339.2918,354,339.3694,344.15,338.9492,334.3,339.2403,324.45,338.3807,314.6,339.2375,304.75,339.5013,294.9,339.3977,285.05,339.5661,275.2,338.47,265.35,338.3009,255.5,338.9531,255.2929,338.9531,255.4804,331.0188,255.4345,323.0844,255.7271,315.15,255.4418,307.2156,255.5,299.2813" style="stroke:#A80036;stroke-width:1.5;"/><text fill="#000000" font-family="sans-serif" font-size="12" lengthAdjust="spacing" textLength="183" x="262.5" y="313.7383">Foundation:diamondsFoundation</text><path d="M256.5,318.375 L256.5,318.6552 L266.25,317.8226 L276,318.6327 L285.75,318.9079 L295.5,317.4238 L305.25,318.2714 L315,317.8063 L324.75,317.8637 L334.5,318.2841 L344.25,317.4532 L354,319.1132 L363.75,317.5346 L373.5,318.1113 L383.25,318.9509 L393,318.2606 L402.75,318.466 L412.5,318.3324 L422.25,318.613 L432,318.6938 L441.75,319.1559 L451.5,318.375 " fill="#FEFECE" style="stroke:#A80036;stroke-width:1.5;"/><text fill="#000000" font-family="sans-serif" font-size="10" lengthAdjust="spacing" textLength="50" x="261.5" y="332.7559">nCards = 0</text><polygon fill="#FEFECE" filter="url(#f1qa24g7mge92i)" points="487.5,299.2813,487.5,299.4914,497.5588,298.8669,507.6176,299.4745,517.6765,299.6809,527.7353,298.5679,537.7941,299.2035,547.8529,298.8548,557.9118,298.8978,567.9706,299.2131,578.0294,298.5899,588.0882,299.8349,598.1471,298.651,608.2059,299.0835,618.2647,299.7132,628.3235,299.1955,638.3824,299.3495,648.4412,299.2493,658.5,299.2813,658.5595,299.2813,658.5797,307.2156,658.6952,315.15,658.7237,323.0844,658.7264,331.0188,658.5,338.9531,658.5,339.2078,648.4412,339.4167,638.3824,339.6554,628.3235,338.2319,618.2647,339.6316,608.2059,338.6566,598.1471,339.4869,588.0882,338.4581,578.0294,338.8846,567.9706,339.6947,557.9118,338.9044,547.8529,339.0584,537.7941,339.2918,527.7353,339.3694,517.6765,338.9492,507.6176,339.2403,497.5588,338.3807,487.5,338.9531,487.5948,338.9531,487.6827,331.0188,487.6482,323.0844,487.7043,315.15,487.339,307.2156,487.5,299.2813" style="stroke:#A80036;stroke-width:1.5;"/><text fill="#000000" font-family="sans-serif" font-size="12" lengthAdjust="spacing" textLength="157" x="494.5" y="313.7383">Foundation:clubsFoundation</text><path d="M488.5,318.375 L488.5,318.6552 L498.4412,317.8226 L508.3824,318.6327 L518.3235,318.9079 L528.2647,317.4238 L538.2059,318.2714 L548.1471,317.8063 L558.0882,317.8637 L568.0294,318.2841 L577.9706,317.4532 L587.9118,319.1132 L597.8529,317.5346 L607.7941,318.1113 L617.7353,318.9509 L627.6765,318.2606 L637.6176,318.466 L647.5588,318.3324 L657.5,318.375 " fill="#FEFECE" style="stroke:#A80036;stroke-width:1.5;"/><text fill="#000000" font-family="sans-serif" font-size="10" lengthAdjust="spacing" textLength="50" x="493.5" y="332.7559">nCards = 0</text><polygon fill="#FEFECE" filter="url(#f1qa24g7mge92i)" points="736,399.2813,736,399.4914,746,398.8669,756,399.4745,766,399.6809,776,398.5679,786,399.2035,796,398.8548,806,398.8978,816,399.2813,815.9318,399.2813,815.3086,409.7313,816.5536,420.1813,815.3697,430.6313,815.8022,441.0813,816,451.5313,816,451.9632,806,451.4455,796,451.5995,786,451.4993,776,451.7098,766,451.7704,756,452.1169,746,452.2023,736,451.5313,736.6793,451.5313,736.2546,441.0813,736.4636,430.6313,736.7022,420.1813,735.2788,409.7313,736,399.2813" style="stroke:#A80036;stroke-width:1.5;"/><text fill="#000000" font-family="sans-serif" font-size="12" lengthAdjust="spacing" textLength="61" x="745.5" y="413.7383">Card:card1</text><path d="M737,418.375 L737,418.6552 L746.75,417.8226 L756.5,418.6327 L766.25,418.9079 L776,417.4238 L785.75,418.2714 L795.5,417.8063 L805.25,417.8637 L815,418.375 " fill="#FEFECE" style="stroke:#A80036;stroke-width:1.5;"/><text fill="#000000" font-family="sans-serif" font-size="10" lengthAdjust="spacing" textLength="56" x="742" y="432.7559">rank  = Nine</text><text fill="#000000" font-family="sans-serif" font-size="10" lengthAdjust="spacing" textLength="68" x="742" y="445.334">faceUp = false</text><polygon fill="#FEFECE" filter="url(#f1qa24g7mge92i)" points="851,399.2813,851,399.4914,861.25,398.8669,871.5,399.4745,881.75,399.6809,892,398.5679,902.25,399.2035,912.5,398.8548,922.75,398.8978,933,399.2813,932.9318,399.2813,932.3086,409.7313,933.5536,420.1813,932.3697,430.6313,932.8022,441.0813,933,451.5313,933,451.9632,922.75,451.4455,912.5,451.5995,902.25,451.4993,892,451.7098,881.75,451.7704,871.5,452.1169,861.25,452.2023,851,451.5313,851.6793,451.5313,851.2546,441.0813,851.4636,430.6313,851.7022,420.1813,850.2788,409.7313,851,399.2813" style="stroke:#A80036;stroke-width:1.5;"/><text fill="#000000" font-family="sans-serif" font-size="12" lengthAdjust="spacing" textLength="68" x="858" y="413.7383">Card:card23</text><path d="M852,418.375 L852,418.6552 L862,417.8226 L872,418.6327 L882,418.9079 L892,417.4238 L902,418.2714 L912,417.8063 L922,417.8637 L932,418.375 " fill="#FEFECE" style="stroke:#A80036;stroke-width:1.5;"/><text fill="#000000" font-family="sans-serif" font-size="10" lengthAdjust="spacing" textLength="53" x="857" y="432.7559">rank  = Ace</text><text fill="#000000" font-family="sans-serif" font-size="10" lengthAdjust="spacing" textLength="68" x="857" y="445.334">faceUp = false</text><polygon fill="#FEFECE" filter="url(#f1qa24g7mge92i)" points="138,399.2813,138,399.4914,148.25,398.8669,158.5,399.4745,168.75,399.6809,179,398.5679,189.25,399.2035,199.5,398.8548,209.75,398.8978,220,399.2813,219.9318,399.2813,219.3086,409.7313,220.5536,420.1813,219.3697,430.6313,219.8022,441.0813,220,451.5313,220,451.9632,209.75,451.4455,199.5,451.5995,189.25,451.4993,179,451.7098,168.75,451.7704,158.5,452.1169,148.25,452.2023,138,451.5313,138.6793,451.5313,138.2546,441.0813,138.4636,430.6313,138.7022,420.1813,137.2788,409.7313,138,399.2813" style="stroke:#A80036;stroke-width:1.5;"/><text fill="#000000" font-family="sans-serif" font-size="12" lengthAdjust="spacing" textLength="68" x="145" y="413.7383">Card:card24</text><path d="M139,418.375 L139,418.6552 L149,417.8226 L159,418.6327 L169,418.9079 L179,417.4238 L189,418.2714 L199,417.8063 L209,417.8637 L219,418.375 " fill="#FEFECE" style="stroke:#A80036;stroke-width:1.5;"/><text fill="#000000" font-family="sans-serif" font-size="10" lengthAdjust="spacing" textLength="53" x="144" y="432.7559">rank = King</text><text fill="#000000" font-family="sans-serif" font-size="10" lengthAdjust="spacing" textLength="64" x="144" y="445.334">faceUp = true</text><polygon fill="#FEFECE" filter="url(#f1qa24g7mge92i)" points="968,399.2813,968,399.4914,978.25,398.8669,988.5,399.4745,998.75,399.6809,1009,398.5679,1019.25,399.2035,1029.5,398.8548,1039.75,398.8978,1050,399.2813,1049.9318,399.2813,1049.3086,409.7313,1050.5536,420.1813,1049.3697,430.6313,1049.8022,441.0813,1050,451.5313,1050,451.9632,1039.75,451.4455,1029.5,451.5995,1019.25,451.4993,1009,451.7098,998.75,451.7704,988.5,452.1169,978.25,452.2023,968,451.5313,968.6793,451.5313,968.2546,441.0813,968.4636,430.6313,968.7022,420.1813,967.2788,409.7313,968,399.2813" style="stroke:#A80036;stroke-width:1.5;"/><text fill="#000000" font-family="sans-serif" font-size="12" lengthAdjust="spacing" textLength="68" x="975" y="413.7383">Card:card25</text><path d="M969,418.375 L969,418.6552 L979,417.8226 L989,418.6327 L999,418.9079 L1009,417.4238 L1019,418.2714 L1029,417.8063 L1039,417.8637 L1049,418.375 " fill="#FEFECE" style="stroke:#A80036;stroke-width:1.5;"/><text fill="#000000" font-family="sans-serif" font-size="10" lengthAdjust="spacing" textLength="51" x="974" y="432.7559">rank = Two</text><text fill="#000000" font-family="sans-serif" font-size="10" lengthAdjust="spacing" textLength="64" x="974" y="445.334">faceUp = true</text><polygon fill="#FEFECE" filter="url(#f1qa24g7mge92i)" points="619,399.2813,619,399.4914,629.25,398.8669,639.5,399.4745,649.75,399.6809,660,398.5679,670.25,399.2035,680.5,398.8548,690.75,398.8978,701,399.2813,700.9318,399.2813,700.3086,409.7313,701.5536,420.1813,700.3697,430.6313,700.8022,441.0813,701,451.5313,701,451.9632,690.75,451.4455,680.5,451.5995,670.25,451.4993,660,451.7098,649.75,451.7704,639.5,452.1169,629.25,452.2023,619,451.5313,619.6793,451.5313,619.2546,441.0813,619.4636,430.6313,619.7022,420.1813,618.2788,409.7313,619,399.2813" style="stroke:#A80036;stroke-width:1.5;"/><text fill="#000000" font-family="sans-serif" font-size="12" lengthAdjust="spacing" textLength="68" x="626" y="413.7383">Card:card30</text><path d="M620,418.375 L620,418.6552 L630,417.8226 L640,418.6327 L650,418.9079 L660,417.4238 L670,418.2714 L680,417.8063 L690,417.8637 L700,418.375 " fill="#FEFECE" style="stroke:#A80036;stroke-width:1.5;"/><text fill="#000000" font-family="sans-serif" font-size="10" lengthAdjust="spacing" textLength="55" x="625" y="432.7559">rank  = Four</text><text fill="#000000" font-family="sans-serif" font-size="10" lengthAdjust="spacing" textLength="68" x="625" y="445.334">faceUp = false</text><polygon fill="#FEFECE" filter="url(#f1qa24g7mge92i)" points="967.5,299.2813,967.5,299.4914,977.875,298.8669,988.25,299.4745,998.625,299.6809,1009,298.5679,1019.375,299.2035,1029.75,298.8548,1040.125,298.8978,1050.5,299.2813,1050.4773,299.2813,1050.2695,307.2156,1050.6845,315.15,1050.2899,323.0844,1050.4341,331.0188,1050.5,338.9531,1050.5,339.3851,1040.125,338.8673,1029.75,339.0214,1019.375,338.9212,1009,339.1317,998.625,339.1923,988.25,339.5388,977.875,339.6242,967.5,338.9531,967.7264,338.9531,967.5849,331.0188,967.6545,323.0844,967.7341,315.15,967.2596,307.2156,967.5,299.2813" style="stroke:#A80036;stroke-width:1.5;"/><text fill="#000000" font-family="sans-serif" font-size="12" lengthAdjust="spacing" textLength="69" x="974.5" y="313.7383">tableauPile7</text><path d="M968.5,318.375 L968.5,318.6552 L978.625,317.8226 L988.75,318.6327 L998.875,318.9079 L1009,317.4238 L1019.125,318.2714 L1029.25,317.8063 L1039.375,317.8637 L1049.5,318.375 " fill="#FEFECE" style="stroke:#A80036;stroke-width:1.5;"/><text fill="#000000" font-family="sans-serif" font-size="10" lengthAdjust="spacing" textLength="50" x="973.5" y="332.7559">nCards = 7</text><path d="M857.5,164.2813 L857.5,239.6875 A0,0 0 0 0 857.5,239.6875 L1005,239.6875 L1009,299.0813 L1013,239.6875 L1160.5,239.6875 A0,0 0 0 0 1160.5,239.6875 L1160.5,174.2813 L1150.5,164.2813 L857.5,164.2813 A0,0 0 0 0 857.5,164.2813 " fill="#FBFB77" filter="url(#f1qa24g7mge92i)" style="stroke:#A80036;stroke-width:1.0;"/><path d="M1150.5,164.2813 L1150.6868,164.2813 L1150.1317,166.2813 L1150.6718,168.2813 L1150.8553,170.2813 L1149.8659,172.2813 L1150.5,174.2813 L1150.5,174.2122 L1152.5,173.9021 L1154.5,173.9404 L1156.5,174.2207 L1158.5,173.6667 L1160.5,174.2813 L1160.848,174.6292 L1158.1038,171.8851 L1156.3757,170.1569 L1154.7715,168.5527 L1152.4461,166.2273 L1150.5,164.2813 " fill="#FBFB77" style="stroke:#A80036;stroke-width:1.0;"/><text fill="#000000" font-family="sans-serif" font-size="13" lengthAdjust="spacing" textLength="113" x="863.5" y="182.7764">7 total tableau piles</text><text fill="#000000" font-family="sans-serif" font-size="13" lengthAdjust="spacing" textLength="170" x="863.5" y="199.1279">Last card face up in each pile</text><text fill="#000000" font-family="sans-serif" font-size="13" lengthAdjust="spacing" textLength="278" x="863.5" y="215.4795">0, 1, 2, 3, 4, 5 &amp; 6 face down cards in each pile,</text><text fill="#000000" font-family="sans-serif" font-size="13" lengthAdjust="spacing" textLength="155" x="863.5" y="231.8311">repectively, from 1 to 7 pile</text><path d="M426,403.7813 L426,446.4844 A0,0 0 0 0 426,446.4844 L584,446.4844 A0,0 0 0 0 584,446.4844 L584,413.7813 L574,403.7813 L522.56,403.7813 L560.53,339.3613 L514.56,403.7813 L426,403.7813 A0,0 0 0 0 426,403.7813 " fill="#FBFB77" filter="url(#f1qa24g7mge92i)" style="stroke:#A80036;stroke-width:1.0;"/><path d="M574,403.7813 L574.1868,403.7813 L573.6317,405.7813 L574.1718,407.7813 L574.3553,409.7813 L573.3659,411.7813 L574,413.7813 L574,413.7122 L576,413.4021 L578,413.4404 L580,413.7207 L582,413.1667 L584,413.7813 L584.348,414.1292 L581.6038,411.3851 L579.8757,409.6569 L578.2715,408.0527 L575.9461,405.7273 L574,403.7813 " fill="#FBFB77" style="stroke:#A80036;stroke-width:1.0;"/><text fill="#000000" font-family="sans-serif" font-size="13" lengthAdjust="spacing" textLength="137" x="432" y="422.2764">4 total foundations piles</text><text fill="#000000" font-family="sans-serif" font-size="13" lengthAdjust="spacing" textLength="70" x="432" y="438.6279">with no card</text><polygon fill="#FEFECE" filter="url(#f1qa24g7mge92i)" points="137.5,299.2813,137.5,299.4914,147.875,298.8669,158.25,299.4745,168.625,299.6809,179,298.5679,189.375,299.2035,199.75,298.8548,210.125,298.8978,220.5,299.2813,220.4773,299.2813,220.2695,307.2156,220.6845,315.15,220.2899,323.0844,220.4341,331.0188,220.5,338.9531,220.5,339.3851,210.125,338.8673,199.75,339.0214,189.375,338.9212,179,339.1317,168.625,339.1923,158.25,339.5388,147.875,339.6242,137.5,338.9531,137.7264,338.9531,137.5849,331.0188,137.6545,323.0844,137.7341,315.15,137.2596,307.2156,137.5,299.2813" style="stroke:#A80036;stroke-width:1.5;"/><text fill="#000000" font-family="sans-serif" font-size="12" lengthAdjust="spacing" textLength="69" x="144.5" y="313.7383">tableauPile1</text><path d="M138.5,318.375 L138.5,318.6552 L148.625,317.8226 L158.75,318.6327 L168.875,318.9079 L179,317.4238 L189.125,318.2714 L199.25,317.8063 L209.375,317.8637 L219.5,318.375 " fill="#FEFECE" style="stroke:#A80036;stroke-width:1.5;"/><text fill="#000000" font-family="sans-serif" font-size="10" lengthAdjust="spacing" textLength="50" x="143.5" y="332.7559">nCards = 1</text><polygon fill="#FEFECE" filter="url(#f1qa24g7mge92i)" points="711.5,511.2813,711.5,511.4914,721.4375,510.8669,731.375,511.4745,741.3125,511.6809,751.25,510.5679,761.1875,511.2035,771.125,510.8548,781.0625,510.8978,791,511.2131,800.9375,510.5899,810.875,511.8349,820.8125,510.651,830.75,511.0835,840.6875,511.7132,850.625,511.1955,860.5625,511.3495,870.5,511.2813,870.4894,511.2813,870.5595,519.2156,870.5797,527.15,870.6952,535.0844,870.7237,543.0188,870.5,550.9531,870.5,551.6324,860.5625,551.2078,850.625,551.4167,840.6875,551.6554,830.75,550.2319,820.8125,551.6316,810.875,550.6566,800.9375,551.4869,791,550.4581,781.0625,550.8846,771.125,551.6947,761.1875,550.9044,751.25,551.0584,741.3125,551.2918,731.375,551.3694,721.4375,550.9492,711.5,550.9531,711.5957,550.9531,711.3092,543.0188,711.5948,535.0844,711.6827,527.15,711.6482,519.2156,711.5,511.2813" style="stroke:#A80036;stroke-width:1.5;"/><text fill="#000000" font-family="sans-serif" font-size="12" lengthAdjust="spacing" textLength="145" x="718.5" y="525.7383">Diamonds:diamondsSuite</text><path d="M712.5,530.375 L712.5,530.6552 L722.3125,529.8226 L732.125,530.6327 L741.9375,530.9079 L751.75,529.4238 L761.5625,530.2714 L771.375,529.8063 L781.1875,529.8637 L791,530.2841 L800.8125,529.4532 L810.625,531.1132 L820.4375,529.5346 L830.25,530.1113 L840.0625,530.9509 L849.875,530.2606 L859.6875,530.466 L869.5,530.375 " fill="#FEFECE" style="stroke:#A80036;stroke-width:1.5;"/><text fill="#000000" font-family="sans-serif" font-size="10" lengthAdjust="spacing" textLength="51" x="717.5" y="544.7559">color = red</text><polygon fill="#FEFECE" filter="url(#f1qa24g7mge92i)" points="935.5,511.2813,935.5,511.4914,945.25,510.8669,955,511.4745,964.75,511.6809,974.5,510.5679,984.25,511.2035,994,510.8548,1003.75,510.8978,1013.5,511.2131,1023.25,510.5899,1033,511.8349,1042.75,510.651,1052.5,511.2813,1052.4341,511.2813,1052.644,519.2156,1052.4714,527.15,1052.5227,535.0844,1052.4894,543.0188,1052.5,550.9531,1052.5,551.1317,1042.75,551.1923,1033,551.5388,1023.25,551.6242,1013.5,551.6324,1003.75,551.2078,994,551.4167,984.25,551.6554,974.5,550.2319,964.75,551.6316,955,550.6566,945.25,551.4869,935.5,550.9531,935.335,550.9531,935.4772,543.0188,935.7472,535.0844,935.4838,527.15,935.5351,519.2156,935.5,511.2813" style="stroke:#A80036;stroke-width:1.5;"/><text fill="#000000" font-family="sans-serif" font-size="12" lengthAdjust="spacing" textLength="103" x="942.5" y="525.7383">Hearst:heartsSuite</text><path d="M936.5,530.375 L936.5,530.6552 L946.0833,529.8226 L955.6667,530.6327 L965.25,530.9079 L974.8333,529.4238 L984.4167,530.2714 L994,529.8063 L1003.5833,529.8637 L1013.1667,530.2841 L1022.75,529.4532 L1032.3333,531.1132 L1041.9167,529.5346 L1051.5,530.375 " fill="#FEFECE" style="stroke:#A80036;stroke-width:1.5;"/><text fill="#000000" font-family="sans-serif" font-size="10" lengthAdjust="spacing" textLength="51" x="941.5" y="544.7559">color = red</text><polygon fill="#FEFECE" filter="url(#f1qa24g7mge92i)" points="125,511.2813,125,511.4914,134.8182,510.8669,144.6364,511.4745,154.4545,511.6809,164.2727,510.5679,174.0909,511.2035,183.9091,510.8548,193.7273,510.8978,203.5455,511.2131,213.3636,510.5899,223.1818,511.8349,233,511.2813,232.7899,511.2813,232.9341,519.2156,233.144,527.15,232.9714,535.0844,233.0227,543.0188,233,550.9531,233,550.9212,223.1818,551.1317,213.3636,551.1923,203.5455,551.5388,193.7273,551.6242,183.9091,551.6324,174.0909,551.2078,164.2727,551.4167,154.4545,551.6554,144.6364,550.2319,134.8182,551.6316,125,550.9531,124.9012,550.9531,125.1779,543.0188,124.835,535.0844,124.9772,527.15,125.2472,519.2156,125,511.2813" style="stroke:#A80036;stroke-width:1.5;"/><text fill="#000000" font-family="sans-serif" font-size="12" lengthAdjust="spacing" textLength="94" x="132" y="525.7383">Clubs:clubsSuite</text><path d="M126,530.375 L126,530.6552 L135.6364,529.8226 L145.2727,530.6327 L154.9091,530.9079 L164.5455,529.4238 L174.1818,530.2714 L183.8182,529.8063 L193.4545,529.8637 L203.0909,530.2841 L212.7273,529.4532 L222.3636,531.1132 L232,530.375 " fill="#FEFECE" style="stroke:#A80036;stroke-width:1.5;"/><text fill="#000000" font-family="sans-serif" font-size="10" lengthAdjust="spacing" textLength="61" x="131" y="544.7559">color = black</text><polygon fill="#FEFECE" filter="url(#f1qa24g7mge92i)" points="548,511.2813,548,511.4914,557.8462,510.8669,567.6923,511.4745,577.5385,511.6809,587.3846,510.5679,597.2308,511.2035,607.0769,510.8548,616.9231,510.8978,626.7692,511.2131,636.6154,510.5899,646.4615,511.8349,656.3077,510.651,666.1538,511.0835,676,511.2813,676.144,511.2813,675.9714,519.2156,676.0227,527.15,675.9894,535.0844,676.0595,543.0188,676,550.9531,676,551.1923,666.1538,551.5388,656.3077,551.6242,646.4615,551.6324,636.6154,551.2078,626.7692,551.4167,616.9231,551.6554,607.0769,550.2319,597.2308,551.6316,587.3846,550.6566,577.5385,551.4869,567.6923,550.4581,557.8462,550.8846,548,550.9531,548.2472,550.9531,547.9838,543.0188,548.0351,535.0844,548.1129,527.15,548.1387,519.2156,548,511.2813" style="stroke:#A80036;stroke-width:1.5;"/><text fill="#000000" font-family="sans-serif" font-size="12" lengthAdjust="spacing" textLength="114" x="555" y="525.7383">Spaces:spacesSuite</text><path d="M549,530.375 L549,530.6552 L558.6923,529.8226 L568.3846,530.6327 L578.0769,530.9079 L587.7692,529.4238 L597.4615,530.2714 L607.1538,529.8063 L616.8462,529.8637 L626.5385,530.2841 L636.2308,529.4532 L645.9231,531.1132 L655.6154,529.5346 L665.3077,530.1113 L675,530.375 " fill="#FEFECE" style="stroke:#A80036;stroke-width:1.5;"/><text fill="#000000" font-family="sans-serif" font-size="10" lengthAdjust="spacing" textLength="61" x="554" y="544.7559">color = black</text><!--MD5=[07dd720996138132cabe80b3693ac342]
link myKlondike to player--><path d="M146.6545,113.2724 L146.8606,113.4623 L139.309,120.4279 L132.9656,128.5067 L126.2287,136.2231 L118.1982,142.7472 L111.8822,150.8514 L104.601,158.0661 L98.08,165.9813 " fill="none" style="stroke:#A80036;stroke-width:1.0;"/><polygon fill="#A80036" points="89.18,175.6413,89.2078,175.7056,90.9337,174.7336,92.8224,174.1388,94.658,173.4211,96.3194,172.2997,98.222,171.7372,98.221,171.7113,97.0858,171.6409,95.956,171.7009,94.8298,171.8516,93.6909,171.6898,92.5698,171.9658,92.7542,171.9732,92.3142,170.8268,92.4125,169.7022,92.5765,168.5802,92.3584,167.4428,92.3413,166.3135,92.3628,166.3208,91.6989,168.1757,91.1331,170.0637,90.52,171.9357,89.9972,173.8384,89.18,175.6413" style="stroke:#A80036;stroke-width:1.0;"/><path d="M92.5698,171.9658 L92.6386,172.029 L93.5173,170.6632 L94.7991,169.6681 L95.9497,168.5523 L96.6686,167.0395 L97.985,166.0762 " fill="#A80036" style="stroke:#A80036;stroke-width:1.0;"/><polygon fill="#A80036" points="154.79,104.4513,154.8065,104.5193,153.3558,104.6568,152.0019,105.1934,150.6165,105.6,149.1275,105.5791,147.7818,106.15,147.7563,106.1459,147.416,107.5523,147.2046,108.979,147.083,110.4199,146.6523,111.8119,146.6545,113.2724,146.6979,113.4518,148.0066,112.7285,149.4422,112.5289,150.8933,112.3931,152.2543,111.8856,153.6626,111.5737,153.6851,111.5772,153.8776,110.1475,154.1724,108.734,154.4178,107.3127,154.7574,105.9063,154.79,104.4513" style="stroke:#A80036;stroke-width:1.0;"/><!--MD5=[80ccac3c40792434d6b02a71eeec0756]
link myKlondike to goal--><path d="M175.3668,116.2438 L175.459,116.2591 L174.7244,118.977 L174.53,121.7849 L174.1596,124.5635 L173.2109,127.2457 L173.0628,130.0613 L173.0289,130.055 L172.3169,133.0213 L171.776,136.0197 L171.3542,139.0402 L170.5223,141.9842 L170.2647,145.0354 L170.5056,145.0857 L169.226,148.6398 L168.6497,152.3408 L168.1591,156.0597 L167.1694,159.6743 L166.4422,163.3438 L166.4717,163.3505 L165.9727,165.3257 L165.6081,167.3318 L165.1787,169.323 L164.8732,171.3426 L164.1638,173.2696 L164.4533,173.341 L163.9541,175.3789 L163.268,177.3706 L162.8554,179.4299 L162.4556,181.4923 L161.6498,183.4544 L161.3401,183.3716 L161.3925,185.5829 L160.4253,187.5214 L160.2333,189.6673 L159.243,191.5996 L158.9069,193.7069 L158.8777,193.6984 L158.6303,195.8253 L157.7002,197.7523 L157.173,199.7973 L156.6796,201.8521 L155.9422,203.8355 L156.1181,203.8926 L155.3045,205.7977 L154.7916,207.8002 L153.7922,209.6451 L153.5185,211.7251 L152.7622,213.6488 L152.9912,213.7321 L152.2702,215.5776 L151.663,217.4645 L150.5276,219.1591 L149.7793,220.9947 L149.374,222.9551 L149.1223,222.8414 L147.8754,226.2096 L146.3448,229.4496 L145.2256,232.8755 L143.4041,235.9841 L142,239.2813 L141.8705,239.2009 L140.3357,242.1555 L138.2471,244.7665 L136.5524,247.6218 L135.2429,250.7163 L133.2473,253.385 L133.4006,253.5033 L131.4461,256.2537 L129.0147,258.6361 L127.1805,261.4794 L125.2162,264.2223 L122.9488,266.7313 L122.7929,266.5905 L120.6875,269.1709 L118.5311,271.7053 L116.4749,274.3302 L114.029,276.603 L111.8008,279.0725 L111.9448,279.2192 L109.3682,281.1146 L107.0697,283.2932 L105.1771,285.8855 L102.537,287.7161 L100.5,290.1613 " fill="none" style="stroke:#A80036;stroke-width:1.0;"/><polygon fill="#A80036" points="90.53,299.0813,90.5514,299.148,92.3634,298.3481,94.3009,297.9392,96.1976,297.403,97.9599,296.448,99.9081,296.0728,99.9066,296.0469,98.7705,295.8667,97.6418,295.8168,96.5182,295.8576,95.3768,295.586,94.2604,295.7519,94.4446,295.7624,94.1148,294.6105,94.3229,293.4891,94.5966,292.3715,94.4885,291.2321,94.5812,290.1042,94.6019,290.1135,93.7613,291.8952,93.015,293.7195,92.2231,295.5232,91.5182,297.3661,90.53,299.0813" style="stroke:#A80036;stroke-width:1.0;"/><path d="M94.2604,295.7519 L94.3227,295.8215 L95.3295,294.5476 L96.7015,293.6817 L97.9546,292.6829 L98.8166,291.2472 L100.22,290.4163 " fill="#A80036" style="stroke:#A80036;stroke-width:1.0;"/><polygon fill="#A80036" points="176.54,104.3012,176.5942,104.3456,175.5196,105.3298,174.7629,106.5741,173.9026,107.7338,172.702,108.6148,171.9726,109.8815,171.9497,109.8693,172.526,111.087,173.2175,112.3662,173.9891,113.6881,174.4847,114.8628,175.3668,116.2438,175.5096,116.3607,176.1177,114.9947,177.1428,113.9699,178.2187,112.9868,178.9986,111.7615,179.9343,110.6636,179.9543,110.6743,179.246,109.3861,178.6291,108.1466,177.968,106.8837,177.3911,105.6656,176.54,104.3012" style="stroke:#A80036;stroke-width:1.0;"/><!--MD5=[6b236512f49617fb9349ca6db5e2cc1a]
link myKlondike to board--><path d="M254.2482,102.744 L254.3306,103.0118 L263.8001,105.2036 L273.7526,108.9655 L283.5478,112.2161 L292.8258,113.7852 L302.7892,117.5829 L312.3668,120.126 L322.098,123.1684 L331.9359,126.5578 L341.4059,128.7512 L351.6082,133.3254 L360.8585,134.8042 L370.7423,138.343 L380.7034,142.1331 L390.2148,144.4609 L399.9894,147.6448 L409.6645,150.5047 L419.4613,153.7605 L429.1993,156.8253 L439.0495,160.2546 L448.7972,163.3509 L458.5147,166.349 L468.0626,168.7954 L477.8588,172.0493 L487.6666,175.341 L496.823,176.5146 L506.82,180.4213 " fill="none" style="stroke:#A80036;stroke-width:1.0;"/><polygon fill="#A80036" points="519.29,184.2613,519.336,184.3141,517.7133,182.8642,516.3601,181.7241,514.9192,180.4831,513.1896,178.9103,511.8596,177.7968,511.8367,177.7846,512.2641,178.7297,512.8069,179.7359,513.4298,180.7846,513.7764,181.6868,514.51,182.7943,514.5965,182.9573,513.4121,183.1388,512.4801,183.7962,511.579,184.5117,510.4986,184.8894,509.5125,185.4447,509.5152,185.4673,511.4667,185.1974,513.4307,185.0304,515.3886,184.8138,517.358,184.6918,519.29,184.2613" style="stroke:#A80036;stroke-width:1.0;"/><path d="M514.51,182.7943 L514.5375,182.8836 L512.9269,182.1477 L511.4773,181.9352 L509.9753,181.5522 L508.3007,180.6088 L506.865,180.4413 " fill="#A80036" style="stroke:#A80036;stroke-width:1.0;"/><polygon fill="#A80036" points="242.78,99.2113,242.8343,99.2555,243.5843,100.2418,244.6525,101.4876,245.6172,102.6489,246.2409,103.5323,247.3365,104.8004,247.3291,104.7755,248.6783,104.2528,250.0647,103.8553,251.4771,103.5448,252.8002,102.9344,254.2482,102.744,254.3912,102.8606,253.1741,101.4934,252.3745,100.4667,251.6259,99.4815,250.5808,98.2546,249.6917,97.1549,249.6982,97.1767,248.3063,97.5559,246.944,98.0345,245.5674,98.4651,244.218,98.9871,242.78,99.2113" style="stroke:#A80036;stroke-width:1.0;"/><!--MD5=[dc3ce9bb748f29abe953416d64d14ca9]
link player to goal--><path d="M66,227.8413 L66.2802,227.8413 L65.4476,237.2541 L66.2577,246.667 L66.5329,256.0798 L65.0488,265.4927 L65.8964,274.9055 L65.4313,284.3184 L66,293.7313 " fill="none" style="stroke:#A80036;stroke-width:1.0;"/><polygon fill="#A80036" points="66,298.9913,66.064,299.0197,66.6738,297.1352,67.6589,295.4174,68.5217,293.6454,68.9827,291.6947,70,289.9913,69.9817,289.9729,69.0995,290.6907,68.3096,291.5009,67.5839,292.3752,66.637,293.0283,66,293.9913,66.1305,294.1217,65.0514,293.0427,64.3534,292.3446,63.7018,291.6931,62.7798,290.771,62,289.9913,62.0208,290.0005,62.7903,291.7869,63.6544,293.6154,64.4728,295.4236,65.3784,297.2705,66,298.9913" style="stroke:#A80036;stroke-width:1.0;"/><!--MD5=[e2b9286a6e0ed5484b113f424108e554]
link board to stockPile--><path d="M607.1189,226.0999 L607.277,226.3313 L614.8256,231.1239 L623.3011,237.2729 L631.4748,242.9802 L638.6559,247.235 L647.1525,253.4149 L654.9086,258.5111 L662.9593,264.0385 L671.215,269.8658 L678.7646,274.6598 L687.7197,281.5105 L694.8474,285.6873 L703.34,291.8613 " fill="none" style="stroke:#A80036;stroke-width:1.0;"/><polygon fill="#A80036" points="714.18,299.2713,714.2396,299.3081,713.0264,297.5234,712.1625,295.9547,711.1849,294.3156,709.8333,292.4452,708.9994,290.895,708.9739,290.8902,709.0697,291.9803,709.2938,293.0947,709.6072,294.2259,709.6131,295.2991,710.0496,296.4535,710.0838,296.6349,708.8989,296.4571,707.8139,296.8088,706.7412,297.2251,705.5974,297.2656,704.491,297.5037,704.4951,297.5261,706.4269,297.8468,708.3773,298.2693,710.3187,298.6427,712.2772,299.1098,714.18,299.2713" style="stroke:#A80036;stroke-width:1.0;"/><path d="M710.0496,296.4535 L710.1023,296.5306 L708.6246,295.3971 L707.4563,294.7155 L706.1872,293.8867 L704.5868,292.5741 L703.445,291.9313 " fill="#A80036" style="stroke:#A80036;stroke-width:1.0;"/><polygon fill="#A80036" points="597.21,219.3313,597.275,219.3575,597.6216,220.617,598.349,222.0303,598.9525,223.3935,599.1481,224.5921,599.9082,226.0185,599.9079,225.9926,601.3487,225.8926,602.791,225.9232,604.2343,226.0446,605.6741,225.8532,607.1189,226.0999,607.29,226.1689,606.3844,224.6838,605.9784,223.4003,605.6335,222.1414,604.9338,220.7394,604.4206,219.4126,604.4209,219.4354,602.9784,219.3857,601.5371,219.4396,600.0952,219.4435,598.6543,219.5427,597.21,219.3313" style="stroke:#A80036;stroke-width:1.0;"/><!--MD5=[11d36bc7cb4129f6f7429d8d353a258b]
link board to wastePile--><path d="M628.0694,223.5621 L628.1684,223.8242 L637.2829,226.5967 L646.9775,230.9061 L656.4832,234.715 L665.3676,236.878 L675.0755,241.2224 L684.3198,244.3388 L693.7486,247.9439 L703.3056,251.8887 L712.4206,254.6628 L722.4154,259.7673 L731.2665,261.8419 L740.8787,265.9329 L750.5837,270.2699 L759.7484,273.1755 L769.2295,276.9191 L778.5908,280.3456 L788.0985,284.1596 L797.5355,287.7866 L807.1073,291.7704 L816.24,294.5913 " fill="none" style="stroke:#A80036;stroke-width:1.0;"/><polygon fill="#A80036" points="828.62,299.2713,828.6693,299.3211,827.1225,297.7878,825.8645,296.5466,824.5125,295.2103,822.8512,293.5612,821.618,292.3451,821.5944,292.3344,821.9535,293.318,822.4317,294.3552,822.9926,295.4298,823.2684,296.3757,823.9436,297.5018,824.0194,297.67,822.8259,297.7754,821.8538,298.3719,820.9087,299.0284,819.8064,299.3362,818.7869,299.8274,818.7881,299.8501,820.7529,299.7055,822.7235,299.6643,824.6912,299.5733,826.6644,299.5774,828.62,299.2713" style="stroke:#A80036;stroke-width:1.0;"/><path d="M823.9436,297.5018 L823.9766,297.5892 L822.3818,296.7644 L820.9805,296.4519 L819.5162,295.9727 L817.8447,294.9447 L816.46,294.6763 " fill="#A80036" style="stroke:#A80036;stroke-width:1.0;"/><polygon fill="#A80036" points="616.84,219.3313,616.8969,219.3721,617.5687,220.4224,618.5741,221.7122,619.4709,222.9241,620.0104,223.8794,621.0444,225.1898,621.0386,225.1646,622.4174,224.7258,623.8256,224.4142,625.2543,224.191,626.6124,223.6631,628.0694,223.5621,628.2194,223.6697,627.0579,222.2679,626.3341,221.1802,625.6637,220.1309,624.6826,218.8585,623.865,217.7035,623.8701,217.7257,622.4576,218.0187,621.0684,218.4126,619.668,218.7578,618.2891,219.1959,616.84,219.3313" style="stroke:#A80036;stroke-width:1.0;"/><!--MD5=[74db22bb4b12d89f9d0bc88ff04086ba]
link board to clubsFoundation--><path d="M573,231.3313 L573.2802,231.3313 L572.4476,242.2693 L573.2577,253.2073 L573.5329,264.1453 L572.0488,275.0833 L573,286.0213 " fill="none" style="stroke:#A80036;stroke-width:1.0;"/><polygon fill="#A80036" points="573,299.0712,573.064,299.0997,573.6738,297.2152,574.6589,295.4974,575.5217,293.7254,575.9827,291.7747,577,290.0712,576.9817,290.0529,576.0995,290.7707,575.3096,291.5809,574.5839,292.4552,573.637,293.1083,573,294.0712,573.1305,294.2017,572.0514,293.1227,571.3534,292.4246,570.7018,291.7731,569.7798,290.851,569,290.0712,569.0208,290.0805,569.7903,291.8669,570.6544,293.6954,571.4728,295.5036,572.3784,297.3505,573,299.0712" style="stroke:#A80036;stroke-width:1.0;"/><path d="M573,294.0712 L573.0934,294.0712 L572.8159,292.4712 L573.0859,290.8713 L573.1776,289.2713 L572.6829,287.6713 L573,286.0712 " fill="#A80036" style="stroke:#A80036;stroke-width:1.0;"/><polygon fill="#A80036" points="573,219.3313,573.0583,219.3701,572.0851,220.4546,571.4536,221.767,570.7109,223.0052,569.6021,223.9993,569,225.3313,568.9784,225.3169,569.6817,226.4524,570.4936,227.6603,571.3811,228.9186,572.0082,230.0034,573,231.3313,573.1536,231.4336,573.6252,230.0147,574.5451,228.8947,575.5198,227.8111,576.1762,226.5154,577,225.3313,577.0189,225.3439,576.1911,224.1253,575.4495,222.9643,574.6663,221.7755,573.9624,220.6395,573,219.3313" style="stroke:#A80036;stroke-width:1.0;"/><!--MD5=[af1a2cc39fa055b104a1f856628bf00d]
link board to diamondsFoundation--><path d="M531.0081,224.9338 L531.1389,225.1817 L522.1426,228.9843 L513.9126,234.2401 L505.4331,239.0227 L496.133,242.2491 L487.9204,247.538 L479.0956,251.6658 L470.5145,256.2556 L462.1027,261.1667 L453.1073,264.9709 L445.2737,270.9784 L435.9295,274.1212 L427.5906,279.1705 L419.3744,284.4524 L410.4445,288.3809 L401.89,293.0213 " fill="none" style="stroke:#A80036;stroke-width:1.0;"/><polygon fill="#A80036" points="390.05,299.2713,390.0547,299.3412,392.006,299.0005,393.9849,299.0697,395.9548,299.0054,397.8951,298.5023,399.8764,298.6066,399.8688,298.5819,398.7535,298.1369,397.6768,297.8166,396.6268,297.5831,395.4845,297.0506,394.4716,296.9369,394.6479,296.9913,394.6048,295.7939,395.0765,294.7555,395.611,293.7365,395.7801,292.6046,396.1414,291.5321,396.1593,291.5461,394.9147,293.0733,393.7516,294.6645,392.5492,296.2249,391.4217,297.8442,390.05,299.2713" style="stroke:#A80036;stroke-width:1.0;"/><path d="M394.4716,296.9369 L394.5151,297.0195 L395.8025,296.0278 L397.345,295.5206 L398.8044,294.8557 L399.9906,293.6718 L401.555,293.2063 " fill="#A80036" style="stroke:#A80036;stroke-width:1.0;"/><polygon fill="#A80036" points="541.62,219.3313,541.6272,219.4009,540.1712,219.0467,538.7572,219.1009,537.3295,219.0222,535.857,218.5059,534.4466,218.5952,534.4238,218.5829,533.6339,219.7952,532.9588,221.0697,532.3635,222.3875,531.4933,223.5562,531.0081,224.9338,531.027,225.1174,532.4214,224.872,533.8708,225.1626,535.3269,225.5186,536.744,225.4942,538.1816,225.6698,538.2016,225.6807,538.8599,224.397,539.6093,223.1628,540.3147,221.9047,541.1039,220.6921,541.62,219.3313" style="stroke:#A80036;stroke-width:1.0;"/><!--MD5=[aad61eb72c3137c333ed1aa13d03ee71]
link board to tableauPile1--><path d="M501.9735,222.5434 L501.999,222.6332 L496.2131,223.99 L490.5769,225.8736 L484.8919,227.5856 L479.0466,228.7335 L473.4232,230.6623 L473.3947,230.5627 L463.3265,232.9622 L453.402,235.8639 L443.5776,239.1147 L433.4086,241.1625 L423.9254,245.605 L413.5506,246.9341 L403.8417,250.5886 L403.7683,250.3353 L394.39,253.9293 L384.5857,256.0539 L375.0307,259.0387 L365.3814,261.698 L355.8475,264.7551 L346.2579,267.6202 L336.7745,270.8516 L327.1941,273.7485 L317.3327,275.6767 L317.4181,275.9663 L308.9508,278.2659 L300.563,280.8356 L292.1791,283.4179 L283.5862,285.2917 L275.2628,288.0798 L275.3497,288.3686 L267.7723,290.1939 L260.426,292.7876 L252.8418,294.59 L245.4438,297.0118 L238,299.2813 L238.097,299.5963 L237.0256,299.5585 L236.0778,299.922 L235.1403,300.3191 L234.1824,300.6501 L233.16,300.7713 " fill="none" style="stroke:#A80036;stroke-width:1.0;"/><polygon fill="#A80036" points="220.53,304.7313,220.5379,304.8009,222.4715,304.8171,224.4515,305.2415,226.4164,305.5329,228.3315,305.3874,230.3155,305.8467,230.3035,305.8238,229.2466,305.1976,228.25,304.6871,227.2955,304.2572,226.1963,303.5499,225.2997,303.2311,225.4633,303.3164,225.6365,302.1308,226.2874,301.1943,226.9967,300.2882,227.3668,299.2052,227.9153,298.2153,227.9303,298.2323,226.4312,299.5105,225.0005,300.8663,223.5368,302.1846,222.1362,303.5745,220.53,304.7313" style="stroke:#A80036;stroke-width:1.0;"/><path d="M225.2997,303.2311 L225.3276,303.3203 L226.7717,302.5774 L228.3795,302.3572 L229.9339,301.9667 L231.3132,301.0166 L232.935,300.8413 " fill="#A80036" style="stroke:#A80036;stroke-width:1.0;"/><polygon fill="#A80036" points="513.53,219.3112,513.5517,219.3779,512.116,218.7327,510.8077,218.4781,509.4579,218.0962,507.9717,217.2963,506.6744,217.0751,506.6547,217.0583,505.6264,218.0761,504.6971,219.1791,503.8366,220.3413,502.7389,221.2995,501.9735,222.5434,502.0307,222.7188,503.2795,222.7909,504.6953,223.3752,506.1315,224.0219,507.4491,224.3051,508.8291,224.7795,508.8464,224.7943,509.7612,223.6789,510.7546,222.631,511.7101,221.5505,512.7379,220.5322,513.53,219.3112" style="stroke:#A80036;stroke-width:1.0;"/><!--MD5=[f741a03cdd29a0ba0b491cb0a722a2b3]
link board to tableauPile7--><path d="M649.3669,220.8792 L649.3894,220.9699 L655.8223,222.3147 L662.3873,224.191 L668.9093,225.8942 L675.29,227.0282 L681.8662,228.9501 L681.8409,228.8497 L691.6295,230.8969 L701.5458,233.4506 L711.5509,236.3564 L721.25,238.0489 L731.5583,242.1566 L741.0745,243.1241 L751.1179,246.1814 L761.0847,248.9352 L761.228,249.493 L770.7683,251.3202 L780.5314,254.0148 L790.2102,256.3811 L799.9921,259.1486 L809.6449,261.4138 L809.7256,261.7223 L819.8342,264.7851 L829.8545,267.511 L839.8488,270.1374 L849.6969,272.2054 L859.6025,274.4928 L859.763,275.0897 L869.4311,277.9743 L878.5238,278.7189 L888.5939,283.0985 L897.8418,284.4204 L907.53,287.3795 L907.5933,287.6082 L911.8976,288.3922 L916.3744,289.7996 L920.8967,291.3713 L925.2294,292.2575 L929.6614,293.5031 L929.6742,293.5481 L933.7703,294.8035 L937.8474,295.9923 L941.8641,296.9683 L945.9672,298.2484 L950,299.2813 L949.9284,299.0371 L950.9356,299.6665 L951.8686,300.043 L952.7556,300.2628 L953.6767,300.5987 L954.5,300.6013 " fill="none" style="stroke:#A80036;stroke-width:1.0;"/><polygon fill="#A80036" points="967.2,304.4713,967.2459,304.5242,965.6216,303.0761,964.2665,301.9382,962.8238,300.6993,961.0928,299.1282,959.7608,298.017,959.7379,298.0048,960.1667,298.949,960.7108,299.9545,961.3351,301.0026,961.6831,301.9038,962.418,303.0109,962.5047,303.1738,961.3206,303.3568,960.3895,304.0156,959.4893,304.7323,958.4095,305.1114,957.4241,305.6681,957.4269,305.6907,959.378,305.4182,961.3417,305.2484,963.2993,305.0291,965.2686,304.9044,967.2,304.4713" style="stroke:#A80036;stroke-width:1.0;"/><path d="M962.418,303.0109 L962.4453,303.1002 L960.8327,302.3678 L959.3799,302.1592 L957.875,301.78 L956.1991,300.8399 L954.76,300.6763 " fill="#A80036" style="stroke:#A80036;stroke-width:1.0;"/><polygon fill="#A80036" points="637.7,218.0713,637.7514,218.1188,638.5781,219.036,639.7063,220.2322,640.7363,221.3375,641.4434,222.1441,642.5974,223.3642,642.5885,223.3399,643.9023,222.7337,645.2612,222.2502,646.6513,221.8519,647.9336,221.1599,649.3669,220.8792,649.5023,221.0045,648.2332,219.6779,647.3595,218.7173,646.5341,217.8012,645.4279,216.6254,644.4694,215.5863,644.4772,215.6076,643.1119,216.0733,641.7822,216.6361,640.4352,217.1521,639.1212,217.7575,637.7,218.0713" style="stroke:#A80036;stroke-width:1.0;"/><!--MD5=[ecb0794644cb2388bd7c1f5d1952b0e8]
link stockPile to card1--><path d="M751.9714,350.7664 L752.0602,350.7954 L754.1441,357.8942 L756.7485,365.163 L759.1834,372.3765 L761.0609,379.4078 L763.71,386.6912 " fill="none" style="stroke:#A80036;stroke-width:1.0;"/><polygon fill="#A80036" points="767.75,399.0513,767.8197,399.0584,767.8132,397.0777,768.2154,395.1388,768.4844,393.1862,768.316,391.1889,768.7532,389.2536,768.7301,389.2419,768.1148,390.1984,767.616,391.214,767.1982,392.2706,766.5013,393.1858,766.1953,394.2991,766.2787,394.4637,765.0912,393.6001,764.1472,393.2172,763.2331,392.8928,762.1459,392.2273,761.1498,391.7412,761.1666,391.7564,762.4619,393.1961,763.834,394.7051,765.1691,396.1807,766.5749,397.7201,767.75,399.0513" style="stroke:#A80036;stroke-width:1.0;"/><path d="M766.1953,394.2991 L766.2841,394.3281 L765.5241,392.7214 L765.2848,391.2846 L764.876,389.7925 L763.9096,388.1185 L763.715,386.6963 " fill="#A80036" style="stroke:#A80036;stroke-width:1.0;"/><polygon fill="#FFFFFF" points="748.24,339.3613,748.3075,339.3801,747.7198,340.7134,747.5277,342.1571,747.2067,343.5648,746.4621,344.8545,746.304,346.3076,746.288,346.2872,747.3496,347.0876,748.4919,347.9906,749.6904,348.965,750.6954,349.6935,751.9714,350.7664,752.1492,350.8159,752.1562,349.3207,752.6823,347.9701,753.2717,346.6372,753.4927,345.2016,753.9074,343.82,753.9215,343.8379,752.7673,342.9199,751.6772,342.0833,750.5562,341.2074,749.4942,340.4064,748.24,339.3613" style="stroke:#A80036;stroke-width:1.0;"/><!--MD5=[ddc880f904d6ba46fd3ceeee8dd793c0]
link stockPile to card30--><path d="M719.5298,348.7842 L719.7499,348.9578 L712.8381,356.3776 L707.2163,364.8146 L701.1744,372.9204 L693.7511,379.9368 L688.24,388.4613 " fill="none" style="stroke:#A80036;stroke-width:1.0;"/><polygon fill="#A80036" points="679.89,399.0513,679.9226,399.1133,681.5693,398.0124,683.407,397.2751,685.1825,396.4194,686.7534,395.1744,688.6076,394.4683,688.6046,394.4425,687.4673,394.4589,686.3454,394.6051,685.234,394.8413,684.0861,394.7669,682.9893,395.1277,683.1726,395.1492,682.6487,393.9795,682.66,392.8727,682.7366,391.7735,682.4334,390.6297,682.3299,389.5094,682.3519,389.515,681.8316,391.4151,681.4116,393.3409,680.9432,395.2543,680.5671,397.1912,679.89,399.0513" style="stroke:#A80036;stroke-width:1.0;"/><path d="M682.9893,395.1277 L683.0627,395.1855 L683.8348,393.7565 L685.0371,392.6663 L686.0993,391.4657 L686.7008,389.9024 L687.94,388.8413 " fill="#A80036" style="stroke:#A80036;stroke-width:1.0;"/><polygon fill="#FFFFFF" points="726.96,339.3613,726.9817,339.4279,725.546,339.6769,724.2375,340.3164,722.8876,340.8288,721.4014,340.923,720.1039,341.596,720.0781,341.594,719.8474,343.0223,719.7469,344.4611,719.7368,345.9071,719.4149,347.3282,719.5298,348.7842,719.587,348.9597,720.8359,348.1375,722.2518,347.8276,723.6881,347.5803,725.0058,346.9692,726.3859,346.5495,726.4086,346.5513,726.4901,345.111,726.6749,343.6789,726.8098,342.2429,727.0398,340.8144,726.96,339.3613" style="stroke:#A80036;stroke-width:1.0;"/><!--MD5=[e5324edb19f4b8bce964ab7a1e9bb1f5]
link stockPile to card23--><path d="M779.3692,346.202 L779.5288,346.4324 L787.2633,351.4379 L795.9337,357.7937 L804.2993,363.7097 L811.6627,368.1799 L820.3544,374.5664 L828.2983,379.8741 L836.5399,385.6111 L845.04,391.7213 " fill="none" style="stroke:#A80036;stroke-width:1.0;"/><polygon fill="#A80036" points="855.89,399.2413,855.9499,399.2776,854.7491,397.4861,853.8994,395.9079,852.9354,394.2602,851.5955,392.3842,850.7759,390.8243,850.7504,390.8197,850.8372,391.9123,851.0525,393.0282,851.3572,394.1602,851.354,395.2366,851.782,396.3909,851.8148,396.5725,850.6313,396.3854,849.5436,396.7285,848.4676,397.1363,847.3236,397.1677,846.2153,397.397,846.2196,397.4194,848.1483,397.7554,850.0964,398.1932,852.0351,398.5819,853.9916,399.0642,855.89,399.2413" style="stroke:#A80036;stroke-width:1.0;"/><path d="M851.782,396.3909 L851.8352,396.4677 L850.3618,395.3295 L849.2001,394.6417 L847.9369,393.8072 L846.34,392.4904 L845.205,391.8413 " fill="#A80036" style="stroke:#A80036;stroke-width:1.0;"/><polygon fill="#FFFFFF" points="769.51,339.3613,769.5752,339.387,769.9114,340.6519,770.6297,342.0676,771.2235,343.4343,771.4083,344.6393,772.1593,346.068,772.1588,346.0421,773.5987,345.9527,775.0409,345.9938,776.4848,346.1257,777.9229,345.9448,779.3692,346.202,779.5408,346.2698,778.6439,344.7835,778.2481,343.4951,777.9135,342.2309,777.2231,340.8261,776.7199,339.4953,776.7203,339.518,775.2777,339.4578,773.837,339.5012,772.3954,339.4945,770.9556,339.5832,769.51,339.3613" style="stroke:#A80036;stroke-width:1.0;"/><!--MD5=[dc961571fd324886357b12bd28e2a195]
link tableauPile1 to card24--><path d="M179,351.3613 L179.0934,351.3613 L178.8159,358.2613 L179.0859,365.1613 L179.1776,372.0613 L178.6829,378.9613 L179,385.8613 " fill="none" style="stroke:#A80036;stroke-width:1.0;"/><polygon fill="#A80036" points="179,399.0513,179.064,399.0797,179.6738,397.1952,180.6589,395.4774,181.5217,393.7054,181.9827,391.7547,183,390.0513,182.9817,390.0329,182.0995,390.7507,181.3096,391.5609,180.5839,392.4352,179.637,393.0883,179,394.0513,179.1305,394.1817,178.0514,393.1027,177.3534,392.4046,176.7018,391.7531,175.7798,390.831,175,390.0513,175.0208,390.0605,175.7903,391.8469,176.6544,393.6754,177.4728,395.4836,178.3784,397.3305,179,399.0513" style="stroke:#A80036;stroke-width:1.0;"/><path d="M179,394.0513 L179.0934,394.0513 L178.8159,392.4512 L179.0859,390.8513 L179.1776,389.2512 L178.6829,387.6513 L179,386.0513 " fill="#A80036" style="stroke:#A80036;stroke-width:1.0;"/><polygon fill="#FFFFFF" points="179,339.3613,179.0583,339.4001,178.0851,340.4846,177.4536,341.797,176.7109,343.0352,175.6021,344.0293,175,345.3613,174.9784,345.3469,175.6817,346.4824,176.4936,347.6903,177.3811,348.9486,178.0082,350.0334,179,351.3613,179.1536,351.4636,179.6252,350.0447,180.5451,348.9247,181.5198,347.8411,182.1762,346.5454,183,345.3613,183.0189,345.3739,182.1911,344.1553,181.4495,342.9943,180.6663,341.8055,179.9624,340.6695,179,339.3613" style="stroke:#A80036;stroke-width:1.0;"/><!--MD5=[bc75a1fe720bcb3b8b173faef28171a7]
link tableauPile7 to card25--><path d="M1009,351.3613 L1009.0934,351.3613 L1008.8159,358.2613 L1009.0859,365.1613 L1009.1776,372.0613 L1008.6829,378.9613 L1009,385.8613 " fill="none" style="stroke:#A80036;stroke-width:1.0;"/><polygon fill="#A80036" points="1009,399.0513,1009.064,399.0797,1009.6738,397.1952,1010.6589,395.4774,1011.5217,393.7054,1011.9827,391.7547,1013,390.0513,1012.9817,390.0329,1012.0995,390.7507,1011.3096,391.5609,1010.5839,392.4352,1009.637,393.0883,1009,394.0513,1009.1305,394.1817,1008.0514,393.1027,1007.3534,392.4046,1006.7018,391.7531,1005.7798,390.831,1005,390.0513,1005.0208,390.0605,1005.7903,391.8469,1006.6544,393.6754,1007.4728,395.4836,1008.3784,397.3305,1009,399.0513" style="stroke:#A80036;stroke-width:1.0;"/><path d="M1009,394.0513 L1009.0934,394.0513 L1008.8159,392.4512 L1009.0859,390.8513 L1009.1776,389.2512 L1008.6829,387.6513 L1009,386.0513 " fill="#A80036" style="stroke:#A80036;stroke-width:1.0;"/><polygon fill="#FFFFFF" points="1009,339.3613,1009.0583,339.4001,1008.0851,340.4846,1007.4536,341.797,1006.7109,343.0352,1005.6021,344.0293,1005,345.3613,1004.9784,345.3469,1005.6817,346.4824,1006.4936,347.6903,1007.3811,348.9486,1008.0082,350.0334,1009,351.3613,1009.1536,351.4636,1009.6252,350.0447,1010.5451,348.9247,1011.5198,347.8411,1012.1762,346.5454,1013,345.3613,1013.0189,345.3739,1012.1911,344.1553,1011.4495,342.9943,1010.6663,341.8055,1009.9624,340.6695,1009,339.3613" style="stroke:#A80036;stroke-width:1.0;"/><!--MD5=[ab89c98bfd8d5af0a0d43ee0ce8d2c3a]
link card1 to diamond--><path d="M781.3437,463.3383 L781.4361,463.3516 L782.1687,470.2885 L783.4432,477.3037 L784.5413,484.2934 L785.0589,491.1993 L786.38,498.2213 " fill="none" style="stroke:#A80036;stroke-width:1.0;"/><polygon fill="#A80036" points="788.25,511.2013,788.3174,511.2203,788.6518,509.268,789.3815,507.4271,789.9825,505.55,790.1601,503.5535,790.9238,501.7223,790.903,501.7068,790.1323,502.5432,789.4663,503.4578,788.8729,504.4268,788.029,505.2084,787.536,506.2525,787.6465,506.4003,786.5041,505.4067,785.6844,504.8446,784.9041,504.3351,783.8947,503.5194,783.0057,502.8647,783.025,502.8768,784.0456,504.5264,785.1538,506.231,786.2198,507.9091,787.3664,509.6379,788.25,511.2013" style="stroke:#A80036;stroke-width:1.0;"/><path d="M787.536,506.2525 L787.6284,506.2658 L787.1255,504.642 L787.1646,503.0962 L787.0272,501.5251 L786.3094,499.8703 L786.395,498.3312 " fill="#A80036" style="stroke:#A80036;stroke-width:1.0;"/><polygon fill="#A80036" points="779.63,451.4613,779.6932,451.4914,778.8849,452.7038,778.4473,454.0929,777.889,455.4244,776.9336,456.5667,776.5278,457.971,776.5085,457.9537,777.3852,458.9495,778.359,460.0325,779.4004,461.1762,780.209,462.1109,781.3437,463.3383,781.5103,463.4177,781.7744,461.9459,782.525,460.706,783.3349,459.4944,783.7996,458.1182,784.4458,456.8285,784.4628,456.8437,783.4747,455.748,782.5638,454.7214,781.6157,453.6614,780.7385,452.6651,779.63,451.4613" style="stroke:#A80036;stroke-width:1.0;"/><!--MD5=[ab2bd451babeb530ac2c7f2a594f6978]
link card23 to hearts--><path d="M925.0957,460.0253 L925.2958,460.2216 L931.5087,466.5795 L938.8945,474.0878 L945.8983,481.2214 L951.6461,487.1233 L959.0586,494.6577 L965.94,501.6713 " fill="none" style="stroke:#A80036;stroke-width:1.0;"/><polygon fill="#A80036" points="975.29,511.2013,975.3556,511.2258,974.4693,509.3083,973.9676,507.535,973.3406,505.7146,972.3019,503.74,971.8332,501.979,971.8073,501.9788,971.6813,503.1091,971.686,504.2405,971.7814,505.3728,971.564,506.5023,971.7848,507.6356,971.7864,507.8202,970.6517,507.4159,969.5216,507.5504,968.3921,507.7506,967.2592,507.5684,966.1282,507.5873,966.1365,507.6084,967.9566,508.3002,969.8147,509.0882,971.6545,509.8298,973.5293,510.6601,975.29,511.2013" style="stroke:#A80036;stroke-width:1.0;"/><path d="M971.7848,507.6356 L971.8515,507.701 L970.5333,506.3639 L969.6062,505.41 L968.5518,504.3313 L967.0785,502.8422 L966.185,501.9213 " fill="#A80036" style="stroke:#A80036;stroke-width:1.0;"/><polygon fill="#A80036" points="916.69,451.4613,916.7588,451.4743,916.824,452.8522,917.2926,454.3069,917.6298,455.7365,917.5349,457.084,918.0382,458.5452,918.0329,458.5199,919.4205,458.7021,920.835,459.0121,922.268,459.411,923.6369,459.5038,925.0957,460.0253,925.277,460.0598,924.6197,458.5693,924.4917,457.1794,924.4283,455.8019,923.9891,454.3528,923.7476,452.9414,923.7522,452.9636,922.3339,452.6349,920.9368,452.4076,919.5294,452.1313,918.1416,451.9483,916.69,451.4613" style="stroke:#A80036;stroke-width:1.0;"/><!--MD5=[8c7ba3118683edb52b1fc3a34bb4683c]
link card25 to hearts--><path d="M1003.6563,463.3383 L1003.7488,463.3516 L1002.4668,470.2885 L1001.7268,477.3037 L1000.8103,484.2934 L999.3135,491.1993 L998.62,498.2213 " fill="none" style="stroke:#A80036;stroke-width:1.0;"/><polygon fill="#A80036" points="996.75,511.2013,996.8093,511.2386,997.682,509.4604,998.9022,507.9009,1000.0093,506.2703,1000.7441,504.4054,1001.9943,502.8647,1001.9787,502.844,1001.0031,503.4284,1000.1056,504.1175,999.2625,504.8792,998.2321,505.3904,997.464,506.2525,997.6118,506.363,996.6182,505.2206,996.0561,504.4009,995.5467,503.6206,994.7309,502.6112,994.0762,501.7223,994.0981,501.7284,994.6007,503.6152,995.203,505.53,995.7572,507.4313,996.4031,509.3585,996.75,511.2013" style="stroke:#A80036;stroke-width:1.0;"/><path d="M997.464,506.2525 L997.5565,506.2658 L997.51,504.642 L998.0054,503.0962 L998.3244,501.5251 L998.063,499.8703 L998.605,498.3312 " fill="#A80036" style="stroke:#A80036;stroke-width:1.0;"/><polygon fill="#A80036" points="1005.37,451.4613,1005.4221,451.508,1004.304,452.4425,1003.4916,453.6512,1002.5797,454.7706,1001.3403,455.5963,1000.5542,456.8285,1000.5308,456.8174,1001.0463,458.0693,1001.6796,459.3774,1002.395,460.7246,1002.8279,461.9372,1003.6563,463.3383,1003.7937,463.4615,1004.4631,462.1245,1005.5336,461.1473,1006.653,460.214,1007.4877,459.0253,1008.4722,457.971,1008.4927,457.9808,1007.8421,456.6644,1007.285,455.3927,1006.6828,454.0994,1006.1667,452.8472,1005.37,451.4613" style="stroke:#A80036;stroke-width:1.0;"/><!--MD5=[7b89f1733cfc0f47d18f8dec88b9e335]
link card24 to clubs--><path d="M179,463.4613 L179.0934,463.4613 L178.8159,470.3413 L179.0859,477.2213 L179.1776,484.1013 L178.6829,490.9813 L179,497.8613 " fill="none" style="stroke:#A80036;stroke-width:1.0;"/><polygon fill="#A80036" points="179,511.2013,179.064,511.2297,179.6738,509.3452,180.6589,507.6274,181.5217,505.8554,181.9827,503.9047,183,502.2013,182.9817,502.1829,182.0995,502.9007,181.3096,503.7109,180.5839,504.5852,179.637,505.2383,179,506.2013,179.1305,506.3317,178.0514,505.2527,177.3534,504.5546,176.7018,503.9031,175.7798,502.981,175,502.2013,175.0208,502.2105,175.7903,503.9969,176.6544,505.8254,177.4728,507.6336,178.3784,509.4805,179,511.2013" style="stroke:#A80036;stroke-width:1.0;"/><path d="M179,506.2013 L179.0934,506.2013 L178.8159,504.6013 L179.0859,503.0013 L179.1776,501.4013 L178.6829,499.8013 L179,498.2013 " fill="#A80036" style="stroke:#A80036;stroke-width:1.0;"/><polygon fill="#A80036" points="179,451.4613,179.0583,451.5001,178.0851,452.5846,177.4536,453.897,176.7109,455.1352,175.6021,456.1293,175,457.4613,174.9784,457.4469,175.6817,458.5824,176.4936,459.7903,177.3811,461.0486,178.0082,462.1334,179,463.4613,179.1536,463.5636,179.6252,462.1447,180.5451,461.0247,181.5198,459.9411,182.1762,458.6454,183,457.4613,183.0189,457.4739,182.1911,456.2553,181.4495,455.0943,180.6663,453.9055,179.9624,452.7695,179,451.4613" style="stroke:#A80036;stroke-width:1.0;"/><!--MD5=[795a1dbf4b507fd8ea2e5f87bc53c135]
link card30 to spaces--><path d="M643.3429,462.3529 L643.4278,462.392 L639.7711,469.6574 L636.6118,477.1522 L633.2905,484.5723 L629.4367,491.7468 L626.32,499.2613 " fill="none" style="stroke:#A80036;stroke-width:1.0;"/><polygon fill="#A80036" points="620.81,511.2013,620.8562,511.2539,622.1993,509.798,623.8132,508.6508,625.339,507.4031,626.5746,505.8248,628.2119,504.7041,628.2029,504.6798,627.1012,504.9621,626.0446,505.3669,625.0194,505.8569,623.886,506.0534,622.9042,506.661,623.0774,506.7248,622.3158,505.5268,622.0597,504.5151,621.8652,503.5262,621.312,502.405,620.9474,501.3534,620.9702,501.3537,620.9093,503.3228,620.952,505.2933,620.9447,507.2632,621.0327,509.2344,620.81,511.2013" style="stroke:#A80036;stroke-width:1.0;"/><path d="M622.9042,506.661 L622.9891,506.7 L623.4061,505.131 L624.3206,503.791 L625.073,502.3764 L625.2929,500.7166 L626.25,499.3963 " fill="#A80036" style="stroke:#A80036;stroke-width:1.0;"/><polygon fill="#A80036" points="648.38,451.4613,648.4166,451.521,647.078,452.0968,645.954,453.0229,644.7601,453.8349,643.3365,454.2719,642.2309,455.2281,642.2053,455.2241,642.3129,456.6311,642.5494,458.0583,642.8757,459.4995,642.8928,460.8924,643.3429,462.3529,643.4393,462.5103,644.463,461.4204,645.7681,460.79,647.1076,460.2156,648.2473,459.3151,649.492,458.5861,649.5145,458.5896,649.2591,457.1595,649.106,455.7453,648.9036,454.3235,648.7953,452.9163,648.38,451.4613" style="stroke:#A80036;stroke-width:1.0;"/><!--MD5=[f780372abf7c92ad30a4574056409f16]
@startuml klondike- -initial-state
skinparam handwritten true

title Klondike. Initial State \n

object "Klondike:myKlondike" as myKlondike{
    nGame = 1
    status = 1
}

object "Goal:goal" as goal {
    status = false
}

object "Player:setilloPlayer" as player {
    id = 1
    name = 'Setillo'
}

object "Board:klondikeBoard" as board {

}


object "Stock:stockPile" as stockPile
object "Waste:wastePile" as wastePile

object stockPile {
    nCards = 23
}
object wastePile {
    nCards = 0
}


object "Foundation:diamondsFoundation" as diamondsFoundation {
    nCards = 0
}


object "Foundation:clubsFoundation" as clubsFoundation {
    nCards = 0
}

object "Card:card1" as card1 {  
    rank  = Nine
    faceUp = false
}

object "Card:card23" as card23 {
        rank  = Ace
        faceUp = false
}

object "Card:card24" as card24 {
        rank = King
        faceUp = true
}

object "Card:card25" as card25 {
        rank = Two    
        faceUp = true
}

object "Card:card30" as card30 {  
    rank  = Four
    faceUp = false
}

note top of tableauPile7
    7 total tableau piles
    Last card face up in each pile
    0, 1, 2, 3, 4, 5 & 6 face down cards in each pile, 
    repectively, from 1 to 7 pile
end note

note bottom of clubsFoundation
    4 total foundations piles
    with no card
end note


object tableauPile1 {
    nCards = 1
}
object tableauPile7 {
    nCards = 7
}

object "Diamonds:diamondsSuite" as diamond {
    color = red
}
object "Hearst:heartsSuite" as hearts {
    color = red
}
object "Clubs:clubsSuite" as clubs {
    color = black
}

object "Spaces:spacesSuite" as spaces{
    color = black
}

myKlondike *- -> player
myKlondike *- -> goal
myKlondike *-down-> board

player - -> goal

board *- -> stockPile
board *- -> wastePile
board *- -> clubsFoundation
board *- -> diamondsFoundation
board *- -> tableauPile1
board *- -> tableauPile7

stockPile o- -> card1
stockPile o- -> card30
stockPile o- -> card23

together {
    tableauPile1 o- -> card24
    tableauPile7 o- -> card25
}

card1  *- -> diamond
card23 *- -> hearts
card25 *- -> hearts
card24 *- -> clubs
card30 *- -> spaces


@enduml

PlantUML version 1.2022.0(Tue Jan 11 17:16:42 CET 2022)
(GPL source distribution)
Java Runtime: Java(TM) SE Runtime Environment
JVM: Java HotSpot(TM) 64-Bit Server VM
Default Encoding: Cp1252
Language: es
Country: ES
--></g></svg>