<?xml version="1.0" encoding="UTF-8" standalone="no"?><svg xmlns="http://www.w3.org/2000/svg" xmlns:xlink="http://www.w3.org/1999/xlink" contentScriptType="application/ecmascript" contentStyleType="text/css" height="542px" preserveAspectRatio="none" style="width:1586px;height:542px;background:#FFFFFF;" version="1.1" viewBox="0 0 1586 542" width="1586px" zoomAndPan="magnify"><defs><filter height="300%" id="fn1qyfh4tk3yu" width="300%" x="-1" y="-1"><feGaussianBlur result="blurOut" stdDeviation="2.0"/><feColorMatrix in="blurOut" result="blurOut2" type="matrix" values="0 0 0 0 0 0 0 0 0 0 0 0 0 0 0 0 0 0 .4 0"/><feOffset dx="4.0" dy="4.0" in="blurOut2" result="blurOut3"/><feBlend in="SourceGraphic" in2="blurOut3" mode="normal"/></filter></defs><g><text fill="#000000" font-family="sans-serif" font-size="18" lengthAdjust="spacing" textLength="167" x="703" y="18.6855">Klondike. Initial State</text><polygon fill="#FEFECE" filter="url(#fn1qyfh4tk3yu)" points="113.5,29.6406,113.5,29.8508,123.4231,29.2263,133.3462,29.8339,143.2692,30.0403,153.1923,28.9272,163.1154,29.5629,173.0385,29.2141,182.9615,29.2571,192.8846,29.5725,202.8077,28.9493,212.7308,30.1943,222.6538,29.0103,232.5769,29.4429,242.5,29.6406,242.9319,29.6406,242.4142,40.0906,242.5682,50.5406,242.4681,60.9906,242.6785,71.4406,242.5,81.8906,242.5,82.1298,232.5769,82.4763,222.6538,82.5617,212.7308,82.5699,202.8077,82.1453,192.8846,82.3542,182.9615,82.5929,173.0385,81.1694,163.1154,82.5691,153.1923,81.5941,143.2692,82.4244,133.3462,81.3956,123.4231,81.8221,113.5,81.8906,114.2416,81.8906,113.4513,71.4406,113.6053,60.9906,113.8386,50.5406,113.9162,40.0906,113.5,29.6406" style="stroke:#A80036;stroke-width:1.5;"/><text fill="#000000" font-family="sans-serif" font-size="12" lengthAdjust="spacing" textLength="115" x="120.5" y="44.0977">Klondike:myKlondike</text><path d="M114.5,48.7344 L114.5,49.0146 L124.2692,48.1819 L134.0385,48.9921 L143.8077,49.2673 L153.5769,47.7832 L163.3462,48.6308 L173.1154,48.1657 L182.8846,48.223 L192.6538,48.6435 L202.4231,47.8125 L212.1923,49.4726 L221.9615,47.894 L231.7308,48.4707 L241.5,48.7344 " fill="#FEFECE" style="stroke:#A80036;stroke-width:1.5;"/><text fill="#000000" font-family="sans-serif" font-size="10" lengthAdjust="spacing" textLength="53" x="119.5" y="63.1152">nGame = 1</text><text fill="#000000" font-family="sans-serif" font-size="10" lengthAdjust="spacing" textLength="44" x="119.5" y="75.6934">status = 1</text><polygon fill="#FEFECE" filter="url(#fn1qyfh4tk3yu)" points="30,253.6406,30,253.8508,40.2857,253.2263,50.5714,253.8339,60.8571,254.0403,71.1429,252.9272,81.4286,253.5629,91.7143,253.2141,102,253.6406,101.8722,253.6406,101.9773,261.575,101.7695,269.5094,102.1845,277.4438,101.7899,285.3781,102,293.3125,102,293.1147,91.7143,293.7444,81.4286,293.2267,71.1429,293.3807,60.8571,293.2806,50.5714,293.491,40.2857,293.5516,30,293.3125,30.1952,293.3125,30.2237,285.3781,30.2264,277.4438,30.0849,269.5094,30.1545,261.575,30,253.6406" style="stroke:#A80036;stroke-width:1.5;"/><text fill="#000000" font-family="sans-serif" font-size="12" lengthAdjust="spacing" textLength="53" x="39.5" y="268.0977">Goal:goal</text><path d="M31,272.7344 L31,273.0146 L41,272.1819 L51,272.9921 L61,273.2673 L71,271.7832 L81,272.6308 L91,272.1657 L101,272.7344 " fill="#FEFECE" style="stroke:#A80036;stroke-width:1.5;"/><text fill="#000000" font-family="sans-serif" font-size="10" lengthAdjust="spacing" textLength="60" x="36" y="287.1152">status = false</text><polygon fill="#FEFECE" filter="url(#fn1qyfh4tk3yu)" points="7,141.6406,7,141.8508,16.8333,141.2263,26.6667,141.8339,36.5,142.0403,46.3333,140.9272,56.1667,141.5629,66,141.2141,75.8333,141.2571,85.6667,141.5725,95.5,140.9493,105.3333,142.1943,115.1667,141.0103,125,141.6406,124.8022,141.6406,125.4319,152.0906,124.9142,162.5406,125.0682,172.9906,124.9681,183.4406,125,193.8906,125,194.0692,115.1667,194.1298,105.3333,194.4763,95.5,194.5617,85.6667,194.5699,75.8333,194.1453,66,194.3542,56.1667,194.5929,46.3333,193.1694,36.5,194.5691,26.6667,193.5941,16.8333,194.4244,7,193.8906,6.505,193.8906,6.9315,183.4406,7.7416,172.9906,6.9513,162.5406,7.1053,152.0906,7,141.6406" style="stroke:#A80036;stroke-width:1.5;"/><text fill="#000000" font-family="sans-serif" font-size="12" lengthAdjust="spacing" textLength="104" x="14" y="156.0977">Player:setilloPlayer</text><path d="M8,160.7344 L8,161.0146 L17.6667,160.1819 L27.3333,160.9921 L37,161.2673 L46.6667,159.7832 L56.3333,160.6308 L66,160.1657 L75.6667,160.223 L85.3333,160.6435 L95,159.8125 L104.6667,161.4726 L114.3333,159.894 L124,160.7344 " fill="#FEFECE" style="stroke:#A80036;stroke-width:1.5;"/><text fill="#000000" font-family="sans-serif" font-size="10" lengthAdjust="spacing" textLength="27" x="13" y="175.1152">id = 1</text><text fill="#000000" font-family="sans-serif" font-size="10" lengthAdjust="spacing" textLength="74" x="13" y="187.6934">name = 'Setillo'</text><polygon fill="#FEFECE" filter="url(#fn1qyfh4tk3yu)" points="531.5,150.1406,531.5,150.3508,541.4231,149.7263,551.3462,150.3339,561.2692,150.5403,571.1923,149.4272,581.1154,150.0629,591.0385,149.7141,600.9615,149.7571,610.8846,150.0725,620.8077,149.4493,630.7308,150.6943,640.6538,149.5103,650.5769,149.9429,660.5,150.1406,660.644,150.1406,660.4714,157.1594,660.5227,164.1781,660.4894,171.1969,660.5595,178.2156,660.5,185.2344,660.5,185.4735,650.5769,185.8201,640.6538,185.9054,630.7308,185.9136,620.8077,185.489,610.8846,185.698,600.9615,185.9366,591.0385,184.5132,581.1154,185.9129,571.1923,184.9379,561.2692,185.7682,551.3462,184.7394,541.4231,185.1659,531.5,185.2344,531.7472,185.2344,531.4838,178.2156,531.5351,171.1969,531.6129,164.1781,531.6387,157.1594,531.5,150.1406" style="stroke:#A80036;stroke-width:1.5;"/><text fill="#000000" font-family="sans-serif" font-size="12" lengthAdjust="spacing" textLength="115" x="538.5" y="164.5977">Board:klondikeBoard</text><path d="M532.5,169.2344 L532.5,169.5146 L542.2692,168.6819 L552.0385,169.4921 L561.8077,169.7673 L571.5769,168.2832 L581.3462,169.1308 L591.1154,168.6657 L600.8846,168.723 L610.6538,169.1435 L620.4231,168.3125 L630.1923,169.9726 L639.9615,168.394 L649.7308,168.9707 L659.5,169.2344 " fill="#FEFECE" style="stroke:#A80036;stroke-width:1.5;"/><polygon fill="#FEFECE" filter="url(#fn1qyfh4tk3yu)" points="859.5,253.6406,859.5,253.8508,869.2,253.2263,878.9,253.8339,888.6,254.0403,898.3,252.9272,908,253.5629,917.7,253.2141,927.4,253.2571,937.1,253.5725,946.8,252.9493,956.5,253.6406,956.6845,253.6406,956.2899,261.575,956.4341,269.5094,956.644,277.4438,956.4714,285.3781,956.5,293.3125,956.5,293.3807,946.8,293.2806,937.1,293.491,927.4,293.5516,917.7,293.8982,908,293.9836,898.3,293.9918,888.6,293.5671,878.9,293.7761,869.2,294.0147,859.5,293.3125,859.2596,293.3125,859.7262,285.3781,859.4012,277.4438,859.6779,269.5094,859.335,261.575,859.5,253.6406" style="stroke:#A80036;stroke-width:1.5;"/><text fill="#000000" font-family="sans-serif" font-size="12" lengthAdjust="spacing" textLength="83" x="866.5" y="268.0977">Stock:stockPile</text><path d="M860.5,272.7344 L860.5,273.0146 L870,272.1819 L879.5,272.9921 L889,273.2673 L898.5,271.7832 L908,272.6308 L917.5,272.1657 L927,272.223 L936.5,272.6435 L946,271.8125 L955.5,272.7344 " fill="#FEFECE" style="stroke:#A80036;stroke-width:1.5;"/><text fill="#000000" font-family="sans-serif" font-size="10" lengthAdjust="spacing" textLength="56" x="865.5" y="287.1152">nCards = 23</text><polygon fill="#FEFECE" filter="url(#fn1qyfh4tk3yu)" points="137,253.6406,137,253.8508,146.6364,253.2263,156.2727,253.8339,165.9091,254.0403,175.5455,252.9272,185.1818,253.5629,194.8182,253.2141,204.4545,253.2571,214.0909,253.5725,223.7273,252.9493,233.3636,254.1943,243,253.6406,242.7899,253.6406,242.9341,261.575,243.144,269.5094,242.9714,277.4438,243.0227,285.3781,243,293.3125,243,293.2806,233.3636,293.491,223.7273,293.5516,214.0909,293.8982,204.4545,293.9836,194.8182,293.9918,185.1818,293.5671,175.5455,293.7761,165.9091,294.0147,156.2727,292.5913,146.6364,293.991,137,293.3125,136.9012,293.3125,137.1779,285.3781,136.835,277.4438,136.9772,269.5094,137.2472,261.575,137,253.6406" style="stroke:#A80036;stroke-width:1.5;"/><text fill="#000000" font-family="sans-serif" font-size="12" lengthAdjust="spacing" textLength="92" x="144" y="268.0977">Waste:wastePile</text><path d="M138,272.7344 L138,273.0146 L148.4,272.1819 L158.8,272.9921 L169.2,273.2673 L179.6,271.7832 L190,272.6308 L200.4,272.1657 L210.8,272.223 L221.2,272.6435 L231.6,271.8125 L242,272.7344 " fill="#FEFECE" style="stroke:#A80036;stroke-width:1.5;"/><text fill="#000000" font-family="sans-serif" font-size="10" lengthAdjust="spacing" textLength="50" x="143" y="287.1152">nCards = 0</text><polygon fill="#FEFECE" filter="url(#fn1qyfh4tk3yu)" points="278.5,253.6406,278.5,253.8508,288.35,253.2263,298.2,253.8339,308.05,254.0403,317.9,252.9272,327.75,253.5629,337.6,253.2141,347.45,253.2571,357.3,253.5725,367.15,252.9493,377,254.1943,386.85,253.0103,396.7,253.4429,406.55,254.0726,416.4,253.5548,426.25,253.7089,436.1,253.6087,445.95,253.8192,455.8,253.8798,465.65,254.2263,475.5,253.6406,475.7237,253.6406,475.7264,261.575,475.5849,269.5094,475.6545,277.4438,475.7341,285.3781,475.5,293.3125,475.5,292.5913,465.65,293.991,455.8,293.016,445.95,293.8463,436.1,292.8175,426.25,293.244,416.4,294.0541,406.55,293.2638,396.7,293.4178,386.85,293.6511,377,293.7287,367.15,293.3086,357.3,293.5997,347.45,292.7401,337.6,293.5969,327.75,293.8607,317.9,293.757,308.05,293.9255,298.2,292.8294,288.35,292.6603,278.5,293.3125,278.2929,293.3125,278.4804,285.3781,278.4345,277.4438,278.7271,269.5094,278.4418,261.575,278.5,253.6406" style="stroke:#A80036;stroke-width:1.5;"/><text fill="#000000" font-family="sans-serif" font-size="12" lengthAdjust="spacing" textLength="183" x="285.5" y="268.0977">Foundation:diamondsFoundation</text><path d="M279.5,272.7344 L279.5,273.0146 L289.25,272.1819 L299,272.9921 L308.75,273.2673 L318.5,271.7832 L328.25,272.6308 L338,272.1657 L347.75,272.223 L357.5,272.6435 L367.25,271.8125 L377,273.4726 L386.75,271.894 L396.5,272.4707 L406.25,273.3103 L416,272.62 L425.75,272.8254 L435.5,272.6918 L445.25,272.9724 L455,273.0532 L464.75,273.5153 L474.5,272.7344 " fill="#FEFECE" style="stroke:#A80036;stroke-width:1.5;"/><text fill="#000000" font-family="sans-serif" font-size="10" lengthAdjust="spacing" textLength="50" x="284.5" y="287.1152">nCards = 0</text><polygon fill="#FEFECE" filter="url(#fn1qyfh4tk3yu)" points="510.5,253.6406,510.5,253.8508,520.5588,253.2263,530.6176,253.8339,540.6765,254.0403,550.7353,252.9272,560.7941,253.5629,570.8529,253.2141,580.9118,253.2571,590.9706,253.5725,601.0294,252.9493,611.0882,254.1943,621.1471,253.0103,631.2059,253.4429,641.2647,254.0726,651.3235,253.5548,661.3824,253.7089,671.4412,253.6087,681.5,253.6406,681.5595,253.6406,681.5797,261.575,681.6952,269.5094,681.7237,277.4438,681.7264,285.3781,681.5,293.3125,681.5,293.5671,671.4412,293.7761,661.3824,294.0147,651.3235,292.5913,641.2647,293.991,631.2059,293.016,621.1471,293.8463,611.0882,292.8175,601.0294,293.244,590.9706,294.0541,580.9118,293.2638,570.8529,293.4178,560.7941,293.6511,550.7353,293.7287,540.6765,293.3086,530.6176,293.5997,520.5588,292.7401,510.5,293.3125,510.5948,293.3125,510.6827,285.3781,510.6482,277.4438,510.7043,269.5094,510.339,261.575,510.5,253.6406" style="stroke:#A80036;stroke-width:1.5;"/><text fill="#000000" font-family="sans-serif" font-size="12" lengthAdjust="spacing" textLength="157" x="517.5" y="268.0977">Foundation:clubsFoundation</text><path d="M511.5,272.7344 L511.5,273.0146 L521.4412,272.1819 L531.3824,272.9921 L541.3235,273.2673 L551.2647,271.7832 L561.2059,272.6308 L571.1471,272.1657 L581.0882,272.223 L591.0294,272.6435 L600.9706,271.8125 L610.9118,273.4726 L620.8529,271.894 L630.7941,272.4707 L640.7353,273.3103 L650.6765,272.62 L660.6176,272.8254 L670.5588,272.6918 L680.5,272.7344 " fill="#FEFECE" style="stroke:#A80036;stroke-width:1.5;"/><text fill="#000000" font-family="sans-serif" font-size="10" lengthAdjust="spacing" textLength="50" x="516.5" y="287.1152">nCards = 0</text><polygon fill="#FEFECE" filter="url(#fn1qyfh4tk3yu)" points="802,365.1406,802,365.3508,812,364.7263,822,365.3339,832,365.5403,842,364.4272,852,365.0629,862,364.7141,872,364.7571,882,365.1406,881.9318,365.1406,881.3086,375.5906,882.5536,386.0406,881.3697,396.4906,881.8022,406.9406,882,417.3906,882,417.8226,872,417.3048,862,417.4589,852,417.3587,842,417.5692,832,417.6298,822,417.9763,812,418.0617,802,417.3906,802.6793,417.3906,802.2546,406.9406,802.4636,396.4906,802.7022,386.0406,801.2788,375.5906,802,365.1406" style="stroke:#A80036;stroke-width:1.5;"/><text fill="#000000" font-family="sans-serif" font-size="12" lengthAdjust="spacing" textLength="61" x="811.5" y="379.5977">Card:card1</text><path d="M803,384.2344 L803,384.5146 L812.75,383.6819 L822.5,384.4921 L832.25,384.7673 L842,383.2832 L851.75,384.1308 L861.5,383.6657 L871.25,383.723 L881,384.2344 " fill="#FEFECE" style="stroke:#A80036;stroke-width:1.5;"/><text fill="#000000" font-family="sans-serif" font-size="10" lengthAdjust="spacing" textLength="56" x="808" y="398.6152">rank  = Nine</text><text fill="#000000" font-family="sans-serif" font-size="10" lengthAdjust="spacing" textLength="68" x="808" y="411.1934">faceUp = false</text><polygon fill="#FEFECE" filter="url(#fn1qyfh4tk3yu)" points="1034,365.1406,1034,365.3508,1044.25,364.7263,1054.5,365.3339,1064.75,365.5403,1075,364.4272,1085.25,365.0629,1095.5,364.7141,1105.75,364.7571,1116,365.1406,1115.9318,365.1406,1115.3086,375.5906,1116.5536,386.0406,1115.3697,396.4906,1115.8022,406.9406,1116,417.3906,1116,417.8226,1105.75,417.3048,1095.5,417.4589,1085.25,417.3587,1075,417.5692,1064.75,417.6298,1054.5,417.9763,1044.25,418.0617,1034,417.3906,1034.6793,417.3906,1034.2546,406.9406,1034.4636,396.4906,1034.7022,386.0406,1033.2788,375.5906,1034,365.1406" style="stroke:#A80036;stroke-width:1.5;"/><text fill="#000000" font-family="sans-serif" font-size="12" lengthAdjust="spacing" textLength="68" x="1041" y="379.5977">Card:card23</text><path d="M1035,384.2344 L1035,384.5146 L1045,383.6819 L1055,384.4921 L1065,384.7673 L1075,383.2832 L1085,384.1308 L1095,383.6657 L1105,383.723 L1115,384.2344 " fill="#FEFECE" style="stroke:#A80036;stroke-width:1.5;"/><text fill="#000000" font-family="sans-serif" font-size="10" lengthAdjust="spacing" textLength="53" x="1040" y="398.6152">rank  = Ace</text><text fill="#000000" font-family="sans-serif" font-size="10" lengthAdjust="spacing" textLength="68" x="1040" y="411.1934">faceUp = false</text><polygon fill="#FEFECE" filter="url(#fn1qyfh4tk3yu)" points="685,365.1406,685,365.3508,695.25,364.7263,705.5,365.3339,715.75,365.5403,726,364.4272,736.25,365.0629,746.5,364.7141,756.75,364.7571,767,365.1406,766.9318,365.1406,766.3086,375.5906,767.5536,386.0406,766.3697,396.4906,766.8022,406.9406,767,417.3906,767,417.8226,756.75,417.3048,746.5,417.4589,736.25,417.3587,726,417.5692,715.75,417.6298,705.5,417.9763,695.25,418.0617,685,417.3906,685.6793,417.3906,685.2546,406.9406,685.4636,396.4906,685.7022,386.0406,684.2788,375.5906,685,365.1406" style="stroke:#A80036;stroke-width:1.5;"/><text fill="#000000" font-family="sans-serif" font-size="12" lengthAdjust="spacing" textLength="68" x="692" y="379.5977">Card:card24</text><path d="M686,384.2344 L686,384.5146 L696,383.6819 L706,384.4921 L716,384.7673 L726,383.2832 L736,384.1308 L746,383.6657 L756,383.723 L766,384.2344 " fill="#FEFECE" style="stroke:#A80036;stroke-width:1.5;"/><text fill="#000000" font-family="sans-serif" font-size="10" lengthAdjust="spacing" textLength="53" x="691" y="398.6152">rank = King</text><text fill="#000000" font-family="sans-serif" font-size="10" lengthAdjust="spacing" textLength="64" x="691" y="411.1934">faceUp = true</text><polygon fill="#FEFECE" filter="url(#fn1qyfh4tk3yu)" points="1490,365.1406,1490,365.3508,1500.25,364.7263,1510.5,365.3339,1520.75,365.5403,1531,364.4272,1541.25,365.0629,1551.5,364.7141,1561.75,364.7571,1572,365.1406,1571.9318,365.1406,1571.3086,375.5906,1572.5536,386.0406,1571.3697,396.4906,1571.8022,406.9406,1572,417.3906,1572,417.8226,1561.75,417.3048,1551.5,417.4589,1541.25,417.3587,1531,417.5692,1520.75,417.6298,1510.5,417.9763,1500.25,418.0617,1490,417.3906,1490.6793,417.3906,1490.2546,406.9406,1490.4636,396.4906,1490.7022,386.0406,1489.2788,375.5906,1490,365.1406" style="stroke:#A80036;stroke-width:1.5;"/><text fill="#000000" font-family="sans-serif" font-size="12" lengthAdjust="spacing" textLength="68" x="1497" y="379.5977">Card:card25</text><path d="M1491,384.2344 L1491,384.5146 L1501,383.6819 L1511,384.4921 L1521,384.7673 L1531,383.2832 L1541,384.1308 L1551,383.6657 L1561,383.723 L1571,384.2344 " fill="#FEFECE" style="stroke:#A80036;stroke-width:1.5;"/><text fill="#000000" font-family="sans-serif" font-size="10" lengthAdjust="spacing" textLength="51" x="1496" y="398.6152">rank = Two</text><text fill="#000000" font-family="sans-serif" font-size="10" lengthAdjust="spacing" textLength="64" x="1496" y="411.1934">faceUp = true</text><polygon fill="#FEFECE" filter="url(#fn1qyfh4tk3yu)" points="917,365.1406,917,365.3508,927.25,364.7263,937.5,365.3339,947.75,365.5403,958,364.4272,968.25,365.0629,978.5,364.7141,988.75,364.7571,999,365.1406,998.9318,365.1406,998.3086,375.5906,999.5536,386.0406,998.3697,396.4906,998.8022,406.9406,999,417.3906,999,417.8226,988.75,417.3048,978.5,417.4589,968.25,417.3587,958,417.5692,947.75,417.6298,937.5,417.9763,927.25,418.0617,917,417.3906,917.6793,417.3906,917.2546,406.9406,917.4636,396.4906,917.7022,386.0406,916.2788,375.5906,917,365.1406" style="stroke:#A80036;stroke-width:1.5;"/><text fill="#000000" font-family="sans-serif" font-size="12" lengthAdjust="spacing" textLength="68" x="924" y="379.5977">Card:card30</text><path d="M918,384.2344 L918,384.5146 L928,383.6819 L938,384.4921 L948,384.7673 L958,383.2832 L968,384.1308 L978,383.6657 L988,383.723 L998,384.2344 " fill="#FEFECE" style="stroke:#A80036;stroke-width:1.5;"/><text fill="#000000" font-family="sans-serif" font-size="10" lengthAdjust="spacing" textLength="55" x="923" y="398.6152">rank  = Four</text><text fill="#000000" font-family="sans-serif" font-size="10" lengthAdjust="spacing" textLength="68" x="923" y="411.1934">faceUp = false</text><polygon fill="#FEFECE" filter="url(#fn1qyfh4tk3yu)" points="1261.5,253.6406,1261.5,253.8508,1271.875,253.2263,1282.25,253.8339,1292.625,254.0403,1303,252.9272,1313.375,253.5629,1323.75,253.2141,1334.125,253.2571,1344.5,253.6406,1344.4773,253.6406,1344.2695,261.575,1344.6845,269.5094,1344.2899,277.4438,1344.4341,285.3781,1344.5,293.3125,1344.5,293.7444,1334.125,293.2267,1323.75,293.3807,1313.375,293.2806,1303,293.491,1292.625,293.5516,1282.25,293.8982,1271.875,293.9836,1261.5,293.3125,1261.7264,293.3125,1261.5849,285.3781,1261.6545,277.4438,1261.7341,269.5094,1261.2596,261.575,1261.5,253.6406" style="stroke:#A80036;stroke-width:1.5;"/><text fill="#000000" font-family="sans-serif" font-size="12" lengthAdjust="spacing" textLength="69" x="1268.5" y="268.0977">tableauPile7</text><path d="M1262.5,272.7344 L1262.5,273.0146 L1272.625,272.1819 L1282.75,272.9921 L1292.875,273.2673 L1303,271.7832 L1313.125,272.6308 L1323.25,272.1657 L1333.375,272.223 L1343.5,272.7344 " fill="#FEFECE" style="stroke:#A80036;stroke-width:1.5;"/><text fill="#000000" font-family="sans-serif" font-size="10" lengthAdjust="spacing" textLength="50" x="1267.5" y="287.1152">nCards = 7</text><path d="M1151.5,353.6406 L1151.5,429.0469 A0,0 0 0 0 1151.5,429.0469 L1454.5,429.0469 A0,0 0 0 0 1454.5,429.0469 L1454.5,363.6406 L1444.5,353.6406 L1307,353.6406 L1303,293.7106 L1299,353.6406 L1151.5,353.6406 A0,0 0 0 0 1151.5,353.6406 " fill="#FBFB77" filter="url(#fn1qyfh4tk3yu)" style="stroke:#A80036;stroke-width:1.0;"/><path d="M1444.5,353.6406 L1444.6868,353.6406 L1444.1317,355.6406 L1444.6718,357.6406 L1444.8553,359.6406 L1443.8659,361.6406 L1444.5,363.6406 L1444.5,363.5715 L1446.5,363.2615 L1448.5,363.2997 L1450.5,363.58 L1452.5,363.0261 L1454.5,363.6406 L1454.848,363.9886 L1452.1038,361.2445 L1450.3757,359.5163 L1448.7715,357.9121 L1446.4461,355.5867 L1444.5,353.6406 " fill="#FBFB77" style="stroke:#A80036;stroke-width:1.0;"/><text fill="#000000" font-family="sans-serif" font-size="13" lengthAdjust="spacing" textLength="113" x="1157.5" y="372.1357">7 total tableau piles</text><text fill="#000000" font-family="sans-serif" font-size="13" lengthAdjust="spacing" textLength="170" x="1157.5" y="388.4873">Last card face up in each pile</text><text fill="#000000" font-family="sans-serif" font-size="13" lengthAdjust="spacing" textLength="278" x="1157.5" y="404.8389">0, 1, 2, 3, 4, 5 &amp; 6 face down cards in each pile,</text><text fill="#000000" font-family="sans-serif" font-size="13" lengthAdjust="spacing" textLength="155" x="1157.5" y="421.1904">repectively, from 1 to 7 pile</text><path d="M492,369.6406 L492,412.3438 A0,0 0 0 0 492,412.3438 L650,412.3438 A0,0 0 0 0 650,412.3438 L650,379.6406 L640,369.6406 L579.47,369.6406 L591.87,293.7106 L571.47,369.6406 L492,369.6406 A0,0 0 0 0 492,369.6406 " fill="#FBFB77" filter="url(#fn1qyfh4tk3yu)" style="stroke:#A80036;stroke-width:1.0;"/><path d="M640,369.6406 L640.1868,369.6406 L639.6317,371.6406 L640.1718,373.6406 L640.3553,375.6406 L639.3659,377.6406 L640,379.6406 L640,379.5715 L642,379.2615 L644,379.2997 L646,379.58 L648,379.0261 L650,379.6406 L650.348,379.9886 L647.6038,377.2445 L645.8757,375.5163 L644.2715,373.9121 L641.9461,371.5867 L640,369.6406 " fill="#FBFB77" style="stroke:#A80036;stroke-width:1.0;"/><text fill="#000000" font-family="sans-serif" font-size="13" lengthAdjust="spacing" textLength="137" x="498" y="388.1357">4 total foundations piles</text><text fill="#000000" font-family="sans-serif" font-size="13" lengthAdjust="spacing" textLength="70" x="498" y="404.4873">with no card</text><polygon fill="#FEFECE" filter="url(#fn1qyfh4tk3yu)" points="716.5,253.6406,716.5,253.8508,726.875,253.2263,737.25,253.8339,747.625,254.0403,758,252.9272,768.375,253.5629,778.75,253.2141,789.125,253.2571,799.5,253.6406,799.4773,253.6406,799.2695,261.575,799.6845,269.5094,799.2899,277.4438,799.4341,285.3781,799.5,293.3125,799.5,293.7444,789.125,293.2267,778.75,293.3807,768.375,293.2806,758,293.491,747.625,293.5516,737.25,293.8982,726.875,293.9836,716.5,293.3125,716.7264,293.3125,716.5849,285.3781,716.6545,277.4438,716.7341,269.5094,716.2596,261.575,716.5,253.6406" style="stroke:#A80036;stroke-width:1.5;"/><text fill="#000000" font-family="sans-serif" font-size="12" lengthAdjust="spacing" textLength="69" x="723.5" y="268.0977">tableauPile1</text><path d="M717.5,272.7344 L717.5,273.0146 L727.625,272.1819 L737.75,272.9921 L747.875,273.2673 L758,271.7832 L768.125,272.6308 L778.25,272.1657 L788.375,272.223 L798.5,272.7344 " fill="#FEFECE" style="stroke:#A80036;stroke-width:1.5;"/><text fill="#000000" font-family="sans-serif" font-size="10" lengthAdjust="spacing" textLength="50" x="722.5" y="287.1152">nCards = 1</text><polygon fill="#FEFECE" filter="url(#fn1qyfh4tk3yu)" points="762.5,488.6406,762.5,488.8508,772.4375,488.2263,782.375,488.8339,792.3125,489.0403,802.25,487.9272,812.1875,488.5629,822.125,488.2141,832.0625,488.2571,842,488.5725,851.9375,487.9493,861.875,489.1943,871.8125,488.0103,881.75,488.4429,891.6875,489.0726,901.625,488.5548,911.5625,488.7089,921.5,488.6406,921.4894,488.6406,921.5595,496.575,921.5797,504.5094,921.6952,512.4438,921.7237,520.3781,921.5,528.3125,921.5,528.9918,911.5625,528.5671,901.625,528.7761,891.6875,529.0147,881.75,527.5913,871.8125,528.991,861.875,528.016,851.9375,528.8463,842,527.8175,832.0625,528.244,822.125,529.0541,812.1875,528.2638,802.25,528.4178,792.3125,528.6511,782.375,528.7287,772.4375,528.3086,762.5,528.3125,762.5957,528.3125,762.3092,520.3781,762.5948,512.4438,762.6827,504.5094,762.6482,496.575,762.5,488.6406" style="stroke:#A80036;stroke-width:1.5;"/><text fill="#000000" font-family="sans-serif" font-size="12" lengthAdjust="spacing" textLength="145" x="769.5" y="503.0977">Diamonds:diamondsSuite</text><path d="M763.5,507.7344 L763.5,508.0146 L773.3125,507.1819 L783.125,507.9921 L792.9375,508.2673 L802.75,506.7832 L812.5625,507.6308 L822.375,507.1657 L832.1875,507.223 L842,507.6435 L851.8125,506.8125 L861.625,508.4726 L871.4375,506.894 L881.25,507.4707 L891.0625,508.3103 L900.875,507.62 L910.6875,507.8254 L920.5,507.7344 " fill="#FEFECE" style="stroke:#A80036;stroke-width:1.5;"/><text fill="#000000" font-family="sans-serif" font-size="10" lengthAdjust="spacing" textLength="51" x="768.5" y="522.1152">color = red</text><polygon fill="#FEFECE" filter="url(#fn1qyfh4tk3yu)" points="1296.5,488.6406,1296.5,488.8508,1306.25,488.2263,1316,488.8339,1325.75,489.0403,1335.5,487.9272,1345.25,488.5629,1355,488.2141,1364.75,488.2571,1374.5,488.5725,1384.25,487.9493,1394,489.1943,1403.75,488.0103,1413.5,488.6406,1413.4341,488.6406,1413.644,496.575,1413.4714,504.5094,1413.5227,512.4438,1413.4894,520.3781,1413.5,528.3125,1413.5,528.491,1403.75,528.5516,1394,528.8982,1384.25,528.9836,1374.5,528.9918,1364.75,528.5671,1355,528.7761,1345.25,529.0147,1335.5,527.5913,1325.75,528.991,1316,528.016,1306.25,528.8463,1296.5,528.3125,1296.335,528.3125,1296.4772,520.3781,1296.7472,512.4438,1296.4838,504.5094,1296.5351,496.575,1296.5,488.6406" style="stroke:#A80036;stroke-width:1.5;"/><text fill="#000000" font-family="sans-serif" font-size="12" lengthAdjust="spacing" textLength="103" x="1303.5" y="503.0977">Hearst:heartsSuite</text><path d="M1297.5,507.7344 L1297.5,508.0146 L1307.0833,507.1819 L1316.6667,507.9921 L1326.25,508.2673 L1335.8333,506.7832 L1345.4167,507.6308 L1355,507.1657 L1364.5833,507.223 L1374.1667,507.6435 L1383.75,506.8125 L1393.3333,508.4726 L1402.9167,506.894 L1412.5,507.7344 " fill="#FEFECE" style="stroke:#A80036;stroke-width:1.5;"/><text fill="#000000" font-family="sans-serif" font-size="10" lengthAdjust="spacing" textLength="51" x="1302.5" y="522.1152">color = red</text><polygon fill="#FEFECE" filter="url(#fn1qyfh4tk3yu)" points="619,488.6406,619,488.8508,628.8182,488.2263,638.6364,488.8339,648.4545,489.0403,658.2727,487.9272,668.0909,488.5629,677.9091,488.2141,687.7273,488.2571,697.5455,488.5725,707.3636,487.9493,717.1818,489.1943,727,488.6406,726.7899,488.6406,726.9341,496.575,727.144,504.5094,726.9714,512.4438,727.0227,520.3781,727,528.3125,727,528.2806,717.1818,528.491,707.3636,528.5516,697.5455,528.8982,687.7273,528.9836,677.9091,528.9918,668.0909,528.5671,658.2727,528.7761,648.4545,529.0147,638.6364,527.5913,628.8182,528.991,619,528.3125,618.9012,528.3125,619.1779,520.3781,618.835,512.4438,618.9772,504.5094,619.2472,496.575,619,488.6406" style="stroke:#A80036;stroke-width:1.5;"/><text fill="#000000" font-family="sans-serif" font-size="12" lengthAdjust="spacing" textLength="94" x="626" y="503.0977">Clubs:clubsSuite</text><path d="M620,507.7344 L620,508.0146 L629.6364,507.1819 L639.2727,507.9921 L648.9091,508.2673 L658.5455,506.7832 L668.1818,507.6308 L677.8182,507.1657 L687.4545,507.223 L697.0909,507.6435 L706.7273,506.8125 L716.3636,508.4726 L726,507.7344 " fill="#FEFECE" style="stroke:#A80036;stroke-width:1.5;"/><text fill="#000000" font-family="sans-serif" font-size="10" lengthAdjust="spacing" textLength="61" x="625" y="522.1152">color = black</text><polygon fill="#FEFECE" filter="url(#fn1qyfh4tk3yu)" points="957,488.6406,957,488.8508,966.8462,488.2263,976.6923,488.8339,986.5385,489.0403,996.3846,487.9272,1006.2308,488.5629,1016.0769,488.2141,1025.9231,488.2571,1035.7692,488.5725,1045.6154,487.9493,1055.4615,489.1943,1065.3077,488.0103,1075.1538,488.4429,1085,488.6406,1085.144,488.6406,1084.9714,496.575,1085.0227,504.5094,1084.9894,512.4438,1085.0595,520.3781,1085,528.3125,1085,528.5516,1075.1538,528.8982,1065.3077,528.9836,1055.4615,528.9918,1045.6154,528.5671,1035.7692,528.7761,1025.9231,529.0147,1016.0769,527.5913,1006.2308,528.991,996.3846,528.016,986.5385,528.8463,976.6923,527.8175,966.8462,528.244,957,528.3125,957.2472,528.3125,956.9838,520.3781,957.0351,512.4438,957.1129,504.5094,957.1387,496.575,957,488.6406" style="stroke:#A80036;stroke-width:1.5;"/><text fill="#000000" font-family="sans-serif" font-size="12" lengthAdjust="spacing" textLength="114" x="964" y="503.0977">Spaces:spacesSuite</text><path d="M958,507.7344 L958,508.0146 L967.6923,507.1819 L977.3846,507.9921 L987.0769,508.2673 L996.7692,506.7832 L1006.4615,507.6308 L1016.1538,507.1657 L1025.8462,507.223 L1035.5385,507.6435 L1045.2308,506.8125 L1054.9231,508.4726 L1064.6154,506.894 L1074.3077,507.4707 L1084,507.7344 " fill="#FEFECE" style="stroke:#A80036;stroke-width:1.5;"/><text fill="#000000" font-family="sans-serif" font-size="10" lengthAdjust="spacing" textLength="61" x="963" y="522.1152">color = black</text><!--MD5=[07dd720996138132cabe80b3693ac342]
link myKlondike to player--><path d="M143.7425,90.2931 L143.9389,90.493 L136.2184,96.9068 L129.6489,104.4928 L122.7046,111.6971 L114.5277,117.6461 L107.9845,125.2588 L100.92,132.3406 " fill="none" style="stroke:#A80036;stroke-width:1.0;"/><polygon fill="#A80036" points="91.58,141.5206,91.6046,141.5862,93.376,140.6999,95.2915,140.1982,97.1601,139.5713,98.8744,138.5325,100.8023,138.0638,100.802,138.0379,99.6697,137.912,98.5385,137.9166,97.4081,138.0121,96.275,137.7947,95.1456,138.0154,95.3302,138.017,94.9452,136.8823,95.099,135.7522,95.3186,134.6227,95.1557,133.4899,95.194,132.3588,95.2151,132.3671,94.4613,134.1872,93.8037,136.0454,93.0997,137.8851,92.4844,139.7599,91.58,141.5206" style="stroke:#A80036;stroke-width:1.0;"/><path d="M95.1456,138.0154 L95.2111,138.0821 L96.1575,136.7641 L97.4876,135.8368 L98.6927,134.7823 L99.487,133.3093 L100.85,132.4156 " fill="#A80036" style="stroke:#A80036;stroke-width:1.0;"/><polygon fill="#A80036" points="152.3,81.8806,152.3132,81.9494,150.8575,82.0157,149.4789,82.4854,148.0753,82.8237,146.589,82.73,145.2171,83.2344,145.1917,83.2291,144.783,84.617,144.5021,86.0317,144.3101,87.4649,143.8118,88.8342,143.7425,90.2931,143.7772,90.4743,145.1196,89.816,146.5633,89.6868,148.0193,89.6223,149.4035,89.182,150.8254,88.9393,150.8477,88.944,151.1099,87.5254,151.4735,86.128,151.7882,84.7204,152.1962,83.3323,152.3,81.8806" style="stroke:#A80036;stroke-width:1.0;"/><!--MD5=[80ccac3c40792434d6b02a71eeec0756]
link myKlondike to goal--><path d="M173.4541,93.684 L173.5454,93.704 L172.7774,95.9023 L172.5441,98.2183 L172.1368,100.496 L171.1567,102.6476 L170.9694,104.9738 L170.9358,104.9658 L170.2028,107.3741 L169.6391,109.8228 L169.1932,112.2995 L168.3415,114.6796 L168.0581,117.1951 L168.2964,117.2565 L167.0167,120.11 L166.4326,123.143 L165.9334,126.1979 L164.9404,129.1253 L164.2071,132.1198 L164.2362,132.1281 L163.2612,135.3894 L162.419,138.6885 L161.5127,141.9694 L160.7286,145.2851 L159.546,148.4873 L159.8299,148.579 L158.7651,151.89 L157.5172,155.142 L156.5373,158.4805 L155.57,161.823 L154.2047,165.0371 L153.9052,164.923 L153.3081,168.2387 L151.7248,171.1787 L150.8913,174.4043 L149.2856,177.3358 L148.3128,180.5084 L148.2854,180.4952 L147.3473,183.2776 L145.7682,185.7519 L144.5673,188.408 L143.3982,191.0794 L142,193.6406 L142.1558,193.7404 L140.1937,196.4578 L138.4979,199.3456 L136.3713,201.9576 L134.8872,204.981 L132.9759,207.7309 L133.1676,207.8813 L131.0337,210.5273 L128.9949,213.248 L126.5139,215.6217 L124.3571,218.2498 L122.4875,221.1031 L122.2831,220.9174 L120.2152,223.5642 L117.917,226.0018 L115.9528,228.7429 L113.4183,230.9657 L111.2228,233.4966 L111.116,233.3878 L109.0234,235.7997 L106.474,237.7468 L104.2494,240.0244 L102.3427,242.6256 L99.87,244.6506 " fill="none" style="stroke:#A80036;stroke-width:1.0;"/><polygon fill="#A80036" points="89.92,253.6106,89.9418,253.6772,91.7494,252.8674,93.6846,252.448,95.5783,251.9014,97.3353,250.9368,99.2815,250.5509,99.2802,250.525,98.1443,250.3509,97.0152,250.3072,95.8907,250.3542,94.7502,250.0888,93.6321,250.261,93.8164,250.2704,93.4803,249.1203,93.6822,247.9978,93.9499,246.8787,93.8355,245.7399,93.922,244.6115,93.9428,244.6208,93.1119,246.407,92.3756,248.2353,91.5936,250.0434,90.8988,251.8901,89.92,253.6106" style="stroke:#A80036;stroke-width:1.0;"/><path d="M93.6321,250.261 L93.6946,250.3304 L94.6985,249.054 L96.0687,248.1847 L97.3196,247.1828 L98.1784,245.745 L99.58,244.9106 " fill="#A80036" style="stroke:#A80036;stroke-width:1.0;"/><polygon fill="#A80036" points="175.26,81.8206,175.3118,81.8678,174.1864,82.7935,173.3647,83.9959,172.444,85.1082,171.1983,85.9242,170.4026,87.1503,170.3792,87.1394,170.8841,88.3969,171.5074,89.7097,172.2129,91.0609,172.635,92.2797,173.4541,93.684,173.5905,93.8083,174.2703,92.4765,175.3484,91.5077,176.475,90.5831,177.3189,89.4009,178.3115,88.3543,178.3321,88.3639,177.6916,87.043,177.1448,85.766,176.5528,84.4678,176.0472,83.21,175.26,81.8206" style="stroke:#A80036;stroke-width:1.0;"/><!--MD5=[6b236512f49617fb9349ca6db5e2cc1a]
link myKlondike to board--><path d="M254.4568,76.7574 L254.5281,77.0284 L263.8163,78.7233 L273.5226,82.0069 L283.0927,84.7731 L292.2152,85.838 L301.931,89.1578 L311.3127,91.2082 L320.8274,93.7637 L330.4346,96.6704 L339.7232,98.367 L349.6458,102.4724 L358.7442,103.446 L368.391,106.5038 L378.1048,109.8159 L387.4293,111.6484 L396.9817,114.3471 L406.4478,116.7181 L416.0193,119.4896 L425.54,122.0678 L435.1577,125.0148 L444.6868,127.625 L454.1897,130.1357 L463.5457,132.0883 L473.1167,134.8578 L482.6978,137.6656 L491.7149,138.3304 L501.69,142.6353 L510.8593,143.8782 L520.46,146.7606 " fill="none" style="stroke:#A80036;stroke-width:1.0;"/><polygon fill="#A80036" points="533.05,150.0706,533.0938,150.1253,531.4255,148.7324,530.0138,147.6602,528.5185,146.4835,526.7485,144.9634,525.3588,143.9188,525.3364,143.9057,525.807,144.8238,526.3903,145.8077,527.052,146.8375,527.4436,147.7094,528.2135,148.8025,528.3066,148.9618,527.1307,149.192,526.2267,149.8874,525.3559,150.6396,524.2921,151.0616,523.3298,151.6572,523.3334,151.6796,525.2721,151.3294,527.2274,151.0813,529.1747,150.7839,531.1374,150.5806,533.05,150.0706" style="stroke:#A80036;stroke-width:1.0;"/><path d="M528.2135,148.8025 L528.2373,148.8928 L526.6189,148.217 L525.14,148.0708 L523.6156,147.7522 L521.942,146.8664 L520.475,146.7656 " fill="#A80036" style="stroke:#A80036;stroke-width:1.0;"/><polygon fill="#A80036" points="242.85,73.7106,242.9024,73.7571,243.7043,74.6974,244.8133,75.9103,245.8223,77.0345,246.5024,77.8666,247.6378,79.1029,247.6294,79.0784,248.9553,78.4994,250.3238,78.0438,251.7218,77.6741,253.018,77.0086,254.4568,76.7574,254.5948,76.8799,253.3421,75.5394,252.4924,74.5567,251.6918,73.6176,250.6052,72.4246,249.669,71.3651,249.6764,71.3866,248.3017,71.8241,246.9607,72.3596,245.6035,72.8478,244.2773,73.4261,242.85,73.7106" style="stroke:#A80036;stroke-width:1.0;"/><!--MD5=[dc3ce9bb748f29abe953416d64d14ca9]
link player to goal--><path d="M66,193.8206 L66.2802,193.8206 L65.4476,204.7006 L66.2577,215.5806 L66.5329,226.4606 L65.0488,237.3406 L66,248.2206 " fill="none" style="stroke:#A80036;stroke-width:1.0;"/><polygon fill="#A80036" points="66,253.5606,66.064,253.5891,66.6738,251.7045,67.6589,249.9868,68.5217,248.2147,68.9827,246.264,70,244.5606,69.9817,244.5423,69.0995,245.2601,68.3096,246.0702,67.5839,246.9446,66.637,247.5977,66,248.5606,66.1305,248.6911,65.0514,247.6121,64.3534,246.914,63.7018,246.2624,62.7798,245.3404,62,244.5606,62.0208,244.5699,62.7903,246.3563,63.6544,248.1848,64.4728,249.993,65.3784,251.8399,66,253.5606" style="stroke:#A80036;stroke-width:1.0;"/><!--MD5=[e2b9286a6e0ed5484b113f424108e554]
link board to stockPile--><path d="M657.1668,189.0174 L657.2555,189.2833 L666.4753,191.655 L676.2147,195.5852 L685.7849,199.008 L694.7986,200.7617 L704.5499,204.7274 L713.8859,207.4479 L723.3872,210.664 L733.0034,214.2245 L742.2237,216.5979 L752.2319,221.3343 L761.2158,222.9985 L770.8813,226.7072 L780.63,230.6654 L789.8949,233.1722 L799.443,236.5286 L808.8839,239.5636 L818.4558,242.9915 L827.9645,246.2298 L837.5938,249.8298 L846.83,252.2506 " fill="none" style="stroke:#A80036;stroke-width:1.0;"/><polygon fill="#A80036" points="859.42,256.4506,859.4673,256.5023,857.8727,255.02,856.5551,253.8409,855.1473,252.563,853.4429,250.9604,852.1491,249.8073,852.1259,249.7957,852.5275,250.7559,853.0459,251.7744,853.6456,252.8335,853.9654,253.7527,854.6771,254.8678,854.7596,255.0329,853.5711,255.1855,852.6235,255.8201,851.7052,256.5135,850.6159,256.8647,849.6166,257.3959,849.6188,257.4185,851.5763,257.1962,853.5437,257.077,855.5063,256.9081,857.4781,256.834,859.42,256.4506" style="stroke:#A80036;stroke-width:1.0;"/><path d="M854.6771,254.8678 L854.7067,254.9564 L853.1014,254.1867 L851.6695,253.9364 L850.1811,253.517 L848.507,252.5413 L847.09,252.3356 " fill="#A80036" style="stroke:#A80036;stroke-width:1.0;"/><polygon fill="#A80036" points="645.78,185.2306,645.8353,185.2737,646.5573,186.2836,647.6033,187.5458,648.5438,188.7259,649.1373,189.6357,650.2111,190.9196,650.2043,190.8947,651.5648,190.4021,652.9597,190.0355,654.3786,189.7564,655.7149,189.1756,657.1668,189.0174,657.3124,189.1308,656.1149,187.7505,655.3424,186.7013,654.6217,185.6925,653.5994,184.4487,652.7357,183.3284,652.7417,183.3504,651.3417,183.6986,649.9691,184.1467,648.5833,184.5466,647.2226,185.0385,645.78,185.2306" style="stroke:#A80036;stroke-width:1.0;"/><!--MD5=[11d36bc7cb4129f6f7429d8d353a258b]
link board to wastePile--><path d="M519.7591,187.6842 L519.8278,187.9558 L509.9943,189.5839 L500.5636,192.8047 L491.0017,195.5068 L481.0085,196.5033 L471.587,199.7603 L461.8437,201.7448 L452.2284,204.2357 L442.7022,207.0786 L432.8691,208.7084 L423.4658,212.0374 L423.6479,212.7528 L413.8348,213.6224 L404.5535,216.5806 L395.337,219.7936 L385.7431,221.5241 L376.3701,224.1225 L366.9135,226.3924 L357.5591,229.0637 L348.1554,231.5414 L338.6531,233.6318 L338.848,234.388 L329.1697,236.9993 L319.4658,239.511 L309.6179,241.4639 L299.9808,244.2348 L290.3536,247.044 L280.1734,247.7073 L270.9324,252.0156 L261,253.6406 L260.9666,253.5131 L260.0141,254.1441 L258.8522,253.9758 L257.8543,254.4332 L256.8995,255.0555 L255.77,255.0106 " fill="none" style="stroke:#A80036;stroke-width:1.0;"/><polygon fill="#A80036" points="243.1,258.3506,243.1111,258.4198,245.023,258.5264,247,259.0384,248.9558,259.4184,250.8419,259.3642,252.8245,259.9111,252.8114,259.8887,251.7748,259.2198,250.8037,258.6639,249.8782,258.1865,248.7956,257.4385,247.9331,257.0695,248.0927,257.1622,248.3197,255.9857,249.0127,255.0798,249.7625,254.207,250.1816,253.142,250.7747,252.1781,250.7889,252.1959,249.233,253.4043,247.7421,254.6935,246.2198,255.9437,244.7573,257.2683,243.1,258.3506" style="stroke:#A80036;stroke-width:1.0;"/><path d="M247.9331,257.0695 L247.9568,257.1598 L249.4326,256.4846 L251.0477,256.339 L252.6174,256.021 L254.038,255.1358 L255.665,255.0356 " fill="#A80036" style="stroke:#A80036;stroke-width:1.0;"/><polygon fill="#A80036" points="531.4,184.7706,531.4235,184.8366,529.9953,184.1558,528.705,183.8619,527.3698,183.442,525.8868,182.6078,524.6084,182.3471,524.5892,182.3297,523.5333,183.3189,522.574,184.3959,521.682,185.534,520.5584,186.4618,519.7591,187.6842,519.8211,187.858,521.0468,187.971,522.4536,188.5915,523.8824,189.2739,525.1828,189.5961,526.5507,190.1077,526.5675,190.123,527.5127,189.0331,528.5345,188.0129,529.5193,186.9591,530.5746,185.9693,531.4,184.7706" style="stroke:#A80036;stroke-width:1.0;"/><!--MD5=[74db22bb4b12d89f9d0bc88ff04086ba]
link board to clubsFoundation--><path d="M596,197.3506 L596.0934,197.3506 L595.8159,205.9726 L596.0859,214.5946 L596.1776,223.2166 L595.6829,231.8386 L596,240.4606 " fill="none" style="stroke:#A80036;stroke-width:1.0;"/><polygon fill="#A80036" points="596,253.5006,596.064,253.5291,596.6738,251.6445,597.6589,249.9268,598.5217,248.1547,598.9827,246.204,600,244.5006,599.9817,244.4823,599.0995,245.2001,598.3096,246.0102,597.5839,246.8846,596.637,247.5377,596,248.5006,596.1305,248.6311,595.0514,247.5521,594.3534,246.854,593.7018,246.2024,592.7798,245.2804,592,244.5006,592.0208,244.5099,592.7903,246.2963,593.6544,248.1248,594.4728,249.933,595.3784,251.7799,596,253.5006" style="stroke:#A80036;stroke-width:1.0;"/><path d="M596,248.5006 L596.0934,248.5006 L595.8159,246.9006 L596.0859,245.3006 L596.1776,243.7006 L595.6829,242.1006 L596,240.5006 " fill="#A80036" style="stroke:#A80036;stroke-width:1.0;"/><polygon fill="#A80036" points="596,185.3506,596.0583,185.3895,595.0851,186.474,594.4536,187.7864,593.7109,189.0245,592.6021,190.0187,592,191.3506,591.9784,191.3363,592.6817,192.4718,593.4936,193.6797,594.3811,194.938,595.0082,196.0228,596,197.3506,596.1536,197.453,596.6252,196.0341,597.5451,194.9141,598.5198,193.8305,599.1762,192.5348,600,191.3506,600.0189,191.3632,599.1911,190.1447,598.4495,188.9836,597.6663,187.7948,596.9624,186.6589,596,185.3506" style="stroke:#A80036;stroke-width:1.0;"/><!--MD5=[af1a2cc39fa055b104a1f856628bf00d]
link board to diamondsFoundation--><path d="M549.9684,190.4945 L550.0886,190.7476 L540.4384,194.409 L531.493,199.5544 L522.3181,204.2165 L512.3885,207.2895 L503.4592,212.4686 L493.9667,216.4621 L484.6983,220.9274 L475.5858,225.7208 L465.9363,229.3837 L457.3555,235.2968 L447.3854,238.2844 L438.3398,243.2189 L429.16,247.8706 " fill="none" style="stroke:#A80036;stroke-width:1.0;"/><polygon fill="#A80036" points="417.3,253.5006,417.3018,253.5707,419.2656,253.3118,421.2399,253.4635,423.2108,253.4815,425.1703,253.0599,427.1456,253.2469,427.1369,253.2224,426.0319,252.7341,424.9706,252.3688,423.9398,252.0891,422.8041,251.5145,421.8152,251.3529,421.9891,251.4147,421.996,250.2165,422.5107,249.1987,423.0873,248.2029,423.3035,247.079,423.7092,246.0225,423.7265,246.0373,422.4193,247.5112,421.1907,249.0525,419.9242,250.5612,418.7301,252.132,417.3,253.5006" style="stroke:#A80036;stroke-width:1.0;"/><path d="M421.8152,251.3529 L421.8553,251.4373 L423.1822,250.5001 L424.744,250.0576 L426.2293,249.454 L427.4631,248.3206 L429.045,247.9206 " fill="#A80036" style="stroke:#A80036;stroke-width:1.0;"/><polygon fill="#A80036" points="560.81,185.3506,560.8201,185.42,559.363,185.0056,557.9651,184.9976,556.548,184.8573,555.0673,184.2818,553.6746,184.3087,553.6524,184.2954,552.8114,185.4728,552.0824,186.7173,551.4314,188.0085,550.5119,189.1389,549.9684,190.4945,549.995,190.6771,551.3651,190.495,552.813,190.846,554.2704,191.2621,555.6726,191.2997,557.1038,191.5364,557.1233,191.5481,557.8359,190.2938,558.6373,189.0927,559.3959,187.8659,560.2362,186.6881,560.81,185.3506" style="stroke:#A80036;stroke-width:1.0;"/><!--MD5=[aad61eb72c3137c333ed1aa13d03ee71]
link board to tableauPile1--><path d="M632.1267,191.8357 L632.2781,192.0715 L640.3076,196.8143 L649.2246,202.9396 L657.8526,208.6146 L665.5302,212.8092 L674.4674,218.966 L682.6955,224.0181 L691.2058,229.5099 L699.9122,235.3072 L707.9427,240.0514 L716.92,246.2706 " fill="none" style="stroke:#A80036;stroke-width:1.0;"/><polygon fill="#A80036" points="728.19,253.5006,728.2485,253.5392,726.991,251.7798,726.0764,250.2463,725.0502,248.6393,723.6567,246.7903,722.7716,245.2762,722.7463,245.2707,722.8745,246.3511,723.1303,247.4594,723.4748,248.5871,723.5136,249.6479,723.9805,250.8024,724.02,250.9827,722.8304,250.839,721.756,251.2216,720.6956,251.6684,719.5535,251.7416,718.4544,252.0114,718.4578,252.0339,720.3999,252.2987,722.3576,252.6659,724.3078,252.9837,726.2724,253.3958,728.19,253.5006" style="stroke:#A80036;stroke-width:1.0;"/><path d="M723.9805,250.8024 L724.031,250.881 L722.534,249.7831 L721.3327,249.146 L720.0351,248.3588 L718.4209,247.0781 L717.245,246.4806 " fill="#A80036" style="stroke:#A80036;stroke-width:1.0;"/><polygon fill="#A80036" points="622.03,185.3506,622.0942,185.3787,622.4808,186.617,623.2437,188.0197,623.8841,189.3688,624.1214,190.5419,624.9167,191.9587,624.9162,191.9328,626.3562,191.792,627.7985,191.7817,629.2423,191.8622,630.6808,191.6299,632.1267,191.8357,632.2958,191.9096,631.3569,190.43,630.9116,189.1661,630.5267,187.9285,629.7912,186.5378,629.2401,185.2276,629.2404,185.2503,627.7979,185.2416,626.357,185.3363,624.9154,185.3811,623.4753,185.5212,622.03,185.3506" style="stroke:#A80036;stroke-width:1.0;"/><!--MD5=[f741a03cdd29a0ba0b491cb0a722a2b3]
link board to tableauPile7--><path d="M672.493,179.892 L672.5338,180.1693 L682.3413,180.8059 L692.388,183.068 L702.3568,184.8007 L712.0695,184.7929 L722.1216,187.0919 L731.9827,188.0924 L741.9198,189.6096 L751.9097,191.486 L761.7175,192.1244 L771.8878,195.2273 L781.5868,195.126 L791.5995,197.157 L801.6504,199.4482 L811.4787,200.2258 L821.4373,201.8894 L831.3466,203.2178 L841.3162,204.9559 L851.2567,206.4963 L861.2527,208.414 L871.198,209.9871 L881.1284,211.4584 L890.9747,212.3587 L900.944,214.0949 L910.919,215.8702 L920.5716,215.453 L930.7719,218.7599 L940.5115,218.9342 L950.6013,221.49 L960.3304,221.5933 L970.3419,223.6164 L980.4279,226.1456 L990.2033,226.5635 L1000.1619,228.2272 L1010.1359,229.9955 L1020.0797,231.5583 L1029.9269,232.4646 L1039.9122,234.3091 L1049.6741,234.6357 L1059.7691,237.2264 L1069.749,239.0349 L1079.6576,240.3586 L1089.6191,242.0414 L1099.3351,242.056 L1109.2311,243.2934 L1119.1658,244.7945 L1129.2037,246.997 L1139.1057,248.2759 L1149.2048,250.8946 L1158.9674,251.2258 L1168.8635,252.4641 L1178.9031,254.6783 L1188.6582,254.958 L1198.6156,256.6134 L1208.771,259.6147 L1218.6583,260.7938 L1228.645,262.6485 L1238.3688,262.7156 L1248.36,264.6006 " fill="none" style="stroke:#A80036;stroke-width:1.0;"/><polygon fill="#A80036" points="1261.25,266.5006,1261.2874,266.5598,1259.5113,265.3312,1257.9547,264.4496,1256.3266,263.455,1254.4635,262.0887,1252.9257,261.2369,1252.9049,261.2215,1253.4871,262.0597,1254.1741,262.9759,1254.9338,263.9462,1255.4426,264.7298,1256.3029,265.7751,1256.4131,265.9231,1255.2699,266.282,1254.4483,267.0731,1253.666,267.9169,1252.6554,268.4539,1251.7648,269.1523,1251.7709,269.1742,1253.659,268.6117,1255.5749,268.1489,1257.4774,267.638,1259.4055,267.219,1261.25,266.5006" style="stroke:#A80036;stroke-width:1.0;"/><path d="M1256.3029,265.7751 L1256.3165,265.8675 L1254.6935,265.36 L1253.1503,265.3943 L1251.581,265.2521 L1249.9264,264.5298 L1248.39,264.6106 " fill="#A80036" style="stroke:#A80036;stroke-width:1.0;"/><polygon fill="#A80036" points="660.62,178.1506,660.6669,178.2027,661.5987,179.0137,662.8056,180.1298,663.9228,181.1466,664.7456,181.8367,665.976,182.979,665.9649,182.9556,667.2186,182.2331,668.5281,181.6287,669.8765,181.1063,671.0909,180.3011,672.493,179.892,672.6165,180.0291,671.2811,178.7703,670.3064,177.9117,669.3758,177.1019,668.189,176.0081,667.1369,175.0637,667.1467,175.0842,665.829,175.6714,664.5556,176.3522,663.2609,176.9879,662.007,177.7097,660.62,178.1506" style="stroke:#A80036;stroke-width:1.0;"/><!--MD5=[ecb0794644cb2388bd7c1f5d1952b0e8]
link stockPile to card1--><path d="M891.1407,304.1263 L891.384,304.2653 L885.9509,312.098 L881.9442,320.7456 L877.4731,329.1278 L871.4743,336.6374 L867.5001,345.3035 L862.88,353.6006 " fill="none" style="stroke:#A80036;stroke-width:1.0;"/><polygon fill="#A80036" points="856.38,364.9706,856.4215,365.0271,857.8854,363.6928,859.5925,362.6894,861.2204,361.5782,862.5878,360.1127,864.3158,359.1377,864.309,359.1128,863.187,359.2987,862.0994,359.6107,861.0357,360.0102,859.8896,360.108,858.8589,360.6284,859.0369,360.677,858.3581,359.4816,858.1991,358.4283,858.1034,357.3922,857.6388,356.2553,857.3683,355.1715,857.3909,355.1738,857.16,357.1302,857.0322,359.0971,856.8546,361.059,856.7719,363.0304,856.38,364.9706" style="stroke:#A80036;stroke-width:1.0;"/><path d="M858.8589,360.6284 L858.94,360.6748 L859.4933,359.1484 L860.5219,357.8939 L861.3958,356.5509 L861.7606,354.9168 L862.83,353.6856 " fill="#A80036" style="stroke:#A80036;stroke-width:1.0;"/><polygon fill="#FFFFFF" points="897.1,293.7106,897.1313,293.7733,895.748,294.2313,894.5482,295.0568,893.2886,295.7627,891.8325,296.075,890.6484,296.932,890.6226,296.9302,890.605,298.3612,890.7178,299.801,890.9211,301.247,890.8123,302.6717,891.1407,304.1263,891.2231,304.2914,892.3371,303.2941,893.6918,302.7788,895.0759,302.3223,896.2891,301.5236,897.5922,300.9049,897.6149,300.9065,897.4831,299.4653,897.4547,298.0313,897.3764,296.5938,897.3932,295.1628,897.1,293.7106" style="stroke:#A80036;stroke-width:1.0;"/><!--MD5=[ddc880f904d6ba46fd3ceeee8dd793c0]
link stockPile to card30--><path d="M921.0331,304.7205 L921.2903,304.8318 L924.6875,314.1192 L929.5924,324.0589 L934.0063,333.7862 L936.8056,342.8149 L941.84,352.8106 " fill="none" style="stroke:#A80036;stroke-width:1.0;"/><polygon fill="#A80036" points="947.1,364.9706,947.1701,364.9713,946.9808,362.9996,947.2022,361.0319,947.2899,359.0629,946.9377,357.0896,947.1944,355.1222,947.1703,355.1127,946.646,356.1219,946.2431,357.1792,945.9246,358.2699,945.3151,359.2455,945.1132,360.3823,945.1811,360.5539,943.9839,359.7707,942.9849,359.4885,942.0101,359.2675,940.8946,358.6908,939.8531,358.3011,939.8685,358.3178,941.2953,359.6272,942.7922,361.0127,944.2552,362.3615,945.7828,363.7804,947.1,364.9706" style="stroke:#A80036;stroke-width:1.0;"/><path d="M945.1132,360.3823 L945.1989,360.4194 L944.3095,358.8409 L943.9228,357.4797 L943.3723,356.0478 L942.2836,354.3832 L941.94,353.0406 " fill="#A80036" style="stroke:#A80036;stroke-width:1.0;"/><polygon fill="#FFFFFF" points="916.26,293.7106,916.3289,293.7231,915.8674,295.1052,915.81,296.5605,915.6211,297.9919,914.9993,299.3451,914.9766,300.8066,914.9626,300.7848,916.1108,301.47,917.3298,302.2648,918.5982,303.1359,919.6968,303.7442,921.0331,304.7205,921.2147,304.7533,921.0831,303.2639,921.4816,301.8704,921.9449,300.4885,922.0317,299.0386,922.3165,297.6245,922.3289,297.6436,921.0994,296.8328,919.9262,296.1089,918.7259,295.3431,917.5773,294.6574,916.26,293.7106" style="stroke:#A80036;stroke-width:1.0;"/><!--MD5=[e5324edb19f4b8bce964ab7a1e9bb1f5]
link stockPile to card23--><path d="M945.4454,300.5425 L945.6048,300.773 L953.3486,305.771 L962.0269,312.1201 L970.4009,318.0293 L977.7742,322.4914 L986.4737,328.8713 L994.4267,334.1717 L1002.6768,339.9016 L1011.1334,345.9303 L1018.8782,350.9296 L1027.62,357.3706 " fill="none" style="stroke:#A80036;stroke-width:1.0;"/><polygon fill="#A80036" points="1038.61,364.9706,1038.6698,365.0071,1037.4667,363.2169,1036.6142,361.6405,1035.6476,359.9945,1034.3054,358.1195,1033.483,356.5615,1033.4575,356.5568,1033.5461,357.649,1033.7631,358.7646,1034.0695,359.8965,1034.068,360.9722,1034.4977,362.1266,1034.5308,362.3081,1033.3469,362.1228,1032.2598,362.4676,1031.1844,362.877,1030.0404,362.9102,1028.9325,363.1412,1028.9368,363.1636,1030.8661,363.4966,1032.8146,363.9314,1034.7538,364.3172,1036.7108,364.7966,1038.61,364.9706" style="stroke:#A80036;stroke-width:1.0;"/><path d="M1034.4977,362.1266 L1034.5508,362.2034 L1033.0774,361.065 L1031.9155,360.3768 L1030.6521,359.5421 L1029.0551,358.2251 L1027.92,357.5756 " fill="#A80036" style="stroke:#A80036;stroke-width:1.0;"/><polygon fill="#FFFFFF" points="935.58,293.7106,935.6451,293.7364,935.9827,295.0006,936.7021,296.4161,937.2971,297.7823,937.4832,298.9866,938.2354,300.415,938.2349,300.3891,939.6749,300.2984,941.1171,300.3382,942.561,300.4688,943.9993,300.2866,945.4454,300.5425,945.6169,300.6105,944.7189,299.1243,944.3219,297.8365,943.986,296.5729,943.2945,295.1685,942.79,293.8381,942.7904,293.8609,941.3478,293.802,939.907,293.8466,938.4654,293.8413,937.0254,293.9313,935.58,293.7106" style="stroke:#A80036;stroke-width:1.0;"/><!--MD5=[dc961571fd324886357b12bd28e2a195]
link tableauPile1 to card24--><path d="M749.5158,305.2749 L749.7858,305.3498 L746.3882,314.4905 L744.5738,324.07 L742.2438,333.5067 L738.2185,342.4734 L736.54,352.0906 " fill="none" style="stroke:#A80036;stroke-width:1.0;"/><polygon fill="#A80036" points="732.97,364.9706,733.0241,365.0151,734.1149,363.3618,735.5229,361.9695,736.8276,360.4922,737.7927,358.7354,739.2279,357.3655,739.2152,357.3429,738.1733,357.7991,737.1958,358.3689,736.263,359.0177,735.1761,359.3943,734.3051,360.1522,734.4657,360.2431,733.5649,359.0641,733.1331,358.1506,732.7584,357.2694,732.0509,356.1998,731.5184,355.2293,731.5409,355.2327,731.7982,357.176,732.1579,359.1346,732.4682,361.0859,732.8728,363.0511,732.97,364.9706" style="stroke:#A80036;stroke-width:1.0;"/><path d="M734.3051,360.1522 L734.3951,360.1772 L734.5557,358.5616 L735.2438,357.0925 L735.7602,355.5758 L735.7115,353.9021 L736.445,352.4456 " fill="#A80036" style="stroke:#A80036;stroke-width:1.0;"/><polygon fill="#FFFFFF" points="752.72,293.7106,752.7658,293.7636,751.5383,294.5489,750.5794,295.645,749.533,296.6399,748.199,297.3019,747.2631,298.4247,747.2385,298.4166,747.5786,299.7503,748.0427,301.1248,748.5931,302.5277,748.8463,303.8329,749.5158,305.2749,749.6364,305.4146,750.4698,304.1731,751.6554,303.3394,752.884,302.5554,753.8626,301.482,754.9726,300.5609,754.9942,300.568,754.512,299.1875,754.1281,297.8394,753.6968,296.4756,753.356,295.1417,752.72,293.7106" style="stroke:#A80036;stroke-width:1.0;"/><!--MD5=[bc75a1fe720bcb3b8b173faef28171a7]
link tableauPile7 to card25--><path d="M1355.6144,297.3347 L1355.6535,297.4196 L1358.1111,298.3521 L1360.7976,299.7821 L1363.4096,301.0501 L1365.7764,301.7854 L1368.4826,303.2581 L1368.468,303.2268 L1374.6315,305.9993 L1380.8688,308.9295 L1387.1573,311.9694 L1393.2691,314.6314 L1399.6285,317.8227 L1399.7343,318.0448 L1403.2941,319.3738 L1407.1629,321.3513 L1411.0695,323.408 L1414.7566,325.0042 L1418.5592,326.8427 L1418.5724,326.8699 L1422.4139,328.7053 L1426.3156,330.6648 L1430.1883,332.5645 L1434.1165,334.5784 L1437.8637,336.2197 L1437.997,336.4865 L1441.6545,338.3164 L1445.2262,339.9741 L1448.9236,341.8838 L1452.627,343.8053 L1456.1435,345.3527 L1455.995,345.0686 L1459.4545,347.2776 L1462.425,348.5511 L1465.7673,350.5357 L1468.7268,351.7881 L1472,353.6406 L1471.9852,353.614 L1473.8182,354.8507 L1475.3055,355.4657 L1476.9967,356.4475 L1478.7051,357.4602 L1480.29,358.2506 " fill="none" style="stroke:#A80036;stroke-width:1.0;"/><polygon fill="#A80036" points="1491.7,364.9506,1491.757,364.9914,1490.4415,363.2683,1489.4601,361.7841,1488.37,360.2222,1486.9221,358.4043,1485.9693,356.9407,1485.9443,356.9342,1486.1158,358.0001,1486.4138,359.0988,1486.7997,360.2203,1486.8827,361.2633,1487.3899,362.4162,1487.4362,362.5949,1486.242,362.497,1485.1831,362.9207,1484.1407,363.408,1483.0023,363.525,1481.9143,363.8368,1481.9169,363.8594,1483.8703,364.049,1485.8353,364.3415,1487.7947,364.5843,1489.7649,364.9218,1491.7,364.9506" style="stroke:#A80036;stroke-width:1.0;"/><path d="M1487.3899,362.4162 L1487.4372,362.4968 L1485.9177,361.4483 L1484.6754,360.8721 L1483.3429,360.1421 L1481.7135,358.9063 L1480.495,358.3706 " fill="#A80036" style="stroke:#A80036;stroke-width:1.0;"/><polygon fill="#FFFFFF" points="1344.64,292.4806,1344.6991,292.5182,1345.2973,293.6236,1346.242,294.9493,1347.0739,296.2032,1347.5347,297.2212,1348.5092,298.5658,1348.5048,298.5403,1349.906,298.1795,1351.3295,297.9474,1352.7685,297.8048,1354.154,297.3538,1355.6144,297.3347,1355.7702,297.4337,1354.6633,296.0049,1354.0111,294.8653,1353.4144,293.7608,1352.4949,292.4512,1351.7452,291.2495,1351.7491,291.2719,1350.3224,291.4852,1348.9133,291.8006,1347.4957,292.0667,1346.0944,292.4268,1344.64,292.4806" style="stroke:#A80036;stroke-width:1.0;"/><!--MD5=[ab89c98bfd8d5af0a0d43ee0ce8d2c3a]
link card1 to diamond--><path d="M842,429.2006 L842.2802,429.2006 L841.4476,438.3446 L842.2577,447.4886 L842.5329,456.6326 L841.0488,465.7766 L842,474.9206 " fill="none" style="stroke:#A80036;stroke-width:1.0;"/><polygon fill="#A80036" points="842,488.3506,842.064,488.3791,842.6738,486.4945,843.6589,484.7768,844.5217,483.0047,844.9827,481.054,846,479.3506,845.9817,479.3323,845.0995,480.0501,844.3096,480.8602,843.5839,481.7346,842.637,482.3877,842,483.3506,842.1305,483.4811,841.0514,482.4021,840.3534,481.704,839.7018,481.0524,838.7798,480.1304,838,479.3506,838.0208,479.3599,838.7903,481.1463,839.6544,482.9748,840.4728,484.783,841.3784,486.6299,842,488.3506" style="stroke:#A80036;stroke-width:1.0;"/><path d="M842,483.3506 L842.0934,483.3506 L841.8159,481.7506 L842.0859,480.1506 L842.1776,478.5506 L841.6829,476.9506 L842,475.3506 " fill="#A80036" style="stroke:#A80036;stroke-width:1.0;"/><polygon fill="#A80036" points="842,417.2006,842.0583,417.2395,841.0851,418.324,840.4536,419.6364,839.7109,420.8745,838.6021,421.8687,838,423.2006,837.9784,423.1863,838.6817,424.3218,839.4936,425.5297,840.3811,426.788,841.0082,427.8728,842,429.2006,842.1536,429.303,842.6252,427.8841,843.5451,426.7641,844.5198,425.6805,845.1762,424.3848,846,423.2006,846.0189,423.2132,845.1911,421.9947,844.4495,420.8336,843.6663,419.6448,842.9624,418.5089,842,417.2006" style="stroke:#A80036;stroke-width:1.0;"/><!--MD5=[ab2bd451babeb530ac2c7f2a594f6978]
link card23 to hearts--><path d="M1123.4959,423.2144 L1123.5388,423.2974 L1125.5122,424.1361 L1127.737,425.4612 L1129.8799,426.628 L1131.7537,427.2737 L1134,428.6406 L1133.9855,428.6093 L1137.6278,430.188 L1141.3433,431.9246 L1145.1097,433.771 L1148.7007,435.2391 L1152.5375,437.2371 L1152.6353,437.4629 L1156.2469,438.6351 L1160.144,440.4666 L1164.076,442.3785 L1167.8052,443.8224 L1171.6411,445.5125 L1171.6525,445.5406 L1175.5183,447.083 L1179.4362,448.7532 L1183.3289,450.3618 L1187.2696,452.0881 L1191.0538,453.4307 L1191.1614,453.7089 L1195.0557,455.2173 L1198.8806,456.5462 L1202.8071,458.1378 L1206.7383,459.7417 L1210.5188,460.9556 L1210.4079,460.6549 L1214.475,462.6577 L1218.1772,463.6702 L1222.1568,465.4356 L1225.8507,466.4256 L1229.7788,468.0512 L1229.7687,468.0225 L1233.6481,469.688 L1237.2909,470.6828 L1241.0733,472.0734 L1244.8674,473.4972 L1248.577,474.6813 L1248.6364,474.8564 L1252.1924,475.9053 L1255.8498,477.2535 L1259.343,478.1174 L1263.0811,479.7038 L1266.6564,480.8098 L1266.7321,481.0413 L1270.1385,482.1157 L1273.5825,483.3051 L1276.8519,483.9602 L1280.2492,485.0069 L1283.76,486.4006 " fill="none" style="stroke:#A80036;stroke-width:1.0;"/><polygon fill="#A80036" points="1296.41,490.4206,1296.4565,490.473,1294.8445,489.0105,1293.505,487.8553,1292.0767,486.6,1290.3567,485.0156,1289.0406,483.8868,1289.0176,483.8748,1289.435,484.8258,1289.9685,485.8368,1290.5825,486.8896,1290.9187,487.7984,1291.644,488.9089,1291.7289,489.0728,1290.5429,489.2431,1289.6048,489.8918,1288.697,490.5988,1287.6131,490.9663,1286.6218,491.5124,1286.6244,491.535,1288.5783,491.2834,1290.5437,491.1348,1292.5036,490.9365,1294.474,490.833,1296.41,490.4206" style="stroke:#A80036;stroke-width:1.0;"/><path d="M1291.644,488.9089 L1291.6723,488.9979 L1290.0625,488.2488 L1288.6184,488.0215 L1287.1204,487.6242 L1285.4448,486.6681 L1284.015,486.4856 " fill="#A80036" style="stroke:#A80036;stroke-width:1.0;"/><polygon fill="#A80036" points="1113.06,417.2906,1113.1226,417.3221,1113.5853,418.5166,1114.4149,419.8958,1115.125,421.2149,1115.4423,422.3361,1116.3034,423.7312,1116.3015,423.7053,1117.7317,423.486,1119.1712,423.397,1120.6173,423.3985,1122.0409,423.0879,1123.4959,423.2144,1123.6608,423.2974,1122.6596,421.8318,1122.1397,420.6086,1121.6785,419.4149,1120.8757,418.0491,1120.2526,416.7739,1120.2542,416.7966,1118.8133,416.8666,1117.3798,417.0399,1115.9427,417.1634,1114.5125,417.382,1113.06,417.2906" style="stroke:#A80036;stroke-width:1.0;"/><!--MD5=[8c7ba3118683edb52b1fc3a34bb4683c]
link card25 to hearts--><path d="M1482.775,423.7808 L1482.9287,424.015 L1473.7264,429.0589 L1465.4254,435.4762 L1456.8309,441.4462 L1447.2711,445.9455 L1438.9906,452.3941 L1429.99,457.7453 L1421.2759,463.5332 L1412.7611,469.6247 L1403.5597,474.67 L1395.32,481.1806 " fill="none" style="stroke:#A80036;stroke-width:1.0;"/><polygon fill="#A80036" points="1384.12,488.5306,1384.1313,488.5998,1386.0416,488.0763,1388.0183,487.9582,1389.9733,487.7081,1391.8573,487.0239,1393.8397,486.9405,1393.8344,486.9152,1392.703,486.571,1391.5983,486.3547,1390.512,486.2273,1389.362,485.7936,1388.3013,485.7889,1388.4819,485.8265,1388.3259,484.6385,1388.6974,483.5601,1389.1332,482.4952,1389.1946,481.3524,1389.4529,480.2505,1389.472,480.2628,1388.3774,481.9008,1387.3698,483.5948,1386.3202,485.2617,1385.3507,486.9803,1384.12,488.5306" style="stroke:#A80036;stroke-width:1.0;"/><path d="M1388.3013,485.7889 L1388.3525,485.867 L1389.539,484.7563 L1391.0259,484.1034 L1392.415,483.3014 L1393.4823,482.0092 L1394.995,481.3956 " fill="#A80036" style="stroke:#A80036;stroke-width:1.0;"/><polygon fill="#A80036" points="1492.81,417.2006,1492.8105,417.2707,1491.3668,417.0515,1489.9261,417.2431,1488.4845,417.3009,1487.0395,416.9189,1485.5991,417.1457,1485.5753,417.1355,1484.9035,418.417,1484.3518,419.7496,1483.8837,421.1178,1483.1277,422.3635,1482.775,423.7808,1482.7764,423.9653,1484.2155,423.5817,1485.6588,423.7368,1487.1026,423.9577,1488.5435,423.7961,1489.9859,423.8357,1490.0068,423.8446,1490.5409,422.5045,1491.1703,421.205,1491.7537,419.8859,1492.4248,418.6041,1492.81,417.2006" style="stroke:#A80036;stroke-width:1.0;"/><!--MD5=[7b89f1733cfc0f47d18f8dec88b9e335]
link card24 to clubs--><path d="M709.5006,428.1096 L709.7553,428.2265 L704.5644,437.5414 L700.8666,447.5415 L696.6826,457.3185 L690.8996,466.3617 L687.33,476.4206 " fill="none" style="stroke:#A80036;stroke-width:1.0;"/><polygon fill="#A80036" points="681.85,488.3506,681.8963,488.4032,683.2372,486.9454,684.8495,485.7958,686.3735,484.5459,687.6068,482.9658,689.2424,481.8427,689.2334,481.8184,688.1321,482.1023,687.0761,482.5087,686.0516,483.0002,684.9185,483.1983,683.9376,483.8073,684.1107,483.8714,683.3477,482.6734,683.09,481.6625,682.8939,480.6744,682.3392,479.5536,681.9731,478.5025,681.9958,478.5028,681.9378,480.472,681.9833,482.4425,681.9789,484.4124,682.0698,486.3834,681.85,488.3506" style="stroke:#A80036;stroke-width:1.0;"/><path d="M683.9376,483.8073 L684.0225,483.8462 L684.4377,482.2752 L685.3507,480.9324 L686.1015,479.5153 L686.3193,477.8538 L687.275,476.5306 " fill="#A80036" style="stroke:#A80036;stroke-width:1.0;"/><polygon fill="#A80036" points="714.5,417.2006,714.5368,417.2602,713.2002,417.8407,712.0794,418.7707,710.8884,419.5868,709.4663,420.0287,708.364,420.9887,708.3384,420.9846,708.4509,422.3904,708.6924,423.8169,709.0235,425.2576,709.0457,426.6491,709.5006,428.1096,709.5975,428.2666,710.6174,427.1732,711.9204,426.5383,713.2579,425.9593,714.3944,425.0549,715.6366,424.3216,715.6591,424.3252,715.3988,422.8957,715.2407,421.4826,715.0334,420.0616,714.9201,418.6556,714.5,417.2006" style="stroke:#A80036;stroke-width:1.0;"/><!--MD5=[795a1dbf4b507fd8ea2e5f87bc53c135]
link card30 to spaces--><path d="M977.4079,427.7399 L977.6539,427.8742 L981.38,435.6421 L986.5482,444.1969 L991.2467,452.4956 L994.401,459.9514 L999.602,468.5242 L1004.15,476.7406 " fill="none" style="stroke:#A80036;stroke-width:1.0;"/><polygon fill="#A80036" points="1010.48,488.3506,1010.5498,488.3562,1010.1843,486.3761,1010.2281,484.429,1010.1386,482.4711,1009.6107,480.4779,1009.6897,478.5335,1009.6648,478.5262,1009.2332,479.5785,1008.9269,480.6677,1008.7076,481.7825,1008.1883,482.8089,1008.0892,483.9593,1008.1414,484.1363,1006.9446,483.4377,1005.9003,483.2558,1004.8745,483.1371,1003.7405,482.6515,1002.6635,482.3588,1002.6773,482.3769,1004.2203,483.5487,1005.8263,484.8028,1007.4019,486.0172,1009.0355,487.3072,1010.48,488.3506" style="stroke:#A80036;stroke-width:1.0;"/><path d="M1008.0892,483.9593 L1008.1712,484.004 L1007.1607,482.4663 L1006.6309,481.191 L1005.9446,479.8302 L1004.7435,478.1884 L1004.255,476.9356 " fill="#A80036" style="stroke:#A80036;stroke-width:1.0;"/><polygon fill="#A80036" points="971.67,417.2006,971.7398,417.2069,971.4036,418.6247,971.4765,420.0793,971.4162,421.5219,970.9178,422.9252,971.0259,424.3829,971.0138,424.36,972.2361,424.9285,973.5192,425.6126,974.8445,426.377,976.0242,426.8645,977.4079,427.7399,977.5917,427.7564,977.3275,426.2847,977.5999,424.8611,977.9378,423.4434,977.8947,421.9915,978.052,420.5576,978.0626,420.5778,976.7707,419.8768,975.5269,419.2675,974.2599,418.614,973.0373,418.0448,971.67,417.2006" style="stroke:#A80036;stroke-width:1.0;"/><!--MD5=[d01280601d2ef9823a3f2ac4184f3b13]
@startuml klondike- -initial-state
skinparam handwritten true

title Klondike. Initial State

object "Klondike:myKlondike" as myKlondike{
    nGame = 1
    status = 1
}

object "Goal:goal" as goal {
    status = false
}

object "Player:setilloPlayer" as player {
    id = 1
    name = 'Setillo'
}

object "Board:klondikeBoard" as board {

}


object "Stock:stockPile" as stockPile
object "Waste:wastePile" as wastePile

object stockPile {
    nCards = 23
}
object wastePile {
    nCards = 0
}


object "Foundation:diamondsFoundation" as diamondsFoundation {
    nCards = 0
}


object "Foundation:clubsFoundation" as clubsFoundation {
    nCards = 0
}

object "Card:card1" as card1 {  
    rank  = Nine
    faceUp = false
}

object "Card:card23" as card23 {
        rank  = Ace
        faceUp = false
}

object "Card:card24" as card24 {
        rank = King
        faceUp = true
}

object "Card:card25" as card25 {
        rank = Two    
        faceUp = true
}

object "Card:card30" as card30 {  
    rank  = Four
    faceUp = false
}

note bottom of tableauPile7
    7 total tableau piles
    Last card face up in each pile
    0, 1, 2, 3, 4, 5 & 6 face down cards in each pile, 
    repectively, from 1 to 7 pile
end note

note bottom of clubsFoundation
    4 total foundations piles
    with no card
end note


object tableauPile1 {
    nCards = 1
}
object tableauPile7 {
    nCards = 7
}

object "Diamonds:diamondsSuite" as diamond {
    color = red
}
object "Hearst:heartsSuite" as hearts {
    color = red
}
object "Clubs:clubsSuite" as clubs {
    color = black
}

object "Spaces:spacesSuite" as spaces{
    color = black
}

myKlondike *- -> player
myKlondike *- -> goal
myKlondike *- -> board

player - -> goal

board *- -> stockPile
board *- -> wastePile
board *- -> clubsFoundation
board *- -> diamondsFoundation
board *- -> tableauPile1
board *- -> tableauPile7

stockPile o- -> card1
stockPile o- -> card30
stockPile o- -> card23
tableauPile1 o- -> card24

tableauPile7 o- -> card25

card1  *- -> diamond
card23 *- -> hearts
card25 *- -> hearts
card24 *- -> clubs
card30 *- -> spaces
@enduml

PlantUML version 1.2022.0(Tue Jan 11 17:16:42 CET 2022)
(GPL source distribution)
Java Runtime: Java(TM) SE Runtime Environment
JVM: Java HotSpot(TM) 64-Bit Server VM
Default Encoding: Cp1252
Language: es
Country: ES
--></g></svg>