<?xml version="1.0" encoding="UTF-8" standalone="no"?><svg xmlns="http://www.w3.org/2000/svg" xmlns:xlink="http://www.w3.org/1999/xlink" contentScriptType="application/ecmascript" contentStyleType="text/css" height="338px" preserveAspectRatio="none" style="width:851px;height:338px;background:#FFFFFF;" version="1.1" viewBox="0 0 851 338" width="851px" zoomAndPan="magnify"><defs><filter height="300%" id="fucjv0aqv77z9" width="300%" x="-1" y="-1"><feGaussianBlur result="blurOut" stdDeviation="2.0"/><feColorMatrix in="blurOut" result="blurOut2" type="matrix" values="0 0 0 0 0 0 0 0 0 0 0 0 0 0 0 0 0 0 .4 0"/><feOffset dx="4.0" dy="4.0" in="blurOut2" result="blurOut3"/><feBlend in="SourceGraphic" in2="blurOut3" mode="normal"/></filter></defs><g><text fill="#000000" font-family="sans-serif" font-size="18" lengthAdjust="spacing" textLength="165" x="335.75" y="18.6855">Klondike. Final State</text><polygon fill="#FEFECE" filter="url(#fucjv0aqv77z9)" points="355,29.6406,355,29.8508,364.75,29.2263,374.5,29.8339,384.25,30.0403,394,28.9272,403.75,29.5629,413.5,29.2141,423.25,29.2571,433,29.6406,432.9318,29.6406,432.3086,40.0906,433.5536,50.5406,432.3697,60.9906,432.8022,71.4406,433,81.8906,433,82.3226,423.25,81.8048,413.5,81.9589,403.75,81.8587,394,82.0692,384.25,82.1298,374.5,82.4763,364.75,82.5617,355,81.8906,355.6793,81.8906,355.2546,71.4406,355.4636,60.9906,355.7022,50.5406,354.2788,40.0906,355,29.6406" style="stroke:#A80036;stroke-width:1.5;"/><text fill="#000000" font-family="sans-serif" font-size="12" lengthAdjust="spacing" textLength="64" x="362" y="44.0977">myKlondike</text><path d="M356,48.7344 L356,49.0146 L365.5,48.1819 L375,48.9921 L384.5,49.2673 L394,47.7832 L403.5,48.6308 L413,48.1657 L422.5,48.223 L432,48.7344 " fill="#FEFECE" style="stroke:#A80036;stroke-width:1.5;"/><text fill="#000000" font-family="sans-serif" font-size="10" lengthAdjust="spacing" textLength="53" x="361" y="63.1152">nGame = 1</text><text fill="#000000" font-family="sans-serif" font-size="10" lengthAdjust="spacing" textLength="44" x="361" y="75.6934">status = 3</text><polygon fill="#FEFECE" filter="url(#fucjv0aqv77z9)" points="587,35.6406,587,35.8508,596.7143,35.2263,606.4286,35.8339,616.1429,36.0403,625.8571,34.9272,635.5714,35.5629,645.2857,35.2141,655,35.6406,654.8722,35.6406,654.9773,43.575,654.7695,51.5094,655.1845,59.4438,654.7899,67.3781,655,75.3125,655,75.1147,645.2857,75.7444,635.5714,75.2267,625.8571,75.3807,616.1429,75.2806,606.4286,75.491,596.7143,75.5516,587,75.3125,587.1952,75.3125,587.2237,67.3781,587.2264,59.4438,587.0849,51.5094,587.1545,43.575,587,35.6406" style="stroke:#A80036;stroke-width:1.5;"/><text fill="#000000" font-family="sans-serif" font-size="12" lengthAdjust="spacing" textLength="24" x="609" y="50.0977">goal</text><path d="M588,54.7344 L588,55.0146 L597.4286,54.1819 L606.8571,54.9921 L616.2857,55.2673 L625.7143,53.7832 L635.1429,54.6308 L644.5714,54.1657 L654,54.7344 " fill="#FEFECE" style="stroke:#A80036;stroke-width:1.5;"/><text fill="#000000" font-family="sans-serif" font-size="10" lengthAdjust="spacing" textLength="56" x="593" y="69.1152">status = true</text><polygon fill="#FEFECE" filter="url(#fucjv0aqv77z9)" points="468.5,29.6406,468.5,29.8508,478.875,29.2263,489.25,29.8339,499.625,30.0403,510,28.9272,520.375,29.5629,530.75,29.2141,541.125,29.2571,551.5,29.6406,551.4318,29.6406,550.8086,40.0906,552.0536,50.5406,550.8697,60.9906,551.3022,71.4406,551.5,81.8906,551.5,82.3226,541.125,81.8048,530.75,81.9589,520.375,81.8587,510,82.0692,499.625,82.1298,489.25,82.4763,478.875,82.5617,468.5,81.8906,469.1793,81.8906,468.7546,71.4406,468.9636,60.9906,469.2022,50.5406,467.7788,40.0906,468.5,29.6406" style="stroke:#A80036;stroke-width:1.5;"/><text fill="#000000" font-family="sans-serif" font-size="12" lengthAdjust="spacing" textLength="51" x="484.5" y="44.0977">thePlayer</text><path d="M469.5,48.7344 L469.5,49.0146 L479.625,48.1819 L489.75,48.9921 L499.875,49.2673 L510,47.7832 L520.125,48.6308 L530.25,48.1657 L540.375,48.223 L550.5,48.7344 " fill="#FEFECE" style="stroke:#A80036;stroke-width:1.5;"/><text fill="#000000" font-family="sans-serif" font-size="10" lengthAdjust="spacing" textLength="27" x="474.5" y="63.1152">id = 1</text><text fill="#000000" font-family="sans-serif" font-size="10" lengthAdjust="spacing" textLength="71" x="474.5" y="75.6934">name = 'Diego'</text><polygon fill="#FEFECE" filter="url(#fucjv0aqv77z9)" points="7,147.6406,7,147.8508,17.6667,147.2263,28.3333,147.8339,39,148.0403,49.6667,146.9272,60.3333,147.5629,71,147.6406,70.8578,147.6406,70.8722,155.575,70.9773,163.5094,70.7695,171.4438,71.1845,179.3781,71,187.3125,71,186.6822,60.3333,187.1147,49.6667,187.7444,39,187.2267,28.3333,187.3807,17.6667,187.2806,7,187.3125,7.0595,187.3125,7.0797,179.3781,7.1952,171.4438,7.2237,163.5094,7.2264,155.575,7,147.6406" style="stroke:#A80036;stroke-width:1.5;"/><text fill="#000000" font-family="sans-serif" font-size="12" lengthAdjust="spacing" textLength="50" x="14" y="162.0977">stockPile</text><path d="M8,166.7344 L8,167.0146 L18.3333,166.1819 L28.6667,166.9921 L39,167.2673 L49.3333,165.7832 L59.6667,166.6308 L70,166.7344 " fill="#FEFECE" style="stroke:#A80036;stroke-width:1.5;"/><text fill="#000000" font-family="sans-serif" font-size="10" lengthAdjust="spacing" textLength="50" x="13" y="181.1152">nCards = 0</text><polygon fill="#FEFECE" filter="url(#fucjv0aqv77z9)" points="106,147.6406,106,147.8508,115.7143,147.2263,125.4286,147.8339,135.1429,148.0403,144.8571,146.9272,154.5714,147.5629,164.2857,147.2141,174,147.6406,173.8722,147.6406,173.9773,155.575,173.7695,163.5094,174.1845,171.4438,173.7899,179.3781,174,187.3125,174,187.1147,164.2857,187.7444,154.5714,187.2267,144.8571,187.3807,135.1429,187.2806,125.4286,187.491,115.7143,187.5516,106,187.3125,106.1952,187.3125,106.2237,179.3781,106.2264,171.4438,106.0849,163.5094,106.1545,155.575,106,147.6406" style="stroke:#A80036;stroke-width:1.5;"/><text fill="#000000" font-family="sans-serif" font-size="12" lengthAdjust="spacing" textLength="54" x="113" y="162.0977">wastePile</text><path d="M107,166.7344 L107,167.0146 L116.4286,166.1819 L125.8571,166.9921 L135.2857,167.2673 L144.7143,165.7832 L154.1429,166.6308 L163.5714,166.1657 L173,166.7344 " fill="#FEFECE" style="stroke:#A80036;stroke-width:1.5;"/><text fill="#000000" font-family="sans-serif" font-size="10" lengthAdjust="spacing" textLength="50" x="112" y="181.1152">nCards = 0</text><polygon fill="#FEFECE" filter="url(#fucjv0aqv77z9)" points="209,141.6406,209,141.8508,219,141.2263,229,141.8339,239,142.0403,249,140.9272,259,141.5629,269,141.2141,279,141.2571,289,141.5725,299,140.9493,309,141.6406,309.5536,141.6406,308.3697,152.0906,308.8022,162.5406,309.4319,172.9906,308.9142,183.4406,309,193.8906,309,193.9589,299,193.8587,289,194.0692,279,194.1298,269,194.4763,259,194.5617,249,194.5699,239,194.1453,229,194.3542,219,194.5929,209,193.8906,208.2788,193.8906,209.6785,183.4406,208.7035,172.9906,209.5338,162.5406,208.505,152.0906,209,141.6406" style="stroke:#A80036;stroke-width:1.5;"/><text fill="#000000" font-family="sans-serif" font-size="12" lengthAdjust="spacing" textLength="86" x="216" y="156.0977">foundationPile1</text><path d="M210,160.7344 L210,161.0146 L219.8,160.1819 L229.6,160.9921 L239.4,161.2673 L249.2,159.7832 L259,160.6308 L268.8,160.1657 L278.6,160.223 L288.4,160.6435 L298.2,159.8125 L308,160.7344 " fill="#FEFECE" style="stroke:#A80036;stroke-width:1.5;"/><text fill="#000000" font-family="sans-serif" font-size="10" lengthAdjust="spacing" textLength="60" x="215" y="175.1152">suit = spades</text><text fill="#000000" font-family="sans-serif" font-size="10" lengthAdjust="spacing" textLength="61" x="215" y="187.6934">color = black</text><path d="M196.5,253.6406 L196.5,329.0469 A0,0 0 0 0 196.5,329.0469 L321.5,329.0469 A0,0 0 0 0 321.5,329.0469 L321.5,263.6406 L311.5,253.6406 L263,253.6406 L259,193.8106 L255,253.6406 L196.5,253.6406 A0,0 0 0 0 196.5,253.6406 " fill="#FBFB77" filter="url(#fucjv0aqv77z9)" style="stroke:#A80036;stroke-width:1.0;"/><path d="M311.5,253.6406 L311.6868,253.6406 L311.1317,255.6406 L311.6718,257.6406 L311.8553,259.6406 L310.8659,261.6406 L311.5,263.6406 L311.5,263.5715 L313.5,263.2615 L315.5,263.2997 L317.5,263.58 L319.5,263.0261 L321.5,263.6406 L321.848,263.9886 L319.1038,261.2445 L317.3757,259.5163 L315.7715,257.9121 L313.4461,255.5867 L311.5,253.6406 " fill="#FBFB77" style="stroke:#A80036;stroke-width:1.0;"/><text fill="#000000" font-family="sans-serif" font-size="13" lengthAdjust="spacing" textLength="71" x="202.5" y="272.1357">For all piles:</text><text fill="#000000" font-family="sans-serif" font-size="13" lengthAdjust="spacing" textLength="71" x="202.5" y="288.4873">nCards = 13</text><text fill="#000000" font-family="sans-serif" font-size="13" lengthAdjust="spacing" textLength="76" x="202.5" y="304.8389">firstRank = A</text><text fill="#000000" font-family="sans-serif" font-size="13" lengthAdjust="spacing" textLength="104" x="202.5" y="321.1904">order = ascending</text><polygon fill="#FEFECE" filter="url(#fucjv0aqv77z9)" points="344,141.6406,344,141.8508,354,141.2263,364,141.8339,374,142.0403,384,140.9272,394,141.5629,404,141.2141,414,141.2571,424,141.5725,434,140.9493,444,141.6406,444.5536,141.6406,443.3697,152.0906,443.8022,162.5406,444.4319,172.9906,443.9142,183.4406,444,193.8906,444,193.9589,434,193.8587,424,194.0692,414,194.1298,404,194.4763,394,194.5617,384,194.5699,374,194.1453,364,194.3542,354,194.5929,344,193.8906,343.2788,193.8906,344.6785,183.4406,343.7035,172.9906,344.5338,162.5406,343.505,152.0906,344,141.6406" style="stroke:#A80036;stroke-width:1.5;"/><text fill="#000000" font-family="sans-serif" font-size="12" lengthAdjust="spacing" textLength="86" x="351" y="156.0977">foundationPile2</text><path d="M345,160.7344 L345,161.0146 L354.8,160.1819 L364.6,160.9921 L374.4,161.2673 L384.2,159.7832 L394,160.6308 L403.8,160.1657 L413.6,160.223 L423.4,160.6435 L433.2,159.8125 L443,160.7344 " fill="#FEFECE" style="stroke:#A80036;stroke-width:1.5;"/><text fill="#000000" font-family="sans-serif" font-size="10" lengthAdjust="spacing" textLength="56" x="350" y="175.1152">suit = hearts</text><text fill="#000000" font-family="sans-serif" font-size="10" lengthAdjust="spacing" textLength="51" x="350" y="187.6934">color = red</text><polygon fill="#FEFECE" filter="url(#fucjv0aqv77z9)" points="479,141.6406,479,141.8508,489,141.2263,499,141.8339,509,142.0403,519,140.9272,529,141.5629,539,141.2141,549,141.2571,559,141.5725,569,140.9493,579,141.6406,579.5536,141.6406,578.3697,152.0906,578.8022,162.5406,579.4319,172.9906,578.9142,183.4406,579,193.8906,579,193.9589,569,193.8587,559,194.0692,549,194.1298,539,194.4763,529,194.5617,519,194.5699,509,194.1453,499,194.3542,489,194.5929,479,193.8906,478.2788,193.8906,479.6785,183.4406,478.7035,172.9906,479.5338,162.5406,478.505,152.0906,479,141.6406" style="stroke:#A80036;stroke-width:1.5;"/><text fill="#000000" font-family="sans-serif" font-size="12" lengthAdjust="spacing" textLength="86" x="486" y="156.0977">foundationPile3</text><path d="M480,160.7344 L480,161.0146 L489.8,160.1819 L499.6,160.9921 L509.4,161.2673 L519.2,159.7832 L529,160.6308 L538.8,160.1657 L548.6,160.223 L558.4,160.6435 L568.2,159.8125 L578,160.7344 " fill="#FEFECE" style="stroke:#A80036;stroke-width:1.5;"/><text fill="#000000" font-family="sans-serif" font-size="10" lengthAdjust="spacing" textLength="53" x="485" y="175.1152">suit = clubs</text><text fill="#000000" font-family="sans-serif" font-size="10" lengthAdjust="spacing" textLength="61" x="485" y="187.6934">color = black</text><polygon fill="#FEFECE" filter="url(#fucjv0aqv77z9)" points="614,141.6406,614,141.8508,624,141.2263,634,141.8339,644,142.0403,654,140.9272,664,141.5629,674,141.2141,684,141.2571,694,141.5725,704,140.9493,714,141.6406,714.5536,141.6406,713.3697,152.0906,713.8022,162.5406,714.4319,172.9906,713.9142,183.4406,714,193.8906,714,193.9589,704,193.8587,694,194.0692,684,194.1298,674,194.4763,664,194.5617,654,194.5699,644,194.1453,634,194.3542,624,194.5929,614,193.8906,613.2788,193.8906,614.6785,183.4406,613.7035,172.9906,614.5338,162.5406,613.505,152.0906,614,141.6406" style="stroke:#A80036;stroke-width:1.5;"/><text fill="#000000" font-family="sans-serif" font-size="12" lengthAdjust="spacing" textLength="86" x="621" y="156.0977">foundationPile4</text><path d="M615,160.7344 L615,161.0146 L624.8,160.1819 L634.6,160.9921 L644.4,161.2673 L654.2,159.7832 L664,160.6308 L673.8,160.1657 L683.6,160.223 L693.4,160.6435 L703.2,159.8125 L713,160.7344 " fill="#FEFECE" style="stroke:#A80036;stroke-width:1.5;"/><text fill="#000000" font-family="sans-serif" font-size="10" lengthAdjust="spacing" textLength="74" x="620" y="175.1152">suit = diamonds</text><text fill="#000000" font-family="sans-serif" font-size="10" lengthAdjust="spacing" textLength="51" x="620" y="187.6934">color = red</text><polygon fill="#FEFECE" filter="url(#fucjv0aqv77z9)" points="749.5,147.6406,749.5,147.8508,759.875,147.2263,770.25,147.8339,780.625,148.0403,791,146.9272,801.375,147.5629,811.75,147.2141,822.125,147.2571,832.5,147.6406,832.4773,147.6406,832.2695,155.575,832.6845,163.5094,832.2899,171.4438,832.4341,179.3781,832.5,187.3125,832.5,187.7444,822.125,187.2267,811.75,187.3807,801.375,187.2806,791,187.491,780.625,187.5516,770.25,187.8982,759.875,187.9836,749.5,187.3125,749.7264,187.3125,749.5849,179.3781,749.6545,171.4438,749.7341,163.5094,749.2596,155.575,749.5,147.6406" style="stroke:#A80036;stroke-width:1.5;"/><text fill="#000000" font-family="sans-serif" font-size="12" lengthAdjust="spacing" textLength="69" x="756.5" y="162.0977">tableauPile1</text><path d="M750.5,166.7344 L750.5,167.0146 L760.625,166.1819 L770.75,166.9921 L780.875,167.2673 L791,165.7832 L801.125,166.6308 L811.25,166.1657 L821.375,166.223 L831.5,166.7344 " fill="#FEFECE" style="stroke:#A80036;stroke-width:1.5;"/><text fill="#000000" font-family="sans-serif" font-size="10" lengthAdjust="spacing" textLength="50" x="755.5" y="181.1152">nCards = 0</text><path d="M739.5,269.6406 L739.5,312.3438 A0,0 0 0 0 739.5,312.3438 L842.5,312.3438 A0,0 0 0 0 842.5,312.3438 L842.5,279.6406 L832.5,269.6406 L795,269.6406 L791,187.8906 L787,269.6406 L739.5,269.6406 A0,0 0 0 0 739.5,269.6406 " fill="#FBFB77" filter="url(#fucjv0aqv77z9)" style="stroke:#A80036;stroke-width:1.0;"/><path d="M832.5,269.6406 L832.6868,269.6406 L832.1317,271.6406 L832.6718,273.6406 L832.8553,275.6406 L831.8659,277.6406 L832.5,279.6406 L832.5,279.5715 L834.5,279.2615 L836.5,279.2997 L838.5,279.58 L840.5,279.0261 L842.5,279.6406 L842.848,279.9886 L840.1038,277.2445 L838.3757,275.5163 L836.7715,273.9121 L834.4461,271.5867 L832.5,269.6406 " fill="#FBFB77" style="stroke:#A80036;stroke-width:1.0;"/><text fill="#000000" font-family="sans-serif" font-size="13" lengthAdjust="spacing" textLength="82" x="745.5" y="288.1357">7 equal empty</text><text fill="#000000" font-family="sans-serif" font-size="13" lengthAdjust="spacing" textLength="73" x="745.5" y="304.4873">tableau piles</text><!--MD5=[2222e3c4ee03d88807c6978b7888f86b]
link myKlondike to thePlayer--><path d="M445.42,55.6406 L445.42,55.734 L447.354,55.4565 L449.288,55.7265 L451.222,55.8183 L453.156,55.3236 L455.09,55.6406 " fill="none" style="stroke:#A80036;stroke-width:1.0;"/><polygon fill="#A80036" points="468.42,55.6406,468.4485,55.7046,466.5639,54.7144,464.8462,54.0995,463.0741,53.3624,461.1234,52.2233,459.42,51.6406,459.4017,51.6223,460.1195,52.3401,460.9296,53.1502,461.8039,54.0246,462.457,54.6777,463.42,55.6406,463.5505,55.7711,462.4714,56.2921,461.7734,57.194,461.1218,58.1424,460.1998,58.8204,459.42,59.6406,459.4292,59.6614,461.2157,58.8309,463.0442,58.095,464.8524,57.3135,466.6993,56.619,468.42,55.6406" style="stroke:#A80036;stroke-width:1.0;"/><path d="M463.42,55.6406 L463.42,55.734 L461.82,55.4565 L460.22,55.7265 L458.62,55.8183 L457.02,55.3236 L455.42,55.6406 " fill="#A80036" style="stroke:#A80036;stroke-width:1.0;"/><polygon fill="#A80036" points="433.42,55.6406,433.4589,55.6989,434.5434,56.3257,435.8557,57.2942,437.0939,58.1515,438.0881,58.6428,439.42,59.6406,439.4056,59.6191,440.5411,58.7223,441.7491,57.9343,443.0074,57.2217,444.0922,56.2489,445.42,55.6406,445.5224,55.7942,444.1035,54.6658,442.9834,53.9858,441.8999,53.3604,440.6041,52.4168,439.42,51.6406,439.4326,51.6596,438.2141,52.4318,437.053,53.2901,435.8642,54.1069,434.7283,55.0031,433.42,55.6406" style="stroke:#A80036;stroke-width:1.0;"/><!--MD5=[b8c679d54058b3938de06682113bf7ea]
link myKlondike to tableauPile1--><path d="M444.3586,79.3363 L444.3892,79.4245 L445.6265,79.6232 L447.0433,80.3392 L448.4017,80.8867 L449.5678,80.8802 L451,81.6406 L450.9896,81.6077 L453.1739,82.1619 L455.4103,82.8821 L457.6832,83.7179 L459.8308,84.1557 L462.1538,85.1508 L462.2243,85.3866 L464.2121,85.5221 L466.4059,86.3459 L468.6247,87.2537 L470.6974,87.6729 L472.8469,88.349 L472.8552,88.3782 L474.8957,88.9167 L476.9738,89.5881 L479.0338,90.1954 L481.1284,90.9249 L483.1101,91.2558 L483.1871,91.544 L485.1609,92.0747 L487.085,92.4196 L489.0818,93.0365 L491.082,93.6662 L492.9742,93.8919 L492.8984,93.5804 L496.7763,95.0934 L500.4045,95.5809 L504.2226,96.8479 L507.8451,97.3121 L511.6279,98.4344 L511.6216,98.4046 L515.1818,99.4983 L518.5939,99.8962 L522.0934,100.7047 L525.6003,101.5476 L529.0542,102.1419 L529.0878,102.3238 L532.3429,102.7477 L535.6554,103.4824 L538.8749,103.7143 L542.2331,104.6963 L545.4991,105.1795 L545.5379,105.42 L548.6725,105.8811 L551.8263,106.4617 L554.8907,106.4873 L558.0206,106.9197 L561.2087,107.7125 L561.1693,107.4391 L564.249,108.1253 L567.2844,108.5035 L570.3841,109.3284 L573.3739,109.3906 L576.429,109.9061 L576.4087,109.755 L579.438,110.4106 L582.3803,110.4202 L585.3845,110.8892 L588.4494,111.8076 L591.4063,111.9256 L591.432,112.1175 L594.4457,112.6513 L597.3793,112.5881 L600.4132,113.2726 L603.4253,113.7942 L606.3864,113.9362 L606.3568,113.7283 L609.4262,114.3274 L612.4859,114.8584 L615.5647,115.5231 L618.5694,115.6679 L621.6155,116.1031 L621.6477,116.3062 L624.7219,116.3577 L627.8582,116.8012 L631.0851,117.8173 L634.1451,117.7792 L637.3398,118.5916 L637.38,118.8142 L640.6492,119.277 L643.9047,119.6645 L647.191,120.222 L650.5483,121.1725 L653.8052,121.5669 L653.7781,121.4366 L657.3492,122.5499 L660.7362,122.7773 L664.3326,124.0119 L667.8111,124.6795 L671.2578,125.1942 L671.283,125.3001 L674.9999,126.1035 L678.8069,127.2862 L682.5325,128.1262 L686.224,128.823 L689.9438,129.6388 L689.9739,129.7541 L691.9056,130.0988 L693.9772,130.979 L695.8906,131.2536 L697.8691,131.7773 L699.8262,132.2191 L699.754,131.9586 L701.8347,132.6149 L704.0023,133.5852 L706.0469,134.1112 L708.0475,134.4781 L710.1091,135.0658 L710.0689,134.9284 L712.2247,135.5992 L714.3093,136.0266 L716.5895,137.1229 L718.7729,137.8882 L720.8235,138.1994 L720.8924,138.423 L723.1497,139.1829 L725.2762,139.5178 L727.5408,140.3012 L729.714,140.7877 L732,141.6406 L732.0396,141.7605 L733.0644,142.0848 L734.137,142.5538 L735.058,142.5637 L736.1013,142.9439 L737.15,143.3406 " fill="none" style="stroke:#A80036;stroke-width:1.0;"/><polygon fill="#A80036" points="749.47,147.8806,749.5189,147.9308,747.9618,146.4081,746.6911,145.1798,745.3271,143.8557,743.6565,142.2162,742.4103,141.0132,742.3868,141.0024,742.755,141.9811,743.2417,143.0145,743.8109,144.086,744.0959,145.0264,744.7789,146.1503,744.8562,146.3179,743.6636,146.4332,742.6965,147.0379,741.757,147.7022,740.6573,148.0192,739.6418,148.5189,739.6433,148.5416,741.6068,148.3806,743.577,148.323,745.5439,148.2155,747.517,148.2031,749.47,147.8806" style="stroke:#A80036;stroke-width:1.0;"/><path d="M744.7789,146.1503 L744.8113,146.238 L743.2144,145.4236 L741.8071,145.123 L740.3381,144.6551 L738.666,143.6371 L737.275,143.3806 " fill="#A80036" style="stroke:#A80036;stroke-width:1.0;"/><polygon fill="#A80036" points="433.15,75.0506,433.2071,75.0912,433.8726,76.1465,434.8728,77.4395,435.7641,78.6552,436.2967,79.6161,437.3258,80.9297,437.32,80.9044,438.7009,80.4723,440.1107,80.1676,441.5405,79.9515,442.9011,79.4302,444.3586,79.3363,444.5091,79.4431,443.3522,78.0388,442.6346,76.9465,441.9706,75.8922,440.9947,74.6165,440.1829,73.4572,440.1879,73.4794,438.7739,73.7655,437.3829,74.1526,435.9808,74.491,434.5997,74.9224,433.15,75.0506" style="stroke:#A80036;stroke-width:1.0;"/><!--MD5=[d5c8ba7e2b2502fdde6b5ae1f3d7a78f]
link myKlondike to stockPile--><path d="M342.827,67.5394 L342.8494,67.6301 L337.2562,68.7273 L331.7944,70.3562 L326.2899,71.812 L320.6445,72.6985 L315.194,74.373 L315.1855,74.3395 L309.1168,75.7326 L303.0912,77.2944 L297.0957,78.9734 L290.9968,80.2483 L285.0427,82.0892 L285.1057,82.327 L277.543,83.7881 L270.1645,85.9435 L262.8084,88.1837 L255.3216,89.931 L247.9035,91.9375 L247.9115,91.9667 L243.8447,93.0341 L239.8143,94.2347 L235.7663,95.371 L231.7519,96.6299 L227.628,97.4892 L227.7087,97.7763 L223.5247,98.9554 L219.2887,99.9494 L215.1288,101.2144 L210.9725,102.4922 L206.7031,103.3674 L206.614,103.0595 L202.5452,104.8843 L198.183,105.6952 L194.0438,107.2769 L189.675,108.0648 L185.4944,109.5033 L185.4857,109.4742 L181.3637,111.0841 L177.0376,112.0126 L172.832,113.3431 L168.6364,114.7074 L164.368,115.8282 L164.423,116.0049 L160.2318,117.1156 L156.1346,118.5281 L151.8852,119.4524 L147.8628,121.1049 L143.6895,122.2732 L143.7652,122.5048 L139.7779,123.7603 L135.8283,125.1307 L131.7039,125.9669 L127.7076,127.1948 L123.8248,128.7695 L123.7343,128.5086 L120.0792,130.0405 L116.3221,131.2785 L112.7129,132.9429 L108.8512,133.8792 L105.1397,135.2483 L105.0864,135.1054 L101.7472,136.6218 L98.1802,137.5275 L94.7752,138.8675 L91.5287,140.6324 L88,141.6406 L88.073,141.82 L87.1851,142.325 L86.0701,142.2722 L85.2395,142.918 L84.347,143.4117 L83.31,143.5506 " fill="none" style="stroke:#A80036;stroke-width:1.0;"/><polygon fill="#A80036" points="71.26,149.0306,71.2606,149.1007,73.2284,148.8747,75.2,149.0594,77.1703,149.1104,79.1366,148.7216,81.1085,148.9416,81.0994,148.9173,79.999,148.4119,78.9445,148.0287,77.9217,147.7306,76.7893,147.1395,75.8105,146.9587,75.9834,147.0234,76.0103,145.8255,76.5419,144.8164,77.1351,143.8304,77.37,142.7103,77.7934,141.6608,77.8104,141.6759,76.4787,143.1277,75.2246,144.6482,73.933,146.1356,72.7128,147.6862,71.26,149.0306" style="stroke:#A80036;stroke-width:1.0;"/><path d="M75.8105,146.9587 L75.8492,147.0437 L77.1911,146.1275 L78.7599,145.7097 L80.2548,145.1295 L81.5067,144.0157 L83.095,143.6406 " fill="#A80036" style="stroke:#A80036;stroke-width:1.0;"/><polygon fill="#A80036" points="354.54,64.9306,354.5653,64.996,353.145,64.2818,351.8728,63.9507,350.5524,63.4949,349.0734,62.6289,347.8139,62.3307,347.7952,62.3127,346.7138,63.2741,345.7268,64.3257,344.8054,65.4402,343.6579,66.3383,342.827,67.5394,342.8935,67.7115,344.0965,67.8634,345.4937,68.5179,346.9146,69.2336,348.1976,69.5927,349.5531,70.1393,349.5695,70.1551,350.5428,69.0902,351.5908,68.097,352.6028,67.0692,353.6836,66.1074,354.54,64.9306" style="stroke:#A80036;stroke-width:1.0;"/><!--MD5=[d189ae714aeafe633e603490a88e0d3f]
link myKlondike to wastePile--><path d="M343.6657,76.7605 L343.7013,76.8469 L340.2613,77.9656 L337.0301,79.5905 L333.7309,81.0506 L330.208,81.9685 L326.9948,83.6369 L326.9815,83.605 L318.8205,86.8354 L310.7265,90.2265 L302.679,93.7294 L294.4711,96.8472 L286.4878,100.5043 L286.7758,101.184 L276.1432,103.9736 L266.3512,108.7477 L256.6618,113.7639 L246.3757,117.3714 L236.4034,121.7198 L236.4154,121.7477 L231.5621,123.8018 L226.7637,125.9826 L221.9388,128.1023 L217.1645,130.3386 L212.2254,132.1947 L212.3467,132.4672 L208.1031,134.3597 L203.7813,136.0765 L199.5739,138.0505 L195.372,140.0366 L191,141.6406 L190.8662,141.3494 L190.1379,142.3686 L188.969,142.4289 L188.1351,143.2182 L186.9561,143.2567 L186.06,143.9106 " fill="none" style="stroke:#A80036;stroke-width:1.0;"/><polygon fill="#A80036" points="174.16,149.5506,174.1617,149.6207,176.1257,149.3638,178.0999,149.5174,180.0708,149.5374,182.0308,149.1177,184.0058,149.3066,183.9971,149.2822,182.8924,148.7929,181.8315,148.4265,180.8011,148.1457,179.6657,147.5701,178.6773,147.4074,178.8512,147.4693,178.8593,146.2711,179.375,145.2538,179.9525,144.2586,180.1698,143.135,180.5766,142.0789,180.5939,142.0937,179.2852,143.5663,178.0551,145.1063,176.7871,146.6139,175.5914,148.1835,174.16,149.5506" style="stroke:#A80036;stroke-width:1.0;"/><path d="M178.6773,147.4074 L178.7173,147.4918 L180.045,146.5556 L181.6072,146.1143 L183.093,145.5118 L184.3277,144.3794 L185.91,143.9806 " fill="#A80036" style="stroke:#A80036;stroke-width:1.0;"/><polygon fill="#A80036" points="354.79,72.2606,354.8042,72.3292,353.3496,71.8337,351.9782,71.7405,350.5797,71.5162,349.0922,70.8612,347.7279,70.8025,347.7065,70.7879,346.798,71.914,345.9974,73.1137,345.2718,74.3645,344.2877,75.4391,343.6657,76.7605,343.703,76.9412,345.0356,76.8464,346.4772,77.2792,347.9321,77.7764,349.3096,77.899,350.7278,78.2187,350.7466,78.2315,351.5314,77.0211,352.4018,75.869,353.231,74.6888,354.1389,73.5622,354.79,72.2606" style="stroke:#A80036;stroke-width:1.0;"/><!--MD5=[190ff11e45e698f436a8805859cdaacf]
link myKlondike to foundationPile1--><path d="M353.7191,89.4507 L353.8961,89.6679 L345.7473,95.2353 L338.6364,102.0762 L331.1876,108.5023 L322.6272,113.5648 L315.54,120.4346 L307.6235,126.287 L300.36,132.9406 " fill="none" style="stroke:#A80036;stroke-width:1.0;"/><polygon fill="#A80036" points="289.83,141.5206,289.8484,141.5882,291.6947,140.8709,293.6486,140.55,295.5676,140.1,297.3712,139.2255,299.3344,138.9386,299.3317,138.9128,298.1944,138.6821,297.0704,138.5812,295.9556,138.5707,294.8089,138.249,293.7069,138.3631,293.8905,138.3819,293.613,137.2162,293.8715,136.1054,294.1954,135.0013,294.1388,133.8582,294.2824,132.7356,294.3027,132.7459,293.3824,134.4878,292.5545,136.2765,291.682,138.0427,290.8946,139.8519,289.83,141.5206" style="stroke:#A80036;stroke-width:1.0;"/><path d="M293.7069,138.3631 L293.7659,138.4355 L294.8301,137.2099 L296.2404,136.4087 L297.538,135.4693 L298.465,134.0754 L299.905,133.3106 " fill="#A80036" style="stroke:#A80036;stroke-width:1.0;"/><polygon fill="#A80036" points="363.03,81.8806,363.0366,81.9504,361.5812,81.8794,360.1646,82.2173,358.7353,82.4221,357.2645,82.189,355.8512,82.562,355.8264,82.5544,355.2889,83.8977,354.8762,85.2797,354.5502,86.6885,353.9253,88.0048,353.7191,89.4507,353.7365,89.6344,355.135,89.1053,356.5844,89.1125,358.04,89.1852,359.4594,88.8771,360.8979,88.7693,360.9196,88.776,361.3141,87.3884,361.8076,86.0314,362.2533,84.6597,362.7901,83.3161,363.03,81.8806" style="stroke:#A80036;stroke-width:1.0;"/><!--MD5=[97347a5d81823933db27a4d86dc9af60]
link myKlondike to foundationPile2--><path d="M394,93.8806 L394.0934,93.8806 L393.8159,100.7426 L394.0859,107.6046 L394.1776,114.4666 L393.6829,121.3286 L394,128.1906 " fill="none" style="stroke:#A80036;stroke-width:1.0;"/><polygon fill="#A80036" points="394,141.5206,394.064,141.5491,394.6738,139.6645,395.6589,137.9468,396.5217,136.1747,396.9827,134.224,398,132.5206,397.9817,132.5023,397.0995,133.2201,396.3096,134.0302,395.5839,134.9046,394.637,135.5577,394,136.5206,394.1305,136.6511,393.0514,135.5721,392.3534,134.874,391.7018,134.2224,390.7798,133.3004,390,132.5206,390.0208,132.5299,390.7903,134.3163,391.6544,136.1448,392.4728,137.953,393.3784,139.7999,394,141.5206" style="stroke:#A80036;stroke-width:1.0;"/><path d="M394,136.5206 L394.0934,136.5206 L393.8159,134.9206 L394.0859,133.3206 L394.1776,131.7206 L393.6829,130.1206 L394,128.5206 " fill="#A80036" style="stroke:#A80036;stroke-width:1.0;"/><polygon fill="#A80036" points="394,81.8806,394.0583,81.9195,393.0851,83.004,392.4536,84.3164,391.7109,85.5545,390.6021,86.5487,390,87.8806,389.9784,87.8663,390.6817,89.0018,391.4936,90.2097,392.3811,91.468,393.0082,92.5528,394,93.8806,394.1536,93.983,394.6252,92.5641,395.5451,91.4441,396.5198,90.3605,397.1762,89.0648,398,87.8806,398.0189,87.8932,397.1911,86.6747,396.4495,85.5136,395.6663,84.3248,394.9624,83.1889,394,81.8806" style="stroke:#A80036;stroke-width:1.0;"/><!--MD5=[0466bd360d05d3bbbe254bab23232054]
link myKlondike to foundationPile3--><path d="M434.2809,89.4507 L434.458,89.6679 L441.5547,95.2353 L449.6892,102.0762 L457.4858,108.5023 L464.1709,113.5648 L472.3291,120.4346 L479.658,126.287 L487.64,132.9406 " fill="none" style="stroke:#A80036;stroke-width:1.0;"/><polygon fill="#A80036" points="498.17,141.5206,498.2325,141.5523,497.1563,139.7012,496.4465,138.0357,495.6174,136.3098,494.396,134.3851,493.7176,132.7356,493.6919,132.733,493.6913,133.8466,493.8207,134.9736,494.0403,136.1098,493.9488,137.2142,494.2931,138.3631,494.3119,138.5467,493.1463,138.2692,492.0354,138.5277,490.9313,138.8516,489.7882,138.7951,488.6656,138.9386,488.6716,138.9606,490.5637,139.4447,492.483,140.0288,494.3891,140.5647,496.3203,141.1926,498.17,141.5206" style="stroke:#A80036;stroke-width:1.0;"/><path d="M494.2931,138.3631 L494.3522,138.4355 L492.9372,137.2099 L491.8682,136.4087 L490.6865,135.4693 L489.1343,134.0754 L488.095,133.3106 " fill="#A80036" style="stroke:#A80036;stroke-width:1.0;"/><polygon fill="#A80036" points="424.97,81.8806,425.0369,81.9013,425.2645,83.2175,425.8844,84.6552,426.3765,86.0532,426.4485,87.3213,427.1021,88.7693,427.0997,88.7435,428.5244,88.7641,429.9616,88.9146,431.4073,89.1555,432.8234,89.085,434.2809,89.4507,434.4572,89.5053,433.6538,88.0109,433.3651,86.6757,433.1392,85.3601,432.5479,83.9313,432.1488,82.562,432.151,82.5847,430.7121,82.4151,429.2829,82.3487,427.8491,82.2325,426.4242,82.2113,424.97,81.8806" style="stroke:#A80036;stroke-width:1.0;"/><!--MD5=[600e3cb037d6e232bd9ff5530574542f]
link myKlondike to foundationPile4--><path d="M444.1963,78.7656 L444.2327,78.8517 L445.4854,79.171 L446.9512,79.9947 L448.3477,80.6542 L449.5159,80.7736 L451,81.6406 L450.9868,81.6087 L458.6985,84.6777 L466.4766,87.9077 L474.3011,91.2495 L481.9661,94.2058 L489.8544,97.702 L489.9468,97.9301 L497.6423,100.6399 L505.6076,104.0155 L513.6058,107.4724 L521.4126,110.4566 L529.32,113.6894 L529.3312,113.7175 L536.9124,116.7083 L544.5447,119.8273 L552.1523,122.8844 L559.807,126.0595 L567.3081,128.8498 L567.4176,129.1273 L574.3033,131.8468 L581.1184,134.3874 L588.0369,137.19 L594.9602,140.0048 L601.73,142.4306 " fill="none" style="stroke:#A80036;stroke-width:1.0;"/><polygon fill="#A80036" points="613.88,147.1906,613.9299,147.2398,612.3978,145.6919,611.158,144.4325,609.8231,143.0791,608.1752,141.4167,606.9605,140.1821,606.9367,140.1717,607.2831,141.1619,607.7491,142.2044,608.2983,143.2833,608.5608,144.2369,609.2248,145.3659,609.2987,145.5351,608.104,145.6263,607.1249,146.2113,606.1721,146.8565,605.0663,147.1512,604.041,147.6303,604.042,147.653,606.0083,147.5317,607.9792,147.5139,609.9479,147.4461,611.9209,147.4736,613.88,147.1906" style="stroke:#A80036;stroke-width:1.0;"/><path d="M609.2248,145.3659 L609.259,145.4529 L607.6686,144.6104 L606.2783,144.2778 L604.8228,143.7791 L603.1532,142.7345 L601.78,142.4456 " fill="#A80036" style="stroke:#A80036;stroke-width:1.0;"/><polygon fill="#A80036" points="433.17,74.0306,433.2287,74.0689,433.8412,75.1639,434.7979,76.483,435.6425,77.7291,436.1186,78.7352,437.1048,80.0736,437.1001,80.0481,438.4973,79.6722,439.9182,79.4247,441.3556,79.2665,442.7362,78.8006,444.1963,78.7656,444.351,78.8663,443.2333,77.4424,442.5671,76.3125,441.9561,75.2184,441.0245,73.9157,440.2615,72.7227,440.2656,72.745,438.8413,72.9738,437.4357,73.3044,436.0211,73.5858,434.6237,73.961,433.17,74.0306" style="stroke:#A80036;stroke-width:1.0;"/><!--MD5=[134118192aed98aeed119679330cb0af]
@startuml klondike- -final-state
skinparam handwritten true

title Klondike. Final State

object myKlondike {
    nGame = 1
    status = 3
}

object goal {
    status = true
}

object thePlayer {
    id = 1
    name = 'Diego'
}
object stockPile

object stockPile {
    nCards = 0
}
object wastePile {
    nCards = 0
}

object foundationPile1 {
    suit = spades
    color = black
}

note bottom of foundationPile1
    For all piles:
    nCards = 13
    firstRank = A
    order = ascending
end note

object foundationPile2 {
    suit = hearts
    color = red
}
object foundationPile3 {
    suit = clubs
    color = black
}
object foundationPile4 {
    suit = diamonds
    color = red
}

object tableauPile1 {
    nCards = 0
}
note bottom of tableauPile1
    7 equal empty
    tableau piles
end note



myKlondike *-> thePlayer
myKlondike *- -> tableauPile1
myKlondike *- -> stockPile
myKlondike *- -> wastePile

myKlondike *- -> foundationPile1
myKlondike *- -> foundationPile2
myKlondike *- -> foundationPile3
myKlondike *- -> foundationPile4



@enduml

PlantUML version 1.2022.0(Tue Jan 11 17:16:42 CET 2022)
(GPL source distribution)
Java Runtime: Java(TM) SE Runtime Environment
JVM: Java HotSpot(TM) 64-Bit Server VM
Default Encoding: Cp1252
Language: es
Country: ES
--></g></svg>