<?xml version="1.0" encoding="UTF-8" standalone="no"?><svg xmlns="http://www.w3.org/2000/svg" xmlns:xlink="http://www.w3.org/1999/xlink" contentScriptType="application/ecmascript" contentStyleType="text/css" height="789px" preserveAspectRatio="none" style="width:926px;height:789px;background:#FFFFFF;" version="1.1" viewBox="0 0 926 789" width="926px" zoomAndPan="magnify"><defs><filter height="300%" id="f9aco4j90jgiy" width="300%" x="-1" y="-1"><feGaussianBlur result="blurOut" stdDeviation="2.0"/><feColorMatrix in="blurOut" result="blurOut2" type="matrix" values="0 0 0 0 0 0 0 0 0 0 0 0 0 0 0 0 0 0 .4 0"/><feOffset dx="4.0" dy="4.0" in="blurOut2" result="blurOut3"/><feBlend in="SourceGraphic" in2="blurOut3" mode="normal"/></filter></defs><g><text fill="#000000" font-family="sans-serif" font-size="18" lengthAdjust="spacing" textLength="171" x="368.85" y="18.6855">Connect4 Vocabulary</text><text fill="#000000" font-family="sans-serif" font-size="18" lengthAdjust="spacing" textLength="0" x="459.35" y="41.3262"/><!--MD5=[10b1f240992e2c34b6908209bf85bfd2]
class Connect4--><rect codeLine="5" fill="#FEFECE" filter="url(#f9aco4j90jgiy)" height="48" id="Connect4" style="stroke:#A80036;stroke-width:1.5;" width="85" x="539.48" y="52.2813"/><ellipse cx="554.48" cy="68.2813" fill="#ADD1B2" rx="11" ry="11" style="stroke:#A80036;stroke-width:1.0;"/><path d="M557.2456,64.1563 Q557.4019,63.9375 557.5894,63.8281 Q557.7769,63.7188 557.9956,63.7188 Q558.3706,63.7188 558.605,63.9766 Q558.8394,64.2344 558.8394,64.8438 L558.8394,66.2969 Q558.8394,66.9063 558.605,67.1719 Q558.3706,67.4375 557.9956,67.4375 Q557.6519,67.4375 557.4488,67.2344 Q557.2456,67.0469 557.1363,66.5313 Q557.0894,66.1719 556.9019,65.9844 Q556.5738,65.6094 555.9644,65.3906 Q555.355,65.1719 554.73,65.1719 Q553.9644,65.1719 553.3316,65.5 Q552.6988,65.8281 552.2066,66.5781 Q551.7144,67.3281 551.7144,68.3594 L551.7144,69.4531 Q551.7144,70.6875 552.605,71.5078 Q553.4956,72.3281 555.0894,72.3281 Q556.0269,72.3281 556.6831,72.0781 Q557.0738,71.9219 557.4956,71.4844 Q557.7613,71.2188 557.9097,71.1406 Q558.0581,71.0625 558.2613,71.0625 Q558.5894,71.0625 558.8472,71.3203 Q559.105,71.5781 559.105,71.9219 Q559.105,72.2656 558.7613,72.6719 Q558.2613,73.25 557.4644,73.5781 Q556.3863,74.0313 555.0894,74.0313 Q553.5738,74.0313 552.3706,73.4063 Q551.3863,72.9063 550.6988,71.8359 Q550.0113,70.7656 550.0113,69.4844 L550.0113,68.3281 Q550.0113,67 550.6284,65.8516 Q551.2456,64.7031 552.3394,64.0859 Q553.4331,63.4688 554.6675,63.4688 Q555.4019,63.4688 556.0503,63.6328 Q556.6988,63.7969 557.2456,64.1563 Z " fill="#000000"/><text fill="#000000" font-family="sans-serif" font-size="12" lengthAdjust="spacing" textLength="53" x="568.48" y="73.1914">Connect4</text><line style="stroke:#A80036;stroke-width:1.5;" x1="540.48" x2="623.48" y1="84.2813" y2="84.2813"/><line style="stroke:#A80036;stroke-width:1.5;" x1="540.48" x2="623.48" y1="92.2813" y2="92.2813"/><!--MD5=[dd91eae41778c45e12552e5329e240e8]
class Turn--><rect codeLine="6" fill="#FEFECE" filter="url(#f9aco4j90jgiy)" height="48" id="Turn" style="stroke:#A80036;stroke-width:1.5;" width="57" x="512.48" y="160.2813"/><ellipse cx="527.48" cy="176.2813" fill="#ADD1B2" rx="11" ry="11" style="stroke:#A80036;stroke-width:1.0;"/><path d="M530.2456,172.1563 Q530.4019,171.9375 530.5894,171.8281 Q530.7769,171.7188 530.9956,171.7188 Q531.3706,171.7188 531.605,171.9766 Q531.8394,172.2344 531.8394,172.8438 L531.8394,174.2969 Q531.8394,174.9063 531.605,175.1719 Q531.3706,175.4375 530.9956,175.4375 Q530.6519,175.4375 530.4488,175.2344 Q530.2456,175.0469 530.1363,174.5313 Q530.0894,174.1719 529.9019,173.9844 Q529.5738,173.6094 528.9644,173.3906 Q528.355,173.1719 527.73,173.1719 Q526.9644,173.1719 526.3316,173.5 Q525.6988,173.8281 525.2066,174.5781 Q524.7144,175.3281 524.7144,176.3594 L524.7144,177.4531 Q524.7144,178.6875 525.605,179.5078 Q526.4956,180.3281 528.0894,180.3281 Q529.0269,180.3281 529.6831,180.0781 Q530.0738,179.9219 530.4956,179.4844 Q530.7613,179.2188 530.9097,179.1406 Q531.0581,179.0625 531.2613,179.0625 Q531.5894,179.0625 531.8472,179.3203 Q532.105,179.5781 532.105,179.9219 Q532.105,180.2656 531.7613,180.6719 Q531.2613,181.25 530.4644,181.5781 Q529.3863,182.0313 528.0894,182.0313 Q526.5738,182.0313 525.3706,181.4063 Q524.3863,180.9063 523.6988,179.8359 Q523.0113,178.7656 523.0113,177.4844 L523.0113,176.3281 Q523.0113,175 523.6284,173.8516 Q524.2456,172.7031 525.3394,172.0859 Q526.4331,171.4688 527.6675,171.4688 Q528.4019,171.4688 529.0503,171.6328 Q529.6988,171.7969 530.2456,172.1563 Z " fill="#000000"/><text fill="#000000" font-family="sans-serif" font-size="12" lengthAdjust="spacing" textLength="25" x="541.48" y="181.1914">Turn</text><line style="stroke:#A80036;stroke-width:1.5;" x1="513.48" x2="568.48" y1="192.2813" y2="192.2813"/><line style="stroke:#A80036;stroke-width:1.5;" x1="513.48" x2="568.48" y1="200.2813" y2="200.2813"/><!--MD5=[2cb47ba637a0d19583e6199456f6ad0b]
class Player--><rect codeLine="7" fill="#FEFECE" filter="url(#f9aco4j90jgiy)" height="48" id="Player" style="stroke:#A80036;stroke-width:1.5;" width="66" x="548.98" y="268.2813"/><ellipse cx="563.98" cy="284.2813" fill="#ADD1B2" rx="11" ry="11" style="stroke:#A80036;stroke-width:1.0;"/><path d="M566.7456,280.1563 Q566.9019,279.9375 567.0894,279.8281 Q567.2769,279.7188 567.4956,279.7188 Q567.8706,279.7188 568.105,279.9766 Q568.3394,280.2344 568.3394,280.8438 L568.3394,282.2969 Q568.3394,282.9063 568.105,283.1719 Q567.8706,283.4375 567.4956,283.4375 Q567.1519,283.4375 566.9488,283.2344 Q566.7456,283.0469 566.6363,282.5313 Q566.5894,282.1719 566.4019,281.9844 Q566.0738,281.6094 565.4644,281.3906 Q564.855,281.1719 564.23,281.1719 Q563.4644,281.1719 562.8316,281.5 Q562.1988,281.8281 561.7066,282.5781 Q561.2144,283.3281 561.2144,284.3594 L561.2144,285.4531 Q561.2144,286.6875 562.105,287.5078 Q562.9956,288.3281 564.5894,288.3281 Q565.5269,288.3281 566.1831,288.0781 Q566.5738,287.9219 566.9956,287.4844 Q567.2613,287.2188 567.4097,287.1406 Q567.5581,287.0625 567.7613,287.0625 Q568.0894,287.0625 568.3472,287.3203 Q568.605,287.5781 568.605,287.9219 Q568.605,288.2656 568.2613,288.6719 Q567.7613,289.25 566.9644,289.5781 Q565.8863,290.0313 564.5894,290.0313 Q563.0738,290.0313 561.8706,289.4063 Q560.8863,288.9063 560.1988,287.8359 Q559.5113,286.7656 559.5113,285.4844 L559.5113,284.3281 Q559.5113,283 560.1284,281.8516 Q560.7456,280.7031 561.8394,280.0859 Q562.9331,279.4688 564.1675,279.4688 Q564.9019,279.4688 565.5503,279.6328 Q566.1988,279.7969 566.7456,280.1563 Z " fill="#000000"/><text fill="#000000" font-family="sans-serif" font-size="12" lengthAdjust="spacing" textLength="34" x="577.98" y="289.1914">Player</text><line style="stroke:#A80036;stroke-width:1.5;" x1="549.98" x2="613.98" y1="300.2813" y2="300.2813"/><line style="stroke:#A80036;stroke-width:1.5;" x1="549.98" x2="613.98" y1="308.2813" y2="308.2813"/><!--MD5=[9563755d011c5cec7ec66dc53565a59e]
class Board--><rect codeLine="8" fill="#FEFECE" filter="url(#f9aco4j90jgiy)" height="48" id="Board" style="stroke:#A80036;stroke-width:1.5;" width="65" x="715.48" y="160.2813"/><ellipse cx="730.48" cy="176.2813" fill="#ADD1B2" rx="11" ry="11" style="stroke:#A80036;stroke-width:1.0;"/><path d="M733.2456,172.1563 Q733.4019,171.9375 733.5894,171.8281 Q733.7769,171.7188 733.9956,171.7188 Q734.3706,171.7188 734.605,171.9766 Q734.8394,172.2344 734.8394,172.8438 L734.8394,174.2969 Q734.8394,174.9063 734.605,175.1719 Q734.3706,175.4375 733.9956,175.4375 Q733.6519,175.4375 733.4488,175.2344 Q733.2456,175.0469 733.1363,174.5313 Q733.0894,174.1719 732.9019,173.9844 Q732.5738,173.6094 731.9644,173.3906 Q731.355,173.1719 730.73,173.1719 Q729.9644,173.1719 729.3316,173.5 Q728.6988,173.8281 728.2066,174.5781 Q727.7144,175.3281 727.7144,176.3594 L727.7144,177.4531 Q727.7144,178.6875 728.605,179.5078 Q729.4956,180.3281 731.0894,180.3281 Q732.0269,180.3281 732.6831,180.0781 Q733.0738,179.9219 733.4956,179.4844 Q733.7613,179.2188 733.9097,179.1406 Q734.0581,179.0625 734.2613,179.0625 Q734.5894,179.0625 734.8472,179.3203 Q735.105,179.5781 735.105,179.9219 Q735.105,180.2656 734.7613,180.6719 Q734.2613,181.25 733.4644,181.5781 Q732.3863,182.0313 731.0894,182.0313 Q729.5738,182.0313 728.3706,181.4063 Q727.3863,180.9063 726.6988,179.8359 Q726.0113,178.7656 726.0113,177.4844 L726.0113,176.3281 Q726.0113,175 726.6284,173.8516 Q727.2456,172.7031 728.3394,172.0859 Q729.4331,171.4688 730.6675,171.4688 Q731.4019,171.4688 732.0503,171.6328 Q732.6988,171.7969 733.2456,172.1563 Z " fill="#000000"/><text fill="#000000" font-family="sans-serif" font-size="12" lengthAdjust="spacing" textLength="33" x="744.48" y="181.1914">Board</text><line style="stroke:#A80036;stroke-width:1.5;" x1="716.48" x2="779.48" y1="192.2813" y2="192.2813"/><line style="stroke:#A80036;stroke-width:1.5;" x1="716.48" x2="779.48" y1="200.2813" y2="200.2813"/><!--MD5=[fea3dc74c7473bae0133d22265a91e2f]
class Cell--><rect codeLine="9" fill="#FEFECE" filter="url(#f9aco4j90jgiy)" height="48" id="Cell" style="stroke:#A80036;stroke-width:1.5;" width="54" x="768.98" y="376.2813"/><ellipse cx="783.98" cy="392.2813" fill="#ADD1B2" rx="11" ry="11" style="stroke:#A80036;stroke-width:1.0;"/><path d="M786.7456,388.1563 Q786.9019,387.9375 787.0894,387.8281 Q787.2769,387.7188 787.4956,387.7188 Q787.8706,387.7188 788.105,387.9766 Q788.3394,388.2344 788.3394,388.8438 L788.3394,390.2969 Q788.3394,390.9063 788.105,391.1719 Q787.8706,391.4375 787.4956,391.4375 Q787.1519,391.4375 786.9488,391.2344 Q786.7456,391.0469 786.6363,390.5313 Q786.5894,390.1719 786.4019,389.9844 Q786.0738,389.6094 785.4644,389.3906 Q784.855,389.1719 784.23,389.1719 Q783.4644,389.1719 782.8316,389.5 Q782.1988,389.8281 781.7066,390.5781 Q781.2144,391.3281 781.2144,392.3594 L781.2144,393.4531 Q781.2144,394.6875 782.105,395.5078 Q782.9956,396.3281 784.5894,396.3281 Q785.5269,396.3281 786.1831,396.0781 Q786.5738,395.9219 786.9956,395.4844 Q787.2613,395.2188 787.4097,395.1406 Q787.5581,395.0625 787.7613,395.0625 Q788.0894,395.0625 788.3472,395.3203 Q788.605,395.5781 788.605,395.9219 Q788.605,396.2656 788.2613,396.6719 Q787.7613,397.25 786.9644,397.5781 Q785.8863,398.0313 784.5894,398.0313 Q783.0738,398.0313 781.8706,397.4063 Q780.8863,396.9063 780.1988,395.8359 Q779.5113,394.7656 779.5113,393.4844 L779.5113,392.3281 Q779.5113,391 780.1284,389.8516 Q780.7456,388.7031 781.8394,388.0859 Q782.9331,387.4688 784.1675,387.4688 Q784.9019,387.4688 785.5503,387.6328 Q786.1988,387.7969 786.7456,388.1563 Z " fill="#000000"/><text fill="#000000" font-family="sans-serif" font-size="12" lengthAdjust="spacing" textLength="22" x="797.98" y="397.1914">Cell</text><line style="stroke:#A80036;stroke-width:1.5;" x1="769.98" x2="821.98" y1="408.2813" y2="408.2813"/><line style="stroke:#A80036;stroke-width:1.5;" x1="769.98" x2="821.98" y1="416.2813" y2="416.2813"/><!--MD5=[7aa1f1dff9826083057fe155c5dd6e52]
class Checker--><rect codeLine="10" fill="#FEFECE" filter="url(#f9aco4j90jgiy)" height="48" id="Checker" style="stroke:#A80036;stroke-width:1.5;" width="78" x="577.98" y="592.2813"/><ellipse cx="592.98" cy="608.2813" fill="#ADD1B2" rx="11" ry="11" style="stroke:#A80036;stroke-width:1.0;"/><path d="M595.7456,604.1563 Q595.9019,603.9375 596.0894,603.8281 Q596.2769,603.7188 596.4956,603.7188 Q596.8706,603.7188 597.105,603.9766 Q597.3394,604.2344 597.3394,604.8438 L597.3394,606.2969 Q597.3394,606.9063 597.105,607.1719 Q596.8706,607.4375 596.4956,607.4375 Q596.1519,607.4375 595.9488,607.2344 Q595.7456,607.0469 595.6363,606.5313 Q595.5894,606.1719 595.4019,605.9844 Q595.0738,605.6094 594.4644,605.3906 Q593.855,605.1719 593.23,605.1719 Q592.4644,605.1719 591.8316,605.5 Q591.1988,605.8281 590.7066,606.5781 Q590.2144,607.3281 590.2144,608.3594 L590.2144,609.4531 Q590.2144,610.6875 591.105,611.5078 Q591.9956,612.3281 593.5894,612.3281 Q594.5269,612.3281 595.1831,612.0781 Q595.5738,611.9219 595.9956,611.4844 Q596.2613,611.2188 596.4097,611.1406 Q596.5581,611.0625 596.7613,611.0625 Q597.0894,611.0625 597.3472,611.3203 Q597.605,611.5781 597.605,611.9219 Q597.605,612.2656 597.2613,612.6719 Q596.7613,613.25 595.9644,613.5781 Q594.8863,614.0313 593.5894,614.0313 Q592.0738,614.0313 590.8706,613.4063 Q589.8863,612.9063 589.1988,611.8359 Q588.5113,610.7656 588.5113,609.4844 L588.5113,608.3281 Q588.5113,607 589.1284,605.8516 Q589.7456,604.7031 590.8394,604.0859 Q591.9331,603.4688 593.1675,603.4688 Q593.9019,603.4688 594.5503,603.6328 Q595.1988,603.7969 595.7456,604.1563 Z " fill="#000000"/><text fill="#000000" font-family="sans-serif" font-size="12" lengthAdjust="spacing" textLength="46" x="606.98" y="613.1914">Checker</text><line style="stroke:#A80036;stroke-width:1.5;" x1="578.98" x2="654.98" y1="624.2813" y2="624.2813"/><line style="stroke:#A80036;stroke-width:1.5;" x1="578.98" x2="654.98" y1="632.2813" y2="632.2813"/><!--MD5=[18eee71c88ab61f27581b8cbdd3ef5ee]
class Color--><rect codeLine="11" fill="#FEFECE" filter="url(#f9aco4j90jgiy)" height="75.6719" id="Color" style="stroke:#A80036;stroke-width:1.5;" width="62" x="585.98" y="700.2813"/><ellipse cx="600.98" cy="716.2813" fill="#EB937F" rx="11" ry="11" style="stroke:#A80036;stroke-width:1.0;"/><path d="M599.8394,717.0781 L599.8394,719.5781 L604.1675,719.5781 L604.1675,718.6563 Q604.1675,718.0469 604.4097,717.7813 Q604.6519,717.5156 605.0269,717.5156 Q605.4019,717.5156 605.6363,717.7813 Q605.8706,718.0469 605.8706,718.6563 L605.8706,721.2813 L597.8706,721.2813 Q597.2456,721.2813 596.9878,721.0469 Q596.73,720.8125 596.73,720.4219 Q596.73,720.0469 596.9956,719.8125 Q597.2613,719.5781 597.8706,719.5781 L598.1363,719.5781 L598.1363,712.9219 L597.8706,712.9219 Q597.2456,712.9219 596.9878,712.6875 Q596.73,712.4531 596.73,712.0625 Q596.73,711.6875 596.9878,711.4531 Q597.2456,711.2188 597.8706,711.2188 L605.4956,711.2188 L605.4956,713.8125 Q605.4956,714.4219 605.2691,714.6797 Q605.0425,714.9375 604.6519,714.9375 Q604.2769,714.9375 604.0425,714.6797 Q603.8081,714.4219 603.8081,713.8125 L603.8081,712.9219 L599.8394,712.9219 L599.8394,715.375 L601.3238,715.375 Q601.3238,714.7188 601.4488,714.5313 Q601.7144,714.125 602.1831,714.125 Q602.5581,714.125 602.7925,714.3828 Q603.0269,714.6406 603.0269,715.25 L603.0269,717.2188 Q603.0269,717.7656 602.9019,717.9531 Q602.6363,718.3438 602.1831,718.3438 Q601.7144,718.3438 601.4488,717.9375 Q601.3238,717.75 601.3238,717.0781 L599.8394,717.0781 Z " fill="#000000"/><text fill="#000000" font-family="sans-serif" font-size="12" lengthAdjust="spacing" textLength="30" x="614.98" y="721.1914">Color</text><line style="stroke:#A80036;stroke-width:1.5;" x1="586.98" x2="646.98" y1="732.2813" y2="732.2813"/><text fill="#000000" font-family="sans-serif" font-size="11" lengthAdjust="spacing" textLength="22" x="591.98" y="747.7002">Red,</text><text fill="#000000" font-family="sans-serif" font-size="11" lengthAdjust="spacing" textLength="34" x="591.98" y="761.5361">Yellow</text><line style="stroke:#A80036;stroke-width:1.5;" x1="586.98" x2="646.98" y1="767.9531" y2="767.9531"/><!--MD5=[80913b1cc667c5997af01db625a44293]
class Put--><rect codeLine="15" fill="#FEFECE" filter="url(#f9aco4j90jgiy)" height="48" id="Put" style="stroke:#A80036;stroke-width:1.5;" width="50" x="634.98" y="376.2813"/><ellipse cx="649.98" cy="392.2813" fill="#ADD1B2" rx="11" ry="11" style="stroke:#A80036;stroke-width:1.0;"/><path d="M652.7456,388.1563 Q652.9019,387.9375 653.0894,387.8281 Q653.2769,387.7188 653.4956,387.7188 Q653.8706,387.7188 654.105,387.9766 Q654.3394,388.2344 654.3394,388.8438 L654.3394,390.2969 Q654.3394,390.9063 654.105,391.1719 Q653.8706,391.4375 653.4956,391.4375 Q653.1519,391.4375 652.9488,391.2344 Q652.7456,391.0469 652.6363,390.5313 Q652.5894,390.1719 652.4019,389.9844 Q652.0738,389.6094 651.4644,389.3906 Q650.855,389.1719 650.23,389.1719 Q649.4644,389.1719 648.8316,389.5 Q648.1988,389.8281 647.7066,390.5781 Q647.2144,391.3281 647.2144,392.3594 L647.2144,393.4531 Q647.2144,394.6875 648.105,395.5078 Q648.9956,396.3281 650.5894,396.3281 Q651.5269,396.3281 652.1831,396.0781 Q652.5738,395.9219 652.9956,395.4844 Q653.2613,395.2188 653.4097,395.1406 Q653.5581,395.0625 653.7613,395.0625 Q654.0894,395.0625 654.3472,395.3203 Q654.605,395.5781 654.605,395.9219 Q654.605,396.2656 654.2613,396.6719 Q653.7613,397.25 652.9644,397.5781 Q651.8863,398.0313 650.5894,398.0313 Q649.0738,398.0313 647.8706,397.4063 Q646.8863,396.9063 646.1988,395.8359 Q645.5113,394.7656 645.5113,393.4844 L645.5113,392.3281 Q645.5113,391 646.1284,389.8516 Q646.7456,388.7031 647.8394,388.0859 Q648.9331,387.4688 650.1675,387.4688 Q650.9019,387.4688 651.5503,387.6328 Q652.1988,387.7969 652.7456,388.1563 Z " fill="#000000"/><text fill="#000000" font-family="sans-serif" font-size="12" lengthAdjust="spacing" textLength="18" x="663.98" y="397.1914">Put</text><line style="stroke:#A80036;stroke-width:1.5;" x1="635.98" x2="683.98" y1="408.2813" y2="408.2813"/><line style="stroke:#A80036;stroke-width:1.5;" x1="635.98" x2="683.98" y1="416.2813" y2="416.2813"/><!--MD5=[0992d3fdc9d3d7c02b735131bb70871d]
class Goal--><rect codeLine="16" fill="#FEFECE" filter="url(#f9aco4j90jgiy)" height="48" id="Goal" style="stroke:#A80036;stroke-width:1.5;" width="58" x="310.98" y="376.2813"/><ellipse cx="325.98" cy="392.2813" fill="#ADD1B2" rx="11" ry="11" style="stroke:#A80036;stroke-width:1.0;"/><path d="M328.7456,388.1563 Q328.9019,387.9375 329.0894,387.8281 Q329.2769,387.7188 329.4956,387.7188 Q329.8706,387.7188 330.105,387.9766 Q330.3394,388.2344 330.3394,388.8438 L330.3394,390.2969 Q330.3394,390.9063 330.105,391.1719 Q329.8706,391.4375 329.4956,391.4375 Q329.1519,391.4375 328.9488,391.2344 Q328.7456,391.0469 328.6363,390.5313 Q328.5894,390.1719 328.4019,389.9844 Q328.0738,389.6094 327.4644,389.3906 Q326.855,389.1719 326.23,389.1719 Q325.4644,389.1719 324.8316,389.5 Q324.1988,389.8281 323.7066,390.5781 Q323.2144,391.3281 323.2144,392.3594 L323.2144,393.4531 Q323.2144,394.6875 324.105,395.5078 Q324.9956,396.3281 326.5894,396.3281 Q327.5269,396.3281 328.1831,396.0781 Q328.5738,395.9219 328.9956,395.4844 Q329.2613,395.2188 329.4097,395.1406 Q329.5581,395.0625 329.7613,395.0625 Q330.0894,395.0625 330.3472,395.3203 Q330.605,395.5781 330.605,395.9219 Q330.605,396.2656 330.2613,396.6719 Q329.7613,397.25 328.9644,397.5781 Q327.8863,398.0313 326.5894,398.0313 Q325.0738,398.0313 323.8706,397.4063 Q322.8863,396.9063 322.1988,395.8359 Q321.5113,394.7656 321.5113,393.4844 L321.5113,392.3281 Q321.5113,391 322.1284,389.8516 Q322.7456,388.7031 323.8394,388.0859 Q324.9331,387.4688 326.1675,387.4688 Q326.9019,387.4688 327.5503,387.6328 Q328.1988,387.7969 328.7456,388.1563 Z " fill="#000000"/><text fill="#000000" font-family="sans-serif" font-size="12" lengthAdjust="spacing" textLength="26" x="339.98" y="397.1914">Goal</text><line style="stroke:#A80036;stroke-width:1.5;" x1="311.98" x2="367.98" y1="408.2813" y2="408.2813"/><line style="stroke:#A80036;stroke-width:1.5;" x1="311.98" x2="367.98" y1="416.2813" y2="416.2813"/><!--MD5=[8eafba4c2355ca0bcb7e3f6e0db0a856]
class 4InLineHorizontal--><rect codeLine="18" fill="#FEFECE" filter="url(#f9aco4j90jgiy)" height="48" id="4InLineHorizontal" style="stroke:#A80036;stroke-width:1.5;" width="128" x="93.98" y="484.2813"/><ellipse cx="108.98" cy="500.2813" fill="#ADD1B2" rx="11" ry="11" style="stroke:#A80036;stroke-width:1.0;"/><path d="M111.7456,496.1563 Q111.9019,495.9375 112.0894,495.8281 Q112.2769,495.7188 112.4956,495.7188 Q112.8706,495.7188 113.105,495.9766 Q113.3394,496.2344 113.3394,496.8438 L113.3394,498.2969 Q113.3394,498.9063 113.105,499.1719 Q112.8706,499.4375 112.4956,499.4375 Q112.1519,499.4375 111.9487,499.2344 Q111.7456,499.0469 111.6362,498.5313 Q111.5894,498.1719 111.4019,497.9844 Q111.0737,497.6094 110.4644,497.3906 Q109.855,497.1719 109.23,497.1719 Q108.4644,497.1719 107.8316,497.5 Q107.1987,497.8281 106.7066,498.5781 Q106.2144,499.3281 106.2144,500.3594 L106.2144,501.4531 Q106.2144,502.6875 107.105,503.5078 Q107.9956,504.3281 109.5894,504.3281 Q110.5269,504.3281 111.1831,504.0781 Q111.5737,503.9219 111.9956,503.4844 Q112.2612,503.2188 112.4097,503.1406 Q112.5581,503.0625 112.7612,503.0625 Q113.0894,503.0625 113.3472,503.3203 Q113.605,503.5781 113.605,503.9219 Q113.605,504.2656 113.2612,504.6719 Q112.7612,505.25 111.9644,505.5781 Q110.8862,506.0313 109.5894,506.0313 Q108.0737,506.0313 106.8706,505.4063 Q105.8862,504.9063 105.1987,503.8359 Q104.5112,502.7656 104.5112,501.4844 L104.5112,500.3281 Q104.5112,499 105.1284,497.8516 Q105.7456,496.7031 106.8394,496.0859 Q107.9331,495.4688 109.1675,495.4688 Q109.9019,495.4688 110.5503,495.6328 Q111.1987,495.7969 111.7456,496.1563 Z " fill="#000000"/><text fill="#000000" font-family="sans-serif" font-size="12" lengthAdjust="spacing" textLength="96" x="122.98" y="505.1914">4InLineHorizontal</text><line style="stroke:#A80036;stroke-width:1.5;" x1="94.98" x2="220.98" y1="516.2813" y2="516.2813"/><line style="stroke:#A80036;stroke-width:1.5;" x1="94.98" x2="220.98" y1="524.2813" y2="524.2813"/><!--MD5=[3b7c20eacaf61c87cda99c86b620f1d9]
class 4InLineVertical--><rect codeLine="19" fill="#FEFECE" filter="url(#f9aco4j90jgiy)" height="48" id="4InLineVertical" style="stroke:#A80036;stroke-width:1.5;" width="113" x="257.48" y="484.2813"/><ellipse cx="272.48" cy="500.2813" fill="#ADD1B2" rx="11" ry="11" style="stroke:#A80036;stroke-width:1.0;"/><path d="M275.2456,496.1563 Q275.4019,495.9375 275.5894,495.8281 Q275.7769,495.7188 275.9956,495.7188 Q276.3706,495.7188 276.605,495.9766 Q276.8394,496.2344 276.8394,496.8438 L276.8394,498.2969 Q276.8394,498.9063 276.605,499.1719 Q276.3706,499.4375 275.9956,499.4375 Q275.6519,499.4375 275.4488,499.2344 Q275.2456,499.0469 275.1363,498.5313 Q275.0894,498.1719 274.9019,497.9844 Q274.5738,497.6094 273.9644,497.3906 Q273.355,497.1719 272.73,497.1719 Q271.9644,497.1719 271.3316,497.5 Q270.6988,497.8281 270.2066,498.5781 Q269.7144,499.3281 269.7144,500.3594 L269.7144,501.4531 Q269.7144,502.6875 270.605,503.5078 Q271.4956,504.3281 273.0894,504.3281 Q274.0269,504.3281 274.6831,504.0781 Q275.0738,503.9219 275.4956,503.4844 Q275.7613,503.2188 275.9097,503.1406 Q276.0581,503.0625 276.2613,503.0625 Q276.5894,503.0625 276.8472,503.3203 Q277.105,503.5781 277.105,503.9219 Q277.105,504.2656 276.7613,504.6719 Q276.2613,505.25 275.4644,505.5781 Q274.3863,506.0313 273.0894,506.0313 Q271.5738,506.0313 270.3706,505.4063 Q269.3863,504.9063 268.6988,503.8359 Q268.0113,502.7656 268.0113,501.4844 L268.0113,500.3281 Q268.0113,499 268.6284,497.8516 Q269.2456,496.7031 270.3394,496.0859 Q271.4331,495.4688 272.6675,495.4688 Q273.4019,495.4688 274.0503,495.6328 Q274.6988,495.7969 275.2456,496.1563 Z " fill="#000000"/><text fill="#000000" font-family="sans-serif" font-size="12" lengthAdjust="spacing" textLength="81" x="286.48" y="505.1914">4InLineVertical</text><line style="stroke:#A80036;stroke-width:1.5;" x1="258.48" x2="369.48" y1="516.2813" y2="516.2813"/><line style="stroke:#A80036;stroke-width:1.5;" x1="258.48" x2="369.48" y1="524.2813" y2="524.2813"/><!--MD5=[bdcbb5412bae3c73d0734aa833bba632]
class 4InLineDiagonal--><rect codeLine="20" fill="#FEFECE" filter="url(#f9aco4j90jgiy)" height="48" id="4InLineDiagonal" style="stroke:#A80036;stroke-width:1.5;" width="123" x="405.48" y="484.2813"/><ellipse cx="420.48" cy="500.2813" fill="#ADD1B2" rx="11" ry="11" style="stroke:#A80036;stroke-width:1.0;"/><path d="M423.2456,496.1563 Q423.4019,495.9375 423.5894,495.8281 Q423.7769,495.7188 423.9956,495.7188 Q424.3706,495.7188 424.605,495.9766 Q424.8394,496.2344 424.8394,496.8438 L424.8394,498.2969 Q424.8394,498.9063 424.605,499.1719 Q424.3706,499.4375 423.9956,499.4375 Q423.6519,499.4375 423.4488,499.2344 Q423.2456,499.0469 423.1363,498.5313 Q423.0894,498.1719 422.9019,497.9844 Q422.5738,497.6094 421.9644,497.3906 Q421.355,497.1719 420.73,497.1719 Q419.9644,497.1719 419.3316,497.5 Q418.6988,497.8281 418.2066,498.5781 Q417.7144,499.3281 417.7144,500.3594 L417.7144,501.4531 Q417.7144,502.6875 418.605,503.5078 Q419.4956,504.3281 421.0894,504.3281 Q422.0269,504.3281 422.6831,504.0781 Q423.0738,503.9219 423.4956,503.4844 Q423.7613,503.2188 423.9097,503.1406 Q424.0581,503.0625 424.2613,503.0625 Q424.5894,503.0625 424.8472,503.3203 Q425.105,503.5781 425.105,503.9219 Q425.105,504.2656 424.7613,504.6719 Q424.2613,505.25 423.4644,505.5781 Q422.3863,506.0313 421.0894,506.0313 Q419.5738,506.0313 418.3706,505.4063 Q417.3863,504.9063 416.6988,503.8359 Q416.0113,502.7656 416.0113,501.4844 L416.0113,500.3281 Q416.0113,499 416.6284,497.8516 Q417.2456,496.7031 418.3394,496.0859 Q419.4331,495.4688 420.6675,495.4688 Q421.4019,495.4688 422.0503,495.6328 Q422.6988,495.7969 423.2456,496.1563 Z " fill="#000000"/><text fill="#000000" font-family="sans-serif" font-size="12" lengthAdjust="spacing" textLength="91" x="434.48" y="505.1914">4InLineDiagonal</text><line style="stroke:#A80036;stroke-width:1.5;" x1="406.48" x2="527.48" y1="516.2813" y2="516.2813"/><line style="stroke:#A80036;stroke-width:1.5;" x1="406.48" x2="527.48" y1="524.2813" y2="524.2813"/><!--MD5=[e06ef809dd6be8ce79b58fe0a1161eb8]
class Column--><rect fill="#FEFECE" filter="url(#f9aco4j90jgiy)" height="48" id="Column" style="stroke:#A80036;stroke-width:1.5;" width="76" x="705.98" y="484.2813"/><ellipse cx="720.98" cy="500.2813" fill="#ADD1B2" rx="11" ry="11" style="stroke:#A80036;stroke-width:1.0;"/><path d="M723.7456,496.1563 Q723.9019,495.9375 724.0894,495.8281 Q724.2769,495.7188 724.4956,495.7188 Q724.8706,495.7188 725.105,495.9766 Q725.3394,496.2344 725.3394,496.8438 L725.3394,498.2969 Q725.3394,498.9063 725.105,499.1719 Q724.8706,499.4375 724.4956,499.4375 Q724.1519,499.4375 723.9488,499.2344 Q723.7456,499.0469 723.6363,498.5313 Q723.5894,498.1719 723.4019,497.9844 Q723.0738,497.6094 722.4644,497.3906 Q721.855,497.1719 721.23,497.1719 Q720.4644,497.1719 719.8316,497.5 Q719.1988,497.8281 718.7066,498.5781 Q718.2144,499.3281 718.2144,500.3594 L718.2144,501.4531 Q718.2144,502.6875 719.105,503.5078 Q719.9956,504.3281 721.5894,504.3281 Q722.5269,504.3281 723.1831,504.0781 Q723.5738,503.9219 723.9956,503.4844 Q724.2613,503.2188 724.4097,503.1406 Q724.5581,503.0625 724.7613,503.0625 Q725.0894,503.0625 725.3472,503.3203 Q725.605,503.5781 725.605,503.9219 Q725.605,504.2656 725.2613,504.6719 Q724.7613,505.25 723.9644,505.5781 Q722.8863,506.0313 721.5894,506.0313 Q720.0738,506.0313 718.8706,505.4063 Q717.8863,504.9063 717.1988,503.8359 Q716.5113,502.7656 716.5113,501.4844 L716.5113,500.3281 Q716.5113,499 717.1284,497.8516 Q717.7456,496.7031 718.8394,496.0859 Q719.9331,495.4688 721.1675,495.4688 Q721.9019,495.4688 722.5503,495.6328 Q723.1988,495.7969 723.7456,496.1563 Z " fill="#000000"/><text fill="#000000" font-family="sans-serif" font-size="12" lengthAdjust="spacing" textLength="44" x="734.98" y="505.1914">Column</text><line style="stroke:#A80036;stroke-width:1.5;" x1="706.98" x2="780.98" y1="516.2813" y2="516.2813"/><line style="stroke:#A80036;stroke-width:1.5;" x1="706.98" x2="780.98" y1="524.2813" y2="524.2813"/><!--MD5=[05aedcff764caeeb5d443618a4d90de7]
class Row--><rect fill="#FEFECE" filter="url(#f9aco4j90jgiy)" height="48" id="Row" style="stroke:#A80036;stroke-width:1.5;" width="57" x="817.48" y="484.2813"/><ellipse cx="832.48" cy="500.2813" fill="#ADD1B2" rx="11" ry="11" style="stroke:#A80036;stroke-width:1.0;"/><path d="M835.2456,496.1563 Q835.4019,495.9375 835.5894,495.8281 Q835.7769,495.7188 835.9956,495.7188 Q836.3706,495.7188 836.605,495.9766 Q836.8394,496.2344 836.8394,496.8438 L836.8394,498.2969 Q836.8394,498.9063 836.605,499.1719 Q836.3706,499.4375 835.9956,499.4375 Q835.6519,499.4375 835.4488,499.2344 Q835.2456,499.0469 835.1363,498.5313 Q835.0894,498.1719 834.9019,497.9844 Q834.5738,497.6094 833.9644,497.3906 Q833.355,497.1719 832.73,497.1719 Q831.9644,497.1719 831.3316,497.5 Q830.6988,497.8281 830.2066,498.5781 Q829.7144,499.3281 829.7144,500.3594 L829.7144,501.4531 Q829.7144,502.6875 830.605,503.5078 Q831.4956,504.3281 833.0894,504.3281 Q834.0269,504.3281 834.6831,504.0781 Q835.0738,503.9219 835.4956,503.4844 Q835.7613,503.2188 835.9097,503.1406 Q836.0581,503.0625 836.2613,503.0625 Q836.5894,503.0625 836.8472,503.3203 Q837.105,503.5781 837.105,503.9219 Q837.105,504.2656 836.7613,504.6719 Q836.2613,505.25 835.4644,505.5781 Q834.3863,506.0313 833.0894,506.0313 Q831.5738,506.0313 830.3706,505.4063 Q829.3863,504.9063 828.6988,503.8359 Q828.0113,502.7656 828.0113,501.4844 L828.0113,500.3281 Q828.0113,499 828.6284,497.8516 Q829.2456,496.7031 830.3394,496.0859 Q831.4331,495.4688 832.6675,495.4688 Q833.4019,495.4688 834.0503,495.6328 Q834.6988,495.7969 835.2456,496.1563 Z " fill="#000000"/><text fill="#000000" font-family="sans-serif" font-size="12" lengthAdjust="spacing" textLength="25" x="846.48" y="505.1914">Row</text><line style="stroke:#A80036;stroke-width:1.5;" x1="818.48" x2="873.48" y1="516.2813" y2="516.2813"/><line style="stroke:#A80036;stroke-width:1.5;" x1="818.48" x2="873.48" y1="524.2813" y2="524.2813"/><!--MD5=[46750473935a00282743b47f522de7be]
link Connect4 to Player--><path codeLine="22" d="M584.5675,112.4934 C584.5675,112.4934 586.51,144.9713 586.98,160.2813 C587.62,181.6013 587.62,186.9612 586.98,208.2813 C586.51,223.5912 585.58,240.4612 584.64,254.9813 " fill="none" id="Connect4-Player" style="stroke:#A80036;stroke-width:1.0;"/><polygon fill="#A80036" points="583.75,268.0413,588.3538,259.3347,584.0906,263.0529,580.3724,258.7897,583.75,268.0413" style="stroke:#A80036;stroke-width:1.0;"/><line style="stroke:#A80036;stroke-width:1.0;" x1="584.0906" x2="584.63" y1="263.0529" y2="255.0713"/><polygon fill="#A80036" points="583.75,100.5213,580.168,106.7798,584.5675,112.4934,588.1494,106.2348,583.75,100.5213" style="stroke:#A80036;stroke-width:1.0;"/><text fill="#000000" font-family="sans-serif" font-size="13" lengthAdjust="spacing" textLength="7" x="571.7942" y="257.3199">2</text><!--MD5=[6824fd9902778444ee49992acd2ffe7e]
link Connect4 to Turn--><path codeLine="23" d="M568.7396,111.4688 C568.7396,111.4688 559.07,136.5113 554.69,147.8212 " fill="none" id="Connect4-Turn" style="stroke:#A80036;stroke-width:1.0;"/><polygon fill="#A80036" points="550,159.9612,556.9817,153.0147,551.8067,155.2991,549.5222,150.124,550,159.9612" style="stroke:#A80036;stroke-width:1.0;"/><line style="stroke:#A80036;stroke-width:1.0;" x1="551.8067" x2="554.685" y1="155.2991" y2="147.8363"/><polygon fill="#A80036" points="573.08,100.2813,567.1806,104.4282,568.7396,111.4688,574.639,107.3218,573.08,100.2813" style="stroke:#A80036;stroke-width:1.0;"/><text fill="#000000" font-family="sans-serif" font-size="13" lengthAdjust="spacing" textLength="29" x="519.6642" y="149.6212">7..42</text><!--MD5=[5426a1d26e36fcd61d30da6b8a6545ec]
link Connect4 to Board--><path codeLine="24" d="M628.1025,106.7417 C628.1025,106.7417 681.02,140.5313 704.17,155.3112 " fill="none" id="Connect4-Board" style="stroke:#A80036;stroke-width:1.0;"/><polygon fill="#A80036" points="715.4,162.4813,709.9615,154.2701,711.184,159.7933,705.6608,161.0158,715.4,162.4813" style="stroke:#A80036;stroke-width:1.0;"/><line style="stroke:#A80036;stroke-width:1.0;" x1="711.184" x2="704.445" y1="159.7933" y2="155.4862"/><polygon fill="#A80036" points="617.99,100.2813,620.8928,106.8823,628.1025,106.7417,625.1997,100.1406,617.99,100.2813" style="stroke:#A80036;stroke-width:1.0;"/><!--MD5=[48736af7f00a353a75917f062947d3dd]
link Connect4 to Goal--><path codeLine="25" d="M545.5495,108.4955 C545.5495,108.4955 509.98,142.1812 494.98,160.2813 C439.08,227.7012 386.35,316.2113 359.15,364.3713 " fill="none" id="Connect4-Goal" style="stroke:#A80036;stroke-width:1.0;"/><polygon fill="#A80036" points="352.64,375.9913,360.5295,370.0958,355.0845,371.6296,353.5508,366.1846,352.64,375.9913" style="stroke:#A80036;stroke-width:1.0;"/><line style="stroke:#A80036;stroke-width:1.0;" x1="355.0845" x2="358.99" y1="371.6296" y2="364.6463"/><polygon fill="#A80036" points="554.49,100.4913,547.3517,101.5132,545.5495,108.4955,552.6878,107.4735,554.49,100.4913" style="stroke:#A80036;stroke-width:1.0;"/><!--MD5=[d81713d91ad05be3b975338c4816ee0b]
link Turn to Player--><path codeLine="27" d="M549.87,208.2813 C556.11,224.4213 564.5,246.1013 571.13,263.2513 " fill="none" id="Turn-to-Player" style="stroke:#A80036;stroke-width:1.0;"/><polygon fill="#A80036" points="572.95,267.9613,573.4102,258.1231,571.135,263.3023,565.9559,261.0271,572.95,267.9613" style="stroke:#A80036;stroke-width:1.0;"/><!--MD5=[5fc9219214a6d7db882d960f5244e6cf]
link Player to Checker--><path codeLine="28" d="M584.49,316.4413 C590.76,374.0813 607.04,523.8913 613.88,586.8013 " fill="none" id="Player-to-Checker" style="stroke:#A80036;stroke-width:1.0;"/><polygon fill="#A80036" points="614.43,591.9013,617.4294,582.5202,613.8872,586.9308,609.4767,583.3886,614.43,591.9013" style="stroke:#A80036;stroke-width:1.0;"/><text fill="#000000" font-family="sans-serif" font-size="13" lengthAdjust="spacing" textLength="14" x="598.1022" y="581.5466">21</text><!--MD5=[1571e4e0b7cdbae74b04c97a95677c54]
link Player to Goal--><path codeLine="29" d="M537.8367,312.6125 C537.8367,312.6125 424.55,362.2413 381.35,381.1613 " fill="none" id="Player-Goal" style="stroke:#A80036;stroke-width:1.0;"/><polygon fill="#A80036" points="369.31,386.4313,379.1587,386.4829,373.8897,384.4246,375.948,379.1555,369.31,386.4313" style="stroke:#A80036;stroke-width:1.0;"/><line style="stroke:#A80036;stroke-width:1.0;" x1="373.8897" x2="381.215" y1="384.4246" y2="381.2163"/><polygon fill="#FFFFFF" points="548.83,307.8013,541.7296,306.5424,537.8367,312.6125,544.9371,313.8713,548.83,307.8013" style="stroke:#A80036;stroke-width:1.0;"/><!--MD5=[6362d373c70c914ff64d9e096162a755]
link Player to Put--><path codeLine="30" d="M598.9,316.2813 C610.88,332.5613 627,354.4713 639.67,371.6913 " fill="none" id="Player-to-Put" style="stroke:#A80036;stroke-width:1.0;stroke-dasharray:7.0,7.0;"/><polygon fill="#A80036" points="642.81,375.9613,640.6868,366.344,639.8421,371.9374,634.2486,371.0927,642.81,375.9613" style="stroke:#A80036;stroke-width:1.0;"/><!--MD5=[c148346f61f96d5968c9850ebe71e5d5]
link Board to Cell--><path codeLine="32" d="M755.8241,220.3008 C755.8241,220.3008 779.02,323.6913 787.86,363.1013 " fill="none" id="Board-Cell" style="stroke:#A80036;stroke-width:1.0;"/><polygon fill="#A80036" points="790.75,376.0013,792.6851,366.3444,789.6566,371.1223,784.8787,368.0938,790.75,376.0013" style="stroke:#A80036;stroke-width:1.0;"/><line style="stroke:#A80036;stroke-width:1.0;" x1="789.6566" x2="787.91" y1="371.1223" y2="363.3162"/><polygon fill="#A80036" points="753.2,208.5912,750.6089,215.3207,755.8241,220.3008,758.4152,213.5713,753.2,208.5912" style="stroke:#A80036;stroke-width:1.0;"/><text fill="#000000" font-family="sans-serif" font-size="13" lengthAdjust="spacing" textLength="21" x="765.7192" y="365.2697">7x6</text><!--MD5=[426b59f6a7e6b44dc35cddfe28235449]
link Cell to Checker--><path codeLine="33" d="M833.0159,424.1754 C833.0159,424.1754 919.7,494.9513 891.98,532.2813 C865.37,568.1012 741.56,594.4013 669.46,606.9913 " fill="none" id="Cell-Checker" style="stroke:#A80036;stroke-width:1.0;"/><polygon fill="#A80036" points="656.21,609.2513,665.7544,611.681,661.1388,608.4105,664.4093,603.7949,656.21,609.2513" style="stroke:#A80036;stroke-width:1.0;"/><line style="stroke:#A80036;stroke-width:1.0;" x1="661.1388" x2="669.025" y1="608.4105" y2="607.0663"/><polygon fill="#FFFFFF" points="823.07,417.4613,825.8049,424.1336,833.0159,424.1754,830.281,417.503,823.07,417.4613" style="stroke:#A80036;stroke-width:1.0;"/><text fill="#000000" font-family="sans-serif" font-size="13" lengthAdjust="spacing" textLength="22" x="663.8361" y="604.6575">0..1</text><!--MD5=[cf6099374887ae4fbefe86fb043b4b37]
link Cell to Column--><path codeLine="35" d="M784.69,424.2813 C776.77,440.4213 766.14,462.1013 757.73,479.2513 " fill="none" id="Cell-to-Column" style="stroke:#A80036;stroke-width:1.0;"/><polygon fill="#A80036" points="755.42,483.9613,762.9744,477.6421,757.6217,479.4721,755.7917,474.1194,755.42,483.9613" style="stroke:#A80036;stroke-width:1.0;"/><!--MD5=[af531668c4b2523acc4c83e34301bfb0]
link Cell to Row--><path codeLine="36" d="M806.82,424.2813 C814.44,440.4213 824.66,462.1013 832.75,479.2513 " fill="none" id="Cell-to-Row" style="stroke:#A80036;stroke-width:1.0;"/><polygon fill="#A80036" points="834.97,483.9613,834.7496,474.1149,832.8376,479.4388,827.5136,477.5267,834.97,483.9613" style="stroke:#A80036;stroke-width:1.0;"/><!--MD5=[01c180ace0bc8fc98fac5bb07e834036]
link Checker to Color--><path codeLine="38" d="M616.98,652.4213 C616.98,652.4213 616.98,675.6813 616.98,686.8113 " fill="none" id="Checker-Color" style="stroke:#A80036;stroke-width:1.0;"/><polygon fill="#A80036" points="616.98,700.0513,620.98,691.0513,616.98,695.0513,612.98,691.0513,616.98,700.0513" style="stroke:#A80036;stroke-width:1.0;"/><line style="stroke:#A80036;stroke-width:1.0;" x1="616.98" x2="616.98" y1="695.0513" y2="687.0513"/><polygon fill="#A80036" points="616.98,640.4213,612.98,646.4213,616.98,652.4213,620.98,646.4213,616.98,640.4213" style="stroke:#A80036;stroke-width:1.0;"/><!--MD5=[7e51315509577d1dede857d827f99867]
link Put to Checker--><path codeLine="39" d="M655.29,424.5913 C647.34,464.1513 631.24,544.2713 622.66,586.9813 " fill="none" id="Put-to-Checker" style="stroke:#A80036;stroke-width:1.0;"/><polygon fill="#A80036" points="621.65,592.0013,627.3464,583.9669,622.6361,587.0994,619.5035,582.3891,621.65,592.0013" style="stroke:#A80036;stroke-width:1.0;"/><!--MD5=[c05560b16672457bbc100040ce418ede]
link Put to Column--><path codeLine="40" d="M678.2,424.2813 C691.1,440.5613 708.46,462.4713 722.11,479.6913 " fill="none" id="Put-to-Column" style="stroke:#A80036;stroke-width:1.0;"/><polygon fill="#A80036" points="725.49,483.9613,723.0167,474.428,722.377,480.0486,716.7564,479.4088,725.49,483.9613" style="stroke:#A80036;stroke-width:1.0;"/><!--MD5=[9f46abdd91245cbe2a8d8e0b23a48361]
link Goal to Checker--><path codeLine="42" d="M310.69,404.5513 C228.48,414.8313 6,450.7513 75.98,532.2813 C140.16,607.0613 455.48,615.1513 572.85,615.5313 " fill="none" id="Goal-to-Checker" style="stroke:#A80036;stroke-width:1.0;"/><polygon fill="#A80036" points="577.95,615.5413,568.9615,611.5156,572.95,615.527,568.9386,619.5155,577.95,615.5413" style="stroke:#A80036;stroke-width:1.0;"/><text fill="#000000" font-family="sans-serif" font-size="13" lengthAdjust="spacing" textLength="7" x="563.1085" y="611.4573">4</text><!--MD5=[9a977433e608fbaeb4f645760b1175d9]
reverse link Goal to 4InLineHorizontal--><path codeLine="43" d="M293.11,428.5813 C263.53,445.8013 225.75,467.8013 197.66,484.1613 " fill="none" id="Goal-backto-4InLineHorizontal" style="stroke:#A80036;stroke-width:1.0;"/><polygon fill="none" points="289.93,422.3313,310.73,418.3113,296.97,434.4313,289.93,422.3313" style="stroke:#A80036;stroke-width:1.0;"/><!--MD5=[708770dd85c76252c1377ff40b6e39bf]
reverse link Goal to 4InLineVertical--><path codeLine="44" d="M329.54,443.8213 C326.18,457.5113 322.58,472.1813 319.7,483.9613 " fill="none" id="Goal-backto-4InLineVertical" style="stroke:#A80036;stroke-width:1.0;"/><polygon fill="none" points="322.77,442.0413,334.33,424.2813,336.37,445.3713,322.77,442.0413" style="stroke:#A80036;stroke-width:1.0;"/><!--MD5=[bc6e461644a49b7b6411796378ac96ef]
reverse link Goal to 4InLineDiagonal--><path codeLine="45" d="M382.95,437.1513 C401.47,452.6113 422.6,470.2413 439.03,483.9613 " fill="none" id="Goal-backto-4InLineDiagonal" style="stroke:#A80036;stroke-width:1.0;"/><polygon fill="none" points="378.4,442.4713,367.53,424.2813,387.37,431.7213,378.4,442.4713" style="stroke:#A80036;stroke-width:1.0;"/><!--MD5=[d0474cb9f466b224ebc7e484a9327349]
@startuml connect4- -vocabulary


title Connect4 Vocabulary \n

class Connect4
class Turn
class Player
class Board
class Cell
class Checker
enum Color {
    Red,
    Yellow
}
class Put
class Goal

class 4InLineHorizontal
class 4InLineVertical
class 4InLineDiagonal

Connect4 *-d-> "2 " Player
Connect4 *- -> "7..42" Turn
Connect4 *- -> Board
Connect4 *- -> Goal

Turn - -> Player
Player - -> "21" Checker
Player o- -> Goal
Player ..> Put

Board *- - -> "7x6" Cell
Cell o- -> "0..1  " Checker

Cell - -> Column
Cell - -> Row

Checker *-d-> Color
Put - -> Checker
Put - -> Column

Goal - - -> "4" Checker
Goal <|-down- 4InLineHorizontal
Goal <|-down- 4InLineVertical
Goal <|-down- 4InLineDiagonal



@enduml

PlantUML version 1.2022.0(Tue Jan 11 17:16:42 CET 2022)
(GPL source distribution)
Java Runtime: Java(TM) SE Runtime Environment
JVM: Java HotSpot(TM) 64-Bit Server VM
Default Encoding: Cp1252
Language: es
Country: ES
--></g></svg>