<?xml version="1.0" encoding="UTF-8" standalone="no"?><svg xmlns="http://www.w3.org/2000/svg" xmlns:xlink="http://www.w3.org/1999/xlink" contentScriptType="application/ecmascript" contentStyleType="text/css" height="789px" preserveAspectRatio="none" style="width:1016px;height:789px;background:#FFFFFF;" version="1.1" viewBox="0 0 1016 789" width="1016px" zoomAndPan="magnify"><defs><filter height="300%" id="fcuoy1tfta1su" width="300%" x="-1" y="-1"><feGaussianBlur result="blurOut" stdDeviation="2.0"/><feColorMatrix in="blurOut" result="blurOut2" type="matrix" values="0 0 0 0 0 0 0 0 0 0 0 0 0 0 0 0 0 0 .4 0"/><feOffset dx="4.0" dy="4.0" in="blurOut2" result="blurOut3"/><feBlend in="SourceGraphic" in2="blurOut3" mode="normal"/></filter></defs><g><text fill="#000000" font-family="sans-serif" font-size="18" lengthAdjust="spacing" textLength="171" x="413.74" y="18.6855">Connect4 Vocabulary</text><text fill="#000000" font-family="sans-serif" font-size="18" lengthAdjust="spacing" textLength="0" x="504.24" y="41.3262"/><!--MD5=[10b1f240992e2c34b6908209bf85bfd2]
class Connect4--><rect codeLine="5" fill="#FEFECE" filter="url(#fcuoy1tfta1su)" height="48" id="Connect4" style="stroke:#A80036;stroke-width:1.5;" width="85" x="301" y="52.2813"/><ellipse cx="316" cy="68.2813" fill="#ADD1B2" rx="11" ry="11" style="stroke:#A80036;stroke-width:1.0;"/><path d="M318.7656,64.1563 Q318.9219,63.9375 319.1094,63.8281 Q319.2969,63.7188 319.5156,63.7188 Q319.8906,63.7188 320.125,63.9766 Q320.3594,64.2344 320.3594,64.8438 L320.3594,66.2969 Q320.3594,66.9063 320.125,67.1719 Q319.8906,67.4375 319.5156,67.4375 Q319.1719,67.4375 318.9688,67.2344 Q318.7656,67.0469 318.6563,66.5313 Q318.6094,66.1719 318.4219,65.9844 Q318.0938,65.6094 317.4844,65.3906 Q316.875,65.1719 316.25,65.1719 Q315.4844,65.1719 314.8516,65.5 Q314.2188,65.8281 313.7266,66.5781 Q313.2344,67.3281 313.2344,68.3594 L313.2344,69.4531 Q313.2344,70.6875 314.125,71.5078 Q315.0156,72.3281 316.6094,72.3281 Q317.5469,72.3281 318.2031,72.0781 Q318.5938,71.9219 319.0156,71.4844 Q319.2813,71.2188 319.4297,71.1406 Q319.5781,71.0625 319.7813,71.0625 Q320.1094,71.0625 320.3672,71.3203 Q320.625,71.5781 320.625,71.9219 Q320.625,72.2656 320.2813,72.6719 Q319.7813,73.25 318.9844,73.5781 Q317.9063,74.0313 316.6094,74.0313 Q315.0938,74.0313 313.8906,73.4063 Q312.9063,72.9063 312.2188,71.8359 Q311.5313,70.7656 311.5313,69.4844 L311.5313,68.3281 Q311.5313,67 312.1484,65.8516 Q312.7656,64.7031 313.8594,64.0859 Q314.9531,63.4688 316.1875,63.4688 Q316.9219,63.4688 317.5703,63.6328 Q318.2188,63.7969 318.7656,64.1563 Z " fill="#000000"/><text fill="#000000" font-family="sans-serif" font-size="12" lengthAdjust="spacing" textLength="53" x="330" y="73.1914">Connect4</text><line style="stroke:#A80036;stroke-width:1.5;" x1="302" x2="385" y1="84.2813" y2="84.2813"/><line style="stroke:#A80036;stroke-width:1.5;" x1="302" x2="385" y1="92.2813" y2="92.2813"/><!--MD5=[dd91eae41778c45e12552e5329e240e8]
class Turn--><rect codeLine="6" fill="#FEFECE" filter="url(#fcuoy1tfta1su)" height="48" id="Turn" style="stroke:#A80036;stroke-width:1.5;" width="57" x="397" y="160.2813"/><ellipse cx="412" cy="176.2813" fill="#ADD1B2" rx="11" ry="11" style="stroke:#A80036;stroke-width:1.0;"/><path d="M414.7656,172.1563 Q414.9219,171.9375 415.1094,171.8281 Q415.2969,171.7188 415.5156,171.7188 Q415.8906,171.7188 416.125,171.9766 Q416.3594,172.2344 416.3594,172.8438 L416.3594,174.2969 Q416.3594,174.9063 416.125,175.1719 Q415.8906,175.4375 415.5156,175.4375 Q415.1719,175.4375 414.9688,175.2344 Q414.7656,175.0469 414.6563,174.5313 Q414.6094,174.1719 414.4219,173.9844 Q414.0938,173.6094 413.4844,173.3906 Q412.875,173.1719 412.25,173.1719 Q411.4844,173.1719 410.8516,173.5 Q410.2188,173.8281 409.7266,174.5781 Q409.2344,175.3281 409.2344,176.3594 L409.2344,177.4531 Q409.2344,178.6875 410.125,179.5078 Q411.0156,180.3281 412.6094,180.3281 Q413.5469,180.3281 414.2031,180.0781 Q414.5938,179.9219 415.0156,179.4844 Q415.2813,179.2188 415.4297,179.1406 Q415.5781,179.0625 415.7813,179.0625 Q416.1094,179.0625 416.3672,179.3203 Q416.625,179.5781 416.625,179.9219 Q416.625,180.2656 416.2813,180.6719 Q415.7813,181.25 414.9844,181.5781 Q413.9063,182.0313 412.6094,182.0313 Q411.0938,182.0313 409.8906,181.4063 Q408.9063,180.9063 408.2188,179.8359 Q407.5313,178.7656 407.5313,177.4844 L407.5313,176.3281 Q407.5313,175 408.1484,173.8516 Q408.7656,172.7031 409.8594,172.0859 Q410.9531,171.4688 412.1875,171.4688 Q412.9219,171.4688 413.5703,171.6328 Q414.2188,171.7969 414.7656,172.1563 Z " fill="#000000"/><text fill="#000000" font-family="sans-serif" font-size="12" lengthAdjust="spacing" textLength="25" x="426" y="181.1914">Turn</text><line style="stroke:#A80036;stroke-width:1.5;" x1="398" x2="453" y1="192.2813" y2="192.2813"/><line style="stroke:#A80036;stroke-width:1.5;" x1="398" x2="453" y1="200.2813" y2="200.2813"/><!--MD5=[2cb47ba637a0d19583e6199456f6ad0b]
class Player--><rect codeLine="7" fill="#FEFECE" filter="url(#fcuoy1tfta1su)" height="48" id="Player" style="stroke:#A80036;stroke-width:1.5;" width="66" x="360.5" y="268.2813"/><ellipse cx="375.5" cy="284.2813" fill="#ADD1B2" rx="11" ry="11" style="stroke:#A80036;stroke-width:1.0;"/><path d="M378.2656,280.1563 Q378.4219,279.9375 378.6094,279.8281 Q378.7969,279.7188 379.0156,279.7188 Q379.3906,279.7188 379.625,279.9766 Q379.8594,280.2344 379.8594,280.8438 L379.8594,282.2969 Q379.8594,282.9063 379.625,283.1719 Q379.3906,283.4375 379.0156,283.4375 Q378.6719,283.4375 378.4688,283.2344 Q378.2656,283.0469 378.1563,282.5313 Q378.1094,282.1719 377.9219,281.9844 Q377.5938,281.6094 376.9844,281.3906 Q376.375,281.1719 375.75,281.1719 Q374.9844,281.1719 374.3516,281.5 Q373.7188,281.8281 373.2266,282.5781 Q372.7344,283.3281 372.7344,284.3594 L372.7344,285.4531 Q372.7344,286.6875 373.625,287.5078 Q374.5156,288.3281 376.1094,288.3281 Q377.0469,288.3281 377.7031,288.0781 Q378.0938,287.9219 378.5156,287.4844 Q378.7813,287.2188 378.9297,287.1406 Q379.0781,287.0625 379.2813,287.0625 Q379.6094,287.0625 379.8672,287.3203 Q380.125,287.5781 380.125,287.9219 Q380.125,288.2656 379.7813,288.6719 Q379.2813,289.25 378.4844,289.5781 Q377.4063,290.0313 376.1094,290.0313 Q374.5938,290.0313 373.3906,289.4063 Q372.4063,288.9063 371.7188,287.8359 Q371.0313,286.7656 371.0313,285.4844 L371.0313,284.3281 Q371.0313,283 371.6484,281.8516 Q372.2656,280.7031 373.3594,280.0859 Q374.4531,279.4688 375.6875,279.4688 Q376.4219,279.4688 377.0703,279.6328 Q377.7188,279.7969 378.2656,280.1563 Z " fill="#000000"/><text fill="#000000" font-family="sans-serif" font-size="12" lengthAdjust="spacing" textLength="34" x="389.5" y="289.1914">Player</text><line style="stroke:#A80036;stroke-width:1.5;" x1="361.5" x2="425.5" y1="300.2813" y2="300.2813"/><line style="stroke:#A80036;stroke-width:1.5;" x1="361.5" x2="425.5" y1="308.2813" y2="308.2813"/><!--MD5=[9563755d011c5cec7ec66dc53565a59e]
class Board--><rect codeLine="8" fill="#FEFECE" filter="url(#fcuoy1tfta1su)" height="48" id="Board" style="stroke:#A80036;stroke-width:1.5;" width="65" x="240" y="268.2813"/><ellipse cx="255" cy="284.2813" fill="#ADD1B2" rx="11" ry="11" style="stroke:#A80036;stroke-width:1.0;"/><path d="M257.7656,280.1563 Q257.9219,279.9375 258.1094,279.8281 Q258.2969,279.7188 258.5156,279.7188 Q258.8906,279.7188 259.125,279.9766 Q259.3594,280.2344 259.3594,280.8438 L259.3594,282.2969 Q259.3594,282.9063 259.125,283.1719 Q258.8906,283.4375 258.5156,283.4375 Q258.1719,283.4375 257.9688,283.2344 Q257.7656,283.0469 257.6563,282.5313 Q257.6094,282.1719 257.4219,281.9844 Q257.0938,281.6094 256.4844,281.3906 Q255.875,281.1719 255.25,281.1719 Q254.4844,281.1719 253.8516,281.5 Q253.2188,281.8281 252.7266,282.5781 Q252.2344,283.3281 252.2344,284.3594 L252.2344,285.4531 Q252.2344,286.6875 253.125,287.5078 Q254.0156,288.3281 255.6094,288.3281 Q256.5469,288.3281 257.2031,288.0781 Q257.5938,287.9219 258.0156,287.4844 Q258.2813,287.2188 258.4297,287.1406 Q258.5781,287.0625 258.7813,287.0625 Q259.1094,287.0625 259.3672,287.3203 Q259.625,287.5781 259.625,287.9219 Q259.625,288.2656 259.2813,288.6719 Q258.7813,289.25 257.9844,289.5781 Q256.9063,290.0313 255.6094,290.0313 Q254.0938,290.0313 252.8906,289.4063 Q251.9063,288.9063 251.2188,287.8359 Q250.5313,286.7656 250.5313,285.4844 L250.5313,284.3281 Q250.5313,283 251.1484,281.8516 Q251.7656,280.7031 252.8594,280.0859 Q253.9531,279.4688 255.1875,279.4688 Q255.9219,279.4688 256.5703,279.6328 Q257.2188,279.7969 257.7656,280.1563 Z " fill="#000000"/><text fill="#000000" font-family="sans-serif" font-size="12" lengthAdjust="spacing" textLength="33" x="269" y="289.1914">Board</text><line style="stroke:#A80036;stroke-width:1.5;" x1="241" x2="304" y1="300.2813" y2="300.2813"/><line style="stroke:#A80036;stroke-width:1.5;" x1="241" x2="304" y1="308.2813" y2="308.2813"/><!--MD5=[fea3dc74c7473bae0133d22265a91e2f]
class Cell--><rect codeLine="9" fill="#FEFECE" filter="url(#fcuoy1tfta1su)" height="48" id="Cell" style="stroke:#A80036;stroke-width:1.5;" width="54" x="130.5" y="376.2813"/><ellipse cx="145.5" cy="392.2813" fill="#ADD1B2" rx="11" ry="11" style="stroke:#A80036;stroke-width:1.0;"/><path d="M148.2656,388.1563 Q148.4219,387.9375 148.6094,387.8281 Q148.7969,387.7188 149.0156,387.7188 Q149.3906,387.7188 149.625,387.9766 Q149.8594,388.2344 149.8594,388.8438 L149.8594,390.2969 Q149.8594,390.9063 149.625,391.1719 Q149.3906,391.4375 149.0156,391.4375 Q148.6719,391.4375 148.4688,391.2344 Q148.2656,391.0469 148.1563,390.5313 Q148.1094,390.1719 147.9219,389.9844 Q147.5938,389.6094 146.9844,389.3906 Q146.375,389.1719 145.75,389.1719 Q144.9844,389.1719 144.3516,389.5 Q143.7188,389.8281 143.2266,390.5781 Q142.7344,391.3281 142.7344,392.3594 L142.7344,393.4531 Q142.7344,394.6875 143.625,395.5078 Q144.5156,396.3281 146.1094,396.3281 Q147.0469,396.3281 147.7031,396.0781 Q148.0938,395.9219 148.5156,395.4844 Q148.7813,395.2188 148.9297,395.1406 Q149.0781,395.0625 149.2813,395.0625 Q149.6094,395.0625 149.8672,395.3203 Q150.125,395.5781 150.125,395.9219 Q150.125,396.2656 149.7813,396.6719 Q149.2813,397.25 148.4844,397.5781 Q147.4063,398.0313 146.1094,398.0313 Q144.5938,398.0313 143.3906,397.4063 Q142.4063,396.9063 141.7188,395.8359 Q141.0313,394.7656 141.0313,393.4844 L141.0313,392.3281 Q141.0313,391 141.6484,389.8516 Q142.2656,388.7031 143.3594,388.0859 Q144.4531,387.4688 145.6875,387.4688 Q146.4219,387.4688 147.0703,387.6328 Q147.7188,387.7969 148.2656,388.1563 Z " fill="#000000"/><text fill="#000000" font-family="sans-serif" font-size="12" lengthAdjust="spacing" textLength="22" x="159.5" y="397.1914">Cell</text><line style="stroke:#A80036;stroke-width:1.5;" x1="131.5" x2="183.5" y1="408.2813" y2="408.2813"/><line style="stroke:#A80036;stroke-width:1.5;" x1="131.5" x2="183.5" y1="416.2813" y2="416.2813"/><!--MD5=[7aa1f1dff9826083057fe155c5dd6e52]
class Checker--><rect codeLine="10" fill="#FEFECE" filter="url(#fcuoy1tfta1su)" height="48" id="Checker" style="stroke:#A80036;stroke-width:1.5;" width="78" x="295.5" y="592.2813"/><ellipse cx="310.5" cy="608.2813" fill="#ADD1B2" rx="11" ry="11" style="stroke:#A80036;stroke-width:1.0;"/><path d="M313.2656,604.1563 Q313.4219,603.9375 313.6094,603.8281 Q313.7969,603.7188 314.0156,603.7188 Q314.3906,603.7188 314.625,603.9766 Q314.8594,604.2344 314.8594,604.8438 L314.8594,606.2969 Q314.8594,606.9063 314.625,607.1719 Q314.3906,607.4375 314.0156,607.4375 Q313.6719,607.4375 313.4688,607.2344 Q313.2656,607.0469 313.1563,606.5313 Q313.1094,606.1719 312.9219,605.9844 Q312.5938,605.6094 311.9844,605.3906 Q311.375,605.1719 310.75,605.1719 Q309.9844,605.1719 309.3516,605.5 Q308.7188,605.8281 308.2266,606.5781 Q307.7344,607.3281 307.7344,608.3594 L307.7344,609.4531 Q307.7344,610.6875 308.625,611.5078 Q309.5156,612.3281 311.1094,612.3281 Q312.0469,612.3281 312.7031,612.0781 Q313.0938,611.9219 313.5156,611.4844 Q313.7813,611.2188 313.9297,611.1406 Q314.0781,611.0625 314.2813,611.0625 Q314.6094,611.0625 314.8672,611.3203 Q315.125,611.5781 315.125,611.9219 Q315.125,612.2656 314.7813,612.6719 Q314.2813,613.25 313.4844,613.5781 Q312.4063,614.0313 311.1094,614.0313 Q309.5938,614.0313 308.3906,613.4063 Q307.4063,612.9063 306.7188,611.8359 Q306.0313,610.7656 306.0313,609.4844 L306.0313,608.3281 Q306.0313,607 306.6484,605.8516 Q307.2656,604.7031 308.3594,604.0859 Q309.4531,603.4688 310.6875,603.4688 Q311.4219,603.4688 312.0703,603.6328 Q312.7188,603.7969 313.2656,604.1563 Z " fill="#000000"/><text fill="#000000" font-family="sans-serif" font-size="12" lengthAdjust="spacing" textLength="46" x="324.5" y="613.1914">Checker</text><line style="stroke:#A80036;stroke-width:1.5;" x1="296.5" x2="372.5" y1="624.2813" y2="624.2813"/><line style="stroke:#A80036;stroke-width:1.5;" x1="296.5" x2="372.5" y1="632.2813" y2="632.2813"/><!--MD5=[18eee71c88ab61f27581b8cbdd3ef5ee]
class Color--><rect codeLine="11" fill="#FEFECE" filter="url(#fcuoy1tfta1su)" height="75.6719" id="Color" style="stroke:#A80036;stroke-width:1.5;" width="62" x="303.5" y="700.2813"/><ellipse cx="318.5" cy="716.2813" fill="#EB937F" rx="11" ry="11" style="stroke:#A80036;stroke-width:1.0;"/><path d="M317.3594,717.0781 L317.3594,719.5781 L321.6875,719.5781 L321.6875,718.6563 Q321.6875,718.0469 321.9297,717.7813 Q322.1719,717.5156 322.5469,717.5156 Q322.9219,717.5156 323.1563,717.7813 Q323.3906,718.0469 323.3906,718.6563 L323.3906,721.2813 L315.3906,721.2813 Q314.7656,721.2813 314.5078,721.0469 Q314.25,720.8125 314.25,720.4219 Q314.25,720.0469 314.5156,719.8125 Q314.7813,719.5781 315.3906,719.5781 L315.6563,719.5781 L315.6563,712.9219 L315.3906,712.9219 Q314.7656,712.9219 314.5078,712.6875 Q314.25,712.4531 314.25,712.0625 Q314.25,711.6875 314.5078,711.4531 Q314.7656,711.2188 315.3906,711.2188 L323.0156,711.2188 L323.0156,713.8125 Q323.0156,714.4219 322.7891,714.6797 Q322.5625,714.9375 322.1719,714.9375 Q321.7969,714.9375 321.5625,714.6797 Q321.3281,714.4219 321.3281,713.8125 L321.3281,712.9219 L317.3594,712.9219 L317.3594,715.375 L318.8438,715.375 Q318.8438,714.7188 318.9688,714.5313 Q319.2344,714.125 319.7031,714.125 Q320.0781,714.125 320.3125,714.3828 Q320.5469,714.6406 320.5469,715.25 L320.5469,717.2188 Q320.5469,717.7656 320.4219,717.9531 Q320.1563,718.3438 319.7031,718.3438 Q319.2344,718.3438 318.9688,717.9375 Q318.8438,717.75 318.8438,717.0781 L317.3594,717.0781 Z " fill="#000000"/><text fill="#000000" font-family="sans-serif" font-size="12" lengthAdjust="spacing" textLength="30" x="332.5" y="721.1914">Color</text><line style="stroke:#A80036;stroke-width:1.5;" x1="304.5" x2="364.5" y1="732.2813" y2="732.2813"/><text fill="#000000" font-family="sans-serif" font-size="11" lengthAdjust="spacing" textLength="22" x="309.5" y="747.7002">Red,</text><text fill="#000000" font-family="sans-serif" font-size="11" lengthAdjust="spacing" textLength="34" x="309.5" y="761.5361">Yellow</text><line style="stroke:#A80036;stroke-width:1.5;" x1="304.5" x2="364.5" y1="767.9531" y2="767.9531"/><!--MD5=[f04eddc513368489aea0358c3d51bf6a]
class Insertion--><rect codeLine="15" fill="#FEFECE" filter="url(#fcuoy1tfta1su)" height="48" id="Insertion" style="stroke:#A80036;stroke-width:1.5;" width="80" x="259.5" y="376.2813"/><ellipse cx="274.5" cy="392.2813" fill="#ADD1B2" rx="11" ry="11" style="stroke:#A80036;stroke-width:1.0;"/><path d="M277.2656,388.1563 Q277.4219,387.9375 277.6094,387.8281 Q277.7969,387.7188 278.0156,387.7188 Q278.3906,387.7188 278.625,387.9766 Q278.8594,388.2344 278.8594,388.8438 L278.8594,390.2969 Q278.8594,390.9063 278.625,391.1719 Q278.3906,391.4375 278.0156,391.4375 Q277.6719,391.4375 277.4688,391.2344 Q277.2656,391.0469 277.1563,390.5313 Q277.1094,390.1719 276.9219,389.9844 Q276.5938,389.6094 275.9844,389.3906 Q275.375,389.1719 274.75,389.1719 Q273.9844,389.1719 273.3516,389.5 Q272.7188,389.8281 272.2266,390.5781 Q271.7344,391.3281 271.7344,392.3594 L271.7344,393.4531 Q271.7344,394.6875 272.625,395.5078 Q273.5156,396.3281 275.1094,396.3281 Q276.0469,396.3281 276.7031,396.0781 Q277.0938,395.9219 277.5156,395.4844 Q277.7813,395.2188 277.9297,395.1406 Q278.0781,395.0625 278.2813,395.0625 Q278.6094,395.0625 278.8672,395.3203 Q279.125,395.5781 279.125,395.9219 Q279.125,396.2656 278.7813,396.6719 Q278.2813,397.25 277.4844,397.5781 Q276.4063,398.0313 275.1094,398.0313 Q273.5938,398.0313 272.3906,397.4063 Q271.4063,396.9063 270.7188,395.8359 Q270.0313,394.7656 270.0313,393.4844 L270.0313,392.3281 Q270.0313,391 270.6484,389.8516 Q271.2656,388.7031 272.3594,388.0859 Q273.4531,387.4688 274.6875,387.4688 Q275.4219,387.4688 276.0703,387.6328 Q276.7188,387.7969 277.2656,388.1563 Z " fill="#000000"/><text fill="#000000" font-family="sans-serif" font-size="12" lengthAdjust="spacing" textLength="48" x="288.5" y="397.1914">Insertion</text><line style="stroke:#A80036;stroke-width:1.5;" x1="260.5" x2="338.5" y1="408.2813" y2="408.2813"/><line style="stroke:#A80036;stroke-width:1.5;" x1="260.5" x2="338.5" y1="416.2813" y2="416.2813"/><!--MD5=[0992d3fdc9d3d7c02b735131bb70871d]
class Goal--><rect codeLine="16" fill="#FEFECE" filter="url(#fcuoy1tfta1su)" height="48" id="Goal" style="stroke:#A80036;stroke-width:1.5;" width="58" x="458.5" y="376.2813"/><ellipse cx="473.5" cy="392.2813" fill="#ADD1B2" rx="11" ry="11" style="stroke:#A80036;stroke-width:1.0;"/><path d="M476.2656,388.1563 Q476.4219,387.9375 476.6094,387.8281 Q476.7969,387.7188 477.0156,387.7188 Q477.3906,387.7188 477.625,387.9766 Q477.8594,388.2344 477.8594,388.8438 L477.8594,390.2969 Q477.8594,390.9063 477.625,391.1719 Q477.3906,391.4375 477.0156,391.4375 Q476.6719,391.4375 476.4688,391.2344 Q476.2656,391.0469 476.1563,390.5313 Q476.1094,390.1719 475.9219,389.9844 Q475.5938,389.6094 474.9844,389.3906 Q474.375,389.1719 473.75,389.1719 Q472.9844,389.1719 472.3516,389.5 Q471.7188,389.8281 471.2266,390.5781 Q470.7344,391.3281 470.7344,392.3594 L470.7344,393.4531 Q470.7344,394.6875 471.625,395.5078 Q472.5156,396.3281 474.1094,396.3281 Q475.0469,396.3281 475.7031,396.0781 Q476.0938,395.9219 476.5156,395.4844 Q476.7813,395.2188 476.9297,395.1406 Q477.0781,395.0625 477.2813,395.0625 Q477.6094,395.0625 477.8672,395.3203 Q478.125,395.5781 478.125,395.9219 Q478.125,396.2656 477.7813,396.6719 Q477.2813,397.25 476.4844,397.5781 Q475.4063,398.0313 474.1094,398.0313 Q472.5938,398.0313 471.3906,397.4063 Q470.4063,396.9063 469.7188,395.8359 Q469.0313,394.7656 469.0313,393.4844 L469.0313,392.3281 Q469.0313,391 469.6484,389.8516 Q470.2656,388.7031 471.3594,388.0859 Q472.4531,387.4688 473.6875,387.4688 Q474.4219,387.4688 475.0703,387.6328 Q475.7188,387.7969 476.2656,388.1563 Z " fill="#000000"/><text fill="#000000" font-family="sans-serif" font-size="12" lengthAdjust="spacing" textLength="26" x="487.5" y="397.1914">Goal</text><line style="stroke:#A80036;stroke-width:1.5;" x1="459.5" x2="515.5" y1="408.2813" y2="408.2813"/><line style="stroke:#A80036;stroke-width:1.5;" x1="459.5" x2="515.5" y1="416.2813" y2="416.2813"/><!--MD5=[8eafba4c2355ca0bcb7e3f6e0db0a856]
class 4InLineHorizontal--><rect codeLine="17" fill="#FEFECE" filter="url(#fcuoy1tfta1su)" height="48" id="4InLineHorizontal" style="stroke:#A80036;stroke-width:1.5;" width="128" x="423.5" y="484.2813"/><ellipse cx="438.5" cy="500.2813" fill="#ADD1B2" rx="11" ry="11" style="stroke:#A80036;stroke-width:1.0;"/><path d="M441.2656,496.1563 Q441.4219,495.9375 441.6094,495.8281 Q441.7969,495.7188 442.0156,495.7188 Q442.3906,495.7188 442.625,495.9766 Q442.8594,496.2344 442.8594,496.8438 L442.8594,498.2969 Q442.8594,498.9063 442.625,499.1719 Q442.3906,499.4375 442.0156,499.4375 Q441.6719,499.4375 441.4688,499.2344 Q441.2656,499.0469 441.1563,498.5313 Q441.1094,498.1719 440.9219,497.9844 Q440.5938,497.6094 439.9844,497.3906 Q439.375,497.1719 438.75,497.1719 Q437.9844,497.1719 437.3516,497.5 Q436.7188,497.8281 436.2266,498.5781 Q435.7344,499.3281 435.7344,500.3594 L435.7344,501.4531 Q435.7344,502.6875 436.625,503.5078 Q437.5156,504.3281 439.1094,504.3281 Q440.0469,504.3281 440.7031,504.0781 Q441.0938,503.9219 441.5156,503.4844 Q441.7813,503.2188 441.9297,503.1406 Q442.0781,503.0625 442.2813,503.0625 Q442.6094,503.0625 442.8672,503.3203 Q443.125,503.5781 443.125,503.9219 Q443.125,504.2656 442.7813,504.6719 Q442.2813,505.25 441.4844,505.5781 Q440.4063,506.0313 439.1094,506.0313 Q437.5938,506.0313 436.3906,505.4063 Q435.4063,504.9063 434.7188,503.8359 Q434.0313,502.7656 434.0313,501.4844 L434.0313,500.3281 Q434.0313,499 434.6484,497.8516 Q435.2656,496.7031 436.3594,496.0859 Q437.4531,495.4688 438.6875,495.4688 Q439.4219,495.4688 440.0703,495.6328 Q440.7188,495.7969 441.2656,496.1563 Z " fill="#000000"/><text fill="#000000" font-family="sans-serif" font-size="12" lengthAdjust="spacing" textLength="96" x="452.5" y="505.1914">4InLineHorizontal</text><line style="stroke:#A80036;stroke-width:1.5;" x1="424.5" x2="550.5" y1="516.2813" y2="516.2813"/><line style="stroke:#A80036;stroke-width:1.5;" x1="424.5" x2="550.5" y1="524.2813" y2="524.2813"/><!--MD5=[3b7c20eacaf61c87cda99c86b620f1d9]
class 4InLineVertical--><rect codeLine="18" fill="#FEFECE" filter="url(#fcuoy1tfta1su)" height="48" id="4InLineVertical" style="stroke:#A80036;stroke-width:1.5;" width="113" x="587" y="484.2813"/><ellipse cx="602" cy="500.2813" fill="#ADD1B2" rx="11" ry="11" style="stroke:#A80036;stroke-width:1.0;"/><path d="M604.7656,496.1563 Q604.9219,495.9375 605.1094,495.8281 Q605.2969,495.7188 605.5156,495.7188 Q605.8906,495.7188 606.125,495.9766 Q606.3594,496.2344 606.3594,496.8438 L606.3594,498.2969 Q606.3594,498.9063 606.125,499.1719 Q605.8906,499.4375 605.5156,499.4375 Q605.1719,499.4375 604.9688,499.2344 Q604.7656,499.0469 604.6563,498.5313 Q604.6094,498.1719 604.4219,497.9844 Q604.0938,497.6094 603.4844,497.3906 Q602.875,497.1719 602.25,497.1719 Q601.4844,497.1719 600.8516,497.5 Q600.2188,497.8281 599.7266,498.5781 Q599.2344,499.3281 599.2344,500.3594 L599.2344,501.4531 Q599.2344,502.6875 600.125,503.5078 Q601.0156,504.3281 602.6094,504.3281 Q603.5469,504.3281 604.2031,504.0781 Q604.5938,503.9219 605.0156,503.4844 Q605.2813,503.2188 605.4297,503.1406 Q605.5781,503.0625 605.7813,503.0625 Q606.1094,503.0625 606.3672,503.3203 Q606.625,503.5781 606.625,503.9219 Q606.625,504.2656 606.2813,504.6719 Q605.7813,505.25 604.9844,505.5781 Q603.9063,506.0313 602.6094,506.0313 Q601.0938,506.0313 599.8906,505.4063 Q598.9063,504.9063 598.2188,503.8359 Q597.5313,502.7656 597.5313,501.4844 L597.5313,500.3281 Q597.5313,499 598.1484,497.8516 Q598.7656,496.7031 599.8594,496.0859 Q600.9531,495.4688 602.1875,495.4688 Q602.9219,495.4688 603.5703,495.6328 Q604.2188,495.7969 604.7656,496.1563 Z " fill="#000000"/><text fill="#000000" font-family="sans-serif" font-size="12" lengthAdjust="spacing" textLength="81" x="616" y="505.1914">4InLineVertical</text><line style="stroke:#A80036;stroke-width:1.5;" x1="588" x2="699" y1="516.2813" y2="516.2813"/><line style="stroke:#A80036;stroke-width:1.5;" x1="588" x2="699" y1="524.2813" y2="524.2813"/><!--MD5=[bdcbb5412bae3c73d0734aa833bba632]
class 4InLineDiagonal--><rect codeLine="19" fill="#FEFECE" filter="url(#fcuoy1tfta1su)" height="48" id="4InLineDiagonal" style="stroke:#A80036;stroke-width:1.5;" width="123" x="735" y="484.2813"/><ellipse cx="750" cy="500.2813" fill="#ADD1B2" rx="11" ry="11" style="stroke:#A80036;stroke-width:1.0;"/><path d="M752.7656,496.1563 Q752.9219,495.9375 753.1094,495.8281 Q753.2969,495.7188 753.5156,495.7188 Q753.8906,495.7188 754.125,495.9766 Q754.3594,496.2344 754.3594,496.8438 L754.3594,498.2969 Q754.3594,498.9063 754.125,499.1719 Q753.8906,499.4375 753.5156,499.4375 Q753.1719,499.4375 752.9688,499.2344 Q752.7656,499.0469 752.6563,498.5313 Q752.6094,498.1719 752.4219,497.9844 Q752.0938,497.6094 751.4844,497.3906 Q750.875,497.1719 750.25,497.1719 Q749.4844,497.1719 748.8516,497.5 Q748.2188,497.8281 747.7266,498.5781 Q747.2344,499.3281 747.2344,500.3594 L747.2344,501.4531 Q747.2344,502.6875 748.125,503.5078 Q749.0156,504.3281 750.6094,504.3281 Q751.5469,504.3281 752.2031,504.0781 Q752.5938,503.9219 753.0156,503.4844 Q753.2813,503.2188 753.4297,503.1406 Q753.5781,503.0625 753.7813,503.0625 Q754.1094,503.0625 754.3672,503.3203 Q754.625,503.5781 754.625,503.9219 Q754.625,504.2656 754.2813,504.6719 Q753.7813,505.25 752.9844,505.5781 Q751.9063,506.0313 750.6094,506.0313 Q749.0938,506.0313 747.8906,505.4063 Q746.9063,504.9063 746.2188,503.8359 Q745.5313,502.7656 745.5313,501.4844 L745.5313,500.3281 Q745.5313,499 746.1484,497.8516 Q746.7656,496.7031 747.8594,496.0859 Q748.9531,495.4688 750.1875,495.4688 Q750.9219,495.4688 751.5703,495.6328 Q752.2188,495.7969 752.7656,496.1563 Z " fill="#000000"/><text fill="#000000" font-family="sans-serif" font-size="12" lengthAdjust="spacing" textLength="91" x="764" y="505.1914">4InLineDiagonal</text><line style="stroke:#A80036;stroke-width:1.5;" x1="736" x2="857" y1="516.2813" y2="516.2813"/><line style="stroke:#A80036;stroke-width:1.5;" x1="736" x2="857" y1="524.2813" y2="524.2813"/><!--MD5=[e06ef809dd6be8ce79b58fe0a1161eb8]
class Column--><rect fill="#FEFECE" filter="url(#fcuoy1tfta1su)" height="48" id="Column" style="stroke:#A80036;stroke-width:1.5;" width="76" x="170.5" y="484.2813"/><ellipse cx="185.5" cy="500.2813" fill="#ADD1B2" rx="11" ry="11" style="stroke:#A80036;stroke-width:1.0;"/><path d="M188.2656,496.1563 Q188.4219,495.9375 188.6094,495.8281 Q188.7969,495.7188 189.0156,495.7188 Q189.3906,495.7188 189.625,495.9766 Q189.8594,496.2344 189.8594,496.8438 L189.8594,498.2969 Q189.8594,498.9063 189.625,499.1719 Q189.3906,499.4375 189.0156,499.4375 Q188.6719,499.4375 188.4688,499.2344 Q188.2656,499.0469 188.1563,498.5313 Q188.1094,498.1719 187.9219,497.9844 Q187.5938,497.6094 186.9844,497.3906 Q186.375,497.1719 185.75,497.1719 Q184.9844,497.1719 184.3516,497.5 Q183.7188,497.8281 183.2266,498.5781 Q182.7344,499.3281 182.7344,500.3594 L182.7344,501.4531 Q182.7344,502.6875 183.625,503.5078 Q184.5156,504.3281 186.1094,504.3281 Q187.0469,504.3281 187.7031,504.0781 Q188.0938,503.9219 188.5156,503.4844 Q188.7813,503.2188 188.9297,503.1406 Q189.0781,503.0625 189.2813,503.0625 Q189.6094,503.0625 189.8672,503.3203 Q190.125,503.5781 190.125,503.9219 Q190.125,504.2656 189.7813,504.6719 Q189.2813,505.25 188.4844,505.5781 Q187.4063,506.0313 186.1094,506.0313 Q184.5938,506.0313 183.3906,505.4063 Q182.4063,504.9063 181.7188,503.8359 Q181.0313,502.7656 181.0313,501.4844 L181.0313,500.3281 Q181.0313,499 181.6484,497.8516 Q182.2656,496.7031 183.3594,496.0859 Q184.4531,495.4688 185.6875,495.4688 Q186.4219,495.4688 187.0703,495.6328 Q187.7188,495.7969 188.2656,496.1563 Z " fill="#000000"/><text fill="#000000" font-family="sans-serif" font-size="12" lengthAdjust="spacing" textLength="44" x="199.5" y="505.1914">Column</text><line style="stroke:#A80036;stroke-width:1.5;" x1="171.5" x2="245.5" y1="516.2813" y2="516.2813"/><line style="stroke:#A80036;stroke-width:1.5;" x1="171.5" x2="245.5" y1="524.2813" y2="524.2813"/><!--MD5=[05aedcff764caeeb5d443618a4d90de7]
class Row--><rect fill="#FEFECE" filter="url(#fcuoy1tfta1su)" height="48" id="Row" style="stroke:#A80036;stroke-width:1.5;" width="57" x="7" y="484.2813"/><ellipse cx="22" cy="500.2813" fill="#ADD1B2" rx="11" ry="11" style="stroke:#A80036;stroke-width:1.0;"/><path d="M24.7656,496.1563 Q24.9219,495.9375 25.1094,495.8281 Q25.2969,495.7188 25.5156,495.7188 Q25.8906,495.7188 26.125,495.9766 Q26.3594,496.2344 26.3594,496.8438 L26.3594,498.2969 Q26.3594,498.9063 26.125,499.1719 Q25.8906,499.4375 25.5156,499.4375 Q25.1719,499.4375 24.9688,499.2344 Q24.7656,499.0469 24.6563,498.5313 Q24.6094,498.1719 24.4219,497.9844 Q24.0938,497.6094 23.4844,497.3906 Q22.875,497.1719 22.25,497.1719 Q21.4844,497.1719 20.8516,497.5 Q20.2188,497.8281 19.7266,498.5781 Q19.2344,499.3281 19.2344,500.3594 L19.2344,501.4531 Q19.2344,502.6875 20.125,503.5078 Q21.0156,504.3281 22.6094,504.3281 Q23.5469,504.3281 24.2031,504.0781 Q24.5938,503.9219 25.0156,503.4844 Q25.2813,503.2188 25.4297,503.1406 Q25.5781,503.0625 25.7813,503.0625 Q26.1094,503.0625 26.3672,503.3203 Q26.625,503.5781 26.625,503.9219 Q26.625,504.2656 26.2813,504.6719 Q25.7813,505.25 24.9844,505.5781 Q23.9063,506.0313 22.6094,506.0313 Q21.0938,506.0313 19.8906,505.4063 Q18.9063,504.9063 18.2188,503.8359 Q17.5313,502.7656 17.5313,501.4844 L17.5313,500.3281 Q17.5313,499 18.1484,497.8516 Q18.7656,496.7031 19.8594,496.0859 Q20.9531,495.4688 22.1875,495.4688 Q22.9219,495.4688 23.5703,495.6328 Q24.2188,495.7969 24.7656,496.1563 Z " fill="#000000"/><text fill="#000000" font-family="sans-serif" font-size="12" lengthAdjust="spacing" textLength="25" x="36" y="505.1914">Row</text><line style="stroke:#A80036;stroke-width:1.5;" x1="8" x2="63" y1="516.2813" y2="516.2813"/><line style="stroke:#A80036;stroke-width:1.5;" x1="8" x2="63" y1="524.2813" y2="524.2813"/><!--MD5=[6824fd9902778444ee49992acd2ffe7e]
link Connect4 to Turn--><path codeLine="21" d="M368.6326,109.7726 C368.6326,109.7726 389.85,137.2012 399.43,149.5812 " fill="none" id="Connect4-Turn" style="stroke:#A80036;stroke-width:1.0;"/><polygon fill="#A80036" points="407.46,159.9612,405.1104,150.3968,404.3979,156.0086,398.7861,155.2961,407.46,159.9612" style="stroke:#A80036;stroke-width:1.0;"/><line style="stroke:#A80036;stroke-width:1.0;" x1="404.3979" x2="399.505" y1="156.0086" y2="149.6762"/><polygon fill="#A80036" points="361.29,100.2813,361.7975,107.4745,368.6326,109.7726,368.1251,102.5794,361.29,100.2813" style="stroke:#A80036;stroke-width:1.0;"/><!--MD5=[46750473935a00282743b47f522de7be]
link Connect4 to Player--><path codeLine="22" d="M351.6801,112.2766 C351.6801,112.2766 375.87,215.8312 385.1,255.3312 " fill="none" id="Connect4-Player" style="stroke:#A80036;stroke-width:1.0;"/><polygon fill="#A80036" points="388.06,268.0013,389.9075,258.3272,386.9225,263.1324,382.1173,260.1473,388.06,268.0013" style="stroke:#A80036;stroke-width:1.0;"/><line style="stroke:#A80036;stroke-width:1.0;" x1="386.9225" x2="385.1" y1="263.1324" y2="255.3462"/><polygon fill="#A80036" points="348.95,100.5912,346.4199,107.3439,351.6801,112.2766,354.2102,105.5239,348.95,100.5912" style="stroke:#A80036;stroke-width:1.0;"/><text fill="#000000" font-family="sans-serif" font-size="13" lengthAdjust="spacing" textLength="7" x="376.7191" y="257.2697">2</text><!--MD5=[5426a1d26e36fcd61d30da6b8a6545ec]
link Connect4 to Board--><path codeLine="23" d="M331.9871,111.9794 C331.9871,111.9794 297.48,215.9813 284.35,255.5612 " fill="none" id="Connect4-Board" style="stroke:#A80036;stroke-width:1.0;"/><polygon fill="#A80036" points="280.22,268.0013,286.8456,260.7142,281.7912,263.2545,279.2509,258.2002,280.22,268.0013" style="stroke:#A80036;stroke-width:1.0;"/><line style="stroke:#A80036;stroke-width:1.0;" x1="281.7912" x2="284.32" y1="263.2545" y2="255.6612"/><polygon fill="#A80036" points="335.77,100.5912,330.0825,105.0244,331.9871,111.9794,337.6746,107.5463,335.77,100.5912" style="stroke:#A80036;stroke-width:1.0;"/><!--MD5=[d81713d91ad05be3b975338c4816ee0b]
link Turn to Player--><path codeLine="25" d="M418.56,208.2813 C413.73,224.2813 407.25,245.7313 402.1,262.8113 " fill="none" id="Turn-to-Player" style="stroke:#A80036;stroke-width:1.0;"/><polygon fill="#A80036" points="400.54,267.9613,406.9677,260.499,401.9833,263.1741,399.3082,258.1897,400.54,267.9613" style="stroke:#A80036;stroke-width:1.0;"/><text fill="#000000" font-family="sans-serif" font-size="13" lengthAdjust="spacing" textLength="7" x="393.9154" y="257.6212">2</text><!--MD5=[5fc9219214a6d7db882d960f5244e6cf]
link Player to Checker--><path codeLine="26" d="M426.91,296.8313 C556.14,311.7713 1009.48,376.1713 875.5,532.2813 C811.32,607.0613 496,615.1513 378.62,615.5313 " fill="none" id="Player-to-Checker" style="stroke:#A80036;stroke-width:1.0;"/><polygon fill="#A80036" points="373.52,615.5413,382.5314,619.5155,378.52,615.527,382.5085,611.5156,373.52,615.5413" style="stroke:#A80036;stroke-width:1.0;"/><text fill="#000000" font-family="sans-serif" font-size="13" lengthAdjust="spacing" textLength="14" x="381.4297" y="611.5644">21</text><!--MD5=[1571e4e0b7cdbae74b04c97a95677c54]
link Player to Goal--><path codeLine="27" d="M413.9,316.2813 C428.45,332.7013 448.09,354.8413 463.42,372.1213 " fill="none" id="Player-to-Goal" style="stroke:#A80036;stroke-width:1.0;"/><polygon fill="#A80036" points="466.82,375.9613,463.8482,366.5715,463.5053,372.2179,457.8588,371.875,466.82,375.9613" style="stroke:#A80036;stroke-width:1.0;"/><!--MD5=[7bb762d18462f0af16144f4412d331d8]
link Player to Insertion--><path codeLine="28" d="M373.1,316.2813 C358.55,332.7013 338.91,354.8413 323.58,372.1213 " fill="none" id="Player-to-Insertion" style="stroke:#A80036;stroke-width:1.0;stroke-dasharray:7.0,7.0;"/><polygon fill="#A80036" points="320.18,375.9613,329.1412,371.875,323.4947,372.2179,323.1518,366.5715,320.18,375.9613" style="stroke:#A80036;stroke-width:1.0;"/><text fill="#000000" font-family="sans-serif" font-size="13" lengthAdjust="spacing" textLength="29" x="292.6864" y="365.6212">3..21</text><!--MD5=[6bdcbefd6fc954f1dd07b7047369783b]
reverse link Board to Player--><path codeLine="29" d="M310.29,292.2813 C326.98,292.2813 343.67,292.2813 360.35,292.2813 " fill="none" id="Board-backto-Player" style="stroke:#A80036;stroke-width:1.0;"/><polygon fill="#A80036" points="305.11,292.2813,314.11,296.2813,310.11,292.2813,314.11,288.2813,305.11,292.2813" style="stroke:#A80036;stroke-width:1.0;"/><!--MD5=[c148346f61f96d5968c9850ebe71e5d5]
link Board to Cell--><path codeLine="31" d="M238.7288,324.4168 C238.7288,324.4168 206.98,353.6713 192.73,366.8013 " fill="none" id="Board-Cell" style="stroke:#A80036;stroke-width:1.0;"/><polygon fill="#A80036" points="182.8,375.9613,192.1303,372.8075,186.4782,372.5744,186.7113,366.9224,182.8,375.9613" style="stroke:#A80036;stroke-width:1.0;"/><line style="stroke:#A80036;stroke-width:1.0;" x1="186.4782" x2="192.36" y1="372.5744" y2="367.1463"/><polygon fill="#A80036" points="247.55,316.2813,240.4276,317.4086,238.7288,324.4168,245.8513,323.2894,247.55,316.2813" style="stroke:#A80036;stroke-width:1.0;"/><text fill="#000000" font-family="sans-serif" font-size="13" lengthAdjust="spacing" textLength="21" x="165.4075" y="365.6212">7x6</text><!--MD5=[426b59f6a7e6b44dc35cddfe28235449]
link Cell to Checker--><path codeLine="32" d="M145.9325,436.2557 C145.9325,436.2557 134.52,504.3113 152.5,532.2813 C180.93,576.4913 239.35,597.4313 282.37,607.1713 " fill="none" id="Cell-Checker" style="stroke:#A80036;stroke-width:1.0;"/><polygon fill="#A80036" points="295.18,609.8512,287.1873,604.0965,290.2855,608.8295,285.5525,611.9277,295.18,609.8512" style="stroke:#A80036;stroke-width:1.0;"/><line style="stroke:#A80036;stroke-width:1.0;" x1="290.2855" x2="282.45" y1="608.8295" y2="607.1863"/><polygon fill="#FFFFFF" points="149.1,424.6813,143.6581,429.4126,145.9325,436.2557,151.3744,431.5243,149.1,424.6813" style="stroke:#A80036;stroke-width:1.0;"/><text fill="#000000" font-family="sans-serif" font-size="13" lengthAdjust="spacing" textLength="22" x="265.4748" y="605.1637">0..1</text><!--MD5=[cf6099374887ae4fbefe86fb043b4b37]
link Cell to Column--><path codeLine="33" d="M168.57,424.2813 C176.33,440.4213 186.76,462.1013 195.01,479.2513 " fill="none" id="Cell-to-Column" style="stroke:#A80036;stroke-width:1.0;"/><polygon fill="#A80036" points="197.28,483.9613,196.9834,474.1169,195.1126,479.4554,189.7741,477.5846,197.28,483.9613" style="stroke:#A80036;stroke-width:1.0;"/><!--MD5=[af531668c4b2523acc4c83e34301bfb0]
link Cell to Row--><path codeLine="34" d="M131.03,424.2813 C111.97,440.8313 86.22,463.2113 66.25,480.5613 " fill="none" id="Cell-to-Row" style="stroke:#A80036;stroke-width:1.0;"/><polygon fill="#A80036" points="62.34,483.9613,71.7597,481.0856,66.117,480.685,66.5176,475.0423,62.34,483.9613" style="stroke:#A80036;stroke-width:1.0;"/><!--MD5=[01c180ace0bc8fc98fac5bb07e834036]
link Checker to Color--><path codeLine="36" d="M334.5,652.4213 C334.5,652.4213 334.5,675.6813 334.5,686.8113 " fill="none" id="Checker-Color" style="stroke:#A80036;stroke-width:1.0;"/><polygon fill="#A80036" points="334.5,700.0513,338.5,691.0513,334.5,695.0513,330.5,691.0513,334.5,700.0513" style="stroke:#A80036;stroke-width:1.0;"/><line style="stroke:#A80036;stroke-width:1.0;" x1="334.5" x2="334.5" y1="695.0513" y2="687.0513"/><polygon fill="#A80036" points="334.5,640.4213,330.5,646.4213,334.5,652.4213,338.5,646.4213,334.5,640.4213" style="stroke:#A80036;stroke-width:1.0;"/><!--MD5=[79b08d30461a7da1c0ce8dbf8a6933a5]
link Insertion to Checker--><path codeLine="37" d="M303.31,424.5913 C309.78,464.1513 322.89,544.2713 329.87,586.9813 " fill="none" id="Insertion-to-Checker" style="stroke:#A80036;stroke-width:1.0;"/><polygon fill="#A80036" points="330.69,592.0013,333.1694,582.4696,329.875,587.0681,325.2764,583.7737,330.69,592.0013" style="stroke:#A80036;stroke-width:1.0;"/><!--MD5=[f94530b0502e8b3a05223ef0274bd62d]
link Insertion to Column--><path codeLine="38" d="M279.75,424.2813 C265.66,440.7013 246.65,462.8413 231.81,480.1213 " fill="none" id="Insertion-to-Column" style="stroke:#A80036;stroke-width:1.0;"/><polygon fill="#A80036" points="228.52,483.9613,237.4141,479.7311,231.774,480.165,231.3401,474.5248,228.52,483.9613" style="stroke:#A80036;stroke-width:1.0;"/><!--MD5=[9f46abdd91245cbe2a8d8e0b23a48361]
link Goal to Checker--><path codeLine="40" d="M461.15,424.3113 C444.02,440.1113 421.91,462.1513 405.5,484.2813 C381.03,517.2813 359.6,559.7513 346.85,587.2413 " fill="none" id="Goal-to-Checker" style="stroke:#A80036;stroke-width:1.0;"/><polygon fill="#A80036" points="344.73,591.8613,352.1204,585.3511,346.8162,587.3173,344.85,582.0131,344.73,591.8613" style="stroke:#A80036;stroke-width:1.0;"/><text fill="#000000" font-family="sans-serif" font-size="13" lengthAdjust="spacing" textLength="7" x="338.3954" y="581.4968">4</text><!--MD5=[9a977433e608fbaeb4f645760b1175d9]
reverse link Goal to 4InLineHorizontal--><path codeLine="41" d="M487.5,444.3013 C487.5,457.8613 487.5,472.3213 487.5,483.9613 " fill="none" id="Goal-backto-4InLineHorizontal" style="stroke:#A80036;stroke-width:1.0;"/><polygon fill="none" points="480.5,444.2813,487.5,424.2813,494.5,444.2813,480.5,444.2813" style="stroke:#A80036;stroke-width:1.0;"/><!--MD5=[708770dd85c76252c1377ff40b6e39bf]
reverse link Goal to 4InLineVertical--><path codeLine="42" d="M533.49,432.5313 C557.8,449.0513 587.14,468.9813 609.4,484.1113 " fill="none" id="Goal-backto-4InLineVertical" style="stroke:#A80036;stroke-width:1.0;"/><polygon fill="none" points="529.45,438.2513,516.84,421.2213,537.32,426.6713,529.45,438.2513" style="stroke:#A80036;stroke-width:1.0;"/><!--MD5=[bc6e461644a49b7b6411796378ac96ef]
reverse link Goal to 4InLineDiagonal--><path codeLine="43" d="M535.72,417.8213 C589.42,436.2413 676.35,466.0613 734.93,486.1613 " fill="none" id="Goal-backto-4InLineDiagonal" style="stroke:#A80036;stroke-width:1.0;"/><polygon fill="none" points="533.22,424.3613,516.57,411.2513,537.76,411.1213,533.22,424.3613" style="stroke:#A80036;stroke-width:1.0;"/><!--MD5=[5863333a3f70d009bb334cb29492070c]
@startuml connect4- -vocabulary


title Connect4 Vocabulary \n

class Connect4
class Turn
class Player
class Board
class Cell
class Checker
enum Color {
    Red,
    Yellow
}
class Insertion
class Goal
class 4InLineHorizontal
class 4InLineVertical
class 4InLineDiagonal

Connect4 *- -> Turn
Connect4 *- -> "    2" Player
Connect4 *- -> Board

Turn - -> " 2" Player
Player - - -> "21" Checker
Player - -> Goal
Player ..> "3..21" Insertion
Player -l-> Board

Board *-d-> "7x6" Cell
Cell o-r-> "0..1" Checker
Cell - -> Column
Cell - -> Row

Checker *- -> Color
Insertion - - -> Checker
Insertion - -> Column

Goal - -> "  4" Checker
Goal <|-down- 4InLineHorizontal
Goal <|-down- 4InLineVertical
Goal <|-down- 4InLineDiagonal



@enduml

PlantUML version 1.2022.0(Tue Jan 11 17:16:42 CET 2022)
(GPL source distribution)
Java Runtime: Java(TM) SE Runtime Environment
JVM: Java HotSpot(TM) 64-Bit Server VM
Default Encoding: Cp1252
Language: es
Country: ES
--></g></svg>