<?xml version="1.0" encoding="UTF-8" standalone="no"?><svg xmlns="http://www.w3.org/2000/svg" xmlns:xlink="http://www.w3.org/1999/xlink" contentScriptType="application/ecmascript" contentStyleType="text/css" height="838px" preserveAspectRatio="none" style="width:769px;height:838px;background:#F9F9F9;" version="1.1" viewBox="0 0 769 838" width="769px" zoomAndPan="magnify"><defs/><g><text fill="#000000" font-family="sans-serif" font-size="18" lengthAdjust="spacing" textLength="165" x="293.45" y="18.6855">Klondike Instructions</text><text fill="#000000" font-family="sans-serif" font-size="18" lengthAdjust="spacing" textLength="0" x="380.95" y="41.3262"/><g id="CardInStock"><rect fill="#FEFECE" height="50" rx="12.5" ry="12.5" style="stroke:#A80036;stroke-width:1.5;" width="50" x="607.9" y="132.2813"/><line style="stroke:#A80036;stroke-width:1.5;" x1="607.9" x2="657.9" y1="159.8906" y2="159.8906"/><text fill="#000000" font-family="sans-serif" font-size="14" lengthAdjust="spacing" textLength="0" x="634.9" y="151.8145"/></g><g id="CardInWaste"><rect fill="#FEFECE" height="50" rx="12.5" ry="12.5" style="stroke:#A80036;stroke-width:1.5;" width="50" x="537.9" y="293.2813"/><line style="stroke:#A80036;stroke-width:1.5;" x1="537.9" x2="587.9" y1="320.8906" y2="320.8906"/><text fill="#000000" font-family="sans-serif" font-size="14" lengthAdjust="spacing" textLength="0" x="564.9" y="312.8145"/></g><g id="CardInTableu"><rect fill="#FEFECE" height="50" rx="12.5" ry="12.5" style="stroke:#A80036;stroke-width:1.5;" width="50" x="207.9" y="454.7813"/><line style="stroke:#A80036;stroke-width:1.5;" x1="207.9" x2="257.9" y1="482.3906" y2="482.3906"/><text fill="#000000" font-family="sans-serif" font-size="14" lengthAdjust="spacing" textLength="0" x="234.9" y="474.3145"/></g><g id="CardInTableu1"><rect fill="#FEFECE" height="50" rx="12.5" ry="12.5" style="stroke:#A80036;stroke-width:1.5;" width="50" x="52.9" y="616.2813"/><line style="stroke:#A80036;stroke-width:1.5;" x1="52.9" x2="102.9" y1="643.8906" y2="643.8906"/><text fill="#000000" font-family="sans-serif" font-size="14" lengthAdjust="spacing" textLength="0" x="79.9" y="635.8145"/></g><g id="CardInFoundation"><rect fill="#FEFECE" height="50" rx="12.5" ry="12.5" style="stroke:#A80036;stroke-width:1.5;" width="50" x="319.9" y="616.2813"/><line style="stroke:#A80036;stroke-width:1.5;" x1="319.9" x2="369.9" y1="643.8906" y2="643.8906"/><text fill="#000000" font-family="sans-serif" font-size="14" lengthAdjust="spacing" textLength="0" x="346.9" y="635.8145"/></g><g id="StockReseted"><rect fill="#FEFECE" height="50" rx="12.5" ry="12.5" style="stroke:#A80036;stroke-width:1.5;" width="50" x="646.9" y="454.7813"/><line style="stroke:#A80036;stroke-width:1.5;" x1="646.9" x2="696.9" y1="482.3906" y2="482.3906"/><text fill="#000000" font-family="sans-serif" font-size="14" lengthAdjust="spacing" textLength="0" x="673.9" y="474.3145"/></g><polygon fill="#FEFECE" points="555.9,727.2813,567.9,739.2813,555.9,751.2813,543.9,739.2813,555.9,727.2813" style="stroke:#A80036;stroke-width:1.5;"/><ellipse cx="632.9" cy="61.2813" fill="#000000" rx="10" ry="10" style="stroke:none;stroke-width:1.0;"/><ellipse cx="364.9" cy="822.2813" rx="10" ry="10" style="stroke:#000000;stroke-width:1.0;fill:none;"/><ellipse cx="365.4" cy="822.7813" fill="#000000" rx="6" ry="6" style="stroke:none;stroke-width:1.0;"/><!--MD5=[86cc457df7c85012d729a4a4c1699fc5]
link *start to CardInStock--><path d="M632.9,71.2912 C632.9,83.9813 632.9,107.6912 632.9,126.8513 " fill="none" id="*start-to-CardInStock" style="stroke:#191919;stroke-width:1.0;"/><polygon fill="#191919" points="632.9,132.1213,636.9,123.1213,632.9,127.1213,628.9,123.1213,632.9,132.1213" style="stroke:#191919;stroke-width:1.0;"/><!--MD5=[5973020c32dbbd8ff837c3e698710764]
link CardInStock to CardInWaste--><path d="M619.7,182.4913 C614.84,191.7213 609.43,202.3913 604.9,212.2813 C593.27,237.6713 581.6,267.2613 573.52,288.5513 " fill="none" id="CardInStock-to-CardInWaste" style="stroke:#191919;stroke-width:1.0;"/><polygon fill="#191919" points="571.75,293.2313,578.6742,286.2272,573.5181,288.5543,571.191,283.3983,571.75,293.2313" style="stroke:#191919;stroke-width:1.0;"/><text fill="#000000" font-family="sans-serif" font-size="13" lengthAdjust="spacing" textLength="30" x="623.4" y="226.7764">move</text><text fill="#000000" font-family="sans-serif" font-size="13" lengthAdjust="spacing" textLength="61" x="609.9" y="243.1279">from stock</text><text fill="#000000" font-family="sans-serif" font-size="13" lengthAdjust="spacing" textLength="49" x="617.9" y="259.4795">to waste</text><!--MD5=[f2a3b867852202f9d04ad3ccb26c5b2a]
link CardInWaste to StockReseted--><path d="M573.03,343.3913 C582.87,365.4813 599.06,398.5413 617.9,424.2813 C625.26,434.3413 634.46,444.3413 643.17,452.9613 " fill="none" id="CardInWaste-to-StockReseted" style="stroke:#191919;stroke-width:1.0;"/><polygon fill="#191919" points="646.87,456.5713,643.2231,447.4225,643.2918,453.0789,637.6354,453.1476,646.87,456.5713" style="stroke:#191919;stroke-width:1.0;"/><text fill="#000000" font-family="sans-serif" font-size="13" lengthAdjust="spacing" textLength="52" x="618.9" y="396.2764">[ isStock</text><text fill="#000000" font-family="sans-serif" font-size="13" lengthAdjust="spacing" textLength="46" x="625.9" y="412.6279">Empty ]</text><!--MD5=[57f4bf2693bb097e55cccdae8c91ffdd]
link StockReseted to CardInStock--><path d="M678.52,454.6313 C690.44,406.6313 711.45,296.6013 679.9,212.2813 C676,201.8813 669.1,192.1613 661.76,183.9113 " fill="none" id="StockReseted-to-CardInStock" style="stroke:#191919;stroke-width:1.0;"/><polygon fill="#191919" points="658.14,179.9813,661.2827,189.3152,661.5225,183.6635,667.1743,183.9032,658.14,179.9813" style="stroke:#191919;stroke-width:1.0;"/><text fill="#000000" font-family="sans-serif" font-size="13" lengthAdjust="spacing" textLength="65" x="696.9" y="323.7764">reset stock</text><!--MD5=[e01057e5c462d003bf4fc068e90e9b97]
link CardInWaste to CardInTableu--><path d="M537.58,322.4313 C497.88,328.1513 419.36,342.5813 359.9,373.2813 C320.97,393.3813 283.26,427.0813 259.19,450.9813 " fill="none" id="CardInWaste-to-CardInTableu" style="stroke:#191919;stroke-width:1.0;"/><polygon fill="#191919" points="255.44,454.7213,264.6252,451.1672,258.9684,451.1786,258.957,445.5217,255.44,454.7213" style="stroke:#191919;stroke-width:1.0;"/><text fill="#000000" font-family="sans-serif" font-size="13" lengthAdjust="spacing" textLength="30" x="372.4" y="387.7764">move</text><text fill="#000000" font-family="sans-serif" font-size="13" lengthAdjust="spacing" textLength="49" x="364.9" y="404.1279">waste to</text><text fill="#000000" font-family="sans-serif" font-size="13" lengthAdjust="spacing" textLength="35" x="373.9" y="420.4795">tableu</text><!--MD5=[d3f5f47797ea33fc51eff2c08006cd45]
link CardInWaste to CardInFoundation--><path d="M544.14,343.6713 C524.47,369.9713 493.48,413.5713 471.9,454.2813 C442.29,510.1413 457.71,536.3813 418.9,586.2813 C406.95,601.6413 389.52,614.6513 374.58,624.0513 " fill="none" id="CardInWaste-to-CardInFoundation" style="stroke:#191919;stroke-width:1.0;"/><polygon fill="#191919" points="370.03,626.8512,379.7893,625.5264,374.2844,624.2244,375.5864,618.7194,370.03,626.8512" style="stroke:#191919;stroke-width:1.0;"/><text fill="#000000" font-family="sans-serif" font-size="13" lengthAdjust="spacing" textLength="30" x="487.4" y="468.7764">move</text><text fill="#000000" font-family="sans-serif" font-size="13" lengthAdjust="spacing" textLength="49" x="479.9" y="485.1279">waste to</text><text fill="#000000" font-family="sans-serif" font-size="13" lengthAdjust="spacing" textLength="59" x="476.9" y="501.4795">foundation</text><!--MD5=[0bf72f04e66ac4965e1d36a5a2a7f0a4]
link CardInTableu to CardInFoundation--><path d="M224.98,505.0213 C219.1,527.8213 214.47,562.0013 229.9,586.2813 C248.38,615.3813 287.15,629.0713 314.55,635.3313 " fill="none" id="CardInTableu-to-CardInFoundation" style="stroke:#191919;stroke-width:1.0;"/><polygon fill="#191919" points="319.53,636.4113,311.5957,630.5762,314.6461,635.3402,309.8821,638.3905,319.53,636.4113" style="stroke:#191919;stroke-width:1.0;"/><text fill="#000000" font-family="sans-serif" font-size="13" lengthAdjust="spacing" textLength="30" x="245.4" y="549.7764">move</text><text fill="#000000" font-family="sans-serif" font-size="13" lengthAdjust="spacing" textLength="50" x="237.4" y="566.1279">tableu to</text><text fill="#000000" font-family="sans-serif" font-size="13" lengthAdjust="spacing" textLength="59" x="234.9" y="582.4795">foundation</text><!--MD5=[fcf62c34ca942aa7568c7d6a21f29f50]
link CardInFoundation to CardInTableu--><path d="M337.89,616.0713 C330.6,593.6313 317.61,560.0613 298.9,535.2813 C288.76,521.8612 274.68,509.6513 262.13,500.2013 " fill="none" id="CardInFoundation-to-CardInTableu" style="stroke:#191919;stroke-width:1.0;"/><polygon fill="#191919" points="257.94,497.1113,262.8086,505.6726,261.9638,500.0792,267.5573,499.2345,257.94,497.1113" style="stroke:#191919;stroke-width:1.0;"/><text fill="#000000" font-family="sans-serif" font-size="13" lengthAdjust="spacing" textLength="30" x="351.9" y="549.7764">move</text><text fill="#000000" font-family="sans-serif" font-size="13" lengthAdjust="spacing" textLength="74" x="331.9" y="566.1279">foundation to</text><text fill="#000000" font-family="sans-serif" font-size="13" lengthAdjust="spacing" textLength="35" x="353.4" y="582.4795">tableu</text><!--MD5=[2d491c736d7bfb02a257534df65314c6]
link CardInTableu to CardInTableu1--><path d="M207.85,483.4013 C156.66,489.3213 42.95,505.5813 19.9,535.2813 C6,553.1813 10.85,565.5013 19.9,586.2813 C25.91,600.1012 37.4,611.9813 48.58,621.0513 " fill="none" id="CardInTableu-to-CardInTableu1" style="stroke:#191919;stroke-width:1.0;"/><polygon fill="#191919" points="52.67,624.2613,48.063,615.5563,48.7379,621.1728,43.1215,621.8477,52.67,624.2613" style="stroke:#191919;stroke-width:1.0;"/><text fill="#000000" font-family="sans-serif" font-size="13" lengthAdjust="spacing" textLength="57" x="24.4" y="558.2764">raise card</text><text fill="#000000" font-family="sans-serif" font-size="13" lengthAdjust="spacing" textLength="64" x="24.9" y="574.6279">from tableu</text><!--MD5=[f0d2a66676eea8ddb85ef1458b0c6ac1]
link CardInTableu1 to CardInTableu--><path d="M91.57,615.8713 C104.99,593.2813 127.03,559.6112 151.9,535.2813 C167.18,520.3313 187.07,506.8813 203.31,497.0813 " fill="none" id="CardInTableu1-to-CardInTableu" style="stroke:#191919;stroke-width:1.0;"/><polygon fill="#191919" points="207.79,494.4213,198.01,495.5834,203.4925,496.9769,202.099,502.4594,207.79,494.4213" style="stroke:#191919;stroke-width:1.0;"/><text fill="#000000" font-family="sans-serif" font-size="13" lengthAdjust="spacing" textLength="30" x="164.9" y="549.7764">move</text><text fill="#000000" font-family="sans-serif" font-size="13" lengthAdjust="spacing" textLength="50" x="156.9" y="566.1279">tableu to</text><text fill="#000000" font-family="sans-serif" font-size="13" lengthAdjust="spacing" textLength="35" x="166.4" y="582.4795">tableu</text><!--MD5=[9385b8b3ff4c23eed56d5a3e7d839fab]
link CardInFoundation to *end--><path d="M347.6,666.4213 C351.81,704.1513 359.83,775.9613 363.27,806.7113 " fill="none" id="CardInFoundation-to-*end" style="stroke:#191919;stroke-width:1.0;"/><polygon fill="#191919" points="363.86,811.9613,366.8594,802.5802,363.3172,806.9908,358.9067,803.4486,363.86,811.9613" style="stroke:#191919;stroke-width:1.0;"/><text fill="#000000" font-family="sans-serif" font-size="13" lengthAdjust="spacing" textLength="162" x="358.9" y="744.7764">[ allFoundationsCompleted ]</text><!--MD5=[6d5b02967af977cf02653d3fd5b2cc11]
link CardInFoundation to CanMove--><path d="M369.93,653.6713 C415.11,674.2213 508.76,716.8313 543,732.4113 " fill="none" id="CardInFoundation-to-CanMove" style="stroke:#191919;stroke-width:1.0;"/><polygon fill="#191919" points="547.97,734.6713,541.4406,727.2978,543.4206,732.5968,538.1216,734.5768,547.97,734.6713" style="stroke:#191919;stroke-width:1.0;"/><!--MD5=[8e48f619bbba88bec6ff8ef1f5cb2a21]
link CanMove to *end--><path d="M547.69,743.7613 C518.02,756.3413 416.1,799.5713 378.75,815.4013 " fill="none" id="CanMove-to-*end" style="stroke:#191919;stroke-width:1.0;"/><polygon fill="#191919" points="373.73,817.5413,383.5772,817.7243,378.336,815.5959,380.4645,810.3547,373.73,817.5413" style="stroke:#191919;stroke-width:1.0;"/><!--MD5=[0f91d5699d2449567a4bd77a850db95d]
link CanMove to CardInWaste--><path d="M556.08,727.2613 C556.99,672.8913 561.01,432.4113 562.41,348.3813 " fill="none" id="CanMove-to-CardInWaste" style="stroke:#191919;stroke-width:1.0;"/><polygon fill="#191919" points="562.5,343.3113,558.3463,352.2414,562.4143,348.3105,566.3451,352.3785,562.5,343.3113" style="stroke:#191919;stroke-width:1.0;"/><text fill="#000000" font-family="sans-serif" font-size="13" lengthAdjust="spacing" textLength="94" x="560.9" y="566.2764">[ canMoveCard ]</text><!--MD5=[594bd224bf6bbf48dc6c0623efc18347]
@startuml klondike- -instructions
!theme mars

title Klondike Instructions \n

state CardInStock as " "
state CardInWaste as " "
state CardInTableu as " "
state CardInTableu1 as " "
state CardInFoundation as " "
state StockReseted as " "
state CanMove <<choice>>


[*]              - -> CardInStock
CardInStock      - -> CardInWaste       : move \n from stock \n to waste
CardInWaste      - -> StockReseted : [ isStock \n Empty ]
StockReseted     - -> CardInStock : reset stock
CardInWaste      - -> CardInTableu      : move \n waste to \n tableu
CardInWaste      - -> CardInFoundation  : move \n waste to \n foundation
CardInTableu     - -> CardInFoundation  : move \n tableu to \n foundation
CardInTableu     - -> CardInTableu1     : raise card \n from tableu
CardInTableu1    - -> CardInTableu      : move \n tableu to \n tableu
CardInFoundation - -> CardInTableu      : move \n foundation to \n tableu
CardInFoundation - -> [*] :[ allFoundationsCompleted ]
CardInFoundation - -> CanMove         
CanMove          - -> [*]  
CanMove          - -> CardInWaste : [ canMoveCard ]     

@enduml

@startuml klondike- -instructions
skinparam BackgroundColor F9F9F9
skinparam shadowing false
skinparam RoundCorner 7
skinparam ArrowColor 191919
skinparam FontColor 191919
skinparam SequenceLifeLineBorderColor 393939
skinparam SequenceGroupHeaderFontColor 191919
skinparam SequenceGroupFontColor 393939
skinparam SequenceGroupBorderColor 393939
skinparam SequenceGroupBorderThickness 1

skinparam sequenceDivider {
    BorderColor 191919
    BorderThickness 1
    FontColor 191919
}

skinparam participant {
    BackgroundColor E55756
    BorderColor 191919
    FontColor F9F9F9
    BorderThickness 1.5
}

skinparam database {
    BackgroundColor A4DBD8
    BorderColor 191919
    FontColor 191919
}

skinparam entity {
    BackgroundColor EFBABC
    BorderColor 191919
    FontColor 191919
}

skinparam note {
    BackgroundColor e5e5e5
    BorderColor 191919
    FontColor 191919
    BorderThickness 1.5
}

skinparam actor {
    BackgroundColor 191919
    BorderColor 191919
    FontColor 191919
}

skinparam boundary {
    BackgroundColor EFBABC
    BorderColor 191919
    FontColor 191919
}

skinparam control {
    BackgroundColor EFBABC
    BorderColor 191919
    FontColor 191919
}

skinparam collections {
    BackgroundColor E55756
    BorderColor 191919
    FontColor 191919
    BorderThickness 1.5
}

skinparam queue {
    BackgroundColor E55756
    BorderColor 191919
    FontColor FFF
    BorderThickness 1.5
}

title Klondike Instructions \n

state CardInStock as " "
state CardInWaste as " "
state CardInTableu as " "
state CardInTableu1 as " "
state CardInFoundation as " "
state StockReseted as " "
state CanMove <<choice>>


[*]              - -> CardInStock
CardInStock      - -> CardInWaste       : move \n from stock \n to waste
CardInWaste      - -> StockReseted : [ isStock \n Empty ]
StockReseted     - -> CardInStock : reset stock
CardInWaste      - -> CardInTableu      : move \n waste to \n tableu
CardInWaste      - -> CardInFoundation  : move \n waste to \n foundation
CardInTableu     - -> CardInFoundation  : move \n tableu to \n foundation
CardInTableu     - -> CardInTableu1     : raise card \n from tableu
CardInTableu1    - -> CardInTableu      : move \n tableu to \n tableu
CardInFoundation - -> CardInTableu      : move \n foundation to \n tableu
CardInFoundation - -> [*] :[ allFoundationsCompleted ]
CardInFoundation - -> CanMove         
CanMove          - -> [*]  
CanMove          - -> CardInWaste : [ canMoveCard ]     

@enduml

PlantUML version 1.2022.0(Tue Jan 11 17:16:42 CET 2022)
(GPL source distribution)
Java Runtime: Java(TM) SE Runtime Environment
JVM: Java HotSpot(TM) 64-Bit Server VM
Default Encoding: Cp1252
Language: es
Country: ES
--></g></svg>