<?xml version="1.0" encoding="UTF-8" standalone="no"?><svg xmlns="http://www.w3.org/2000/svg" xmlns:xlink="http://www.w3.org/1999/xlink" contentScriptType="application/ecmascript" contentStyleType="text/css" height="918px" preserveAspectRatio="none" style="width:1032px;height:918px;background:#F9F9F9;" version="1.1" viewBox="0 0 1032 918" width="1032px" zoomAndPan="magnify"><defs/><g><text fill="#000000" font-family="sans-serif" font-size="18" lengthAdjust="spacing" textLength="165" x="427" y="18.6855">Klondike Instructions</text><g id="ShuffledDeck"><polygon fill="#FEFECE" points="515.5,126.6406,515.5,126.8508,525.375,126.2263,535.25,126.8339,545.125,127.0403,555,125.9272,564.875,126.5629,574.75,126.2141,584.625,126.2571,594.5,126.6406,594.4913,126.6196,596.1796,127.1599,598.1062,128.2756,599.7229,128.6432,601.5458,129.5087,603.3388,130.3018,603.4719,130.3569,604.0447,132.0586,604.8243,133.846,605.5257,135.601,606.3227,137.3956,607,139.1406,607.0797,139.1406,607.1952,144.1406,607.2237,149.1406,607.2264,154.1406,607.0849,159.1406,607,164.1406,607.1428,164.1998,606.484,165.998,605.3134,167.5842,605.0123,169.5305,603.9798,171.1739,603.3388,172.9795,603.4069,173.1439,601.5079,173.5592,599.7946,174.4228,598.1301,175.4045,596.2616,175.8934,594.5,176.6406,594.5,176.7459,584.625,176.9793,574.75,177.0569,564.875,176.6367,555,176.9278,545.125,176.0682,535.25,176.925,525.375,177.1888,515.5,176.6406,515.5567,176.7775,513.8104,176.0972,511.9028,175.0274,510.1135,174.2431,508.3497,173.5203,506.6612,172.9795,506.643,172.9719,505.8684,171.1866,505.4065,169.5308,504.4107,167.6539,503.6266,165.8646,503,164.1406,503.0761,164.1406,502.7777,159.1406,502.827,154.1406,503.2163,149.1406,503.1452,144.1406,503,139.1406,503.2262,139.2343,503.6331,137.3318,504.5628,135.6458,505.3785,133.9126,505.7835,132.0093,506.6612,130.3018,506.6489,130.2723,508.445,129.6084,510.2798,129.038,511.9639,128.1038,513.7912,127.5153,515.5,126.6406" style="stroke:#A80036;stroke-width:1.5;"/><path d="M503,154.25 L503,154.5302 L513.4,153.6976 L523.8,154.5077 L534.2,154.7829 L544.6,153.2988 L555,154.1464 L565.4,153.6813 L575.8,153.7387 L586.2,154.1591 L596.6,153.3282 L607,154.25 " fill="#FEFECE" style="stroke:#A80036;stroke-width:1.5;"/><text fill="#000000" font-family="sans-serif" font-size="14" lengthAdjust="spacing" textLength="84" x="513" y="146.1738">ShuffledDeck</text></g><g id="GamePrepared"><polygon fill="#FEFECE" points="460,254.6406,460,254.8508,470,254.2263,480,254.8339,490,255.0403,500,253.9272,510,254.5629,520,254.2141,530,254.2571,540,254.5725,550,253.9493,560,255.1943,570,254.0103,580,254.4429,590,255.0726,600,254.5548,610,254.7089,620,254.6087,630,254.8192,640,254.8798,650,254.6406,650.0747,254.821,651.8534,255.5795,653.6222,256.3143,655.3358,256.9157,657.1302,257.7123,658.8388,258.3018,659.0551,258.3914,659.349,259.9776,660.5123,261.9239,660.9442,263.5673,661.9322,265.441,662.5,267.1406,662.335,267.1406,662.4772,275.7,662.7472,284.2594,662.4838,292.8188,662.5351,301.3781,662.5,309.9375,662.6043,309.9807,661.8959,311.7584,661.0343,313.4725,660.3918,315.2774,659.3948,316.9355,658.8388,318.7763,658.8751,318.8639,657.141,319.6774,655.36,320.3777,653.6137,321.1618,651.7061,321.5565,650,322.4375,650,321.7853,640,321.8161,630,322.3786,620,322.241,610,323.1189,600,322.2628,590,322.0944,580,322.6658,570,321.7707,560,321.9184,550,323.0865,540,322.8732,530,323.172,520,322.1157,510,322.7567,500,323.0279,490,321.9651,480,322.3416,470,322.5635,460,322.4375,460.0831,322.6382,458.2317,321.704,456.5235,321.1155,454.6261,320.0703,452.8425,319.3,451.1612,318.7763,451.3163,318.8406,450.2081,316.9171,449.8534,315.3057,449.0281,313.4994,448.1497,311.6711,447.5,309.9375,447.3821,309.9375,447.6529,301.3781,447.4002,292.8188,447.6973,284.2594,447.3158,275.7,447.5,267.1406,447.6901,267.2194,448.3814,265.4346,449.0399,263.6363,449.7112,261.8433,450.6527,260.1622,451.1612,258.3018,451.2394,258.4907,452.9505,257.6217,454.7309,256.9199,456.4478,256.065,458.3236,255.5935,460,254.6406" style="stroke:#A80036;stroke-width:1.5;"/><path d="M447.5,282.25 L447.5,282.5302 L457.2727,281.6976 L467.0455,282.5077 L476.8182,282.7829 L486.5909,281.2988 L496.3636,282.1464 L506.1364,281.6813 L515.9091,281.7387 L525.6818,282.1591 L535.4545,281.3282 L545.2273,282.9882 L555,281.4096 L564.7727,281.9863 L574.5455,282.8259 L584.3182,282.1356 L594.0909,282.341 L603.8636,282.2074 L613.6364,282.488 L623.4091,282.5688 L633.1818,283.0309 L642.9545,283.1447 L652.7273,283.1557 L662.5,282.25 " fill="#FEFECE" style="stroke:#A80036;stroke-width:1.5;"/><text fill="#000000" font-family="sans-serif" font-size="14" lengthAdjust="spacing" textLength="97" x="506.5" y="274.1738">GamePrepared</text><text fill="#000000" font-family="sans-serif" font-size="12" lengthAdjust="spacing" textLength="134" x="452.5" y="299.707">7 tableau piles prepared</text><text fill="#000000" font-family="sans-serif" font-size="12" lengthAdjust="spacing" textLength="192" x="455.5" y="314.8008">rest of cards facedown in stock pile</text></g><polygon fill="#FEFECE" points="555,400.6406,555.0495,400.6902,557.3023,402.943,559.8456,405.4862,562.2942,407.9348,564.4319,410.0725,567,412.6406,566.9817,412.6223,564.4995,414.9401,562.1096,417.3502,559.7839,419.8246,557.237,422.0777,555,424.6406,555.1305,424.7711,552.4514,422.0921,550.1534,419.794,547.9018,417.5424,545.3798,415.0204,543,412.6406,543.0161,412.6567,545.3925,410.2331,547.8421,407.8827,550.2564,405.497,552.738,403.1787,555,400.6406" style="stroke:#A80036;stroke-width:1.5;"/><polygon fill="#FEFECE" points="239,646.6406,239.0495,646.6902,241.3023,648.943,243.8456,651.4862,246.2942,653.9348,248.4319,656.0725,251,658.6406,250.9817,658.6223,248.4995,660.9401,246.1096,663.3502,243.7839,665.8246,241.237,668.0777,239,670.6406,239.1305,670.7711,236.4514,668.0921,234.1534,665.794,231.9018,663.5424,229.3798,661.0204,227,658.6406,227.0161,658.6567,229.3925,656.2331,231.8421,653.8827,234.2564,651.497,236.738,649.1787,239,646.6406" style="stroke:#A80036;stroke-width:1.5;"/><polygon fill="#FEFECE" points="684,646.6406,684.0495,646.6902,686.3023,648.943,688.8456,651.4862,691.2942,653.9348,693.4319,656.0725,696,658.6406,695.9817,658.6223,693.4995,660.9401,691.1096,663.3502,688.7839,665.8246,686.237,668.0777,684,670.6406,684.1305,670.7711,681.4514,668.0921,679.1534,665.794,676.9018,663.5424,674.3798,661.0204,672,658.6406,672.0161,658.6567,674.3925,656.2331,676.8421,653.8827,679.2564,651.497,681.738,649.1787,684,646.6406" style="stroke:#A80036;stroke-width:1.5;"/><g id="CardMovedToFoundation"><polygon fill="#FEFECE" points="19.5,518.6406,19.5,518.8508,29.3125,518.2263,39.125,518.8339,48.9375,519.0403,58.75,517.9272,68.5625,518.5629,78.375,518.2141,88.1875,518.2571,98,518.5725,107.8125,517.9493,117.625,519.1943,127.4375,518.0103,137.25,518.4429,147.0625,519.0726,156.875,518.5548,166.6875,518.7089,176.5,518.6406,176.4959,518.6308,178.2905,519.4278,180.066,520.1787,181.878,521.0177,183.6567,521.7762,185.3388,522.3018,185.548,522.3884,186.1495,524.102,186.9461,525.8965,187.7518,527.6947,188.0457,529.2809,189,531.1406,189.2262,531.1406,188.9012,536.1406,189.1779,541.1406,188.835,546.1406,188.9772,551.1406,189,556.1406,189.2284,556.2352,188.2528,557.9022,187.568,559.6896,186.9076,561.4871,186.1993,563.2648,185.3388,564.9795,185.3383,564.9783,183.6077,565.8001,181.7303,566.2676,180.0718,567.2637,178.3377,568.0772,176.5,568.6406,176.5,569.0852,166.6875,569.2536,156.875,568.1575,147.0625,567.9884,137.25,568.0192,127.4375,568.5817,117.625,568.4441,107.8125,569.322,98,568.4659,88.1875,568.2976,78.375,568.8689,68.5625,567.9738,58.75,568.1215,48.9375,569.2896,39.125,569.0763,29.3125,569.3751,19.5,568.6406,19.459,568.5415,17.773,568.0067,16.0398,567.358,14.1364,566.2984,12.4167,565.6822,10.6612,564.9795,10.7,564.9955,10.1296,563.2948,9.1954,561.4434,8.6069,559.7352,7.5617,557.8378,7,556.1406,6.7742,556.1406,7.1679,551.1406,6.761,546.1406,7.1697,541.1406,7.0689,536.1406,7,531.1406,6.9175,531.1064,7.6233,529.3277,8.6057,527.6636,9.1045,525.7991,10.1112,524.1451,10.6612,522.3018,10.5907,522.1316,12.5077,521.7597,14.2585,520.9865,15.9957,520.1805,17.7383,519.3874,19.5,518.6406" style="stroke:#A80036;stroke-width:1.5;"/><path d="M7,546.25 L7,546.5302 L17.1111,545.6976 L27.2222,546.5077 L37.3333,546.7829 L47.4444,545.2988 L57.5556,546.1464 L67.6667,545.6813 L77.7778,545.7387 L87.8889,546.1591 L98,545.3282 L108.1111,546.9882 L118.2222,545.4096 L128.3333,545.9863 L138.4444,546.8259 L148.5556,546.1356 L158.6667,546.341 L168.7778,546.2074 L178.8889,546.488 L189,546.25 " fill="#FEFECE" style="stroke:#A80036;stroke-width:1.5;"/><text fill="#000000" font-family="sans-serif" font-size="14" lengthAdjust="spacing" textLength="162" x="17" y="538.1738">CardMovedToFoundation</text></g><g id="CardMovedToTableau"><polygon fill="#FEFECE" points="875.5,518.6406,875.5,518.8508,885.2857,518.2263,895.0714,518.8339,904.8571,519.0403,914.6429,517.9272,924.4286,518.5629,934.2143,518.2141,944,518.2571,953.7857,518.5725,963.5714,517.9493,973.3571,519.1943,983.1429,518.0103,992.9286,518.4429,1002.7143,519.0726,1012.5,518.6406,1012.4891,518.6142,1014.2765,519.3939,1016.0315,520.0953,1017.8261,520.8923,1019.6016,521.6432,1021.3388,522.3018,1021.5192,522.3765,1022.2777,524.1552,1023.0125,525.924,1023.6139,527.6376,1024.4105,529.432,1025,531.1406,1025.2341,531.1406,1024.7596,536.1406,1025.2262,541.1406,1024.9012,546.1406,1025.1779,551.1406,1025,556.1406,1024.8476,556.0775,1024.2467,557.8997,1023.7639,559.7708,1022.7883,561.4377,1022.1035,563.2251,1021.3388,564.9795,1021.382,565.0837,1019.6242,565.8399,1017.8028,566.4427,1016.0722,567.2646,1014.1947,567.7321,1012.5,568.6406,1012.5,568.925,1002.7143,569.1888,992.9286,569.0852,983.1429,569.2536,973.3571,568.1575,963.5714,567.9884,953.7857,568.0192,944,568.5817,934.2143,568.4441,924.4286,569.322,914.6429,568.4659,904.8571,568.2976,895.0714,568.8689,885.2857,567.9738,875.5,568.6406,875.4338,568.4808,873.815,568.1082,872.02,567.3103,870.2904,566.6701,868.3879,565.6126,866.6612,564.9795,866.7595,565.0202,866.1108,563.287,865.0512,561.3837,864.4349,559.6639,863.771,557.9245,863,556.1406,863.2173,556.1406,862.9986,551.1406,863.1542,546.1406,862.8154,541.1406,862.7742,536.1406,863,531.1406,863.1551,531.2049,863.5114,529.2814,864.6212,527.67,865.2603,525.8637,865.8464,524.0354,866.6612,522.3018,866.616,522.1928,868.4875,521.7108,870.1585,520.7451,872.04,520.2874,873.6617,519.2026,875.5,518.6406" style="stroke:#A80036;stroke-width:1.5;"/><path d="M863,546.25 L863,546.5302 L873.125,545.6976 L883.25,546.5077 L893.375,546.7829 L903.5,545.2988 L913.625,546.1464 L923.75,545.6813 L933.875,545.7387 L944,546.1591 L954.125,545.3282 L964.25,546.9882 L974.375,545.4096 L984.5,545.9863 L994.625,546.8259 L1004.75,546.1356 L1014.875,546.341 L1025,546.25 " fill="#FEFECE" style="stroke:#A80036;stroke-width:1.5;"/><text fill="#000000" font-family="sans-serif" font-size="14" lengthAdjust="spacing" textLength="142" x="873" y="538.1738">CardMovedToTableau</text></g><g id="CardRaisedToWaste"><polygon fill="#FEFECE" points="403.5,518.6406,403.5,518.8508,413.2692,518.2263,423.0385,518.8339,432.8077,519.0403,442.5769,517.9272,452.3462,518.5629,462.1154,518.2141,471.8846,518.2571,481.6538,518.5725,491.4231,517.9493,501.1923,519.1943,510.9615,518.0103,520.7308,518.4429,530.5,518.6406,530.5551,518.7736,532.2568,519.3464,534.0442,520.1261,535.7992,520.8275,537.5938,521.6245,539.3388,522.3018,539.4125,522.3323,540.2514,524.1443,541.01,525.9229,541.7447,527.6917,542.3462,529.4053,543,531.1406,543.1545,531.1406,543.2341,536.1406,542.7596,541.1406,543.2262,546.1406,542.9012,551.1406,543,556.1406,543.1644,556.2087,542.1153,557.8452,541.5144,559.6674,541.0317,561.5385,540.0561,563.2055,539.3388,564.9795,539.3523,565.0119,537.6143,565.816,535.8564,566.5721,534.035,567.175,532.3044,567.9968,530.5,568.6406,530.5,568.0682,520.7308,568.925,510.9615,569.1888,501.1923,569.0852,491.4231,569.2536,481.6538,568.1575,471.8846,567.9884,462.1154,568.0192,452.3462,568.5817,442.5769,568.4441,432.8077,569.322,423.0385,568.4659,413.2692,568.2976,403.5,568.6406,403.5291,568.7109,401.6472,567.703,399.8982,567.0163,398.2795,566.6438,396.4845,565.8459,394.6612,564.9795,394.8874,565.0732,393.8298,563.1706,393.295,561.4846,392.6463,559.7515,391.5868,557.8481,391,556.1406,390.968,556.1406,391.042,551.1406,391.2173,546.1406,390.9986,541.1406,391.1542,536.1406,391,531.1406,390.8295,531.07,391.5237,529.2865,392.6196,527.6693,392.9759,525.7459,394.0857,524.1345,394.6612,522.3018,394.6875,522.3654,396.3948,521.487,398.1516,520.7284,400.023,520.2464,401.694,519.2807,403.5,518.6406" style="stroke:#A80036;stroke-width:1.5;"/><path d="M391,546.25 L391,546.5302 L401.1333,545.6976 L411.2667,546.5077 L421.4,546.7829 L431.5333,545.2988 L441.6667,546.1464 L451.8,545.6813 L461.9333,545.7387 L472.0667,546.1591 L482.2,545.3282 L492.3333,546.9882 L502.4667,545.4096 L512.6,545.9863 L522.7333,546.8259 L532.8667,546.1356 L543,546.25 " fill="#FEFECE" style="stroke:#A80036;stroke-width:1.5;"/><text fill="#000000" font-family="sans-serif" font-size="14" lengthAdjust="spacing" textLength="132" x="401" y="538.1738">CardRaisedToWaste</text></g><g id="CardRaisedInTableau"><polygon fill="#FEFECE" points="558.5,764.6406,558.5,764.8508,568.7308,764.2263,578.9615,764.8339,589.1923,765.0403,599.4231,763.9272,609.6538,764.5629,619.8846,764.2141,630.1154,764.2571,640.3462,764.5725,650.5769,763.9493,660.8077,765.1943,671.0385,764.0103,681.2692,764.4429,691.5,764.6406,691.5551,764.7736,693.2568,765.3464,695.0442,766.1261,696.7992,766.8275,698.5938,767.6245,700.3388,768.3018,700.4125,768.3323,701.2514,770.1443,702.01,771.9229,702.7447,773.6917,703.3462,775.4053,704,777.1406,704.1545,777.1406,704.2341,782.1406,703.7596,787.1406,704.2262,792.1406,703.9012,797.1406,704,802.1406,704.1644,802.2087,703.1153,803.8452,702.5144,805.6674,702.0317,807.5385,701.0561,809.2055,700.3388,810.9795,700.3523,811.0119,698.6143,811.816,696.8564,812.5721,695.035,813.175,693.3044,813.9968,691.5,814.6406,691.5,814.0682,681.2692,814.925,671.0385,815.1888,660.8077,815.0852,650.5769,815.2536,640.3462,814.1575,630.1154,813.9884,619.8846,814.0192,609.6538,814.5817,599.4231,814.4441,589.1923,815.322,578.9615,814.4659,568.7308,814.2976,558.5,814.6406,558.5291,814.7109,556.6472,813.703,554.8982,813.0163,553.2795,812.6438,551.4845,811.8459,549.6612,810.9795,549.8874,811.0732,548.8298,809.1706,548.295,807.4846,547.6463,805.7515,546.5868,803.8481,546,802.1406,545.968,802.1406,546.042,797.1406,546.2173,792.1406,545.9986,787.1406,546.1542,782.1406,546,777.1406,545.8295,777.07,546.5237,775.2865,547.6196,773.6693,547.9759,771.7459,549.0857,770.1345,549.6612,768.3018,549.6875,768.3654,551.3948,767.487,553.1516,766.7284,555.023,766.2464,556.694,765.2807,558.5,764.6406" style="stroke:#A80036;stroke-width:1.5;"/><path d="M546,792.25 L546,792.5302 L555.875,791.6976 L565.75,792.5077 L575.625,792.7829 L585.5,791.2988 L595.375,792.1464 L605.25,791.6813 L615.125,791.7387 L625,792.1591 L634.875,791.3282 L644.75,792.9882 L654.625,791.4096 L664.5,791.9863 L674.375,792.8259 L684.25,792.1356 L694.125,792.341 L704,792.25 " fill="#FEFECE" style="stroke:#A80036;stroke-width:1.5;"/><text fill="#000000" font-family="sans-serif" font-size="14" lengthAdjust="spacing" textLength="138" x="556" y="784.1738">CardRaisedInTableau</text></g><g id="FoundationComplete"><polygon fill="#FEFECE" points="175.5,764.6406,175.5,764.8508,185.2692,764.2263,195.0385,764.8339,204.8077,765.0403,214.5769,763.9272,224.3462,764.5629,234.1154,764.2141,243.8846,764.2571,253.6538,764.5725,263.4231,763.9493,273.1923,765.1943,282.9615,764.0103,292.7308,764.4429,302.5,764.6406,302.5551,764.7736,304.2568,765.3464,306.0442,766.1261,307.7992,766.8275,309.5938,767.6245,311.3388,768.3018,311.4125,768.3323,312.2514,770.1443,313.01,771.9229,313.7447,773.6917,314.3462,775.4053,315,777.1406,315.1545,777.1406,315.2341,782.1406,314.7596,787.1406,315.2262,792.1406,314.9012,797.1406,315,802.1406,315.1644,802.2087,314.1153,803.8452,313.5144,805.6674,313.0317,807.5385,312.0561,809.2055,311.3388,810.9795,311.3523,811.0119,309.6143,811.816,307.8564,812.5721,306.035,813.175,304.3044,813.9968,302.5,814.6406,302.5,814.0682,292.7308,814.925,282.9615,815.1888,273.1923,815.0852,263.4231,815.2536,253.6538,814.1575,243.8846,813.9884,234.1154,814.0192,224.3462,814.5817,214.5769,814.4441,204.8077,815.322,195.0385,814.4659,185.2692,814.2976,175.5,814.6406,175.5291,814.7109,173.6472,813.703,171.8982,813.0163,170.2795,812.6438,168.4845,811.8459,166.6612,810.9795,166.8874,811.0732,165.8298,809.1706,165.295,807.4846,164.6463,805.7515,163.5868,803.8481,163,802.1406,162.968,802.1406,163.042,797.1406,163.2173,792.1406,162.9986,787.1406,163.1542,782.1406,163,777.1406,162.8295,777.07,163.5237,775.2865,164.6196,773.6693,164.9759,771.7459,166.0857,770.1345,166.6612,768.3018,166.6875,768.3654,168.3948,767.487,170.1516,766.7284,172.023,766.2464,173.694,765.2807,175.5,764.6406" style="stroke:#A80036;stroke-width:1.5;"/><path d="M163,792.25 L163,792.5302 L173.1333,791.6976 L183.2667,792.5077 L193.4,792.7829 L203.5333,791.2988 L213.6667,792.1464 L223.8,791.6813 L233.9333,791.7387 L244.0667,792.1591 L254.2,791.3282 L264.3333,792.9882 L274.4667,791.4096 L284.6,791.9863 L294.7333,792.8259 L304.8667,792.1356 L315,792.25 " fill="#FEFECE" style="stroke:#A80036;stroke-width:1.5;"/><text fill="#000000" font-family="sans-serif" font-size="14" lengthAdjust="spacing" textLength="132" x="173" y="784.1738">FoundationComplete</text></g><polygon fill="#000000" points="565.0552,41.073,563.5894,43.0759,561.8556,46.0094,559.376,47.9864,556.7703,49.0675,554.6927,49.1614,552.0224,47.8093,549.5029,46.926,547.5905,45.1326,546.5873,43.0795,545.9924,41.4447,545.4096,39.3094,544.4636,37.472,545.1906,35.6779,545.8275,33.7126,548.2175,32.1583,549.8991,30.1416,551.9804,29.4719,554.4547,28.8952,557.6276,29.2379,559.3655,30.0575,561.3861,30.429,563.8429,32.9461,564.6993,35.6033,565.0714,37.4164,564.65,40.4041" style="stroke:none;stroke-width:1.0;"/><polygon fill="none" points="249.0552,905.073,247.5894,907.0759,245.8556,910.0094,243.376,911.9864,240.7703,913.0675,238.6927,913.1614,236.0224,911.8093,233.5029,910.926,231.5905,909.1326,230.5873,907.0795,229.9924,905.4447,229.4096,903.3094,228.4636,901.472,229.1906,899.6779,229.8275,897.7126,232.2175,896.1583,233.8991,894.1416,235.9804,893.4719,238.4547,892.8952,241.6276,893.2379,243.3655,894.0575,245.3861,894.429,247.8429,896.9461,248.6993,899.6033,249.0714,901.4164,248.65,904.4041" style="stroke:#000000;stroke-width:1.0;"/><polygon fill="#000000" points="245.5331,904.6001,244.6536,905.8018,243.6134,907.5619,242.1256,908.7481,240.5622,909.3968,239.3156,909.4531,237.7135,908.6418,236.2017,908.1119,235.0543,907.0358,234.4524,905.804,234.0955,904.8231,233.7458,903.5419,233.1782,902.4394,233.6143,901.363,233.9965,900.1838,235.4305,899.2512,236.4394,898.0412,237.6882,897.6394,239.1728,897.2934,241.0766,897.499,242.1193,897.9907,243.3317,898.2136,244.8057,899.7239,245.3196,901.3182,245.5429,902.4061,245.29,904.1987" style="stroke:none;stroke-width:1.0;"/><!--MD5=[f150acadbc38b3a392eaaf0ba0811bbb]
link *start to ShuffledDeck--><path d="M555,48.7206 L555.2802,48.7206 L554.4476,59.0863 L555.2577,69.4521 L555.5329,79.8178 L554.0488,90.1835 L554.8964,100.5492 L554.4313,110.9149 L555,121.2806 " fill="none" style="stroke:#191919;stroke-width:1.0;"/><polygon fill="#191919" points="555,126.2906,555.064,126.3191,555.6738,124.4345,556.6589,122.7168,557.5217,120.9447,557.9827,118.994,559,117.2906,558.9817,117.2723,558.0995,117.9901,557.3096,118.8002,556.5839,119.6746,555.637,120.3277,555,121.2906,555.1305,121.4211,554.0514,120.3421,553.3534,119.644,552.7018,118.9924,551.7798,118.0704,551,117.2906,551.0208,117.2999,551.7903,119.0863,552.6544,120.9148,553.4728,122.723,554.3784,124.5699,555,126.2906" style="stroke:#191919;stroke-width:1.0;"/><text fill="#000000" font-family="sans-serif" font-size="13" lengthAdjust="spacing" textLength="37" x="556" y="93.1357">shuffle</text><!--MD5=[b1e7b30094c064bae23eed7e8de67d68]
link ShuffledDeck to GamePrepared--><path d="M555,176.7806 L555.2802,176.7806 L554.4476,187.1549 L555.2577,197.5292 L555.5329,207.9035 L554.0488,218.2778 L554.8964,228.6521 L554.4313,239.0263 L555,249.4006 " fill="none" style="stroke:#191919;stroke-width:1.0;"/><polygon fill="#191919" points="555,254.5906,555.064,254.6191,555.6738,252.7345,556.6589,251.0168,557.5217,249.2447,557.9827,247.294,559,245.5906,558.9817,245.5723,558.0995,246.2901,557.3096,247.1002,556.5839,247.9746,555.637,248.6277,555,249.5906,555.1305,249.7211,554.0514,248.6421,553.3534,247.944,552.7018,247.2924,551.7798,246.3704,551,245.5906,551.0208,245.5999,551.7903,247.3863,552.6544,249.2148,553.4728,251.023,554.3784,252.8699,555,254.5906" style="stroke:#191919;stroke-width:1.0;"/><text fill="#000000" font-family="sans-serif" font-size="13" lengthAdjust="spacing" textLength="207" x="556" y="221.1357">put cards to tableus and stock piles</text><!--MD5=[23f4f441808d2d84b2a70ebed91d11bb]
link GamePrepared to CheckCardMovement--><path d="M555,322.6506 L555.2802,322.6506 L554.4476,332.9878 L555.2577,343.3249 L555.5329,353.6621 L554.0488,363.9992 L554.8964,374.3363 L554.4313,384.6735 L555,395.0106 " fill="none" style="stroke:#191919;stroke-width:1.0;"/><polygon fill="#191919" points="555,400.3606,555.064,400.3891,555.6738,398.5045,556.6589,396.7868,557.5217,395.0147,557.9827,393.064,559,391.3606,558.9817,391.3423,558.0995,392.0601,557.3096,392.8702,556.5839,393.7446,555.637,394.3977,555,395.3606,555.1305,395.4911,554.0514,394.4121,553.3534,393.714,552.7018,393.0624,551.7798,392.1404,551,391.3606,551.0208,391.3699,551.7903,393.1563,552.6544,394.9848,553.4728,396.793,554.3784,398.6399,555,400.3606" style="stroke:#191919;stroke-width:1.0;"/><text fill="#000000" font-family="sans-serif" font-size="13" lengthAdjust="spacing" textLength="59" x="556" y="367.1357">move card</text><!--MD5=[c73055407b5c5add70fa7f84a1682f76]
link CheckCardMovement to CardMovedToFoundation--><path d="M543.99,413.8406 L543.9922,413.934 L536.7488,413.8268 L529.5182,414.267 L522.2834,414.5289 L515.0349,414.2046 L507.8054,414.6918 L507.8023,414.5882 L496.8091,414.4612 L485.832,414.8563 L474.866,415.6144 L463.8616,415.1216 L452.9111,416.3808 L452.9203,416.6267 L446.4302,416.3443 L439.967,416.7799 L433.5071,417.3031 L427.0281,417.3166 L420.5591,417.5982 L420.5604,417.6285 L413.6594,417.8835 L406.7643,418.2764 L399.8663,418.6028 L392.9738,419.0562 L386.0634,419.0956 L386.0784,419.3935 L378.9196,419.7573 L371.7511,419.929 L364.5967,420.3819 L357.4431,420.848 L350.2684,420.8965 L350.2496,420.5765 L343.0361,421.6231 L335.7608,421.6161 L328.5325,422.4101 L321.2558,422.3792 L314.0188,423.0244 L314.0167,422.994 L306.8695,423.8489 L299.6733,423.9941 L292.5061,424.5581 L285.3413,425.1572 L278.159,425.5028 L278.1742,425.6871 L271.2338,426.0715 L264.3193,426.7709 L257.3629,426.9607 L250.4691,427.9107 L243.5337,428.3552 L243.5567,428.5977 L240.2352,428.8666 L236.9251,429.2559 L233.5619,429.0857 L230.2376,429.3257 L226.9478,429.929 L226.919,429.6543 L223.753,430.2382 L220.5545,430.5126 L217.4032,431.2359 L214.1713,431.1927 L210.9873,431.6051 L210.9696,431.4537 L207.9532,432.0622 L204.861,432.0233 L201.8227,432.4448 L198.8371,433.3167 L195.7577,433.3865 L195.7829,433.5785 L192.9216,434.0881 L189.9818,434.0005 L187.1403,434.6609 L184.2773,435.1584 L181.3645,435.2761 L181.3336,435.0684 L178.668,435.6341 L175.9923,436.1318 L173.3365,436.763 L170.6033,436.8748 L167.9134,437.2768 L167.9479,437.4795 L165.3913,437.4572 L162.9014,437.826 L160.5089,438.7663 L157.937,438.6546 L155.5099,439.3916 L155.5539,439.6135 L153.2776,439.9281 L150.9865,440.1676 L148.729,440.5765 L146.5492,441.3771 L144.2595,441.6234 L144.229,441.4939 L142.3214,442.3498 L140.2065,442.325 L138.3274,443.3016 L136.3155,443.7144 L134.2678,443.9752 L134.3012,444.0789 L131.1173,445.0102 L128.0528,446.3127 L124.8804,447.2799 L121.663,448.107 L118.483,449.0504 L118.5436,449.1531 L116.557,450.1186 L114.8515,451.5608 L112.8282,452.4638 L110.9356,453.5886 L109,454.6406 L108.7806,454.4826 L107.0301,457.068 L105.544,459.8437 L103.6838,462.35 L101.6896,464.7598 L99.8814,467.3036 L99.7458,467.2575 L98.7758,470.2524 L97.5656,473.1657 L97.0153,476.3034 L96.1385,479.3301 L94.8138,482.2044 L95.0459,482.233 L94.7319,485.3944 L93.9766,488.5015 L93.687,491.666 L93.0892,494.7924 L92.8717,497.9658 L92.9979,497.9679 L93.033,501.0166 L93.2205,504.0679 L92.9246,507.111 L93.0186,510.1606 L93.13,513.2106 " fill="none" style="stroke:#191919;stroke-width:1.0;"/><polygon fill="#191919" points="93.6,518.5306,93.6663,518.5533,94.1069,516.6222,94.9362,514.824,95.6389,512.9826,95.9254,510.9988,96.788,509.212,96.7682,509.1954,95.9529,509.9884,95.2378,510.8653,94.5924,511.8004,93.707,512.5347,93.1576,513.5502,93.2761,513.6918,92.1551,512.663,91.38,512.0475,90.6471,511.4824,89.6687,510.624,88.8194,509.9198,88.8393,509.9309,89.7662,511.6368,90.7837,513.393,91.7574,515.125,92.8146,516.9032,93.6,518.5306" style="stroke:#191919;stroke-width:1.0;"/><text fill="#000000" font-family="sans-serif" font-size="13" lengthAdjust="spacing" textLength="94" x="122" y="469.1357">[if you can move</text><text fill="#000000" font-family="sans-serif" font-size="13" lengthAdjust="spacing" textLength="118" x="114" y="485.4873">card to a foundation]</text><!--MD5=[18951e4e5c68c946544fb8d7a89e0d73]
link CheckCardMovement to CardMovedToTableau--><path d="M564.18,415.7206 L564.2015,415.8115 L569.1935,416.736 L574.3114,418.1934 L579.3883,419.4773 L584.3303,420.1904 L589.4591,421.6936 L589.4508,421.66 L592.8253,422.3463 L596.2413,423.2016 L599.6861,424.1745 L603.0316,424.7422 L606.5162,425.8774 L606.5766,426.116 L610.2747,426.5748 L614.1492,427.73 L618.0451,428.9702 L621.8159,429.716 L625.6525,430.7219 L625.6602,430.7512 L629.7621,431.7885 L633.899,432.9593 L638.0191,434.0657 L642.1714,435.2951 L646.2185,436.1237 L646.2974,436.4113 L650.5676,437.586 L654.7869,438.5751 L659.0807,439.8359 L663.378,441.1093 L667.5647,441.9795 L667.4757,441.6716 L671.9438,443.5106 L676.1189,444.3356 L680.5168,445.9315 L684.6852,446.7336 L689.0417,448.1863 L689.0327,448.1572 L693.3304,449.7921 L697.4186,450.7473 L701.6304,452.1036 L705.8526,453.4936 L710,454.6406 L710.0576,454.8164 L714.4302,456.0902 L718.9012,457.6644 L723.213,458.7526 L727.7622,460.5657 L732.1536,461.8968 L732.2324,462.1274 L736.7162,463.6219 L741.2392,465.231 L745.5804,466.3082 L750.0548,467.7752 L754.6473,469.5877 L754.5552,469.3273 L759.1463,471.1588 L763.6336,472.6969 L768.2715,474.6605 L772.6523,475.8976 L777.1859,477.5665 L777.1337,477.4233 L781.6782,479.2859 L785.9996,480.5362 L790.4796,482.222 L795.1149,484.3338 L799.4738,485.6869 L799.5415,485.8683 L803.9363,487.6157 L808.1204,488.799 L812.5684,490.6889 L816.9589,492.4249 L821.2155,493.8021 L821.1408,493.6059 L825.3804,495.3549 L829.5956,497.0397 L833.8588,498.8508 L837.9351,500.171 L842.1158,501.7655 L842.1906,501.957 L849.645,504.5133 L857.2439,507.4392 L865.0538,510.905 L872.4752,513.3768 L880.21,516.6506 " fill="none" style="stroke:#191919;stroke-width:1.0;"/><polygon fill="#191919" points="884.95,518.5406,885.0001,518.5896,883.4734,517.0364,882.2403,515.7704,880.9115,514.4109,879.2685,512.7438,878.0606,511.5025,878.0368,511.4922,878.3785,512.4848,878.8401,513.5292,879.385,514.6096,879.6427,515.566,880.3027,516.696,880.3758,516.8654,879.1807,516.9515,878.1992,517.5323,877.2437,518.1735,876.1365,518.4635,875.1092,518.9381,875.1101,518.9609,877.0769,518.848,879.0479,518.8386,881.0169,518.7793,882.9897,518.8152,884.95,518.5406" style="stroke:#191919;stroke-width:1.0;"/><text fill="#000000" font-family="sans-serif" font-size="13" lengthAdjust="spacing" textLength="122" x="808" y="469.1357">[else if you can move</text><text fill="#000000" font-family="sans-serif" font-size="13" lengthAdjust="spacing" textLength="101" x="822.5" y="485.4873">card to a tableau]</text><!--MD5=[a99a1c1e8a0f168faf733a2f495dedb0]
link CheckCardMovement to CardRaisedToWaste--><path d="M544.43,414.2906 L544.4371,414.3838 L541.0235,414.3667 L537.6517,414.8956 L534.2663,415.2467 L530.8361,415.013 L527.4678,415.5888 L527.4646,415.5544 L522.9502,415.826 L518.4522,416.2709 L513.9656,416.8362 L509.4397,416.9864 L504.9689,417.7181 L504.9962,417.9627 L502.4014,417.7225 L499.8862,418.1962 L497.3808,418.7571 L494.8188,418.8112 L492.2866,419.1318 L492.2903,419.1619 L489.6259,419.451 L486.9786,419.877 L484.3231,420.237 L481.6834,420.7231 L478.9921,420.798 L479.0339,421.0933 L476.3046,421.4837 L473.5483,421.6836 L470.8315,422.1623 L468.1165,422.6541 L465.3429,422.7318 L465.2919,422.4154 L462.6415,423.4728 L459.8232,423.4883 L457.1327,424.2958 L454.3106,424.2877 L451.5963,424.9481 L451.5907,424.9182 L448.9389,425.775 L446.1576,425.9323 L443.4528,426.5024 L440.7543,427.1071 L438.0096,427.4618 L438.0484,427.6427 L435.3754,428.0253 L432.7686,428.7171 L430.0546,428.9087 L427.5006,429.8463 L424.8403,430.2879 L424.8999,430.5241 L422.3897,431.1101 L419.9091,431.8134 L417.2909,431.9717 L414.7736,432.5295 L412.3456,433.4413 L412.2657,433.1769 L410.0255,434.1153 L407.6953,434.7559 L405.4957,435.8285 L403.073,436.1634 L400.783,436.9369 L400.7299,436.7939 L398.7436,437.8025 L396.5305,438.2002 L394.4787,439.0323 L392.5848,440.2895 L390.4097,440.7897 L390.4926,440.9647 L388.7641,441.9297 L386.778,442.3504 L385.1145,443.4529 L383.3808,444.4068 L381.4833,445.0146 L381.3551,444.8483 L378.9606,446.9061 L376.5241,448.9094 L374.1702,451.0196 L371.4955,452.7139 L369,454.6406 L369.1916,454.7152 L367.4836,457.8591 L366.1455,461.147 L365.3476,464.645 L363.555,467.7561 L362.565,471.1794 L362.7773,471.2576 L363.9382,474.7034 L365.0273,478.1227 L366.2785,481.6018 L367.9043,485.2189 L369,488.6406 L368.8956,488.5581 L371.5748,491.799 L373.5443,494.4787 L376.3207,497.7966 L378.6428,500.7551 L380.8425,503.6169 L380.9108,503.7016 L383.8572,506.054 L387.0482,508.7097 L390.0182,511.0914 L392.8957,513.3584 L395.85,515.7206 " fill="none" style="stroke:#191919;stroke-width:1.0;"/><polygon fill="#191919" points="400.17,518.4906,400.2285,518.5292,398.9706,516.77,398.0557,515.2368,397.0291,513.63,395.6352,511.7812,394.7497,510.2674,394.7244,510.2619,394.8529,511.3422,395.1089,512.4505,395.4537,513.5781,395.4928,514.6389,395.9599,515.7933,395.9994,515.9736,394.8098,515.8301,393.7355,516.213,392.6752,516.6601,391.5331,516.7336,390.4341,517.0035,390.4375,517.026,392.3796,517.2904,394.3374,517.6572,396.2877,517.9746,398.2523,518.3862,400.17,518.4906" style="stroke:#191919;stroke-width:1.0;"/><text fill="#000000" font-family="sans-serif" font-size="13" lengthAdjust="spacing" textLength="154" x="370" y="469.1357">[else raise card from stock</text><text fill="#000000" font-family="sans-serif" font-size="13" lengthAdjust="spacing" textLength="112" x="395" y="485.4873">and move to waste]</text><!--MD5=[8706ded2baed43123e4119dfb5c8eb8a]
link CardRaisedToWaste to CheckCardMovement--><path d="M504.29,518.5306 L504.35,518.6022 L505.7475,517.0684 L507.4969,515.9543 L509.1317,514.7036 L510.3897,513.0034 L512.1692,511.9253 L512.1454,511.9003 L513.5612,510.3434 L515.0967,508.9128 L516.7156,507.57 L518.0474,505.9247 L519.7813,504.7031 L519.9637,504.8683 L520.9824,502.9589 L522.5337,501.5318 L524.1499,500.1634 L525.3881,498.4528 L526.8252,496.9222 L526.8495,496.9403 L528.0487,495.2574 L529.3587,493.657 L530.6153,492.0168 L531.9737,490.4525 L533,488.6406 L533.2629,488.7815 L534.8653,485.7985 L536.2982,482.7248 L537.9793,479.784 L539.672,476.8494 L540.9961,473.7173 L540.6949,473.6077 L542.4435,470.6219 L543.2003,467.2751 L544.7111,464.2027 L545.4455,460.8477 L546.8163,457.7244 L546.7868,457.7168 L547.9309,454.7017 L548.3861,451.5101 L549.2478,448.4226 L550.1437,445.3439 L550.7933,442.202 L550.9753,442.2353 L551.2849,439.4994 L551.9055,436.8204 L552.023,434.0495 L552.891,431.4156 L553.26,428.6906 " fill="none" style="stroke:#191919;stroke-width:1.0;"/><polygon fill="#191919" points="553.97,423.6606,554.0294,423.6978,552.8084,425.2574,551.9356,427.0349,550.9495,428.7414,549.5904,430.2147,548.7475,432.0108,548.732,431.9901,549.5664,431.2173,550.4793,430.5488,551.4467,429.9529,552.2261,429.107,553.2689,428.6112,553.4164,428.7221,553.7809,429.3892,554.5761,430.3802,555.4237,431.4106,555.9657,432.2111,556.6685,433.1326,556.6904,433.1388,556.1186,431.2353,555.6463,429.3601,555.1261,427.4712,554.6975,425.6085,553.97,423.6606" style="stroke:#191919;stroke-width:1.0;"/><!--MD5=[d9a0000399abdcc01ac9b5892a6db778]
link CardMovedToFoundation to CheckFoundation--><path d="M128.25,568.8806 L128.4253,569.0993 L135.643,574.6511 L143.8881,581.4848 L151.7986,587.9011 L158.609,592.9445 L166.8775,599.8075 L174.3252,605.6461 L182.0995,611.8924 L190.1009,618.422 L197.3197,623.9751 L206.0962,631.472 L212.8475,636.4418 L220.9466,643.0933 L228.85,649.5006 " fill="none" style="stroke:#191919;stroke-width:1.0;"/><polygon fill="#191919" points="232.85,652.7106,232.9123,652.7428,231.8238,650.8969,231.1003,649.2395,230.258,647.5207,229.0248,645.6001,228.3327,643.9588,228.3069,643.956,228.3148,645.0679,228.4525,646.1941,228.6804,647.3302,228.5973,648.4322,228.9498,649.5819,228.97,649.7654,227.8023,649.4965,226.6934,649.7633,225.5917,650.0953,224.4483,650.0472,223.3268,650.1991,223.3326,650.2211,225.2287,650.6911,227.1512,651.2612,229.061,651.7831,230.9951,652.3971,232.85,652.7106" style="stroke:#191919;stroke-width:1.0;"/><!--MD5=[07661c6dd0f18a298a5f121f3b779ded]
link CardMovedToTableau to CheckRaiseCard--><path d="M888.54,568.7406 L888.6517,568.9976 L879.1922,572.2011 L870.3875,576.9113 L861.3696,581.1308 L851.6504,583.7368 L842.8606,588.4813 L833.5476,592.022 L824.4428,596.0417 L815.4828,600.3944 L806.024,603.5995 L797.5581,609.0891 L787.8012,611.6085 L778.9035,616.1045 L770.1105,620.8417 L760.7077,624.1757 L751.662,628.3312 L742.4811,632.1758 L733.4654,636.4004 L724.37,640.4416 L715.4265,644.8325 L706.3443,648.9041 L696.86,652.0506 " fill="none" style="stroke:#191919;stroke-width:1.0;"/><polygon fill="#191919" points="691.88,654.2106,691.8805,654.2807,693.8488,654.0862,695.8199,654.3025,697.7901,654.385,699.7572,654.0277,701.7286,654.2792,701.7192,654.255,700.6236,653.7334,699.5757,653.3332,698.561,653.0176,697.432,652.4107,696.4631,652.2118,696.6349,652.2792,696.681,651.0819,697.2287,650.0815,697.8375,649.1051,698.0904,647.9889,698.5305,646.9462,698.5472,646.9616,697.1925,648.3919,695.9142,649.8922,694.599,651.3587,693.3541,652.8896,691.88,654.2106" style="stroke:#191919;stroke-width:1.0;"/><!--MD5=[5dcc4e860c1a0e78bfe50efe76193cee]
link CheckRaiseCard to CardRaisedInTableau--><path d="M680.49,667.3206 L680.7448,667.4372 L675.7526,676.3498 L672.2544,685.9458 L668.2696,695.3193 L662.685,703.961 L659.2208,713.5725 L654.5629,722.6381 L650.38,731.9209 L646.5274,741.3548 L641.5367,750.2682 L638.14,759.9106 " fill="none" style="stroke:#191919;stroke-width:1.0;"/><polygon fill="#191919" points="636.01,764.5706,636.0564,764.6231,637.3931,763.1614,639.0021,762.0071,640.5224,760.7527,641.7511,759.1691,643.3834,758.0413,643.3744,758.017,642.2739,758.3041,641.2191,758.7135,640.1961,759.208,639.0635,759.4094,638.0844,760.0212,638.2573,760.0858,637.4916,758.8879,637.2307,757.8786,637.0313,756.8922,636.4736,755.772,636.1044,754.7222,636.1272,754.7224,636.0749,756.6918,636.1262,758.6622,636.1275,760.632,636.2241,762.6028,636.01,764.5706" style="stroke:#191919;stroke-width:1.0;"/><text fill="#000000" font-family="sans-serif" font-size="13" lengthAdjust="spacing" textLength="103" x="665" y="715.1357">[if you can raise a</text><text fill="#000000" font-family="sans-serif" font-size="13" lengthAdjust="spacing" textLength="89" x="676" y="731.4873">card in tableau]</text><!--MD5=[c3a67c5a2516991f439069bf8c0dc3d5]
link CheckRaiseCard to CheckCardMovement--><path d="M683.37,647.1806 L683.463,647.1891 L682.9133,644.1732 L682.9089,641.2071 L682.7269,638.2247 L681.9609,635.189 L682.0033,632.2272 L681.969,632.2232 L681.5965,630.3176 L681.3971,628.432 L681.3179,626.5603 L680.8243,624.6407 L680.9111,622.7882 L681.155,622.8211 L680.3496,620.6419 L680.2562,618.5585 L680.2497,616.4869 L679.7378,614.3472 L679.4917,612.2433 L679.5217,612.2479 L679.1202,609.9412 L678.8551,607.6558 L678.5241,605.36 L678.3188,603.0839 L677.7041,600.744 L677.9977,600.7964 L677.5619,598.3367 L676.9367,595.8431 L676.5887,593.3991 L676.2538,590.9573 L675.5071,588.4421 L675.1931,588.3779 L675.2731,585.9119 L674.3191,583.2345 L674.1512,580.7178 L673.1738,578.0357 L672.8599,575.4892 L672.8302,575.4822 L672.5531,572.8736 L671.5833,570.1033 L671.0223,567.4284 L670.4955,564.7615 L669.7213,562.0369 L669.9,562.0844 L668.9854,559.2764 L668.3762,556.5497 L667.2728,553.6915 L666.9066,551.0294 L666.0503,548.2369 L666.2834,548.3076 L665.3904,545.495 L664.6132,542.7176 L663.2981,539.777 L662.3773,536.956 L661.8058,534.2409 L661.5448,534.1506 L660.8093,531.4242 L659.7798,528.5962 L659.1767,525.9157 L657.8454,522.9832 L656.947,520.2005 L656.8052,520.1444 L655.9385,517.4512 L654.4657,514.5182 L653.4239,511.7557 L652.8037,509.1601 L651.4327,506.2673 L651.609,506.3474 L650.4877,503.6675 L648.8181,500.7385 L647.8353,498.1215 L646.7029,495.4365 L645.2218,492.5931 L645.0358,492.4957 L643.7944,489.9206 L642.4921,487.3137 L641.3094,484.7694 L639.6615,481.9814 L638.2735,479.3295 L638.4491,479.4364 L636.5178,476.6613 L634.9255,474.0925 L633.8285,471.825 L631.8197,469.0028 L630.5465,466.6281 L630.7307,466.7594 L628.912,464.2839 L627.031,461.764 L625.2906,459.3443 L623.8753,457.1565 L622,454.6406 L621.9049,454.5476 L619.7397,452.3242 L616.9279,449.4678 L614.8512,447.3312 L612.3607,444.7893 L609.7586,442.1383 L609.8218,442.2269 L606.9068,440.1141 L604.2181,438.3187 L601.325,436.2365 L598.3464,434.0344 L595.4388,431.9319 L595.4959,432.0365 L592.5076,430.2947 L589.7847,429.0385 L586.7617,427.2331 L583.8622,425.6536 L580.922,423.9998 L580.8126,423.7526 L578.2827,422.6993 L575.8847,421.9439 L573.3001,420.767 L570.6487,419.439 L568.09,418.3206 " fill="none" style="stroke:#191919;stroke-width:1.0;"/><polygon fill="#191919" points="563.35,416.4906,563.3996,416.5401,564.6443,417.7867,566.1796,419.3235,567.6202,420.7659,568.7497,421.8974,570.3099,423.4591,570.2862,423.4486,569.7211,422.3673,569.2753,421.339,568.9126,420.3475,568.2638,419.2291,568.0156,418.2884,568.0905,418.4571,568.9646,417.6375,570.0572,417.3104,571.1764,417.0434,572.1406,416.4268,573.1863,415.9941,573.1875,416.0168,571.2185,416.0828,569.2548,416.2521,567.2886,416.3716,565.3271,416.5863,563.35,416.4906" style="stroke:#191919;stroke-width:1.0;"/><text fill="#000000" font-family="sans-serif" font-size="13" lengthAdjust="spacing" textLength="142" x="671" y="549.1357">[else move another card]</text><!--MD5=[fe8edeaf7e9805f9c5c8f1840b91d4aa]
link CardRaisedInTableau to CheckCardMovement--><path d="M621.77,764.5606 L621.8625,764.5736 L620.8991,759.6442 L620.478,754.7911 L619.8802,749.9131 L618.7018,744.9533 L618.3272,740.1068 L618.2931,740.1018 L617.2258,733.8593 L616.3308,727.6422 L615.5556,721.4427 L614.3677,715.1826 L613.7578,709.0073 L614.001,709.0448 L612.3572,701.6721 L611.4234,694.4087 L610.5762,687.1587 L609.225,679.8311 L608.1389,672.5442 L608.1688,672.5491 L606.8066,664.433 L605.5806,656.339 L604.289,648.2344 L603.1227,640.1501 L601.5475,631.9994 L601.8414,632.0501 L600.3477,623.3818 L598.6643,614.6808 L597.2585,606.0276 L595.8657,597.3767 L594.0608,588.6547 L593.7455,588.5974 L593.5465,584.2442 L592.3092,579.7024 L591.8613,575.3041 L590.6004,570.758 L590.0058,566.333 L589.9759,566.3273 L589.4798,561.8859 L588.2846,557.3126 L587.5019,552.8171 L586.7538,548.3281 L585.7559,543.792 L585.9375,543.8277 L584.8672,539.2717 L584.1071,534.7766 L582.8452,530.1831 L582.3318,525.7364 L581.3208,521.1921 L581.5594,521.241 L580.5922,516.732 L579.7434,512.2473 L578.344,507.6498 L577.3482,503.1349 L576.71,498.6934 L576.4399,498.6354 L575.729,494.2404 L574.7138,489.7801 L574.14,485.4146 L572.8126,480.8873 L571.9332,476.4561 L571.7844,476.4225 L571.0455,472.1154 L569.6708,467.6646 L568.7482,463.3159 L568.268,459.0673 L567,454.6406 L567.1874,454.6893 L566.5754,451.873 L565.3806,448.9052 L564.9158,446.1271 L564.292,443.3076 L563.2975,440.3919 L563.0962,440.3322 L562.4712,437.7295 L561.7802,435.1073 L561.2187,432.5234 L560.1537,429.7903 L559.37,427.1406 " fill="none" style="stroke:#191919;stroke-width:1.0;"/><polygon fill="#191919" points="557.76,422.0506,557.8296,422.0586,557.3994,423.992,557.3773,425.9721,557.2223,427.9369,556.6303,429.8519,556.6432,431.836,556.6203,431.824,557.0404,430.7671,557.5764,429.7706,558.1929,428.8162,558.5319,427.717,559.2595,426.8205,559.3449,426.9841,560.1654,427.1575,561.2352,427.8085,562.3354,428.5179,563.2587,428.8881,564.275,429.4368,564.292,429.4518,562.964,427.9525,561.7136,426.5217,560.4258,425.0578,559.2094,423.657,557.76,422.0506" style="stroke:#191919;stroke-width:1.0;"/><text fill="#000000" font-family="sans-serif" font-size="13" lengthAdjust="spacing" textLength="59" x="599" y="613.1357">move card</text><!--MD5=[e85675b7b89c4e78654587d6f0c388da]
link CheckFoundation to FoundationComplete--><path d="M239,671.0906 L239.2802,671.0906 L238.4476,680.8917 L239.2577,690.6928 L239.5329,700.494 L238.0488,710.2951 L238.8964,720.0962 L238.4313,729.8973 L238.4887,739.6984 L238.9091,749.4995 L239,759.3006 " fill="none" style="stroke:#191919;stroke-width:1.0;"/><polygon fill="#191919" points="239,764.3606,239.064,764.3891,239.6738,762.5045,240.6589,760.7868,241.5217,759.0147,241.9827,757.064,243,755.3606,242.9817,755.3423,242.0995,756.0601,241.3096,756.8702,240.5839,757.7446,239.637,758.3977,239,759.3606,239.1305,759.4911,238.0514,758.4121,237.3534,757.714,236.7018,757.0624,235.7798,756.1404,235,755.3606,235.0208,755.3699,235.7903,757.1563,236.6544,758.9848,237.4728,760.793,238.3784,762.6399,239,764.3606" style="stroke:#191919;stroke-width:1.0;"/><text fill="#000000" font-family="sans-serif" font-size="13" lengthAdjust="spacing" textLength="97" x="240" y="715.1357">[if all foundations</text><text fill="#000000" font-family="sans-serif" font-size="13" lengthAdjust="spacing" textLength="79" x="253" y="731.4873">are complete]</text><!--MD5=[7b2981d202628683802e2161238b60b0]
link CheckFoundation to CheckCardMovement--><path d="M239.61,646.9806 L239.703,646.989 L239.6216,644.797 L240.0856,642.6541 L240.372,640.4952 L240.0743,638.2838 L240.5851,636.1451 L240.5508,636.1409 L240.7273,633.392 L241.0768,630.664 L241.5464,627.9505 L241.6018,625.187 L242.2373,622.4936 L242.4804,622.5321 L242.4609,619.2891 L243.1511,616.1585 L243.9278,613.0417 L244.2008,609.845 L244.7388,606.6903 L244.7685,606.6964 L245.4294,603.2293 L246.2255,599.7898 L246.9564,596.337 L247.8118,592.9095 L248.2613,589.3994 L248.5499,589.4745 L249.4965,585.8525 L250.2569,582.1821 L251.2899,578.5825 L252.3356,574.9864 L252.9767,571.2848 L252.6726,571.1836 L254.4789,567.7252 L255.2838,563.9336 L256.85,560.3953 L257.6322,556.5961 L259.057,553.0108 L259.029,552.9988 L260.8834,549.5868 L262.084,545.8945 L263.6703,542.3676 L265.2891,538.8545 L266.6742,535.2413 L266.8354,535.332 L268.5378,531.9204 L270.5158,528.6636 L272.0479,525.1563 L274.245,522.0227 L276,518.6406 L276.2012,518.7781 L277.9184,516.183 L279.7354,513.6563 L281.0884,510.8124 L282.7816,508.201 L284.7762,505.7954 L284.559,505.6249 L286.3941,503.6919 L287.9846,501.5668 L289.93,499.7203 L291.2693,497.398 L292.9689,495.3586 L292.858,495.254 L294.6543,493.7201 L295.9765,491.739 L297.6359,490.0759 L299.6251,488.7241 L301.0269,486.8181 L301.1527,486.9653 L302.9133,485.635 L304.2827,483.8469 L306.1422,482.6322 L307.8949,481.2926 L309.3988,479.6619 L309.2798,479.4889 L311.2015,478.37 L313.0843,477.1945 L315.0437,476.1302 L316.7053,474.6333 L318.5333,473.378 L318.6354,473.5564 L320.4802,471.9797 L322.5221,470.7474 L324.8521,470.0182 L326.6517,468.3627 L328.8792,467.4545 L328.9813,467.6564 L331.3219,466.3214 L333.6279,464.9182 L336.0118,463.6692 L338.5761,462.7764 L340.8852,461.3794 L340.8279,461.2593 L343.8215,460.269 L346.4253,458.4622 L349.4723,457.5838 L352.2698,456.1826 L355,454.6406 L355.0441,454.7402 L357.4395,453.5836 L359.9926,452.7835 L362.4033,451.6614 L364.7543,450.4046 L367.1548,449.2596 L367.198,449.3706 L369.6449,448.2276 L372.2926,447.6003 L374.7131,446.3897 L377.2271,445.4191 L379.7104,444.3696 L379.6225,444.1139 L382.2222,443.3148 L384.9278,442.8237 L387.4835,441.8968 L389.9855,440.8137 L392.562,439.9473 L392.5203,439.8103 L395.1422,439.0586 L397.6901,438.0643 L400.4414,437.7367 L403.092,437.0792 L405.6047,435.9692 L405.6659,436.195 L408.3112,435.5559 L410.8403,434.4877 L413.4921,433.8723 L416.0627,432.9572 L418.7335,432.412 L418.7631,432.5348 L421.3812,431.8867 L424.035,431.3868 L426.5756,430.417 L429.2075,429.8262 L431.8435,429.2524 L431.8848,429.4451 L434.4936,428.9418 L436.9902,427.9154 L439.6172,427.4968 L442.2464,427.0888 L444.8298,426.4668 L444.7789,426.2001 L447.4108,426.1341 L449.9544,425.6054 L452.476,424.9618 L455.0478,424.581 L457.5875,424.0319 L457.6417,424.3512 L460.0491,423.4733 L462.5806,423.3269 L465.0632,422.8925 L467.5355,422.3965 L470.0117,421.9243 L470.021,421.9862 L472.4164,421.6134 L474.7647,420.9285 L477.1766,420.6659 L479.5698,420.2785 L481.9975,420.1206 L482.0012,420.1487 L484.2911,419.8548 L486.5839,419.5826 L488.8459,419.0785 L491.1474,418.8723 L493.4399,418.5974 L493.4337,418.5444 L495.6286,418.5989 L497.7796,418.2793 L499.8913,417.6235 L502.0715,417.5524 L504.2341,417.3314 L504.2094,417.076 L508.0912,417.0881 L511.9496,416.8589 L515.7917,416.4598 L519.5946,415.6553 L523.458,415.4771 L523.4728,415.6828 L526.5087,414.9265 L529.6132,415.1233 L532.6717,414.6805 L535.7587,414.6348 L538.83,414.3706 " fill="none" style="stroke:#191919;stroke-width:1.0;"/><polygon fill="#191919" points="544.02,414.0806,544.0448,414.1462,542.1285,413.2554,540.3573,412.7489,538.539,412.1172,536.5651,411.0741,534.8065,410.6006,534.7892,410.5813,535.5562,411.2475,536.41,412.0113,537.3243,412.8428,538.0304,413.4408,539.0281,414.3659,539.1659,414.4887,538.1183,415.0704,537.4728,416.0107,536.8764,416.9947,535.9946,417.7242,535.2629,418.5876,535.2733,418.6078,537.0094,417.6767,538.7929,416.8377,540.5536,415.9543,542.3579,415.1556,544.02,414.0806" style="stroke:#191919;stroke-width:1.0;"/><text fill="#000000" font-family="sans-serif" font-size="13" lengthAdjust="spacing" textLength="95" x="277" y="549.1357">[else move card]</text><!--MD5=[dc94113a04d8177e84daa760cd065d72]
link FoundationComplete to *end--><path d="M239,814.7306 L239.2802,814.7306 L238.4476,825.0749 L239.2577,835.4192 L239.5329,845.7635 L238.0488,856.1078 L238.8964,866.4521 L238.4313,876.7963 L239,887.1406 " fill="none" style="stroke:#191919;stroke-width:1.0;"/><polygon fill="#191919" points="239,892.3906,239.064,892.4191,239.6738,890.5345,240.6589,888.8168,241.5217,887.0447,241.9827,885.094,243,883.3906,242.9817,883.3723,242.0995,884.0901,241.3096,884.9002,240.5839,885.7746,239.637,886.4277,239,887.3906,239.1305,887.5211,238.0514,886.4421,237.3534,885.744,236.7018,885.0924,235.7798,884.1704,235,883.3906,235.0208,883.3999,235.7903,885.1863,236.6544,887.0148,237.4728,888.823,238.3784,890.6699,239,892.3906" style="stroke:#191919;stroke-width:1.0;"/><text fill="#000000" font-family="sans-serif" font-size="13" lengthAdjust="spacing" textLength="103" x="240" y="859.1357">game is complete</text><!--MD5=[d9cca95f017a5fa1ad6695d0179c7fee]
@startuml klondike- -instructions
skinparam handwritten true
!theme mars

title Klondike Instructions

state ShuffledDeck
state GamePrepared : 7 tableau piles prepared \n rest of cards facedown in stock pile
state CheckCardMovement <<choice>>
state CheckFoundation <<choice>>
state CheckRaiseCard <<choice>>
state CardMovedToFoundation
state CardMovedToTableau
state CardRaisedToWaste
state CardRaisedInTableau
state FoundationComplete


[*] - -> ShuffledDeck : shuffle
ShuffledDeck - -> GamePrepared : put cards to tableus and stock piles
GamePrepared - -> CheckCardMovement : move card

CheckCardMovement - -> CardMovedToFoundation : [if you can move \n card to a foundation]
CheckCardMovement - -> CardMovedToTableau : [else if you can move \n card to a tableau]
CheckCardMovement - -> CardRaisedToWaste : [else raise card from stock \n and move to waste]

CardMovedToFoundation - -> CheckFoundation
CardMovedToTableau -down-> CheckRaiseCard
CheckRaiseCard - -> CardRaisedInTableau : [if you can raise a \n card in tableau]
CheckRaiseCard - -> CheckCardMovement : [else move another card]

CardRaisedInTableau - -> CheckCardMovement : move card
CardRaisedToWaste - -> CheckCardMovement

CheckFoundation - -> FoundationComplete : [if all foundations \n are complete]
CheckFoundation - -> CheckCardMovement : [else move card]

FoundationComplete - -> [*] : game is complete


@enduml

@startuml klondike- -instructions
skinparam handwritten true
skinparam BackgroundColor F9F9F9
skinparam shadowing false
skinparam RoundCorner 7
skinparam ArrowColor 191919
skinparam FontColor 191919
skinparam SequenceLifeLineBorderColor 393939
skinparam SequenceGroupHeaderFontColor 191919
skinparam SequenceGroupFontColor 393939
skinparam SequenceGroupBorderColor 393939
skinparam SequenceGroupBorderThickness 1

skinparam sequenceDivider {
    BorderColor 191919
    BorderThickness 1
    FontColor 191919
}

skinparam participant {
    BackgroundColor E55756
    BorderColor 191919
    FontColor F9F9F9
    BorderThickness 1.5
}

skinparam database {
    BackgroundColor A4DBD8
    BorderColor 191919
    FontColor 191919
}

skinparam entity {
    BackgroundColor EFBABC
    BorderColor 191919
    FontColor 191919
}

skinparam note {
    BackgroundColor e5e5e5
    BorderColor 191919
    FontColor 191919
    BorderThickness 1.5
}

skinparam actor {
    BackgroundColor 191919
    BorderColor 191919
    FontColor 191919
}

skinparam boundary {
    BackgroundColor EFBABC
    BorderColor 191919
    FontColor 191919
}

skinparam control {
    BackgroundColor EFBABC
    BorderColor 191919
    FontColor 191919
}

skinparam collections {
    BackgroundColor E55756
    BorderColor 191919
    FontColor 191919
    BorderThickness 1.5
}

skinparam queue {
    BackgroundColor E55756
    BorderColor 191919
    FontColor FFF
    BorderThickness 1.5
}

title Klondike Instructions

state ShuffledDeck
state GamePrepared : 7 tableau piles prepared \n rest of cards facedown in stock pile
state CheckCardMovement <<choice>>
state CheckFoundation <<choice>>
state CheckRaiseCard <<choice>>
state CardMovedToFoundation
state CardMovedToTableau
state CardRaisedToWaste
state CardRaisedInTableau
state FoundationComplete


[*] - -> ShuffledDeck : shuffle
ShuffledDeck - -> GamePrepared : put cards to tableus and stock piles
GamePrepared - -> CheckCardMovement : move card

CheckCardMovement - -> CardMovedToFoundation : [if you can move \n card to a foundation]
CheckCardMovement - -> CardMovedToTableau : [else if you can move \n card to a tableau]
CheckCardMovement - -> CardRaisedToWaste : [else raise card from stock \n and move to waste]

CardMovedToFoundation - -> CheckFoundation
CardMovedToTableau -down-> CheckRaiseCard
CheckRaiseCard - -> CardRaisedInTableau : [if you can raise a \n card in tableau]
CheckRaiseCard - -> CheckCardMovement : [else move another card]

CardRaisedInTableau - -> CheckCardMovement : move card
CardRaisedToWaste - -> CheckCardMovement

CheckFoundation - -> FoundationComplete : [if all foundations \n are complete]
CheckFoundation - -> CheckCardMovement : [else move card]

FoundationComplete - -> [*] : game is complete


@enduml

PlantUML version 1.2022.0(Tue Jan 11 17:16:42 CET 2022)
(GPL source distribution)
Java Runtime: Java(TM) SE Runtime Environment
JVM: Java HotSpot(TM) 64-Bit Server VM
Default Encoding: Cp1252
Language: es
Country: ES
--></g></svg>