<?xml version="1.0" encoding="UTF-8" standalone="no"?><svg xmlns="http://www.w3.org/2000/svg" xmlns:xlink="http://www.w3.org/1999/xlink" contentScriptType="application/ecmascript" contentStyleType="text/css" height="1055px" preserveAspectRatio="none" style="width:1135px;height:1055px;background:#FFFFFF;" version="1.1" viewBox="0 0 1135 1055" width="1135px" zoomAndPan="magnify"><defs><filter height="300%" id="fan10wbbocp3b" width="300%" x="-1" y="-1"><feGaussianBlur result="blurOut" stdDeviation="2.0"/><feColorMatrix in="blurOut" result="blurOut2" type="matrix" values="0 0 0 0 0 0 0 0 0 0 0 0 0 0 0 0 0 0 .4 0"/><feOffset dx="4.0" dy="4.0" in="blurOut2" result="blurOut3"/><feBlend in="SourceGraphic" in2="blurOut3" mode="normal"/></filter></defs><g><text fill="#000000" font-family="sans-serif" font-size="18" lengthAdjust="spacing" textLength="163" x="479.5" y="18.6855">Klondike Vocabulary</text><!--MD5=[ce135f397e71694d574a1221b16fe9d6]
class Klondike--><rect codeLine="4" fill="#FEFECE" filter="url(#fan10wbbocp3b)" height="48" id="Klondike" style="stroke:#A80036;stroke-width:1.5;" width="80" x="517" y="29.6406"/><ellipse cx="532" cy="45.6406" fill="#ADD1B2" rx="11" ry="11" style="stroke:#A80036;stroke-width:1.0;"/><path d="M534.7656,41.5156 Q534.9219,41.2969 535.1094,41.1875 Q535.2969,41.0781 535.5156,41.0781 Q535.8906,41.0781 536.125,41.3359 Q536.3594,41.5938 536.3594,42.2031 L536.3594,43.6563 Q536.3594,44.2656 536.125,44.5313 Q535.8906,44.7969 535.5156,44.7969 Q535.1719,44.7969 534.9688,44.5938 Q534.7656,44.4063 534.6563,43.8906 Q534.6094,43.5313 534.4219,43.3438 Q534.0938,42.9688 533.4844,42.75 Q532.875,42.5313 532.25,42.5313 Q531.4844,42.5313 530.8516,42.8594 Q530.2188,43.1875 529.7266,43.9375 Q529.2344,44.6875 529.2344,45.7188 L529.2344,46.8125 Q529.2344,48.0469 530.125,48.8672 Q531.0156,49.6875 532.6094,49.6875 Q533.5469,49.6875 534.2031,49.4375 Q534.5938,49.2813 535.0156,48.8438 Q535.2813,48.5781 535.4297,48.5 Q535.5781,48.4219 535.7813,48.4219 Q536.1094,48.4219 536.3672,48.6797 Q536.625,48.9375 536.625,49.2813 Q536.625,49.625 536.2813,50.0313 Q535.7813,50.6094 534.9844,50.9375 Q533.9063,51.3906 532.6094,51.3906 Q531.0938,51.3906 529.8906,50.7656 Q528.9063,50.2656 528.2188,49.1953 Q527.5313,48.125 527.5313,46.8438 L527.5313,45.6875 Q527.5313,44.3594 528.1484,43.2109 Q528.7656,42.0625 529.8594,41.4453 Q530.9531,40.8281 532.1875,40.8281 Q532.9219,40.8281 533.5703,40.9922 Q534.2188,41.1563 534.7656,41.5156 Z " fill="#000000"/><text fill="#000000" font-family="sans-serif" font-size="12" lengthAdjust="spacing" textLength="48" x="546" y="50.5508">Klondike</text><line style="stroke:#A80036;stroke-width:1.5;" x1="518" x2="596" y1="61.6406" y2="61.6406"/><line style="stroke:#A80036;stroke-width:1.5;" x1="518" x2="596" y1="69.6406" y2="69.6406"/><!--MD5=[2cb47ba637a0d19583e6199456f6ad0b]
class Player--><rect codeLine="5" fill="#FEFECE" filter="url(#fan10wbbocp3b)" height="48" id="Player" style="stroke:#A80036;stroke-width:1.5;" width="66" x="572" y="137.6406"/><ellipse cx="587" cy="153.6406" fill="#ADD1B2" rx="11" ry="11" style="stroke:#A80036;stroke-width:1.0;"/><path d="M589.7656,149.5156 Q589.9219,149.2969 590.1094,149.1875 Q590.2969,149.0781 590.5156,149.0781 Q590.8906,149.0781 591.125,149.3359 Q591.3594,149.5938 591.3594,150.2031 L591.3594,151.6563 Q591.3594,152.2656 591.125,152.5313 Q590.8906,152.7969 590.5156,152.7969 Q590.1719,152.7969 589.9688,152.5938 Q589.7656,152.4063 589.6563,151.8906 Q589.6094,151.5313 589.4219,151.3438 Q589.0938,150.9688 588.4844,150.75 Q587.875,150.5313 587.25,150.5313 Q586.4844,150.5313 585.8516,150.8594 Q585.2188,151.1875 584.7266,151.9375 Q584.2344,152.6875 584.2344,153.7188 L584.2344,154.8125 Q584.2344,156.0469 585.125,156.8672 Q586.0156,157.6875 587.6094,157.6875 Q588.5469,157.6875 589.2031,157.4375 Q589.5938,157.2813 590.0156,156.8438 Q590.2813,156.5781 590.4297,156.5 Q590.5781,156.4219 590.7813,156.4219 Q591.1094,156.4219 591.3672,156.6797 Q591.625,156.9375 591.625,157.2813 Q591.625,157.625 591.2813,158.0313 Q590.7813,158.6094 589.9844,158.9375 Q588.9063,159.3906 587.6094,159.3906 Q586.0938,159.3906 584.8906,158.7656 Q583.9063,158.2656 583.2188,157.1953 Q582.5313,156.125 582.5313,154.8438 L582.5313,153.6875 Q582.5313,152.3594 583.1484,151.2109 Q583.7656,150.0625 584.8594,149.4453 Q585.9531,148.8281 587.1875,148.8281 Q587.9219,148.8281 588.5703,148.9922 Q589.2188,149.1563 589.7656,149.5156 Z " fill="#000000"/><text fill="#000000" font-family="sans-serif" font-size="12" lengthAdjust="spacing" textLength="34" x="601" y="158.5508">Player</text><line style="stroke:#A80036;stroke-width:1.5;" x1="573" x2="637" y1="169.6406" y2="169.6406"/><line style="stroke:#A80036;stroke-width:1.5;" x1="573" x2="637" y1="177.6406" y2="177.6406"/><!--MD5=[9d65f55e1ae89a5b4cf38812aa4a03f3]
class Pile--><rect codeLine="7" fill="#FEFECE" filter="url(#fan10wbbocp3b)" height="48" id="Pile" style="stroke:#A80036;stroke-width:1.5;" width="53" x="264.5" y="353.6406"/><ellipse cx="279.5" cy="369.6406" fill="#ADD1B2" rx="11" ry="11" style="stroke:#A80036;stroke-width:1.0;"/><path d="M282.2656,365.5156 Q282.4219,365.2969 282.6094,365.1875 Q282.7969,365.0781 283.0156,365.0781 Q283.3906,365.0781 283.625,365.3359 Q283.8594,365.5938 283.8594,366.2031 L283.8594,367.6563 Q283.8594,368.2656 283.625,368.5313 Q283.3906,368.7969 283.0156,368.7969 Q282.6719,368.7969 282.4688,368.5938 Q282.2656,368.4063 282.1563,367.8906 Q282.1094,367.5313 281.9219,367.3438 Q281.5938,366.9688 280.9844,366.75 Q280.375,366.5313 279.75,366.5313 Q278.9844,366.5313 278.3516,366.8594 Q277.7188,367.1875 277.2266,367.9375 Q276.7344,368.6875 276.7344,369.7188 L276.7344,370.8125 Q276.7344,372.0469 277.625,372.8672 Q278.5156,373.6875 280.1094,373.6875 Q281.0469,373.6875 281.7031,373.4375 Q282.0938,373.2813 282.5156,372.8438 Q282.7813,372.5781 282.9297,372.5 Q283.0781,372.4219 283.2813,372.4219 Q283.6094,372.4219 283.8672,372.6797 Q284.125,372.9375 284.125,373.2813 Q284.125,373.625 283.7813,374.0313 Q283.2813,374.6094 282.4844,374.9375 Q281.4063,375.3906 280.1094,375.3906 Q278.5938,375.3906 277.3906,374.7656 Q276.4063,374.2656 275.7188,373.1953 Q275.0313,372.125 275.0313,370.8438 L275.0313,369.6875 Q275.0313,368.3594 275.6484,367.2109 Q276.2656,366.0625 277.3594,365.4453 Q278.4531,364.8281 279.6875,364.8281 Q280.4219,364.8281 281.0703,364.9922 Q281.7188,365.1563 282.2656,365.5156 Z " fill="#000000"/><text fill="#000000" font-family="sans-serif" font-size="12" lengthAdjust="spacing" textLength="21" x="293.5" y="374.5508">Pile</text><line style="stroke:#A80036;stroke-width:1.5;" x1="265.5" x2="316.5" y1="385.6406" y2="385.6406"/><line style="stroke:#A80036;stroke-width:1.5;" x1="265.5" x2="316.5" y1="393.6406" y2="393.6406"/><!--MD5=[a4cb0f987c11031dc931233a0e7767af]
class Stock--><rect codeLine="8" fill="#FEFECE" filter="url(#fan10wbbocp3b)" height="48" id="Stock" style="stroke:#A80036;stroke-width:1.5;" width="62" x="7" y="461.6406"/><ellipse cx="22" cy="477.6406" fill="#ADD1B2" rx="11" ry="11" style="stroke:#A80036;stroke-width:1.0;"/><path d="M24.7656,473.5156 Q24.9219,473.2969 25.1094,473.1875 Q25.2969,473.0781 25.5156,473.0781 Q25.8906,473.0781 26.125,473.3359 Q26.3594,473.5938 26.3594,474.2031 L26.3594,475.6563 Q26.3594,476.2656 26.125,476.5313 Q25.8906,476.7969 25.5156,476.7969 Q25.1719,476.7969 24.9688,476.5938 Q24.7656,476.4063 24.6563,475.8906 Q24.6094,475.5313 24.4219,475.3438 Q24.0938,474.9688 23.4844,474.75 Q22.875,474.5313 22.25,474.5313 Q21.4844,474.5313 20.8516,474.8594 Q20.2188,475.1875 19.7266,475.9375 Q19.2344,476.6875 19.2344,477.7188 L19.2344,478.8125 Q19.2344,480.0469 20.125,480.8672 Q21.0156,481.6875 22.6094,481.6875 Q23.5469,481.6875 24.2031,481.4375 Q24.5938,481.2813 25.0156,480.8438 Q25.2813,480.5781 25.4297,480.5 Q25.5781,480.4219 25.7813,480.4219 Q26.1094,480.4219 26.3672,480.6797 Q26.625,480.9375 26.625,481.2813 Q26.625,481.625 26.2813,482.0313 Q25.7813,482.6094 24.9844,482.9375 Q23.9063,483.3906 22.6094,483.3906 Q21.0938,483.3906 19.8906,482.7656 Q18.9063,482.2656 18.2188,481.1953 Q17.5313,480.125 17.5313,478.8438 L17.5313,477.6875 Q17.5313,476.3594 18.1484,475.2109 Q18.7656,474.0625 19.8594,473.4453 Q20.9531,472.8281 22.1875,472.8281 Q22.9219,472.8281 23.5703,472.9922 Q24.2188,473.1563 24.7656,473.5156 Z " fill="#000000"/><text fill="#000000" font-family="sans-serif" font-size="12" lengthAdjust="spacing" textLength="30" x="36" y="482.5508">Stock</text><line style="stroke:#A80036;stroke-width:1.5;" x1="8" x2="68" y1="493.6406" y2="493.6406"/><line style="stroke:#A80036;stroke-width:1.5;" x1="8" x2="68" y1="501.6406" y2="501.6406"/><!--MD5=[c3c256aac7e3870d53c0042288b21bdc]
class Waste--><rect codeLine="9" fill="#FEFECE" filter="url(#fan10wbbocp3b)" height="48" id="Waste" style="stroke:#A80036;stroke-width:1.5;" width="67" x="104.5" y="461.6406"/><ellipse cx="119.5" cy="477.6406" fill="#ADD1B2" rx="11" ry="11" style="stroke:#A80036;stroke-width:1.0;"/><path d="M122.2656,473.5156 Q122.4219,473.2969 122.6094,473.1875 Q122.7969,473.0781 123.0156,473.0781 Q123.3906,473.0781 123.625,473.3359 Q123.8594,473.5938 123.8594,474.2031 L123.8594,475.6563 Q123.8594,476.2656 123.625,476.5313 Q123.3906,476.7969 123.0156,476.7969 Q122.6719,476.7969 122.4688,476.5938 Q122.2656,476.4063 122.1563,475.8906 Q122.1094,475.5313 121.9219,475.3438 Q121.5938,474.9688 120.9844,474.75 Q120.375,474.5313 119.75,474.5313 Q118.9844,474.5313 118.3516,474.8594 Q117.7188,475.1875 117.2266,475.9375 Q116.7344,476.6875 116.7344,477.7188 L116.7344,478.8125 Q116.7344,480.0469 117.625,480.8672 Q118.5156,481.6875 120.1094,481.6875 Q121.0469,481.6875 121.7031,481.4375 Q122.0938,481.2813 122.5156,480.8438 Q122.7813,480.5781 122.9297,480.5 Q123.0781,480.4219 123.2813,480.4219 Q123.6094,480.4219 123.8672,480.6797 Q124.125,480.9375 124.125,481.2813 Q124.125,481.625 123.7813,482.0313 Q123.2813,482.6094 122.4844,482.9375 Q121.4063,483.3906 120.1094,483.3906 Q118.5938,483.3906 117.3906,482.7656 Q116.4063,482.2656 115.7188,481.1953 Q115.0313,480.125 115.0313,478.8438 L115.0313,477.6875 Q115.0313,476.3594 115.6484,475.2109 Q116.2656,474.0625 117.3594,473.4453 Q118.4531,472.8281 119.6875,472.8281 Q120.4219,472.8281 121.0703,472.9922 Q121.7188,473.1563 122.2656,473.5156 Z " fill="#000000"/><text fill="#000000" font-family="sans-serif" font-size="12" lengthAdjust="spacing" textLength="35" x="133.5" y="482.5508">Waste</text><line style="stroke:#A80036;stroke-width:1.5;" x1="105.5" x2="170.5" y1="493.6406" y2="493.6406"/><line style="stroke:#A80036;stroke-width:1.5;" x1="105.5" x2="170.5" y1="501.6406" y2="501.6406"/><!--MD5=[d01ad859d436f6e28b36a553834670aa]
class Foundation--><rect codeLine="10" fill="#FEFECE" filter="url(#fan10wbbocp3b)" height="48" id="Foundation" style="stroke:#A80036;stroke-width:1.5;" width="94" x="390" y="461.6406"/><ellipse cx="405" cy="477.6406" fill="#ADD1B2" rx="11" ry="11" style="stroke:#A80036;stroke-width:1.0;"/><path d="M407.7656,473.5156 Q407.9219,473.2969 408.1094,473.1875 Q408.2969,473.0781 408.5156,473.0781 Q408.8906,473.0781 409.125,473.3359 Q409.3594,473.5938 409.3594,474.2031 L409.3594,475.6563 Q409.3594,476.2656 409.125,476.5313 Q408.8906,476.7969 408.5156,476.7969 Q408.1719,476.7969 407.9688,476.5938 Q407.7656,476.4063 407.6563,475.8906 Q407.6094,475.5313 407.4219,475.3438 Q407.0938,474.9688 406.4844,474.75 Q405.875,474.5313 405.25,474.5313 Q404.4844,474.5313 403.8516,474.8594 Q403.2188,475.1875 402.7266,475.9375 Q402.2344,476.6875 402.2344,477.7188 L402.2344,478.8125 Q402.2344,480.0469 403.125,480.8672 Q404.0156,481.6875 405.6094,481.6875 Q406.5469,481.6875 407.2031,481.4375 Q407.5938,481.2813 408.0156,480.8438 Q408.2813,480.5781 408.4297,480.5 Q408.5781,480.4219 408.7813,480.4219 Q409.1094,480.4219 409.3672,480.6797 Q409.625,480.9375 409.625,481.2813 Q409.625,481.625 409.2813,482.0313 Q408.7813,482.6094 407.9844,482.9375 Q406.9063,483.3906 405.6094,483.3906 Q404.0938,483.3906 402.8906,482.7656 Q401.9063,482.2656 401.2188,481.1953 Q400.5313,480.125 400.5313,478.8438 L400.5313,477.6875 Q400.5313,476.3594 401.1484,475.2109 Q401.7656,474.0625 402.8594,473.4453 Q403.9531,472.8281 405.1875,472.8281 Q405.9219,472.8281 406.5703,472.9922 Q407.2188,473.1563 407.7656,473.5156 Z " fill="#000000"/><text fill="#000000" font-family="sans-serif" font-size="12" lengthAdjust="spacing" textLength="62" x="419" y="482.5508">Foundation</text><line style="stroke:#A80036;stroke-width:1.5;" x1="391" x2="483" y1="493.6406" y2="493.6406"/><line style="stroke:#A80036;stroke-width:1.5;" x1="391" x2="483" y1="501.6406" y2="501.6406"/><!--MD5=[c033d16283544a66478df33ee92fe5a6]
class Tableau--><rect codeLine="11" fill="#FEFECE" filter="url(#fan10wbbocp3b)" height="48" id="Tableau" style="stroke:#A80036;stroke-width:1.5;" width="77" x="206.5" y="461.6406"/><ellipse cx="221.5" cy="477.6406" fill="#ADD1B2" rx="11" ry="11" style="stroke:#A80036;stroke-width:1.0;"/><path d="M224.2656,473.5156 Q224.4219,473.2969 224.6094,473.1875 Q224.7969,473.0781 225.0156,473.0781 Q225.3906,473.0781 225.625,473.3359 Q225.8594,473.5938 225.8594,474.2031 L225.8594,475.6563 Q225.8594,476.2656 225.625,476.5313 Q225.3906,476.7969 225.0156,476.7969 Q224.6719,476.7969 224.4688,476.5938 Q224.2656,476.4063 224.1563,475.8906 Q224.1094,475.5313 223.9219,475.3438 Q223.5938,474.9688 222.9844,474.75 Q222.375,474.5313 221.75,474.5313 Q220.9844,474.5313 220.3516,474.8594 Q219.7188,475.1875 219.2266,475.9375 Q218.7344,476.6875 218.7344,477.7188 L218.7344,478.8125 Q218.7344,480.0469 219.625,480.8672 Q220.5156,481.6875 222.1094,481.6875 Q223.0469,481.6875 223.7031,481.4375 Q224.0938,481.2813 224.5156,480.8438 Q224.7813,480.5781 224.9297,480.5 Q225.0781,480.4219 225.2813,480.4219 Q225.6094,480.4219 225.8672,480.6797 Q226.125,480.9375 226.125,481.2813 Q226.125,481.625 225.7813,482.0313 Q225.2813,482.6094 224.4844,482.9375 Q223.4063,483.3906 222.1094,483.3906 Q220.5938,483.3906 219.3906,482.7656 Q218.4063,482.2656 217.7188,481.1953 Q217.0313,480.125 217.0313,478.8438 L217.0313,477.6875 Q217.0313,476.3594 217.6484,475.2109 Q218.2656,474.0625 219.3594,473.4453 Q220.4531,472.8281 221.6875,472.8281 Q222.4219,472.8281 223.0703,472.9922 Q223.7188,473.1563 224.2656,473.5156 Z " fill="#000000"/><text fill="#000000" font-family="sans-serif" font-size="12" lengthAdjust="spacing" textLength="45" x="235.5" y="482.5508">Tableau</text><line style="stroke:#A80036;stroke-width:1.5;" x1="207.5" x2="282.5" y1="493.6406" y2="493.6406"/><line style="stroke:#A80036;stroke-width:1.5;" x1="207.5" x2="282.5" y1="501.6406" y2="501.6406"/><!--MD5=[30299a58ba6b78debaaed5ddbb42f29a]
class Deck--><rect codeLine="13" fill="#FEFECE" filter="url(#fan10wbbocp3b)" height="48" id="Deck" style="stroke:#A80036;stroke-width:1.5;" width="60" x="676" y="245.6406"/><ellipse cx="691" cy="261.6406" fill="#ADD1B2" rx="11" ry="11" style="stroke:#A80036;stroke-width:1.0;"/><path d="M693.7656,257.5156 Q693.9219,257.2969 694.1094,257.1875 Q694.2969,257.0781 694.5156,257.0781 Q694.8906,257.0781 695.125,257.3359 Q695.3594,257.5938 695.3594,258.2031 L695.3594,259.6563 Q695.3594,260.2656 695.125,260.5313 Q694.8906,260.7969 694.5156,260.7969 Q694.1719,260.7969 693.9688,260.5938 Q693.7656,260.4063 693.6563,259.8906 Q693.6094,259.5313 693.4219,259.3438 Q693.0938,258.9688 692.4844,258.75 Q691.875,258.5313 691.25,258.5313 Q690.4844,258.5313 689.8516,258.8594 Q689.2188,259.1875 688.7266,259.9375 Q688.2344,260.6875 688.2344,261.7188 L688.2344,262.8125 Q688.2344,264.0469 689.125,264.8672 Q690.0156,265.6875 691.6094,265.6875 Q692.5469,265.6875 693.2031,265.4375 Q693.5938,265.2813 694.0156,264.8438 Q694.2813,264.5781 694.4297,264.5 Q694.5781,264.4219 694.7813,264.4219 Q695.1094,264.4219 695.3672,264.6797 Q695.625,264.9375 695.625,265.2813 Q695.625,265.625 695.2813,266.0313 Q694.7813,266.6094 693.9844,266.9375 Q692.9063,267.3906 691.6094,267.3906 Q690.0938,267.3906 688.8906,266.7656 Q687.9063,266.2656 687.2188,265.1953 Q686.5313,264.125 686.5313,262.8438 L686.5313,261.6875 Q686.5313,260.3594 687.1484,259.2109 Q687.7656,258.0625 688.8594,257.4453 Q689.9531,256.8281 691.1875,256.8281 Q691.9219,256.8281 692.5703,256.9922 Q693.2188,257.1563 693.7656,257.5156 Z " fill="#000000"/><text fill="#000000" font-family="sans-serif" font-size="12" lengthAdjust="spacing" textLength="28" x="705" y="266.5508">Deck</text><line style="stroke:#A80036;stroke-width:1.5;" x1="677" x2="735" y1="277.6406" y2="277.6406"/><line style="stroke:#A80036;stroke-width:1.5;" x1="677" x2="735" y1="285.6406" y2="285.6406"/><!--MD5=[5e305716458bbdabbd2d7f572ed2bae2]
class Card--><rect codeLine="15" fill="#FEFECE" filter="url(#fan10wbbocp3b)" height="61.8359" id="Card" style="stroke:#A80036;stroke-width:1.5;" width="96" x="479" y="684.6406"/><ellipse cx="510.65" cy="700.6406" fill="#ADD1B2" rx="11" ry="11" style="stroke:#A80036;stroke-width:1.0;"/><path d="M513.4156,696.5156 Q513.5719,696.2969 513.7594,696.1875 Q513.9469,696.0781 514.1656,696.0781 Q514.5406,696.0781 514.775,696.3359 Q515.0094,696.5938 515.0094,697.2031 L515.0094,698.6563 Q515.0094,699.2656 514.775,699.5313 Q514.5406,699.7969 514.1656,699.7969 Q513.8219,699.7969 513.6188,699.5938 Q513.4156,699.4063 513.3063,698.8906 Q513.2594,698.5313 513.0719,698.3438 Q512.7438,697.9688 512.1344,697.75 Q511.525,697.5313 510.9,697.5313 Q510.1344,697.5313 509.5016,697.8594 Q508.8688,698.1875 508.3766,698.9375 Q507.8844,699.6875 507.8844,700.7188 L507.8844,701.8125 Q507.8844,703.0469 508.775,703.8672 Q509.6656,704.6875 511.2594,704.6875 Q512.1969,704.6875 512.8531,704.4375 Q513.2438,704.2813 513.6656,703.8438 Q513.9313,703.5781 514.0797,703.5 Q514.2281,703.4219 514.4313,703.4219 Q514.7594,703.4219 515.0172,703.6797 Q515.275,703.9375 515.275,704.2813 Q515.275,704.625 514.9313,705.0313 Q514.4313,705.6094 513.6344,705.9375 Q512.5563,706.3906 511.2594,706.3906 Q509.7438,706.3906 508.5406,705.7656 Q507.5563,705.2656 506.8688,704.1953 Q506.1813,703.125 506.1813,701.8438 L506.1813,700.6875 Q506.1813,699.3594 506.7984,698.2109 Q507.4156,697.0625 508.5094,696.4453 Q509.6031,695.8281 510.8375,695.8281 Q511.5719,695.8281 512.2203,695.9922 Q512.8688,696.1563 513.4156,696.5156 Z " fill="#000000"/><text fill="#000000" font-family="sans-serif" font-size="12" lengthAdjust="spacing" textLength="27" x="528.35" y="705.5508">Card</text><line style="stroke:#A80036;stroke-width:1.5;" x1="480" x2="574" y1="716.6406" y2="716.6406"/><text fill="#000000" font-family="sans-serif" font-size="11" lengthAdjust="spacing" textLength="84" x="485" y="732.0596">faceup = boolean</text><line style="stroke:#A80036;stroke-width:1.5;" x1="480" x2="574" y1="738.4766" y2="738.4766"/><!--MD5=[0f690a215a17a0cf4b9f948ca5dd1b3e]
class Rank--><rect codeLine="18" fill="#FEFECE" filter="url(#fan10wbbocp3b)" height="227.8672" id="Rank" style="stroke:#A80036;stroke-width:1.5;" width="61" x="496.5" y="813.6406"/><ellipse cx="511.5" cy="829.6406" fill="#EB937F" rx="11" ry="11" style="stroke:#A80036;stroke-width:1.0;"/><path d="M510.3594,830.4375 L510.3594,832.9375 L514.6875,832.9375 L514.6875,832.0156 Q514.6875,831.4063 514.9297,831.1406 Q515.1719,830.875 515.5469,830.875 Q515.9219,830.875 516.1563,831.1406 Q516.3906,831.4063 516.3906,832.0156 L516.3906,834.6406 L508.3906,834.6406 Q507.7656,834.6406 507.5078,834.4063 Q507.25,834.1719 507.25,833.7813 Q507.25,833.4063 507.5156,833.1719 Q507.7813,832.9375 508.3906,832.9375 L508.6563,832.9375 L508.6563,826.2813 L508.3906,826.2813 Q507.7656,826.2813 507.5078,826.0469 Q507.25,825.8125 507.25,825.4219 Q507.25,825.0469 507.5078,824.8125 Q507.7656,824.5781 508.3906,824.5781 L516.0156,824.5781 L516.0156,827.1719 Q516.0156,827.7813 515.7891,828.0391 Q515.5625,828.2969 515.1719,828.2969 Q514.7969,828.2969 514.5625,828.0391 Q514.3281,827.7813 514.3281,827.1719 L514.3281,826.2813 L510.3594,826.2813 L510.3594,828.7344 L511.8438,828.7344 Q511.8438,828.0781 511.9688,827.8906 Q512.2344,827.4844 512.7031,827.4844 Q513.0781,827.4844 513.3125,827.7422 Q513.5469,828 513.5469,828.6094 L513.5469,830.5781 Q513.5469,831.125 513.4219,831.3125 Q513.1563,831.7031 512.7031,831.7031 Q512.2344,831.7031 511.9688,831.2969 Q511.8438,831.1094 511.8438,830.4375 L510.3594,830.4375 Z " fill="#000000"/><text fill="#000000" font-family="sans-serif" font-size="12" lengthAdjust="spacing" textLength="29" x="525.5" y="834.5508">Rank</text><line style="stroke:#A80036;stroke-width:1.5;" x1="497.5" x2="556.5" y1="845.6406" y2="845.6406"/><text fill="#000000" font-family="sans-serif" font-size="11" lengthAdjust="spacing" textLength="23" x="502.5" y="861.0596">Ace,</text><text fill="#000000" font-family="sans-serif" font-size="11" lengthAdjust="spacing" textLength="25" x="502.5" y="874.8955">Two,</text><text fill="#000000" font-family="sans-serif" font-size="11" lengthAdjust="spacing" textLength="31" x="502.5" y="888.7314">Three,</text><text fill="#000000" font-family="sans-serif" font-size="11" lengthAdjust="spacing" textLength="25" x="502.5" y="902.5674">Four,</text><text fill="#000000" font-family="sans-serif" font-size="11" lengthAdjust="spacing" textLength="23" x="502.5" y="916.4033">Five,</text><text fill="#000000" font-family="sans-serif" font-size="11" lengthAdjust="spacing" textLength="18" x="502.5" y="930.2393">Six,</text><text fill="#000000" font-family="sans-serif" font-size="11" lengthAdjust="spacing" textLength="34" x="502.5" y="944.0752">Seven,</text><text fill="#000000" font-family="sans-serif" font-size="11" lengthAdjust="spacing" textLength="26" x="502.5" y="957.9111">Eight,</text><text fill="#000000" font-family="sans-serif" font-size="11" lengthAdjust="spacing" textLength="24" x="502.5" y="971.7471">Nine,</text><text fill="#000000" font-family="sans-serif" font-size="11" lengthAdjust="spacing" textLength="21" x="502.5" y="985.583">Ten,</text><text fill="#000000" font-family="sans-serif" font-size="11" lengthAdjust="spacing" textLength="25" x="502.5" y="999.4189">Jack,</text><text fill="#000000" font-family="sans-serif" font-size="11" lengthAdjust="spacing" textLength="35" x="502.5" y="1013.2549">Queen,</text><text fill="#000000" font-family="sans-serif" font-size="11" lengthAdjust="spacing" textLength="21" x="502.5" y="1027.0908">King</text><line style="stroke:#A80036;stroke-width:1.5;" x1="497.5" x2="556.5" y1="1033.5078" y2="1033.5078"/><!--MD5=[8afaa0cc9be9ac1cdc24999fa1642fa3]
class Suit--><rect codeLine="34" fill="#FEFECE" filter="url(#fan10wbbocp3b)" height="48" id="Suit" style="stroke:#A80036;stroke-width:1.5;" width="53" x="723.5" y="569.6406"/><ellipse cx="738.5" cy="585.6406" fill="#ADD1B2" rx="11" ry="11" style="stroke:#A80036;stroke-width:1.0;"/><path d="M741.2656,581.5156 Q741.4219,581.2969 741.6094,581.1875 Q741.7969,581.0781 742.0156,581.0781 Q742.3906,581.0781 742.625,581.3359 Q742.8594,581.5938 742.8594,582.2031 L742.8594,583.6563 Q742.8594,584.2656 742.625,584.5313 Q742.3906,584.7969 742.0156,584.7969 Q741.6719,584.7969 741.4688,584.5938 Q741.2656,584.4063 741.1563,583.8906 Q741.1094,583.5313 740.9219,583.3438 Q740.5938,582.9688 739.9844,582.75 Q739.375,582.5313 738.75,582.5313 Q737.9844,582.5313 737.3516,582.8594 Q736.7188,583.1875 736.2266,583.9375 Q735.7344,584.6875 735.7344,585.7188 L735.7344,586.8125 Q735.7344,588.0469 736.625,588.8672 Q737.5156,589.6875 739.1094,589.6875 Q740.0469,589.6875 740.7031,589.4375 Q741.0938,589.2813 741.5156,588.8438 Q741.7813,588.5781 741.9297,588.5 Q742.0781,588.4219 742.2813,588.4219 Q742.6094,588.4219 742.8672,588.6797 Q743.125,588.9375 743.125,589.2813 Q743.125,589.625 742.7813,590.0313 Q742.2813,590.6094 741.4844,590.9375 Q740.4063,591.3906 739.1094,591.3906 Q737.5938,591.3906 736.3906,590.7656 Q735.4063,590.2656 734.7188,589.1953 Q734.0313,588.125 734.0313,586.8438 L734.0313,585.6875 Q734.0313,584.3594 734.6484,583.2109 Q735.2656,582.0625 736.3594,581.4453 Q737.4531,580.8281 738.6875,580.8281 Q739.4219,580.8281 740.0703,580.9922 Q740.7188,581.1563 741.2656,581.5156 Z " fill="#000000"/><text fill="#000000" font-family="sans-serif" font-size="12" lengthAdjust="spacing" textLength="21" x="752.5" y="590.5508">Suit</text><line style="stroke:#A80036;stroke-width:1.5;" x1="724.5" x2="775.5" y1="601.6406" y2="601.6406"/><line style="stroke:#A80036;stroke-width:1.5;" x1="724.5" x2="775.5" y1="609.6406" y2="609.6406"/><!--MD5=[6ff11adab1150615a9e33e720d7b7616]
class Spades--><rect codeLine="51" fill="#FEFECE" filter="url(#fan10wbbocp3b)" height="61.8359" id="Spades" style="stroke:#A80036;stroke-width:1.5;" width="75" x="816.5" y="684.6406"/><ellipse cx="831.5" cy="700.6406" fill="#ADD1B2" rx="11" ry="11" style="stroke:#A80036;stroke-width:1.0;"/><path d="M834.2656,696.5156 Q834.4219,696.2969 834.6094,696.1875 Q834.7969,696.0781 835.0156,696.0781 Q835.3906,696.0781 835.625,696.3359 Q835.8594,696.5938 835.8594,697.2031 L835.8594,698.6563 Q835.8594,699.2656 835.625,699.5313 Q835.3906,699.7969 835.0156,699.7969 Q834.6719,699.7969 834.4688,699.5938 Q834.2656,699.4063 834.1563,698.8906 Q834.1094,698.5313 833.9219,698.3438 Q833.5938,697.9688 832.9844,697.75 Q832.375,697.5313 831.75,697.5313 Q830.9844,697.5313 830.3516,697.8594 Q829.7188,698.1875 829.2266,698.9375 Q828.7344,699.6875 828.7344,700.7188 L828.7344,701.8125 Q828.7344,703.0469 829.625,703.8672 Q830.5156,704.6875 832.1094,704.6875 Q833.0469,704.6875 833.7031,704.4375 Q834.0938,704.2813 834.5156,703.8438 Q834.7813,703.5781 834.9297,703.5 Q835.0781,703.4219 835.2813,703.4219 Q835.6094,703.4219 835.8672,703.6797 Q836.125,703.9375 836.125,704.2813 Q836.125,704.625 835.7813,705.0313 Q835.2813,705.6094 834.4844,705.9375 Q833.4063,706.3906 832.1094,706.3906 Q830.5938,706.3906 829.3906,705.7656 Q828.4063,705.2656 827.7188,704.1953 Q827.0313,703.125 827.0313,701.8438 L827.0313,700.6875 Q827.0313,699.3594 827.6484,698.2109 Q828.2656,697.0625 829.3594,696.4453 Q830.4531,695.8281 831.6875,695.8281 Q832.4219,695.8281 833.0703,695.9922 Q833.7188,696.1563 834.2656,696.5156 Z " fill="#000000"/><text fill="#000000" font-family="sans-serif" font-size="12" lengthAdjust="spacing" textLength="43" x="845.5" y="705.5508">Spades</text><line style="stroke:#A80036;stroke-width:1.5;" x1="817.5" x2="890.5" y1="716.6406" y2="716.6406"/><text fill="#000000" font-family="sans-serif" font-size="11" lengthAdjust="spacing" textLength="61" x="822.5" y="732.0596">color = black</text><line style="stroke:#A80036;stroke-width:1.5;" x1="817.5" x2="890.5" y1="738.4766" y2="738.4766"/><!--MD5=[c03d921b2195d61986d5c3ddbe9a3a37]
class Hearts--><rect codeLine="63" fill="#FEFECE" filter="url(#fan10wbbocp3b)" height="61.8359" id="Hearts" style="stroke:#A80036;stroke-width:1.5;" width="69" x="926.5" y="684.6406"/><ellipse cx="941.5" cy="700.6406" fill="#ADD1B2" rx="11" ry="11" style="stroke:#A80036;stroke-width:1.0;"/><path d="M944.2656,696.5156 Q944.4219,696.2969 944.6094,696.1875 Q944.7969,696.0781 945.0156,696.0781 Q945.3906,696.0781 945.625,696.3359 Q945.8594,696.5938 945.8594,697.2031 L945.8594,698.6563 Q945.8594,699.2656 945.625,699.5313 Q945.3906,699.7969 945.0156,699.7969 Q944.6719,699.7969 944.4688,699.5938 Q944.2656,699.4063 944.1563,698.8906 Q944.1094,698.5313 943.9219,698.3438 Q943.5938,697.9688 942.9844,697.75 Q942.375,697.5313 941.75,697.5313 Q940.9844,697.5313 940.3516,697.8594 Q939.7188,698.1875 939.2266,698.9375 Q938.7344,699.6875 938.7344,700.7188 L938.7344,701.8125 Q938.7344,703.0469 939.625,703.8672 Q940.5156,704.6875 942.1094,704.6875 Q943.0469,704.6875 943.7031,704.4375 Q944.0938,704.2813 944.5156,703.8438 Q944.7813,703.5781 944.9297,703.5 Q945.0781,703.4219 945.2813,703.4219 Q945.6094,703.4219 945.8672,703.6797 Q946.125,703.9375 946.125,704.2813 Q946.125,704.625 945.7813,705.0313 Q945.2813,705.6094 944.4844,705.9375 Q943.4063,706.3906 942.1094,706.3906 Q940.5938,706.3906 939.3906,705.7656 Q938.4063,705.2656 937.7188,704.1953 Q937.0313,703.125 937.0313,701.8438 L937.0313,700.6875 Q937.0313,699.3594 937.6484,698.2109 Q938.2656,697.0625 939.3594,696.4453 Q940.4531,695.8281 941.6875,695.8281 Q942.4219,695.8281 943.0703,695.9922 Q943.7188,696.1563 944.2656,696.5156 Z " fill="#000000"/><text fill="#000000" font-family="sans-serif" font-size="12" lengthAdjust="spacing" textLength="37" x="955.5" y="705.5508">Hearts</text><line style="stroke:#A80036;stroke-width:1.5;" x1="927.5" x2="994.5" y1="716.6406" y2="716.6406"/><text fill="#000000" font-family="sans-serif" font-size="11" lengthAdjust="spacing" textLength="52" x="932.5" y="732.0596">color = red</text><line style="stroke:#A80036;stroke-width:1.5;" x1="927.5" x2="994.5" y1="738.4766" y2="738.4766"/><!--MD5=[e81ba8aec86d67923cc56e24a688fc67]
class Diamonds--><rect codeLine="59" fill="#FEFECE" filter="url(#fan10wbbocp3b)" height="61.8359" id="Diamonds" style="stroke:#A80036;stroke-width:1.5;" width="90" x="1031" y="684.6406"/><ellipse cx="1046" cy="700.6406" fill="#ADD1B2" rx="11" ry="11" style="stroke:#A80036;stroke-width:1.0;"/><path d="M1048.7656,696.5156 Q1048.9219,696.2969 1049.1094,696.1875 Q1049.2969,696.0781 1049.5156,696.0781 Q1049.8906,696.0781 1050.125,696.3359 Q1050.3594,696.5938 1050.3594,697.2031 L1050.3594,698.6563 Q1050.3594,699.2656 1050.125,699.5313 Q1049.8906,699.7969 1049.5156,699.7969 Q1049.1719,699.7969 1048.9688,699.5938 Q1048.7656,699.4063 1048.6563,698.8906 Q1048.6094,698.5313 1048.4219,698.3438 Q1048.0938,697.9688 1047.4844,697.75 Q1046.875,697.5313 1046.25,697.5313 Q1045.4844,697.5313 1044.8516,697.8594 Q1044.2188,698.1875 1043.7266,698.9375 Q1043.2344,699.6875 1043.2344,700.7188 L1043.2344,701.8125 Q1043.2344,703.0469 1044.125,703.8672 Q1045.0156,704.6875 1046.6094,704.6875 Q1047.5469,704.6875 1048.2031,704.4375 Q1048.5938,704.2813 1049.0156,703.8438 Q1049.2813,703.5781 1049.4297,703.5 Q1049.5781,703.4219 1049.7813,703.4219 Q1050.1094,703.4219 1050.3672,703.6797 Q1050.625,703.9375 1050.625,704.2813 Q1050.625,704.625 1050.2813,705.0313 Q1049.7813,705.6094 1048.9844,705.9375 Q1047.9063,706.3906 1046.6094,706.3906 Q1045.0938,706.3906 1043.8906,705.7656 Q1042.9063,705.2656 1042.2188,704.1953 Q1041.5313,703.125 1041.5313,701.8438 L1041.5313,700.6875 Q1041.5313,699.3594 1042.1484,698.2109 Q1042.7656,697.0625 1043.8594,696.4453 Q1044.9531,695.8281 1046.1875,695.8281 Q1046.9219,695.8281 1047.5703,695.9922 Q1048.2188,696.1563 1048.7656,696.5156 Z " fill="#000000"/><text fill="#000000" font-family="sans-serif" font-size="12" lengthAdjust="spacing" textLength="58" x="1060" y="705.5508">Diamonds</text><line style="stroke:#A80036;stroke-width:1.5;" x1="1032" x2="1120" y1="716.6406" y2="716.6406"/><text fill="#000000" font-family="sans-serif" font-size="11" lengthAdjust="spacing" textLength="52" x="1037" y="732.0596">color = red</text><line style="stroke:#A80036;stroke-width:1.5;" x1="1032" x2="1120" y1="738.4766" y2="738.4766"/><!--MD5=[c80ce37059b9ac1cdaedc72220576c90]
class Clubs--><rect codeLine="55" fill="#FEFECE" filter="url(#fan10wbbocp3b)" height="61.8359" id="Clubs" style="stroke:#A80036;stroke-width:1.5;" width="73" x="610.5" y="684.6406"/><ellipse cx="629.1" cy="700.6406" fill="#ADD1B2" rx="11" ry="11" style="stroke:#A80036;stroke-width:1.0;"/><path d="M631.8656,696.5156 Q632.0219,696.2969 632.2094,696.1875 Q632.3969,696.0781 632.6156,696.0781 Q632.9906,696.0781 633.225,696.3359 Q633.4594,696.5938 633.4594,697.2031 L633.4594,698.6563 Q633.4594,699.2656 633.225,699.5313 Q632.9906,699.7969 632.6156,699.7969 Q632.2719,699.7969 632.0688,699.5938 Q631.8656,699.4063 631.7563,698.8906 Q631.7094,698.5313 631.5219,698.3438 Q631.1938,697.9688 630.5844,697.75 Q629.975,697.5313 629.35,697.5313 Q628.5844,697.5313 627.9516,697.8594 Q627.3188,698.1875 626.8266,698.9375 Q626.3344,699.6875 626.3344,700.7188 L626.3344,701.8125 Q626.3344,703.0469 627.225,703.8672 Q628.1156,704.6875 629.7094,704.6875 Q630.6469,704.6875 631.3031,704.4375 Q631.6938,704.2813 632.1156,703.8438 Q632.3813,703.5781 632.5297,703.5 Q632.6781,703.4219 632.8813,703.4219 Q633.2094,703.4219 633.4672,703.6797 Q633.725,703.9375 633.725,704.2813 Q633.725,704.625 633.3813,705.0313 Q632.8813,705.6094 632.0844,705.9375 Q631.0063,706.3906 629.7094,706.3906 Q628.1938,706.3906 626.9906,705.7656 Q626.0063,705.2656 625.3188,704.1953 Q624.6313,703.125 624.6313,701.8438 L624.6313,700.6875 Q624.6313,699.3594 625.2484,698.2109 Q625.8656,697.0625 626.9594,696.4453 Q628.0531,695.8281 629.2875,695.8281 Q630.0219,695.8281 630.6703,695.9922 Q631.3188,696.1563 631.8656,696.5156 Z " fill="#000000"/><text fill="#000000" font-family="sans-serif" font-size="12" lengthAdjust="spacing" textLength="33" x="643.9" y="705.5508">Clubs</text><line style="stroke:#A80036;stroke-width:1.5;" x1="611.5" x2="682.5" y1="716.6406" y2="716.6406"/><text fill="#000000" font-family="sans-serif" font-size="11" lengthAdjust="spacing" textLength="61" x="616.5" y="732.0596">color = black</text><line style="stroke:#A80036;stroke-width:1.5;" x1="611.5" x2="682.5" y1="738.4766" y2="738.4766"/><!--MD5=[18eee71c88ab61f27581b8cbdd3ef5ee]
class Color--><rect codeLine="40" fill="#FEFECE" filter="url(#fan10wbbocp3b)" height="75.6719" id="Color" style="stroke:#A80036;stroke-width:1.5;" width="62" x="719" y="677.6406"/><ellipse cx="734" cy="693.6406" fill="#EB937F" rx="11" ry="11" style="stroke:#A80036;stroke-width:1.0;"/><path d="M732.8594,694.4375 L732.8594,696.9375 L737.1875,696.9375 L737.1875,696.0156 Q737.1875,695.4063 737.4297,695.1406 Q737.6719,694.875 738.0469,694.875 Q738.4219,694.875 738.6563,695.1406 Q738.8906,695.4063 738.8906,696.0156 L738.8906,698.6406 L730.8906,698.6406 Q730.2656,698.6406 730.0078,698.4063 Q729.75,698.1719 729.75,697.7813 Q729.75,697.4063 730.0156,697.1719 Q730.2813,696.9375 730.8906,696.9375 L731.1563,696.9375 L731.1563,690.2813 L730.8906,690.2813 Q730.2656,690.2813 730.0078,690.0469 Q729.75,689.8125 729.75,689.4219 Q729.75,689.0469 730.0078,688.8125 Q730.2656,688.5781 730.8906,688.5781 L738.5156,688.5781 L738.5156,691.1719 Q738.5156,691.7813 738.2891,692.0391 Q738.0625,692.2969 737.6719,692.2969 Q737.2969,692.2969 737.0625,692.0391 Q736.8281,691.7813 736.8281,691.1719 L736.8281,690.2813 L732.8594,690.2813 L732.8594,692.7344 L734.3438,692.7344 Q734.3438,692.0781 734.4688,691.8906 Q734.7344,691.4844 735.2031,691.4844 Q735.5781,691.4844 735.8125,691.7422 Q736.0469,692 736.0469,692.6094 L736.0469,694.5781 Q736.0469,695.125 735.9219,695.3125 Q735.6563,695.7031 735.2031,695.7031 Q734.7344,695.7031 734.4688,695.2969 Q734.3438,695.1094 734.3438,694.4375 L732.8594,694.4375 Z " fill="#000000"/><text fill="#000000" font-family="sans-serif" font-size="12" lengthAdjust="spacing" textLength="30" x="748" y="698.5508">Color</text><line style="stroke:#A80036;stroke-width:1.5;" x1="720" x2="780" y1="709.6406" y2="709.6406"/><text fill="#000000" font-family="sans-serif" font-size="11" lengthAdjust="spacing" textLength="22" x="725" y="725.0596">Red,</text><text fill="#000000" font-family="sans-serif" font-size="11" lengthAdjust="spacing" textLength="26" x="725" y="738.8955">Black</text><line style="stroke:#A80036;stroke-width:1.5;" x1="720" x2="780" y1="745.3125" y2="745.3125"/><!--MD5=[f8e7078f77c005d15b486c0c98deb1e6]
class Action--><rect codeLine="45" fill="#FEFECE" filter="url(#fan10wbbocp3b)" height="48" id="Action" style="stroke:#A80036;stroke-width:1.5;" width="66" x="575" y="245.6406"/><ellipse cx="590" cy="261.6406" fill="#A9DCDF" rx="11" ry="11" style="stroke:#A80036;stroke-width:1.0;"/><path d="M592.1875,263.4063 L588.0469,263.4063 L587.625,264.4375 L588.0469,264.4375 Q588.6563,264.4375 588.9219,264.6719 Q589.1875,264.9063 589.1875,265.2969 Q589.1875,265.6719 588.9219,265.9063 Q588.6563,266.1406 588.0469,266.1406 L585.75,266.1406 Q585.1406,266.1406 584.8828,265.9063 Q584.625,265.6719 584.625,265.2813 Q584.625,264.9063 584.8984,264.6641 Q585.1719,264.4219 585.7969,264.4375 L588.4688,257.7813 L587.3594,257.7813 Q586.75,257.7813 586.4844,257.5469 Q586.2188,257.3125 586.2188,256.9219 Q586.2188,256.5469 586.4844,256.3125 Q586.75,256.0781 587.3594,256.0781 L591.0313,256.0781 L594.4219,264.4375 Q595.0156,264.4375 595.2031,264.5781 Q595.5938,264.8438 595.5938,265.2969 Q595.5938,265.6719 595.3359,265.9063 Q595.0781,266.1406 594.4688,266.1406 L592.1719,266.1406 Q591.5625,266.1406 591.2969,265.9063 Q591.0313,265.6719 591.0313,265.2813 Q591.0313,264.9063 591.2969,264.6719 Q591.5625,264.4375 592.1719,264.4375 L592.5938,264.4375 L592.1875,263.4063 Z M591.4688,261.7031 L590.1094,258.3281 L588.7344,261.7031 L591.4688,261.7031 Z " fill="#000000"/><text fill="#000000" font-family="sans-serif" font-size="12" font-style="italic" lengthAdjust="spacing" textLength="34" x="604" y="266.5508">Action</text><line style="stroke:#A80036;stroke-width:1.5;" x1="576" x2="640" y1="277.6406" y2="277.6406"/><line style="stroke:#A80036;stroke-width:1.5;" x1="576" x2="640" y1="285.6406" y2="285.6406"/><!--MD5=[1981719fa3982d92ef7fd3f06d73b3e7]
class Move--><rect codeLine="46" fill="#FEFECE" filter="url(#fan10wbbocp3b)" height="48" id="Move" style="stroke:#A80036;stroke-width:1.5;" width="60" x="501" y="569.6406"/><ellipse cx="516" cy="585.6406" fill="#ADD1B2" rx="11" ry="11" style="stroke:#A80036;stroke-width:1.0;"/><path d="M518.7656,581.5156 Q518.9219,581.2969 519.1094,581.1875 Q519.2969,581.0781 519.5156,581.0781 Q519.8906,581.0781 520.125,581.3359 Q520.3594,581.5938 520.3594,582.2031 L520.3594,583.6563 Q520.3594,584.2656 520.125,584.5313 Q519.8906,584.7969 519.5156,584.7969 Q519.1719,584.7969 518.9688,584.5938 Q518.7656,584.4063 518.6563,583.8906 Q518.6094,583.5313 518.4219,583.3438 Q518.0938,582.9688 517.4844,582.75 Q516.875,582.5313 516.25,582.5313 Q515.4844,582.5313 514.8516,582.8594 Q514.2188,583.1875 513.7266,583.9375 Q513.2344,584.6875 513.2344,585.7188 L513.2344,586.8125 Q513.2344,588.0469 514.125,588.8672 Q515.0156,589.6875 516.6094,589.6875 Q517.5469,589.6875 518.2031,589.4375 Q518.5938,589.2813 519.0156,588.8438 Q519.2813,588.5781 519.4297,588.5 Q519.5781,588.4219 519.7813,588.4219 Q520.1094,588.4219 520.3672,588.6797 Q520.625,588.9375 520.625,589.2813 Q520.625,589.625 520.2813,590.0313 Q519.7813,590.6094 518.9844,590.9375 Q517.9063,591.3906 516.6094,591.3906 Q515.0938,591.3906 513.8906,590.7656 Q512.9063,590.2656 512.2188,589.1953 Q511.5313,588.125 511.5313,586.8438 L511.5313,585.6875 Q511.5313,584.3594 512.1484,583.2109 Q512.7656,582.0625 513.8594,581.4453 Q514.9531,580.8281 516.1875,580.8281 Q516.9219,580.8281 517.5703,580.9922 Q518.2188,581.1563 518.7656,581.5156 Z " fill="#000000"/><text fill="#000000" font-family="sans-serif" font-size="12" lengthAdjust="spacing" textLength="28" x="530" y="590.5508">Move</text><line style="stroke:#A80036;stroke-width:1.5;" x1="502" x2="560" y1="601.6406" y2="601.6406"/><line style="stroke:#A80036;stroke-width:1.5;" x1="502" x2="560" y1="609.6406" y2="609.6406"/><!--MD5=[f866a79a7c98c32baf869c813ea263be]
class TurnOver--><rect codeLine="47" fill="#FEFECE" filter="url(#fan10wbbocp3b)" height="48" id="TurnOver" style="stroke:#A80036;stroke-width:1.5;" width="82" x="603" y="569.6406"/><ellipse cx="618" cy="585.6406" fill="#ADD1B2" rx="11" ry="11" style="stroke:#A80036;stroke-width:1.0;"/><path d="M620.7656,581.5156 Q620.9219,581.2969 621.1094,581.1875 Q621.2969,581.0781 621.5156,581.0781 Q621.8906,581.0781 622.125,581.3359 Q622.3594,581.5938 622.3594,582.2031 L622.3594,583.6563 Q622.3594,584.2656 622.125,584.5313 Q621.8906,584.7969 621.5156,584.7969 Q621.1719,584.7969 620.9688,584.5938 Q620.7656,584.4063 620.6563,583.8906 Q620.6094,583.5313 620.4219,583.3438 Q620.0938,582.9688 619.4844,582.75 Q618.875,582.5313 618.25,582.5313 Q617.4844,582.5313 616.8516,582.8594 Q616.2188,583.1875 615.7266,583.9375 Q615.2344,584.6875 615.2344,585.7188 L615.2344,586.8125 Q615.2344,588.0469 616.125,588.8672 Q617.0156,589.6875 618.6094,589.6875 Q619.5469,589.6875 620.2031,589.4375 Q620.5938,589.2813 621.0156,588.8438 Q621.2813,588.5781 621.4297,588.5 Q621.5781,588.4219 621.7813,588.4219 Q622.1094,588.4219 622.3672,588.6797 Q622.625,588.9375 622.625,589.2813 Q622.625,589.625 622.2813,590.0313 Q621.7813,590.6094 620.9844,590.9375 Q619.9063,591.3906 618.6094,591.3906 Q617.0938,591.3906 615.8906,590.7656 Q614.9063,590.2656 614.2188,589.1953 Q613.5313,588.125 613.5313,586.8438 L613.5313,585.6875 Q613.5313,584.3594 614.1484,583.2109 Q614.7656,582.0625 615.8594,581.4453 Q616.9531,580.8281 618.1875,580.8281 Q618.9219,580.8281 619.5703,580.9922 Q620.2188,581.1563 620.7656,581.5156 Z " fill="#000000"/><text fill="#000000" font-family="sans-serif" font-size="12" lengthAdjust="spacing" textLength="50" x="632" y="590.5508">TurnOver</text><line style="stroke:#A80036;stroke-width:1.5;" x1="604" x2="684" y1="601.6406" y2="601.6406"/><line style="stroke:#A80036;stroke-width:1.5;" x1="604" x2="684" y1="609.6406" y2="609.6406"/><!--MD5=[0992d3fdc9d3d7c02b735131bb70871d]
class Goal--><rect codeLine="49" fill="#FEFECE" filter="url(#fan10wbbocp3b)" height="48" id="Goal" style="stroke:#A80036;stroke-width:1.5;" width="58" x="482" y="245.6406"/><ellipse cx="497" cy="261.6406" fill="#ADD1B2" rx="11" ry="11" style="stroke:#A80036;stroke-width:1.0;"/><path d="M499.7656,257.5156 Q499.9219,257.2969 500.1094,257.1875 Q500.2969,257.0781 500.5156,257.0781 Q500.8906,257.0781 501.125,257.3359 Q501.3594,257.5938 501.3594,258.2031 L501.3594,259.6563 Q501.3594,260.2656 501.125,260.5313 Q500.8906,260.7969 500.5156,260.7969 Q500.1719,260.7969 499.9688,260.5938 Q499.7656,260.4063 499.6563,259.8906 Q499.6094,259.5313 499.4219,259.3438 Q499.0938,258.9688 498.4844,258.75 Q497.875,258.5313 497.25,258.5313 Q496.4844,258.5313 495.8516,258.8594 Q495.2188,259.1875 494.7266,259.9375 Q494.2344,260.6875 494.2344,261.7188 L494.2344,262.8125 Q494.2344,264.0469 495.125,264.8672 Q496.0156,265.6875 497.6094,265.6875 Q498.5469,265.6875 499.2031,265.4375 Q499.5938,265.2813 500.0156,264.8438 Q500.2813,264.5781 500.4297,264.5 Q500.5781,264.4219 500.7813,264.4219 Q501.1094,264.4219 501.3672,264.6797 Q501.625,264.9375 501.625,265.2813 Q501.625,265.625 501.2813,266.0313 Q500.7813,266.6094 499.9844,266.9375 Q498.9063,267.3906 497.6094,267.3906 Q496.0938,267.3906 494.8906,266.7656 Q493.9063,266.2656 493.2188,265.1953 Q492.5313,264.125 492.5313,262.8438 L492.5313,261.6875 Q492.5313,260.3594 493.1484,259.2109 Q493.7656,258.0625 494.8594,257.4453 Q495.9531,256.8281 497.1875,256.8281 Q497.9219,256.8281 498.5703,256.9922 Q499.2188,257.1563 499.7656,257.5156 Z " fill="#000000"/><text fill="#000000" font-family="sans-serif" font-size="12" lengthAdjust="spacing" textLength="26" x="511" y="266.5508">Goal</text><line style="stroke:#A80036;stroke-width:1.5;" x1="483" x2="539" y1="277.6406" y2="277.6406"/><line style="stroke:#A80036;stroke-width:1.5;" x1="483" x2="539" y1="285.6406" y2="285.6406"/><!--MD5=[ce8dacaa0faa2042a32c7a430a6191a6]
class FoundationComplete--><rect fill="#FEFECE" filter="url(#fan10wbbocp3b)" height="48" id="FoundationComplete" style="stroke:#A80036;stroke-width:1.5;" width="148" x="407" y="353.6406"/><ellipse cx="422" cy="369.6406" fill="#ADD1B2" rx="11" ry="11" style="stroke:#A80036;stroke-width:1.0;"/><path d="M424.7656,365.5156 Q424.9219,365.2969 425.1094,365.1875 Q425.2969,365.0781 425.5156,365.0781 Q425.8906,365.0781 426.125,365.3359 Q426.3594,365.5938 426.3594,366.2031 L426.3594,367.6563 Q426.3594,368.2656 426.125,368.5313 Q425.8906,368.7969 425.5156,368.7969 Q425.1719,368.7969 424.9688,368.5938 Q424.7656,368.4063 424.6563,367.8906 Q424.6094,367.5313 424.4219,367.3438 Q424.0938,366.9688 423.4844,366.75 Q422.875,366.5313 422.25,366.5313 Q421.4844,366.5313 420.8516,366.8594 Q420.2188,367.1875 419.7266,367.9375 Q419.2344,368.6875 419.2344,369.7188 L419.2344,370.8125 Q419.2344,372.0469 420.125,372.8672 Q421.0156,373.6875 422.6094,373.6875 Q423.5469,373.6875 424.2031,373.4375 Q424.5938,373.2813 425.0156,372.8438 Q425.2813,372.5781 425.4297,372.5 Q425.5781,372.4219 425.7813,372.4219 Q426.1094,372.4219 426.3672,372.6797 Q426.625,372.9375 426.625,373.2813 Q426.625,373.625 426.2813,374.0313 Q425.7813,374.6094 424.9844,374.9375 Q423.9063,375.3906 422.6094,375.3906 Q421.0938,375.3906 419.8906,374.7656 Q418.9063,374.2656 418.2188,373.1953 Q417.5313,372.125 417.5313,370.8438 L417.5313,369.6875 Q417.5313,368.3594 418.1484,367.2109 Q418.7656,366.0625 419.8594,365.4453 Q420.9531,364.8281 422.1875,364.8281 Q422.9219,364.8281 423.5703,364.9922 Q424.2188,365.1563 424.7656,365.5156 Z " fill="#000000"/><text fill="#000000" font-family="sans-serif" font-size="12" lengthAdjust="spacing" textLength="116" x="436" y="374.5508">FoundationComplete</text><line style="stroke:#A80036;stroke-width:1.5;" x1="408" x2="554" y1="385.6406" y2="385.6406"/><line style="stroke:#A80036;stroke-width:1.5;" x1="408" x2="554" y1="393.6406" y2="393.6406"/><!--MD5=[d0e37a71a001f6053d69fd29d330fd4f]
link Klondike to Player--><path codeLine="69" d="M572.3658,88.574 C572.3658,88.574 583.83,113.8906 589.05,125.4206 " fill="none" id="Klondike-Player" style="stroke:#A80036;stroke-width:1.0;"/><polygon fill="#A80036" points="594.44,137.3206,594.3752,127.472,592.3793,132.765,587.0862,130.7691,594.44,137.3206" style="stroke:#A80036;stroke-width:1.0;"/><line style="stroke:#A80036;stroke-width:1.0;" x1="592.3793" x2="589.075" y1="132.765" y2="125.4756"/><polygon fill="#A80036" points="567.42,77.6406,566.2484,84.7559,572.3658,88.574,573.5373,81.4587,567.42,77.6406" style="stroke:#A80036;stroke-width:1.0;"/><!--MD5=[9b64323d43dff3067458f683faaa198b]
link Klondike to Pile--><path codeLine="70" d="M530.2267,87.0516 C530.2267,87.0516 370.11,280.8706 318.9,342.8706 " fill="none" id="Klondike-Pile" style="stroke:#A80036;stroke-width:1.0;"/><polygon fill="#A80036" points="310.31,353.2606,319.1292,348.8763,313.4974,349.4083,312.9654,343.7765,310.31,353.2606" style="stroke:#A80036;stroke-width:1.0;"/><line style="stroke:#A80036;stroke-width:1.0;" x1="313.4974" x2="318.595" y1="349.4083" y2="343.2406"/><polygon fill="#A80036" points="537.87,77.8006,530.9647,79.8784,530.2267,87.0516,537.132,84.9739,537.87,77.8006" style="stroke:#A80036;stroke-width:1.0;"/><text fill="#000000" font-family="sans-serif" font-size="13" lengthAdjust="spacing" textLength="7" x="307.1637" y="342.906">4</text><!--MD5=[7d7afaf8cc2ad62f66d9fb1ba9e5e8a9]
link Klondike to Deck--><path codeLine="71" d="M602.6784,85.0726 C602.6784,85.0726 641.86,117.7906 656,137.6406 C676.63,166.6106 690,205.1806 697.67,232.9506 " fill="none" id="Klondike-Deck" style="stroke:#A80036;stroke-width:1.0;"/><polygon fill="#A80036" points="700.99,245.6306,702.5842,235.9116,699.7257,240.7931,694.8442,237.9346,700.99,245.6306" style="stroke:#A80036;stroke-width:1.0;"/><line style="stroke:#A80036;stroke-width:1.0;" x1="699.7257" x2="697.7" y1="240.7931" y2="233.0606"/><polygon fill="#A80036" points="593.05,77.9106,595.4769,84.7011,602.6784,85.0726,600.2515,78.2821,593.05,77.9106" style="stroke:#A80036;stroke-width:1.0;"/><!--MD5=[dab1da9339276fc887094323b3198398]
link Klondike to Goal--><path codeLine="72" d="M549.4595,89.6808 C549.4595,89.6808 527.25,193.0506 518.78,232.4606 " fill="none" id="Klondike-Goal" style="stroke:#A80036;stroke-width:1.0;"/><polygon fill="#A80036" points="516,245.3606,521.8098,237.4079,517.0555,240.4733,513.9901,235.719,516,245.3606" style="stroke:#A80036;stroke-width:1.0;"/><line style="stroke:#A80036;stroke-width:1.0;" x1="517.0555" x2="518.735" y1="240.4733" y2="232.6506"/><polygon fill="#A80036" points="551.99,77.9506,546.8147,82.9722,549.4595,89.6808,554.6348,84.6592,551.99,77.9506" style="stroke:#A80036;stroke-width:1.0;"/><!--MD5=[17b72e1da38a4cd9d67500861211e261]
link Player to Action--><path codeLine="74" d="M605.65,185.6406 C606.1,201.6406 606.71,223.0906 607.19,240.1706 " fill="none" id="Player-to-Action" style="stroke:#A80036;stroke-width:1.0;stroke-dasharray:7.0,7.0;"/><polygon fill="#A80036" points="607.34,245.3206,611.0813,236.2101,607.1972,240.3227,603.0846,236.4385,607.34,245.3206" style="stroke:#A80036;stroke-width:1.0;"/><!--MD5=[1571e4e0b7cdbae74b04c97a95677c54]
link Player to Goal--><path codeLine="75" d="M576.6375,194.6183 C576.6375,194.6183 551.56,222.9006 540.31,235.5906 " fill="none" id="Player-Goal" style="stroke:#A80036;stroke-width:1.0;"/><polygon fill="#A80036" points="531.68,245.3206,540.6445,241.2416,534.9977,241.5799,534.6594,235.9332,531.68,245.3206" style="stroke:#A80036;stroke-width:1.0;"/><line style="stroke:#A80036;stroke-width:1.0;" x1="534.9977" x2="540.305" y1="241.5799" y2="235.5906"/><polygon fill="#FFFFFF" points="584.6,185.6406,577.6262,187.4753,576.6375,194.6183,583.6113,192.7836,584.6,185.6406" style="stroke:#A80036;stroke-width:1.0;"/><!--MD5=[8d9472248db2c295e563e60b72e74922]
link Player to Deck--><path codeLine="76" d="M626.92,185.6406 C642.56,202.0606 663.66,224.2006 680.13,241.4806 " fill="none" id="Player-to-Deck" style="stroke:#A80036;stroke-width:1.0;stroke-dasharray:7.0,7.0;"/><polygon fill="#A80036" points="683.78,245.3206,680.4678,236.0454,680.331,241.7006,674.6758,241.5638,683.78,245.3206" style="stroke:#A80036;stroke-width:1.0;"/><!--MD5=[cae91ec617815168116b3a1f7fb7ed8f]
link Goal to FoundationComplete--><path codeLine="77" d="M501.2212,305.1868 C501.2212,305.1868 494.32,329.5906 491.2,340.5906 " fill="none" id="Goal-FoundationComplete" style="stroke:#A80036;stroke-width:1.0;"/><polygon fill="#A80036" points="487.6,353.3206,493.9003,345.7506,488.962,348.5097,486.2029,343.5714,487.6,353.3206" style="stroke:#A80036;stroke-width:1.0;"/><line style="stroke:#A80036;stroke-width:1.0;" x1="488.962" x2="491.14" y1="348.5097" y2="340.8106"/><polygon fill="#A80036" points="504.49,293.6406,499.0069,298.3241,501.2212,305.1868,506.7043,300.5033,504.49,293.6406" style="stroke:#A80036;stroke-width:1.0;"/><!--MD5=[766f113a8589292d06ae1421a23ace56]
link FoundationComplete to Foundation--><path codeLine="78" d="M471.45,401.6406 C464.75,417.7806 455.76,439.4606 448.64,456.6106 " fill="none" id="FoundationComplete-to-Foundation" style="stroke:#A80036;stroke-width:1.0;"/><polygon fill="#A80036" points="446.68,461.3206,453.8234,454.5404,448.596,456.7023,446.4341,451.4748,446.68,461.3206" style="stroke:#A80036;stroke-width:1.0;"/><text fill="#000000" font-family="sans-serif" font-size="13" lengthAdjust="spacing" textLength="7" x="441.1864" y="450.9806">4</text><!--MD5=[bbde0cfead2dc8ac8b56e35301a54e03]
link FoundationComplete to Suit--><path codeLine="79" d="M519.4271,409.226 C519.4271,409.226 662.53,523.0606 713.03,563.2306 " fill="none" id="FoundationComplete-Suit" style="stroke:#A80036;stroke-width:1.0;"/><polygon fill="#A80036" points="723.48,571.5406,718.9315,562.805,719.5687,568.4259,713.9479,569.0631,723.48,571.5406" style="stroke:#A80036;stroke-width:1.0;"/><line style="stroke:#A80036;stroke-width:1.0;" x1="719.5687" x2="713.305" y1="568.4259" y2="563.4506"/><polygon fill="#A80036" points="510.04,401.7506,512.2418,408.6174,519.4271,409.226,517.2254,402.3593,510.04,401.7506" style="stroke:#A80036;stroke-width:1.0;"/><text fill="#000000" font-family="sans-serif" font-size="13" lengthAdjust="spacing" textLength="7" x="708.4121" y="560.9936">4</text><!--MD5=[c20001f52e27aec3b65ebc68b96f5d89]
reverse link Goal to Action--><path codeLine="81" d="M545.33,269.6406 C555.18,269.6406 565.03,269.6406 574.88,269.6406 " fill="none" id="Goal-backto-Action" style="stroke:#A80036;stroke-width:1.0;"/><polygon fill="#A80036" points="540.18,269.6406,549.18,273.6406,545.18,269.6406,549.18,265.6406,540.18,269.6406" style="stroke:#A80036;stroke-width:1.0;"/><!--MD5=[41de15b107b23d1b7c92311761b50ccb]
reverse link Action to Move--><path codeLine="82" d="M597.79,313.3206 C581.33,382.1706 549.46,515.4406 536.59,569.2606 " fill="none" id="Action-backto-Move" style="stroke:#A80036;stroke-width:1.0;"/><polygon fill="none" points="591,311.6206,602.46,293.8006,604.62,314.8806,591,311.6206" style="stroke:#A80036;stroke-width:1.0;"/><!--MD5=[f391686767fbd823499564f5826d8e4c]
reverse link Action to TurnOver--><path codeLine="83" d="M623.66,313.1306 C627.75,325.9806 631.66,340.2306 634,353.6406 C647.63,431.7806 646.49,526.3606 645.03,569.3506 " fill="none" id="Action-backto-TurnOver" style="stroke:#A80036;stroke-width:1.0;"/><polygon fill="none" points="616.91,315.0406,617.07,293.8506,630.16,310.5106,616.91,315.0406" style="stroke:#A80036;stroke-width:1.0;"/><!--MD5=[610353d3a72395b77e7f561f5987d448]
link Move to Card--><path codeLine="84" d="M530.23,617.7806 C529.65,635.1606 528.85,659.2806 528.18,679.1006 " fill="none" id="Move-to-Card" style="stroke:#A80036;stroke-width:1.0;"/><polygon fill="#A80036" points="528.01,684.3006,532.2907,675.4307,528.1671,679.3031,524.2947,675.1794,528.01,684.3006" style="stroke:#A80036;stroke-width:1.0;"/><text fill="#000000" font-family="sans-serif" font-size="13" lengthAdjust="spacing" textLength="29" x="496.2277" y="673.735">1..12</text><!--MD5=[2715aadc66cd07d3a6a04334626f0cce]
link TurnOver to Card--><path codeLine="85" d="M621.44,617.7806 C604.13,635.5306 579.98,660.3106 560.43,680.3606 " fill="none" id="TurnOver-to-Card" style="stroke:#A80036;stroke-width:1.0;"/><polygon fill="#A80036" points="556.58,684.3006,565.7288,680.6537,560.0723,680.7224,560.0036,675.066,556.58,684.3006" style="stroke:#A80036;stroke-width:1.0;"/><!--MD5=[1686cafc001cbb054836a454f368ddc9]
link Pile to Card--><path codeLine="87" d="M310.8139,412.0305 C310.8139,412.0305 351,477.6106 373,509.6406 C413.14,568.0806 462.94,633.1506 494.84,673.9806 " fill="none" id="Pile-Card" style="stroke:#A80036;stroke-width:1.0;"/><polygon fill="#A80036" points="502.95,684.3306,500.5479,674.7792,499.8662,680.3948,494.2506,679.7132,502.95,684.3306" style="stroke:#A80036;stroke-width:1.0;"/><line style="stroke:#A80036;stroke-width:1.0;" x1="499.8662" x2="494.93" y1="680.3948" y2="674.0956"/><polygon fill="#FFFFFF" points="304.64,401.7406,304.297,408.9436,310.8139,412.0305,311.1569,404.8276,304.64,401.7406" style="stroke:#A80036;stroke-width:1.0;"/><!--MD5=[a3b0419bdb877a6921c502f7ab916277]
reverse link Pile to Stock--><path codeLine="88" d="M245.61,396.3206 C204.08,412.6806 141.06,437.9706 87,461.6406 C81.23,464.1606 75.13,466.9406 69.26,469.6706 " fill="none" id="Pile-backto-Stock" style="stroke:#A80036;stroke-width:1.0;"/><polygon fill="none" points="243.23,389.7306,264.41,388.9406,248.34,402.7606,243.23,389.7306" style="stroke:#A80036;stroke-width:1.0;"/><!--MD5=[0cc7312144b7b0e8e85651666602557e]
reverse link Pile to Waste--><path codeLine="89" d="M247.84,408.5406 C223.57,425.3506 193.73,446.0306 171.28,461.5806 " fill="none" id="Pile-backto-Waste" style="stroke:#A80036;stroke-width:1.0;"/><polygon fill="none" points="243.92,402.7406,264.35,397.1006,251.9,414.2506,243.92,402.7406" style="stroke:#A80036;stroke-width:1.0;"/><!--MD5=[6d28caff8698f66462643c822ec8500b]
reverse link Pile to Foundation--><path codeLine="90" d="M334.12,409.9506 C356.94,426.5206 384.47,446.5006 405.31,461.6306 " fill="none" id="Pile-backto-Foundation" style="stroke:#A80036;stroke-width:1.0;"/><polygon fill="none" points="329.85,415.5006,317.78,398.0806,338.08,404.1706,329.85,415.5006" style="stroke:#A80036;stroke-width:1.0;"/><text fill="#000000" font-family="sans-serif" font-size="13" lengthAdjust="spacing" textLength="7" x="389.2926" y="450.9682">4</text><!--MD5=[b0173922ba304e58e67aa3279a656791]
reverse link Pile to Tableau--><path codeLine="91" d="M272.96,420.2106 C266.9,434.1806 260.35,449.2606 255.12,461.3206 " fill="none" id="Pile-backto-Tableau" style="stroke:#A80036;stroke-width:1.0;"/><polygon fill="none" points="266.64,417.2006,281.02,401.6406,279.48,422.7706,266.64,417.2006" style="stroke:#A80036;stroke-width:1.0;"/><text fill="#000000" font-family="sans-serif" font-size="13" lengthAdjust="spacing" textLength="7" x="249.7336" y="450.9806">7</text><!--MD5=[57e9d7c6143663dd197b3773f9bffcb8]
link Deck to Suit--><path codeLine="93" d="M710.7831,305.6903 C710.7831,305.6903 736.57,494.3406 745.04,556.3406 " fill="none" id="Deck-Suit" style="stroke:#A80036;stroke-width:1.0;"/><polygon fill="#A80036" points="746.81,569.2606,749.5456,559.7993,746.1283,564.3073,741.6203,560.89,746.81,569.2606" style="stroke:#A80036;stroke-width:1.0;"/><line style="stroke:#A80036;stroke-width:1.0;" x1="746.1283" x2="745.045" y1="564.3073" y2="556.3806"/><polygon fill="#A80036" points="709.16,293.8006,706.0083,300.2865,710.7831,305.6903,713.9348,299.2044,709.16,293.8006" style="stroke:#A80036;stroke-width:1.0;"/><text fill="#000000" font-family="sans-serif" font-size="13" lengthAdjust="spacing" textLength="7" x="733.6918" y="558.906">4</text><!--MD5=[683358a069d0c59038199a022c940e27]
link Suit to Card--><path codeLine="94" d="M712.5807,614.091 C712.5807,614.091 633.16,655.7706 593,677.6406 C590.93,678.7706 588.82,679.9206 586.69,681.0906 " fill="none" id="Suit-Card" style="stroke:#A80036;stroke-width:1.0;"/><polygon fill="#A80036" points="575.23,687.4206,585.0418,686.5674,579.606,685.0018,581.1716,679.5659,575.23,687.4206" style="stroke:#A80036;stroke-width:1.0;"/><line style="stroke:#A80036;stroke-width:1.0;" x1="579.606" x2="586.6" y1="685.0018" y2="681.1406"/><polygon fill="#A80036" points="723.22,608.5406,716.0503,607.7694,712.5807,614.091,719.7505,614.8622,723.22,608.5406" style="stroke:#A80036;stroke-width:1.0;"/><text fill="#000000" font-family="sans-serif" font-size="13" lengthAdjust="spacing" textLength="14" x="582.9967" y="679.8586">13</text><!--MD5=[dab4fdc688f775bd2cd14c67a04f3f7b]
link Card to Rank--><path codeLine="95" d="M527,746.7306 C527,763.3906 527,785.3006 527,808.0706 " fill="none" id="Card-to-Rank" style="stroke:#A80036;stroke-width:1.0;"/><polygon fill="#A80036" points="527,813.2506,531,804.2506,527,808.2506,523,804.2506,527,813.2506" style="stroke:#A80036;stroke-width:1.0;"/><!--MD5=[177767f5f369ddd7a2766db2fec86924]
link Suit to Color--><path codeLine="97" d="M750,617.7806 C750,633.2206 750,653.9706 750,672.3106 " fill="none" id="Suit-to-Color" style="stroke:#A80036;stroke-width:1.0;"/><polygon fill="#A80036" points="750,677.4106,754,668.4106,750,672.4106,746,668.4106,750,677.4106" style="stroke:#A80036;stroke-width:1.0;"/><!--MD5=[25fa05be7fc6c2cb275c7152828a9718]
reverse link Suit to Hearts--><path codeLine="98" d="M795.2,616.1706 C827.53,632.0606 871.73,654.8006 909,677.6406 C914.76,681.1706 920.73,685.1206 926.48,689.0906 " fill="none" id="Suit-backto-Hearts" style="stroke:#A80036;stroke-width:1.0;"/><polygon fill="none" points="791.71,622.2506,776.78,607.2206,797.83,609.6606,791.71,622.2506" style="stroke:#A80036;stroke-width:1.0;"/><!--MD5=[301fddbe6f17a2d964e3c651ab3d3917]
reverse link Suit to Spades--><path codeLine="99" d="M783.24,633.0006 C797.62,649.5906 814.21,668.7206 827.71,684.3006 " fill="none" id="Suit-backto-Spades" style="stroke:#A80036;stroke-width:1.0;"/><polygon fill="none" points="777.86,637.4806,770.05,617.7806,788.44,628.3106,777.86,637.4806" style="stroke:#A80036;stroke-width:1.0;"/><!--MD5=[5d0c86e9e9423f4b9738537358676477]
reverse link Suit to Diamonds--><path codeLine="100" d="M796.42,605.8906 C849.89,619.6206 939.78,645.0806 1013,677.6406 C1018.91,680.2706 1024.97,683.3206 1030.88,686.5206 " fill="none" id="Suit-backto-Diamonds" style="stroke:#A80036;stroke-width:1.0;"/><polygon fill="none" points="794.55,612.6406,776.85,600.9806,797.96,599.0606,794.55,612.6406" style="stroke:#A80036;stroke-width:1.0;"/><!--MD5=[0d4c0d6b9224dbd7f36db996e712d955]
reverse link Suit to Clubs--><path codeLine="101" d="M717.08,633.0006 C702.84,649.5906 686.41,668.7206 673.04,684.3006 " fill="none" id="Suit-backto-Clubs" style="stroke:#A80036;stroke-width:1.0;"/><polygon fill="none" points="711.8,628.3906,730.14,617.7806,722.43,637.5106,711.8,628.3906" style="stroke:#A80036;stroke-width:1.0;"/><!--MD5=[f4bd5a2cf8e421edbfdb959a143ea14f]
@startuml klondike- -vocabulary

title Klondike Vocabulary

class Klondike
class Player

class Pile
    class Stock
    class Waste
    class Foundation
    class Tableau

class Deck

class Card {
    faceup = boolean
}
enum Rank {
    Ace,
    Two,
    Three,
    Four,
    Five,
    Six,
    Seven,
    Eight,
    Nine,
    Ten,
    Jack,
    Queen,
    King
}

class Suit
    class Spades
    class Hearts
    class Diamonds
    class Clubs

enum Color {
    Red,
    Black
}

abstract Action
    class Move
    class TurnOver

class Goal

class Spades {
    color = black
}

class Clubs {
    color = black
}

class Diamonds {
    color = red
}

class Hearts {
    color = red
}



Klondike *- -> Player
Klondike *- -> "4" Pile
Klondike *- -> Deck
Klondike *- -> Goal

Player ..> Action
Player o- -> Goal
Player ..> Deck
Goal *- -> FoundationComplete
FoundationComplete - -> "4" Foundation
FoundationComplete *- - -> "4" Suit

Action -left-> Goal
Action <|-down- - Move
Action <|-down- - TurnOver
Move - -> "1..12" Card
TurnOver - -> Card

Pile o- -> Card
Pile <|-down- Stock
Pile <|-down- Waste
Pile <|-down- "4" Foundation
Pile <|-down- "7" Tableau

Deck *- - -> "4 " Suit
Suit *- -> "13" Card
Card - -> Rank

Suit - -> Color
Suit <|- - Hearts
Suit <|- - Spades
Suit <|- - Diamonds
Suit <|- - Clubs



@enduml

PlantUML version 1.2022.0(Tue Jan 11 17:16:42 CET 2022)
(GPL source distribution)
Java Runtime: Java(TM) SE Runtime Environment
JVM: Java HotSpot(TM) 64-Bit Server VM
Default Encoding: Cp1252
Language: es
Country: ES
--></g></svg>