<?xml version="1.0" encoding="UTF-8" standalone="no"?><svg xmlns="http://www.w3.org/2000/svg" xmlns:xlink="http://www.w3.org/1999/xlink" contentScriptType="application/ecmascript" contentStyleType="text/css" height="351px" preserveAspectRatio="none" style="width:1024px;height:351px;background:#FFFFFF;" version="1.1" viewBox="0 0 1024 351" width="1024px" zoomAndPan="magnify"><defs><filter height="300%" id="f10crwcs6twwrz" width="300%" x="-1" y="-1"><feGaussianBlur result="blurOut" stdDeviation="2.0"/><feColorMatrix in="blurOut" result="blurOut2" type="matrix" values="0 0 0 0 0 0 0 0 0 0 0 0 0 0 0 0 0 0 .4 0"/><feOffset dx="4.0" dy="4.0" in="blurOut2" result="blurOut3"/><feBlend in="SourceGraphic" in2="blurOut3" mode="normal"/></filter></defs><g><text fill="#000000" font-family="sans-serif" font-size="18" lengthAdjust="spacing" textLength="167" x="422" y="18.6855">Klondike. Initial State</text><rect fill="#FEFECE" filter="url(#f10crwcs6twwrz)" height="52.25" style="stroke:#A80036;stroke-width:1.5;" width="78" x="235.5" y="29.6406"/><text fill="#000000" font-family="sans-serif" font-size="12" lengthAdjust="spacing" textLength="64" x="242.5" y="44.0977">myKlondike</text><line style="stroke:#A80036;stroke-width:1.5;" x1="236.5" x2="312.5" y1="48.7344" y2="48.7344"/><text fill="#000000" font-family="sans-serif" font-size="10" lengthAdjust="spacing" textLength="53" x="241.5" y="63.1152">nGame = 0</text><text fill="#000000" font-family="sans-serif" font-size="10" lengthAdjust="spacing" textLength="44" x="241.5" y="75.6934">status = 0</text><rect fill="#FEFECE" filter="url(#f10crwcs6twwrz)" height="39.6719" style="stroke:#A80036;stroke-width:1.5;" width="72" x="467.5" y="35.6406"/><text fill="#000000" font-family="sans-serif" font-size="12" lengthAdjust="spacing" textLength="24" x="491.5" y="50.0977">goal</text><line style="stroke:#A80036;stroke-width:1.5;" x1="468.5" x2="538.5" y1="54.7344" y2="54.7344"/><text fill="#000000" font-family="sans-serif" font-size="10" lengthAdjust="spacing" textLength="60" x="473.5" y="69.1152">status = false</text><rect fill="#FEFECE" filter="url(#f10crwcs6twwrz)" height="52.25" style="stroke:#A80036;stroke-width:1.5;" width="83" x="349" y="29.6406"/><text fill="#000000" font-family="sans-serif" font-size="12" lengthAdjust="spacing" textLength="51" x="365" y="44.0977">thePlayer</text><line style="stroke:#A80036;stroke-width:1.5;" x1="350" x2="431" y1="48.7344" y2="48.7344"/><text fill="#000000" font-family="sans-serif" font-size="10" lengthAdjust="spacing" textLength="27" x="355" y="63.1152">id = 1</text><text fill="#000000" font-family="sans-serif" font-size="10" lengthAdjust="spacing" textLength="71" x="355" y="75.6934">name = 'Diego'</text><rect fill="#FEFECE" filter="url(#f10crwcs6twwrz)" height="52.25" style="stroke:#A80036;stroke-width:1.5;" width="79" x="7" y="148.1406"/><text fill="#000000" font-family="sans-serif" font-size="12" lengthAdjust="spacing" textLength="50" x="21.5" y="162.5977">stockPile</text><line style="stroke:#A80036;stroke-width:1.5;" x1="8" x2="85" y1="167.2344" y2="167.2344"/><text fill="#000000" font-family="sans-serif" font-size="10" lengthAdjust="spacing" textLength="56" x="13" y="181.6152">nCards = 23</text><text fill="#000000" font-family="sans-serif" font-size="10" lengthAdjust="spacing" textLength="67" x="13" y="194.1934">faceup = false</text><rect fill="#FEFECE" filter="url(#f10crwcs6twwrz)" height="39.6719" style="stroke:#A80036;stroke-width:1.5;" width="68" x="121.5" y="154.1406"/><text fill="#000000" font-family="sans-serif" font-size="12" lengthAdjust="spacing" textLength="54" x="128.5" y="168.5977">wastePile</text><line style="stroke:#A80036;stroke-width:1.5;" x1="122.5" x2="188.5" y1="173.2344" y2="173.2344"/><text fill="#000000" font-family="sans-serif" font-size="10" lengthAdjust="spacing" textLength="50" x="127.5" y="187.6152">nCards = 0</text><rect fill="#FEFECE" filter="url(#f10crwcs6twwrz)" height="39.6719" style="stroke:#A80036;stroke-width:1.5;" width="100" x="224.5" y="154.1406"/><text fill="#000000" font-family="sans-serif" font-size="12" lengthAdjust="spacing" textLength="86" x="231.5" y="168.5977">foundationPile1</text><line style="stroke:#A80036;stroke-width:1.5;" x1="225.5" x2="323.5" y1="173.2344" y2="173.2344"/><text fill="#000000" font-family="sans-serif" font-size="10" lengthAdjust="spacing" textLength="50" x="230.5" y="187.6152">nCards = 0</text><path d="M216,282.6406 L216,325.3438 A0,0 0 0 0 216,325.3438 L327,325.3438 A0,0 0 0 0 327,325.3438 L327,292.6406 L317,282.6406 L275.98,282.6406 L274.05,194.3006 L267.98,282.6406 L216,282.6406 A0,0 0 0 0 216,282.6406 " fill="#FBFB77" filter="url(#f10crwcs6twwrz)" style="stroke:#A80036;stroke-width:1.0;"/><path d="M317,282.6406 L317,292.6406 L327,292.6406 L317,282.6406 " fill="#FBFB77" style="stroke:#A80036;stroke-width:1.0;"/><text fill="#000000" font-family="sans-serif" font-size="13" lengthAdjust="spacing" textLength="42" x="222" y="301.1357">4 equal</text><text fill="#000000" font-family="sans-serif" font-size="13" lengthAdjust="spacing" textLength="90" x="222" y="317.4873">foundation piles</text><rect fill="#FEFECE" filter="url(#f10crwcs6twwrz)" height="52.25" style="stroke:#A80036;stroke-width:1.5;" width="304" x="359.5" y="148.1406"/><text fill="#000000" font-family="sans-serif" font-size="12" lengthAdjust="spacing" textLength="69" x="477" y="162.5977">tableauPile1</text><line style="stroke:#A80036;stroke-width:1.5;" x1="360.5" x2="662.5" y1="167.2344" y2="167.2344"/><text fill="#000000" font-family="sans-serif" font-size="10" lengthAdjust="spacing" textLength="50" x="365.5" y="181.6152">nCards = 1</text><text fill="#000000" font-family="sans-serif" font-size="10" lengthAdjust="spacing" textLength="292" x="365.5" y="194.1934">card1 = { order:1, rank:2, suite:clubs, color:black, faceup:true }</text><path d="M362,266.6406 L362,342.0469 A0,0 0 0 0 362,342.0469 L665,342.0469 A0,0 0 0 0 665,342.0469 L665,276.6406 L655,266.6406 L516.92,266.6406 L511.9,200.4306 L508.92,266.6406 L362,266.6406 A0,0 0 0 0 362,266.6406 " fill="#FBFB77" filter="url(#f10crwcs6twwrz)" style="stroke:#A80036;stroke-width:1.0;"/><path d="M655,266.6406 L655,276.6406 L665,276.6406 L655,266.6406 " fill="#FBFB77" style="stroke:#A80036;stroke-width:1.0;"/><text fill="#000000" font-family="sans-serif" font-size="13" lengthAdjust="spacing" textLength="113" x="368" y="285.1357">7 total tableau piles</text><text fill="#000000" font-family="sans-serif" font-size="13" lengthAdjust="spacing" textLength="170" x="368" y="301.4873">Last card face up in each pile</text><text fill="#000000" font-family="sans-serif" font-size="13" lengthAdjust="spacing" textLength="278" x="368" y="317.8389">0, 1, 2, 3, 4, 5 &amp; 6 face down cards in each pile,</text><text fill="#000000" font-family="sans-serif" font-size="13" lengthAdjust="spacing" textLength="155" x="368" y="334.1904">repectively, from 1 to 7 pile</text><rect fill="#FEFECE" filter="url(#f10crwcs6twwrz)" height="64.8281" style="stroke:#A80036;stroke-width:1.5;" width="311" x="699" y="141.6406"/><text fill="#000000" font-family="sans-serif" font-size="12" lengthAdjust="spacing" textLength="69" x="820" y="156.0977">tableauPile2</text><line style="stroke:#A80036;stroke-width:1.5;" x1="700" x2="1009" y1="160.7344" y2="160.7344"/><text fill="#000000" font-family="sans-serif" font-size="10" lengthAdjust="spacing" textLength="50" x="705" y="175.1152">nCards = 2</text><text fill="#000000" font-family="sans-serif" font-size="10" lengthAdjust="spacing" textLength="289" x="705" y="187.6934">card1 = { order:1, rank:8, suite:hearts, color:red, faceup:false }</text><text fill="#000000" font-family="sans-serif" font-size="10" lengthAdjust="spacing" textLength="299" x="705" y="200.2715">card2 = { order:2, rank:4, suite:spades, color:black, faceup:true }</text><!--MD5=[2222e3c4ee03d88807c6978b7888f86b]
link myKlondike to thePlayer--><path codeLine="58" d="M325.92,55.6406 C325.92,55.6406 332.74,55.6406 335.59,55.6406 " fill="none" id="myKlondike-thePlayer" style="stroke:#A80036;stroke-width:1.0;"/><polygon fill="#A80036" points="348.92,55.6406,339.92,51.6406,343.92,55.6406,339.92,59.6406,348.92,55.6406" style="stroke:#A80036;stroke-width:1.0;"/><line style="stroke:#A80036;stroke-width:1.0;" x1="343.92" x2="335.92" y1="55.6406" y2="55.6406"/><polygon fill="#A80036" points="313.92,55.6406,319.92,59.6406,325.92,55.6406,319.92,51.6406,313.92,55.6406" style="stroke:#A80036;stroke-width:1.0;"/><!--MD5=[d5c8ba7e2b2502fdde6b5ae1f3d7a78f]
link myKlondike to stockPile--><path codeLine="59" d="M224.4147,80.8314 C224.4147,80.8314 143.38,120.7206 103.5,141.6406 C101.66,142.6106 99.79,143.5906 97.91,144.6006 " fill="none" id="myKlondike-stockPile" style="stroke:#A80036;stroke-width:1.0;"/><polygon fill="#A80036" points="86.24,150.8906,96.0601,150.139,90.6408,148.5172,92.2626,143.0978,86.24,150.8906" style="stroke:#A80036;stroke-width:1.0;"/><line style="stroke:#A80036;stroke-width:1.0;" x1="90.6408" x2="97.69" y1="148.5172" y2="144.7156"/><polygon fill="#A80036" points="235.2,75.5706,228.0537,74.6059,224.4147,80.8314,231.5609,81.7962,235.2,75.5706" style="stroke:#A80036;stroke-width:1.0;"/><!--MD5=[d189ae714aeafe633e603490a88e0d3f]
link myKlondike to wastePile--><path codeLine="60" d="M240.1029,90.313 C240.1029,90.313 201.08,128.5206 184.63,144.6206 " fill="none" id="myKlondike-wastePile" style="stroke:#A80036;stroke-width:1.0;"/><polygon fill="#A80036" points="175,154.0506,184.2276,150.6081,178.5711,150.551,178.6282,144.8944,175,154.0506" style="stroke:#A80036;stroke-width:1.0;"/><line style="stroke:#A80036;stroke-width:1.0;" x1="178.5711" x2="184.295" y1="150.551" y2="144.9506"/><polygon fill="#A80036" points="248.68,81.9206,241.594,83.2578,240.1029,90.313,247.1889,88.9759,248.68,81.9206" style="stroke:#A80036;stroke-width:1.0;"/><!--MD5=[190ff11e45e698f436a8805859cdaacf]
link myKlondike to foundationPile1--><path codeLine="61" d="M274.5,93.9206 C274.5,93.9206 274.5,126.6206 274.5,140.8506 " fill="none" id="myKlondike-foundationPile1" style="stroke:#A80036;stroke-width:1.0;"/><polygon fill="#A80036" points="274.5,154.0506,278.5,145.0506,274.5,149.0506,270.5,145.0506,274.5,154.0506" style="stroke:#A80036;stroke-width:1.0;"/><line style="stroke:#A80036;stroke-width:1.0;" x1="274.5" x2="274.5" y1="149.0506" y2="141.0506"/><polygon fill="#A80036" points="274.5,81.9206,270.5,87.9206,274.5,93.9206,278.5,87.9206,274.5,81.9206" style="stroke:#A80036;stroke-width:1.0;"/><!--MD5=[b8c679d54058b3938de06682113bf7ea]
link myKlondike to tableauPile1--><path codeLine="62" d="M324.4124,81.1679 C324.4124,81.1679 409.78,123.1406 448.2,142.0206 " fill="none" id="myKlondike-tableauPile1" style="stroke:#A80036;stroke-width:1.0;"/><polygon fill="#A80036" points="460.29,147.9706,453.9843,140.4051,455.8047,145.761,450.4488,147.5815,460.29,147.9706" style="stroke:#A80036;stroke-width:1.0;"/><line style="stroke:#A80036;stroke-width:1.0;" x1="455.8047" x2="448.62" y1="145.761" y2="142.2306"/><polygon fill="#A80036" points="313.64,75.8806,317.2638,82.1151,324.4124,81.1679,320.7886,74.9335,313.64,75.8806" style="stroke:#A80036;stroke-width:1.0;"/><!--MD5=[00d639e359894bde40860f8f45eaad9d]
link myKlondike to tableauPile2--><path codeLine="63" d="M324.8324,79.4567 C324.8324,79.4567 329.66,81.0906 331.5,81.6406 C482.66,127.0106 526.08,114.1706 681.5,141.6406 C683.02,141.9106 684.54,142.1806 686.07,142.4506 " fill="none" id="myKlondike-tableauPile2" style="stroke:#A80036;stroke-width:1.0;"/><polygon fill="#A80036" points="698.9,144.7306,690.7384,139.2181,693.9771,143.8561,689.3391,147.0947,698.9,144.7306" style="stroke:#A80036;stroke-width:1.0;"/><line style="stroke:#A80036;stroke-width:1.0;" x1="693.9771" x2="686.105" y1="143.8561" y2="142.4556"/><polygon fill="#A80036" points="313.59,75.2606,317.8125,81.1062,324.8324,79.4567,320.6099,73.6112,313.59,75.2606" style="stroke:#A80036;stroke-width:1.0;"/><!--MD5=[0fb303758a2b0795c9e66cb652d060e2]
@startuml klondike- -initial-state

title Klondike. Initial State

object myKlondike {
    nGame = 0
    status = 0
}

object goal {
    status = false
}

object thePlayer {
    id = 1
    name = 'Diego'
}

object stockPile
object wastePile

object stockPile {
    nCards = 23
    faceup = false
}
object wastePile {
    nCards = 0
}
object foundationPile1 {
    nCards = 0
}
note bottom of foundationPile1
    4 equal 
    foundation piles
end note

object tableauPile1
note bottom of tableauPile1
    7 total tableau piles
    Last card face up in each pile
    0, 1, 2, 3, 4, 5 & 6 face down cards in each pile, 
    repectively, from 1 to 7 pile
end note

object tableauPile2

object tableauPile1 {
    nCards = 1
    card1 = { order:1, rank:2, suite:clubs, color:black, faceup:true }
}
object tableauPile2 {
    nCards = 2
    card1 = { order:1, rank:8, suite:hearts, color:red, faceup:false }
    card2 = { order:2, rank:4, suite:spades, color:black, faceup:true }
}



myKlondike *-> thePlayer
myKlondike *- -> stockPile
myKlondike *- -> wastePile
myKlondike *- -> foundationPile1
myKlondike *- -> tableauPile1
myKlondike *- -> tableauPile2



@enduml

PlantUML version 1.2022.0(Tue Jan 11 17:16:42 CET 2022)
(GPL source distribution)
Java Runtime: Java(TM) SE Runtime Environment
JVM: Java HotSpot(TM) 64-Bit Server VM
Default Encoding: Cp1252
Language: es
Country: ES
--></g></svg>