<?xml version="1.0" encoding="UTF-8" standalone="no"?><svg xmlns="http://www.w3.org/2000/svg" xmlns:xlink="http://www.w3.org/1999/xlink" contentScriptType="application/ecmascript" contentStyleType="text/css" height="351px" preserveAspectRatio="none" style="width:1012px;height:351px;background:#FFFFFF;" version="1.1" viewBox="0 0 1012 351" width="1012px" zoomAndPan="magnify"><defs><filter height="300%" id="fkmbreu9i1zdb" width="300%" x="-1" y="-1"><feGaussianBlur result="blurOut" stdDeviation="2.0"/><feColorMatrix in="blurOut" result="blurOut2" type="matrix" values="0 0 0 0 0 0 0 0 0 0 0 0 0 0 0 0 0 0 .4 0"/><feOffset dx="4.0" dy="4.0" in="blurOut2" result="blurOut3"/><feBlend in="SourceGraphic" in2="blurOut3" mode="normal"/></filter></defs><g><text fill="#000000" font-family="sans-serif" font-size="18" lengthAdjust="spacing" textLength="167" x="416.25" y="18.6855">Klondike. Initial State</text><polygon fill="#FEFECE" filter="url(#fkmbreu9i1zdb)" points="224,29.6406,224,29.8508,233.75,29.2263,243.5,29.8339,253.25,30.0403,263,28.9272,272.75,29.5629,282.5,29.2141,292.25,29.2571,302,29.6406,301.9318,29.6406,301.3086,40.0906,302.5536,50.5406,301.3697,60.9906,301.8022,71.4406,302,81.8906,302,82.3226,292.25,81.8048,282.5,81.9589,272.75,81.8587,263,82.0692,253.25,82.1298,243.5,82.4763,233.75,82.5617,224,81.8906,224.6793,81.8906,224.2546,71.4406,224.4636,60.9906,224.7022,50.5406,223.2788,40.0906,224,29.6406" style="stroke:#A80036;stroke-width:1.5;"/><text fill="#000000" font-family="sans-serif" font-size="12" lengthAdjust="spacing" textLength="64" x="231" y="44.0977">myKlondike</text><path d="M225,48.7344 L225,49.0146 L234.5,48.1819 L244,48.9921 L253.5,49.2673 L263,47.7832 L272.5,48.6308 L282,48.1657 L291.5,48.223 L301,48.7344 " fill="#FEFECE" style="stroke:#A80036;stroke-width:1.5;"/><text fill="#000000" font-family="sans-serif" font-size="10" lengthAdjust="spacing" textLength="53" x="230" y="63.1152">nGame = 0</text><text fill="#000000" font-family="sans-serif" font-size="10" lengthAdjust="spacing" textLength="44" x="230" y="75.6934">status = 0</text><polygon fill="#FEFECE" filter="url(#fkmbreu9i1zdb)" points="456,35.6406,456,35.8508,466.2857,35.2263,476.5714,35.8339,486.8571,36.0403,497.1429,34.9272,507.4286,35.5629,517.7143,35.2141,528,35.6406,527.8722,35.6406,527.9773,43.575,527.7695,51.5094,528.1845,59.4438,527.7899,67.3781,528,75.3125,528,75.1147,517.7143,75.7444,507.4286,75.2267,497.1429,75.3807,486.8571,75.2806,476.5714,75.491,466.2857,75.5516,456,75.3125,456.1952,75.3125,456.2237,67.3781,456.2264,59.4438,456.0849,51.5094,456.1545,43.575,456,35.6406" style="stroke:#A80036;stroke-width:1.5;"/><text fill="#000000" font-family="sans-serif" font-size="12" lengthAdjust="spacing" textLength="24" x="480" y="50.0977">goal</text><path d="M457,54.7344 L457,55.0146 L467,54.1819 L477,54.9921 L487,55.2673 L497,53.7832 L507,54.6308 L517,54.1657 L527,54.7344 " fill="#FEFECE" style="stroke:#A80036;stroke-width:1.5;"/><text fill="#000000" font-family="sans-serif" font-size="10" lengthAdjust="spacing" textLength="60" x="462" y="69.1152">status = false</text><polygon fill="#FEFECE" filter="url(#fkmbreu9i1zdb)" points="337.5,29.6406,337.5,29.8508,347.875,29.2263,358.25,29.8339,368.625,30.0403,379,28.9272,389.375,29.5629,399.75,29.2141,410.125,29.2571,420.5,29.6406,420.4318,29.6406,419.8086,40.0906,421.0536,50.5406,419.8697,60.9906,420.3022,71.4406,420.5,81.8906,420.5,82.3226,410.125,81.8048,399.75,81.9589,389.375,81.8587,379,82.0692,368.625,82.1298,358.25,82.4763,347.875,82.5617,337.5,81.8906,338.1793,81.8906,337.7546,71.4406,337.9636,60.9906,338.2022,50.5406,336.7788,40.0906,337.5,29.6406" style="stroke:#A80036;stroke-width:1.5;"/><text fill="#000000" font-family="sans-serif" font-size="12" lengthAdjust="spacing" textLength="51" x="353.5" y="44.0977">thePlayer</text><path d="M338.5,48.7344 L338.5,49.0146 L348.625,48.1819 L358.75,48.9921 L368.875,49.2673 L379,47.7832 L389.125,48.6308 L399.25,48.1657 L409.375,48.223 L419.5,48.7344 " fill="#FEFECE" style="stroke:#A80036;stroke-width:1.5;"/><text fill="#000000" font-family="sans-serif" font-size="10" lengthAdjust="spacing" textLength="27" x="343.5" y="63.1152">id = 1</text><text fill="#000000" font-family="sans-serif" font-size="10" lengthAdjust="spacing" textLength="71" x="343.5" y="75.6934">name = 'Diego'</text><polygon fill="#FEFECE" filter="url(#fkmbreu9i1zdb)" points="7,154.1406,7,154.3508,16.7143,153.7263,26.4286,154.3339,36.1429,154.5403,45.8571,153.4272,55.5714,154.0629,65.2857,153.7141,75,154.1406,74.8722,154.1406,74.9773,162.075,74.7695,170.0094,75.1845,177.9438,74.7899,185.8781,75,193.8125,75,193.6147,65.2857,194.2444,55.5714,193.7267,45.8571,193.8807,36.1429,193.7806,26.4286,193.991,16.7143,194.0516,7,193.8125,7.1952,193.8125,7.2237,185.8781,7.2264,177.9438,7.0849,170.0094,7.1545,162.075,7,154.1406" style="stroke:#A80036;stroke-width:1.5;"/><text fill="#000000" font-family="sans-serif" font-size="12" lengthAdjust="spacing" textLength="50" x="16" y="168.5977">stockPile</text><path d="M8,173.2344 L8,173.5146 L17.4286,172.6819 L26.8571,173.4921 L36.2857,173.7673 L45.7143,172.2832 L55.1429,173.1308 L64.5714,172.6657 L74,173.2344 " fill="#FEFECE" style="stroke:#A80036;stroke-width:1.5;"/><text fill="#000000" font-family="sans-serif" font-size="10" lengthAdjust="spacing" textLength="56" x="13" y="187.6152">nCards = 23</text><polygon fill="#FEFECE" filter="url(#fkmbreu9i1zdb)" points="110,154.1406,110,154.3508,119.7143,153.7263,129.4286,154.3339,139.1429,154.5403,148.8571,153.4272,158.5714,154.0629,168.2857,153.7141,178,154.1406,177.8722,154.1406,177.9773,162.075,177.7695,170.0094,178.1845,177.9438,177.7899,185.8781,178,193.8125,178,193.6147,168.2857,194.2444,158.5714,193.7267,148.8571,193.8807,139.1429,193.7806,129.4286,193.991,119.7143,194.0516,110,193.8125,110.1952,193.8125,110.2237,185.8781,110.2264,177.9438,110.0849,170.0094,110.1545,162.075,110,154.1406" style="stroke:#A80036;stroke-width:1.5;"/><text fill="#000000" font-family="sans-serif" font-size="12" lengthAdjust="spacing" textLength="54" x="117" y="168.5977">wastePile</text><path d="M111,173.2344 L111,173.5146 L120.4286,172.6819 L129.8571,173.4921 L139.2857,173.7673 L148.7143,172.2832 L158.1429,173.1308 L167.5714,172.6657 L177,173.2344 " fill="#FEFECE" style="stroke:#A80036;stroke-width:1.5;"/><text fill="#000000" font-family="sans-serif" font-size="10" lengthAdjust="spacing" textLength="50" x="116" y="187.6152">nCards = 0</text><polygon fill="#FEFECE" filter="url(#fkmbreu9i1zdb)" points="213,154.1406,213,154.3508,223,153.7263,233,154.3339,243,154.5403,253,153.4272,263,154.0629,273,153.7141,283,153.7571,293,154.0725,303,153.4493,313,154.1406,313.1845,154.1406,312.7899,162.075,312.9341,170.0094,313.144,177.9438,312.9714,185.8781,313,193.8125,313,193.8807,303,193.7806,293,193.991,283,194.0516,273,194.3982,263,194.4836,253,194.4918,243,194.0671,233,194.2761,223,194.5147,213,193.8125,212.7596,193.8125,213.2262,185.8781,212.9012,177.9438,213.1779,170.0094,212.835,162.075,213,154.1406" style="stroke:#A80036;stroke-width:1.5;"/><text fill="#000000" font-family="sans-serif" font-size="12" lengthAdjust="spacing" textLength="86" x="220" y="168.5977">foundationPile1</text><path d="M214,173.2344 L214,173.5146 L223.8,172.6819 L233.6,173.4921 L243.4,173.7673 L253.2,172.2832 L263,173.1308 L272.8,172.6657 L282.6,172.723 L292.4,173.1435 L302.2,172.3125 L312,173.2344 " fill="#FEFECE" style="stroke:#A80036;stroke-width:1.5;"/><text fill="#000000" font-family="sans-serif" font-size="10" lengthAdjust="spacing" textLength="50" x="219" y="187.6152">nCards = 0</text><path d="M204.5,282.6406 L204.5,325.3438 A0,0 0 0 0 204.5,325.3438 L315.5,325.3438 A0,0 0 0 0 315.5,325.3438 L315.5,292.6406 L305.5,282.6406 L264.48,282.6406 L262.55,194.3006 L256.48,282.6406 L204.5,282.6406 A0,0 0 0 0 204.5,282.6406 " fill="#FBFB77" filter="url(#fkmbreu9i1zdb)" style="stroke:#A80036;stroke-width:1.0;"/><path d="M305.5,282.6406 L305.6868,282.6406 L305.1317,284.6406 L305.6718,286.6406 L305.8553,288.6406 L304.8659,290.6406 L305.5,292.6406 L305.5,292.5715 L307.5,292.2615 L309.5,292.2997 L311.5,292.58 L313.5,292.0261 L315.5,292.6406 L315.848,292.9886 L313.1038,290.2445 L311.3757,288.5163 L309.7715,286.9121 L307.4461,284.5867 L305.5,282.6406 " fill="#FBFB77" style="stroke:#A80036;stroke-width:1.0;"/><text fill="#000000" font-family="sans-serif" font-size="13" lengthAdjust="spacing" textLength="42" x="210.5" y="301.1357">4 equal</text><text fill="#000000" font-family="sans-serif" font-size="13" lengthAdjust="spacing" textLength="90" x="210.5" y="317.4873">foundation piles</text><polygon fill="#FEFECE" filter="url(#fkmbreu9i1zdb)" points="348,148.1406,348,148.3508,358.1333,147.7263,368.2667,148.3339,378.4,148.5403,388.5333,147.4272,398.6667,148.0629,408.8,147.7141,418.9333,147.7571,429.0667,148.0725,439.2,147.4493,449.3333,148.6943,459.4667,147.5103,469.6,147.9429,479.7333,148.5726,489.8667,148.0548,500,148.2089,510.1333,148.1087,520.2667,148.3192,530.4,148.3798,540.5333,148.7263,550.6667,148.8117,560.8,148.8199,570.9333,148.3953,581.0667,148.6042,591.2,148.8429,601.3333,147.4194,611.4667,148.8191,621.6,147.8441,631.7333,148.6744,641.8667,147.6456,652,148.1406,651.9315,148.1406,652.7416,158.5906,651.9513,169.0406,652.1053,179.4906,652.3386,189.9406,652,200.3906,652,200.8069,641.8667,200.3867,631.7333,200.6778,621.6,199.8182,611.4667,200.675,601.3333,200.9388,591.2,200.8352,581.0667,201.0036,570.9333,199.9075,560.8,199.7384,550.6667,199.7692,540.5333,200.3317,530.4,200.1941,520.2667,201.072,510.1333,200.2159,500,200.0476,489.8667,200.6189,479.7333,199.7238,469.6,199.8715,459.4667,201.0396,449.3333,200.8263,439.2,201.1251,429.0667,200.0688,418.9333,200.7098,408.8,200.981,398.6667,199.9182,388.5333,200.2948,378.4,200.5166,368.2667,201.0424,358.1333,200.3864,348,200.3906,348.4626,200.3906,347.4462,189.9406,347.3227,179.4906,348.5036,169.0406,347.2831,158.5906,348,148.1406" style="stroke:#A80036;stroke-width:1.5;"/><text fill="#000000" font-family="sans-serif" font-size="12" lengthAdjust="spacing" textLength="69" x="465.5" y="162.5977">tableauPile1</text><path d="M349,167.2344 L349,167.5146 L359.0667,166.6819 L369.1333,167.4921 L379.2,167.7673 L389.2667,166.2832 L399.3333,167.1308 L409.4,166.6657 L419.4667,166.723 L429.5333,167.1435 L439.6,166.3125 L449.6667,167.9726 L459.7333,166.394 L469.8,166.9707 L479.8667,167.8103 L489.9333,167.12 L500,167.3254 L510.0667,167.1918 L520.1333,167.4724 L530.2,167.5532 L540.2667,168.0153 L550.3333,168.1291 L560.4,168.1401 L570.4667,167.5739 L580.5333,167.8525 L590.6,168.1707 L600.6667,166.2728 L610.7333,168.1391 L620.8,166.839 L630.8667,167.9461 L640.9333,166.5743 L651,167.2344 " fill="#FEFECE" style="stroke:#A80036;stroke-width:1.5;"/><text fill="#000000" font-family="sans-serif" font-size="10" lengthAdjust="spacing" textLength="50" x="354" y="181.6152">nCards = 1</text><text fill="#000000" font-family="sans-serif" font-size="10" lengthAdjust="spacing" textLength="292" x="354" y="194.1934">card1 = { order:1, rank:2, suite:clubs, color:black, faceup:true }</text><path d="M350.5,266.6406 L350.5,342.0469 A0,0 0 0 0 350.5,342.0469 L653.5,342.0469 A0,0 0 0 0 653.5,342.0469 L653.5,276.6406 L643.5,266.6406 L505.42,266.6406 L500.4,200.4306 L497.42,266.6406 L350.5,266.6406 A0,0 0 0 0 350.5,266.6406 " fill="#FBFB77" filter="url(#fkmbreu9i1zdb)" style="stroke:#A80036;stroke-width:1.0;"/><path d="M643.5,266.6406 L643.6868,266.6406 L643.1317,268.6406 L643.6718,270.6406 L643.8553,272.6406 L642.8659,274.6406 L643.5,276.6406 L643.5,276.5715 L645.5,276.2615 L647.5,276.2997 L649.5,276.58 L651.5,276.0261 L653.5,276.6406 L653.848,276.9886 L651.1038,274.2445 L649.3757,272.5163 L647.7715,270.9121 L645.4461,268.5867 L643.5,266.6406 " fill="#FBFB77" style="stroke:#A80036;stroke-width:1.0;"/><text fill="#000000" font-family="sans-serif" font-size="13" lengthAdjust="spacing" textLength="113" x="356.5" y="285.1357">7 total tableau piles</text><text fill="#000000" font-family="sans-serif" font-size="13" lengthAdjust="spacing" textLength="170" x="356.5" y="301.4873">Last card face up in each pile</text><text fill="#000000" font-family="sans-serif" font-size="13" lengthAdjust="spacing" textLength="278" x="356.5" y="317.8389">0, 1, 2, 3, 4, 5 &amp; 6 face down cards in each pile,</text><text fill="#000000" font-family="sans-serif" font-size="13" lengthAdjust="spacing" textLength="155" x="356.5" y="334.1904">repectively, from 1 to 7 pile</text><polygon fill="#FEFECE" filter="url(#fkmbreu9i1zdb)" points="687.5,141.6406,687.5,141.8508,697.5323,141.2263,707.5645,141.8339,717.5968,142.0403,727.629,140.9272,737.6613,141.5629,747.6935,141.2141,757.7258,141.2571,767.7581,141.5725,777.7903,140.9493,787.8226,142.1943,797.8548,141.0103,807.8871,141.4429,817.9194,142.0726,827.9516,141.5548,837.9839,141.7089,848.0161,141.6087,858.0484,141.8192,868.0806,141.8798,878.1129,142.2263,888.1452,142.3117,898.1774,142.3199,908.2097,141.8953,918.2419,142.1042,928.2742,142.3429,938.3065,140.9194,948.3387,142.3191,958.371,141.3441,968.4032,142.1744,978.4355,141.1456,988.4677,141.5721,998.5,141.6406,999.2416,141.6406,998.4513,152.4453,998.6053,163.25,998.8386,174.0547,998.9162,184.8594,998.4961,195.6641,998.5,206.4688,998.5,206.756,988.4677,205.8963,978.4355,206.7531,968.4032,207.0169,958.371,206.9133,948.3387,207.0818,938.3065,205.9857,928.2742,205.8166,918.2419,205.8473,908.2097,206.4099,898.1774,206.2722,888.1452,207.1502,878.1129,206.2941,868.0806,206.1257,858.0484,206.697,848.0161,205.8019,837.9839,205.9496,827.9516,207.1177,817.9194,206.9044,807.8871,207.2032,797.8548,206.147,787.8226,206.7879,777.7903,207.0592,767.7581,205.9963,757.7258,206.3729,747.6935,206.5947,737.6613,207.1205,727.629,206.4646,717.5968,206.9313,707.5645,205.915,697.5323,205.7915,687.5,206.4688,688.0036,206.4688,686.7831,195.6641,688.009,184.8594,687.7066,174.0547,687.2321,163.25,687.1462,152.4453,687.5,141.6406" style="stroke:#A80036;stroke-width:1.5;"/><text fill="#000000" font-family="sans-serif" font-size="12" lengthAdjust="spacing" textLength="69" x="808.5" y="156.0977">tableauPile2</text><path d="M688.5,160.7344 L688.5,161.0146 L698.4677,160.1819 L708.4355,160.9921 L718.4032,161.2673 L728.371,159.7832 L738.3387,160.6308 L748.3065,160.1657 L758.2742,160.223 L768.2419,160.6435 L778.2097,159.8125 L788.1774,161.4726 L798.1452,159.894 L808.1129,160.4707 L818.0806,161.3103 L828.0484,160.62 L838.0161,160.8254 L847.9839,160.6918 L857.9516,160.9724 L867.9194,161.0532 L877.8871,161.5153 L887.8548,161.6291 L897.8226,161.6401 L907.7903,161.0739 L917.7581,161.3525 L927.7258,161.6707 L937.6935,159.7728 L947.6613,161.6391 L957.629,160.339 L967.5968,161.4461 L977.5645,160.0743 L987.5323,160.643 L997.5,160.7344 " fill="#FEFECE" style="stroke:#A80036;stroke-width:1.5;"/><text fill="#000000" font-family="sans-serif" font-size="10" lengthAdjust="spacing" textLength="50" x="693.5" y="175.1152">nCards = 2</text><text fill="#000000" font-family="sans-serif" font-size="10" lengthAdjust="spacing" textLength="289" x="693.5" y="187.6934">card1 = { order:1, rank:8, suite:hearts, color:red, faceup:false }</text><text fill="#000000" font-family="sans-serif" font-size="10" lengthAdjust="spacing" textLength="299" x="693.5" y="200.2715">card2 = { order:2, rank:4, suite:spades, color:black, faceup:true }</text><!--MD5=[2222e3c4ee03d88807c6978b7888f86b]
link myKlondike to thePlayer--><path d="M314.42,55.6406 L314.42,55.734 L316.354,55.4565 L318.288,55.7265 L320.222,55.8183 L322.156,55.3236 L324.09,55.6406 " fill="none" style="stroke:#A80036;stroke-width:1.0;"/><polygon fill="#A80036" points="337.42,55.6406,337.4485,55.7046,335.5639,54.7144,333.8462,54.0995,332.0741,53.3624,330.1234,52.2233,328.42,51.6406,328.4017,51.6223,329.1195,52.3401,329.9296,53.1502,330.8039,54.0246,331.457,54.6777,332.42,55.6406,332.5505,55.7711,331.4714,56.2921,330.7734,57.194,330.1218,58.1424,329.1998,58.8204,328.42,59.6406,328.4292,59.6614,330.2157,58.8309,332.0442,58.095,333.8524,57.3135,335.6993,56.619,337.42,55.6406" style="stroke:#A80036;stroke-width:1.0;"/><path d="M332.42,55.6406 L332.42,55.734 L330.82,55.4565 L329.22,55.7265 L327.62,55.8183 L326.02,55.3236 L324.42,55.6406 " fill="#A80036" style="stroke:#A80036;stroke-width:1.0;"/><polygon fill="#A80036" points="302.42,55.6406,302.4589,55.6989,303.5434,56.3257,304.8557,57.2942,306.0939,58.1515,307.0881,58.6428,308.42,59.6406,308.4056,59.6191,309.5411,58.7223,310.7491,57.9343,312.0074,57.2217,313.0922,56.2489,314.42,55.6406,314.5224,55.7942,313.1035,54.6658,311.9834,53.9858,310.8999,53.3604,309.6041,52.4168,308.42,51.6406,308.4326,51.6596,307.2141,52.4318,306.053,53.2901,304.8642,54.1069,303.7283,55.0031,302.42,55.6406" style="stroke:#A80036;stroke-width:1.0;"/><!--MD5=[d5c8ba7e2b2502fdde6b5ae1f3d7a78f]
link myKlondike to stockPile--><path d="M212.9259,80.0403 L212.967,80.1242 L210.1766,81.1827 L207.6272,82.7328 L204.9993,84.1228 L202.1133,84.9863 L199.5845,86.5787 L199.5692,86.5477 L193.0377,89.615 L186.5836,92.8382 L180.1834,96.1699 L173.5977,99.1279 L167.2717,102.6092 L167.3823,102.829 L163.2146,104.338 L159.3698,106.4886 L155.5644,108.7175 L151.5298,110.4909 L147.6157,112.5039 L147.6295,112.5309 L143.597,114.5416 L139.6273,116.6752 L135.6274,118.7495 L131.6852,120.9369 L127.5545,122.7554 L127.6926,123.0198 L123.8902,125.0103 L119.9987,126.8302 L116.2376,128.8998 L112.4826,130.9811 L108.534,132.6917 L108.3814,132.4098 L105.3707,134.7467 L101.8577,136.1554 L98.7265,138.2697 L95.2021,139.6573 L92,141.6406 L91.9849,141.6142 L90.1857,143.0587 L88.0332,143.8858 L86.0892,145.0772 L84.1628,146.2992 L82.11,147.3006 " fill="none" style="stroke:#A80036;stroke-width:1.0;"/><polygon fill="#A80036" points="70.93,154.0206,70.9386,154.0902,72.8679,153.6416,74.8476,153.6007,76.8109,153.427,78.7202,152.8169,80.7043,152.8109,80.698,152.7858,79.5721,152.3996,78.4777,152.1402,77.4052,151.9688,76.2572,151.4938,75.215,151.4441,75.3941,151.4887,75.2845,150.2955,75.6978,149.2325,76.1748,148.1854,76.2807,147.0458,76.5819,145.9549,76.6005,145.9679,75.4428,147.5619,74.3698,149.2153,73.256,150.8401,72.2203,152.5195,70.93,154.0206" style="stroke:#A80036;stroke-width:1.0;"/><path d="M75.215,151.4441 L75.2632,151.5242 L76.4922,150.4616 L78.0033,149.8683 L79.4225,149.1223 L80.5397,147.8736 L82.075,147.3206 " fill="#A80036" style="stroke:#A80036;stroke-width:1.0;"/><polygon fill="#A80036" points="223.76,74.8806,223.77,74.95,222.3129,74.5376,220.9144,74.5318,219.4969,74.3936,218.0164,73.8201,216.6231,73.8491,216.6008,73.8358,215.7616,75.0145,215.0344,76.2601,214.3853,77.5522,213.4675,78.6839,212.9259,80.0403,212.9523,80.223,214.3233,80.0387,215.7713,80.3877,217.2287,80.8017,218.6314,80.8372,220.0629,81.0718,220.0824,81.0835,220.7931,79.8281,221.5928,78.6259,222.3496,77.398,223.1882,76.219,223.76,74.8806" style="stroke:#A80036;stroke-width:1.0;"/><!--MD5=[d189ae714aeafe633e603490a88e0d3f]
link myKlondike to wastePile--><path d="M228.6029,90.313 L228.7989,90.5133 L221.2823,96.7067 L214.9149,104.0741 L208.1733,111.0592 L200.201,116.7871 L193.8598,124.1812 L186.6004,130.6374 L179.7064,137.4668 L173.13,144.6206 " fill="none" style="stroke:#A80036;stroke-width:1.0;"/><polygon fill="#A80036" points="163.5,154.0506,163.5245,154.1163,165.2973,153.2327,167.2136,152.734,169.0831,152.1099,170.799,151.0738,172.7276,150.6081,172.7274,150.5822,171.5949,150.4545,170.4637,150.4574,169.3335,150.5511,168.2,150.332,167.0711,150.551,167.2556,150.5528,166.8724,149.4175,167.028,148.2877,167.2493,147.1585,167.0882,146.0254,167.1282,144.8944,167.1493,144.9028,166.3927,146.7217,165.7322,148.5788,165.0254,150.4175,164.4071,152.2913,163.5,154.0506" style="stroke:#A80036;stroke-width:1.0;"/><path d="M167.0711,150.551 L167.1364,150.6178 L168.0871,149.2993 L169.4207,148.3722 L170.6297,147.3177 L171.4285,145.8441 L172.795,144.9506 " fill="#A80036" style="stroke:#A80036;stroke-width:1.0;"/><polygon fill="#A80036" points="237.18,81.9206,237.193,81.9895,235.7372,82.0523,234.3575,82.5188,232.9531,82.8538,231.4671,82.7567,230.094,83.2578,230.0686,83.2524,229.6566,84.6394,229.3724,86.0534,229.1771,87.4862,228.6756,88.8543,228.6029,90.313,228.6371,90.4944,229.9811,89.8392,231.425,89.7134,232.8812,89.6522,234.2664,89.2152,235.6889,88.9759,235.7112,88.9806,235.9767,87.5626,236.3436,86.1661,236.6615,84.7592,237.0728,83.372,237.18,81.9206" style="stroke:#A80036;stroke-width:1.0;"/><!--MD5=[190ff11e45e698f436a8805859cdaacf]
link myKlondike to foundationPile1--><path d="M263,93.9206 L263.2802,93.9206 L262.4476,103.3066 L263.2577,112.6926 L263.5329,122.0786 L262.0488,131.4646 L263,140.8506 " fill="none" style="stroke:#A80036;stroke-width:1.0;"/><polygon fill="#A80036" points="263,154.0506,263.064,154.0791,263.6738,152.1945,264.6589,150.4768,265.5217,148.7047,265.9827,146.754,267,145.0506,266.9817,145.0323,266.0995,145.7501,265.3096,146.5602,264.5839,147.4346,263.637,148.0877,263,149.0506,263.1305,149.1811,262.0514,148.1021,261.3534,147.404,260.7018,146.7524,259.7798,145.8304,259,145.0506,259.0208,145.0599,259.7903,146.8463,260.6544,148.6748,261.4728,150.483,262.3784,152.3299,263,154.0506" style="stroke:#A80036;stroke-width:1.0;"/><path d="M263,149.0506 L263.0934,149.0506 L262.8159,147.4506 L263.0859,145.8506 L263.1776,144.2506 L262.6829,142.6506 L263,141.0506 " fill="#A80036" style="stroke:#A80036;stroke-width:1.0;"/><polygon fill="#A80036" points="263,81.9206,263.0583,81.9595,262.0851,83.044,261.4536,84.3564,260.7109,85.5945,259.6021,86.5887,259,87.9206,258.9784,87.9063,259.6817,89.0418,260.4936,90.2497,261.3811,91.508,262.0082,92.5928,263,93.9206,263.1536,94.023,263.6252,92.6041,264.5451,91.4841,265.5198,90.4005,266.1762,89.1048,267,87.9206,267.0189,87.9332,266.1911,86.7147,265.4495,85.5536,264.6663,84.3648,263.9624,83.2289,263,81.9206" style="stroke:#A80036;stroke-width:1.0;"/><!--MD5=[b8c679d54058b3938de06682113bf7ea]
link myKlondike to tableauPile1--><path d="M312.9124,81.1679 L313.036,81.4194 L321.5107,85.0188 L330.71,90.0925 L339.6734,94.686 L347.8606,97.7008 L357.0765,102.808 L365.7134,106.7373 L374.5806,111.1354 L383.6081,115.8593 L392.0835,119.4602 L401.6578,125.2966 L409.8033,128.2266 L418.8997,133.0907 L428.1121,138.1909 L436.7,142.0206 " fill="none" style="stroke:#A80036;stroke-width:1.0;"/><polygon fill="#A80036" points="448.79,147.9706,448.8438,148.0155,447.4228,146.3691,446.3172,144.9857,445.1089,143.5166,443.5627,141.7659,442.4843,140.4051,442.4597,140.3967,442.7138,141.4305,443.0914,142.5063,443.555,143.6113,443.7225,144.6156,444.3047,145.761,444.3641,145.9357,443.166,145.9262,442.1412,146.4268,441.1375,146.9896,440.0108,147.1903,438.9488,147.5815,438.9497,147.6042,440.9166,147.6487,442.8877,147.7966,444.8567,147.8946,446.8295,148.0879,448.79,147.9706" style="stroke:#A80036;stroke-width:1.0;"/><path d="M444.3047,145.761 L444.3459,145.8448 L442.7866,144.8896 L441.4687,144.4259 L440.0722,143.8022 L438.4171,142.6521 L437.12,142.2306 " fill="#A80036" style="stroke:#A80036;stroke-width:1.0;"/><polygon fill="#A80036" points="302.14,75.8806,302.2006,75.9158,302.7454,77.0581,303.6452,78.4068,304.4294,79.6882,304.8334,80.7487,305.7638,82.1151,305.7604,82.0894,307.1748,81.7847,308.6064,81.6095,310.05,81.5243,311.4524,81.1289,312.9124,81.1679,313.0719,81.2607,312.006,79.8155,311.4059,78.641,310.8626,77.4996,309.9887,76.166,309.2886,74.9335,309.2916,74.956,307.8575,75.1124,306.437,75.3713,305.0099,75.5808,303.5954,75.8847,302.14,75.8806" style="stroke:#A80036;stroke-width:1.0;"/><!--MD5=[00d639e359894bde40860f8f45eaad9d]
link myKlondike to tableauPile2--><path d="M313.3324,79.4567 L313.3615,79.5455 L314.6086,79.7185 L316.0262,80.4119 L317.3883,80.9359 L318.5678,80.9025 L320,81.6406 L319.9904,81.6074 L325.374,83.0283 L330.8061,84.6164 L336.2717,86.3208 L341.6215,87.6245 L347.1336,89.4894 L347.1968,89.7272 L352.0476,90.5444 L357.0831,92.056 L362.1411,93.6522 L367.068,94.7556 L372.0639,96.1182 L372.071,96.1477 L376.6703,97.215 L381.302,98.4166 L385.9181,99.5534 L390.564,100.8138 L395.1128,101.6713 L395.1755,101.9629 L399.4741,102.8908 L403.7323,103.6307 L408.0497,104.6458 L412.3699,105.6739 L416.6022,106.2931 L416.5426,105.9782 L420.7087,107.3564 L424.6784,107.6975 L428.7974,108.8271 L432.7627,109.1448 L436.854,110.1279 L436.849,110.0978 L440.7749,111.0915 L444.5849,111.3833 L448.4632,112.0893 L452.3473,112.83 L456.19,113.3199 L456.2164,113.503 L459.9382,113.8569 L463.7051,114.5237 L467.3992,114.6843 L471.2018,115.5999 L474.9323,116.0136 L474.9629,116.2553 L478.6511,116.6775 L482.3546,117.2197 L485.9874,117.2043 L489.672,117.5977 L493.4025,118.3531 L493.3717,118.0787 L500.882,119.1659 L508.3576,119.944 L515.8835,121.1706 L523.3236,121.6313 L530.8146,122.5473 L530.7976,122.3957 L538.8633,123.55 L546.8564,124.0566 L554.9011,125.0237 L562.9963,126.4416 L571.0016,127.0569 L571.0255,127.249 L575.4297,127.9276 L579.7594,128.0085 L584.1823,128.838 L588.585,129.5044 L592.9403,129.7908 L592.9117,129.5828 L597.6541,130.3977 L602.3871,131.1445 L607.1386,132.0252 L611.8185,132.3855 L616.5383,133.0365 L616.5693,133.2397 L621.6171,133.5735 L626.7246,134.2997 L631.9196,135.5989 L636.9537,135.843 L642.1176,136.9383 L642.1552,137.1614 L647.7094,137.9693 L653.2508,138.7018 L658.8209,139.6047 L664.4574,140.9012 L670,141.6406 L669.9768,141.5096 L670.9599,142.0616 L671.7851,141.7227 L672.7899,142.3968 L673.6936,142.5006 L674.57,142.4506 " fill="none" style="stroke:#A80036;stroke-width:1.0;"/><polygon fill="#A80036" points="687.4,144.7306,687.4392,144.7887,685.6904,143.5137,684.1714,142.579,682.5776,141.5335,680.7376,140.1235,679.2384,139.2181,679.2172,139.2032,679.7696,140.0643,680.4291,141.0001,681.163,141.9878,681.6404,142.7965,682.4771,143.8561,682.5827,144.0074,681.4292,144.3315,680.5841,145.0975,679.7767,145.9173,678.7503,146.4235,677.8391,147.0947,677.8445,147.1168,679.7487,146.6116,681.6777,146.2069,683.5948,145.7536,685.5347,145.393,687.4,144.7306" style="stroke:#A80036;stroke-width:1.0;"/><path d="M682.4771,143.8561 L682.4934,143.948 L680.8704,143.3947 L679.3433,143.3805 L677.7849,143.1907 L676.1239,142.4235 L674.605,142.4556 " fill="#A80036" style="stroke:#A80036;stroke-width:1.0;"/><polygon fill="#A80036" points="302.09,75.2606,302.1468,75.3016,302.8225,76.3489,303.8312,77.6366,304.7315,78.846,305.2752,79.7978,306.3125,81.1062,306.3066,81.081,307.684,80.6379,309.0912,80.322,310.5193,80.0944,311.8757,79.5623,313.3324,79.4567,313.482,79.5648,312.3176,78.1646,311.59,77.0799,310.9157,76.0337,309.9313,74.7636,309.1099,73.6112,309.1151,73.6333,307.7035,73.9307,306.3156,74.3289,304.9162,74.6785,303.5386,75.1208,302.09,75.2606" style="stroke:#A80036;stroke-width:1.0;"/><!--MD5=[21d4dd503ebdf22d7ba01f8fd37da379]
@startuml klondike- -initial-state
skinparam handwritten true

title Klondike. Initial State

object myKlondike {
    nGame = 0
    status = 0
}

object goal {
    status = false
}

object thePlayer {
    id = 1
    name = 'Diego'
}

object stockPile
object wastePile

object stockPile {
    nCards = 23
}
object wastePile {
    nCards = 0
}
object foundationPile1 {
    nCards = 0
}
note bottom of foundationPile1
    4 equal 
    foundation piles
end note

object tableauPile1
note bottom of tableauPile1
    7 total tableau piles
    Last card face up in each pile
    0, 1, 2, 3, 4, 5 & 6 face down cards in each pile, 
    repectively, from 1 to 7 pile
end note

object tableauPile2

object tableauPile1 {
    nCards = 1
    card1 = { order:1, rank:2, suite:clubs, color:black, faceup:true }
}
object tableauPile2 {
    nCards = 2
    card1 = { order:1, rank:8, suite:hearts, color:red, faceup:false }
    card2 = { order:2, rank:4, suite:spades, color:black, faceup:true }
}



myKlondike *-> thePlayer
myKlondike *- -> stockPile
myKlondike *- -> wastePile
myKlondike *- -> foundationPile1
myKlondike *- -> tableauPile1
myKlondike *- -> tableauPile2



@enduml

PlantUML version 1.2022.0(Tue Jan 11 17:16:42 CET 2022)
(GPL source distribution)
Java Runtime: Java(TM) SE Runtime Environment
JVM: Java HotSpot(TM) 64-Bit Server VM
Default Encoding: Cp1252
Language: es
Country: ES
--></g></svg>