<?xml version="1.0" encoding="UTF-8" standalone="no"?><svg xmlns="http://www.w3.org/2000/svg" xmlns:xlink="http://www.w3.org/1999/xlink" contentScriptType="application/ecmascript" contentStyleType="text/css" height="862px" preserveAspectRatio="none" style="width:352px;height:862px;background:#F9F9F9;" version="1.1" viewBox="0 0 352 862" width="352px" zoomAndPan="magnify"><defs/><g><text fill="#000000" font-family="sans-serif" font-size="18" lengthAdjust="spacing" textLength="173" x="80.965" y="18.6855">Connect4 Instructions</text><text fill="#000000" font-family="sans-serif" font-size="18" lengthAdjust="spacing" textLength="0" x="172.465" y="41.3262"/><g id="A"><rect fill="#FEFECE" height="50" rx="12.5" ry="12.5" style="stroke:#A80036;stroke-width:1.5;" width="50" x="139.93" y="132.2813"/><line style="stroke:#A80036;stroke-width:1.5;" x1="139.93" x2="189.93" y1="159.8906" y2="159.8906"/><text fill="#000000" font-family="sans-serif" font-size="14" lengthAdjust="spacing" textLength="0" x="166.93" y="151.8145"/></g><g id="InsertA"><rect fill="#FEFECE" height="50" rx="12.5" ry="12.5" style="stroke:#A80036;stroke-width:1.5;" width="50" x="92.93" y="276.2813"/><line style="stroke:#A80036;stroke-width:1.5;" x1="92.93" x2="142.93" y1="303.8906" y2="303.8906"/><text fill="#000000" font-family="sans-serif" font-size="14" lengthAdjust="spacing" textLength="0" x="119.93" y="295.8145"/></g><g id="InsertB"><rect fill="#FEFECE" height="50" rx="12.5" ry="12.5" style="stroke:#A80036;stroke-width:1.5;" width="50" x="139.93" y="420.2813"/><line style="stroke:#A80036;stroke-width:1.5;" x1="139.93" x2="189.93" y1="447.8906" y2="447.8906"/><text fill="#000000" font-family="sans-serif" font-size="14" lengthAdjust="spacing" textLength="0" x="166.93" y="439.8145"/></g><g id="InsertA2"><rect fill="#FEFECE" height="50" rx="12.5" ry="12.5" style="stroke:#A80036;stroke-width:1.5;" width="50" x="139.93" y="564.2813"/><line style="stroke:#A80036;stroke-width:1.5;" x1="139.93" x2="189.93" y1="591.8906" y2="591.8906"/><text fill="#000000" font-family="sans-serif" font-size="14" lengthAdjust="spacing" textLength="0" x="166.93" y="583.8145"/></g><g id="InsertB2"><rect fill="#FEFECE" height="50" rx="12.5" ry="12.5" style="stroke:#A80036;stroke-width:1.5;" width="50" x="83.93" y="708.2813"/><line style="stroke:#A80036;stroke-width:1.5;" x1="83.93" x2="133.93" y1="735.8906" y2="735.8906"/><text fill="#000000" font-family="sans-serif" font-size="14" lengthAdjust="spacing" textLength="0" x="110.93" y="727.8145"/></g><ellipse cx="164.93" cy="61.2813" fill="#000000" rx="10" ry="10" style="stroke:none;stroke-width:1.0;"/><ellipse cx="151.93" cy="846.2813" rx="10" ry="10" style="stroke:#000000;stroke-width:1.0;fill:none;"/><ellipse cx="152.43" cy="846.7813" fill="#000000" rx="6" ry="6" style="stroke:none;stroke-width:1.0;"/><!--MD5=[ba0fdac9700f9825b754e67fda8ee1b2]
link *start to A--><path d="M164.93,71.2912 C164.93,83.9813 164.93,107.6912 164.93,126.8513 " fill="none" id="*start-to-A" style="stroke:#191919;stroke-width:1.0;"/><polygon fill="#191919" points="164.93,132.1213,168.93,123.1213,164.93,127.1213,160.93,123.1213,164.93,132.1213" style="stroke:#191919;stroke-width:1.0;"/><!--MD5=[bd149e26121f29a912c721eb4cb6aacc]
link A to InsertA--><path d="M146.72,182.4213 C140.8,191.3813 134.77,201.8913 130.93,212.2813 C123.98,231.0512 120.74,253.3713 119.23,270.8312 " fill="none" id="A-to-InsertA" style="stroke:#191919;stroke-width:1.0;"/><polygon fill="#191919" points="118.81,276.0912,123.5169,267.44,119.2099,271.1073,115.5426,266.8002,118.81,276.0912" style="stroke:#191919;stroke-width:1.0;"/><text fill="#000000" font-family="sans-serif" font-size="13" lengthAdjust="spacing" textLength="50" x="131.93" y="226.7764">Player A</text><text fill="#000000" font-family="sans-serif" font-size="13" lengthAdjust="spacing" textLength="32" x="144.93" y="243.1279">insert</text><!--MD5=[a2c564ad89747bee6408ba42c8c32961]
link InsertA to InsertB--><path d="M118.81,326.4713 C120.11,344.5413 123.27,369.5713 130.93,390.2813 C134.17,399.0513 138.97,407.9013 143.95,415.8313 " fill="none" id="InsertA-to-InsertB" style="stroke:#191919;stroke-width:1.0;"/><polygon fill="#191919" points="146.72,420.1413,145.2179,410.4076,144.0162,415.9354,138.4885,414.7337,146.72,420.1413" style="stroke:#191919;stroke-width:1.0;"/><text fill="#000000" font-family="sans-serif" font-size="13" lengthAdjust="spacing" textLength="50" x="131.93" y="370.7764">Player B</text><text fill="#000000" font-family="sans-serif" font-size="13" lengthAdjust="spacing" textLength="32" x="144.93" y="387.1279">insert</text><!--MD5=[b98f8180bd221d5fa47b6a630d089b2b]
link InsertB to A--><path d="M179.41,420.1313 C184.05,411.0913 188.59,400.5313 190.93,390.2813 C208.53,313.1513 208.53,289.4113 190.93,212.2813 C188.99,203.8012 185.55,195.0912 181.78,187.2213 " fill="none" id="InsertB-to-A" style="stroke:#191919;stroke-width:1.0;"/><polygon fill="#191919" points="179.41,182.4312,179.8321,192.2711,181.6347,186.9091,186.9966,188.7116,179.41,182.4312" style="stroke:#191919;stroke-width:1.0;"/><text fill="#000000" font-family="sans-serif" font-size="13" lengthAdjust="spacing" textLength="140" x="204.93" y="306.7764">[ insertedCheckers &lt; 6 ]</text><!--MD5=[0cd0108289ea854f0fca0546cdfbdc89]
link InsertB to InsertA2--><path d="M164.93,470.3713 C164.93,494.8513 164.93,532.8013 164.93,559.0013 " fill="none" id="InsertB-to-InsertA2" style="stroke:#191919;stroke-width:1.0;"/><polygon fill="#191919" points="164.93,564.0713,168.93,555.0713,164.93,559.0713,160.93,555.0713,164.93,564.0713" style="stroke:#191919;stroke-width:1.0;"/><text fill="#000000" font-family="sans-serif" font-size="13" lengthAdjust="spacing" textLength="50" x="165.93" y="514.7764">Player A</text><text fill="#000000" font-family="sans-serif" font-size="13" lengthAdjust="spacing" textLength="32" x="178.93" y="531.1279">insert</text><!--MD5=[d420d0c1ae61a5c058b93710b3d68eed]
link InsertA2 to *end--><path d="M189.38,614.2913 C196.71,623.0013 203.86,633.3913 207.93,644.2813 C233.11,711.7913 248.76,743.2113 213.93,806.2813 C203.87,824.4813 181.37,835.3413 166.42,840.8113 " fill="none" id="InsertA2-to-*end" style="stroke:#191919;stroke-width:1.0;"/><polygon fill="#191919" points="161.67,842.4713,171.4843,843.296,166.3931,840.8303,168.8588,835.7391,161.67,842.4713" style="stroke:#191919;stroke-width:1.0;"/><text fill="#000000" font-family="sans-serif" font-size="13" lengthAdjust="spacing" textLength="67" x="234.93" y="738.7764">[ is4InLine ]</text><!--MD5=[f55d2486e6172efac0a73b825eb01b11]
link InsertA2 to InsertB2--><path d="M139.9,596.1313 C116.16,603.1613 81.82,617.5113 65.93,644.2813 C54.39,663.7213 66.43,686.7013 80.67,704.3013 " fill="none" id="InsertA2-to-InsertB2" style="stroke:#191919;stroke-width:1.0;"/><polygon fill="#191919" points="83.93,708.2013,81.2239,698.7314,80.7221,704.366,75.0875,703.8641,83.93,708.2013" style="stroke:#191919;stroke-width:1.0;"/><text fill="#000000" font-family="sans-serif" font-size="13" lengthAdjust="spacing" textLength="50" x="66.93" y="658.7764">Player B</text><text fill="#000000" font-family="sans-serif" font-size="13" lengthAdjust="spacing" textLength="32" x="79.93" y="675.1279">insert</text><!--MD5=[6b7aaaf4b93cfcf5f74274e2f47a4477]
link InsertB2 to InsertA2--><path d="M118.47,708.0713 C128.19,683.4513 143.24,645.2813 153.56,619.1113 " fill="none" id="InsertB2-to-InsertA2" style="stroke:#191919;stroke-width:1.0;"/><polygon fill="#191919" points="155.43,614.3713,148.4102,621.2794,153.5978,619.0234,155.8537,624.211,155.43,614.3713" style="stroke:#191919;stroke-width:1.0;"/><text fill="#000000" font-family="sans-serif" font-size="13" lengthAdjust="spacing" textLength="50" x="144.93" y="658.7764">Player A</text><text fill="#000000" font-family="sans-serif" font-size="13" lengthAdjust="spacing" textLength="32" x="157.93" y="675.1279">insert</text><!--MD5=[fbf9e7d0e409c165c134260c27bd6ea4]
link InsertB2 to *end--><path d="M83.84,743.0613 C52.71,755.3613 6,779.2613 25.93,806.2813 C51.92,841.5313 109.4,845.8813 136.81,845.8213 " fill="none" id="InsertB2-to-*end" style="stroke:#191919;stroke-width:1.0;"/><polygon fill="#191919" points="141.87,845.7613,132.8138,841.8902,136.8705,845.8327,132.9281,849.8894,141.87,845.7613" style="stroke:#191919;stroke-width:1.0;"/><text fill="#000000" font-family="sans-serif" font-size="13" lengthAdjust="spacing" textLength="81" x="26.93" y="802.7764">[ isTiedGame]</text><!--MD5=[fbf9e7d0e409c165c134260c27bd6ea4]
link InsertB2 to *end--><path d="M118.26,758.3713 C127.02,780.9813 139.8,813.9713 146.82,832.1113 " fill="none" id="InsertB2-to-*end-1" style="stroke:#191919;stroke-width:1.0;"/><polygon fill="#191919" points="148.65,836.8113,149.1102,826.9731,146.835,832.1523,141.6559,829.8771,148.65,836.8113" style="stroke:#191919;stroke-width:1.0;"/><text fill="#000000" font-family="sans-serif" font-size="13" lengthAdjust="spacing" textLength="67" x="137.93" y="802.7764">[ is4InLine ]</text><!--MD5=[f8a233c87fe56b39a717c7f7411485a8]
@startuml connect4- -instructions

!theme mars

title Connect4 Instructions \n

state A as " "
state InsertA as " "
state InsertB as " "
state InsertA2 as " "
state InsertB2 as " "

[*]      - -> A 
A        - -> InsertA : Player A \n insert
InsertA  - -> InsertB : Player B \n insert
InsertB  - -> A : [ insertedCheckers < 6 ]
InsertB  - -> InsertA2 : Player A \n insert
InsertA2 - -> [*] : [ is4InLine ]
InsertA2 - -> InsertB2 : Player B \n insert
InsertB2 - -> InsertA2 : Player A \n insert
InsertB2 - -> [*] : [ isTiedGame]
InsertB2 - -> [*] : [ is4InLine ]

@enduml

@startuml connect4- -instructions

skinparam BackgroundColor F9F9F9
skinparam shadowing false
skinparam RoundCorner 7
skinparam ArrowColor 191919
skinparam FontColor 191919
skinparam SequenceLifeLineBorderColor 393939
skinparam SequenceGroupHeaderFontColor 191919
skinparam SequenceGroupFontColor 393939
skinparam SequenceGroupBorderColor 393939
skinparam SequenceGroupBorderThickness 1

skinparam sequenceDivider {
    BorderColor 191919
    BorderThickness 1
    FontColor 191919
}

skinparam participant {
    BackgroundColor E55756
    BorderColor 191919
    FontColor F9F9F9
    BorderThickness 1.5
}

skinparam database {
    BackgroundColor A4DBD8
    BorderColor 191919
    FontColor 191919
}

skinparam entity {
    BackgroundColor EFBABC
    BorderColor 191919
    FontColor 191919
}

skinparam note {
    BackgroundColor e5e5e5
    BorderColor 191919
    FontColor 191919
    BorderThickness 1.5
}

skinparam actor {
    BackgroundColor 191919
    BorderColor 191919
    FontColor 191919
}

skinparam boundary {
    BackgroundColor EFBABC
    BorderColor 191919
    FontColor 191919
}

skinparam control {
    BackgroundColor EFBABC
    BorderColor 191919
    FontColor 191919
}

skinparam collections {
    BackgroundColor E55756
    BorderColor 191919
    FontColor 191919
    BorderThickness 1.5
}

skinparam queue {
    BackgroundColor E55756
    BorderColor 191919
    FontColor FFF
    BorderThickness 1.5
}

title Connect4 Instructions \n

state A as " "
state InsertA as " "
state InsertB as " "
state InsertA2 as " "
state InsertB2 as " "

[*]      - -> A 
A        - -> InsertA : Player A \n insert
InsertA  - -> InsertB : Player B \n insert
InsertB  - -> A : [ insertedCheckers < 6 ]
InsertB  - -> InsertA2 : Player A \n insert
InsertA2 - -> [*] : [ is4InLine ]
InsertA2 - -> InsertB2 : Player B \n insert
InsertB2 - -> InsertA2 : Player A \n insert
InsertB2 - -> [*] : [ isTiedGame]
InsertB2 - -> [*] : [ is4InLine ]

@enduml

PlantUML version 1.2022.0(Tue Jan 11 17:16:42 CET 2022)
(GPL source distribution)
Java Runtime: Java(TM) SE Runtime Environment
JVM: Java HotSpot(TM) 64-Bit Server VM
Default Encoding: Cp1252
Language: es
Country: ES
--></g></svg>