<?xml version="1.0" encoding="UTF-8" standalone="no"?><svg xmlns="http://www.w3.org/2000/svg" xmlns:xlink="http://www.w3.org/1999/xlink" contentScriptType="application/ecmascript" contentStyleType="text/css" height="731px" preserveAspectRatio="none" style="width:897px;height:731px;background:#FFFFFF;" version="1.1" viewBox="0 0 897 731" width="897px" zoomAndPan="magnify"><defs><filter height="300%" id="f1tj0smycdgb6u" width="300%" x="-1" y="-1"><feGaussianBlur result="blurOut" stdDeviation="2.0"/><feColorMatrix in="blurOut" result="blurOut2" type="matrix" values="0 0 0 0 0 0 0 0 0 0 0 0 0 0 0 0 0 0 .4 0"/><feOffset dx="4.0" dy="4.0" in="blurOut2" result="blurOut3"/><feBlend in="SourceGraphic" in2="blurOut3" mode="normal"/></filter></defs><g><text fill="#000000" font-family="sans-serif" font-size="18" lengthAdjust="spacing" textLength="171" x="354.25" y="18.6855">Connect4 Vocabulary</text><text fill="#000000" font-family="sans-serif" font-size="18" lengthAdjust="spacing" textLength="0" x="444.75" y="41.3262"/><!--MD5=[10b1f240992e2c34b6908209bf85bfd2]
class Connect4--><rect codeLine="7" fill="#FEFECE" filter="url(#f1tj0smycdgb6u)" height="48" id="Connect4" style="stroke:#A80036;stroke-width:1.5;" width="85" x="529.5" y="52.2813"/><ellipse cx="544.5" cy="68.2813" fill="#ADD1B2" rx="11" ry="11" style="stroke:#A80036;stroke-width:1.0;"/><path d="M547.2656,64.1563 Q547.4219,63.9375 547.6094,63.8281 Q547.7969,63.7188 548.0156,63.7188 Q548.3906,63.7188 548.625,63.9766 Q548.8594,64.2344 548.8594,64.8438 L548.8594,66.2969 Q548.8594,66.9063 548.625,67.1719 Q548.3906,67.4375 548.0156,67.4375 Q547.6719,67.4375 547.4688,67.2344 Q547.2656,67.0469 547.1563,66.5313 Q547.1094,66.1719 546.9219,65.9844 Q546.5938,65.6094 545.9844,65.3906 Q545.375,65.1719 544.75,65.1719 Q543.9844,65.1719 543.3516,65.5 Q542.7188,65.8281 542.2266,66.5781 Q541.7344,67.3281 541.7344,68.3594 L541.7344,69.4531 Q541.7344,70.6875 542.625,71.5078 Q543.5156,72.3281 545.1094,72.3281 Q546.0469,72.3281 546.7031,72.0781 Q547.0938,71.9219 547.5156,71.4844 Q547.7813,71.2188 547.9297,71.1406 Q548.0781,71.0625 548.2813,71.0625 Q548.6094,71.0625 548.8672,71.3203 Q549.125,71.5781 549.125,71.9219 Q549.125,72.2656 548.7813,72.6719 Q548.2813,73.25 547.4844,73.5781 Q546.4063,74.0313 545.1094,74.0313 Q543.5938,74.0313 542.3906,73.4063 Q541.4063,72.9063 540.7188,71.8359 Q540.0313,70.7656 540.0313,69.4844 L540.0313,68.3281 Q540.0313,67 540.6484,65.8516 Q541.2656,64.7031 542.3594,64.0859 Q543.4531,63.4688 544.6875,63.4688 Q545.4219,63.4688 546.0703,63.6328 Q546.7188,63.7969 547.2656,64.1563 Z " fill="#000000"/><text fill="#000000" font-family="sans-serif" font-size="12" lengthAdjust="spacing" textLength="53" x="558.5" y="73.1914">Connect4</text><line style="stroke:#A80036;stroke-width:1.5;" x1="530.5" x2="613.5" y1="84.2813" y2="84.2813"/><line style="stroke:#A80036;stroke-width:1.5;" x1="530.5" x2="613.5" y1="92.2813" y2="92.2813"/><!--MD5=[dd91eae41778c45e12552e5329e240e8]
class Turn--><rect codeLine="8" fill="#FEFECE" filter="url(#f1tj0smycdgb6u)" height="48" id="Turn" style="stroke:#A80036;stroke-width:1.5;" width="57" x="423.5" y="170.2813"/><ellipse cx="438.5" cy="186.2813" fill="#ADD1B2" rx="11" ry="11" style="stroke:#A80036;stroke-width:1.0;"/><path d="M441.2656,182.1563 Q441.4219,181.9375 441.6094,181.8281 Q441.7969,181.7188 442.0156,181.7188 Q442.3906,181.7188 442.625,181.9766 Q442.8594,182.2344 442.8594,182.8438 L442.8594,184.2969 Q442.8594,184.9063 442.625,185.1719 Q442.3906,185.4375 442.0156,185.4375 Q441.6719,185.4375 441.4688,185.2344 Q441.2656,185.0469 441.1563,184.5313 Q441.1094,184.1719 440.9219,183.9844 Q440.5938,183.6094 439.9844,183.3906 Q439.375,183.1719 438.75,183.1719 Q437.9844,183.1719 437.3516,183.5 Q436.7188,183.8281 436.2266,184.5781 Q435.7344,185.3281 435.7344,186.3594 L435.7344,187.4531 Q435.7344,188.6875 436.625,189.5078 Q437.5156,190.3281 439.1094,190.3281 Q440.0469,190.3281 440.7031,190.0781 Q441.0938,189.9219 441.5156,189.4844 Q441.7813,189.2188 441.9297,189.1406 Q442.0781,189.0625 442.2813,189.0625 Q442.6094,189.0625 442.8672,189.3203 Q443.125,189.5781 443.125,189.9219 Q443.125,190.2656 442.7813,190.6719 Q442.2813,191.25 441.4844,191.5781 Q440.4063,192.0313 439.1094,192.0313 Q437.5938,192.0313 436.3906,191.4063 Q435.4063,190.9063 434.7188,189.8359 Q434.0313,188.7656 434.0313,187.4844 L434.0313,186.3281 Q434.0313,185 434.6484,183.8516 Q435.2656,182.7031 436.3594,182.0859 Q437.4531,181.4688 438.6875,181.4688 Q439.4219,181.4688 440.0703,181.6328 Q440.7188,181.7969 441.2656,182.1563 Z " fill="#000000"/><text fill="#000000" font-family="sans-serif" font-size="12" lengthAdjust="spacing" textLength="25" x="452.5" y="191.1914">Turn</text><line style="stroke:#A80036;stroke-width:1.5;" x1="424.5" x2="479.5" y1="202.2813" y2="202.2813"/><line style="stroke:#A80036;stroke-width:1.5;" x1="424.5" x2="479.5" y1="210.2813" y2="210.2813"/><!--MD5=[2cb47ba637a0d19583e6199456f6ad0b]
class Player--><rect codeLine="9" fill="#FEFECE" filter="url(#f1tj0smycdgb6u)" height="48" id="Player" style="stroke:#A80036;stroke-width:1.5;" width="66" x="502" y="288.2813"/><ellipse cx="517" cy="304.2813" fill="#ADD1B2" rx="11" ry="11" style="stroke:#A80036;stroke-width:1.0;"/><path d="M519.7656,300.1563 Q519.9219,299.9375 520.1094,299.8281 Q520.2969,299.7188 520.5156,299.7188 Q520.8906,299.7188 521.125,299.9766 Q521.3594,300.2344 521.3594,300.8438 L521.3594,302.2969 Q521.3594,302.9063 521.125,303.1719 Q520.8906,303.4375 520.5156,303.4375 Q520.1719,303.4375 519.9688,303.2344 Q519.7656,303.0469 519.6563,302.5313 Q519.6094,302.1719 519.4219,301.9844 Q519.0938,301.6094 518.4844,301.3906 Q517.875,301.1719 517.25,301.1719 Q516.4844,301.1719 515.8516,301.5 Q515.2188,301.8281 514.7266,302.5781 Q514.2344,303.3281 514.2344,304.3594 L514.2344,305.4531 Q514.2344,306.6875 515.125,307.5078 Q516.0156,308.3281 517.6094,308.3281 Q518.5469,308.3281 519.2031,308.0781 Q519.5938,307.9219 520.0156,307.4844 Q520.2813,307.2188 520.4297,307.1406 Q520.5781,307.0625 520.7813,307.0625 Q521.1094,307.0625 521.3672,307.3203 Q521.625,307.5781 521.625,307.9219 Q521.625,308.2656 521.2813,308.6719 Q520.7813,309.25 519.9844,309.5781 Q518.9063,310.0313 517.6094,310.0313 Q516.0938,310.0313 514.8906,309.4063 Q513.9063,308.9063 513.2188,307.8359 Q512.5313,306.7656 512.5313,305.4844 L512.5313,304.3281 Q512.5313,303 513.1484,301.8516 Q513.7656,300.7031 514.8594,300.0859 Q515.9531,299.4688 517.1875,299.4688 Q517.9219,299.4688 518.5703,299.6328 Q519.2188,299.7969 519.7656,300.1563 Z " fill="#000000"/><text fill="#000000" font-family="sans-serif" font-size="12" lengthAdjust="spacing" textLength="34" x="531" y="309.1914">Player</text><line style="stroke:#A80036;stroke-width:1.5;" x1="503" x2="567" y1="320.2813" y2="320.2813"/><line style="stroke:#A80036;stroke-width:1.5;" x1="503" x2="567" y1="328.2813" y2="328.2813"/><!--MD5=[9563755d011c5cec7ec66dc53565a59e]
class Board--><rect codeLine="10" fill="#FEFECE" filter="url(#f1tj0smycdgb6u)" height="48" id="Board" style="stroke:#A80036;stroke-width:1.5;" width="65" x="661.5" y="288.2813"/><ellipse cx="676.5" cy="304.2813" fill="#ADD1B2" rx="11" ry="11" style="stroke:#A80036;stroke-width:1.0;"/><path d="M679.2656,300.1563 Q679.4219,299.9375 679.6094,299.8281 Q679.7969,299.7188 680.0156,299.7188 Q680.3906,299.7188 680.625,299.9766 Q680.8594,300.2344 680.8594,300.8438 L680.8594,302.2969 Q680.8594,302.9063 680.625,303.1719 Q680.3906,303.4375 680.0156,303.4375 Q679.6719,303.4375 679.4688,303.2344 Q679.2656,303.0469 679.1563,302.5313 Q679.1094,302.1719 678.9219,301.9844 Q678.5938,301.6094 677.9844,301.3906 Q677.375,301.1719 676.75,301.1719 Q675.9844,301.1719 675.3516,301.5 Q674.7188,301.8281 674.2266,302.5781 Q673.7344,303.3281 673.7344,304.3594 L673.7344,305.4531 Q673.7344,306.6875 674.625,307.5078 Q675.5156,308.3281 677.1094,308.3281 Q678.0469,308.3281 678.7031,308.0781 Q679.0938,307.9219 679.5156,307.4844 Q679.7813,307.2188 679.9297,307.1406 Q680.0781,307.0625 680.2813,307.0625 Q680.6094,307.0625 680.8672,307.3203 Q681.125,307.5781 681.125,307.9219 Q681.125,308.2656 680.7813,308.6719 Q680.2813,309.25 679.4844,309.5781 Q678.4063,310.0313 677.1094,310.0313 Q675.5938,310.0313 674.3906,309.4063 Q673.4063,308.9063 672.7188,307.8359 Q672.0313,306.7656 672.0313,305.4844 L672.0313,304.3281 Q672.0313,303 672.6484,301.8516 Q673.2656,300.7031 674.3594,300.0859 Q675.4531,299.4688 676.6875,299.4688 Q677.4219,299.4688 678.0703,299.6328 Q678.7188,299.7969 679.2656,300.1563 Z " fill="#000000"/><text fill="#000000" font-family="sans-serif" font-size="12" lengthAdjust="spacing" textLength="33" x="690.5" y="309.1914">Board</text><line style="stroke:#A80036;stroke-width:1.5;" x1="662.5" x2="725.5" y1="320.2813" y2="320.2813"/><line style="stroke:#A80036;stroke-width:1.5;" x1="662.5" x2="725.5" y1="328.2813" y2="328.2813"/><!--MD5=[fea3dc74c7473bae0133d22265a91e2f]
class Cell--><rect codeLine="11" fill="#FEFECE" filter="url(#f1tj0smycdgb6u)" height="48" id="Cell" style="stroke:#A80036;stroke-width:1.5;" width="54" x="701" y="406.2813"/><ellipse cx="716" cy="422.2813" fill="#ADD1B2" rx="11" ry="11" style="stroke:#A80036;stroke-width:1.0;"/><path d="M718.7656,418.1563 Q718.9219,417.9375 719.1094,417.8281 Q719.2969,417.7188 719.5156,417.7188 Q719.8906,417.7188 720.125,417.9766 Q720.3594,418.2344 720.3594,418.8438 L720.3594,420.2969 Q720.3594,420.9063 720.125,421.1719 Q719.8906,421.4375 719.5156,421.4375 Q719.1719,421.4375 718.9688,421.2344 Q718.7656,421.0469 718.6563,420.5313 Q718.6094,420.1719 718.4219,419.9844 Q718.0938,419.6094 717.4844,419.3906 Q716.875,419.1719 716.25,419.1719 Q715.4844,419.1719 714.8516,419.5 Q714.2188,419.8281 713.7266,420.5781 Q713.2344,421.3281 713.2344,422.3594 L713.2344,423.4531 Q713.2344,424.6875 714.125,425.5078 Q715.0156,426.3281 716.6094,426.3281 Q717.5469,426.3281 718.2031,426.0781 Q718.5938,425.9219 719.0156,425.4844 Q719.2813,425.2188 719.4297,425.1406 Q719.5781,425.0625 719.7813,425.0625 Q720.1094,425.0625 720.3672,425.3203 Q720.625,425.5781 720.625,425.9219 Q720.625,426.2656 720.2813,426.6719 Q719.7813,427.25 718.9844,427.5781 Q717.9063,428.0313 716.6094,428.0313 Q715.0938,428.0313 713.8906,427.4063 Q712.9063,426.9063 712.2188,425.8359 Q711.5313,424.7656 711.5313,423.4844 L711.5313,422.3281 Q711.5313,421 712.1484,419.8516 Q712.7656,418.7031 713.8594,418.0859 Q714.9531,417.4688 716.1875,417.4688 Q716.9219,417.4688 717.5703,417.6328 Q718.2188,417.7969 718.7656,418.1563 Z " fill="#000000"/><text fill="#000000" font-family="sans-serif" font-size="12" lengthAdjust="spacing" textLength="22" x="730" y="427.1914">Cell</text><line style="stroke:#A80036;stroke-width:1.5;" x1="702" x2="754" y1="438.2813" y2="438.2813"/><line style="stroke:#A80036;stroke-width:1.5;" x1="702" x2="754" y1="446.2813" y2="446.2813"/><!--MD5=[7aa1f1dff9826083057fe155c5dd6e52]
class Checker--><rect codeLine="12" fill="#FEFECE" filter="url(#f1tj0smycdgb6u)" height="48" id="Checker" style="stroke:#A80036;stroke-width:1.5;" width="78" x="552" y="524.2813"/><ellipse cx="567" cy="540.2813" fill="#ADD1B2" rx="11" ry="11" style="stroke:#A80036;stroke-width:1.0;"/><path d="M569.7656,536.1563 Q569.9219,535.9375 570.1094,535.8281 Q570.2969,535.7188 570.5156,535.7188 Q570.8906,535.7188 571.125,535.9766 Q571.3594,536.2344 571.3594,536.8438 L571.3594,538.2969 Q571.3594,538.9063 571.125,539.1719 Q570.8906,539.4375 570.5156,539.4375 Q570.1719,539.4375 569.9688,539.2344 Q569.7656,539.0469 569.6563,538.5313 Q569.6094,538.1719 569.4219,537.9844 Q569.0938,537.6094 568.4844,537.3906 Q567.875,537.1719 567.25,537.1719 Q566.4844,537.1719 565.8516,537.5 Q565.2188,537.8281 564.7266,538.5781 Q564.2344,539.3281 564.2344,540.3594 L564.2344,541.4531 Q564.2344,542.6875 565.125,543.5078 Q566.0156,544.3281 567.6094,544.3281 Q568.5469,544.3281 569.2031,544.0781 Q569.5938,543.9219 570.0156,543.4844 Q570.2813,543.2188 570.4297,543.1406 Q570.5781,543.0625 570.7813,543.0625 Q571.1094,543.0625 571.3672,543.3203 Q571.625,543.5781 571.625,543.9219 Q571.625,544.2656 571.2813,544.6719 Q570.7813,545.25 569.9844,545.5781 Q568.9063,546.0313 567.6094,546.0313 Q566.0938,546.0313 564.8906,545.4063 Q563.9063,544.9063 563.2188,543.8359 Q562.5313,542.7656 562.5313,541.4844 L562.5313,540.3281 Q562.5313,539 563.1484,537.8516 Q563.7656,536.7031 564.8594,536.0859 Q565.9531,535.4688 567.1875,535.4688 Q567.9219,535.4688 568.5703,535.6328 Q569.2188,535.7969 569.7656,536.1563 Z " fill="#000000"/><text fill="#000000" font-family="sans-serif" font-size="12" lengthAdjust="spacing" textLength="46" x="581" y="545.1914">Checker</text><line style="stroke:#A80036;stroke-width:1.5;" x1="553" x2="629" y1="556.2813" y2="556.2813"/><line style="stroke:#A80036;stroke-width:1.5;" x1="553" x2="629" y1="564.2813" y2="564.2813"/><!--MD5=[18eee71c88ab61f27581b8cbdd3ef5ee]
class Color--><rect codeLine="13" fill="#FEFECE" filter="url(#f1tj0smycdgb6u)" height="75.6719" id="Color" style="stroke:#A80036;stroke-width:1.5;" width="62" x="560" y="642.2813"/><ellipse cx="575" cy="658.2813" fill="#EB937F" rx="11" ry="11" style="stroke:#A80036;stroke-width:1.0;"/><path d="M573.8594,659.0781 L573.8594,661.5781 L578.1875,661.5781 L578.1875,660.6563 Q578.1875,660.0469 578.4297,659.7813 Q578.6719,659.5156 579.0469,659.5156 Q579.4219,659.5156 579.6563,659.7813 Q579.8906,660.0469 579.8906,660.6563 L579.8906,663.2813 L571.8906,663.2813 Q571.2656,663.2813 571.0078,663.0469 Q570.75,662.8125 570.75,662.4219 Q570.75,662.0469 571.0156,661.8125 Q571.2813,661.5781 571.8906,661.5781 L572.1563,661.5781 L572.1563,654.9219 L571.8906,654.9219 Q571.2656,654.9219 571.0078,654.6875 Q570.75,654.4531 570.75,654.0625 Q570.75,653.6875 571.0078,653.4531 Q571.2656,653.2188 571.8906,653.2188 L579.5156,653.2188 L579.5156,655.8125 Q579.5156,656.4219 579.2891,656.6797 Q579.0625,656.9375 578.6719,656.9375 Q578.2969,656.9375 578.0625,656.6797 Q577.8281,656.4219 577.8281,655.8125 L577.8281,654.9219 L573.8594,654.9219 L573.8594,657.375 L575.3438,657.375 Q575.3438,656.7188 575.4688,656.5313 Q575.7344,656.125 576.2031,656.125 Q576.5781,656.125 576.8125,656.3828 Q577.0469,656.6406 577.0469,657.25 L577.0469,659.2188 Q577.0469,659.7656 576.9219,659.9531 Q576.6563,660.3438 576.2031,660.3438 Q575.7344,660.3438 575.4688,659.9375 Q575.3438,659.75 575.3438,659.0781 L573.8594,659.0781 Z " fill="#000000"/><text fill="#000000" font-family="sans-serif" font-size="12" lengthAdjust="spacing" textLength="30" x="589" y="663.1914">Color</text><line style="stroke:#A80036;stroke-width:1.5;" x1="561" x2="621" y1="674.2813" y2="674.2813"/><text fill="#000000" font-family="sans-serif" font-size="11" lengthAdjust="spacing" textLength="22" x="566" y="689.7002">Red,</text><text fill="#000000" font-family="sans-serif" font-size="11" lengthAdjust="spacing" textLength="34" x="566" y="703.5361">Yellow</text><line style="stroke:#A80036;stroke-width:1.5;" x1="561" x2="621" y1="709.9531" y2="709.9531"/><!--MD5=[f04eddc513368489aea0358c3d51bf6a]
class Insertion--><rect codeLine="17" fill="#FEFECE" filter="url(#f1tj0smycdgb6u)" height="48" id="Insertion" style="stroke:#A80036;stroke-width:1.5;" width="80" x="561" y="406.2813"/><ellipse cx="576" cy="422.2813" fill="#ADD1B2" rx="11" ry="11" style="stroke:#A80036;stroke-width:1.0;"/><path d="M578.7656,418.1563 Q578.9219,417.9375 579.1094,417.8281 Q579.2969,417.7188 579.5156,417.7188 Q579.8906,417.7188 580.125,417.9766 Q580.3594,418.2344 580.3594,418.8438 L580.3594,420.2969 Q580.3594,420.9063 580.125,421.1719 Q579.8906,421.4375 579.5156,421.4375 Q579.1719,421.4375 578.9688,421.2344 Q578.7656,421.0469 578.6563,420.5313 Q578.6094,420.1719 578.4219,419.9844 Q578.0938,419.6094 577.4844,419.3906 Q576.875,419.1719 576.25,419.1719 Q575.4844,419.1719 574.8516,419.5 Q574.2188,419.8281 573.7266,420.5781 Q573.2344,421.3281 573.2344,422.3594 L573.2344,423.4531 Q573.2344,424.6875 574.125,425.5078 Q575.0156,426.3281 576.6094,426.3281 Q577.5469,426.3281 578.2031,426.0781 Q578.5938,425.9219 579.0156,425.4844 Q579.2813,425.2188 579.4297,425.1406 Q579.5781,425.0625 579.7813,425.0625 Q580.1094,425.0625 580.3672,425.3203 Q580.625,425.5781 580.625,425.9219 Q580.625,426.2656 580.2813,426.6719 Q579.7813,427.25 578.9844,427.5781 Q577.9063,428.0313 576.6094,428.0313 Q575.0938,428.0313 573.8906,427.4063 Q572.9063,426.9063 572.2188,425.8359 Q571.5313,424.7656 571.5313,423.4844 L571.5313,422.3281 Q571.5313,421 572.1484,419.8516 Q572.7656,418.7031 573.8594,418.0859 Q574.9531,417.4688 576.1875,417.4688 Q576.9219,417.4688 577.5703,417.6328 Q578.2188,417.7969 578.7656,418.1563 Z " fill="#000000"/><text fill="#000000" font-family="sans-serif" font-size="12" lengthAdjust="spacing" textLength="48" x="590" y="427.1914">Insertion</text><line style="stroke:#A80036;stroke-width:1.5;" x1="562" x2="640" y1="438.2813" y2="438.2813"/><line style="stroke:#A80036;stroke-width:1.5;" x1="562" x2="640" y1="446.2813" y2="446.2813"/><!--MD5=[0992d3fdc9d3d7c02b735131bb70871d]
class Goal--><rect codeLine="18" fill="#FEFECE" filter="url(#f1tj0smycdgb6u)" height="48" id="Goal" style="stroke:#A80036;stroke-width:1.5;" width="58" x="321" y="406.2813"/><ellipse cx="336" cy="422.2813" fill="#ADD1B2" rx="11" ry="11" style="stroke:#A80036;stroke-width:1.0;"/><path d="M338.7656,418.1563 Q338.9219,417.9375 339.1094,417.8281 Q339.2969,417.7188 339.5156,417.7188 Q339.8906,417.7188 340.125,417.9766 Q340.3594,418.2344 340.3594,418.8438 L340.3594,420.2969 Q340.3594,420.9063 340.125,421.1719 Q339.8906,421.4375 339.5156,421.4375 Q339.1719,421.4375 338.9688,421.2344 Q338.7656,421.0469 338.6563,420.5313 Q338.6094,420.1719 338.4219,419.9844 Q338.0938,419.6094 337.4844,419.3906 Q336.875,419.1719 336.25,419.1719 Q335.4844,419.1719 334.8516,419.5 Q334.2188,419.8281 333.7266,420.5781 Q333.2344,421.3281 333.2344,422.3594 L333.2344,423.4531 Q333.2344,424.6875 334.125,425.5078 Q335.0156,426.3281 336.6094,426.3281 Q337.5469,426.3281 338.2031,426.0781 Q338.5938,425.9219 339.0156,425.4844 Q339.2813,425.2188 339.4297,425.1406 Q339.5781,425.0625 339.7813,425.0625 Q340.1094,425.0625 340.3672,425.3203 Q340.625,425.5781 340.625,425.9219 Q340.625,426.2656 340.2813,426.6719 Q339.7813,427.25 338.9844,427.5781 Q337.9063,428.0313 336.6094,428.0313 Q335.0938,428.0313 333.8906,427.4063 Q332.9063,426.9063 332.2188,425.8359 Q331.5313,424.7656 331.5313,423.4844 L331.5313,422.3281 Q331.5313,421 332.1484,419.8516 Q332.7656,418.7031 333.8594,418.0859 Q334.9531,417.4688 336.1875,417.4688 Q336.9219,417.4688 337.5703,417.6328 Q338.2188,417.7969 338.7656,418.1563 Z " fill="#000000"/><text fill="#000000" font-family="sans-serif" font-size="12" lengthAdjust="spacing" textLength="26" x="350" y="427.1914">Goal</text><line style="stroke:#A80036;stroke-width:1.5;" x1="322" x2="378" y1="438.2813" y2="438.2813"/><line style="stroke:#A80036;stroke-width:1.5;" x1="322" x2="378" y1="446.2813" y2="446.2813"/><!--MD5=[8eafba4c2355ca0bcb7e3f6e0db0a856]
class 4InLineHorizontal--><rect codeLine="19" fill="#FEFECE" filter="url(#f1tj0smycdgb6u)" height="48" id="4InLineHorizontal" style="stroke:#A80036;stroke-width:1.5;" width="128" x="7" y="524.2813"/><ellipse cx="22" cy="540.2813" fill="#ADD1B2" rx="11" ry="11" style="stroke:#A80036;stroke-width:1.0;"/><path d="M24.7656,536.1563 Q24.9219,535.9375 25.1094,535.8281 Q25.2969,535.7188 25.5156,535.7188 Q25.8906,535.7188 26.125,535.9766 Q26.3594,536.2344 26.3594,536.8438 L26.3594,538.2969 Q26.3594,538.9063 26.125,539.1719 Q25.8906,539.4375 25.5156,539.4375 Q25.1719,539.4375 24.9688,539.2344 Q24.7656,539.0469 24.6563,538.5313 Q24.6094,538.1719 24.4219,537.9844 Q24.0938,537.6094 23.4844,537.3906 Q22.875,537.1719 22.25,537.1719 Q21.4844,537.1719 20.8516,537.5 Q20.2188,537.8281 19.7266,538.5781 Q19.2344,539.3281 19.2344,540.3594 L19.2344,541.4531 Q19.2344,542.6875 20.125,543.5078 Q21.0156,544.3281 22.6094,544.3281 Q23.5469,544.3281 24.2031,544.0781 Q24.5938,543.9219 25.0156,543.4844 Q25.2813,543.2188 25.4297,543.1406 Q25.5781,543.0625 25.7813,543.0625 Q26.1094,543.0625 26.3672,543.3203 Q26.625,543.5781 26.625,543.9219 Q26.625,544.2656 26.2813,544.6719 Q25.7813,545.25 24.9844,545.5781 Q23.9063,546.0313 22.6094,546.0313 Q21.0938,546.0313 19.8906,545.4063 Q18.9063,544.9063 18.2188,543.8359 Q17.5313,542.7656 17.5313,541.4844 L17.5313,540.3281 Q17.5313,539 18.1484,537.8516 Q18.7656,536.7031 19.8594,536.0859 Q20.9531,535.4688 22.1875,535.4688 Q22.9219,535.4688 23.5703,535.6328 Q24.2188,535.7969 24.7656,536.1563 Z " fill="#000000"/><text fill="#000000" font-family="sans-serif" font-size="12" lengthAdjust="spacing" textLength="96" x="36" y="545.1914">4InLineHorizontal</text><line style="stroke:#A80036;stroke-width:1.5;" x1="8" x2="134" y1="556.2813" y2="556.2813"/><line style="stroke:#A80036;stroke-width:1.5;" x1="8" x2="134" y1="564.2813" y2="564.2813"/><!--MD5=[3b7c20eacaf61c87cda99c86b620f1d9]
class 4InLineVertical--><rect codeLine="20" fill="#FEFECE" filter="url(#f1tj0smycdgb6u)" height="48" id="4InLineVertical" style="stroke:#A80036;stroke-width:1.5;" width="113" x="195.5" y="524.2813"/><ellipse cx="210.5" cy="540.2813" fill="#ADD1B2" rx="11" ry="11" style="stroke:#A80036;stroke-width:1.0;"/><path d="M213.2656,536.1563 Q213.4219,535.9375 213.6094,535.8281 Q213.7969,535.7188 214.0156,535.7188 Q214.3906,535.7188 214.625,535.9766 Q214.8594,536.2344 214.8594,536.8438 L214.8594,538.2969 Q214.8594,538.9063 214.625,539.1719 Q214.3906,539.4375 214.0156,539.4375 Q213.6719,539.4375 213.4688,539.2344 Q213.2656,539.0469 213.1563,538.5313 Q213.1094,538.1719 212.9219,537.9844 Q212.5938,537.6094 211.9844,537.3906 Q211.375,537.1719 210.75,537.1719 Q209.9844,537.1719 209.3516,537.5 Q208.7188,537.8281 208.2266,538.5781 Q207.7344,539.3281 207.7344,540.3594 L207.7344,541.4531 Q207.7344,542.6875 208.625,543.5078 Q209.5156,544.3281 211.1094,544.3281 Q212.0469,544.3281 212.7031,544.0781 Q213.0938,543.9219 213.5156,543.4844 Q213.7813,543.2188 213.9297,543.1406 Q214.0781,543.0625 214.2813,543.0625 Q214.6094,543.0625 214.8672,543.3203 Q215.125,543.5781 215.125,543.9219 Q215.125,544.2656 214.7813,544.6719 Q214.2813,545.25 213.4844,545.5781 Q212.4063,546.0313 211.1094,546.0313 Q209.5938,546.0313 208.3906,545.4063 Q207.4063,544.9063 206.7188,543.8359 Q206.0313,542.7656 206.0313,541.4844 L206.0313,540.3281 Q206.0313,539 206.6484,537.8516 Q207.2656,536.7031 208.3594,536.0859 Q209.4531,535.4688 210.6875,535.4688 Q211.4219,535.4688 212.0703,535.6328 Q212.7188,535.7969 213.2656,536.1563 Z " fill="#000000"/><text fill="#000000" font-family="sans-serif" font-size="12" lengthAdjust="spacing" textLength="81" x="224.5" y="545.1914">4InLineVertical</text><line style="stroke:#A80036;stroke-width:1.5;" x1="196.5" x2="307.5" y1="556.2813" y2="556.2813"/><line style="stroke:#A80036;stroke-width:1.5;" x1="196.5" x2="307.5" y1="564.2813" y2="564.2813"/><!--MD5=[bdcbb5412bae3c73d0734aa833bba632]
class 4InLineDiagonal--><rect codeLine="21" fill="#FEFECE" filter="url(#f1tj0smycdgb6u)" height="48" id="4InLineDiagonal" style="stroke:#A80036;stroke-width:1.5;" width="123" x="368.5" y="524.2813"/><ellipse cx="383.5" cy="540.2813" fill="#ADD1B2" rx="11" ry="11" style="stroke:#A80036;stroke-width:1.0;"/><path d="M386.2656,536.1563 Q386.4219,535.9375 386.6094,535.8281 Q386.7969,535.7188 387.0156,535.7188 Q387.3906,535.7188 387.625,535.9766 Q387.8594,536.2344 387.8594,536.8438 L387.8594,538.2969 Q387.8594,538.9063 387.625,539.1719 Q387.3906,539.4375 387.0156,539.4375 Q386.6719,539.4375 386.4688,539.2344 Q386.2656,539.0469 386.1563,538.5313 Q386.1094,538.1719 385.9219,537.9844 Q385.5938,537.6094 384.9844,537.3906 Q384.375,537.1719 383.75,537.1719 Q382.9844,537.1719 382.3516,537.5 Q381.7188,537.8281 381.2266,538.5781 Q380.7344,539.3281 380.7344,540.3594 L380.7344,541.4531 Q380.7344,542.6875 381.625,543.5078 Q382.5156,544.3281 384.1094,544.3281 Q385.0469,544.3281 385.7031,544.0781 Q386.0938,543.9219 386.5156,543.4844 Q386.7813,543.2188 386.9297,543.1406 Q387.0781,543.0625 387.2813,543.0625 Q387.6094,543.0625 387.8672,543.3203 Q388.125,543.5781 388.125,543.9219 Q388.125,544.2656 387.7813,544.6719 Q387.2813,545.25 386.4844,545.5781 Q385.4063,546.0313 384.1094,546.0313 Q382.5938,546.0313 381.3906,545.4063 Q380.4063,544.9063 379.7188,543.8359 Q379.0313,542.7656 379.0313,541.4844 L379.0313,540.3281 Q379.0313,539 379.6484,537.8516 Q380.2656,536.7031 381.3594,536.0859 Q382.4531,535.4688 383.6875,535.4688 Q384.4219,535.4688 385.0703,535.6328 Q385.7188,535.7969 386.2656,536.1563 Z " fill="#000000"/><text fill="#000000" font-family="sans-serif" font-size="12" lengthAdjust="spacing" textLength="91" x="397.5" y="545.1914">4InLineDiagonal</text><line style="stroke:#A80036;stroke-width:1.5;" x1="369.5" x2="490.5" y1="556.2813" y2="556.2813"/><line style="stroke:#A80036;stroke-width:1.5;" x1="369.5" x2="490.5" y1="564.2813" y2="564.2813"/><!--MD5=[e06ef809dd6be8ce79b58fe0a1161eb8]
class Column--><rect fill="#FEFECE" filter="url(#f1tj0smycdgb6u)" height="48" id="Column" style="stroke:#A80036;stroke-width:1.5;" width="76" x="690" y="524.2813"/><ellipse cx="705" cy="540.2813" fill="#ADD1B2" rx="11" ry="11" style="stroke:#A80036;stroke-width:1.0;"/><path d="M707.7656,536.1563 Q707.9219,535.9375 708.1094,535.8281 Q708.2969,535.7188 708.5156,535.7188 Q708.8906,535.7188 709.125,535.9766 Q709.3594,536.2344 709.3594,536.8438 L709.3594,538.2969 Q709.3594,538.9063 709.125,539.1719 Q708.8906,539.4375 708.5156,539.4375 Q708.1719,539.4375 707.9688,539.2344 Q707.7656,539.0469 707.6563,538.5313 Q707.6094,538.1719 707.4219,537.9844 Q707.0938,537.6094 706.4844,537.3906 Q705.875,537.1719 705.25,537.1719 Q704.4844,537.1719 703.8516,537.5 Q703.2188,537.8281 702.7266,538.5781 Q702.2344,539.3281 702.2344,540.3594 L702.2344,541.4531 Q702.2344,542.6875 703.125,543.5078 Q704.0156,544.3281 705.6094,544.3281 Q706.5469,544.3281 707.2031,544.0781 Q707.5938,543.9219 708.0156,543.4844 Q708.2813,543.2188 708.4297,543.1406 Q708.5781,543.0625 708.7813,543.0625 Q709.1094,543.0625 709.3672,543.3203 Q709.625,543.5781 709.625,543.9219 Q709.625,544.2656 709.2813,544.6719 Q708.7813,545.25 707.9844,545.5781 Q706.9063,546.0313 705.6094,546.0313 Q704.0938,546.0313 702.8906,545.4063 Q701.9063,544.9063 701.2188,543.8359 Q700.5313,542.7656 700.5313,541.4844 L700.5313,540.3281 Q700.5313,539 701.1484,537.8516 Q701.7656,536.7031 702.8594,536.0859 Q703.9531,535.4688 705.1875,535.4688 Q705.9219,535.4688 706.5703,535.6328 Q707.2188,535.7969 707.7656,536.1563 Z " fill="#000000"/><text fill="#000000" font-family="sans-serif" font-size="12" lengthAdjust="spacing" textLength="44" x="719" y="545.1914">Column</text><line style="stroke:#A80036;stroke-width:1.5;" x1="691" x2="765" y1="556.2813" y2="556.2813"/><line style="stroke:#A80036;stroke-width:1.5;" x1="691" x2="765" y1="564.2813" y2="564.2813"/><!--MD5=[05aedcff764caeeb5d443618a4d90de7]
class Row--><rect fill="#FEFECE" filter="url(#f1tj0smycdgb6u)" height="48" id="Row" style="stroke:#A80036;stroke-width:1.5;" width="57" x="826.5" y="524.2813"/><ellipse cx="841.5" cy="540.2813" fill="#ADD1B2" rx="11" ry="11" style="stroke:#A80036;stroke-width:1.0;"/><path d="M844.2656,536.1563 Q844.4219,535.9375 844.6094,535.8281 Q844.7969,535.7188 845.0156,535.7188 Q845.3906,535.7188 845.625,535.9766 Q845.8594,536.2344 845.8594,536.8438 L845.8594,538.2969 Q845.8594,538.9063 845.625,539.1719 Q845.3906,539.4375 845.0156,539.4375 Q844.6719,539.4375 844.4688,539.2344 Q844.2656,539.0469 844.1563,538.5313 Q844.1094,538.1719 843.9219,537.9844 Q843.5938,537.6094 842.9844,537.3906 Q842.375,537.1719 841.75,537.1719 Q840.9844,537.1719 840.3516,537.5 Q839.7188,537.8281 839.2266,538.5781 Q838.7344,539.3281 838.7344,540.3594 L838.7344,541.4531 Q838.7344,542.6875 839.625,543.5078 Q840.5156,544.3281 842.1094,544.3281 Q843.0469,544.3281 843.7031,544.0781 Q844.0938,543.9219 844.5156,543.4844 Q844.7813,543.2188 844.9297,543.1406 Q845.0781,543.0625 845.2813,543.0625 Q845.6094,543.0625 845.8672,543.3203 Q846.125,543.5781 846.125,543.9219 Q846.125,544.2656 845.7813,544.6719 Q845.2813,545.25 844.4844,545.5781 Q843.4063,546.0313 842.1094,546.0313 Q840.5938,546.0313 839.3906,545.4063 Q838.4063,544.9063 837.7188,543.8359 Q837.0313,542.7656 837.0313,541.4844 L837.0313,540.3281 Q837.0313,539 837.6484,537.8516 Q838.2656,536.7031 839.3594,536.0859 Q840.4531,535.4688 841.6875,535.4688 Q842.4219,535.4688 843.0703,535.6328 Q843.7188,535.7969 844.2656,536.1563 Z " fill="#000000"/><text fill="#000000" font-family="sans-serif" font-size="12" lengthAdjust="spacing" textLength="25" x="855.5" y="545.1914">Row</text><line style="stroke:#A80036;stroke-width:1.5;" x1="827.5" x2="882.5" y1="556.2813" y2="556.2813"/><line style="stroke:#A80036;stroke-width:1.5;" x1="827.5" x2="882.5" y1="564.2813" y2="564.2813"/><!--MD5=[6824fd9902778444ee49992acd2ffe7e]
link Connect4 to Turn--><path codeLine="23" d="M539.3708,108.8202 C539.3708,108.8202 502.19,144.7613 485.72,160.6812 " fill="none" id="Connect4-Turn" style="stroke:#A80036;stroke-width:1.0;"/><polygon fill="#A80036" points="475.95,170.1213,485.2015,166.7435,479.5455,166.6467,479.6423,160.9907,475.95,170.1213" style="stroke:#A80036;stroke-width:1.0;"/><line style="stroke:#A80036;stroke-width:1.0;" x1="479.5455" x2="485.3" y1="166.6467" y2="161.0913"/><polygon fill="#A80036" points="548,100.4813,540.9058,101.7743,539.3708,108.8202,546.465,107.5271,548,100.4813" style="stroke:#A80036;stroke-width:1.0;"/><!--MD5=[46750473935a00282743b47f522de7be]
link Connect4 to Player--><path codeLine="24" d="M566.4478,112.4243 C566.4478,112.4243 547.65,231.3012 540.7,275.2113 " fill="none" id="Connect4-Player" style="stroke:#A80036;stroke-width:1.0;"/><polygon fill="#A80036" points="538.67,288.0813,544.0252,279.8155,539.4501,283.1425,536.1232,278.5674,538.67,288.0813" style="stroke:#A80036;stroke-width:1.0;"/><line style="stroke:#A80036;stroke-width:1.0;" x1="539.4501" x2="540.695" y1="283.1425" y2="275.2413"/><polygon fill="#A80036" points="568.32,100.5712,563.4329,105.8737,566.4478,112.4243,571.3349,107.1219,568.32,100.5712" style="stroke:#A80036;stroke-width:1.0;"/><text fill="#000000" font-family="sans-serif" font-size="13" lengthAdjust="spacing" textLength="7" x="531.7136" y="277.3702">2</text><!--MD5=[5426a1d26e36fcd61d30da6b8a6545ec]
link Connect4 to Board--><path codeLine="25" d="M589.68,111.2159 C589.68,111.2159 652.86,232.3612 675.88,276.5213 " fill="none" id="Connect4-Board" style="stroke:#A80036;stroke-width:1.0;"/><polygon fill="#A80036" points="681.91,288.0813,681.2937,278.2517,679.5974,283.6482,674.2008,281.9519,681.91,288.0813" style="stroke:#A80036;stroke-width:1.0;"/><line style="stroke:#A80036;stroke-width:1.0;" x1="679.5974" x2="675.895" y1="283.6482" y2="276.5563"/><polygon fill="#A80036" points="584.14,100.5712,583.3618,107.7402,589.68,111.2159,590.4582,104.0469,584.14,100.5712" style="stroke:#A80036;stroke-width:1.0;"/><!--MD5=[d81713d91ad05be3b975338c4816ee0b]
link Turn to Player--><path codeLine="27" d="M468.6,218.4813 C482.11,237.3612 501.22,264.0713 515.47,283.9813 " fill="none" id="Turn-to-Player" style="stroke:#A80036;stroke-width:1.0;"/><polygon fill="#A80036" points="518.43,288.1213,516.4442,278.4747,515.5198,284.0555,509.939,283.131,518.43,288.1213" style="stroke:#A80036;stroke-width:1.0;"/><text fill="#000000" font-family="sans-serif" font-size="13" lengthAdjust="spacing" textLength="7" x="492.7496" y="277.4204">2</text><!--MD5=[5fc9219214a6d7db882d960f5244e6cf]
link Player to Checker--><path codeLine="28" d="M530.06,336.3113 C524.93,364.6913 519.17,414.1113 531,454.2813 C538.11,478.4113 553.64,502.1813 567.11,519.6513 " fill="none" id="Player-to-Checker" style="stroke:#A80036;stroke-width:1.0;"/><polygon fill="#A80036" points="570.49,523.9513,568.055,514.4082,567.3927,520.0261,561.7748,519.3638,570.49,523.9513" style="stroke:#A80036;stroke-width:1.0;"/><text fill="#000000" font-family="sans-serif" font-size="13" lengthAdjust="spacing" textLength="14" x="540.3219" y="513.6088">21</text><!--MD5=[1571e4e0b7cdbae74b04c97a95677c54]
link Player to Goal--><path codeLine="29" d="M501.93,334.0213 C468.51,354.9713 417.14,387.1813 383.55,408.2413 " fill="none" id="Player-to-Goal" style="stroke:#A80036;stroke-width:1.0;"/><polygon fill="#A80036" points="379.14,411.0113,388.8907,409.6244,383.3776,408.3574,384.6446,402.8443,379.14,411.0113" style="stroke:#A80036;stroke-width:1.0;"/><!--MD5=[7bb762d18462f0af16144f4412d331d8]
link Player to Insertion--><path codeLine="30" d="M548.2,336.4813 C558.9,355.2813 574.01,381.8413 585.33,401.7313 " fill="none" id="Player-to-Insertion" style="stroke:#A80036;stroke-width:1.0;stroke-dasharray:7.0,7.0;"/><polygon fill="#A80036" points="587.83,406.1213,586.8551,396.3208,585.357,401.7756,579.9021,400.2776,587.83,406.1213" style="stroke:#A80036;stroke-width:1.0;"/><text fill="#000000" font-family="sans-serif" font-size="13" lengthAdjust="spacing" textLength="29" x="547.2271" y="395.4204">3..21</text><!--MD5=[c1f7e88598f78d9459764ed93737eb14]
link Player to Board--><path codeLine="31" d="M568.23,312.2813 C597.49,312.2813 626.75,312.2813 656.01,312.2813 " fill="none" id="Player-to-Board" style="stroke:#A80036;stroke-width:1.0;"/><polygon fill="#A80036" points="661.08,312.2813,652.08,308.2813,656.08,312.2813,652.08,316.2813,661.08,312.2813" style="stroke:#A80036;stroke-width:1.0;"/><!--MD5=[c148346f61f96d5968c9850ebe71e5d5]
link Board to Cell--><path codeLine="33" d="M704.1767,347.9964 C704.1767,347.9964 713.33,379.2213 717.47,393.3513 " fill="none" id="Board-Cell" style="stroke:#A80036;stroke-width:1.0;"/><polygon fill="#A80036" points="721.21,406.1213,722.5158,396.3593,719.803,401.3233,714.8391,398.6105,721.21,406.1213" style="stroke:#A80036;stroke-width:1.0;"/><line style="stroke:#A80036;stroke-width:1.0;" x1="719.803" x2="717.555" y1="401.3233" y2="393.6513"/><polygon fill="#A80036" points="700.8,336.4813,698.65,343.3644,704.1767,347.9964,706.3267,341.1132,700.8,336.4813" style="stroke:#A80036;stroke-width:1.0;"/><text fill="#000000" font-family="sans-serif" font-size="13" lengthAdjust="spacing" textLength="21" x="691.2669" y="395.4204">7x6</text><!--MD5=[426b59f6a7e6b44dc35cddfe28235449]
link Cell to Checker--><path codeLine="34" d="M691.7744,461.9585 C691.7744,461.9585 647.91,499.0913 628.49,515.5313 " fill="none" id="Cell-Checker" style="stroke:#A80036;stroke-width:1.0;"/><polygon fill="#A80036" points="618.48,524.0113,627.9325,521.2452,622.2948,520.7791,622.761,515.1415,618.48,524.0113" style="stroke:#A80036;stroke-width:1.0;"/><line style="stroke:#A80036;stroke-width:1.0;" x1="622.2948" x2="628.4" y1="520.7791" y2="515.6112"/><polygon fill="#FFFFFF" points="700.93,454.2013,693.7664,455.028,691.7744,461.9585,698.9379,461.1317,700.93,454.2013" style="stroke:#A80036;stroke-width:1.0;"/><text fill="#000000" font-family="sans-serif" font-size="13" lengthAdjust="spacing" textLength="22" x="600.703" y="513.2822">0..1</text><!--MD5=[cf6099374887ae4fbefe86fb043b4b37]
link Cell to Column--><path codeLine="35" d="M728,454.4813 C728,473.0513 728,499.1713 728,518.9813 " fill="none" id="Cell-to-Column" style="stroke:#A80036;stroke-width:1.0;"/><polygon fill="#A80036" points="728,524.1213,732,515.1213,728,519.1213,724,515.1213,728,524.1213" style="stroke:#A80036;stroke-width:1.0;"/><!--MD5=[af531668c4b2523acc4c83e34301bfb0]
link Cell to Row--><path codeLine="36" d="M753.4,454.4813 C774.33,473.6013 804.04,500.7413 825.93,520.7313 " fill="none" id="Cell-to-Row" style="stroke:#A80036;stroke-width:1.0;"/><polygon fill="#A80036" points="829.65,524.1213,825.709,515.0953,825.9607,520.7465,820.3094,520.9982,829.65,524.1213" style="stroke:#A80036;stroke-width:1.0;"/><!--MD5=[01c180ace0bc8fc98fac5bb07e834036]
link Checker to Color--><path codeLine="38" d="M591,584.5213 C591,584.5213 591,614.5013 591,628.8613 " fill="none" id="Checker-Color" style="stroke:#A80036;stroke-width:1.0;"/><polygon fill="#A80036" points="591,642.2313,595,633.2313,591,637.2313,587,633.2313,591,642.2313" style="stroke:#A80036;stroke-width:1.0;"/><line style="stroke:#A80036;stroke-width:1.0;" x1="591" x2="591" y1="637.2313" y2="629.2313"/><polygon fill="#A80036" points="591,572.5213,587,578.5213,591,584.5213,595,578.5213,591,572.5213" style="stroke:#A80036;stroke-width:1.0;"/><!--MD5=[79b08d30461a7da1c0ce8dbf8a6933a5]
link Insertion to Checker--><path codeLine="39" d="M599,454.4813 C597.4,473.0513 595.15,499.1713 593.44,518.9813 " fill="none" id="Insertion-to-Checker" style="stroke:#A80036;stroke-width:1.0;"/><polygon fill="#A80036" points="593,524.1213,597.7561,515.4969,593.4282,519.1396,589.7855,514.8117,593,524.1213" style="stroke:#A80036;stroke-width:1.0;"/><!--MD5=[a927f44c447d6b63d0b7ff2d60bc3d59]
link Insertion to Cell--><path codeLine="40" d="M641.18,430.2813 C659.37,430.2813 677.55,430.2813 695.74,430.2813 " fill="none" id="Insertion-to-Cell" style="stroke:#A80036;stroke-width:1.0;"/><polygon fill="#A80036" points="700.87,430.2813,691.87,426.2813,695.87,430.2813,691.87,434.2813,700.87,430.2813" style="stroke:#A80036;stroke-width:1.0;"/><!--MD5=[9f46abdd91245cbe2a8d8e0b23a48361]
link Goal to Checker--><path codeLine="42" d="M379.07,445.2713 C420.91,465.4113 498.43,502.7213 547.22,526.2113 " fill="none" id="Goal-to-Checker" style="stroke:#A80036;stroke-width:1.0;"/><polygon fill="#A80036" points="551.85,528.4413,545.4734,520.9353,547.3442,526.2739,542.0056,528.1447,551.85,528.4413" style="stroke:#A80036;stroke-width:1.0;"/><text fill="#000000" font-family="sans-serif" font-size="13" lengthAdjust="spacing" textLength="7" x="536.9864" y="539.7858">4</text><!--MD5=[9a977433e608fbaeb4f645760b1175d9]
reverse link Goal to 4InLineHorizontal--><path codeLine="43" d="M302.44,451.0513 C253.65,471.3413 177.82,502.8713 126.36,524.2613 " fill="none" id="Goal-backto-4InLineHorizontal" style="stroke:#A80036;stroke-width:1.0;"/><polygon fill="none" points="299.78,444.5813,320.93,443.3713,305.15,457.5113,299.78,444.5813" style="stroke:#A80036;stroke-width:1.0;"/><!--MD5=[708770dd85c76252c1377ff40b6e39bf]
reverse link Goal to 4InLineVertical--><path codeLine="44" d="M317.33,469.9512 C302.17,487.9013 284.64,508.6413 271.56,524.1213 " fill="none" id="Goal-backto-4InLineVertical" style="stroke:#A80036;stroke-width:1.0;"/><polygon fill="none" points="312.15,465.2413,330.4,454.4813,322.84,474.2713,312.15,465.2413" style="stroke:#A80036;stroke-width:1.0;"/><!--MD5=[bc6e461644a49b7b6411796378ac96ef]
reverse link Goal to 4InLineDiagonal--><path codeLine="45" d="M377.43,471.0513 C389.63,488.7413 403.57,508.9613 414.03,524.1213 " fill="none" id="Goal-backto-4InLineDiagonal" style="stroke:#A80036;stroke-width:1.0;"/><polygon fill="none" points="371.59,474.9113,366,454.4813,383.11,466.9713,371.59,474.9113" style="stroke:#A80036;stroke-width:1.0;"/><!--MD5=[594ba6c4439774694126aeafd7254df6]
@startuml connect4- -vocabulary

skinparam nodesep 60
skinparam ranksep 70

title Connect4 Vocabulary \n

class Connect4
class Turn
class Player
class Board
class Cell
class Checker
enum Color {
    Red,
    Yellow
}
class Insertion
class Goal
class 4InLineHorizontal
class 4InLineVertical
class 4InLineDiagonal

Connect4 *- -> Turn
Connect4 *-d-> "2" Player
Connect4 *- -> Board

Turn - -> "2   " Player
Player -d-> " 21  " Checker
Player - -> Goal
Player ..> "3..21 " Insertion
Player -r-> Board

Board *-d-> "7x6 " Cell
Cell o- -> "0..1" Checker
Cell -d-> Column
Cell - -> Row

Checker *- -> Color
Insertion - -> Checker
Insertion -r- -> Cell

Goal -r-> "4" Checker
Goal <|-down- 4InLineHorizontal
Goal <|-down- 4InLineVertical
Goal <|-down- 4InLineDiagonal



@enduml

PlantUML version 1.2022.0(Tue Jan 11 17:16:42 CET 2022)
(GPL source distribution)
Java Runtime: Java(TM) SE Runtime Environment
JVM: Java HotSpot(TM) 64-Bit Server VM
Default Encoding: Cp1252
Language: es
Country: ES
--></g></svg>