<?xml version="1.0" encoding="UTF-8" standalone="no"?><svg xmlns="http://www.w3.org/2000/svg" xmlns:xlink="http://www.w3.org/1999/xlink" contentScriptType="application/ecmascript" contentStyleType="text/css" height="512px" preserveAspectRatio="none" style="width:845px;height:512px;background:#FFFFFF;" version="1.1" viewBox="0 0 845 512" width="845px" zoomAndPan="magnify"><defs><filter height="300%" id="f109fe5ho316vh" width="300%" x="-1" y="-1"><feGaussianBlur result="blurOut" stdDeviation="2.0"/><feColorMatrix in="blurOut" result="blurOut2" type="matrix" values="0 0 0 0 0 0 0 0 0 0 0 0 0 0 0 0 0 0 .4 0"/><feOffset dx="4.0" dy="4.0" in="blurOut2" result="blurOut3"/><feBlend in="SourceGraphic" in2="blurOut3" mode="normal"/></filter></defs><g><text fill="#000000" font-family="sans-serif" font-size="18" lengthAdjust="spacing" textLength="175" x="326" y="18.6855">Connect4. Initial State</text><text fill="#000000" font-family="sans-serif" font-size="18" lengthAdjust="spacing" textLength="0" x="418.5" y="41.3262"/><rect fill="#FEFECE" filter="url(#f109fe5ho316vh)" height="52.25" style="stroke:#A80036;stroke-width:1.5;" width="71" x="239.5" y="62.7813"/><text fill="#000000" font-family="sans-serif" font-size="12" lengthAdjust="spacing" textLength="57" x="246.5" y="77.2383">newGame</text><line style="stroke:#A80036;stroke-width:1.5;" x1="240.5" x2="309.5" y1="81.875" y2="81.875"/><text fill="#000000" font-family="sans-serif" font-size="10" lengthAdjust="spacing" textLength="53" x="245.5" y="96.2559">nGame = 1</text><text fill="#000000" font-family="sans-serif" font-size="10" lengthAdjust="spacing" textLength="44" x="245.5" y="108.834">status = 1</text><path d="M58,51.2813 L58,126.6875 A0,0 0 0 0 58,126.6875 L204,126.6875 A0,0 0 0 0 204,126.6875 L204,92.7813 L239.29,88.7813 L204,84.7813 L204,61.2813 L194,51.2813 L58,51.2813 A0,0 0 0 0 58,51.2813 " fill="#FBFB77" filter="url(#f109fe5ho316vh)" style="stroke:#A80036;stroke-width:1.0;"/><path d="M194,51.2813 L194,61.2813 L204,61.2813 L194,51.2813 " fill="#FBFB77" style="stroke:#A80036;stroke-width:1.0;"/><text fill="#000000" font-family="sans-serif" font-size="13" lengthAdjust="spacing" textLength="125" x="64" y="69.7764">status 0 = not started</text><text fill="#000000" font-family="sans-serif" font-size="13" lengthAdjust="spacing" textLength="103" x="64" y="86.1279">status 1 = started</text><text fill="#000000" font-family="sans-serif" font-size="13" lengthAdjust="spacing" textLength="105" x="64" y="102.4795">status 2 = paused</text><text fill="#000000" font-family="sans-serif" font-size="13" lengthAdjust="spacing" textLength="107" x="64" y="118.8311">status 3 = finished</text><rect fill="#FEFECE" filter="url(#f109fe5ho316vh)" height="64.8281" style="stroke:#A80036;stroke-width:1.5;" width="103" x="288.5" y="336.2813"/><text fill="#000000" font-family="sans-serif" font-size="12" lengthAdjust="spacing" textLength="24" x="328" y="350.7383">goal</text><line style="stroke:#A80036;stroke-width:1.5;" x1="289.5" x2="390.5" y1="355.375" y2="355.375"/><text fill="#000000" font-family="sans-serif" font-size="10" lengthAdjust="spacing" textLength="91" x="294.5" y="369.7559">name = '4 in a line'</text><text fill="#000000" font-family="sans-serif" font-size="10" lengthAdjust="spacing" textLength="60" x="294.5" y="382.334">status = false</text><text fill="#000000" font-family="sans-serif" font-size="10" lengthAdjust="spacing" textLength="61" x="294.5" y="394.9121">winner = null</text><rect fill="#FEFECE" filter="url(#f109fe5ho316vh)" height="52.25" style="stroke:#A80036;stroke-width:1.5;" width="110" x="7" y="342.7813"/><text fill="#000000" font-family="sans-serif" font-size="12" lengthAdjust="spacing" textLength="21" x="51.5" y="357.2383">turn</text><line style="stroke:#A80036;stroke-width:1.5;" x1="8" x2="116" y1="361.875" y2="361.875"/><text fill="#000000" font-family="sans-serif" font-size="10" lengthAdjust="spacing" textLength="36" x="13" y="376.2559">turn = 0</text><text fill="#000000" font-family="sans-serif" font-size="10" lengthAdjust="spacing" textLength="98" x="13" y="388.834">remainingTurns = 42</text><rect fill="#FEFECE" filter="url(#f109fe5ho316vh)" height="52.25" style="stroke:#A80036;stroke-width:1.5;" width="70" x="714" y="205.2813"/><text fill="#000000" font-family="sans-serif" font-size="12" lengthAdjust="spacing" textLength="49" x="724.5" y="219.7383">myBoard</text><line style="stroke:#A80036;stroke-width:1.5;" x1="715" x2="783" y1="224.375" y2="224.375"/><text fill="#000000" font-family="sans-serif" font-size="10" lengthAdjust="spacing" textLength="58" x="720" y="238.7559">columns = 7</text><text fill="#000000" font-family="sans-serif" font-size="10" lengthAdjust="spacing" textLength="38" x="720" y="251.334">rows = 6</text><rect fill="#FEFECE" filter="url(#f109fe5ho316vh)" height="52.25" style="stroke:#A80036;stroke-width:1.5;" width="92" x="739" y="342.7813"/><text fill="#000000" font-family="sans-serif" font-size="12" lengthAdjust="spacing" textLength="33" x="768.5" y="357.2383">cellA1</text><line style="stroke:#A80036;stroke-width:1.5;" x1="740" x2="830" y1="361.875" y2="361.875"/><text fill="#000000" font-family="sans-serif" font-size="10" lengthAdjust="spacing" textLength="80" x="745" y="376.2559">coordinates = A1</text><text fill="#000000" font-family="sans-serif" font-size="10" lengthAdjust="spacing" textLength="58" x="745" y="388.834">filled = false</text><rect fill="#FEFECE" filter="url(#f109fe5ho316vh)" height="89.9844" style="stroke:#A80036;stroke-width:1.5;" width="94" x="160" y="186.2813"/><text fill="#000000" font-family="sans-serif" font-size="12" lengthAdjust="spacing" textLength="40" x="187" y="200.7383">player1</text><line style="stroke:#A80036;stroke-width:1.5;" x1="161" x2="253" y1="205.375" y2="205.375"/><text fill="#000000" font-family="sans-serif" font-size="10" lengthAdjust="spacing" textLength="27" x="166" y="219.7559">id = 1</text><text fill="#000000" font-family="sans-serif" font-size="10" lengthAdjust="spacing" textLength="69" x="166" y="232.334">name = 'vilma'</text><text fill="#000000" font-family="sans-serif" font-size="10" lengthAdjust="spacing" textLength="70" x="166" y="244.9121">color = 'yellow'</text><text fill="#000000" font-family="sans-serif" font-size="10" lengthAdjust="spacing" textLength="65" x="166" y="257.4902">checkers = 21</text><text fill="#000000" font-family="sans-serif" font-size="10" lengthAdjust="spacing" textLength="82" x="166" y="270.0684">usedCheckers = 0</text><rect fill="#FEFECE" filter="url(#f109fe5ho316vh)" height="89.9844" style="stroke:#A80036;stroke-width:1.5;" width="94" x="293" y="186.2813"/><text fill="#000000" font-family="sans-serif" font-size="12" lengthAdjust="spacing" textLength="40" x="320" y="200.7383">player2</text><line style="stroke:#A80036;stroke-width:1.5;" x1="294" x2="386" y1="205.375" y2="205.375"/><text fill="#000000" font-family="sans-serif" font-size="10" lengthAdjust="spacing" textLength="27" x="299" y="219.7559">id = 2</text><text fill="#000000" font-family="sans-serif" font-size="10" lengthAdjust="spacing" textLength="70" x="299" y="232.334">name = 'pedro'</text><text fill="#000000" font-family="sans-serif" font-size="10" lengthAdjust="spacing" textLength="55" x="299" y="244.9121">color = 'red'</text><text fill="#000000" font-family="sans-serif" font-size="10" lengthAdjust="spacing" textLength="65" x="299" y="257.4902">checkers = 21</text><text fill="#000000" font-family="sans-serif" font-size="10" lengthAdjust="spacing" textLength="82" x="299" y="270.0684">usedCheckers = 0</text><rect fill="#FEFECE" filter="url(#f109fe5ho316vh)" height="64.8281" style="stroke:#A80036;stroke-width:1.5;" width="85" x="426.5" y="336.2813"/><text fill="#000000" font-family="sans-serif" font-size="12" lengthAdjust="spacing" textLength="71" x="433.5" y="350.7383">redChecker1</text><line style="stroke:#A80036;stroke-width:1.5;" x1="427.5" x2="510.5" y1="355.375" y2="355.375"/><text fill="#000000" font-family="sans-serif" font-size="10" lengthAdjust="spacing" textLength="30" x="432.5" y="369.7559">id = r1</text><text fill="#000000" font-family="sans-serif" font-size="10" lengthAdjust="spacing" textLength="67" x="432.5" y="382.334">position = null</text><text fill="#000000" font-family="sans-serif" font-size="10" lengthAdjust="spacing" textLength="55" x="432.5" y="394.9121">color = 'red'</text><rect fill="#FEFECE" filter="url(#f109fe5ho316vh)" height="64.8281" style="stroke:#A80036;stroke-width:1.5;" width="101" x="152.5" y="336.2813"/><text fill="#000000" font-family="sans-serif" font-size="12" lengthAdjust="spacing" textLength="87" x="159.5" y="350.7383">yellowChecker1</text><line style="stroke:#A80036;stroke-width:1.5;" x1="153.5" x2="252.5" y1="355.375" y2="355.375"/><text fill="#000000" font-family="sans-serif" font-size="10" lengthAdjust="spacing" textLength="32" x="158.5" y="369.7559">id = y1</text><text fill="#000000" font-family="sans-serif" font-size="10" lengthAdjust="spacing" textLength="67" x="158.5" y="382.334">position = null</text><text fill="#000000" font-family="sans-serif" font-size="10" lengthAdjust="spacing" textLength="70" x="158.5" y="394.9121">color = 'yellow'</text><path d="M457,209.7813 L457,252.4844 A0,0 0 0 0 457,252.4844 L679,252.4844 A0,0 0 0 0 679,252.4844 L679,235.2813 L713.73,231.2813 L679,227.2813 L679,219.7813 L669,209.7813 L457,209.7813 A0,0 0 0 0 457,209.7813 " fill="#FBFB77" filter="url(#f109fe5ho316vh)" style="stroke:#A80036;stroke-width:1.0;"/><path d="M669,209.7813 L669,219.7813 L679,219.7813 L669,209.7813 " fill="#FBFB77" style="stroke:#A80036;stroke-width:1.0;"/><text fill="#000000" font-family="sans-serif" font-size="13" lengthAdjust="spacing" textLength="201" x="463" y="228.2764">7 columns, from A (left) to G (right)</text><text fill="#000000" font-family="sans-serif" font-size="13" lengthAdjust="spacing" textLength="190" x="463" y="244.6279">6 rows, from 1 (bottom) to 6 (top)</text><path d="M546.5,339.2813 L546.5,398.3359 A0,0 0 0 0 546.5,398.3359 L703.5,398.3359 A0,0 0 0 0 703.5,398.3359 L703.5,372.7813 L738.98,368.7813 L703.5,364.7813 L703.5,349.2813 L693.5,339.2813 L546.5,339.2813 A0,0 0 0 0 546.5,339.2813 " fill="#FBFB77" filter="url(#f109fe5ho316vh)" style="stroke:#A80036;stroke-width:1.0;"/><path d="M693.5,339.2813 L693.5,349.2813 L703.5,349.2813 L693.5,339.2813 " fill="#FBFB77" style="stroke:#A80036;stroke-width:1.0;"/><text fill="#000000" font-family="sans-serif" font-size="13" lengthAdjust="spacing" textLength="111" x="552.5" y="357.7764">42 equal cells with:</text><text fill="#000000" font-family="sans-serif" font-size="13" lengthAdjust="spacing" textLength="136" x="552.5" y="374.1279">coordinates: [A1]..[G6],</text><text fill="#000000" font-family="sans-serif" font-size="13" lengthAdjust="spacing" textLength="69" x="552.5" y="390.4795">filled = false</text><path d="M103.5,461.2813 L103.5,503.9844 A0,0 0 0 0 103.5,503.9844 L302.5,503.9844 A0,0 0 0 0 302.5,503.9844 L302.5,471.2813 L292.5,461.2813 L207,461.2813 L203,401.5813 L199,461.2813 L103.5,461.2813 A0,0 0 0 0 103.5,461.2813 " fill="#FBFB77" filter="url(#f109fe5ho316vh)" style="stroke:#A80036;stroke-width:1.0;"/><path d="M292.5,461.2813 L292.5,471.2813 L302.5,471.2813 L292.5,461.2813 " fill="#FBFB77" style="stroke:#A80036;stroke-width:1.0;"/><text fill="#000000" font-family="sans-serif" font-size="13" lengthAdjust="spacing" textLength="146" x="109.5" y="479.7764">21 equal yellow checkers</text><text fill="#000000" font-family="sans-serif" font-size="13" lengthAdjust="spacing" textLength="178" x="109.5" y="496.1279">With diferent id, from y1 to y21</text><path d="M372.5,461.2813 L372.5,503.9844 A0,0 0 0 0 372.5,503.9844 L565.5,503.9844 A0,0 0 0 0 565.5,503.9844 L565.5,471.2813 L555.5,461.2813 L473,461.2813 L469,401.5813 L465,461.2813 L372.5,461.2813 A0,0 0 0 0 372.5,461.2813 " fill="#FBFB77" filter="url(#f109fe5ho316vh)" style="stroke:#A80036;stroke-width:1.0;"/><path d="M555.5,461.2813 L555.5,471.2813 L565.5,471.2813 L555.5,461.2813 " fill="#FBFB77" style="stroke:#A80036;stroke-width:1.0;"/><text fill="#000000" font-family="sans-serif" font-size="13" lengthAdjust="spacing" textLength="128" x="378.5" y="479.7764">21 equal red checkers</text><text fill="#000000" font-family="sans-serif" font-size="13" lengthAdjust="spacing" textLength="172" x="378.5" y="496.1279">With diferent id, from r1 to r21</text><!--MD5=[bcb87cb6f330d87db57a981b8131f444]
link newGame to myBoard--><path codeLine="98" d="M322.4723,93.2898 C322.4723,93.2898 571.52,123.5612 697,186.2813 C702.78,189.1713 708.46,192.8313 713.82,196.8012 " fill="none" id="newGame-myBoard" style="stroke:#A80036;stroke-width:1.0;"/><polygon fill="#A80036" points="724.3,205.2313,719.7995,196.4708,720.4059,202.0951,714.7816,202.7014,724.3,205.2313" style="stroke:#A80036;stroke-width:1.0;"/><line style="stroke:#A80036;stroke-width:1.0;" x1="720.4059" x2="714.175" y1="202.0951" y2="197.0863"/><polygon fill="#A80036" points="310.52,92.2213,316.14,96.7397,322.4723,93.2898,316.8524,88.7714,310.52,92.2213" style="stroke:#A80036;stroke-width:1.0;"/><!--MD5=[4cc37d1e45281170643bc9ce698cb076]
link newGame to player1--><path codeLine="99" d="M257.6215,125.7072 C257.6215,125.7072 241.88,158.2113 234.17,174.1413 " fill="none" id="newGame-player1" style="stroke:#A80036;stroke-width:1.0;"/><polygon fill="#A80036" points="228.4,186.0612,235.9189,179.6999,230.5765,181.5598,228.7166,176.2175,228.4,186.0612" style="stroke:#A80036;stroke-width:1.0;"/><line style="stroke:#A80036;stroke-width:1.0;" x1="230.5765" x2="234.065" y1="181.5598" y2="174.3613"/><polygon fill="#A80036" points="262.84,114.9013,256.6288,118.5647,257.6215,125.7072,263.8327,122.0437,262.84,114.9013" style="stroke:#A80036;stroke-width:1.0;"/><!--MD5=[c8e20ce1ab291c1a56c8c2e586c5ed26]
link newGame to player2--><path codeLine="100" d="M291.6571,125.7929 C291.6571,125.7929 306.66,158.2113 314.03,174.1413 " fill="none" id="newGame-player2" style="stroke:#A80036;stroke-width:1.0;"/><polygon fill="#A80036" points="319.54,186.0612,319.3882,176.2136,317.4391,181.524,312.1287,179.575,319.54,186.0612" style="stroke:#A80036;stroke-width:1.0;"/><line style="stroke:#A80036;stroke-width:1.0;" x1="317.4391" x2="314.085" y1="181.524" y2="174.2613"/><polygon fill="#A80036" points="286.62,114.9013,285.508,122.0261,291.6571,125.7929,292.7691,118.6681,286.62,114.9013" style="stroke:#A80036;stroke-width:1.0;"/><!--MD5=[657df58f41fb3019219872e849d9b38d]
link newGame to turn--><path codeLine="101" d="M229.4646,121.0531 C229.4646,121.0531 148.7,177.9813 142,186.2813 C106.9,229.7613 84.16,291.0413 72.21,330.0913 " fill="none" id="newGame-turn" style="stroke:#A80036;stroke-width:1.0;"/><polygon fill="#A80036" points="68.5,342.6613,74.8867,335.1639,69.9171,337.8663,67.2147,332.8966,68.5,342.6613" style="stroke:#A80036;stroke-width:1.0;"/><line style="stroke:#A80036;stroke-width:1.0;" x1="69.9171" x2="72.175" y1="337.8663" y2="330.1912"/><polygon fill="#A80036" points="239.33,114.2213,232.12,114.3487,229.4646,121.0531,236.6746,120.9256,239.33,114.2213" style="stroke:#A80036;stroke-width:1.0;"/><!--MD5=[e2994f30106b005cacea1eb938394b03]
link myBoard to cellA1--><path codeLine="102" d="M758.777,269.0474 C758.777,269.0474 770.01,311.3513 774.95,329.9713 " fill="none" id="myBoard-cellA1" style="stroke:#A80036;stroke-width:1.0;"/><polygon fill="#A80036" points="778.35,342.7513,779.9029,333.0256,777.0651,337.9192,772.1715,335.0814,778.35,342.7513" style="stroke:#A80036;stroke-width:1.0;"/><line style="stroke:#A80036;stroke-width:1.0;" x1="777.0651" x2="775.01" y1="337.9192" y2="330.1813"/><polygon fill="#A80036" points="755.69,257.4512,753.3681,264.2783,758.777,269.0474,761.0989,262.2203,755.69,257.4512" style="stroke:#A80036;stroke-width:1.0;"/><!--MD5=[44cf5003e9f0839ab8f13bf84e3b518a]
link player1 to yellowChecker1--><path codeLine="104" d="M205.69,276.6513 C205.17,294.2713 204.58,314.3113 204.08,331.0913 " fill="none" id="player1-to-yellowChecker1" style="stroke:#A80036;stroke-width:1.0;stroke-dasharray:7.0,7.0;"/><polygon fill="#A80036" points="203.93,336.1912,208.2107,327.3213,204.0871,331.1937,200.2147,327.07,203.93,336.1912" style="stroke:#A80036;stroke-width:1.0;"/><!--MD5=[4486f6bb557abb4bf36518b472bef096]
link player2 to redChecker1--><path codeLine="105" d="M382.24,276.6513 C399.45,294.7313 419.08,315.3513 435.31,332.3913 " fill="none" id="player2-to-redChecker1" style="stroke:#A80036;stroke-width:1.0;stroke-dasharray:7.0,7.0;"/><polygon fill="#A80036" points="438.93,336.1912,435.6178,326.916,435.481,332.5712,429.8258,332.4344,438.93,336.1912" style="stroke:#A80036;stroke-width:1.0;"/><!--MD5=[b231dbe45ded54d9257d846980f9c486]
link player1 to goal--><path codeLine="106" d="M258.9557,285.2153 C258.9557,285.2153 287.09,313.8813 299.69,326.7113 " fill="none" id="player1-goal" style="stroke:#A80036;stroke-width:1.0;"/><polygon fill="#A80036" points="309,336.1912,305.5575,326.9636,305.5004,332.6202,299.8438,332.563,309,336.1912" style="stroke:#A80036;stroke-width:1.0;"/><line style="stroke:#A80036;stroke-width:1.0;" x1="305.5004" x2="299.89" y1="332.6202" y2="326.9163"/><polygon fill="#FFFFFF" points="250.55,276.6513,251.8982,283.7352,258.9557,285.2153,257.6076,278.1314,250.55,276.6513" style="stroke:#A80036;stroke-width:1.0;"/><!--MD5=[de24130057c6526be58451581e535e1a]
link player2 to goal--><path codeLine="107" d="M340,288.6513 C340,288.6513 340,312.2613 340,322.8513 " fill="none" id="player2-goal" style="stroke:#A80036;stroke-width:1.0;"/><polygon fill="#A80036" points="340,336.1912,344,327.1912,340,331.1912,336,327.1912,340,336.1912" style="stroke:#A80036;stroke-width:1.0;"/><line style="stroke:#A80036;stroke-width:1.0;" x1="340" x2="340" y1="331.1912" y2="323.1912"/><polygon fill="#FFFFFF" points="340,276.6513,336,282.6513,340,288.6513,344,282.6513,340,276.6513" style="stroke:#A80036;stroke-width:1.0;"/><!--MD5=[29d30e369bbe2d06423cd6f9b2440606]
link player1 to turn--><path codeLine="109" d="M159.92,276.2713 C137.91,296.8513 112.31,320.7713 92.81,338.9913 " fill="none" id="player1-to-turn" style="stroke:#A80036;stroke-width:1.0;"/><polygon fill="#A80036" points="88.99,342.5613,98.292,339.3251,92.6381,339.142,92.8213,333.4881,88.99,342.5613" style="stroke:#A80036;stroke-width:1.0;"/><!--MD5=[26fea2085e44592638bc708186b0f097]
@startuml connect4- -initial-state


title Connect4. Initial State \n

object newGame
note left of newGame
    status 0 = not started
    status 1 = started
    status 2 = paused
    status 3 = finished
end note

object goal
object turn
object myBoard
object cellA1
object player1
object player2
object redChecker1
object yellowChecker1


object newGame {
    nGame = 1
    status = 1
}

object goal {
    name = '4 in a line'
    status = false
    winner = null
}

object turn {
    turn = 0
    remainingTurns = 42
}

object myBoard {
    columns = 7
    rows = 6
}

note left of myBoard
    7 columns, from A (left) to G (right)
    6 rows, from 1 (bottom) to 6 (top)
end note

object cellA1 {
    coordinates = A1
    filled = false
}

note left of cellA1
    42 equal cells with:
    coordinates: [A1]..[G6],
    filled = false
end note

object player1 {
    id = 1
    name = 'vilma'
    color = 'yellow'
    checkers = 21
    usedCheckers = 0
}

object player2 {
    id = 2
    name = 'pedro'
    color = 'red'
    checkers = 21
    usedCheckers = 0
}

object yellowChecker1 {
    id = y1
    position = null
    color = 'yellow'
}

note bottom of yellowChecker1
    21 equal yellow checkers
    With diferent id, from y1 to y21
end note

object redChecker1 {
    id = r1
    position = null
    color = 'red'
}

note bottom of redChecker1
    21 equal red checkers
    With diferent id, from r1 to r21
end note

newGame *- -> myBoard
newGame *- -> player1
newGame *- -> player2
newGame *- -> turn
myBoard *- -> cellA1

player1 ..> yellowChecker1
player2 ..> redChecker1
player1 o- -> goal
player2 o- -> goal

player1 - -> turn





@enduml

PlantUML version 1.2022.0(Tue Jan 11 17:16:42 CET 2022)
(GPL source distribution)
Java Runtime: Java(TM) SE Runtime Environment
JVM: Java HotSpot(TM) 64-Bit Server VM
Default Encoding: Cp1252
Language: es
Country: ES
--></g></svg>