<?xml version="1.0" encoding="UTF-8" standalone="no"?><svg xmlns="http://www.w3.org/2000/svg" xmlns:xlink="http://www.w3.org/1999/xlink" contentScriptType="application/ecmascript" contentStyleType="text/css" height="1246px" preserveAspectRatio="none" style="width:936px;height:1246px;background:#F9F9F9;" version="1.1" viewBox="0 0 936 1246" width="936px" zoomAndPan="magnify"><defs/><g><text fill="#000000" font-family="sans-serif" font-size="18" lengthAdjust="spacing" textLength="165" x="376.5" y="18.6855">Klondike Instructions</text><text fill="#000000" font-family="sans-serif" font-size="18" lengthAdjust="spacing" textLength="0" x="464" y="41.3262"/><g id="GamePrepared"><polygon fill="#FEFECE" points="238,80.6377,238,80.8479,248.2222,80.2234,258.4444,80.831,268.6667,81.0374,278.8889,79.9243,289.1111,80.56,299.3333,80.2112,309.5556,80.2542,319.7778,80.5695,330,80.6377,329.9118,80.4248,331.8384,81.5404,333.4551,81.9081,335.2781,82.7735,337.1262,83.6996,338.8388,84.2989,338.8124,84.2879,339.5921,86.0753,340.2935,87.8303,341.0905,89.6249,341.8414,91.4004,342.5,93.1377,342.6952,93.1377,342.7237,98.1377,342.7264,103.1377,342.5849,108.1377,342.6545,113.1377,342.5,118.1377,342.7163,118.2273,341.5457,119.8135,341.2445,121.7598,340.212,123.4032,339.7355,125.2769,338.8388,126.9765,338.7757,126.8241,337.0623,127.6877,335.3979,128.6694,333.5293,129.1582,331.7812,129.9379,330,130.6377,330,130.9763,319.7778,131.0539,309.5556,130.6338,299.3333,130.9249,289.1111,130.0653,278.8889,130.9221,268.6667,131.1859,258.4444,131.0822,248.2222,131.2507,238,130.6377,237.9384,130.4889,236.149,129.7046,234.3852,128.9819,232.6892,128.4229,230.9039,127.6482,229.1612,126.9765,229.371,127.0635,228.3751,125.1865,227.5911,123.3972,227.0348,121.7023,226.0269,119.8204,225.5,118.1377,225.327,118.1377,225.7163,113.1377,225.6452,108.1377,225.7448,103.1377,225.3927,98.1377,225.5,93.1377,225.5983,93.1784,226.4141,91.4452,226.819,89.5419,227.6672,87.8222,228.4677,86.0827,229.1612,84.2989,229.2443,84.4996,230.9284,83.5653,232.7557,82.9768,234.3938,81.9316,236.1458,81.1614,238,80.6377" style="stroke:#A80036;stroke-width:1.5;"/><path d="M225.5,108.2471 L225.5,108.5273 L235.25,107.6946 L245,108.5048 L254.75,108.78 L264.5,107.2959 L274.25,108.1435 L284,107.6784 L293.75,107.7357 L303.5,108.1562 L313.25,107.3252 L323,108.9853 L332.75,107.4067 L342.5,108.2471 " fill="#FEFECE" style="stroke:#A80036;stroke-width:1.5;"/><text fill="#000000" font-family="sans-serif" font-size="14" lengthAdjust="spacing" textLength="97" x="235.5" y="100.1709">GamePrepared</text></g><polygon fill="#FEFECE" points="284,208.6377,284.0495,208.6872,286.3023,210.94,288.8456,213.4833,291.2942,215.9319,293.4319,218.0695,296,220.6377,295.9817,220.6194,293.4995,222.9372,291.1096,225.3473,288.7839,227.8216,286.237,230.0747,284,232.6377,284.1305,232.7682,281.4514,230.0891,279.1534,227.7911,276.9018,225.5395,274.3798,223.0175,272,220.6377,272.0161,220.6538,274.3925,218.2302,276.8421,215.8798,279.2564,213.4941,281.738,211.1757,284,208.6377" style="stroke:#A80036;stroke-width:1.5;"/><polygon fill="#FEFECE" points="451,326.6377,451.0495,326.6872,453.3023,328.94,455.8456,331.4833,458.2942,333.9319,460.4319,336.0695,463,338.6377,462.9817,338.6194,460.4995,340.9372,458.1096,343.3473,455.7839,345.8216,453.237,348.0747,451,350.6377,451.1305,350.7682,448.4514,348.0891,446.1534,345.7911,443.9018,343.5395,441.3798,341.0175,439,338.6377,439.0161,338.6538,441.3925,336.2302,443.8421,333.8798,446.2564,331.4941,448.738,329.1757,451,326.6377" style="stroke:#A80036;stroke-width:1.5;"/><polygon fill="#FEFECE" points="451,474.6377,451.0495,474.6872,453.3023,476.94,455.8456,479.4833,458.2942,481.9319,460.4319,484.0695,463,486.6377,462.9817,486.6194,460.4995,488.9372,458.1096,491.3473,455.7839,493.8216,453.237,496.0747,451,498.6377,451.1305,498.7682,448.4514,496.0891,446.1534,493.7911,443.9018,491.5395,441.3798,489.0175,439,486.6377,439.0161,486.6538,441.3925,484.2302,443.8421,481.8798,446.2564,479.4941,448.738,477.1757,451,474.6377" style="stroke:#A80036;stroke-width:1.5;"/><polygon fill="#FEFECE" points="269,821.6377,269.0495,821.6872,271.3023,823.94,273.8456,826.4833,276.2942,828.9319,278.4319,831.0695,281,833.6377,280.9817,833.6194,278.4995,835.9372,276.1096,838.3473,273.7839,840.8216,271.237,843.0747,269,845.6377,269.1305,845.7682,266.4514,843.0891,264.1534,840.7911,261.9018,838.5395,259.3798,836.0175,257,833.6377,257.0161,833.6538,259.3925,831.2302,261.8421,828.8798,264.2564,826.4941,266.738,824.1757,269,821.6377" style="stroke:#A80036;stroke-width:1.5;"/><polygon fill="#FEFECE" points="636,821.6377,636.0495,821.6872,638.3023,823.94,640.8456,826.4833,643.2942,828.9319,645.4319,831.0695,648,833.6377,647.9817,833.6194,645.4995,835.9372,643.1096,838.3473,640.7839,840.8216,638.237,843.0747,636,845.6377,636.1305,845.7682,633.4514,843.0891,631.1534,840.7911,628.9018,838.5395,626.3798,836.0175,624,833.6377,624.0161,833.6538,626.3925,831.2302,628.8421,828.8798,631.2564,826.4941,633.738,824.1757,636,821.6377" style="stroke:#A80036;stroke-width:1.5;"/><polygon fill="#FEFECE" points="846,652.1377,846.0495,652.1872,848.3023,654.44,850.8456,656.9833,853.2942,659.4319,855.4319,661.5695,858,664.1377,857.9817,664.1194,855.4995,666.4372,853.1096,668.8473,850.7839,671.3216,848.237,673.5747,846,676.1377,846.1305,676.2682,843.4514,673.5891,841.1534,671.2911,838.9018,669.0395,836.3798,666.5175,834,664.1377,834.0161,664.1538,836.3925,661.7302,838.8421,659.3798,841.2564,656.9941,843.738,654.6757,846,652.1377" style="stroke:#A80036;stroke-width:1.5;"/><polygon fill="#FEFECE" points="400,1072.6377,400.0495,1072.6872,402.3023,1074.94,404.8456,1077.4833,407.2942,1079.9319,409.4319,1082.0695,412,1084.6377,411.9817,1084.6194,409.4995,1086.9372,407.1096,1089.3473,404.7839,1091.8216,402.237,1094.0747,400,1096.6377,400.1305,1096.7682,397.4514,1094.0891,395.1534,1091.7911,392.9018,1089.5395,390.3798,1087.0175,388,1084.6377,388.0161,1084.6538,390.3925,1082.2302,392.8421,1079.8798,395.2564,1077.4941,397.738,1075.1757,400,1072.6377" style="stroke:#A80036;stroke-width:1.5;"/><g id="CardMovedToFoundation"><polygon fill="#FEFECE" points="588.5,461.6377,588.5,461.8479,598.3125,461.2234,608.125,461.831,617.9375,462.0374,627.75,460.9243,637.5625,461.56,647.375,461.2112,657.1875,461.2542,667,461.5695,676.8125,460.9463,686.625,462.1913,696.4375,461.0074,706.25,461.4399,716.0625,462.0696,725.875,461.5519,735.6875,461.7059,745.5,461.6377,745.4959,461.6279,747.2905,462.4249,749.066,463.1758,750.878,464.0148,752.6567,464.7733,754.3388,465.2989,754.548,465.3855,755.1495,467.0991,755.9461,468.8935,756.7518,470.6917,757.0457,472.2779,758,474.1377,758.2262,474.1377,757.9012,479.1377,758.1779,484.1377,757.835,489.1377,757.9772,494.1377,758,499.1377,758.2284,499.2323,757.2528,500.8992,756.568,502.6867,755.9076,504.4842,755.1993,506.2619,754.3388,507.9765,754.3383,507.9753,752.6077,508.7972,750.7303,509.2647,749.0718,510.2608,747.3377,511.0743,745.5,511.6377,745.5,512.0822,735.6875,512.2507,725.875,511.1546,716.0625,510.9855,706.25,511.0163,696.4375,511.5788,686.625,511.4412,676.8125,512.3191,667,511.463,657.1875,511.2946,647.375,511.866,637.5625,510.9709,627.75,511.1186,617.9375,512.2866,608.125,512.0734,598.3125,512.3722,588.5,511.6377,588.459,511.5386,586.773,511.0038,585.0398,510.3551,583.1364,509.2955,581.4167,508.6792,579.6612,507.9765,579.7,507.9926,579.1296,506.2919,578.1954,504.4405,577.6069,502.7322,576.5617,500.8348,576,499.1377,575.7742,499.1377,576.1679,494.1377,575.761,489.1377,576.1697,484.1377,576.0689,479.1377,576,474.1377,575.9175,474.1035,576.6233,472.3248,577.6057,470.6607,578.1045,468.7962,579.1112,467.1421,579.6612,465.2989,579.5907,465.1286,581.5077,464.7568,583.2585,463.9835,584.9957,463.1776,586.7383,462.3845,588.5,461.6377" style="stroke:#A80036;stroke-width:1.5;"/><path d="M576,489.2471 L576,489.5273 L586.1111,488.6946 L596.2222,489.5048 L606.3333,489.78 L616.4444,488.2959 L626.5556,489.1435 L636.6667,488.6784 L646.7778,488.7357 L656.8889,489.1562 L667,488.3252 L677.1111,489.9853 L687.2222,488.4067 L697.3333,488.9834 L707.4444,489.823 L717.5556,489.1327 L727.6667,489.3381 L737.7778,489.2045 L747.8889,489.4851 L758,489.2471 " fill="#FEFECE" style="stroke:#A80036;stroke-width:1.5;"/><text fill="#000000" font-family="sans-serif" font-size="14" lengthAdjust="spacing" textLength="162" x="586" y="481.1709">CardMovedToFoundation</text></g><g id="CardMovedToTableau"><polygon fill="#FEFECE" points="372.5,639.1377,372.5,639.3479,382.2857,638.7234,392.0714,639.331,401.8571,639.5374,411.6429,638.4243,421.4286,639.06,431.2143,638.7112,441,638.7542,450.7857,639.0695,460.5714,638.4463,470.3571,639.6913,480.1429,638.5074,489.9286,638.9399,499.7143,639.5696,509.5,639.1377,509.4891,639.1113,511.2765,639.8909,513.0315,640.5923,514.8261,641.3894,516.6016,642.1403,518.3388,642.7989,518.5192,642.8736,519.2777,644.6522,520.0125,646.421,520.6139,648.1346,521.4105,649.9291,522,651.6377,522.2341,651.6377,521.7596,656.6377,522.2262,661.6377,521.9012,666.6377,522.1779,671.6377,522,676.6377,521.8476,676.5745,521.2467,678.3967,520.7639,680.2678,519.7883,681.9348,519.1035,683.7222,518.3388,685.4765,518.382,685.5808,516.6242,686.3369,514.8028,686.9398,513.0722,687.7617,511.1947,688.2292,509.5,689.1377,509.5,689.4221,499.7143,689.6859,489.9286,689.5822,480.1429,689.7507,470.3571,688.6546,460.5714,688.4855,450.7857,688.5163,441,689.0788,431.2143,688.9412,421.4286,689.8191,411.6429,688.963,401.8571,688.7946,392.0714,689.366,382.2857,688.4709,372.5,689.1377,372.4338,688.9778,370.815,688.6053,369.02,687.8074,367.2904,687.1672,365.3879,686.1097,363.6612,685.4765,363.7595,685.5172,363.1108,683.7841,362.0512,681.8807,361.4349,680.161,360.771,678.4215,360,676.6377,360.2173,676.6377,359.9986,671.6377,360.1542,666.6377,359.8154,661.6377,359.7742,656.6377,360,651.6377,360.1551,651.7019,360.5114,649.7785,361.6212,648.1671,362.2603,646.3608,362.8464,644.5325,363.6612,642.7989,363.616,642.6899,365.4875,642.2079,367.1585,641.2422,369.04,640.7844,370.6617,639.6997,372.5,639.1377" style="stroke:#A80036;stroke-width:1.5;"/><path d="M360,666.7471 L360,667.0273 L370.125,666.1946 L380.25,667.0048 L390.375,667.28 L400.5,665.7959 L410.625,666.6435 L420.75,666.1784 L430.875,666.2357 L441,666.6562 L451.125,665.8252 L461.25,667.4853 L471.375,665.9067 L481.5,666.4834 L491.625,667.323 L501.75,666.6327 L511.875,666.8381 L522,666.7471 " fill="#FEFECE" style="stroke:#A80036;stroke-width:1.5;"/><text fill="#000000" font-family="sans-serif" font-size="14" lengthAdjust="spacing" textLength="142" x="370" y="658.6709">CardMovedToTableau</text></g><g id="CardMovedToWaste"><polygon fill="#FEFECE" points="52.5,1190.6377,52.5,1190.8479,62.1154,1190.2234,71.7308,1190.831,81.3462,1191.0374,90.9615,1189.9243,100.5769,1190.56,110.1923,1190.2112,119.8077,1190.2542,129.4231,1190.5695,139.0385,1189.9463,148.6538,1191.1913,158.2692,1190.0074,167.8846,1190.4399,177.5,1190.6377,177.5551,1190.7707,179.2568,1191.3435,181.0442,1192.1232,182.7992,1192.8246,184.5938,1193.6216,186.3388,1194.2989,186.4125,1194.3294,187.2514,1196.1413,188.01,1197.92,188.7447,1199.6888,189.3462,1201.4024,190,1203.1377,190.1545,1203.1377,190.2341,1208.1377,189.7596,1213.1377,190.2262,1218.1377,189.9012,1223.1377,190,1228.1377,190.1644,1228.2058,189.1153,1229.8423,188.5144,1231.6645,188.0317,1233.5356,187.0561,1235.2025,186.3388,1236.9765,186.3523,1237.009,184.6143,1237.813,182.8564,1238.5692,181.035,1239.172,179.3044,1239.9939,177.5,1240.6377,177.5,1240.0653,167.8846,1240.9221,158.2692,1241.1859,148.6538,1241.0822,139.0385,1241.2507,129.4231,1240.1546,119.8077,1239.9855,110.1923,1240.0163,100.5769,1240.5788,90.9615,1240.4412,81.3462,1241.3191,71.7308,1240.463,62.1154,1240.2946,52.5,1240.6377,52.5291,1240.708,50.6472,1239.7001,48.8982,1239.0134,47.2795,1238.6408,45.4845,1237.8429,43.6612,1236.9765,43.8874,1237.0702,42.8298,1235.1677,42.295,1233.4817,41.6463,1231.7485,40.5868,1229.8452,40,1228.1377,39.968,1228.1377,40.042,1223.1377,40.2173,1218.1377,39.9986,1213.1377,40.1542,1208.1377,40,1203.1377,39.8295,1203.0671,40.5237,1201.2835,41.6196,1199.6664,41.9759,1197.7429,43.0857,1196.1316,43.6612,1194.2989,43.6875,1194.3625,45.3948,1193.4841,47.1516,1192.7254,49.023,1192.2434,50.694,1191.2777,52.5,1190.6377" style="stroke:#A80036;stroke-width:1.5;"/><path d="M40,1218.2471 L40,1218.5273 L50,1217.6946 L60,1218.5048 L70,1218.78 L80,1217.2959 L90,1218.1435 L100,1217.6784 L110,1217.7357 L120,1218.1562 L130,1217.3252 L140,1218.9853 L150,1217.4067 L160,1217.9834 L170,1218.823 L180,1218.1327 L190,1218.2471 " fill="#FEFECE" style="stroke:#A80036;stroke-width:1.5;"/><text fill="#000000" font-family="sans-serif" font-size="14" lengthAdjust="spacing" textLength="130" x="50" y="1210.1709">CardMovedToWaste</text></g><g id="CardRaisedInTableau"><polygon fill="#FEFECE" points="131.5,961.6377,131.5,961.8479,141.7308,961.2234,151.9615,961.831,162.1923,962.0374,172.4231,960.9243,182.6538,961.56,192.8846,961.2112,203.1154,961.2542,213.3462,961.5695,223.5769,960.9463,233.8077,962.1913,244.0385,961.0074,254.2692,961.4399,264.5,961.6377,264.5551,961.7707,266.2568,962.3435,268.0442,963.1232,269.7992,963.8246,271.5938,964.6216,273.3388,965.2989,273.4125,965.3294,274.2514,967.1413,275.01,968.92,275.7447,970.6888,276.3462,972.4024,277,974.1377,277.1545,974.1377,277.2341,979.1377,276.7596,984.1377,277.2262,989.1377,276.9012,994.1377,277,999.1377,277.1644,999.2058,276.1153,1000.8423,275.5144,1002.6645,275.0317,1004.5356,274.0561,1006.2025,273.3388,1007.9765,273.3523,1008.009,271.6143,1008.813,269.8564,1009.5692,268.035,1010.172,266.3044,1010.9939,264.5,1011.6377,264.5,1011.0653,254.2692,1011.9221,244.0385,1012.1859,233.8077,1012.0822,223.5769,1012.2507,213.3462,1011.1546,203.1154,1010.9855,192.8846,1011.0163,182.6538,1011.5788,172.4231,1011.4412,162.1923,1012.3191,151.9615,1011.463,141.7308,1011.2946,131.5,1011.6377,131.5291,1011.708,129.6472,1010.7001,127.8982,1010.0134,126.2795,1009.6408,124.4845,1008.8429,122.6612,1007.9765,122.8874,1008.0702,121.8298,1006.1677,121.295,1004.4817,120.6463,1002.7485,119.5868,1000.8452,119,999.1377,118.968,999.1377,119.042,994.1377,119.2173,989.1377,118.9986,984.1377,119.1542,979.1377,119,974.1377,118.8295,974.0671,119.5237,972.2835,120.6196,970.6664,120.9759,968.7429,122.0857,967.1316,122.6612,965.2989,122.6875,965.3625,124.3948,964.4841,126.1516,963.7254,128.023,963.2434,129.694,962.2777,131.5,961.6377" style="stroke:#A80036;stroke-width:1.5;"/><path d="M119,989.2471 L119,989.5273 L128.875,988.6946 L138.75,989.5048 L148.625,989.78 L158.5,988.2959 L168.375,989.1435 L178.25,988.6784 L188.125,988.7357 L198,989.1562 L207.875,988.3252 L217.75,989.9853 L227.625,988.4067 L237.5,988.9834 L247.375,989.823 L257.25,989.1327 L267.125,989.3381 L277,989.2471 " fill="#FEFECE" style="stroke:#A80036;stroke-width:1.5;"/><text fill="#000000" font-family="sans-serif" font-size="14" lengthAdjust="spacing" textLength="138" x="129" y="981.1709">CardRaisedInTableau</text></g><g id="StockRecovered"><polygon fill="#FEFECE" points="586.5,961.6377,586.5,961.8479,596.4,961.2234,606.3,961.831,616.2,962.0374,626.1,960.9243,636,961.56,645.9,961.2112,655.8,961.2542,665.7,961.5695,675.6,960.9463,685.5,961.6377,685.5706,961.8082,687.1874,962.1758,689.0103,963.0413,690.8584,963.9674,692.5601,964.5402,694.3388,965.2989,694.3598,965.3076,695.0612,967.0626,695.8583,968.8572,696.6092,970.6327,697.4481,972.4446,698,974.1377,698.2237,974.1377,698.2264,979.1377,698.0849,984.1377,698.1545,989.1377,698.2341,994.1377,698,999.1377,697.7779,999.0457,697.4767,1000.992,696.4442,1002.6354,695.9677,1004.5091,694.9186,1006.1456,694.3388,1007.9765,694.3301,1007.9554,692.6657,1008.9371,690.7971,1009.426,689.049,1010.2057,687.311,1011.0097,685.5,1011.6377,685.5,1012.0539,675.6,1011.6338,665.7,1011.9249,655.8,1011.0653,645.9,1011.9221,636,1012.1859,626.1,1012.0822,616.2,1012.2507,606.3,1011.1546,596.4,1010.9855,586.5,1011.6377,586.4207,1011.4463,584.7247,1010.8873,582.9394,1010.1127,581.2836,1009.6508,579.4067,1008.655,577.6612,1007.9765,577.5555,1007.9328,576.9992,1006.2379,575.9913,1004.3559,575.3046,1002.607,574.9321,1000.9882,574,999.1377,574.1452,999.1377,574.2448,994.1377,573.8927,989.1377,574.1064,984.1377,574.1968,979.1377,574,974.1377,573.8545,974.0774,574.7027,972.3577,575.5033,970.6182,576.3974,968.9175,576.9276,967.0661,577.6612,965.2989,577.7202,965.4413,579.3583,964.3961,581.1103,963.6258,583.0287,963.2573,584.6408,962.1491,586.5,961.6377" style="stroke:#A80036;stroke-width:1.5;"/><path d="M574,989.2471 L574,989.5273 L584.3333,988.6946 L594.6667,989.5048 L605,989.78 L615.3333,988.2959 L625.6667,989.1435 L636,988.6784 L646.3333,988.7357 L656.6667,989.1562 L667,988.3252 L677.3333,989.9853 L687.6667,988.4067 L698,989.2471 " fill="#FEFECE" style="stroke:#A80036;stroke-width:1.5;"/><text fill="#000000" font-family="sans-serif" font-size="14" lengthAdjust="spacing" textLength="104" x="584" y="981.1709">StockRecovered</text></g><g id="FoundationComplete"><polygon fill="#FEFECE" points="782.5,961.6377,782.5,961.8479,792.2692,961.2234,802.0385,961.831,811.8077,962.0374,821.5769,960.9243,831.3462,961.56,841.1154,961.2112,850.8846,961.2542,860.6538,961.5695,870.4231,960.9463,880.1923,962.1913,889.9615,961.0074,899.7308,961.4399,909.5,961.6377,909.5551,961.7707,911.2568,962.3435,913.0442,963.1232,914.7992,963.8246,916.5938,964.6216,918.3388,965.2989,918.4125,965.3294,919.2514,967.1413,920.01,968.92,920.7447,970.6888,921.3462,972.4024,922,974.1377,922.1545,974.1377,922.2341,979.1377,921.7596,984.1377,922.2262,989.1377,921.9012,994.1377,922,999.1377,922.1644,999.2058,921.1153,1000.8423,920.5144,1002.6645,920.0317,1004.5356,919.0561,1006.2025,918.3388,1007.9765,918.3523,1008.009,916.6143,1008.813,914.8564,1009.5692,913.035,1010.172,911.3044,1010.9939,909.5,1011.6377,909.5,1011.0653,899.7308,1011.9221,889.9615,1012.1859,880.1923,1012.0822,870.4231,1012.2507,860.6538,1011.1546,850.8846,1010.9855,841.1154,1011.0163,831.3462,1011.5788,821.5769,1011.4412,811.8077,1012.3191,802.0385,1011.463,792.2692,1011.2946,782.5,1011.6377,782.5291,1011.708,780.6472,1010.7001,778.8982,1010.0134,777.2795,1009.6408,775.4845,1008.8429,773.6612,1007.9765,773.8874,1008.0702,772.8298,1006.1677,772.295,1004.4817,771.6463,1002.7485,770.5868,1000.8452,770,999.1377,769.968,999.1377,770.042,994.1377,770.2173,989.1377,769.9986,984.1377,770.1542,979.1377,770,974.1377,769.8295,974.0671,770.5237,972.2835,771.6196,970.6664,771.9759,968.7429,773.0857,967.1316,773.6612,965.2989,773.6875,965.3625,775.3948,964.4841,777.1516,963.7254,779.023,963.2434,780.694,962.2777,782.5,961.6377" style="stroke:#A80036;stroke-width:1.5;"/><path d="M770,989.2471 L770,989.5273 L780.1333,988.6946 L790.2667,989.5048 L800.4,989.78 L810.5333,988.2959 L820.6667,989.1435 L830.8,988.6784 L840.9333,988.7357 L851.0667,989.1562 L861.2,988.3252 L871.3333,989.9853 L881.4667,988.4067 L891.6,988.9834 L901.7333,989.823 L911.8667,989.1327 L922,989.2471 " fill="#FEFECE" style="stroke:#A80036;stroke-width:1.5;"/><text fill="#000000" font-family="sans-serif" font-size="14" lengthAdjust="spacing" textLength="132" x="780" y="981.1709">FoundationComplete</text></g><polygon fill="#000000" points="26.0552,108.0701,24.5894,110.073,22.8556,113.0065,20.376,114.9835,17.7703,116.0646,15.6927,116.1584,13.0224,114.8064,10.5029,113.9231,8.5905,112.1297,7.5873,110.0766,6.9924,108.4418,6.4096,106.3065,5.4636,104.469,6.1906,102.675,6.8275,100.7097,9.2175,99.1554,10.8991,97.1387,12.9804,96.469,15.4547,95.8923,18.6276,96.2349,20.3655,97.0545,22.3861,97.426,24.8429,99.9431,25.6993,102.6004,26.0714,104.4135,25.65,107.4012" style="stroke:none;stroke-width:1.0;"/><polygon fill="none" points="856.0552,1218.0701,854.5894,1220.073,852.8556,1223.0065,850.376,1224.9835,847.7703,1226.0646,845.6927,1226.1584,843.0224,1224.8064,840.5029,1223.9231,838.5905,1222.1297,837.5873,1220.0766,836.9924,1218.4418,836.4096,1216.3065,835.4636,1214.469,836.1906,1212.675,836.8275,1210.7097,839.2175,1209.1554,840.8991,1207.1387,842.9804,1206.469,845.4547,1205.8923,848.6276,1206.2349,850.3655,1207.0545,852.3861,1207.426,854.8429,1209.9431,855.6993,1212.6004,856.0714,1214.4135,855.65,1217.4012" style="stroke:#000000;stroke-width:1.0;"/><polygon fill="#000000" points="852.5331,1217.5971,851.6536,1218.7989,850.6134,1220.559,849.1256,1221.7452,847.5622,1222.3938,846.3156,1222.4501,844.7135,1221.6389,843.2017,1221.1089,842.0543,1220.0329,841.4524,1218.801,841.0955,1217.8202,840.7458,1216.539,840.1782,1215.4365,840.6143,1214.3601,840.9965,1213.1809,842.4305,1212.2483,843.4394,1211.0383,844.6882,1210.6365,846.1728,1210.2904,848.0766,1210.496,849.1193,1210.9878,850.3317,1211.2107,851.8057,1212.721,852.3196,1214.3153,852.5429,1215.4032,852.29,1217.1958" style="stroke:none;stroke-width:1.0;"/><!--MD5=[d566c117c3e0d58251a1231f44740e7d]
link *start to GamePrepared--><path d="M26.18,105.6377 L26.18,105.9179 L36.3895,105.0853 L46.5989,105.8954 L56.8084,106.1706 L67.0179,104.6865 L77.2274,105.5341 L87.4368,105.069 L97.6463,105.1264 L107.8558,105.5468 L118.0653,104.7159 L128.2747,106.3759 L138.4842,104.7973 L148.6937,105.374 L158.9032,106.2136 L169.1126,105.5233 L179.3221,105.7287 L189.5316,105.5951 L199.7411,105.8757 L209.9505,105.9565 L220.16,105.6377 " fill="none" style="stroke:#191919;stroke-width:1.0;"/><polygon fill="#191919" points="225.23,105.6377,225.2585,105.7017,223.3739,104.7115,221.6562,104.0966,219.8841,103.3594,217.9334,102.2204,216.23,101.6377,216.2117,101.6194,216.9295,102.3372,217.7396,103.1473,218.6139,104.0216,219.267,104.6747,220.23,105.6377,220.3605,105.7682,219.2814,106.2891,218.5834,107.1911,217.9318,108.1395,217.0098,108.8175,216.23,109.6377,216.2392,109.6585,218.0257,108.828,219.8542,108.0921,221.6624,107.3105,223.5093,106.6161,225.23,105.6377" style="stroke:#191919;stroke-width:1.0;"/><text fill="#000000" font-family="sans-serif" font-size="13" lengthAdjust="spacing" textLength="69" x="89.25" y="66.1328">shuffle deck</text><text fill="#000000" font-family="sans-serif" font-size="13" lengthAdjust="spacing" textLength="130" x="60.75" y="82.4844">/ put cards to tableaus</text><text fill="#000000" font-family="sans-serif" font-size="13" lengthAdjust="spacing" textLength="127" x="64.25" y="98.8359">/ put rest to stock pile</text><!--MD5=[6c72427a252bbe53dcda76da4f0c066e]
link GamePrepared to _CheckPossibleMovement--><path d="M284,130.8777 L284.2802,130.8777 L283.4476,141.1791 L284.2577,151.4806 L284.5329,161.782 L283.0488,172.0834 L283.8964,182.3848 L283.4313,192.6863 L284,202.9877 " fill="none" style="stroke:#191919;stroke-width:1.0;"/><polygon fill="#191919" points="284,208.4777,284.064,208.5061,284.6738,206.6216,285.6589,204.9039,286.5217,203.1318,286.9827,201.1811,288,199.4777,287.9817,199.4594,287.0995,200.1772,286.3096,200.9873,285.5839,201.8616,284.637,202.5147,284,203.4777,284.1305,203.6082,283.0514,202.5291,282.3534,201.8311,281.7018,201.1795,280.7798,200.2575,280,199.4777,280.0208,199.4869,280.7903,201.2734,281.6544,203.1019,282.4728,204.9101,283.3784,206.757,284,208.4777" style="stroke:#191919;stroke-width:1.0;"/><text fill="#000000" font-family="sans-serif" font-size="13" lengthAdjust="spacing" textLength="62" x="285" y="175.1328">start game</text><!--MD5=[ec5769159bcb934b7efe9f1c1eb3ef96]
link _CheckPossibleMovement to _CheckMoveToFoundation--><path d="M290.75,226.3277 L290.9099,226.5579 L298.7326,231.6379 L307.4926,238.0671 L315.9474,244.057 L323.3985,248.602 L332.1798,255.062 L340.2122,260.444 L348.5427,266.255 L357.0804,272.3642 L364.9041,277.4456 L374.1489,284.5729 L381.5461,289.0403 L390.1729,295.2778 L398.9497,301.7313 L406.8536,306.9282 L415.2686,312.8608 L423.4901,318.5149 L431.948,324.5093 L440.11,330.0777 " fill="none" style="stroke:#008000;stroke-width:2.0;"/><polygon fill="#008000" points="444.35,333.0177,444.4099,333.054,443.2124,331.2607,442.3663,329.6801,441.4058,328.0302,440.0689,326.1527,439.253,324.5903,439.2275,324.5858,439.312,325.6791,439.5251,326.7953,439.8275,327.9276,439.822,329.0048,440.2478,330.159,440.2803,330.3407,439.0971,330.1512,438.0087,330.4921,436.9319,330.8977,435.7878,330.9267,434.6791,331.1538,434.6834,331.1762,436.6113,331.5162,438.5587,331.9578,440.4967,332.3504,442.4528,332.8366,444.35,333.0177" style="stroke:#008000;stroke-width:2.0;"/><text fill="#000000" font-family="sans-serif" font-size="13" lengthAdjust="spacing" textLength="98" x="389" y="277.1328">check movement</text><text fill="#000000" font-family="sans-serif" font-size="13" lengthAdjust="spacing" textLength="74" x="405" y="293.4844">to foundation</text><!--MD5=[52dd405b63e0fc2187f8cfdce723a908]
link _CheckMoveToFoundation to CardMovedToFoundation--><path d="M461.06,340.7777 L461.0733,340.8702 L463.0779,340.8906 L465.1607,341.453 L467.218,341.8389 L469.1915,341.6444 L471.2811,342.2534 L471.2751,342.2193 L473.8235,342.5148 L476.4018,342.9818 L479.0008,343.5681 L481.5283,343.7434 L484.1559,344.4943 L484.2064,344.7351 L487.0787,344.845 L490.0984,345.658 L493.1361,346.5568 L496.0691,346.9565 L499.0572,347.6188 L499.0647,347.6482 L502.3138,348.4303 L505.5968,349.3462 L508.8635,350.1976 L512.1613,351.1723 L515.3575,351.7452 L515.4451,352.0303 L518.8606,353.0831 L522.2195,353.9521 L525.6611,355.0902 L529.1067,356.2409 L532.4293,356.992 L532.3163,356.692 L535.9788,358.5712 L539.2693,359.4628 L542.8426,361.1052 L546.1246,361.9744 L549.6453,363.4774 L549.6324,363.4498 L553.1317,365.3443 L556.3292,366.5948 L559.7048,368.2252 L563.0953,369.8876 L566.378,371.3198 L566.4728,371.4787 L569.5015,373.1819 L572.6922,375.1566 L575.6209,376.6921 L578.9403,378.8827 L582,380.6377 L582.1459,380.8329 L584.2616,382.3978 L586.4498,384.0597 L588.3015,385.2714 L590.3998,386.813 L592.7166,388.6471 L592.5343,388.4397 L594.7397,390.421 L596.7396,392.1685 L599.0375,394.2551 L600.8266,395.7629 L602.9181,397.6147 L602.8101,397.5071 L604.9172,399.6196 L606.5627,401.272 L608.5364,403.2516 L610.8313,405.5514 L612.5543,407.281 L612.6987,407.41 L614.602,409.5195 L616.0559,411.228 L618.0726,413.4388 L619.9666,415.5401 L621.575,417.3864 L621.412,417.2541 L623.2129,419.4166 L624.9605,421.5357 L626.8129,423.7401 L628.2576,425.6132 L629.9301,427.6714 L630.0947,427.7946 L631.2609,429.5649 L632.7448,431.573 L634.6928,433.9285 L635.7864,435.6444 L637.5694,437.8763 L637.755,438.0056 L639.0194,439.9018 L640.221,441.7543 L641.5644,443.7056 L643.2354,445.8851 L644.4427,447.7416 L644.3314,447.6688 L645.8744,449.7387 L646.66,451.3136 L648.3068,453.4514 L649.4687,455.2722 L650.5,457.0077 " fill="none" style="stroke:#191919;stroke-width:1.0;"/><polygon fill="#191919" points="653.2,461.3077,653.2694,461.3174,652.7906,459.3378,652.7185,457.415,652.514,455.4737,651.8739,453.4715,651.8368,451.5536,651.8115,451.5478,651.4422,452.6235,651.2001,453.7287,651.0464,454.8545,650.588,455.9095,650.5564,457.0637,650.5982,457.2435,649.4069,456.603,648.3375,456.4873,647.283,456.4357,646.1419,456.0116,645.0464,455.7833,645.0591,455.8022,646.6711,456.8794,648.3412,458.0424,649.9833,459.1639,651.6788,460.3645,653.2,461.3077" style="stroke:#191919;stroke-width:1.0;"/><text fill="#000000" font-family="sans-serif" font-size="13" lengthAdjust="spacing" textLength="86" x="653.5" y="395.1328">[ if card can be</text><text fill="#000000" font-family="sans-serif" font-size="13" lengthAdjust="spacing" textLength="123" x="637" y="411.4844">moved to foundation ]</text><text fill="#000000" font-family="sans-serif" font-size="13" lengthAdjust="spacing" textLength="67" x="667" y="427.8359">/ move card</text><!--MD5=[9d6c4a1d80287f8289258f5a16234ff0]
link CardMovedToFoundation to _CheckFoundationComplete--><path d="M676.88,512.0377 L676.9649,512.0767 L677.5463,513.7753 L678.6253,515.7024 L679.5423,517.5552 L679.9264,519.1631 L681.0482,521.1099 L681.0172,521.0946 L681.8475,523.0005 L682.8341,524.9831 L683.9294,527.019 L684.6502,528.8711 L685.8955,530.9807 L686.113,531.0957 L686.7487,532.9324 L688.0195,535.1049 L689.3677,537.3184 L690.2652,539.2936 L691.3997,541.394 L691.426,541.4091 L692.6152,543.527 L693.9241,545.7135 L695.1753,547.8669 L696.5367,550.0835 L697.5388,552.0939 L697.7912,552.2528 L699.1446,554.4008 L700.3352,556.4464 L701.7642,558.6419 L703.2043,560.8445 L704.2904,562.8243 L704.0277,562.6407 L706.0061,565.098 L707.1193,566.9507 L708.8902,569.2631 L709.9839,571.1021 L711.6327,573.3291 L711.6088,573.3102 L713.4735,575.5379 L714.7799,577.3249 L716.4157,579.372 L718.0792,581.4409 L719.5432,583.3522 L719.68,583.4768 L721.2333,585.2082 L723.0203,587.1524 L724.4292,588.7522 L726.4021,590.8657 L728,592.6377 L728.1648,592.8171 L730.6804,595.1231 L733.2779,597.5181 L735.4951,599.4993 L737.991,601.7838 L740.7339,604.3371 L740.5644,604.1191 L743.495,606.4753 L746.2346,608.5858 L749.2512,611.0527 L751.7949,612.9112 L754.6197,615.1313 L754.5342,615.0051 L757.5804,617.1828 L760.2611,618.821 L763.2017,620.8429 L766.3968,623.2402 L769.1388,624.969 L769.2388,625.1348 L772.2342,627.0145 L774.9184,628.3785 L777.9923,630.3884 L780.9813,632.2576 L783.7725,633.7989 L783.6719,633.6147 L786.598,635.3158 L789.4912,636.9565 L792.4491,638.7158 L795.1553,640.0142 L798.0021,641.57 L798.0942,641.7539 L800.5534,642.6821 L803.1902,643.9652 L806.0865,645.7667 L808.5051,646.6138 L811.3091,648.231 L811.4042,648.4362 L813.7208,649.4142 L816.0052,650.3228 L818.3622,651.3881 L820.8872,652.8157 L823.1746,653.7306 L823.1217,653.6085 L825.2601,654.8294 L827.0392,655.22 L829.2268,656.5547 L831.1844,657.3578 L833.08,658.0177 " fill="none" style="stroke:#191919;stroke-width:1.0;"/><polygon fill="#191919" points="837.91,659.9977,837.9606,660.0461,836.4488,658.4786,835.2338,657.195,833.9222,655.8189,832.2927,654.1389,831.1032,652.8796,831.0793,652.8696,831.4083,653.8687,831.8578,654.9181,832.391,656.0025,832.6356,656.9662,833.2845,658.099,833.3557,658.2692,832.1597,658.3414,831.1714,658.9107,830.2085,659.5407,829.098,659.8177,828.0652,660.2804,828.0659,660.3031,830.0339,660.2132,832.0048,660.2268,833.9744,660.1904,835.9466,660.2494,837.91,659.9977" style="stroke:#191919;stroke-width:1.0;"/><text fill="#000000" font-family="sans-serif" font-size="13" lengthAdjust="spacing" textLength="45" x="745" y="556.1328">check if</text><text fill="#000000" font-family="sans-serif" font-size="13" lengthAdjust="spacing" textLength="73" x="733" y="572.4844">foundation is</text><text fill="#000000" font-family="sans-serif" font-size="13" lengthAdjust="spacing" textLength="53" x="745" y="588.8359">complete</text><!--MD5=[238fc620bf0a8a74ec9ae18b580686bd]
link _CheckFoundationComplete to FoundationComplete--><path d="M846,676.1677 L846.2802,676.1677 L845.4476,686.1727 L846.2577,696.1777 L846.5329,706.1827 L845.0488,716.1877 L845.8964,726.1927 L845.4313,736.1977 L845.4887,746.2027 L845.9091,756.2077 L845.0782,766.2127 L846.7382,776.2177 L845.1596,786.2227 L845.7363,796.2277 L846.5759,806.2327 L845.8856,816.2377 L846.091,826.2427 L845.9574,836.2477 L846.238,846.2527 L846.3188,856.2577 L846.7809,866.2627 L846.8947,876.2677 L846.9057,886.2727 L846.3395,896.2777 L846.6181,906.2827 L846.9363,916.2877 L845.0384,926.2927 L846.9047,936.2977 L845.6047,946.3027 L846,956.3077 " fill="none" style="stroke:#191919;stroke-width:1.0;"/><polygon fill="#191919" points="846,961.4377,846.064,961.4661,846.6738,959.5816,847.6589,957.8639,848.5217,956.0918,848.9827,954.1411,850,952.4377,849.9817,952.4194,849.0995,953.1372,848.3096,953.9473,847.5839,954.8216,846.637,955.4747,846,956.4377,846.1305,956.5682,845.0514,955.4891,844.3534,954.7911,843.7018,954.1395,842.7798,953.2175,842,952.4377,842.0208,952.4469,842.7903,954.2334,843.6544,956.0619,844.4728,957.8701,845.3784,959.717,846,961.4377" style="stroke:#191919;stroke-width:1.0;"/><text fill="#000000" font-family="sans-serif" font-size="13" lengthAdjust="spacing" textLength="77" x="847" y="831.1328">[ if foundation</text><text fill="#000000" font-family="sans-serif" font-size="13" lengthAdjust="spacing" textLength="75" x="852" y="847.4844">is complete ]</text><!--MD5=[5cd2f4fd1478e34d8a08f8b4af197fa0]
link _CheckFoundationComplete to _CheckPossibleMovement--><path d="M846.75,652.6677 L846.8433,652.6712 L846.7149,648.6904 L847.1336,644.7301 L847.3742,640.7631 L847.0288,636.7741 L847.4945,632.8156 L847.46,632.8153 L847.3285,630.1996 L847.3712,627.5856 L847.5349,624.9726 L847.2814,622.3559 L847.6123,619.7444 L847.8583,619.7477 L847.2923,616.7739 L847.4446,613.8097 L847.6845,610.8467 L847.4146,607.8769 L847.4128,604.9107 L847.4431,604.9118 L847.2732,601.641 L847.2412,598.3754 L847.1426,595.1073 L847.1711,591.844 L846.7855,588.5649 L847.0831,588.5846 L846.8536,585.0634 L846.4321,581.5295 L846.2916,578.0142 L846.1643,574.4998 L845.6197,570.9577 L845.3007,570.9266 L845.5569,567.2634 L844.7626,563.4977 L844.7669,559.8099 L843.9488,556.042 L843.8048,552.3397 L843.7746,552.3357 L843.6165,548.5075 L842.7534,544.5855 L842.3063,540.7189 L841.8941,536.8569 L841.23,532.9614 L841.4126,532.9911 L840.9069,530.982 L840.7132,529.0235 L840.0147,526.9831 L840.0692,525.065 L839.6231,523.0655 L839.8627,523.1096 L839.4497,521.1029 L839.1557,519.118 L838.3089,517.0315 L837.8674,515.0195 L837.7848,513.0735 L837.5143,513.0175 L837.3424,511.0569 L836.8658,509.0331 L836.8311,507.1009 L836.0418,505.0124 L835.7011,503.0168 L835.5526,502.9823 L835.3314,501.0217 L834.4753,498.9137 L834.0707,496.9105 L834.1079,495.0099 L833.3584,492.9266 L833.5458,492.9752 L833.1513,490.99 L832.1737,488.8538 L831.9263,486.9068 L831.5199,484.9186 L830.7427,482.8343 L830.541,482.7761 L830.1213,480.8098 L829.6355,478.8245 L829.2796,476.8767 L828.419,474.7833 L827.8403,472.7712 L828.0361,472.8339 L826.9652,470.6956 L826.2724,468.6783 L826.1316,466.8379 L824.9743,464.6719 L824.6372,462.7686 L824.8504,462.8442 L824.0202,460.8171 L823.118,458.7645 L822.3785,456.7696 L822.0153,454.9082 L821.1197,452.8579 L820.9959,452.8092 L820.5954,450.9965 L819.3527,448.853 L819.0676,447.0857 L818.2434,445.1065 L817.2739,443.0703 L817.3738,443.1137 L816.4556,441.1521 L815.8949,439.3458 L815.0113,437.3992 L813.9926,435.3939 L813.086,433.4373 L813.1934,433.4889 L812.1251,431.5227 L811.5555,429.7964 L810.4218,427.7988 L809.5201,425.9127 L808.5422,423.99 L808.3035,423.863 L807.4005,422.0594 L806.785,420.4089 L805.7627,418.5418 L804.5945,416.597 L803.6286,414.76 L803.5053,414.6872 L802.4854,412.9142 L801.2471,411.0124 L800.6091,409.4647 L799.674,407.7417 L798.3315,405.7784 L798.5272,405.9065 L797.451,404.2072 L796.0028,402.2644 L794.9471,400.5785 L793.6316,398.7226 L792.6368,397.0766 L792.7389,397.1509 L791.5043,395.463 L790.393,393.8648 L788.8908,391.9821 L787.7038,390.3289 L786.531,388.6859 L786.684,388.8101 L785.4206,387.2352 L783.7417,385.3231 L782.5455,383.8027 L781.3577,382.2891 L780,380.6377 L779.7996,380.4545 L777.5791,377.968 L775.011,375.1638 L772.3566,372.2806 L769.8995,369.5778 L767.316,366.7595 L767.5413,366.9922 L764.5236,364.0489 L762.0221,361.6386 L759.3174,359.0185 L756.5693,356.3535 L753.8378,353.7058 L753.8787,353.7532 L751.0292,351.2931 L747.9735,348.594 L745.1968,346.2183 L742.3376,343.747 L739.63,341.4515 L739.6474,341.4739 L736.6794,339.1865 L733.7249,336.9164 L730.6274,334.4611 L727.7135,332.2437 L724.7573,329.9715 L724.7269,329.9276 L721.8088,328.0361 L718.6762,325.835 L715.3505,323.3558 L712.3604,321.3604 L709.2843,319.2409 L709.1483,319.0233 L706.1505,317.3483 L703.0242,315.4676 L699.8074,313.4423 L696.3748,311.0716 L693.2756,309.2345 L693.377,309.414 L689.8173,307.0856 L686.7275,305.5891 L683.3224,303.5344 L680.113,301.8262 L676.7959,299.9274 L676.8445,300.0225 L673.5142,298.3876 L669.8958,296.1893 L666.7605,294.9358 L663.3231,293.0915 L659.9098,291.2944 L659.9762,291.4377 L656.604,289.9992 L653.0197,288.1031 L649.6059,286.5748 L646.1675,284.9934 L642.682,283.3106 L642.716,283.3914 L639.1809,281.8383 L635.8025,280.6579 L632.0741,278.645 L628.7755,277.6545 L625.1771,275.9509 L625.0783,275.6918 L621.5481,274.3744 L618.0965,273.2633 L614.5512,271.9063 L610.9252,270.3378 L607.4598,269.1903 L607.52,269.364 L603.9026,267.9987 L600.4194,267.0208 L596.8377,265.7585 L593.1025,264.0527 L589.5946,263.0037 L589.5416,262.8349 L585.9878,261.8213 L582.4627,260.8993 L578.8793,259.7919 L575.2761,258.6212 L571.6463,257.366 L571.6047,257.2198 L568.1304,256.6153 L564.5367,255.5914 L560.8604,254.2776 L557.2437,253.1728 L553.6795,252.2523 L553.635,252.0795 L550.0715,251.237 L546.5264,250.4655 L542.9194,249.4539 L539.2966,248.3806 L535.7587,247.6374 L535.8078,247.8484 L532.1505,246.6106 L528.6853,246.1985 L525.1157,245.3378 L521.5482,244.4856 L517.9488,243.4964 L518.0118,243.7977 L514.3994,242.651 L510.8675,241.8888 L507.4153,241.5068 L503.7867,240.283 L500.3142,239.8042 L500.295,239.702 L496.8447,239.201 L493.362,238.5269 L489.848,237.6866 L486.395,237.1707 L482.9196,236.5358 L482.9744,236.8622 L479.5494,236.2461 L476.0398,235.1266 L472.6715,234.8484 L469.2099,234.0148 L465.8298,233.6661 L465.8281,233.6545 L462.5049,233.2957 L459.1691,232.8522 L455.7539,231.8762 L452.4797,231.8453 L449.1093,231.17 L449.1098,231.1737 L445.8197,230.4958 L442.5673,230.1035 L439.3563,230.0255 L436.0946,229.5622 L432.8227,229.0226 L432.8219,229.0153 L429.6309,228.3611 L426.5411,228.5836 L423.3341,227.7906 L420.1654,227.3304 L417.0348,227.1987 L417.0318,227.169 L414.016,227.1545 L410.9722,226.8608 L407.9015,226.2991 L404.8483,225.9116 L401.8101,225.6734 L401.8165,225.7486 L398.8978,225.5055 L395.9521,224.9478 L393.0677,225.1056 L390.1539,224.9194 L387.2133,224.4216 L387.2064,224.326 L384.4187,224.0307 L381.6732,224.3193 L378.8714,223.8289 L376.0899,223.6188 L373.309,223.4182 L373.3169,223.5509 L370.6626,222.9758 L368.0641,223.3414 L365.4204,222.9434 L362.8089,223.091 L360.1619,222.6383 L360.1579,222.5424 L355.4167,222.6219 L350.6481,222.0452 L345.908,222.1532 L341.1577,222.0148 L336.3978,221.6484 L336.3949,221.503 L332.4091,221.7304 L328.4089,221.2358 L324.4179,221.2013 L320.4361,221.6344 L316.4381,221.2517 L316.4382,221.5558 L313.3106,221.5035 L310.1828,221.0899 L307.0553,221.4201 L303.9276,221.0387 L300.8,221.2477 " fill="none" style="stroke:#191919;stroke-width:1.0;"/><polygon fill="#191919" points="295.69,221.3077,295.7175,221.3721,297.447,221.9549,299.3378,222.9154,301.1761,223.7528,302.8415,224.1859,304.7462,225.1787,304.7282,225.1602,303.8358,224.2883,303.0344,223.5101,302.2963,222.797,301.3402,221.8595,300.6895,221.2363,300.8218,221.3649,301.3273,220.2785,302.2192,219.5676,303.1582,218.9026,303.8229,217.971,304.6319,217.1795,304.6415,217.2002,302.8391,217.9955,301.0801,218.8848,299.3002,219.7288,297.5602,220.6593,295.69,221.3077" style="stroke:#191919;stroke-width:1.0;"/><text fill="#000000" font-family="sans-serif" font-size="13" lengthAdjust="spacing" textLength="40" x="813" y="411.6328">[ else ]</text><!--MD5=[ab7f3af6e98ecb1de846c01b77ef904d]
link _CheckMoveToFoundation to _CheckMoveToTableau--><path d="M451,351.0977 L451.2802,351.0977 L450.4476,360.9627 L451.2577,370.8277 L451.5329,380.6927 L450.0488,390.5577 L450.8964,400.4227 L450.4313,410.2877 L450.4887,420.1527 L450.9091,430.0177 L450.0782,439.8827 L451.7382,449.7477 L450.1596,459.6127 L451,469.4777 " fill="none" style="stroke:#191919;stroke-width:1.0;"/><polygon fill="#191919" points="451,474.6377,451.064,474.6661,451.6738,472.7816,452.6589,471.0639,453.5217,469.2918,453.9827,467.3411,455,465.6377,454.9817,465.6194,454.0995,466.3372,453.3096,467.1473,452.5839,468.0216,451.637,468.6747,451,469.6377,451.1305,469.7682,450.0514,468.6891,449.3534,467.9911,448.7018,467.3395,447.7798,466.4175,447,465.6377,447.0208,465.6469,447.7903,467.4334,448.6544,469.2619,449.4728,471.0701,450.3784,472.917,451,474.6377" style="stroke:#191919;stroke-width:1.0;"/><text fill="#000000" font-family="sans-serif" font-size="13" lengthAdjust="spacing" textLength="40" x="487" y="395.1328">[ else ]</text><text fill="#000000" font-family="sans-serif" font-size="13" lengthAdjust="spacing" textLength="106" x="456" y="411.4844">/ check movement</text><text fill="#000000" font-family="sans-serif" font-size="13" lengthAdjust="spacing" textLength="57" x="482.5" y="427.8359">to tableau</text><!--MD5=[e400538ab9236065dbf0a71d17218731]
link _CheckMoveToTableau to CardMovedToTableau--><path d="M450.4,498.0877 L450.6798,498.1036 L449.2963,507.752 L449.553,517.4938 L449.2756,527.2051 L447.2418,536.8165 L447.5358,546.5604 L446.5194,556.2296 L446.0245,565.9286 L445.8921,575.6482 L444.5104,585.2967 L445.6156,595.0868 L443.4874,604.6928 L443.511,614.4213 L443.7971,624.1647 L442.67,633.8277 " fill="none" style="stroke:#191919;stroke-width:1.0;"/><polygon fill="#191919" points="442.37,639.0277,442.4323,639.0598,443.1486,637.2131,444.2301,635.5543,445.1926,633.8344,445.7641,631.9132,446.8769,630.2706,446.8597,630.2512,445.938,630.9175,445.1032,631.6813,444.3288,632.5128,443.3462,633.1108,442.6552,634.0358,442.793,634.1587,441.7454,633.0517,441.0999,632.3033,440.5035,631.5987,439.6217,630.6395,438.89,629.8142,438.9112,629.8222,439.576,631.6531,440.3376,633.5206,441.0526,635.3704,441.8566,637.254,442.37,639.0277" style="stroke:#191919;stroke-width:1.0;"/><text fill="#000000" font-family="sans-serif" font-size="13" lengthAdjust="spacing" textLength="86" x="461" y="556.1328">[ if card can be</text><text fill="#000000" font-family="sans-serif" font-size="13" lengthAdjust="spacing" textLength="106" x="453" y="572.4844">moved to tableau ]</text><text fill="#000000" font-family="sans-serif" font-size="13" lengthAdjust="spacing" textLength="67" x="474.5" y="588.8359">/ move card</text><!--MD5=[57b024d0e14470d71383fcdac2371aeb]
link CardMovedToTableau to _CheckRaiseInTableau--><path d="M415.99,689.4977 L416.1855,689.6985 L408.3693,696.1477 L401.6993,703.7739 L394.656,711.0169 L386.3853,716.9994 L379.7414,724.6524 L372.1817,731.365 L364.9864,738.4519 L358.0445,745.7989 L350.2295,752.2494 L344.1524,760.4844 L335.8158,766.3993 L328.9829,773.8583 L322.3334,781.5056 L314.6165,788.0568 L307.5245,795.2497 L300.1961,802.1998 L293.1566,809.4467 L285.9777,816.5503 L278.52,823.3677 " fill="none" style="stroke:#191919;stroke-width:1.0;"/><polygon fill="#191919" points="274.77,827.0177,274.7942,827.0834,276.5705,826.2071,278.4889,825.7161,280.3609,825.0996,282.081,824.0704,284.0115,823.6125,284.0111,823.5866,282.8782,823.4543,281.7471,823.4527,280.6174,823.5418,279.4832,823.3181,278.3552,823.5325,278.5397,823.5351,278.1611,822.3983,278.3213,821.2691,278.5471,820.1408,278.3906,819.0071,278.4352,817.8762,278.4563,817.8847,277.6922,819.7006,277.0243,821.555,276.3101,823.3908,275.6842,825.2621,274.77,827.0177" style="stroke:#191919;stroke-width:1.0;"/><text fill="#000000" font-family="sans-serif" font-size="13" lengthAdjust="spacing" textLength="45" x="392" y="750.1328">check if</text><text fill="#000000" font-family="sans-serif" font-size="13" lengthAdjust="spacing" textLength="68" x="382.5" y="766.4844">card can be</text><text fill="#000000" font-family="sans-serif" font-size="13" lengthAdjust="spacing" textLength="95" x="371" y="782.8359">raised in tableau</text><!--MD5=[5e5efcafd66efda1825870cfd81c9895]
link _CheckRaiseInTableau to CardRaisedInTableau--><path d="M264.48,841.3077 L264.5582,841.3588 L263.3047,842.7684 L262.5095,844.4777 L261.5651,846.0894 L260.1299,847.3802 L259.3741,849.1152 L259.3448,849.0969 L257.9976,850.9556 L256.798,852.9067 L255.701,854.9221 L254.2504,856.7161 L253.295,858.8202 L253.507,858.9452 L251.7824,860.8342 L250.6767,863.0881 L249.6464,865.3864 L248.1769,867.4258 L246.9384,869.6014 L246.9651,869.6158 L245.7382,871.802 L244.6329,874.0535 L243.469,876.2736 L242.4169,878.5538 L241,880.6377 L241.2678,880.769 L240.3321,882.6847 L239.2237,884.5156 L238.3682,886.4706 L237.5245,888.4313 L236.3053,890.2079 L236.0148,890.0726 L235.6612,892.3058 L234.3508,894.0934 L233.7678,896.2197 L232.4357,897.9972 L231.7177,900.0607 L231.6898,900.0483 L231.1298,902.1917 L229.9199,904.0457 L229.0934,906.0705 L228.2992,908.1096 L227.2727,910.0454 L227.4428,910.1182 L226.4178,912.0379 L225.6835,914.082 L224.479,915.9249 L223.9757,918.068 L223.0063,920.0114 L223.2319,920.1034 L221.6183,923.9408 L220.1167,927.8238 L218.0947,931.4948 L216.4542,935.3212 L215.1517,939.2854 L214.8941,939.1859 L213.785,942.7544 L212.3855,946.2108 L211.4072,949.8298 L209.7099,953.1713 L208.44,956.6777 " fill="none" style="stroke:#191919;stroke-width:1.0;"/><polygon fill="#191919" points="206.68,961.3877,206.73,961.4368,207.9626,959.8864,209.4881,958.6239,210.9183,957.2676,212.0348,955.603,213.5854,954.3652,213.5747,954.3416,212.4966,954.704,211.4726,955.1852,210.4861,955.749,209.3702,956.0281,208.4356,956.706,208.6036,956.7824,207.7762,955.5891,207.4393,954.6188,207.1622,953.6757,206.5369,952.5744,206.0948,951.5562,206.1175,951.5576,206.2012,953.5219,206.3883,955.4924,206.5255,957.4598,206.7578,959.433,206.68,961.3877" style="stroke:#191919;stroke-width:1.0;"/><text fill="#000000" font-family="sans-serif" font-size="13" lengthAdjust="spacing" textLength="86" x="252.5" y="895.1328">[ if card can be</text><text fill="#000000" font-family="sans-serif" font-size="13" lengthAdjust="spacing" textLength="103" x="246" y="911.4844">raised in tableau ]</text><text fill="#000000" font-family="sans-serif" font-size="13" lengthAdjust="spacing" textLength="65" x="267" y="927.8359">/ raise card</text><!--MD5=[67a1422a59b07cfab1de402c4f0f5579]
link _CheckRaiseInTableau to _CheckPossibleMovement--><path d="M269.27,821.7677 L269.5502,821.7746 L268.965,811.6817 L270.0221,801.6292 L270.5445,791.5635 L269.3081,781.4547 L270.4026,771.4031 L270.185,761.3193 L270.4895,751.2483 L271.1571,741.1862 L270.5736,731.0934 L272.4804,721.0617 L271.1495,710.9505 L271.9733,700.8923 L273.0599,690.8404 L272.617,680.7511 L273.0696,670.6837 L273.1833,660.608 L273.7111,650.5425 L274.0391,640.4721 L274.7483,630.411 L275.1093,620.3414 L275.3675,610.2692 L275.0487,600.1829 L275.5745,590.1173 L276.1398,580.0527 L274.4897,569.9338 L276.6027,559.9071 L275.5503,549.8028 L276.9043,539.7576 L275.7802,529.6515 L276.5959,519.593 L277.923,509.5471 L277.1168,499.4489 L277.5693,489.3815 L278.1276,479.3167 L278.4783,469.2468 L278.1655,459.1607 L278.8008,449.0978 L277.9022,438.9972 L279.2915,428.9529 L279.8904,418.8891 L279.9994,408.8133 L280.4713,398.7464 L279.2575,388.6381 L279.2793,378.5601 L279.5676,368.4887 L280.5646,358.4347 L280.6284,348.3578 L282.0459,338.3141 L281.152,328.2137 L281.1748,318.1358 L282.1836,308.0821 L281.2377,297.9804 L281.6818,287.9128 L283.486,277.8786 L283.449,267.7992 L284.0945,257.7366 L282.9338,247.6296 L283.61,237.5677 " fill="none" style="stroke:#191919;stroke-width:1.0;"/><polygon fill="#191919" points="283.73,232.4977,283.7933,232.5278,282.7593,234.2172,282.0962,236.083,281.3123,237.8914,280.1312,239.5109,279.5,241.3919,279.4821,241.3731,280.2224,240.5097,281.0525,239.7409,281.9452,239.0379,282.6225,238.1081,283.6015,237.496,283.7353,237.6231,284.2283,238.1717,285.112,239.0912,286.0434,240.0561,286.6974,240.7576,287.4973,241.5975,287.5183,241.6062,286.734,239.7735,286.0454,237.9804,285.3106,236.1681,284.6638,234.3923,283.73,232.4977" style="stroke:#191919;stroke-width:1.0;"/><text fill="#000000" font-family="sans-serif" font-size="13" lengthAdjust="spacing" textLength="40" x="280" y="492.1328">[ else ]</text><!--MD5=[5ebd9f3a52d471b86ddaf510f7b53bb5]
link CardRaisedInTableau to _CheckPossibleMovement--><path d="M180.41,961.6277 L180.4885,961.6783 L178.7425,959.183 L177.4566,956.9846 L176.0209,954.6895 L174.0924,952.0764 L172.846,949.9035 L172.8163,949.8859 L171.0899,947.1144 L169.5133,944.4315 L168.041,941.8102 L166.2096,938.9765 L164.8811,936.4404 L165.0984,936.5558 L163.0474,933.3238 L161.6309,930.4289 L160.2918,927.5752 L158.5023,924.4821 L156.9497,921.5149 L156.9772,921.5277 L155.4441,918.2868 L154.0363,915.1039 L152.5681,911.893 L151.2151,908.7356 L149.4862,905.4039 L149.7645,905.5112 L148.4557,902.1086 L146.9674,898.6367 L145.7418,895.2661 L144.5286,891.9003 L142.9251,888.384 L142.6178,888.2931 L142.1694,884.9392 L140.709,881.2858 L140.018,877.8601 L138.5347,874.1999 L137.7008,870.7319 L137.6709,870.7262 L137.3338,867.1925 L136.2982,863.5248 L135.6748,859.9361 L135.086,856.3541 L134.2476,852.7242 L134.4322,852.737 L133.9963,849.1068 L133.8759,845.4984 L133.2452,841.8548 L133.3756,838.2637 L133,834.6377 L133.7309,834.6377 L133.5927,824.6977 L133.8174,814.7577 L132.3559,804.8177 L132.1304,794.8777 L132.1715,784.9377 L132.9215,774.9977 L132.738,765.0577 L133.9085,755.1177 L132.7671,745.1777 L132.5426,735.2377 L133.3044,725.2977 L132.1109,715.3577 L132.3078,705.4177 L133.8653,695.4777 L133.5809,685.5377 L133.9793,675.5977 L132.5709,665.6577 L133.4256,655.7177 L133.7872,645.7777 L132.3701,635.8377 L132.8722,625.8977 L133.168,615.9577 L133.869,606.0177 L132.9944,596.0777 L133.6168,586.1377 L132.2616,576.1977 L132.097,566.2577 L133.6715,556.3177 L132.0441,546.3777 L133.6786,536.4377 L133.2755,526.4977 L132.6428,516.5577 L132.5283,506.6177 L133.6117,496.6777 L132.6009,486.7377 L133.7891,476.7977 L132.263,466.8577 L133.8232,456.9177 L133.6457,446.9777 L133.3266,437.0377 L133.063,427.0977 L133.9688,417.1577 L133.8181,407.2177 L133.2257,397.2777 L133.3576,387.3377 L132.8263,377.3977 L133.9553,367.4577 L133.2065,357.5177 L133.2301,347.5777 L133,337.6377 L132.7307,337.6134 L133.0459,335.1273 L133.6854,332.6705 L133.866,330.1723 L133.882,327.6592 L134.1262,325.1667 L133.9882,325.1286 L134.6767,322.8076 L135.1207,320.4192 L136.2366,318.2163 L137.0199,315.9216 L137.3473,313.5009 L137.5593,313.5999 L138.643,311.4561 L139.324,309.1242 L140.43,306.9907 L141.2547,304.7259 L142.4267,302.6233 L142.5319,302.693 L143.8583,300.6625 L145.3117,298.7163 L146.3623,296.5029 L147.7378,294.5049 L149.1278,292.5166 L149.2769,292.6455 L150.9358,290.8109 L152.1901,288.6265 L153.9145,286.8485 L155.6471,285.0777 L157.2142,283.1637 L157.029,282.9652 L159.1684,281.5553 L160.9865,279.8011 L162.7248,277.9613 L164.6455,276.317 L166.4494,274.5475 L166.6483,274.8031 L168.3935,272.8584 L170.5944,271.4993 L172.6158,269.9097 L174.599,268.2708 L176.5968,266.6508 L176.6315,266.703 L178.7894,265.2539 L180.7725,263.542 L182.9921,262.1858 L185.1418,260.7245 L187.42,259.4564 L187.4342,259.481 L189.6921,258.1885 L191.9609,256.915 L194.1127,255.439 L196.4149,254.2231 L198.6824,252.9473 L198.6581,252.8997 L201.0918,252.0075 L203.3545,250.7798 L205.4635,249.2503 L207.8397,248.2455 L210.1475,247.1062 L210.0414,246.8726 L212.4867,246.1848 L214.8318,245.2763 L217.1063,244.2124 L219.2125,242.7777 L221.5787,241.9159 L221.6567,242.1068 L223.6861,240.699 L226.0767,240.1757 L228.225,239.0589 L230.5237,238.3105 L232.7397,237.3594 L232.7767,237.4596 L234.9433,236.7682 L236.8904,235.4833 L239.2055,235.1937 L241.2904,234.2818 L243.3938,233.4195 L243.4442,233.5691 L245.4821,233.0663 L247.3589,232.0856 L249.3651,231.489 L251.3527,230.837 L253.3046,230.079 L253.3296,230.163 L256.6336,229.0884 L260.0528,228.4012 L263.2146,226.8485 L266.6925,226.3588 L269.95,225.1277 " fill="none" style="stroke:#191919;stroke-width:1.0;"/><polygon fill="#191919" points="275.01,223.7877,275.0213,223.8568,273.0436,223.3347,271.1321,223.2179,269.199,222.9691,267.1952,222.2862,265.2893,222.2042,265.2762,222.1818,266.1945,222.6521,267.1786,223.2351,268.2086,223.8965,269.0807,224.2877,270.1739,225.0574,270.3332,225.1504,269.4218,225.9283,268.9757,226.9779,268.5863,228.0607,267.8667,228.9506,267.3207,229.942,267.3349,229.9597,268.8519,228.7028,270.4336,227.5267,271.9841,226.3116,273.5941,225.171,275.01,223.7877" style="stroke:#191919;stroke-width:1.0;"/><!--MD5=[c9f79de9bfccf38268589239791163ef]
link _CheckMoveToTableau to _CheckRaiseCardFromStock--><path d="M461.22,488.7377 L461.234,488.8301 L463.3588,488.8829 L465.5654,489.4772 L467.7453,489.8952 L469.8377,489.7334 L472.0513,490.3742 L472.0447,490.3403 L474.729,490.7163 L477.4466,491.2633 L480.1872,491.9291 L482.8482,492.1854 L485.6208,493.0152 L485.6802,493.254 L488.652,493.5142 L491.7973,494.4716 L494.9637,495.514 L498.0071,496.0615 L501.1151,496.8693 L501.1243,496.8982 L504.4321,497.911 L507.7816,499.0553 L511.111,500.1361 L514.4788,501.3381 L517.7213,502.1452 L517.834,502.4213 L521.2164,503.8059 L524.5259,505.0124 L527.942,506.4796 L531.3631,507.9591 L534.626,509.0514 L534.4751,508.7686 L538.0459,511.0664 L541.12,512.4331 L544.5717,514.5077 L547.6345,515.8533 L551.0161,517.7964 L550.9984,517.7717 L554.2205,520.2229 L557.0284,522.0959 L560.0808,524.31 L563.1537,526.5528 L566.0785,528.589 L566.2099,528.7192 L568.6616,531.1975 L571.3378,533.8983 L573.6506,536.2392 L576.5055,539.1169 L579,541.6377 L579.1931,541.7862 L580.4032,543.3791 L581.7092,545.0457 L582.5697,546.3696 L583.7567,547.9447 L585.2331,549.7424 L585.0057,549.5856 L586.3733,551.4121 L587.4846,553.062 L588.9676,554.9682 L589.8161,556.4368 L591.0417,558.1655 L590.9121,558.0852 L592.2076,559.9615 L592.9491,561.4946 L594.0845,563.2717 L595.6055,565.2877 L596.4399,566.8784 L596.6091,566.9727 L597.7254,568.8322 L598.3157,570.3985 L599.565,572.332 L600.6706,574.1856 L601.4418,575.8527 L601.2541,575.7585 L602.3276,577.675 L603.3396,579.5606 L604.4724,581.5068 L605.1358,583.2174 L606.0613,585.0597 L606.2487,585.1443 L606.6873,586.8406 L607.4875,588.7002 L608.8161,590.7985 L609.172,592.4574 L610.3126,594.4708 L610.5222,594.556 L611.1771,596.4227 L611.7612,598.2606 L612.5052,600.1636 L613.6192,602.217 L614.2098,604.0575 L614.0848,604.0119 L615.1682,606.0946 L615.4018,607.8667 L616.6017,609.992 L617.2575,611.9184 L617.7667,613.7913 L617.8702,613.8252 L618.4328,615.7683 L619.3659,617.8328 L619.9644,619.7876 L620.4229,621.6965 L620.9976,623.6435 L621.112,623.6771 L621.5258,625.6156 L622.4707,627.7101 L622.8149,629.6282 L623.4063,631.6188 L623.9164,633.5856 L623.6549,633.5171 L624.2664,635.5407 L625.193,637.6468 L625.6737,639.6361 L625.9947,641.5836 L626.5373,643.5891 L626.3978,643.5566 L626.9099,645.5743 L627.1751,647.5344 L628.119,649.6526 L628.727,651.6926 L628.8742,653.6253 L629.1034,653.6725 L629.5902,655.6957 L629.6415,657.6292 L630.1524,659.6574 L630.3592,661.6229 L630.9413,663.6657 L631.0655,663.6882 L631.4115,665.6884 L631.9074,667.7158 L631.9276,669.6572 L632.3315,671.6679 L632.7525,673.6817 L632.9472,673.7124 L633.3155,675.7136 L633.1553,677.6315 L633.6091,679.6462 L634.0736,681.6625 L634.322,683.6448 L634.053,683.6083 L634.746,685.6423 L634.9723,687.6129 L635.0827,689.5678 L635.458,691.5586 L635.6637,693.5264 L635.9858,693.5606 L635.9368,697.3927 L636.6256,701.303 L637.0239,705.1825 L637.3602,709.0554 L637.7203,712.9309 L637.7828,712.9353 L638.0335,716.6815 L637.9693,720.4057 L638.3312,724.1598 L638.5672,727.905 L639.0347,731.6665 L639.063,731.6676 L639.2107,735.2357 L639.3803,738.8046 L639.3162,742.3645 L639.5523,745.936 L639.7192,749.5048 L639.6658,749.5043 L640.009,752.8498 L639.9757,756.1917 L639.6038,759.5301 L639.8206,762.8744 L639.8864,766.2172 L639.6299,766.2133 L639.967,769.2908 L640.0617,772.3646 L639.9858,775.4358 L639.5026,778.5007 L639.6486,781.5753 L639.8547,781.5832 L639.2127,784.3176 L639.5254,787.0887 L639.1976,789.8352 L639.2674,792.597 L639.1184,795.3504 L639.225,795.3567 L639.1858,797.7555 L638.5148,800.1169 L638.9031,802.5411 L638.6291,804.926 L638.408,807.314 L638.5655,807.3264 L638.5838,809.3247 L638.0992,811.2837 L638.0189,813.2743 L637.8802,815.2604 L637.63,817.2377 " fill="none" style="stroke:#191919;stroke-width:1.0;"/><polygon fill="#191919" points="637.15,822.4877,637.2111,822.5219,637.9909,820.7011,639.1292,819.0808,640.1507,817.3952,640.7883,815.4949,641.9573,813.8918,641.9407,813.8719,640.9965,814.5059,640.1358,815.2403,639.3331,816.0445,638.3304,816.6081,637.6078,817.5087,637.7497,817.6267,636.7229,816.5045,636.1104,815.7268,635.5484,814.9911,634.6923,814.0108,633.9909,813.1592,634.0125,813.1665,634.6126,815.0215,635.3109,816.9097,635.9619,818.7819,636.7031,820.6846,637.15,822.4877" style="stroke:#191919;stroke-width:1.0;"/><text fill="#000000" font-family="sans-serif" font-size="13" lengthAdjust="spacing" textLength="40" x="654" y="637.1328">[ else ]</text><text fill="#000000" font-family="sans-serif" font-size="13" lengthAdjust="spacing" textLength="53" x="649.5" y="653.4844">/ check if</text><text fill="#000000" font-family="sans-serif" font-size="13" lengthAdjust="spacing" textLength="68" x="642" y="669.8359">card can be</text><text fill="#000000" font-family="sans-serif" font-size="13" lengthAdjust="spacing" textLength="64" x="644" y="686.1875">raised from</text><text fill="#000000" font-family="sans-serif" font-size="13" lengthAdjust="spacing" textLength="32" x="662" y="702.5391">stock</text><!--MD5=[2ec850f1a0389c4bfdf531e5defc682e]
link _CheckRaiseCardFromStock to _DoRaiseCardFromStock--><path d="M627.3,837.3077 L627.3301,837.3961 L624.1558,838.1838 L621.158,839.4898 L618.1028,840.6271 L614.8585,841.2092 L611.8759,842.5598 L611.8639,842.5274 L609.8089,843.1196 L607.8141,843.8753 L605.8611,844.7445 L603.7639,845.2224 L601.8688,846.2484 L601.9583,846.4776 L599.5129,846.8686 L597.329,847.9286 L595.177,849.0703 L592.8394,849.7371 L590.5994,850.6536 L590.611,850.6816 L588.1277,851.6661 L585.6975,852.7781 L583.2417,853.8285 L580.8346,854.9963 L578.2685,855.7815 L578.3895,856.0541 L575.7527,857.2288 L573.0378,858.2277 L570.4372,859.4839 L567.8419,860.7522 L565.077,861.6383 L564.9392,861.3489 L562.4362,863.2289 L559.4798,864.156 L556.868,865.8075 L553.9013,866.713 L551.2255,868.23 L551.2116,868.2029 L548.5137,869.9898 L545.4914,871.1438 L542.6605,872.6713 L539.8457,874.2301 L536.915,875.5627 L537.0047,875.7245 L534.0004,877.1772 L531.1494,878.9063 L528.0503,880.1882 L525.3213,882.1372 L522.3462,883.6426 L522.4722,883.8512 L519.5231,885.5784 L516.6365,887.4091 L513.4594,888.7588 L510.4953,890.4611 L507.7199,892.4759 L507.5674,892.2456 L504.8089,894.3726 L501.8785,896.2401 L499.1974,898.484 L496.0907,900.0853 L493.237,902.0685 L493.1469,901.9455 L490.4692,904.222 L487.4063,905.9727 L484.6173,908.0973 L482.0963,910.5878 L479.0981,912.4268 L479.2208,912.5766 L476.5861,914.9053 L473.57,916.7681 L471.0316,919.2145 L468.3892,921.5337 L465.5042,923.5567 L465.3615,923.4027 L462.9056,925.907 L460.403,928.3608 L457.9922,930.9137 L455.2244,933.0815 L452.656,935.4644 L452.806,935.605 L450.0961,937.8343 L447.6758,940.3351 L445.6783,943.2325 L442.9022,945.3997 L440.7543,948.156 L440.9312,948.2971 L438.6753,950.9096 L436.3595,953.4744 L434.1788,956.147 L432.3103,959.0685 L430,961.6377 L429.8872,961.5672 L428.6318,964.3217 L426.6092,966.5965 L425.459,969.4168 L423.8176,971.93 L422.0438,974.3604 L422.1425,974.4064 L420.7789,977.1236 L419.7686,980.0056 L418.439,982.7387 L416.9761,985.4096 L415.6239,988.1322 L415.7364,988.1717 L414.5598,990.9854 L413.9054,993.9825 L412.6605,996.7721 L411.6585,999.6471 L410.5767,1002.494 L410.3153,1002.4248 L409.635,1005.3464 L409.2695,1008.3514 L408.4586,1011.2384 L407.4879,1014.0831 L406.7388,1016.9864 L406.5983,1016.9588 L406.0849,1019.8004 L405.3227,1022.593 L405.2443,1025.5204 L404.8275,1028.3811 L403.9466,1031.1503 L404.1782,1031.1834 L403.8704,1033.8691 L403.1225,1036.4921 L402.839,1039.1814 L402.2482,1041.8267 L402.0367,1044.5263 L402.1624,1044.5386 L401.9077,1046.9628 L401.8046,1049.4018 L401.2205,1051.7936 L401.0244,1054.2236 L400.8457,1056.6552 L401.0424,1056.6672 L400.9702,1058.755 L400.364,1060.8103 L400.3783,1062.9034 L400.4034,1064.9972 L400.21,1067.0777 " fill="none" style="stroke:#191919;stroke-width:1.0;"/><polygon fill="#191919" points="400.02,1072.3677,400.083,1072.3983,400.757,1070.5358,401.8004,1068.8528,402.7234,1067.1114,403.251,1065.1776,404.326,1063.51,404.3084,1063.4911,403.4021,1064.1782,402.5849,1064.9608,401.8297,1065.8098,400.861,1066.4301,400.1913,1067.3706,400.3262,1067.4966,399.2656,1066.4003,398.5989,1065.6718,397.9802,1064.9881,397.082,1064.0433,396.3307,1063.2359,396.3518,1063.2444,397.0587,1065.0583,397.8616,1066.9109,398.6182,1068.7448,399.4632,1070.6145,400.02,1072.3677" style="stroke:#191919;stroke-width:1.0;"/><text fill="#000000" font-family="sans-serif" font-size="13" lengthAdjust="spacing" textLength="86" x="442" y="984.1328">[ if card can be</text><text fill="#000000" font-family="sans-serif" font-size="13" lengthAdjust="spacing" textLength="108" x="435" y="1000.4844">raised from stock ]</text><!--MD5=[77dd83cc02231ecce47cd233c6d1b400]
link _CheckRaiseCardFromStock to StockRecovered--><path d="M636,845.9877 L636.2802,845.9877 L635.4476,856.0095 L636.2577,866.0313 L636.5329,876.0531 L635.0488,886.075 L635.8964,896.0968 L635.4313,906.1186 L635.4887,916.1404 L635.9091,926.1622 L635.0782,936.1841 L636.7382,946.2059 L636,956.2277 " fill="none" style="stroke:#191919;stroke-width:1.0;"/><polygon fill="#191919" points="636,961.4477,636.064,961.4761,636.6738,959.5916,637.6589,957.8739,638.5217,956.1018,638.9827,954.1511,640,952.4477,639.9817,952.4294,639.0995,953.1472,638.3096,953.9573,637.5839,954.8316,636.637,955.4847,636,956.4477,636.1305,956.5782,635.0514,955.4991,634.3534,954.8011,633.7018,954.1495,632.7798,953.2275,632,952.4477,632.0208,952.4569,632.7903,954.2434,633.6544,956.0719,634.4728,957.8801,635.3784,959.727,636,961.4477" style="stroke:#191919;stroke-width:1.0;"/><text fill="#000000" font-family="sans-serif" font-size="13" lengthAdjust="spacing" textLength="40" x="659.5" y="903.6328">[ else ]</text><text fill="#000000" font-family="sans-serif" font-size="13" lengthAdjust="spacing" textLength="85" x="641" y="919.9844">/ recover stock</text><!--MD5=[91f5efcc8981d0f96cbd04daa020a7fb]
link StockRecovered to _DoRaiseCardFromStock--><path d="M576.75,1011.7377 L576.8556,1011.9973 L567.4324,1014.9315 L558.6282,1019.3875 L549.6225,1023.348 L539.9538,1025.6788 L531.1637,1030.1695 L521.8791,1033.4443 L512.7912,1037.2029 L503.8402,1041.298 L494.4177,1044.2338 L485.9337,1049.477 L476.2295,1051.7204 L467.3373,1055.9601 L458.5442,1060.4434 L449.1747,1063.5095 L440.1426,1067.4053 L430.9828,1070.9871 L421.9791,1074.9526 L412.78,1078.4377 " fill="none" style="stroke:#191919;stroke-width:1.0;"/><polygon fill="#191919" points="407.99,1080.3877,407.9923,1080.4577,409.9543,1080.3135,411.9296,1080.5798,413.9005,1080.7124,415.8572,1080.4055,417.8337,1080.707,417.8236,1080.6831,416.7361,1080.1359,415.6995,1079.7089,414.6981,1079.3656,413.5751,1078.734,412.6225,1078.5062,412.7925,1078.578,412.8691,1077.3822,413.4421,1076.3961,414.0756,1075.4355,414.3568,1074.3261,414.8233,1073.295,414.8397,1073.3108,413.449,1074.7062,412.1328,1076.1734,410.7807,1077.6059,409.4973,1079.1046,407.99,1080.3877" style="stroke:#191919;stroke-width:1.0;"/><!--MD5=[e4b34ea6026cd11de52ba102098cf61c]
link _DoRaiseCardFromStock to CardMovedToWaste--><path d="M392.38,1089.0877 L392.4956,1089.343 L383.001,1092.7265 L374.1838,1097.6066 L365.146,1101.9994 L355.3828,1104.7895 L346.581,1109.7037 L337.238,1113.4221 L328.1104,1117.6164 L319.1325,1122.1416 L309.6386,1125.5266 L301.1719,1131.181 L291.3697,1133.885 L282.4563,1138.5525 L273.6512,1143.4595 L264.2153,1146.9727 L255.1488,1151.3018 L245.9424,1155.3222 L236.9069,1159.72 L227.789,1163.9357 L218.8283,1168.4987 L209.7239,1172.7445 L200.5772,1176.8965 L191.1925,1180.5228 L182.1561,1184.9187 L172.75,1188.4977 " fill="none" style="stroke:#191919;stroke-width:1.0;"/><polygon fill="#191919" points="168.08,1190.6077,168.0804,1190.6778,170.0489,1190.4582,172.0199,1190.6493,173.99,1190.7066,175.9576,1190.3242,177.9287,1190.5506,177.9195,1190.5263,176.8201,1190.0176,175.7669,1189.631,174.7458,1189.3293,173.614,1188.735,172.6372,1188.5505,172.8098,1188.6158,172.8407,1187.4179,173.3755,1186.4106,173.9719,1185.4265,174.2105,1184.3072,174.6372,1183.259,174.6542,1183.2742,173.3178,1184.7217,172.0587,1186.2381,170.7624,1187.7213,169.5371,1189.2679,168.08,1190.6077" style="stroke:#191919;stroke-width:1.0;"/><text fill="#000000" font-family="sans-serif" font-size="13" lengthAdjust="spacing" textLength="57" x="340.5" y="1141.1328">raise card</text><text fill="#000000" font-family="sans-serif" font-size="13" lengthAdjust="spacing" textLength="120" x="313" y="1157.4844">/ move card to waste</text><!--MD5=[9f25ef67fed3b28abdceb7440bc6bca4]
link CardMovedToWaste to _CheckPossibleMovement--><path d="M78.63,1190.6177 L78.6887,1190.6904 L76.2111,1188.6155 L74.0774,1186.9667 L71.8317,1185.1792 L69.2178,1182.9354 L67.1136,1181.3232 L67.0905,1181.2976 L64.6459,1179.067 L62.3182,1176.9656 L60.0716,1174.954 L57.5453,1172.633 L55.4108,1170.7454 L55.5878,1170.9162 L52.9375,1168.1975 L50.8041,1165.9778 L48.7338,1163.8189 L46.2965,1161.3058 L44.0522,1158.979 L44.0758,1158.9982 L41.9445,1156.398 L39.9203,1153.8851 L37.8445,1151.3301 L35.8672,1148.8554 L33.5688,1146.1189 L33.8182,1146.2824 L32.0057,1143.5126 L30.0323,1140.6374 L28.2945,1137.9165 L26.5677,1135.2028 L24.491,1132.26 L24.2025,1132.1204 L23.3343,1129.4387 L21.5159,1126.2974 L20.4199,1123.5055 L18.58,1120.3537 L17.3498,1117.4969 L17.3207,1117.4882 L16.7307,1114.4772 L15.4595,1111.2617 L14.5903,1108.167 L13.7549,1105.0823 L12.6759,1101.9246 L12.8599,1101.9435 L12.339,1098.667 L12.1325,1095.4229 L11.4173,1092.1264 L11.4609,1088.908 L11,1085.6377 L11.7309,1085.6377 L11.5927,1075.6644 L11.8174,1065.691 L10.3559,1055.7177 L10.1304,1045.7444 L10.1715,1035.771 L10.9215,1025.7977 L10.738,1015.8244 L11.9085,1005.851 L10.7671,995.8777 L10.5426,985.9044 L11.3044,975.931 L10.1109,965.9577 L10.3078,955.9844 L11.8653,946.011 L11.5809,936.0377 L11.9793,926.0644 L10.5709,916.091 L11.4256,906.1177 L11.7872,896.1444 L10.3701,886.171 L10.8722,876.1977 L11.168,866.2244 L11.869,856.251 L10.9944,846.2777 L11.6168,836.3044 L10.2616,826.331 L10.097,816.3577 L11.6715,806.3844 L10.0441,796.411 L11.6786,786.4377 L11.2755,776.4644 L10.6428,766.491 L10.5283,756.5177 L11.6117,746.5444 L10.6009,736.571 L11.7891,726.5977 L10.263,716.6244 L11.8232,706.651 L11.6457,696.6777 L11.3266,686.7044 L11.063,676.731 L11.9688,666.7577 L11.8181,656.7844 L11.2257,646.811 L11.3576,636.8377 L10.8263,626.8644 L11.9553,616.891 L11.2065,606.9177 L11.2301,596.9444 L10.1889,586.971 L10.4597,576.9977 L11.7077,567.0244 L11.573,557.051 L10.9428,547.0777 L10.5704,537.1044 L10.7081,527.131 L10.0851,517.1577 L11.553,507.1844 L11.9861,497.211 L11.7019,487.2377 L11.9266,477.2644 L10.8177,467.291 L11.1163,457.3177 L10.4832,447.3444 L11.3787,437.371 L11.329,427.3977 L11.7365,417.4244 L10.6938,407.451 L10.8208,397.4777 L11.5913,387.5044 L11.7564,377.531 L10.3166,367.5577 L10.7415,357.5844 L11.199,347.611 L11,337.6377 L10.7302,337.6074 L11.5996,333.7084 L12.001,329.7569 L12.286,325.7922 L12.8369,321.8575 L13.2176,317.9036 L13.5219,318.0143 L14.3525,314.3774 L15.8803,310.9942 L17.1336,307.5111 L18.3282,304.0066 L19.5455,300.5104 L19.5979,300.5447 L21.5779,297.4984 L23.2938,294.2792 L25.3671,291.2939 L27.3347,288.2395 L29.4966,285.3122 L29.5167,285.3322 L32.1418,282.71 L34.7824,280.1033 L37.2572,277.3316 L39.945,274.7718 L42.5837,272.1632 L42.5527,272.1197 L45.88,270.1226 L48.9884,267.8191 L51.8999,265.2401 L55.1538,263.1402 L58.3198,260.9174 L58.193,260.6944 L60.125,260.0379 L61.9372,259.1706 L63.665,258.155 L65.1914,256.7854 L67.029,255.9627 L67.1202,256.1476 L68.7206,254.7599 L70.7438,254.229 L72.4833,253.1233 L74.3989,252.3744 L76.2177,251.4291 L76.2598,251.5273 L78.222,250.7957 L79.9342,249.4829 L82.0655,249.1448 L83.9348,248.1973 L85.825,247.2984 L85.8806,247.4463 L87.935,246.8603 L89.8119,245.8023 L91.8315,245.1237 L93.8305,244.3904 L95.7901,243.5524 L95.8175,243.6357 L97.8424,242.8762 L99.9937,242.5006 L101.8625,241.2673 L104.0783,241.0874 L106.0521,240.1728 L105.9751,239.9064 L108.085,239.3358 L110.2562,238.9774 L112.3543,238.3661 L114.3896,237.5373 L116.55,237.1414 L116.5951,237.3197 L118.6965,236.6481 L120.8985,236.374 L123.0266,235.808 L125.0395,234.7872 L127.223,234.44 L127.1848,234.2674 L129.368,233.906 L131.5721,233.6384 L133.7341,233.1811 L135.8817,232.659 L138.0102,232.0504 L137.9814,231.9011 L140.232,231.9088 L142.3999,231.4885 L144.5105,230.772 L146.6624,230.2691 L148.8507,229.9542 L148.8211,229.7783 L151.0015,229.496 L153.194,229.2861 L155.3454,228.8317 L157.4862,228.3144 L159.6836,228.1333 L159.7147,228.3477 L161.8071,227.6187 L164.0215,227.7287 L166.1695,227.3829 L168.3189,227.0458 L170.448,226.5695 L170.486,226.8749 L172.5615,226.196 L174.6855,225.9068 L176.8575,226.0033 L178.9232,225.2462 L181.083,225.2444 L181.0721,225.141 L183.1773,225.0746 L185.2641,224.833 L187.3331,224.4233 L189.4368,224.3419 L191.5277,224.14 L191.5569,224.4696 L193.5918,224.2466 L195.5818,223.5151 L197.6469,223.6335 L199.6624,223.1908 L201.7213,223.2379 L201.7205,223.2262 L205.6078,223.1138 L209.4894,222.916 L213.3359,222.181 L217.2449,222.3994 L221.1112,221.9678 L221.1114,221.9715 L224.6326,221.5852 L228.165,221.4868 L231.7095,221.7051 L235.2391,221.5351 L238.7658,221.2883 L238.7657,221.281 L241.8476,220.9426 L244.943,221.4868 L248.0229,221.0088 L251.1078,220.8658 L254.1978,221.0535 L254.1976,221.0236 L256.7435,221.3285 L259.288,221.3527 L261.8312,221.1076 L264.3752,221.0377 L266.92,221.1177 " fill="none" style="stroke:#191919;stroke-width:1.0;"/><polygon fill="#191919" points="272.27,221.2177,272.2995,221.2812,270.4257,220.2617,268.7251,219.6146,266.9681,218.8463,265.0256,217.6791,263.3399,217.064,263.3213,217.046,264.0238,217.7788,264.8203,218.6024,265.6821,219.489,266.3188,220.1583,267.2707,221.132,267.399,221.2647,266.3111,221.7671,265.5977,222.6569,264.93,223.594,263.9965,224.2561,263.2028,225.0628,263.2116,225.0838,265.0121,224.284,266.8529,223.5796,268.6742,222.8291,270.5328,222.1665,272.27,221.2177" style="stroke:#191919;stroke-width:1.0;"/><!--MD5=[dc94113a04d8177e84daa760cd065d72]
link FoundationComplete to *end--><path d="M846,1011.9277 L846.2802,1011.9277 L845.4476,1021.8424 L846.2577,1031.7572 L846.5329,1041.6719 L845.0488,1051.5866 L845.8964,1061.5014 L845.4313,1071.4161 L845.4887,1081.3309 L845.9091,1091.2456 L845.0782,1101.1603 L846.7382,1111.0751 L845.1596,1120.9898 L845.7363,1130.9045 L846.5759,1140.8193 L845.8856,1150.734 L846.091,1160.6487 L845.9574,1170.5635 L846.238,1180.4782 L846.3188,1190.393 L846,1200.3077 " fill="none" style="stroke:#008000;stroke-width:2.0;"/><polygon fill="#008000" points="846,1205.4177,846.064,1205.4461,846.6738,1203.5616,847.6589,1201.8439,848.5217,1200.0718,848.9827,1198.1211,850,1196.4177,849.9817,1196.3994,849.0995,1197.1172,848.3096,1197.9273,847.5839,1198.8016,846.637,1199.4547,846,1200.4177,846.1305,1200.5482,845.0514,1199.4691,844.3534,1198.7711,843.7018,1198.1195,842.7798,1197.1975,842,1196.4177,842.0208,1196.4269,842.7903,1198.2134,843.6544,1200.0419,844.4728,1201.8501,845.3784,1203.697,846,1205.4177" style="stroke:#008000;stroke-width:2.0;"/><text fill="#000000" font-family="sans-serif" font-size="13" lengthAdjust="spacing" textLength="77" x="847" y="1090.1328">win the game</text><!--MD5=[92085c66b2dd092d20a77a934ab00610]
@startuml klondike- -instructions

skinparam handwritten true
skinparam nodesep 60
' skinparam ranksep 70
!theme mars

title Klondike Instructions \n

state GamePrepared
state _CheckPossibleMovement <<choice>>
state _CheckMoveToFoundation <<choice>>
state _CheckMoveToTableau <<choice>>
state _CheckRaiseInTableau <<choice>>
state _CheckRaiseCardFromStock <<choice>>
state _CheckFoundationComplete <<choice>>
state _DoRaiseCardFromStock <<choice>>
state CardMovedToFoundation
state CardMovedToTableau
state CardMovedToWaste
state CardRaisedInTableau
state StockRecovered
state FoundationComplete


[*]                         -r-> GamePrepared : shuffle deck \n / put cards to tableaus \n / put rest to stock pile
GamePrepared                - -> _CheckPossibleMovement : start game
_CheckPossibleMovement      -[#green,bold]-> _CheckMoveToFoundation : check movement \n to foundation
_CheckMoveToFoundation      - -> CardMovedToFoundation : [ if card can be \n moved to foundation ] \n / move card
CardMovedToFoundation       - -> _CheckFoundationComplete : check if \n foundation is \n complete
_CheckFoundationComplete    - - -> FoundationComplete : [ if foundation \n is complete ]
_CheckFoundationComplete    - -> _CheckPossibleMovement : [ else ]
_CheckMoveToFoundation      - -> _CheckMoveToTableau : [ else ] \n / check movement \n to tableau
_CheckMoveToTableau         - -> CardMovedToTableau : [ if card can be \n moved to tableau ] \n / move card
CardMovedToTableau          - -> _CheckRaiseInTableau : check if \n card can be \n raised in tableau
_CheckRaiseInTableau        - -> CardRaisedInTableau : [ if card can be \n raised in tableau ] \n / raise card
_CheckRaiseInTableau        - -> _CheckPossibleMovement : [ else ]
CardRaisedInTableau         - -> _CheckPossibleMovement
_CheckMoveToTableau         - - -> _CheckRaiseCardFromStock : [ else ] \n / check if \n card can be \n raised from \n stock
_CheckRaiseCardFromStock    -r-> _DoRaiseCardFromStock : [ if card can be \n raised from stock ]
_CheckRaiseCardFromStock    - -> StockRecovered : [ else ] \n / recover stock
StockRecovered              - -> _DoRaiseCardFromStock
_DoRaiseCardFromStock       - -> CardMovedToWaste : raise card \n / move card to waste
CardMovedToWaste            - -> _CheckPossibleMovement
FoundationComplete          -[#green,bold]- -> [*] : win the game


@enduml

@startuml klondike- -instructions

skinparam handwritten true
skinparam nodesep 60
skinparam BackgroundColor F9F9F9
skinparam shadowing false
skinparam RoundCorner 7
skinparam ArrowColor 191919
skinparam FontColor 191919
skinparam SequenceLifeLineBorderColor 393939
skinparam SequenceGroupHeaderFontColor 191919
skinparam SequenceGroupFontColor 393939
skinparam SequenceGroupBorderColor 393939
skinparam SequenceGroupBorderThickness 1

skinparam sequenceDivider {
    BorderColor 191919
    BorderThickness 1
    FontColor 191919
}

skinparam participant {
    BackgroundColor E55756
    BorderColor 191919
    FontColor F9F9F9
    BorderThickness 1.5
}

skinparam database {
    BackgroundColor A4DBD8
    BorderColor 191919
    FontColor 191919
}

skinparam entity {
    BackgroundColor EFBABC
    BorderColor 191919
    FontColor 191919
}

skinparam note {
    BackgroundColor e5e5e5
    BorderColor 191919
    FontColor 191919
    BorderThickness 1.5
}

skinparam actor {
    BackgroundColor 191919
    BorderColor 191919
    FontColor 191919
}

skinparam boundary {
    BackgroundColor EFBABC
    BorderColor 191919
    FontColor 191919
}

skinparam control {
    BackgroundColor EFBABC
    BorderColor 191919
    FontColor 191919
}

skinparam collections {
    BackgroundColor E55756
    BorderColor 191919
    FontColor 191919
    BorderThickness 1.5
}

skinparam queue {
    BackgroundColor E55756
    BorderColor 191919
    FontColor FFF
    BorderThickness 1.5
}

title Klondike Instructions \n

state GamePrepared
state _CheckPossibleMovement <<choice>>
state _CheckMoveToFoundation <<choice>>
state _CheckMoveToTableau <<choice>>
state _CheckRaiseInTableau <<choice>>
state _CheckRaiseCardFromStock <<choice>>
state _CheckFoundationComplete <<choice>>
state _DoRaiseCardFromStock <<choice>>
state CardMovedToFoundation
state CardMovedToTableau
state CardMovedToWaste
state CardRaisedInTableau
state StockRecovered
state FoundationComplete


[*]                         -r-> GamePrepared : shuffle deck \n / put cards to tableaus \n / put rest to stock pile
GamePrepared                - -> _CheckPossibleMovement : start game
_CheckPossibleMovement      -[#green,bold]-> _CheckMoveToFoundation : check movement \n to foundation
_CheckMoveToFoundation      - -> CardMovedToFoundation : [ if card can be \n moved to foundation ] \n / move card
CardMovedToFoundation       - -> _CheckFoundationComplete : check if \n foundation is \n complete
_CheckFoundationComplete    - - -> FoundationComplete : [ if foundation \n is complete ]
_CheckFoundationComplete    - -> _CheckPossibleMovement : [ else ]
_CheckMoveToFoundation      - -> _CheckMoveToTableau : [ else ] \n / check movement \n to tableau
_CheckMoveToTableau         - -> CardMovedToTableau : [ if card can be \n moved to tableau ] \n / move card
CardMovedToTableau          - -> _CheckRaiseInTableau : check if \n card can be \n raised in tableau
_CheckRaiseInTableau        - -> CardRaisedInTableau : [ if card can be \n raised in tableau ] \n / raise card
_CheckRaiseInTableau        - -> _CheckPossibleMovement : [ else ]
CardRaisedInTableau         - -> _CheckPossibleMovement
_CheckMoveToTableau         - - -> _CheckRaiseCardFromStock : [ else ] \n / check if \n card can be \n raised from \n stock
_CheckRaiseCardFromStock    -r-> _DoRaiseCardFromStock : [ if card can be \n raised from stock ]
_CheckRaiseCardFromStock    - -> StockRecovered : [ else ] \n / recover stock
StockRecovered              - -> _DoRaiseCardFromStock
_DoRaiseCardFromStock       - -> CardMovedToWaste : raise card \n / move card to waste
CardMovedToWaste            - -> _CheckPossibleMovement
FoundationComplete          -[#green,bold]- -> [*] : win the game


@enduml

PlantUML version 1.2022.0(Tue Jan 11 17:16:42 CET 2022)
(GPL source distribution)
Java Runtime: Java(TM) SE Runtime Environment
JVM: Java HotSpot(TM) 64-Bit Server VM
Default Encoding: Cp1252
Language: es
Country: ES
--></g></svg>