<?xml version="1.0" encoding="UTF-8" standalone="no"?><svg xmlns="http://www.w3.org/2000/svg" xmlns:xlink="http://www.w3.org/1999/xlink" contentScriptType="application/ecmascript" contentStyleType="text/css" height="836px" preserveAspectRatio="none" style="width:408px;height:836px;background:#F9F9F9;" version="1.1" viewBox="0 0 408 836" width="408px" zoomAndPan="magnify"><defs/><g><text fill="#000000" font-family="sans-serif" font-size="18" lengthAdjust="spacing" textLength="173" x="108.555" y="18.6855">Connect4 Instructions</text><text fill="#000000" font-family="sans-serif" font-size="18" lengthAdjust="spacing" textLength="0" x="200.055" y="41.3262"/><polygon fill="#FEFECE" points="214.11,132.2813,226.11,144.2813,214.11,156.2813,202.11,144.2813,214.11,132.2813" style="stroke:#A80036;stroke-width:1.5;"/><g id="InsertA"><rect fill="#FEFECE" height="50" rx="12.5" ry="12.5" style="stroke:#A80036;stroke-width:1.5;" width="50" x="142.11" y="250.2813"/><line style="stroke:#A80036;stroke-width:1.5;" x1="142.11" x2="192.11" y1="277.8906" y2="277.8906"/><text fill="#000000" font-family="sans-serif" font-size="14" lengthAdjust="spacing" textLength="0" x="169.11" y="269.8145"/></g><g id="InsertB"><rect fill="#FEFECE" height="50" rx="12.5" ry="12.5" style="stroke:#A80036;stroke-width:1.5;" width="50" x="189.11" y="394.2813"/><line style="stroke:#A80036;stroke-width:1.5;" x1="189.11" x2="239.11" y1="421.8906" y2="421.8906"/><text fill="#000000" font-family="sans-serif" font-size="14" lengthAdjust="spacing" textLength="0" x="216.11" y="413.8145"/></g><g id="InsertA2"><rect fill="#FEFECE" height="50" rx="12.5" ry="12.5" style="stroke:#A80036;stroke-width:1.5;" width="50" x="189.11" y="538.2813"/><line style="stroke:#A80036;stroke-width:1.5;" x1="189.11" x2="239.11" y1="565.8906" y2="565.8906"/><text fill="#000000" font-family="sans-serif" font-size="14" lengthAdjust="spacing" textLength="0" x="216.11" y="557.8145"/></g><g id="InsertB2"><rect fill="#FEFECE" height="50" rx="12.5" ry="12.5" style="stroke:#A80036;stroke-width:1.5;" width="50" x="103.11" y="682.2813"/><line style="stroke:#A80036;stroke-width:1.5;" x1="103.11" x2="153.11" y1="709.8906" y2="709.8906"/><text fill="#000000" font-family="sans-serif" font-size="14" lengthAdjust="spacing" textLength="0" x="130.11" y="701.8145"/></g><ellipse cx="214.11" cy="61.2813" fill="#000000" rx="10" ry="10" style="stroke:none;stroke-width:1.0;"/><ellipse cx="202.11" cy="820.2813" rx="10" ry="10" style="stroke:#000000;stroke-width:1.0;fill:none;"/><ellipse cx="202.61" cy="820.7813" fill="#000000" rx="6" ry="6" style="stroke:none;stroke-width:1.0;"/><!--MD5=[ba0fdac9700f9825b754e67fda8ee1b2]
link *start to A--><path d="M214.11,71.5712 C214.11,85.0113 214.11,110.0912 214.11,126.7313 " fill="none" id="*start-to-A" style="stroke:#191919;stroke-width:1.0;"/><polygon fill="#191919" points="214.11,132.0313,218.11,123.0313,214.11,127.0313,210.11,123.0313,214.11,132.0313" style="stroke:#191919;stroke-width:1.0;"/><!--MD5=[bd149e26121f29a912c721eb4cb6aacc]
link A to InsertA--><path d="M209.73,152.3112 C204.9,160.3012 197.15,173.8513 192.11,186.2813 C184.44,205.2313 178.17,227.3613 173.82,244.6912 " fill="none" id="A-to-InsertA" style="stroke:#191919;stroke-width:1.0;"/><polygon fill="#191919" points="172.54,249.9113,178.5819,242.1333,173.7392,245.0572,170.8154,240.2146,172.54,249.9113" style="stroke:#191919;stroke-width:1.0;"/><text fill="#000000" font-family="sans-serif" font-size="13" lengthAdjust="spacing" textLength="38" x="193.11" y="200.7764">Yellow</text><text fill="#000000" font-family="sans-serif" font-size="13" lengthAdjust="spacing" textLength="32" x="200.11" y="217.1279">insert</text><!--MD5=[a2c564ad89747bee6408ba42c8c32961]
link InsertA to InsertB--><path d="M175.09,300.3713 C183.22,324.9513 195.85,363.1113 204.53,389.3213 " fill="none" id="InsertA-to-InsertB" style="stroke:#191919;stroke-width:1.0;"/><polygon fill="#191919" points="206.1,394.0713,207.0664,384.2699,204.5274,389.325,199.4724,386.786,206.1,394.0713" style="stroke:#191919;stroke-width:1.0;"/><text fill="#000000" font-family="sans-serif" font-size="13" lengthAdjust="spacing" textLength="23" x="202.61" y="344.7764">Red</text><text fill="#000000" font-family="sans-serif" font-size="13" lengthAdjust="spacing" textLength="32" x="202.11" y="361.1279">insert</text><!--MD5=[b98f8180bd221d5fa47b6a630d089b2b]
link InsertB to A--><path d="M228.59,394.1313 C233.24,385.0913 237.78,374.5313 240.11,364.2813 C257.71,287.1513 262.17,262.2513 240.11,186.2813 C236.7,174.5313 228.8,162.9312 222.6,155.0812 " fill="none" id="InsertB-to-A" style="stroke:#191919;stroke-width:1.0;"/><polygon fill="#191919" points="219.37,151.1313,221.979,160.6282,222.5385,154.9991,228.1676,155.5586,219.37,151.1313" style="stroke:#191919;stroke-width:1.0;"/><text fill="#000000" font-family="sans-serif" font-size="13" lengthAdjust="spacing" textLength="140" x="255.11" y="280.7764">[ insertedCheckers &lt; 6 ]</text><!--MD5=[0cd0108289ea854f0fca0546cdfbdc89]
link InsertB to InsertA2--><path d="M214.11,444.3713 C214.11,468.8513 214.11,506.8013 214.11,533.0013 " fill="none" id="InsertB-to-InsertA2" style="stroke:#191919;stroke-width:1.0;"/><polygon fill="#191919" points="214.11,538.0713,218.11,529.0713,214.11,533.0713,210.11,529.0713,214.11,538.0713" style="stroke:#191919;stroke-width:1.0;"/><text fill="#000000" font-family="sans-serif" font-size="13" lengthAdjust="spacing" textLength="38" x="215.11" y="488.7764">Yellow</text><text fill="#000000" font-family="sans-serif" font-size="13" lengthAdjust="spacing" textLength="32" x="222.11" y="505.1279">insert</text><!--MD5=[d420d0c1ae61a5c058b93710b3d68eed]
link InsertA2 to *end--><path d="M220.5,588.4913 C230.1,629.0513 245.19,712.8813 226.11,780.2813 C223.24,790.4213 216.92,800.5113 211.48,807.8813 " fill="none" id="InsertA2-to-*end" style="stroke:#191919;stroke-width:1.0;"/><polygon fill="#191919" points="208.25,812.1013,216.8989,807.3899,211.291,808.1323,210.5486,802.5244,208.25,812.1013" style="stroke:#191919;stroke-width:1.0;"/><text fill="#000000" font-family="sans-serif" font-size="13" lengthAdjust="spacing" textLength="67" x="236.11" y="712.7764">[ is4InLine ]</text><!--MD5=[d420d0c1ae61a5c058b93710b3d68eed]
link InsertA2 to *end--><path d="M239.34,583.3613 C276.5,613.9313 338.8,676.1713 312.11,732.2813 C292.11,774.3313 240.6,802.1113 215.83,813.4713 " fill="none" id="InsertA2-to-*end-1" style="stroke:#191919;stroke-width:1.0;"/><polygon fill="#191919" points="211.25,815.5213,221.0988,815.4898,215.8125,813.476,217.8264,808.1897,211.25,815.5213" style="stroke:#191919;stroke-width:1.0;"/><text fill="#000000" font-family="sans-serif" font-size="13" lengthAdjust="spacing" textLength="81" x="319.11" y="712.7764">[ isTiedGame]</text><!--MD5=[f55d2486e6172efac0a73b825eb01b11]
link InsertA2 to InsertB2--><path d="M188.96,568.2213 C161.72,573.9813 119.55,587.5613 100.11,618.2813 C88.65,636.3913 96.8,659.5813 107.19,677.6113 " fill="none" id="InsertA2-to-InsertB2" style="stroke:#191919;stroke-width:1.0;"/><polygon fill="#191919" points="109.88,682.0713,108.6795,672.2958,107.3075,677.7838,101.8196,676.4118,109.88,682.0713" style="stroke:#191919;stroke-width:1.0;"/><text fill="#000000" font-family="sans-serif" font-size="13" lengthAdjust="spacing" textLength="23" x="105.61" y="632.7764">Red</text><text fill="#000000" font-family="sans-serif" font-size="13" lengthAdjust="spacing" textLength="32" x="105.11" y="649.1279">insert</text><!--MD5=[6b7aaaf4b93cfcf5f74274e2f47a4477]
link InsertB2 to InsertA2--><path d="M141.24,682.1113 C151.07,664.2713 165.02,639.5213 178.11,618.2813 C183.25,609.9413 189.05,601.0413 194.47,592.9213 " fill="none" id="InsertB2-to-InsertA2" style="stroke:#191919;stroke-width:1.0;"/><polygon fill="#191919" points="197.43,588.5013,189.097,593.7511,194.6466,592.6549,195.7428,598.2045,197.43,588.5013" style="stroke:#191919;stroke-width:1.0;"/><text fill="#000000" font-family="sans-serif" font-size="13" lengthAdjust="spacing" textLength="38" x="179.11" y="632.7764">Yellow</text><text fill="#000000" font-family="sans-serif" font-size="13" lengthAdjust="spacing" textLength="32" x="186.11" y="649.1279">insert</text><!--MD5=[fbf9e7d0e409c165c134260c27bd6ea4]
link InsertB2 to *end--><path d="M102.87,715.1413 C66.44,726.2713 6,750.0913 30.11,780.2813 C49.69,804.7913 148.14,815.0513 186.64,818.1713 " fill="none" id="InsertB2-to-*end" style="stroke:#191919;stroke-width:1.0;"/><polygon fill="#191919" points="191.87,818.5813,183.2053,813.899,186.8849,818.1956,182.5883,821.8751,191.87,818.5813" style="stroke:#191919;stroke-width:1.0;"/><text fill="#000000" font-family="sans-serif" font-size="13" lengthAdjust="spacing" textLength="81" x="31.11" y="776.7764">[ isTiedGame]</text><!--MD5=[fbf9e7d0e409c165c134260c27bd6ea4]
link InsertB2 to *end--><path d="M132.92,732.5613 C136.69,747.3313 143.02,766.0313 153.11,780.2813 C162.68,793.7913 178.2,805.0213 189.21,811.9113 " fill="none" id="InsertB2-to-*end-1" style="stroke:#191919;stroke-width:1.0;"/><polygon fill="#191919" points="193.62,814.5913,187.9922,806.5087,189.3427,812.002,183.8494,813.3524,193.62,814.5913" style="stroke:#191919;stroke-width:1.0;"/><text fill="#000000" font-family="sans-serif" font-size="13" lengthAdjust="spacing" textLength="67" x="154.11" y="776.7764">[ is4InLine ]</text><!--MD5=[b0b5b2cc460a1d406ce11f6b9b654690]
@startuml connect4- -instructions

!theme mars
title Connect4 Instructions \n

state A <<choice>>
state InsertA as " "
state InsertB as " "
state InsertA2 as " "
state InsertB2 as " "

[*]      - -> A 
A        - -> InsertA : Yellow \n insert
InsertA  - -> InsertB : Red \n insert
InsertB  - -> A : [ insertedCheckers < 6 ]
InsertB  - -> InsertA2 : Yellow \n insert

InsertA2 - -> [*] : [ is4InLine ]
InsertA2 - -> [*] : [ isTiedGame]
InsertA2 - -> InsertB2 : Red \n insert

InsertB2 - -> InsertA2 : Yellow \n insert
InsertB2 - -> [*] : [ isTiedGame]
InsertB2 - -> [*] : [ is4InLine ]

@enduml

@startuml connect4- -instructions

skinparam BackgroundColor F9F9F9
skinparam shadowing false
skinparam RoundCorner 7
skinparam ArrowColor 191919
skinparam FontColor 191919
skinparam SequenceLifeLineBorderColor 393939
skinparam SequenceGroupHeaderFontColor 191919
skinparam SequenceGroupFontColor 393939
skinparam SequenceGroupBorderColor 393939
skinparam SequenceGroupBorderThickness 1

skinparam sequenceDivider {
    BorderColor 191919
    BorderThickness 1
    FontColor 191919
}

skinparam participant {
    BackgroundColor E55756
    BorderColor 191919
    FontColor F9F9F9
    BorderThickness 1.5
}

skinparam database {
    BackgroundColor A4DBD8
    BorderColor 191919
    FontColor 191919
}

skinparam entity {
    BackgroundColor EFBABC
    BorderColor 191919
    FontColor 191919
}

skinparam note {
    BackgroundColor e5e5e5
    BorderColor 191919
    FontColor 191919
    BorderThickness 1.5
}

skinparam actor {
    BackgroundColor 191919
    BorderColor 191919
    FontColor 191919
}

skinparam boundary {
    BackgroundColor EFBABC
    BorderColor 191919
    FontColor 191919
}

skinparam control {
    BackgroundColor EFBABC
    BorderColor 191919
    FontColor 191919
}

skinparam collections {
    BackgroundColor E55756
    BorderColor 191919
    FontColor 191919
    BorderThickness 1.5
}

skinparam queue {
    BackgroundColor E55756
    BorderColor 191919
    FontColor FFF
    BorderThickness 1.5
}
title Connect4 Instructions \n

state A <<choice>>
state InsertA as " "
state InsertB as " "
state InsertA2 as " "
state InsertB2 as " "

[*]      - -> A 
A        - -> InsertA : Yellow \n insert
InsertA  - -> InsertB : Red \n insert
InsertB  - -> A : [ insertedCheckers < 6 ]
InsertB  - -> InsertA2 : Yellow \n insert

InsertA2 - -> [*] : [ is4InLine ]
InsertA2 - -> [*] : [ isTiedGame]
InsertA2 - -> InsertB2 : Red \n insert

InsertB2 - -> InsertA2 : Yellow \n insert
InsertB2 - -> [*] : [ isTiedGame]
InsertB2 - -> [*] : [ is4InLine ]

@enduml

PlantUML version 1.2022.0(Tue Jan 11 17:16:42 CET 2022)
(GPL source distribution)
Java Runtime: Java(TM) SE Runtime Environment
JVM: Java HotSpot(TM) 64-Bit Server VM
Default Encoding: Cp1252
Language: es
Country: ES
--></g></svg>