<?xml version="1.0" encoding="UTF-8" standalone="no"?><svg xmlns="http://www.w3.org/2000/svg" xmlns:xlink="http://www.w3.org/1999/xlink" contentScriptType="application/ecmascript" contentStyleType="text/css" height="631px" preserveAspectRatio="none" style="width:631px;height:631px;background:#FFFFFF;" version="1.1" viewBox="0 0 631 631" width="631px" zoomAndPan="magnify"><defs><filter height="300%" id="fhdjvj8cm1kxz" width="300%" x="-1" y="-1"><feGaussianBlur result="blurOut" stdDeviation="2.0"/><feColorMatrix in="blurOut" result="blurOut2" type="matrix" values="0 0 0 0 0 0 0 0 0 0 0 0 0 0 0 0 0 0 .4 0"/><feOffset dx="4.0" dy="4.0" in="blurOut2" result="blurOut3"/><feBlend in="SourceGraphic" in2="blurOut3" mode="normal"/></filter></defs><g><text fill="#000000" font-family="sans-serif" font-size="18" lengthAdjust="spacing" textLength="171" x="223.75" y="18.6855">Connect4 Vocabulary</text><!--MD5=[a5c23ef5e8a0c3e2850ca8bb9f629b53]
class Connect4Game--><rect codeLine="5" fill="#FEFECE" filter="url(#fhdjvj8cm1kxz)" height="48" id="Connect4Game" style="stroke:#A80036;stroke-width:1.5;" width="119" x="434.5" y="29.6406"/><ellipse cx="449.5" cy="45.6406" fill="#ADD1B2" rx="11" ry="11" style="stroke:#A80036;stroke-width:1.0;"/><path d="M452.2656,41.5156 Q452.4219,41.2969 452.6094,41.1875 Q452.7969,41.0781 453.0156,41.0781 Q453.3906,41.0781 453.625,41.3359 Q453.8594,41.5938 453.8594,42.2031 L453.8594,43.6563 Q453.8594,44.2656 453.625,44.5313 Q453.3906,44.7969 453.0156,44.7969 Q452.6719,44.7969 452.4688,44.5938 Q452.2656,44.4063 452.1563,43.8906 Q452.1094,43.5313 451.9219,43.3438 Q451.5938,42.9688 450.9844,42.75 Q450.375,42.5313 449.75,42.5313 Q448.9844,42.5313 448.3516,42.8594 Q447.7188,43.1875 447.2266,43.9375 Q446.7344,44.6875 446.7344,45.7188 L446.7344,46.8125 Q446.7344,48.0469 447.625,48.8672 Q448.5156,49.6875 450.1094,49.6875 Q451.0469,49.6875 451.7031,49.4375 Q452.0938,49.2813 452.5156,48.8438 Q452.7813,48.5781 452.9297,48.5 Q453.0781,48.4219 453.2813,48.4219 Q453.6094,48.4219 453.8672,48.6797 Q454.125,48.9375 454.125,49.2813 Q454.125,49.625 453.7813,50.0313 Q453.2813,50.6094 452.4844,50.9375 Q451.4063,51.3906 450.1094,51.3906 Q448.5938,51.3906 447.3906,50.7656 Q446.4063,50.2656 445.7188,49.1953 Q445.0313,48.125 445.0313,46.8438 L445.0313,45.6875 Q445.0313,44.3594 445.6484,43.2109 Q446.2656,42.0625 447.3594,41.4453 Q448.4531,40.8281 449.6875,40.8281 Q450.4219,40.8281 451.0703,40.9922 Q451.7188,41.1563 452.2656,41.5156 Z " fill="#000000"/><text fill="#000000" font-family="sans-serif" font-size="12" lengthAdjust="spacing" textLength="87" x="463.5" y="50.5508">Connect4Game</text><line style="stroke:#A80036;stroke-width:1.5;" x1="435.5" x2="552.5" y1="61.6406" y2="61.6406"/><line style="stroke:#A80036;stroke-width:1.5;" x1="435.5" x2="552.5" y1="69.6406" y2="69.6406"/><!--MD5=[2cb47ba637a0d19583e6199456f6ad0b]
class Player--><rect codeLine="6" fill="#FEFECE" filter="url(#fhdjvj8cm1kxz)" height="48" id="Player" style="stroke:#A80036;stroke-width:1.5;" width="66" x="342" y="137.6406"/><ellipse cx="357" cy="153.6406" fill="#ADD1B2" rx="11" ry="11" style="stroke:#A80036;stroke-width:1.0;"/><path d="M359.7656,149.5156 Q359.9219,149.2969 360.1094,149.1875 Q360.2969,149.0781 360.5156,149.0781 Q360.8906,149.0781 361.125,149.3359 Q361.3594,149.5938 361.3594,150.2031 L361.3594,151.6563 Q361.3594,152.2656 361.125,152.5313 Q360.8906,152.7969 360.5156,152.7969 Q360.1719,152.7969 359.9688,152.5938 Q359.7656,152.4063 359.6563,151.8906 Q359.6094,151.5313 359.4219,151.3438 Q359.0938,150.9688 358.4844,150.75 Q357.875,150.5313 357.25,150.5313 Q356.4844,150.5313 355.8516,150.8594 Q355.2188,151.1875 354.7266,151.9375 Q354.2344,152.6875 354.2344,153.7188 L354.2344,154.8125 Q354.2344,156.0469 355.125,156.8672 Q356.0156,157.6875 357.6094,157.6875 Q358.5469,157.6875 359.2031,157.4375 Q359.5938,157.2813 360.0156,156.8438 Q360.2813,156.5781 360.4297,156.5 Q360.5781,156.4219 360.7813,156.4219 Q361.1094,156.4219 361.3672,156.6797 Q361.625,156.9375 361.625,157.2813 Q361.625,157.625 361.2813,158.0313 Q360.7813,158.6094 359.9844,158.9375 Q358.9063,159.3906 357.6094,159.3906 Q356.0938,159.3906 354.8906,158.7656 Q353.9063,158.2656 353.2188,157.1953 Q352.5313,156.125 352.5313,154.8438 L352.5313,153.6875 Q352.5313,152.3594 353.1484,151.2109 Q353.7656,150.0625 354.8594,149.4453 Q355.9531,148.8281 357.1875,148.8281 Q357.9219,148.8281 358.5703,148.9922 Q359.2188,149.1563 359.7656,149.5156 Z " fill="#000000"/><text fill="#000000" font-family="sans-serif" font-size="12" lengthAdjust="spacing" textLength="34" x="371" y="158.5508">Player</text><line style="stroke:#A80036;stroke-width:1.5;" x1="343" x2="407" y1="169.6406" y2="169.6406"/><line style="stroke:#A80036;stroke-width:1.5;" x1="343" x2="407" y1="177.6406" y2="177.6406"/><!--MD5=[9563755d011c5cec7ec66dc53565a59e]
class Board--><rect codeLine="7" fill="#FEFECE" filter="url(#fhdjvj8cm1kxz)" height="48" id="Board" style="stroke:#A80036;stroke-width:1.5;" width="65" x="547.5" y="137.6406"/><ellipse cx="562.5" cy="153.6406" fill="#ADD1B2" rx="11" ry="11" style="stroke:#A80036;stroke-width:1.0;"/><path d="M565.2656,149.5156 Q565.4219,149.2969 565.6094,149.1875 Q565.7969,149.0781 566.0156,149.0781 Q566.3906,149.0781 566.625,149.3359 Q566.8594,149.5938 566.8594,150.2031 L566.8594,151.6563 Q566.8594,152.2656 566.625,152.5313 Q566.3906,152.7969 566.0156,152.7969 Q565.6719,152.7969 565.4688,152.5938 Q565.2656,152.4063 565.1563,151.8906 Q565.1094,151.5313 564.9219,151.3438 Q564.5938,150.9688 563.9844,150.75 Q563.375,150.5313 562.75,150.5313 Q561.9844,150.5313 561.3516,150.8594 Q560.7188,151.1875 560.2266,151.9375 Q559.7344,152.6875 559.7344,153.7188 L559.7344,154.8125 Q559.7344,156.0469 560.625,156.8672 Q561.5156,157.6875 563.1094,157.6875 Q564.0469,157.6875 564.7031,157.4375 Q565.0938,157.2813 565.5156,156.8438 Q565.7813,156.5781 565.9297,156.5 Q566.0781,156.4219 566.2813,156.4219 Q566.6094,156.4219 566.8672,156.6797 Q567.125,156.9375 567.125,157.2813 Q567.125,157.625 566.7813,158.0313 Q566.2813,158.6094 565.4844,158.9375 Q564.4063,159.3906 563.1094,159.3906 Q561.5938,159.3906 560.3906,158.7656 Q559.4063,158.2656 558.7188,157.1953 Q558.0313,156.125 558.0313,154.8438 L558.0313,153.6875 Q558.0313,152.3594 558.6484,151.2109 Q559.2656,150.0625 560.3594,149.4453 Q561.4531,148.8281 562.6875,148.8281 Q563.4219,148.8281 564.0703,148.9922 Q564.7188,149.1563 565.2656,149.5156 Z " fill="#000000"/><text fill="#000000" font-family="sans-serif" font-size="12" lengthAdjust="spacing" textLength="33" x="576.5" y="158.5508">Board</text><line style="stroke:#A80036;stroke-width:1.5;" x1="548.5" x2="611.5" y1="169.6406" y2="169.6406"/><line style="stroke:#A80036;stroke-width:1.5;" x1="548.5" x2="611.5" y1="177.6406" y2="177.6406"/><!--MD5=[fea3dc74c7473bae0133d22265a91e2f]
class Cell--><rect codeLine="8" fill="#FEFECE" filter="url(#fhdjvj8cm1kxz)" height="48" id="Cell" style="stroke:#A80036;stroke-width:1.5;" width="54" x="550" y="245.6406"/><ellipse cx="565" cy="261.6406" fill="#ADD1B2" rx="11" ry="11" style="stroke:#A80036;stroke-width:1.0;"/><path d="M567.7656,257.5156 Q567.9219,257.2969 568.1094,257.1875 Q568.2969,257.0781 568.5156,257.0781 Q568.8906,257.0781 569.125,257.3359 Q569.3594,257.5938 569.3594,258.2031 L569.3594,259.6563 Q569.3594,260.2656 569.125,260.5313 Q568.8906,260.7969 568.5156,260.7969 Q568.1719,260.7969 567.9688,260.5938 Q567.7656,260.4063 567.6563,259.8906 Q567.6094,259.5313 567.4219,259.3438 Q567.0938,258.9688 566.4844,258.75 Q565.875,258.5313 565.25,258.5313 Q564.4844,258.5313 563.8516,258.8594 Q563.2188,259.1875 562.7266,259.9375 Q562.2344,260.6875 562.2344,261.7188 L562.2344,262.8125 Q562.2344,264.0469 563.125,264.8672 Q564.0156,265.6875 565.6094,265.6875 Q566.5469,265.6875 567.2031,265.4375 Q567.5938,265.2813 568.0156,264.8438 Q568.2813,264.5781 568.4297,264.5 Q568.5781,264.4219 568.7813,264.4219 Q569.1094,264.4219 569.3672,264.6797 Q569.625,264.9375 569.625,265.2813 Q569.625,265.625 569.2813,266.0313 Q568.7813,266.6094 567.9844,266.9375 Q566.9063,267.3906 565.6094,267.3906 Q564.0938,267.3906 562.8906,266.7656 Q561.9063,266.2656 561.2188,265.1953 Q560.5313,264.125 560.5313,262.8438 L560.5313,261.6875 Q560.5313,260.3594 561.1484,259.2109 Q561.7656,258.0625 562.8594,257.4453 Q563.9531,256.8281 565.1875,256.8281 Q565.9219,256.8281 566.5703,256.9922 Q567.2188,257.1563 567.7656,257.5156 Z " fill="#000000"/><text fill="#000000" font-family="sans-serif" font-size="12" lengthAdjust="spacing" textLength="22" x="579" y="266.5508">Cell</text><line style="stroke:#A80036;stroke-width:1.5;" x1="551" x2="603" y1="277.6406" y2="277.6406"/><line style="stroke:#A80036;stroke-width:1.5;" x1="551" x2="603" y1="285.6406" y2="285.6406"/><!--MD5=[7aa1f1dff9826083057fe155c5dd6e52]
class Checker--><rect codeLine="9" fill="#FEFECE" filter="url(#fhdjvj8cm1kxz)" height="48" id="Checker" style="stroke:#A80036;stroke-width:1.5;" width="78" x="454" y="461.6406"/><ellipse cx="469" cy="477.6406" fill="#ADD1B2" rx="11" ry="11" style="stroke:#A80036;stroke-width:1.0;"/><path d="M471.7656,473.5156 Q471.9219,473.2969 472.1094,473.1875 Q472.2969,473.0781 472.5156,473.0781 Q472.8906,473.0781 473.125,473.3359 Q473.3594,473.5938 473.3594,474.2031 L473.3594,475.6563 Q473.3594,476.2656 473.125,476.5313 Q472.8906,476.7969 472.5156,476.7969 Q472.1719,476.7969 471.9688,476.5938 Q471.7656,476.4063 471.6563,475.8906 Q471.6094,475.5313 471.4219,475.3438 Q471.0938,474.9688 470.4844,474.75 Q469.875,474.5313 469.25,474.5313 Q468.4844,474.5313 467.8516,474.8594 Q467.2188,475.1875 466.7266,475.9375 Q466.2344,476.6875 466.2344,477.7188 L466.2344,478.8125 Q466.2344,480.0469 467.125,480.8672 Q468.0156,481.6875 469.6094,481.6875 Q470.5469,481.6875 471.2031,481.4375 Q471.5938,481.2813 472.0156,480.8438 Q472.2813,480.5781 472.4297,480.5 Q472.5781,480.4219 472.7813,480.4219 Q473.1094,480.4219 473.3672,480.6797 Q473.625,480.9375 473.625,481.2813 Q473.625,481.625 473.2813,482.0313 Q472.7813,482.6094 471.9844,482.9375 Q470.9063,483.3906 469.6094,483.3906 Q468.0938,483.3906 466.8906,482.7656 Q465.9063,482.2656 465.2188,481.1953 Q464.5313,480.125 464.5313,478.8438 L464.5313,477.6875 Q464.5313,476.3594 465.1484,475.2109 Q465.7656,474.0625 466.8594,473.4453 Q467.9531,472.8281 469.1875,472.8281 Q469.9219,472.8281 470.5703,472.9922 Q471.2188,473.1563 471.7656,473.5156 Z " fill="#000000"/><text fill="#000000" font-family="sans-serif" font-size="12" lengthAdjust="spacing" textLength="46" x="483" y="482.5508">Checker</text><line style="stroke:#A80036;stroke-width:1.5;" x1="455" x2="531" y1="493.6406" y2="493.6406"/><line style="stroke:#A80036;stroke-width:1.5;" x1="455" x2="531" y1="501.6406" y2="501.6406"/><!--MD5=[08be530975453a47bdc5b5370100f2fc]
class Red--><rect codeLine="10" fill="#FEFECE" filter="url(#fhdjvj8cm1kxz)" height="48" id="Red" style="stroke:#A80036;stroke-width:1.5;" width="55" x="562.5" y="569.6406"/><ellipse cx="577.5" cy="585.6406" fill="#ADD1B2" rx="11" ry="11" style="stroke:#A80036;stroke-width:1.0;"/><path d="M580.2656,581.5156 Q580.4219,581.2969 580.6094,581.1875 Q580.7969,581.0781 581.0156,581.0781 Q581.3906,581.0781 581.625,581.3359 Q581.8594,581.5938 581.8594,582.2031 L581.8594,583.6563 Q581.8594,584.2656 581.625,584.5313 Q581.3906,584.7969 581.0156,584.7969 Q580.6719,584.7969 580.4688,584.5938 Q580.2656,584.4063 580.1563,583.8906 Q580.1094,583.5313 579.9219,583.3438 Q579.5938,582.9688 578.9844,582.75 Q578.375,582.5313 577.75,582.5313 Q576.9844,582.5313 576.3516,582.8594 Q575.7188,583.1875 575.2266,583.9375 Q574.7344,584.6875 574.7344,585.7188 L574.7344,586.8125 Q574.7344,588.0469 575.625,588.8672 Q576.5156,589.6875 578.1094,589.6875 Q579.0469,589.6875 579.7031,589.4375 Q580.0938,589.2813 580.5156,588.8438 Q580.7813,588.5781 580.9297,588.5 Q581.0781,588.4219 581.2813,588.4219 Q581.6094,588.4219 581.8672,588.6797 Q582.125,588.9375 582.125,589.2813 Q582.125,589.625 581.7813,590.0313 Q581.2813,590.6094 580.4844,590.9375 Q579.4063,591.3906 578.1094,591.3906 Q576.5938,591.3906 575.3906,590.7656 Q574.4063,590.2656 573.7188,589.1953 Q573.0313,588.125 573.0313,586.8438 L573.0313,585.6875 Q573.0313,584.3594 573.6484,583.2109 Q574.2656,582.0625 575.3594,581.4453 Q576.4531,580.8281 577.6875,580.8281 Q578.4219,580.8281 579.0703,580.9922 Q579.7188,581.1563 580.2656,581.5156 Z " fill="#000000"/><text fill="#000000" font-family="sans-serif" font-size="12" lengthAdjust="spacing" textLength="23" x="591.5" y="590.5508">Red</text><line style="stroke:#A80036;stroke-width:1.5;" x1="563.5" x2="616.5" y1="601.6406" y2="601.6406"/><line style="stroke:#A80036;stroke-width:1.5;" x1="563.5" x2="616.5" y1="609.6406" y2="609.6406"/><!--MD5=[59a197a4e33151d5112197f2c5528c04]
class Yellow--><rect codeLine="11" fill="#FEFECE" filter="url(#fhdjvj8cm1kxz)" height="48" id="Yellow" style="stroke:#A80036;stroke-width:1.5;" width="68" x="459" y="569.6406"/><ellipse cx="474" cy="585.6406" fill="#ADD1B2" rx="11" ry="11" style="stroke:#A80036;stroke-width:1.0;"/><path d="M476.7656,581.5156 Q476.9219,581.2969 477.1094,581.1875 Q477.2969,581.0781 477.5156,581.0781 Q477.8906,581.0781 478.125,581.3359 Q478.3594,581.5938 478.3594,582.2031 L478.3594,583.6563 Q478.3594,584.2656 478.125,584.5313 Q477.8906,584.7969 477.5156,584.7969 Q477.1719,584.7969 476.9688,584.5938 Q476.7656,584.4063 476.6563,583.8906 Q476.6094,583.5313 476.4219,583.3438 Q476.0938,582.9688 475.4844,582.75 Q474.875,582.5313 474.25,582.5313 Q473.4844,582.5313 472.8516,582.8594 Q472.2188,583.1875 471.7266,583.9375 Q471.2344,584.6875 471.2344,585.7188 L471.2344,586.8125 Q471.2344,588.0469 472.125,588.8672 Q473.0156,589.6875 474.6094,589.6875 Q475.5469,589.6875 476.2031,589.4375 Q476.5938,589.2813 477.0156,588.8438 Q477.2813,588.5781 477.4297,588.5 Q477.5781,588.4219 477.7813,588.4219 Q478.1094,588.4219 478.3672,588.6797 Q478.625,588.9375 478.625,589.2813 Q478.625,589.625 478.2813,590.0313 Q477.7813,590.6094 476.9844,590.9375 Q475.9063,591.3906 474.6094,591.3906 Q473.0938,591.3906 471.8906,590.7656 Q470.9063,590.2656 470.2188,589.1953 Q469.5313,588.125 469.5313,586.8438 L469.5313,585.6875 Q469.5313,584.3594 470.1484,583.2109 Q470.7656,582.0625 471.8594,581.4453 Q472.9531,580.8281 474.1875,580.8281 Q474.9219,580.8281 475.5703,580.9922 Q476.2188,581.1563 476.7656,581.5156 Z " fill="#000000"/><text fill="#000000" font-family="sans-serif" font-size="12" lengthAdjust="spacing" textLength="36" x="488" y="590.5508">Yellow</text><line style="stroke:#A80036;stroke-width:1.5;" x1="460" x2="526" y1="601.6406" y2="601.6406"/><line style="stroke:#A80036;stroke-width:1.5;" x1="460" x2="526" y1="609.6406" y2="609.6406"/><!--MD5=[dd91eae41778c45e12552e5329e240e8]
class Turn--><rect codeLine="12" fill="#FEFECE" filter="url(#fhdjvj8cm1kxz)" height="48" id="Turn" style="stroke:#A80036;stroke-width:1.5;" width="57" x="305.5" y="245.6406"/><ellipse cx="320.5" cy="261.6406" fill="#ADD1B2" rx="11" ry="11" style="stroke:#A80036;stroke-width:1.0;"/><path d="M323.2656,257.5156 Q323.4219,257.2969 323.6094,257.1875 Q323.7969,257.0781 324.0156,257.0781 Q324.3906,257.0781 324.625,257.3359 Q324.8594,257.5938 324.8594,258.2031 L324.8594,259.6563 Q324.8594,260.2656 324.625,260.5313 Q324.3906,260.7969 324.0156,260.7969 Q323.6719,260.7969 323.4688,260.5938 Q323.2656,260.4063 323.1563,259.8906 Q323.1094,259.5313 322.9219,259.3438 Q322.5938,258.9688 321.9844,258.75 Q321.375,258.5313 320.75,258.5313 Q319.9844,258.5313 319.3516,258.8594 Q318.7188,259.1875 318.2266,259.9375 Q317.7344,260.6875 317.7344,261.7188 L317.7344,262.8125 Q317.7344,264.0469 318.625,264.8672 Q319.5156,265.6875 321.1094,265.6875 Q322.0469,265.6875 322.7031,265.4375 Q323.0938,265.2813 323.5156,264.8438 Q323.7813,264.5781 323.9297,264.5 Q324.0781,264.4219 324.2813,264.4219 Q324.6094,264.4219 324.8672,264.6797 Q325.125,264.9375 325.125,265.2813 Q325.125,265.625 324.7813,266.0313 Q324.2813,266.6094 323.4844,266.9375 Q322.4063,267.3906 321.1094,267.3906 Q319.5938,267.3906 318.3906,266.7656 Q317.4063,266.2656 316.7188,265.1953 Q316.0313,264.125 316.0313,262.8438 L316.0313,261.6875 Q316.0313,260.3594 316.6484,259.2109 Q317.2656,258.0625 318.3594,257.4453 Q319.4531,256.8281 320.6875,256.8281 Q321.4219,256.8281 322.0703,256.9922 Q322.7188,257.1563 323.2656,257.5156 Z " fill="#000000"/><text fill="#000000" font-family="sans-serif" font-size="12" lengthAdjust="spacing" textLength="25" x="334.5" y="266.5508">Turn</text><line style="stroke:#A80036;stroke-width:1.5;" x1="306.5" x2="361.5" y1="277.6406" y2="277.6406"/><line style="stroke:#A80036;stroke-width:1.5;" x1="306.5" x2="361.5" y1="285.6406" y2="285.6406"/><!--MD5=[bc87bf052131b9ca3b54b8ba84b5b110]
class Movement--><rect codeLine="13" fill="#FEFECE" filter="url(#fhdjvj8cm1kxz)" height="48" id="Movement" style="stroke:#A80036;stroke-width:1.5;" width="88" x="282" y="353.6406"/><ellipse cx="297" cy="369.6406" fill="#ADD1B2" rx="11" ry="11" style="stroke:#A80036;stroke-width:1.0;"/><path d="M299.7656,365.5156 Q299.9219,365.2969 300.1094,365.1875 Q300.2969,365.0781 300.5156,365.0781 Q300.8906,365.0781 301.125,365.3359 Q301.3594,365.5938 301.3594,366.2031 L301.3594,367.6563 Q301.3594,368.2656 301.125,368.5313 Q300.8906,368.7969 300.5156,368.7969 Q300.1719,368.7969 299.9688,368.5938 Q299.7656,368.4063 299.6563,367.8906 Q299.6094,367.5313 299.4219,367.3438 Q299.0938,366.9688 298.4844,366.75 Q297.875,366.5313 297.25,366.5313 Q296.4844,366.5313 295.8516,366.8594 Q295.2188,367.1875 294.7266,367.9375 Q294.2344,368.6875 294.2344,369.7188 L294.2344,370.8125 Q294.2344,372.0469 295.125,372.8672 Q296.0156,373.6875 297.6094,373.6875 Q298.5469,373.6875 299.2031,373.4375 Q299.5938,373.2813 300.0156,372.8438 Q300.2813,372.5781 300.4297,372.5 Q300.5781,372.4219 300.7813,372.4219 Q301.1094,372.4219 301.3672,372.6797 Q301.625,372.9375 301.625,373.2813 Q301.625,373.625 301.2813,374.0313 Q300.7813,374.6094 299.9844,374.9375 Q298.9063,375.3906 297.6094,375.3906 Q296.0938,375.3906 294.8906,374.7656 Q293.9063,374.2656 293.2188,373.1953 Q292.5313,372.125 292.5313,370.8438 L292.5313,369.6875 Q292.5313,368.3594 293.1484,367.2109 Q293.7656,366.0625 294.8594,365.4453 Q295.9531,364.8281 297.1875,364.8281 Q297.9219,364.8281 298.5703,364.9922 Q299.2188,365.1563 299.7656,365.5156 Z " fill="#000000"/><text fill="#000000" font-family="sans-serif" font-size="12" lengthAdjust="spacing" textLength="56" x="311" y="374.5508">Movement</text><line style="stroke:#A80036;stroke-width:1.5;" x1="283" x2="369" y1="385.6406" y2="385.6406"/><line style="stroke:#A80036;stroke-width:1.5;" x1="283" x2="369" y1="393.6406" y2="393.6406"/><!--MD5=[0992d3fdc9d3d7c02b735131bb70871d]
class Goal--><rect codeLine="14" fill="#FEFECE" filter="url(#fhdjvj8cm1kxz)" height="48" id="Goal" style="stroke:#A80036;stroke-width:1.5;" width="58" x="189" y="353.6406"/><ellipse cx="204" cy="369.6406" fill="#ADD1B2" rx="11" ry="11" style="stroke:#A80036;stroke-width:1.0;"/><path d="M206.7656,365.5156 Q206.9219,365.2969 207.1094,365.1875 Q207.2969,365.0781 207.5156,365.0781 Q207.8906,365.0781 208.125,365.3359 Q208.3594,365.5938 208.3594,366.2031 L208.3594,367.6563 Q208.3594,368.2656 208.125,368.5313 Q207.8906,368.7969 207.5156,368.7969 Q207.1719,368.7969 206.9688,368.5938 Q206.7656,368.4063 206.6563,367.8906 Q206.6094,367.5313 206.4219,367.3438 Q206.0938,366.9688 205.4844,366.75 Q204.875,366.5313 204.25,366.5313 Q203.4844,366.5313 202.8516,366.8594 Q202.2188,367.1875 201.7266,367.9375 Q201.2344,368.6875 201.2344,369.7188 L201.2344,370.8125 Q201.2344,372.0469 202.125,372.8672 Q203.0156,373.6875 204.6094,373.6875 Q205.5469,373.6875 206.2031,373.4375 Q206.5938,373.2813 207.0156,372.8438 Q207.2813,372.5781 207.4297,372.5 Q207.5781,372.4219 207.7813,372.4219 Q208.1094,372.4219 208.3672,372.6797 Q208.625,372.9375 208.625,373.2813 Q208.625,373.625 208.2813,374.0313 Q207.7813,374.6094 206.9844,374.9375 Q205.9063,375.3906 204.6094,375.3906 Q203.0938,375.3906 201.8906,374.7656 Q200.9063,374.2656 200.2188,373.1953 Q199.5313,372.125 199.5313,370.8438 L199.5313,369.6875 Q199.5313,368.3594 200.1484,367.2109 Q200.7656,366.0625 201.8594,365.4453 Q202.9531,364.8281 204.1875,364.8281 Q204.9219,364.8281 205.5703,364.9922 Q206.2188,365.1563 206.7656,365.5156 Z " fill="#000000"/><text fill="#000000" font-family="sans-serif" font-size="12" lengthAdjust="spacing" textLength="26" x="218" y="374.5508">Goal</text><line style="stroke:#A80036;stroke-width:1.5;" x1="190" x2="246" y1="385.6406" y2="385.6406"/><line style="stroke:#A80036;stroke-width:1.5;" x1="190" x2="246" y1="393.6406" y2="393.6406"/><!--MD5=[f14ebfaa64de903023d2cf0627cbb644]
class 4InALine--><rect codeLine="15" fill="#FEFECE" filter="url(#fhdjvj8cm1kxz)" height="48" id="4InALine" style="stroke:#A80036;stroke-width:1.5;" width="80" x="178" y="461.6406"/><ellipse cx="193" cy="477.6406" fill="#ADD1B2" rx="11" ry="11" style="stroke:#A80036;stroke-width:1.0;"/><path d="M195.7656,473.5156 Q195.9219,473.2969 196.1094,473.1875 Q196.2969,473.0781 196.5156,473.0781 Q196.8906,473.0781 197.125,473.3359 Q197.3594,473.5938 197.3594,474.2031 L197.3594,475.6563 Q197.3594,476.2656 197.125,476.5313 Q196.8906,476.7969 196.5156,476.7969 Q196.1719,476.7969 195.9688,476.5938 Q195.7656,476.4063 195.6563,475.8906 Q195.6094,475.5313 195.4219,475.3438 Q195.0938,474.9688 194.4844,474.75 Q193.875,474.5313 193.25,474.5313 Q192.4844,474.5313 191.8516,474.8594 Q191.2188,475.1875 190.7266,475.9375 Q190.2344,476.6875 190.2344,477.7188 L190.2344,478.8125 Q190.2344,480.0469 191.125,480.8672 Q192.0156,481.6875 193.6094,481.6875 Q194.5469,481.6875 195.2031,481.4375 Q195.5938,481.2813 196.0156,480.8438 Q196.2813,480.5781 196.4297,480.5 Q196.5781,480.4219 196.7813,480.4219 Q197.1094,480.4219 197.3672,480.6797 Q197.625,480.9375 197.625,481.2813 Q197.625,481.625 197.2813,482.0313 Q196.7813,482.6094 195.9844,482.9375 Q194.9063,483.3906 193.6094,483.3906 Q192.0938,483.3906 190.8906,482.7656 Q189.9063,482.2656 189.2188,481.1953 Q188.5313,480.125 188.5313,478.8438 L188.5313,477.6875 Q188.5313,476.3594 189.1484,475.2109 Q189.7656,474.0625 190.8594,473.4453 Q191.9531,472.8281 193.1875,472.8281 Q193.9219,472.8281 194.5703,472.9922 Q195.2188,473.1563 195.7656,473.5156 Z " fill="#000000"/><text fill="#000000" font-family="sans-serif" font-size="12" lengthAdjust="spacing" textLength="48" x="207" y="482.5508">4InALine</text><line style="stroke:#A80036;stroke-width:1.5;" x1="179" x2="257" y1="493.6406" y2="493.6406"/><line style="stroke:#A80036;stroke-width:1.5;" x1="179" x2="257" y1="501.6406" y2="501.6406"/><!--MD5=[882862e748c516aa1e2af9ad1e0606cc]
class HorizontalFigure--><rect codeLine="16" fill="#FEFECE" filter="url(#fhdjvj8cm1kxz)" height="48" id="HorizontalFigure" style="stroke:#A80036;stroke-width:1.5;" width="122" x="7" y="569.6406"/><ellipse cx="22" cy="585.6406" fill="#ADD1B2" rx="11" ry="11" style="stroke:#A80036;stroke-width:1.0;"/><path d="M24.7656,581.5156 Q24.9219,581.2969 25.1094,581.1875 Q25.2969,581.0781 25.5156,581.0781 Q25.8906,581.0781 26.125,581.3359 Q26.3594,581.5938 26.3594,582.2031 L26.3594,583.6563 Q26.3594,584.2656 26.125,584.5313 Q25.8906,584.7969 25.5156,584.7969 Q25.1719,584.7969 24.9688,584.5938 Q24.7656,584.4063 24.6563,583.8906 Q24.6094,583.5313 24.4219,583.3438 Q24.0938,582.9688 23.4844,582.75 Q22.875,582.5313 22.25,582.5313 Q21.4844,582.5313 20.8516,582.8594 Q20.2188,583.1875 19.7266,583.9375 Q19.2344,584.6875 19.2344,585.7188 L19.2344,586.8125 Q19.2344,588.0469 20.125,588.8672 Q21.0156,589.6875 22.6094,589.6875 Q23.5469,589.6875 24.2031,589.4375 Q24.5938,589.2813 25.0156,588.8438 Q25.2813,588.5781 25.4297,588.5 Q25.5781,588.4219 25.7813,588.4219 Q26.1094,588.4219 26.3672,588.6797 Q26.625,588.9375 26.625,589.2813 Q26.625,589.625 26.2813,590.0313 Q25.7813,590.6094 24.9844,590.9375 Q23.9063,591.3906 22.6094,591.3906 Q21.0938,591.3906 19.8906,590.7656 Q18.9063,590.2656 18.2188,589.1953 Q17.5313,588.125 17.5313,586.8438 L17.5313,585.6875 Q17.5313,584.3594 18.1484,583.2109 Q18.7656,582.0625 19.8594,581.4453 Q20.9531,580.8281 22.1875,580.8281 Q22.9219,580.8281 23.5703,580.9922 Q24.2188,581.1563 24.7656,581.5156 Z " fill="#000000"/><text fill="#000000" font-family="sans-serif" font-size="12" lengthAdjust="spacing" textLength="90" x="36" y="590.5508">HorizontalFigure</text><line style="stroke:#A80036;stroke-width:1.5;" x1="8" x2="128" y1="601.6406" y2="601.6406"/><line style="stroke:#A80036;stroke-width:1.5;" x1="8" x2="128" y1="609.6406" y2="609.6406"/><!--MD5=[ef3d3684a860c9b89ab6d7f9b437f10d]
class VerticalFigure--><rect codeLine="17" fill="#FEFECE" filter="url(#fhdjvj8cm1kxz)" height="48" id="VerticalFigure" style="stroke:#A80036;stroke-width:1.5;" width="107" x="164.5" y="569.6406"/><ellipse cx="179.5" cy="585.6406" fill="#ADD1B2" rx="11" ry="11" style="stroke:#A80036;stroke-width:1.0;"/><path d="M182.2656,581.5156 Q182.4219,581.2969 182.6094,581.1875 Q182.7969,581.0781 183.0156,581.0781 Q183.3906,581.0781 183.625,581.3359 Q183.8594,581.5938 183.8594,582.2031 L183.8594,583.6563 Q183.8594,584.2656 183.625,584.5313 Q183.3906,584.7969 183.0156,584.7969 Q182.6719,584.7969 182.4688,584.5938 Q182.2656,584.4063 182.1563,583.8906 Q182.1094,583.5313 181.9219,583.3438 Q181.5938,582.9688 180.9844,582.75 Q180.375,582.5313 179.75,582.5313 Q178.9844,582.5313 178.3516,582.8594 Q177.7188,583.1875 177.2266,583.9375 Q176.7344,584.6875 176.7344,585.7188 L176.7344,586.8125 Q176.7344,588.0469 177.625,588.8672 Q178.5156,589.6875 180.1094,589.6875 Q181.0469,589.6875 181.7031,589.4375 Q182.0938,589.2813 182.5156,588.8438 Q182.7813,588.5781 182.9297,588.5 Q183.0781,588.4219 183.2813,588.4219 Q183.6094,588.4219 183.8672,588.6797 Q184.125,588.9375 184.125,589.2813 Q184.125,589.625 183.7813,590.0313 Q183.2813,590.6094 182.4844,590.9375 Q181.4063,591.3906 180.1094,591.3906 Q178.5938,591.3906 177.3906,590.7656 Q176.4063,590.2656 175.7188,589.1953 Q175.0313,588.125 175.0313,586.8438 L175.0313,585.6875 Q175.0313,584.3594 175.6484,583.2109 Q176.2656,582.0625 177.3594,581.4453 Q178.4531,580.8281 179.6875,580.8281 Q180.4219,580.8281 181.0703,580.9922 Q181.7188,581.1563 182.2656,581.5156 Z " fill="#000000"/><text fill="#000000" font-family="sans-serif" font-size="12" lengthAdjust="spacing" textLength="75" x="193.5" y="590.5508">VerticalFigure</text><line style="stroke:#A80036;stroke-width:1.5;" x1="165.5" x2="270.5" y1="601.6406" y2="601.6406"/><line style="stroke:#A80036;stroke-width:1.5;" x1="165.5" x2="270.5" y1="609.6406" y2="609.6406"/><!--MD5=[1ab8c4e44b05c5e9b3cf4c2a6083ec7e]
class DiagonalFigure--><rect codeLine="18" fill="#FEFECE" filter="url(#fhdjvj8cm1kxz)" height="48" id="DiagonalFigure" style="stroke:#A80036;stroke-width:1.5;" width="117" x="306.5" y="569.6406"/><ellipse cx="321.5" cy="585.6406" fill="#ADD1B2" rx="11" ry="11" style="stroke:#A80036;stroke-width:1.0;"/><path d="M324.2656,581.5156 Q324.4219,581.2969 324.6094,581.1875 Q324.7969,581.0781 325.0156,581.0781 Q325.3906,581.0781 325.625,581.3359 Q325.8594,581.5938 325.8594,582.2031 L325.8594,583.6563 Q325.8594,584.2656 325.625,584.5313 Q325.3906,584.7969 325.0156,584.7969 Q324.6719,584.7969 324.4688,584.5938 Q324.2656,584.4063 324.1563,583.8906 Q324.1094,583.5313 323.9219,583.3438 Q323.5938,582.9688 322.9844,582.75 Q322.375,582.5313 321.75,582.5313 Q320.9844,582.5313 320.3516,582.8594 Q319.7188,583.1875 319.2266,583.9375 Q318.7344,584.6875 318.7344,585.7188 L318.7344,586.8125 Q318.7344,588.0469 319.625,588.8672 Q320.5156,589.6875 322.1094,589.6875 Q323.0469,589.6875 323.7031,589.4375 Q324.0938,589.2813 324.5156,588.8438 Q324.7813,588.5781 324.9297,588.5 Q325.0781,588.4219 325.2813,588.4219 Q325.6094,588.4219 325.8672,588.6797 Q326.125,588.9375 326.125,589.2813 Q326.125,589.625 325.7813,590.0313 Q325.2813,590.6094 324.4844,590.9375 Q323.4063,591.3906 322.1094,591.3906 Q320.5938,591.3906 319.3906,590.7656 Q318.4063,590.2656 317.7188,589.1953 Q317.0313,588.125 317.0313,586.8438 L317.0313,585.6875 Q317.0313,584.3594 317.6484,583.2109 Q318.2656,582.0625 319.3594,581.4453 Q320.4531,580.8281 321.6875,580.8281 Q322.4219,580.8281 323.0703,580.9922 Q323.7188,581.1563 324.2656,581.5156 Z " fill="#000000"/><text fill="#000000" font-family="sans-serif" font-size="12" lengthAdjust="spacing" textLength="85" x="335.5" y="590.5508">DiagonalFigure</text><line style="stroke:#A80036;stroke-width:1.5;" x1="307.5" x2="422.5" y1="601.6406" y2="601.6406"/><line style="stroke:#A80036;stroke-width:1.5;" x1="307.5" x2="422.5" y1="609.6406" y2="609.6406"/><!--MD5=[b3ed26fd28e05d76b70d1742d1b37814]
reverse link Connect4Game to Board--><path codeLine="20" d="M521.22,88.1806 C534.19,104.1706 549.39,122.9106 561.08,137.3206 " fill="none" id="Connect4Game-backto-Board" style="stroke:#A80036;stroke-width:1.0;"/><polygon fill="#A80036" points="512.66,77.6406,513.3353,84.82,520.2221,86.958,519.5469,79.7786,512.66,77.6406" style="stroke:#A80036;stroke-width:1.0;"/><text fill="#000000" font-family="sans-serif" font-size="13" lengthAdjust="spacing" textLength="21" x="523.9339" y="126.9806">7x6</text><!--MD5=[f2fb8feabdb3aa986ab812c6b15de228]
reverse link Connect4Game to Checker--><path codeLine="21" d="M493.92,90.8506 C493.72,176.6706 493.22,390.5306 493.05,461.4106 " fill="none" id="Connect4Game-backto-Checker" style="stroke:#A80036;stroke-width:1.0;"/><polygon fill="#A80036" points="493.95,77.7606,489.9368,83.7518,493.9236,89.7606,497.9368,83.7694,493.95,77.7606" style="stroke:#A80036;stroke-width:1.0;"/><text fill="#000000" font-family="sans-serif" font-size="13" lengthAdjust="spacing" textLength="14" x="494.8566" y="450.6918">42</text><!--MD5=[b683df73e29515cf410c7111b74f7bc0]
reverse link Connect4Game to Player--><path codeLine="22" d="M458.4,86.3506 C440.02,102.7306 417.98,122.3506 401.18,137.3206 " fill="none" id="Connect4Game-backto-Player" style="stroke:#A80036;stroke-width:1.0;"/><polygon fill="#A80036" points="468.18,77.6406,461.0393,78.6456,459.2206,85.6236,466.3613,84.6186,468.18,77.6406" style="stroke:#A80036;stroke-width:1.0;"/><text fill="#000000" font-family="sans-serif" font-size="13" lengthAdjust="spacing" textLength="7" x="399.7083" y="126.9806">2</text><!--MD5=[5778a4432fb065f83ccf0aa932a03c78]
reverse link Board to Cell--><path codeLine="24" d="M578.97,198.9806 C578.54,214.3206 578.04,231.7406 577.66,245.3206 " fill="none" id="Board-backto-Cell" style="stroke:#A80036;stroke-width:1.0;"/><polygon fill="#A80036" points="579.35,185.6406,575.1867,191.5285,579.0205,197.6361,583.1837,191.7482,579.35,185.6406" style="stroke:#A80036;stroke-width:1.0;"/><text fill="#000000" font-family="sans-serif" font-size="13" lengthAdjust="spacing" textLength="14" x="562.1146" y="234.9806">42</text><!--MD5=[5fc9219214a6d7db882d960f5244e6cf]
link Player to Checker--><path codeLine="26" d="M383.49,185.8006 C404.65,243.5606 459.73,393.8606 482.7,456.5406 " fill="none" id="Player-to-Checker" style="stroke:#A80036;stroke-width:1.0;"/><polygon fill="#A80036" points="484.43,461.2606,485.0679,451.4324,482.6995,456.5696,477.5623,454.2013,484.43,461.2606" style="stroke:#A80036;stroke-width:1.0;"/><text fill="#000000" font-family="sans-serif" font-size="13" lengthAdjust="spacing" textLength="14" x="466.6348" y="450.906">21</text><!--MD5=[2809e98817c5cee3490d4f47bc742af6]
link Player to Turn--><path codeLine="27" d="M366.1,185.6406 C359.86,201.7806 351.48,223.4606 344.84,240.6106 " fill="none" id="Player-to-Turn" style="stroke:#A80036;stroke-width:1.0;stroke-dasharray:7.0,7.0;"/><polygon fill="#A80036" points="343.02,245.3206,350.007,238.3793,344.8302,240.6598,342.5496,235.483,343.02,245.3206" style="stroke:#A80036;stroke-width:1.0;"/><text fill="#000000" font-family="sans-serif" font-size="13" lengthAdjust="spacing" textLength="29" x="312.6842" y="234.9806">3..21</text><!--MD5=[1571e4e0b7cdbae74b04c97a95677c54]
link Player to Goal--><path codeLine="28" d="M346.49,185.7006 C328.31,201.3506 305.05,223.2006 288,245.6406 C263.07,278.4406 242,321.3206 229.67,348.9206 " fill="none" id="Player-to-Goal" style="stroke:#A80036;stroke-width:1.0;"/><polygon fill="#A80036" points="227.62,353.5606,234.9094,346.9376,229.6361,348.9851,227.5885,343.7118,227.62,353.5606" style="stroke:#A80036;stroke-width:1.0;"/><!--MD5=[7b8fff27d440bd23965a7daade9ae84b]
link Turn to Movement--><path codeLine="30" d="M332.26,293.6406 C331.06,309.6406 329.44,331.0906 328.15,348.1706 " fill="none" id="Turn-to-Movement" style="stroke:#A80036;stroke-width:1.0;"/><polygon fill="#A80036" points="327.76,353.3206,332.4176,344.6427,328.1315,348.3344,324.4397,344.0483,327.76,353.3206" style="stroke:#A80036;stroke-width:1.0;"/><!--MD5=[9e9ed493fd5293f06a1a8f33b82d0363]
reverse link Goal to 4InALine--><path codeLine="31" d="M218,421.6606 C218,435.2206 218,449.6806 218,461.3206 " fill="none" id="Goal-backto-4InALine" style="stroke:#A80036;stroke-width:1.0;"/><polygon fill="none" points="211,421.6406,218,401.6406,225,421.6406,211,421.6406" style="stroke:#A80036;stroke-width:1.0;"/><!--MD5=[575212f70d536f7796fb51488bc29761]
reverse link 4InALine to HorizontalFigure--><path codeLine="33" d="M168.83,521.3906 C146.49,537.1706 120.66,555.4206 100.74,569.5006 " fill="none" id="4InALine-backto-HorizontalFigure" style="stroke:#A80036;stroke-width:1.0;"/><polygon fill="none" points="165.08,515.4706,185.45,509.6406,173.16,526.9006,165.08,515.4706" style="stroke:#A80036;stroke-width:1.0;"/><!--MD5=[e928516c762018abd73edc99b8bd3b7f]
reverse link 4InALine to VerticalFigure--><path codeLine="34" d="M218,529.6606 C218,543.2206 218,557.6806 218,569.3206 " fill="none" id="4InALine-backto-VerticalFigure" style="stroke:#A80036;stroke-width:1.0;"/><polygon fill="none" points="211,529.6406,218,509.6406,225,529.6406,211,529.6406" style="stroke:#A80036;stroke-width:1.0;"/><!--MD5=[3f0ea8a7d15af6f17ec5ac65da8f99eb]
reverse link 4InALine to DiagonalFigure--><path codeLine="35" d="M266.18,521.3906 C288.08,537.1706 313.39,555.4206 332.91,569.5006 " fill="none" id="4InALine-backto-DiagonalFigure" style="stroke:#A80036;stroke-width:1.0;"/><polygon fill="none" points="262.02,527.0206,249.9,509.6406,270.21,515.6606,262.02,527.0206" style="stroke:#A80036;stroke-width:1.0;"/><!--MD5=[64c89b477b99cb240b8695075278226f]
reverse link Checker to Red--><path codeLine="37" d="M527.98,524.8706 C541.59,539.7406 556.74,556.2906 568.66,569.3206 " fill="none" id="Checker-backto-Red" style="stroke:#A80036;stroke-width:1.0;"/><polygon fill="none" points="522.39,529.1206,514.05,509.6406,532.71,519.6706,522.39,529.1206" style="stroke:#A80036;stroke-width:1.0;"/><!--MD5=[ebb7cb55d7494e57428671123e36ead2]
reverse link Checker to Yellow--><path codeLine="38" d="M493,529.6606 C493,543.2206 493,557.6806 493,569.3206 " fill="none" id="Checker-backto-Yellow" style="stroke:#A80036;stroke-width:1.0;"/><polygon fill="none" points="486,529.6406,493,509.6406,500,529.6406,486,529.6406" style="stroke:#A80036;stroke-width:1.0;"/><!--MD5=[b42bc357f5f368310baacb129c4b6321]
reverse link Movement to Checker--><path codeLine="39" d="M366.57,404.3906 C394.03,421.8206 430,444.6506 456.55,461.5006 " fill="none" id="Movement-backto-Checker" style="stroke:#A80036;stroke-width:1.0;"/><polygon fill="#A80036" points="362.24,401.6406,367.6926,409.8424,366.4607,404.3213,371.9817,403.0893,362.24,401.6406" style="stroke:#A80036;stroke-width:1.0;"/><!--MD5=[41b09266bff7b8013edc9d93d2c30a02]
reverse link Movement to 4InALine--><path codeLine="40" d="M293.22,410.8106 C276.64,427.0906 256.87,446.4906 241.76,461.3206 " fill="none" id="Movement-backto-4InALine" style="stroke:#A80036;stroke-width:1.0;"/><polygon fill="#FFFFFF" points="302.57,401.6406,295.486,402.9888,294.0059,410.0464,301.0899,408.6982,302.57,401.6406" style="stroke:#A80036;stroke-width:1.0;"/><!--MD5=[120cd265efec22d71974fa803bccb4be]
reverse link Cell to Checker--><path codeLine="41" d="M562.99,306.3306 C545.71,350.3706 516.81,423.9906 502.14,461.3606 " fill="none" id="Cell-backto-Checker" style="stroke:#A80036;stroke-width:1.0;"/><polygon fill="#FFFFFF" points="567.85,293.9506,561.9362,298.0771,563.4707,305.123,569.3845,300.9966,567.85,293.9506" style="stroke:#A80036;stroke-width:1.0;"/><!--MD5=[f2c9ba679370e338168c4eff833fbbdb]
@startuml connect4- -vocabulary


title Connect4 Vocabulary

class Connect4Game
class Player
class Board
class Cell
class Checker
Class Red
Class Yellow
class Turn
class Movement
class Goal
class 4InALine
class HorizontalFigure
class VerticalFigure
class DiagonalFigure

Connect4Game *- - "7x6  " Board
Connect4Game *- - "42" Checker
Connect4Game *- - "2" Player

Board *- - "42" Cell

Player - -> "21" Checker
Player ..> "3..21" Turn
Player - -> Goal

Turn - -> Movement
Goal <|- - 4InALine

4InALine <|- - HorizontalFigure
4InALine <|- - VerticalFigure
4InALine <|- - DiagonalFigure

Checker <|- - Red
Checker <|- - Yellow
Movement <- - Checker
Movement o- - 4InALine
Cell o- - Checker


@enduml

PlantUML version 1.2022.0(Tue Jan 11 17:16:42 CET 2022)
(GPL source distribution)
Java Runtime: Java(TM) SE Runtime Environment
JVM: Java HotSpot(TM) 64-Bit Server VM
Default Encoding: Cp1252
Language: es
Country: ES
--></g></svg>