<?xml version="1.0" encoding="UTF-8" standalone="no"?><svg xmlns="http://www.w3.org/2000/svg" xmlns:xlink="http://www.w3.org/1999/xlink" contentScriptType="application/ecmascript" contentStyleType="text/css" height="616px" preserveAspectRatio="none" style="width:1068px;height:616px;background:#FFFFFF;" version="1.1" viewBox="0 0 1068 616" width="1068px" zoomAndPan="magnify"><defs><filter height="300%" id="f160y4e7poh38k" width="300%" x="-1" y="-1"><feGaussianBlur result="blurOut" stdDeviation="2.0"/><feColorMatrix in="blurOut" result="blurOut2" type="matrix" values="0 0 0 0 0 0 0 0 0 0 0 0 0 0 0 0 0 0 .4 0"/><feOffset dx="4.0" dy="4.0" in="blurOut2" result="blurOut3"/><feBlend in="SourceGraphic" in2="blurOut3" mode="normal"/></filter></defs><g><text fill="#000000" font-family="sans-serif" font-size="18" lengthAdjust="spacing" textLength="173" x="441.25" y="18.6855">Connect4. Final State</text><rect fill="#FEFECE" filter="url(#f160y4e7poh38k)" height="52.25" style="stroke:#A80036;stroke-width:1.5;" width="71" x="567.5" y="40.1406"/><text fill="#000000" font-family="sans-serif" font-size="12" lengthAdjust="spacing" textLength="57" x="574.5" y="54.5977">newGame</text><line style="stroke:#A80036;stroke-width:1.5;" x1="568.5" x2="637.5" y1="59.2344" y2="59.2344"/><text fill="#000000" font-family="sans-serif" font-size="10" lengthAdjust="spacing" textLength="53" x="573.5" y="73.6152">nGame = 1</text><text fill="#000000" font-family="sans-serif" font-size="10" lengthAdjust="spacing" textLength="44" x="573.5" y="86.1934">status = 3</text><path d="M386,28.6406 L386,104.0469 A0,0 0 0 0 386,104.0469 L532,104.0469 A0,0 0 0 0 532,104.0469 L532,70.1406 L567.29,66.1406 L532,62.1406 L532,38.6406 L522,28.6406 L386,28.6406 A0,0 0 0 0 386,28.6406 " fill="#FBFB77" filter="url(#f160y4e7poh38k)" style="stroke:#A80036;stroke-width:1.0;"/><path d="M522,28.6406 L522,38.6406 L532,38.6406 L522,28.6406 " fill="#FBFB77" style="stroke:#A80036;stroke-width:1.0;"/><text fill="#000000" font-family="sans-serif" font-size="13" lengthAdjust="spacing" textLength="125" x="392" y="47.1357">status 0 = not started</text><text fill="#000000" font-family="sans-serif" font-size="13" lengthAdjust="spacing" textLength="103" x="392" y="63.4873">status 1 = started</text><text fill="#000000" font-family="sans-serif" font-size="13" lengthAdjust="spacing" textLength="105" x="392" y="79.8389">status 2 = paused</text><text fill="#000000" font-family="sans-serif" font-size="13" lengthAdjust="spacing" textLength="107" x="392" y="96.1904">status 3 = finished</text><rect fill="#FEFECE" filter="url(#f160y4e7poh38k)" height="52.25" style="stroke:#A80036;stroke-width:1.5;" width="70" x="568" y="163.6406"/><text fill="#000000" font-family="sans-serif" font-size="12" lengthAdjust="spacing" textLength="49" x="578.5" y="178.0977">myBoard</text><line style="stroke:#A80036;stroke-width:1.5;" x1="569" x2="637" y1="182.7344" y2="182.7344"/><text fill="#000000" font-family="sans-serif" font-size="10" lengthAdjust="spacing" textLength="58" x="574" y="197.1152">columns = 7</text><text fill="#000000" font-family="sans-serif" font-size="10" lengthAdjust="spacing" textLength="38" x="574" y="209.6934">rows = 6</text><rect fill="#FEFECE" filter="url(#f160y4e7poh38k)" height="89.9844" style="stroke:#A80036;stroke-width:1.5;" width="94" x="753" y="512.6406"/><text fill="#000000" font-family="sans-serif" font-size="12" lengthAdjust="spacing" textLength="40" x="780" y="527.0977">player1</text><line style="stroke:#A80036;stroke-width:1.5;" x1="754" x2="846" y1="531.7344" y2="531.7344"/><text fill="#000000" font-family="sans-serif" font-size="10" lengthAdjust="spacing" textLength="27" x="759" y="546.1152">id = 1</text><text fill="#000000" font-family="sans-serif" font-size="10" lengthAdjust="spacing" textLength="69" x="759" y="558.6934">name = 'vilma'</text><text fill="#000000" font-family="sans-serif" font-size="10" lengthAdjust="spacing" textLength="70" x="759" y="571.2715">color = 'yellow'</text><text fill="#000000" font-family="sans-serif" font-size="10" lengthAdjust="spacing" textLength="65" x="759" y="583.8496">checkers = 21</text><text fill="#000000" font-family="sans-serif" font-size="10" lengthAdjust="spacing" textLength="82" x="759" y="596.4277">usedCheckers = 4</text><rect fill="#FEFECE" filter="url(#f160y4e7poh38k)" height="89.9844" style="stroke:#A80036;stroke-width:1.5;" width="94" x="139" y="512.6406"/><text fill="#000000" font-family="sans-serif" font-size="12" lengthAdjust="spacing" textLength="40" x="166" y="527.0977">player2</text><line style="stroke:#A80036;stroke-width:1.5;" x1="140" x2="232" y1="531.7344" y2="531.7344"/><text fill="#000000" font-family="sans-serif" font-size="10" lengthAdjust="spacing" textLength="27" x="145" y="546.1152">id = 2</text><text fill="#000000" font-family="sans-serif" font-size="10" lengthAdjust="spacing" textLength="70" x="145" y="558.6934">name = 'pedro'</text><text fill="#000000" font-family="sans-serif" font-size="10" lengthAdjust="spacing" textLength="55" x="145" y="571.2715">color = 'red'</text><text fill="#000000" font-family="sans-serif" font-size="10" lengthAdjust="spacing" textLength="65" x="145" y="583.8496">checkers = 21</text><text fill="#000000" font-family="sans-serif" font-size="10" lengthAdjust="spacing" textLength="82" x="145" y="596.4277">usedCheckers = 3</text><rect fill="#FEFECE" filter="url(#f160y4e7poh38k)" height="64.8281" style="stroke:#A80036;stroke-width:1.5;" width="106" x="674" y="33.6406"/><text fill="#000000" font-family="sans-serif" font-size="12" lengthAdjust="spacing" textLength="24" x="715" y="48.0977">goal</text><line style="stroke:#A80036;stroke-width:1.5;" x1="675" x2="779" y1="52.7344" y2="52.7344"/><text fill="#000000" font-family="sans-serif" font-size="10" lengthAdjust="spacing" textLength="94" x="680" y="67.1152">name = '4 in a Line'</text><text fill="#000000" font-family="sans-serif" font-size="10" lengthAdjust="spacing" textLength="56" x="680" y="79.6934">status = true</text><text fill="#000000" font-family="sans-serif" font-size="10" lengthAdjust="spacing" textLength="78" x="680" y="92.2715">winner = player1</text><rect fill="#FEFECE" filter="url(#f160y4e7poh38k)" height="64.8281" style="stroke:#A80036;stroke-width:1.5;" width="110" x="815" y="33.6406"/><text fill="#000000" font-family="sans-serif" font-size="12" lengthAdjust="spacing" textLength="21" x="859.5" y="48.0977">turn</text><line style="stroke:#A80036;stroke-width:1.5;" x1="816" x2="924" y1="52.7344" y2="52.7344"/><text fill="#000000" font-family="sans-serif" font-size="10" lengthAdjust="spacing" textLength="93" x="821" y="67.1152">firstPlayer = player1</text><text fill="#000000" font-family="sans-serif" font-size="10" lengthAdjust="spacing" textLength="36" x="821" y="79.6934">turn = 7</text><text fill="#000000" font-family="sans-serif" font-size="10" lengthAdjust="spacing" textLength="98" x="821" y="92.2715">remainingTurns = 35</text><rect fill="#FEFECE" filter="url(#f160y4e7poh38k)" height="52.25" style="stroke:#A80036;stroke-width:1.5;" width="96" x="686" y="275.6406"/><text fill="#000000" font-family="sans-serif" font-size="12" lengthAdjust="spacing" textLength="35" x="716.5" y="290.0977">cellD1</text><line style="stroke:#A80036;stroke-width:1.5;" x1="687" x2="781" y1="294.7344" y2="294.7344"/><text fill="#000000" font-family="sans-serif" font-size="10" lengthAdjust="spacing" textLength="84" x="692" y="309.1152">coordinates = 'D1'</text><text fill="#000000" font-family="sans-serif" font-size="10" lengthAdjust="spacing" textLength="70" x="692" y="321.6934">filled = 'yellow'</text><rect fill="#FEFECE" filter="url(#f160y4e7poh38k)" height="52.25" style="stroke:#A80036;stroke-width:1.5;" width="96" x="138" y="275.6406"/><text fill="#000000" font-family="sans-serif" font-size="12" lengthAdjust="spacing" textLength="35" x="168.5" y="290.0977">cellD2</text><line style="stroke:#A80036;stroke-width:1.5;" x1="139" x2="233" y1="294.7344" y2="294.7344"/><text fill="#000000" font-family="sans-serif" font-size="10" lengthAdjust="spacing" textLength="84" x="144" y="309.1152">coordinates = 'D2'</text><text fill="#000000" font-family="sans-serif" font-size="10" lengthAdjust="spacing" textLength="55" x="144" y="321.6934">filled = 'red'</text><rect fill="#FEFECE" filter="url(#f160y4e7poh38k)" height="52.25" style="stroke:#A80036;stroke-width:1.5;" width="96" x="819" y="275.6406"/><text fill="#000000" font-family="sans-serif" font-size="12" lengthAdjust="spacing" textLength="34" x="850" y="290.0977">cellE1</text><line style="stroke:#A80036;stroke-width:1.5;" x1="820" x2="914" y1="294.7344" y2="294.7344"/><text fill="#000000" font-family="sans-serif" font-size="10" lengthAdjust="spacing" textLength="84" x="825" y="309.1152">coordinates = 'E1'</text><text fill="#000000" font-family="sans-serif" font-size="10" lengthAdjust="spacing" textLength="70" x="825" y="321.6934">filled = 'yellow'</text><rect fill="#FEFECE" filter="url(#f160y4e7poh38k)" height="52.25" style="stroke:#A80036;stroke-width:1.5;" width="96" x="269" y="275.6406"/><text fill="#000000" font-family="sans-serif" font-size="12" lengthAdjust="spacing" textLength="35" x="299.5" y="290.0977">cellD3</text><line style="stroke:#A80036;stroke-width:1.5;" x1="270" x2="364" y1="294.7344" y2="294.7344"/><text fill="#000000" font-family="sans-serif" font-size="10" lengthAdjust="spacing" textLength="84" x="275" y="309.1152">coordinates = 'D3'</text><text fill="#000000" font-family="sans-serif" font-size="10" lengthAdjust="spacing" textLength="55" x="275" y="321.6934">filled = 'red'</text><rect fill="#FEFECE" filter="url(#f160y4e7poh38k)" height="52.25" style="stroke:#A80036;stroke-width:1.5;" width="96" x="555" y="275.6406"/><text fill="#000000" font-family="sans-serif" font-size="12" lengthAdjust="spacing" textLength="35" x="585.5" y="290.0977">cellC1</text><line style="stroke:#A80036;stroke-width:1.5;" x1="556" x2="650" y1="294.7344" y2="294.7344"/><text fill="#000000" font-family="sans-serif" font-size="10" lengthAdjust="spacing" textLength="84" x="561" y="309.1152">coordinates = 'C1'</text><text fill="#000000" font-family="sans-serif" font-size="10" lengthAdjust="spacing" textLength="70" x="561" y="321.6934">filled = 'yellow'</text><rect fill="#FEFECE" filter="url(#f160y4e7poh38k)" height="52.25" style="stroke:#A80036;stroke-width:1.5;" width="96" x="7" y="275.6406"/><text fill="#000000" font-family="sans-serif" font-size="12" lengthAdjust="spacing" textLength="34" x="38" y="290.0977">cellB1</text><line style="stroke:#A80036;stroke-width:1.5;" x1="8" x2="102" y1="294.7344" y2="294.7344"/><text fill="#000000" font-family="sans-serif" font-size="10" lengthAdjust="spacing" textLength="84" x="13" y="309.1152">coordinates = 'B1'</text><text fill="#000000" font-family="sans-serif" font-size="10" lengthAdjust="spacing" textLength="55" x="13" y="321.6934">filled = 'red'</text><rect fill="#FEFECE" filter="url(#f160y4e7poh38k)" height="52.25" style="stroke:#A80036;stroke-width:1.5;" width="95" x="954.5" y="275.6406"/><text fill="#000000" font-family="sans-serif" font-size="12" lengthAdjust="spacing" textLength="33" x="985.5" y="290.0977">cellF1</text><line style="stroke:#A80036;stroke-width:1.5;" x1="955.5" x2="1048.5" y1="294.7344" y2="294.7344"/><text fill="#000000" font-family="sans-serif" font-size="10" lengthAdjust="spacing" textLength="83" x="960.5" y="309.1152">coordinates = 'F1'</text><text fill="#000000" font-family="sans-serif" font-size="10" lengthAdjust="spacing" textLength="70" x="960.5" y="321.6934">filled = 'yellow'</text><path d="M400.5,280.1406 L400.5,322.8438 A0,0 0 0 0 400.5,322.8438 L519.5,322.8438 A0,0 0 0 0 519.5,322.8438 L519.5,305.6406 L554.88,301.6406 L519.5,297.6406 L519.5,290.1406 L509.5,280.1406 L400.5,280.1406 A0,0 0 0 0 400.5,280.1406 " fill="#FBFB77" filter="url(#f160y4e7poh38k)" style="stroke:#A80036;stroke-width:1.0;"/><path d="M509.5,280.1406 L509.5,290.1406 L519.5,290.1406 L509.5,280.1406 " fill="#FBFB77" style="stroke:#A80036;stroke-width:1.0;"/><text fill="#000000" font-family="sans-serif" font-size="13" lengthAdjust="spacing" textLength="98" x="406.5" y="298.6357">rest of cells with:</text><text fill="#000000" font-family="sans-serif" font-size="13" lengthAdjust="spacing" textLength="69" x="406.5" y="314.9873">filled = false</text><rect fill="#FEFECE" filter="url(#f160y4e7poh38k)" height="64.8281" style="stroke:#A80036;stroke-width:1.5;" width="101" x="681.5" y="387.6406"/><text fill="#000000" font-family="sans-serif" font-size="12" lengthAdjust="spacing" textLength="87" x="688.5" y="402.0977">yellowChecker1</text><line style="stroke:#A80036;stroke-width:1.5;" x1="682.5" x2="781.5" y1="406.7344" y2="406.7344"/><text fill="#000000" font-family="sans-serif" font-size="10" lengthAdjust="spacing" textLength="36" x="687.5" y="421.1152">id = 'y1'</text><text fill="#000000" font-family="sans-serif" font-size="10" lengthAdjust="spacing" textLength="66" x="687.5" y="433.6934">position = 'D1'</text><text fill="#000000" font-family="sans-serif" font-size="10" lengthAdjust="spacing" textLength="70" x="687.5" y="446.2715">color = 'yellow'</text><rect fill="#FEFECE" filter="url(#f160y4e7poh38k)" height="64.8281" style="stroke:#A80036;stroke-width:1.5;" width="85" x="143.5" y="387.6406"/><text fill="#000000" font-family="sans-serif" font-size="12" lengthAdjust="spacing" textLength="71" x="150.5" y="402.0977">redChecker1</text><line style="stroke:#A80036;stroke-width:1.5;" x1="144.5" x2="227.5" y1="406.7344" y2="406.7344"/><text fill="#000000" font-family="sans-serif" font-size="10" lengthAdjust="spacing" textLength="34" x="149.5" y="421.1152">id = 'r1'</text><text fill="#000000" font-family="sans-serif" font-size="10" lengthAdjust="spacing" textLength="66" x="149.5" y="433.6934">position = 'D2'</text><text fill="#000000" font-family="sans-serif" font-size="10" lengthAdjust="spacing" textLength="55" x="149.5" y="446.2715">color = 'red'</text><rect fill="#FEFECE" filter="url(#f160y4e7poh38k)" height="64.8281" style="stroke:#A80036;stroke-width:1.5;" width="101" x="817.5" y="387.6406"/><text fill="#000000" font-family="sans-serif" font-size="12" lengthAdjust="spacing" textLength="87" x="824.5" y="402.0977">yellowChecker2</text><line style="stroke:#A80036;stroke-width:1.5;" x1="818.5" x2="917.5" y1="406.7344" y2="406.7344"/><text fill="#000000" font-family="sans-serif" font-size="10" lengthAdjust="spacing" textLength="36" x="823.5" y="421.1152">id = 'y2'</text><text fill="#000000" font-family="sans-serif" font-size="10" lengthAdjust="spacing" textLength="66" x="823.5" y="433.6934">position = 'E1'</text><text fill="#000000" font-family="sans-serif" font-size="10" lengthAdjust="spacing" textLength="70" x="823.5" y="446.2715">color = 'yellow'</text><rect fill="#FEFECE" filter="url(#f160y4e7poh38k)" height="64.8281" style="stroke:#A80036;stroke-width:1.5;" width="85" x="269.5" y="387.6406"/><text fill="#000000" font-family="sans-serif" font-size="12" lengthAdjust="spacing" textLength="71" x="276.5" y="402.0977">redChecker2</text><line style="stroke:#A80036;stroke-width:1.5;" x1="270.5" x2="353.5" y1="406.7344" y2="406.7344"/><text fill="#000000" font-family="sans-serif" font-size="10" lengthAdjust="spacing" textLength="34" x="275.5" y="421.1152">id = 'r2'</text><text fill="#000000" font-family="sans-serif" font-size="10" lengthAdjust="spacing" textLength="66" x="275.5" y="433.6934">position = 'D3'</text><text fill="#000000" font-family="sans-serif" font-size="10" lengthAdjust="spacing" textLength="55" x="275.5" y="446.2715">color = 'red'</text><rect fill="#FEFECE" filter="url(#f160y4e7poh38k)" height="64.8281" style="stroke:#A80036;stroke-width:1.5;" width="101" x="545.5" y="387.6406"/><text fill="#000000" font-family="sans-serif" font-size="12" lengthAdjust="spacing" textLength="87" x="552.5" y="402.0977">yellowChecker3</text><line style="stroke:#A80036;stroke-width:1.5;" x1="546.5" x2="645.5" y1="406.7344" y2="406.7344"/><text fill="#000000" font-family="sans-serif" font-size="10" lengthAdjust="spacing" textLength="36" x="551.5" y="421.1152">id = 'y3'</text><text fill="#000000" font-family="sans-serif" font-size="10" lengthAdjust="spacing" textLength="66" x="551.5" y="433.6934">position = 'C1'</text><text fill="#000000" font-family="sans-serif" font-size="10" lengthAdjust="spacing" textLength="70" x="551.5" y="446.2715">color = 'yellow'</text><rect fill="#FEFECE" filter="url(#f160y4e7poh38k)" height="64.8281" style="stroke:#A80036;stroke-width:1.5;" width="85" x="18.5" y="387.6406"/><text fill="#000000" font-family="sans-serif" font-size="12" lengthAdjust="spacing" textLength="71" x="25.5" y="402.0977">redChecker3</text><line style="stroke:#A80036;stroke-width:1.5;" x1="19.5" x2="102.5" y1="406.7344" y2="406.7344"/><text fill="#000000" font-family="sans-serif" font-size="10" lengthAdjust="spacing" textLength="34" x="24.5" y="421.1152">id = 'r3'</text><text fill="#000000" font-family="sans-serif" font-size="10" lengthAdjust="spacing" textLength="66" x="24.5" y="433.6934">position = 'B1'</text><text fill="#000000" font-family="sans-serif" font-size="10" lengthAdjust="spacing" textLength="55" x="24.5" y="446.2715">color = 'red'</text><rect fill="#FEFECE" filter="url(#f160y4e7poh38k)" height="64.8281" style="stroke:#A80036;stroke-width:1.5;" width="101" x="953.5" y="387.6406"/><text fill="#000000" font-family="sans-serif" font-size="12" lengthAdjust="spacing" textLength="87" x="960.5" y="402.0977">yellowChecker4</text><line style="stroke:#A80036;stroke-width:1.5;" x1="954.5" x2="1053.5" y1="406.7344" y2="406.7344"/><text fill="#000000" font-family="sans-serif" font-size="10" lengthAdjust="spacing" textLength="36" x="959.5" y="421.1152">id = 'y4'</text><text fill="#000000" font-family="sans-serif" font-size="10" lengthAdjust="spacing" textLength="65" x="959.5" y="433.6934">position = 'F1'</text><text fill="#000000" font-family="sans-serif" font-size="10" lengthAdjust="spacing" textLength="66" x="959.5" y="446.2715">color = yellow</text><!--MD5=[bcb87cb6f330d87db57a981b8131f444]
link newGame to myBoard--><path codeLine="144" d="M603,104.3106 C603,104.3106 603,136.0906 603,150.4506 " fill="none" id="newGame-myBoard" style="stroke:#A80036;stroke-width:1.0;"/><polygon fill="#A80036" points="603,163.5006,607,154.5006,603,158.5006,599,154.5006,603,163.5006" style="stroke:#A80036;stroke-width:1.0;"/><line style="stroke:#A80036;stroke-width:1.0;" x1="603" x2="603" y1="158.5006" y2="150.5006"/><polygon fill="#A80036" points="603,92.3106,599,98.3106,603,104.3106,607,98.3106,603,92.3106" style="stroke:#A80036;stroke-width:1.0;"/><!--MD5=[29c52c2502d6819d5ffc069994ea64e8]
link myBoard to cellD1--><path codeLine="146" d="M642.2351,223.6029 C642.2351,223.6029 677.84,253.4806 693.92,266.9806 " fill="none" id="myBoard-cellD1" style="stroke:#A80036;stroke-width:1.0;"/><polygon fill="#A80036" points="704.09,275.5206,699.7753,266.6672,700.2629,272.303,694.6271,272.7906,704.09,275.5206" style="stroke:#A80036;stroke-width:1.0;"/><line style="stroke:#A80036;stroke-width:1.0;" x1="700.2629" x2="694.13" y1="272.303" y2="267.1656"/><polygon fill="#A80036" points="633.05,215.8806,635.0684,222.8035,642.2351,223.6029,640.2166,216.6801,633.05,215.8806" style="stroke:#A80036;stroke-width:1.0;"/><!--MD5=[97501f5c6a2543fdf208ba892602f475]
link myBoard to cellE1--><path codeLine="147" d="M649.1369,209.866 C649.1369,209.866 759.03,255.6506 806.52,275.4406 " fill="none" id="myBoard-cellE1" style="stroke:#A80036;stroke-width:1.0;"/><polygon fill="#A80036" points="818.8,280.5606,812.0308,273.4068,814.1846,278.6375,808.9538,280.7914,818.8,280.5606" style="stroke:#A80036;stroke-width:1.0;"/><line style="stroke:#A80036;stroke-width:1.0;" x1="814.1846" x2="806.8" y1="278.6375" y2="275.5606"/><polygon fill="#A80036" points="638.06,205.2506,642.06,211.2506,649.1369,209.866,645.1369,203.866,638.06,205.2506" style="stroke:#A80036;stroke-width:1.0;"/><!--MD5=[e68aba6ba95821ba789e8c6892253033]
link myBoard to cellC1--><path codeLine="148" d="M603,227.8806 C603,227.8806 603,251.5306 603,262.1906 " fill="none" id="myBoard-cellC1" style="stroke:#A80036;stroke-width:1.0;"/><polygon fill="#A80036" points="603,275.5206,607,266.5206,603,270.5206,599,266.5206,603,275.5206" style="stroke:#A80036;stroke-width:1.0;"/><line style="stroke:#A80036;stroke-width:1.0;" x1="603" x2="603" y1="270.5206" y2="262.5206"/><polygon fill="#A80036" points="603,215.8806,599,221.8806,603,227.8806,607,221.8806,603,215.8806" style="stroke:#A80036;stroke-width:1.0;"/><!--MD5=[11e7fe8ffa1e15e2d6b474e89e3519e7]
link myBoard to cellF1--><path codeLine="149" d="M650.1647,201.2903 C650.1647,201.2903 834.06,245.0506 933,275.6406 C935.93,276.5406 938.91,277.5006 941.92,278.4906 " fill="none" id="myBoard-cellF1" style="stroke:#A80036;stroke-width:1.0;"/><polygon fill="#A80036" points="954.32,282.7006,947.0861,276.017,949.586,281.0915,944.5115,283.5914,954.32,282.7006" style="stroke:#A80036;stroke-width:1.0;"/><line style="stroke:#A80036;stroke-width:1.0;" x1="949.586" x2="942.005" y1="281.0915" y2="278.5206"/><polygon fill="#A80036" points="638.47,198.6006,643.4208,203.8437,650.1647,201.2903,645.2139,196.0472,638.47,198.6006" style="stroke:#A80036;stroke-width:1.0;"/><!--MD5=[73461758ec640bf6e49be43a5cdff709]
link myBoard to cellD2--><path codeLine="150" d="M555.8502,199.9795 C555.8502,199.9795 357.91,242.3306 251,275.6406 C249.53,276.1006 248.04,276.5706 246.55,277.0606 " fill="none" id="myBoard-cellD2" style="stroke:#A80036;stroke-width:1.0;"/><polygon fill="#A80036" points="234.03,281.3706,243.8418,282.2238,238.7578,279.7434,241.2382,274.6593,234.03,281.3706" style="stroke:#A80036;stroke-width:1.0;"/><line style="stroke:#A80036;stroke-width:1.0;" x1="238.7578" x2="246.32" y1="279.7434" y2="277.1406"/><polygon fill="#A80036" points="567.61,197.5906,560.9338,194.8651,555.8502,199.9795,562.5264,202.705,567.61,197.5906" style="stroke:#A80036;stroke-width:1.0;"/><!--MD5=[6c4fe742aa921deea437a5e97597ef29]
link myBoard to cellD3--><path codeLine="151" d="M556.7319,208.4437 C556.7319,208.4437 430.41,257.0206 377.3,277.4506 " fill="none" id="myBoard-cellD3" style="stroke:#A80036;stroke-width:1.0;"/><polygon fill="#A80036" points="365,282.1806,374.8361,282.6824,369.6666,280.3854,371.9636,275.2159,365,282.1806" style="stroke:#A80036;stroke-width:1.0;"/><line style="stroke:#A80036;stroke-width:1.0;" x1="369.6666" x2="377.135" y1="280.3854" y2="277.5106"/><polygon fill="#A80036" points="567.93,204.1306,560.8933,202.5544,556.7319,208.4437,563.7686,210.0199,567.93,204.1306" style="stroke:#A80036;stroke-width:1.0;"/><!--MD5=[7df7af5544aa7062677b314c933e1119]
link myBoard to cellB1--><path codeLine="152" d="M556.0117,195.8581 C556.0117,195.8581 276.14,232.3106 120,275.6406 C118.63,276.0206 117.25,276.4206 115.86,276.8306 " fill="none" id="myBoard-cellB1" style="stroke:#A80036;stroke-width:1.0;"/><polygon fill="#A80036" points="103.28,280.9006,113.0741,281.9378,108.0375,279.3624,110.6129,274.3258,103.28,280.9006" style="stroke:#A80036;stroke-width:1.0;"/><line style="stroke:#A80036;stroke-width:1.0;" x1="108.0375" x2="115.65" y1="279.3624" y2="276.9006"/><polygon fill="#A80036" points="567.93,194.4606,561.505,191.1866,556.0117,195.8581,562.4367,199.1322,567.93,194.4606" style="stroke:#A80036;stroke-width:1.0;"/><!--MD5=[3d87169a39abc935b38f3ba9ec8d80a3]
link cellD1 to yellowChecker1--><path codeLine="154" d="M733.3722,339.919 C733.3722,339.919 732.96,363.0406 732.78,373.9206 " fill="none" id="cellD1-yellowChecker1" style="stroke:#A80036;stroke-width:1.0;"/><polygon fill="#A80036" points="732.55,387.2406,736.6978,378.3078,732.6324,382.2413,728.6989,378.1759,732.55,387.2406" style="stroke:#A80036;stroke-width:1.0;"/><line style="stroke:#A80036;stroke-width:1.0;" x1="732.6324" x2="732.77" y1="382.2413" y2="374.2456"/><polygon fill="#FFFFFF" points="733.57,327.9206,729.4717,333.8539,733.3722,339.919,737.4706,333.9857,733.57,327.9206" style="stroke:#A80036;stroke-width:1.0;"/><!--MD5=[0f179c52457ad752ab69e80658371963]
link cellE1 to yellowChecker2--><path codeLine="155" d="M867.3255,339.9202 C867.3255,339.9202 867.52,363.0406 867.61,373.9206 " fill="none" id="cellE1-yellowChecker2" style="stroke:#A80036;stroke-width:1.0;"/><polygon fill="#A80036" points="867.73,387.2406,871.6507,378.2058,867.686,382.2408,863.651,378.2761,867.73,387.2406" style="stroke:#A80036;stroke-width:1.0;"/><line style="stroke:#A80036;stroke-width:1.0;" x1="867.686" x2="867.61" y1="382.2408" y2="374.2406"/><polygon fill="#FFFFFF" points="867.22,327.9206,863.2729,333.9556,867.3255,339.9202,871.2726,333.8852,867.22,327.9206" style="stroke:#A80036;stroke-width:1.0;"/><!--MD5=[883cf4f9a9297c2965ef287c432fceca]
link cellC1 to yellowChecker3--><path codeLine="156" d="M600.7545,339.8987 C600.7545,339.8987 599.37,363.0406 598.72,373.9206 " fill="none" id="cellC1-yellowChecker3" style="stroke:#A80036;stroke-width:1.0;"/><polygon fill="#A80036" points="597.92,387.2406,602.4563,378.4986,598.222,382.2498,594.4709,378.0155,597.92,387.2406" style="stroke:#A80036;stroke-width:1.0;"/><line style="stroke:#A80036;stroke-width:1.0;" x1="598.222" x2="598.695" y1="382.2498" y2="374.2656"/><polygon fill="#FFFFFF" points="601.48,327.9206,597.1245,333.6678,600.7545,339.8987,605.1099,334.1515,601.48,327.9206" style="stroke:#A80036;stroke-width:1.0;"/><!--MD5=[9ba2875b939987f4a149e4ff127b3310]
link cellF1 to yellowChecker4--><path codeLine="157" d="M1002.6278,339.919 C1002.6278,339.919 1003.04,363.0406 1003.22,373.9206 " fill="none" id="cellF1-yellowChecker4" style="stroke:#A80036;stroke-width:1.0;"/><polygon fill="#A80036" points="1003.45,387.2406,1007.3011,378.1759,1003.3676,382.2413,999.3022,378.3078,1003.45,387.2406" style="stroke:#A80036;stroke-width:1.0;"/><line style="stroke:#A80036;stroke-width:1.0;" x1="1003.3676" x2="1003.23" y1="382.2413" y2="374.2456"/><polygon fill="#FFFFFF" points="1002.43,327.9206,998.5294,333.9857,1002.6278,339.919,1006.5283,333.8539,1002.43,327.9206" style="stroke:#A80036;stroke-width:1.0;"/><!--MD5=[ee80ede3435b921d51424927def2f1dc]
link cellD2 to redChecker1--><path codeLine="158" d="M186,339.9206 C186,339.9206 186,363.0406 186,373.9206 " fill="none" id="cellD2-redChecker1" style="stroke:#A80036;stroke-width:1.0;"/><polygon fill="#A80036" points="186,387.2406,190,378.2406,186,382.2406,182,378.2406,186,387.2406" style="stroke:#A80036;stroke-width:1.0;"/><line style="stroke:#A80036;stroke-width:1.0;" x1="186" x2="186" y1="382.2406" y2="374.2406"/><polygon fill="#FFFFFF" points="186,327.9206,182,333.9206,186,339.9206,190,333.9206,186,327.9206" style="stroke:#A80036;stroke-width:1.0;"/><!--MD5=[cc4130258430ce995c192cac9ee2a0d4]
link cellD3 to redChecker2--><path codeLine="159" d="M315.4056,339.9096 C315.4056,339.9096 314.41,363.0406 313.94,373.9206 " fill="none" id="cellD3-redChecker2" style="stroke:#A80036;stroke-width:1.0;"/><polygon fill="#A80036" points="313.37,387.2406,317.7521,378.4204,313.5843,382.2452,309.7595,378.0774,313.37,387.2406" style="stroke:#A80036;stroke-width:1.0;"/><line style="stroke:#A80036;stroke-width:1.0;" x1="313.5843" x2="313.925" y1="382.2452" y2="374.2556"/><polygon fill="#FFFFFF" points="315.92,327.9206,311.6665,333.7437,315.4056,339.9096,319.6591,334.0866,315.92,327.9206" style="stroke:#A80036;stroke-width:1.0;"/><!--MD5=[bf6d1e648d22e5bde5f679756baf1ea6]
link cellB1 to redChecker3--><path codeLine="160" d="M56.9203,339.9046 C56.9203,339.9046 58.11,363.0406 58.67,373.9206 " fill="none" id="cellB1-redChecker3" style="stroke:#A80036;stroke-width:1.0;"/><polygon fill="#A80036" points="59.36,387.2406,62.9,378.05,59.1073,382.247,54.9102,378.4543,59.36,387.2406" style="stroke:#A80036;stroke-width:1.0;"/><line style="stroke:#A80036;stroke-width:1.0;" x1="59.1073" x2="58.685" y1="382.247" y2="374.2606"/><polygon fill="#FFFFFF" points="56.3,327.9206,52.6155,334.1194,56.9203,339.9046,60.6048,333.7058,56.3,327.9206" style="stroke:#A80036;stroke-width:1.0;"/><!--MD5=[b39d51557d6662a7f013e9743153a243]
reverse link yellowChecker1 to player1--><path codeLine="162" d="M750.29,457.5806 C758.78,474.4906 768.93,494.7406 777.85,512.5006 " fill="none" id="yellowChecker1-backto-player1" style="stroke:#A80036;stroke-width:1.0;stroke-dasharray:7.0,7.0;"/><polygon fill="#A80036" points="747.94,452.9106,748.3998,462.7487,750.1818,457.3799,755.5506,459.1619,747.94,452.9106" style="stroke:#A80036;stroke-width:1.0;"/><!--MD5=[fb2884f44273caf122ef4ee75ed51341]
reverse link yellowChecker2 to player1--><path codeLine="163" d="M849.71,457.5806 C841.22,474.4906 831.07,494.7406 822.15,512.5006 " fill="none" id="yellowChecker2-backto-player1" style="stroke:#A80036;stroke-width:1.0;stroke-dasharray:7.0,7.0;"/><polygon fill="#A80036" points="852.06,452.9106,844.4494,459.1619,849.8182,457.3799,851.6002,462.7487,852.06,452.9106" style="stroke:#A80036;stroke-width:1.0;"/><!--MD5=[ea39d9603ca80a04eedbd5423bfa2cb1]
reverse link yellowChecker3 to player1--><path codeLine="164" d="M647.86,455.5906 C680.14,477.0306 721.33,504.3806 752.71,525.2306 " fill="none" id="yellowChecker3-backto-player1" style="stroke:#A80036;stroke-width:1.0;stroke-dasharray:7.0,7.0;"/><polygon fill="#A80036" points="643.57,452.7406,648.8595,461.0485,647.7368,455.5042,653.2812,454.3816,643.57,452.7406" style="stroke:#A80036;stroke-width:1.0;"/><!--MD5=[4e3ecb52c81e7b33567c6bff26c72129]
reverse link yellowChecker4 to player1--><path codeLine="165" d="M952.14,455.5906 C919.86,477.0306 878.67,504.3806 847.29,525.2306 " fill="none" id="yellowChecker4-backto-player1" style="stroke:#A80036;stroke-width:1.0;stroke-dasharray:7.0,7.0;"/><polygon fill="#A80036" points="956.43,452.7406,946.7188,454.3816,952.2632,455.5042,951.1405,461.0485,956.43,452.7406" style="stroke:#A80036;stroke-width:1.0;"/><!--MD5=[08a922c1e333ffb6519c2e9f9e0a6705]
reverse link redChecker1 to player2--><path codeLine="166" d="M186,458.0206 C186,474.8406 186,494.8906 186,512.5006 " fill="none" id="redChecker1-backto-player2" style="stroke:#A80036;stroke-width:1.0;stroke-dasharray:7.0,7.0;"/><polygon fill="#A80036" points="186,452.9106,182,461.9106,186,457.9106,190,461.9106,186,452.9106" style="stroke:#A80036;stroke-width:1.0;"/><!--MD5=[37e12a6a105e45e19dd5e748ff5512ec]
reverse link redChecker2 to player2--><path codeLine="167" d="M278.91,456.7206 C263.03,473.8006 243.85,494.4306 227.04,512.5006 " fill="none" id="redChecker2-backto-player2" style="stroke:#A80036;stroke-width:1.0;stroke-dasharray:7.0,7.0;"/><polygon fill="#A80036" points="282.46,452.9106,273.41,456.7961,279.0627,456.5792,279.2796,462.2319,282.46,452.9106" style="stroke:#A80036;stroke-width:1.0;"/><!--MD5=[40e6c691a1d53af2828b5ba88d757948]
reverse link redChecker3 to player2--><path codeLine="168" d="M93.82,456.7206 C109.58,473.8006 128.61,494.4306 145.28,512.5006 " fill="none" id="redChecker3-backto-player2" style="stroke:#A80036;stroke-width:1.0;stroke-dasharray:7.0,7.0;"/><polygon fill="#A80036" points="90.31,452.9106,93.4708,462.2385,93.6996,456.5863,99.3518,456.8151,90.31,452.9106" style="stroke:#A80036;stroke-width:1.0;"/><!--MD5=[61fcdccfedc40428d90d5137d5123d80]
@startuml connect4- -final-state


title Connect4. Final State

object newGame
note left of newGame
    status 0 = not started
    status 1 = started
    status 2 = paused
    status 3 = finished
end note

object myBoard
object player1
object player2
object goal
object turn



object newGame {
    nGame = 1
    status = 3
}

object goal {
    name = '4 in a Line'
    status = true
    winner = player1
}

object turn {
    firstPlayer = player1
    turn = 7
    remainingTurns = 35
}

object myBoard {
    columns = 7
    rows = 6
}

object cellD1 {
    coordinates = 'D1'
    filled = 'yellow'
}

object cellD2 {
    coordinates = 'D2'
    filled = 'red'
}

object cellE1 {
    coordinates = 'E1'
    filled = 'yellow'
}

object cellD3 {
    coordinates = 'D3'
    filled = 'red'
}

object cellC1 {
    coordinates = 'C1'
    filled = 'yellow'
}

object cellB1 {
    coordinates = 'B1'
    filled = 'red'
}

object cellF1 {
    coordinates = 'F1'
    filled = 'yellow'
}

note left of cellC1
    rest of cells with:
    filled = false
end note


object yellowChecker1 {
    id = 'y1'
    position = 'D1'
    color = 'yellow'
}

object redChecker1 {
    id = 'r1'
    position = 'D2'
    color = 'red'
}

object yellowChecker2 {
    id = 'y2'
    position = 'E1'
    color = 'yellow'
}

object redChecker2 {
    id = 'r2'
    position = 'D3'
    color = 'red'
}

object yellowChecker3 {
    id = 'y3'
    position = 'C1'
    color = 'yellow'
}

object redChecker3 {
    id = 'r3'
    position = 'B1'
    color = 'red'
}

object yellowChecker4 {
    id = 'y4'
    position = 'F1'
    color = yellow
}


object player1 {
    id = 1
    name = 'vilma'
    color = 'yellow'
    checkers = 21
    usedCheckers = 4
}

object player2 {
    id = 2
    name = 'pedro'
    color = 'red'
    checkers = 21
    usedCheckers = 3
}


newGame *- -> myBoard

myBoard *- -> cellD1
myBoard *- -> cellE1
myBoard *- -> cellC1
myBoard *- -> cellF1
myBoard *- -> cellD2
myBoard *- -> cellD3
myBoard *- -> cellB1

cellD1 o- -> yellowChecker1
cellE1 o- -> yellowChecker2
cellC1 o- -> yellowChecker3
cellF1 o- -> yellowChecker4
cellD2 o- -> redChecker1
cellD3 o- -> redChecker2
cellB1 o- -> redChecker3

player1 .up.> yellowChecker1
player1 .up.> yellowChecker2
player1 .up.> yellowChecker3
player1 .up.> yellowChecker4
player2 .up.> redChecker1
player2 .up.> redChecker2
player2 .up.> redChecker3


@enduml

PlantUML version 1.2022.0(Tue Jan 11 17:16:42 CET 2022)
(GPL source distribution)
Java Runtime: Java(TM) SE Runtime Environment
JVM: Java HotSpot(TM) 64-Bit Server VM
Default Encoding: Cp1252
Language: es
Country: ES
--></g></svg>