<?xml version="1.0" encoding="UTF-8" standalone="no"?><svg xmlns="http://www.w3.org/2000/svg" xmlns:xlink="http://www.w3.org/1999/xlink" contentScriptType="application/ecmascript" contentStyleType="text/css" height="616px" preserveAspectRatio="none" style="width:1128px;height:616px;background:#FFFFFF;" version="1.1" viewBox="0 0 1128 616" width="1128px" zoomAndPan="magnify"><defs><filter height="300%" id="f1kbblktg75utn" width="300%" x="-1" y="-1"><feGaussianBlur result="blurOut" stdDeviation="2.0"/><feColorMatrix in="blurOut" result="blurOut2" type="matrix" values="0 0 0 0 0 0 0 0 0 0 0 0 0 0 0 0 0 0 .4 0"/><feOffset dx="4.0" dy="4.0" in="blurOut2" result="blurOut3"/><feBlend in="SourceGraphic" in2="blurOut3" mode="normal"/></filter></defs><g><text fill="#000000" font-family="sans-serif" font-size="18" lengthAdjust="spacing" textLength="173" x="471.25" y="18.6855">Connect4. Final State</text><rect fill="#FEFECE" filter="url(#f1kbblktg75utn)" height="52.25" style="stroke:#A80036;stroke-width:1.5;" width="71" x="627.5" y="40.1406"/><text fill="#000000" font-family="sans-serif" font-size="12" lengthAdjust="spacing" textLength="57" x="634.5" y="54.5977">newGame</text><line style="stroke:#A80036;stroke-width:1.5;" x1="628.5" x2="697.5" y1="59.2344" y2="59.2344"/><text fill="#000000" font-family="sans-serif" font-size="10" lengthAdjust="spacing" textLength="45" x="633.5" y="73.6152">intent = 1</text><text fill="#000000" font-family="sans-serif" font-size="10" lengthAdjust="spacing" textLength="44" x="633.5" y="86.1934">status = 3</text><path d="M446,28.6406 L446,104.0469 A0,0 0 0 0 446,104.0469 L592,104.0469 A0,0 0 0 0 592,104.0469 L592,70.1406 L627.29,66.1406 L592,62.1406 L592,38.6406 L582,28.6406 L446,28.6406 A0,0 0 0 0 446,28.6406 " fill="#FBFB77" filter="url(#f1kbblktg75utn)" style="stroke:#A80036;stroke-width:1.0;"/><path d="M582,28.6406 L582,38.6406 L592,38.6406 L582,28.6406 " fill="#FBFB77" style="stroke:#A80036;stroke-width:1.0;"/><text fill="#000000" font-family="sans-serif" font-size="13" lengthAdjust="spacing" textLength="125" x="452" y="47.1357">status 0 = not started</text><text fill="#000000" font-family="sans-serif" font-size="13" lengthAdjust="spacing" textLength="103" x="452" y="63.4873">status 1 = started</text><text fill="#000000" font-family="sans-serif" font-size="13" lengthAdjust="spacing" textLength="105" x="452" y="79.8389">status 2 = paused</text><text fill="#000000" font-family="sans-serif" font-size="13" lengthAdjust="spacing" textLength="107" x="452" y="96.1904">status 3 = finished</text><rect fill="#FEFECE" filter="url(#f1kbblktg75utn)" height="52.25" style="stroke:#A80036;stroke-width:1.5;" width="70" x="628" y="163.6406"/><text fill="#000000" font-family="sans-serif" font-size="12" lengthAdjust="spacing" textLength="49" x="638.5" y="178.0977">myBoard</text><line style="stroke:#A80036;stroke-width:1.5;" x1="629" x2="697" y1="182.7344" y2="182.7344"/><text fill="#000000" font-family="sans-serif" font-size="10" lengthAdjust="spacing" textLength="58" x="634" y="197.1152">columns = 7</text><text fill="#000000" font-family="sans-serif" font-size="10" lengthAdjust="spacing" textLength="38" x="634" y="209.6934">rows = 6</text><rect fill="#FEFECE" filter="url(#f1kbblktg75utn)" height="89.9844" style="stroke:#A80036;stroke-width:1.5;" width="94" x="813" y="512.6406"/><text fill="#000000" font-family="sans-serif" font-size="12" lengthAdjust="spacing" textLength="40" x="840" y="527.0977">player1</text><line style="stroke:#A80036;stroke-width:1.5;" x1="814" x2="906" y1="531.7344" y2="531.7344"/><text fill="#000000" font-family="sans-serif" font-size="10" lengthAdjust="spacing" textLength="27" x="819" y="546.1152">id = 1</text><text fill="#000000" font-family="sans-serif" font-size="10" lengthAdjust="spacing" textLength="69" x="819" y="558.6934">name = 'vilma'</text><text fill="#000000" font-family="sans-serif" font-size="10" lengthAdjust="spacing" textLength="70" x="819" y="571.2715">color = 'yellow'</text><text fill="#000000" font-family="sans-serif" font-size="10" lengthAdjust="spacing" textLength="65" x="819" y="583.8496">checkers = 21</text><text fill="#000000" font-family="sans-serif" font-size="10" lengthAdjust="spacing" textLength="82" x="819" y="596.4277">usedCheckers = 4</text><rect fill="#FEFECE" filter="url(#f1kbblktg75utn)" height="89.9844" style="stroke:#A80036;stroke-width:1.5;" width="94" x="139" y="512.6406"/><text fill="#000000" font-family="sans-serif" font-size="12" lengthAdjust="spacing" textLength="40" x="166" y="527.0977">player2</text><line style="stroke:#A80036;stroke-width:1.5;" x1="140" x2="232" y1="531.7344" y2="531.7344"/><text fill="#000000" font-family="sans-serif" font-size="10" lengthAdjust="spacing" textLength="27" x="145" y="546.1152">id = 2</text><text fill="#000000" font-family="sans-serif" font-size="10" lengthAdjust="spacing" textLength="70" x="145" y="558.6934">name = 'pedro'</text><text fill="#000000" font-family="sans-serif" font-size="10" lengthAdjust="spacing" textLength="55" x="145" y="571.2715">color = 'red'</text><text fill="#000000" font-family="sans-serif" font-size="10" lengthAdjust="spacing" textLength="65" x="145" y="583.8496">checkers = 21</text><text fill="#000000" font-family="sans-serif" font-size="10" lengthAdjust="spacing" textLength="82" x="145" y="596.4277">usedCheckers = 3</text><rect fill="#FEFECE" filter="url(#f1kbblktg75utn)" height="64.8281" style="stroke:#A80036;stroke-width:1.5;" width="106" x="734" y="33.6406"/><text fill="#000000" font-family="sans-serif" font-size="12" lengthAdjust="spacing" textLength="24" x="775" y="48.0977">goal</text><line style="stroke:#A80036;stroke-width:1.5;" x1="735" x2="839" y1="52.7344" y2="52.7344"/><text fill="#000000" font-family="sans-serif" font-size="10" lengthAdjust="spacing" textLength="94" x="740" y="67.1152">name = '4 in a Line'</text><text fill="#000000" font-family="sans-serif" font-size="10" lengthAdjust="spacing" textLength="56" x="740" y="79.6934">status = true</text><text fill="#000000" font-family="sans-serif" font-size="10" lengthAdjust="spacing" textLength="78" x="740" y="92.2715">winner = player1</text><rect fill="#FEFECE" filter="url(#f1kbblktg75utn)" height="64.8281" style="stroke:#A80036;stroke-width:1.5;" width="110" x="875" y="33.6406"/><text fill="#000000" font-family="sans-serif" font-size="12" lengthAdjust="spacing" textLength="21" x="919.5" y="48.0977">turn</text><line style="stroke:#A80036;stroke-width:1.5;" x1="876" x2="984" y1="52.7344" y2="52.7344"/><text fill="#000000" font-family="sans-serif" font-size="10" lengthAdjust="spacing" textLength="93" x="881" y="67.1152">firstPlayer = player1</text><text fill="#000000" font-family="sans-serif" font-size="10" lengthAdjust="spacing" textLength="36" x="881" y="79.6934">turn = 7</text><text fill="#000000" font-family="sans-serif" font-size="10" lengthAdjust="spacing" textLength="98" x="881" y="92.2715">remainingTurns = 35</text><rect fill="#FEFECE" filter="url(#f1kbblktg75utn)" height="52.25" style="stroke:#A80036;stroke-width:1.5;" width="96" x="746" y="275.6406"/><text fill="#000000" font-family="sans-serif" font-size="12" lengthAdjust="spacing" textLength="35" x="776.5" y="290.0977">cellD1</text><line style="stroke:#A80036;stroke-width:1.5;" x1="747" x2="841" y1="294.7344" y2="294.7344"/><text fill="#000000" font-family="sans-serif" font-size="10" lengthAdjust="spacing" textLength="84" x="752" y="309.1152">coordinates = 'D1'</text><text fill="#000000" font-family="sans-serif" font-size="10" lengthAdjust="spacing" textLength="70" x="752" y="321.6934">filled = 'yellow'</text><rect fill="#FEFECE" filter="url(#f1kbblktg75utn)" height="52.25" style="stroke:#A80036;stroke-width:1.5;" width="96" x="138" y="275.6406"/><text fill="#000000" font-family="sans-serif" font-size="12" lengthAdjust="spacing" textLength="35" x="168.5" y="290.0977">cellD2</text><line style="stroke:#A80036;stroke-width:1.5;" x1="139" x2="233" y1="294.7344" y2="294.7344"/><text fill="#000000" font-family="sans-serif" font-size="10" lengthAdjust="spacing" textLength="84" x="144" y="309.1152">coordinates = 'D2'</text><text fill="#000000" font-family="sans-serif" font-size="10" lengthAdjust="spacing" textLength="55" x="144" y="321.6934">filled = 'red'</text><rect fill="#FEFECE" filter="url(#f1kbblktg75utn)" height="52.25" style="stroke:#A80036;stroke-width:1.5;" width="96" x="879" y="275.6406"/><text fill="#000000" font-family="sans-serif" font-size="12" lengthAdjust="spacing" textLength="34" x="910" y="290.0977">cellE1</text><line style="stroke:#A80036;stroke-width:1.5;" x1="880" x2="974" y1="294.7344" y2="294.7344"/><text fill="#000000" font-family="sans-serif" font-size="10" lengthAdjust="spacing" textLength="84" x="885" y="309.1152">coordinates = 'E1'</text><text fill="#000000" font-family="sans-serif" font-size="10" lengthAdjust="spacing" textLength="70" x="885" y="321.6934">filled = 'yellow'</text><rect fill="#FEFECE" filter="url(#f1kbblktg75utn)" height="52.25" style="stroke:#A80036;stroke-width:1.5;" width="96" x="269" y="275.6406"/><text fill="#000000" font-family="sans-serif" font-size="12" lengthAdjust="spacing" textLength="35" x="299.5" y="290.0977">cellD3</text><line style="stroke:#A80036;stroke-width:1.5;" x1="270" x2="364" y1="294.7344" y2="294.7344"/><text fill="#000000" font-family="sans-serif" font-size="10" lengthAdjust="spacing" textLength="84" x="275" y="309.1152">coordinates = 'D3'</text><text fill="#000000" font-family="sans-serif" font-size="10" lengthAdjust="spacing" textLength="55" x="275" y="321.6934">filled = 'red'</text><rect fill="#FEFECE" filter="url(#f1kbblktg75utn)" height="52.25" style="stroke:#A80036;stroke-width:1.5;" width="96" x="615" y="275.6406"/><text fill="#000000" font-family="sans-serif" font-size="12" lengthAdjust="spacing" textLength="35" x="645.5" y="290.0977">cellC1</text><line style="stroke:#A80036;stroke-width:1.5;" x1="616" x2="710" y1="294.7344" y2="294.7344"/><text fill="#000000" font-family="sans-serif" font-size="10" lengthAdjust="spacing" textLength="84" x="621" y="309.1152">coordinates = 'C1'</text><text fill="#000000" font-family="sans-serif" font-size="10" lengthAdjust="spacing" textLength="70" x="621" y="321.6934">filled = 'yellow'</text><rect fill="#FEFECE" filter="url(#f1kbblktg75utn)" height="52.25" style="stroke:#A80036;stroke-width:1.5;" width="96" x="7" y="275.6406"/><text fill="#000000" font-family="sans-serif" font-size="12" lengthAdjust="spacing" textLength="34" x="38" y="290.0977">cellB1</text><line style="stroke:#A80036;stroke-width:1.5;" x1="8" x2="102" y1="294.7344" y2="294.7344"/><text fill="#000000" font-family="sans-serif" font-size="10" lengthAdjust="spacing" textLength="84" x="13" y="309.1152">coordinates = 'B1'</text><text fill="#000000" font-family="sans-serif" font-size="10" lengthAdjust="spacing" textLength="55" x="13" y="321.6934">filled = 'red'</text><rect fill="#FEFECE" filter="url(#f1kbblktg75utn)" height="52.25" style="stroke:#A80036;stroke-width:1.5;" width="95" x="1014.5" y="275.6406"/><text fill="#000000" font-family="sans-serif" font-size="12" lengthAdjust="spacing" textLength="33" x="1045.5" y="290.0977">cellF1</text><line style="stroke:#A80036;stroke-width:1.5;" x1="1015.5" x2="1108.5" y1="294.7344" y2="294.7344"/><text fill="#000000" font-family="sans-serif" font-size="10" lengthAdjust="spacing" textLength="83" x="1020.5" y="309.1152">coordinates = 'F1'</text><text fill="#000000" font-family="sans-serif" font-size="10" lengthAdjust="spacing" textLength="70" x="1020.5" y="321.6934">filled = 'yellow'</text><path d="M400,288.6406 L400,314.9922 A0,0 0 0 0 400,314.9922 L580,314.9922 A0,0 0 0 0 580,314.9922 L580,306.6406 L614.82,301.6406 L580,298.6406 L580,298.6406 L570,288.6406 L400,288.6406 A0,0 0 0 0 400,288.6406 " fill="#FBFB77" filter="url(#f1kbblktg75utn)" style="stroke:#A80036;stroke-width:1.0;"/><path d="M570,288.6406 L570,298.6406 L580,298.6406 L570,288.6406 " fill="#FBFB77" style="stroke:#A80036;stroke-width:1.0;"/><text fill="#000000" font-family="sans-serif" font-size="13" lengthAdjust="spacing" textLength="159" x="406" y="307.1357">rest of cells with filled=false</text><rect fill="#FEFECE" filter="url(#f1kbblktg75utn)" height="64.8281" style="stroke:#A80036;stroke-width:1.5;" width="101" x="741.5" y="387.6406"/><text fill="#000000" font-family="sans-serif" font-size="12" lengthAdjust="spacing" textLength="87" x="748.5" y="402.0977">yellowChecker1</text><line style="stroke:#A80036;stroke-width:1.5;" x1="742.5" x2="841.5" y1="406.7344" y2="406.7344"/><text fill="#000000" font-family="sans-serif" font-size="10" lengthAdjust="spacing" textLength="36" x="747.5" y="421.1152">id = 'y1'</text><text fill="#000000" font-family="sans-serif" font-size="10" lengthAdjust="spacing" textLength="66" x="747.5" y="433.6934">position = 'D1'</text><text fill="#000000" font-family="sans-serif" font-size="10" lengthAdjust="spacing" textLength="70" x="747.5" y="446.2715">color = 'yellow'</text><rect fill="#FEFECE" filter="url(#f1kbblktg75utn)" height="64.8281" style="stroke:#A80036;stroke-width:1.5;" width="85" x="143.5" y="387.6406"/><text fill="#000000" font-family="sans-serif" font-size="12" lengthAdjust="spacing" textLength="71" x="150.5" y="402.0977">redChecker1</text><line style="stroke:#A80036;stroke-width:1.5;" x1="144.5" x2="227.5" y1="406.7344" y2="406.7344"/><text fill="#000000" font-family="sans-serif" font-size="10" lengthAdjust="spacing" textLength="34" x="149.5" y="421.1152">id = 'r1'</text><text fill="#000000" font-family="sans-serif" font-size="10" lengthAdjust="spacing" textLength="66" x="149.5" y="433.6934">position = 'D2'</text><text fill="#000000" font-family="sans-serif" font-size="10" lengthAdjust="spacing" textLength="55" x="149.5" y="446.2715">color = 'red'</text><rect fill="#FEFECE" filter="url(#f1kbblktg75utn)" height="64.8281" style="stroke:#A80036;stroke-width:1.5;" width="101" x="877.5" y="387.6406"/><text fill="#000000" font-family="sans-serif" font-size="12" lengthAdjust="spacing" textLength="87" x="884.5" y="402.0977">yellowChecker2</text><line style="stroke:#A80036;stroke-width:1.5;" x1="878.5" x2="977.5" y1="406.7344" y2="406.7344"/><text fill="#000000" font-family="sans-serif" font-size="10" lengthAdjust="spacing" textLength="36" x="883.5" y="421.1152">id = 'y2'</text><text fill="#000000" font-family="sans-serif" font-size="10" lengthAdjust="spacing" textLength="66" x="883.5" y="433.6934">position = 'E1'</text><text fill="#000000" font-family="sans-serif" font-size="10" lengthAdjust="spacing" textLength="70" x="883.5" y="446.2715">color = 'yellow'</text><rect fill="#FEFECE" filter="url(#f1kbblktg75utn)" height="64.8281" style="stroke:#A80036;stroke-width:1.5;" width="85" x="269.5" y="387.6406"/><text fill="#000000" font-family="sans-serif" font-size="12" lengthAdjust="spacing" textLength="71" x="276.5" y="402.0977">redChecker2</text><line style="stroke:#A80036;stroke-width:1.5;" x1="270.5" x2="353.5" y1="406.7344" y2="406.7344"/><text fill="#000000" font-family="sans-serif" font-size="10" lengthAdjust="spacing" textLength="34" x="275.5" y="421.1152">id = 'r2'</text><text fill="#000000" font-family="sans-serif" font-size="10" lengthAdjust="spacing" textLength="66" x="275.5" y="433.6934">position = 'D3'</text><text fill="#000000" font-family="sans-serif" font-size="10" lengthAdjust="spacing" textLength="55" x="275.5" y="446.2715">color = 'red'</text><rect fill="#FEFECE" filter="url(#f1kbblktg75utn)" height="64.8281" style="stroke:#A80036;stroke-width:1.5;" width="101" x="605.5" y="387.6406"/><text fill="#000000" font-family="sans-serif" font-size="12" lengthAdjust="spacing" textLength="87" x="612.5" y="402.0977">yellowChecker3</text><line style="stroke:#A80036;stroke-width:1.5;" x1="606.5" x2="705.5" y1="406.7344" y2="406.7344"/><text fill="#000000" font-family="sans-serif" font-size="10" lengthAdjust="spacing" textLength="36" x="611.5" y="421.1152">id = 'y3'</text><text fill="#000000" font-family="sans-serif" font-size="10" lengthAdjust="spacing" textLength="66" x="611.5" y="433.6934">position = 'C1'</text><text fill="#000000" font-family="sans-serif" font-size="10" lengthAdjust="spacing" textLength="70" x="611.5" y="446.2715">color = 'yellow'</text><rect fill="#FEFECE" filter="url(#f1kbblktg75utn)" height="64.8281" style="stroke:#A80036;stroke-width:1.5;" width="85" x="18.5" y="387.6406"/><text fill="#000000" font-family="sans-serif" font-size="12" lengthAdjust="spacing" textLength="71" x="25.5" y="402.0977">redChecker3</text><line style="stroke:#A80036;stroke-width:1.5;" x1="19.5" x2="102.5" y1="406.7344" y2="406.7344"/><text fill="#000000" font-family="sans-serif" font-size="10" lengthAdjust="spacing" textLength="34" x="24.5" y="421.1152">id = 'r3'</text><text fill="#000000" font-family="sans-serif" font-size="10" lengthAdjust="spacing" textLength="66" x="24.5" y="433.6934">position = 'B1'</text><text fill="#000000" font-family="sans-serif" font-size="10" lengthAdjust="spacing" textLength="55" x="24.5" y="446.2715">color = 'red'</text><rect fill="#FEFECE" filter="url(#f1kbblktg75utn)" height="64.8281" style="stroke:#A80036;stroke-width:1.5;" width="101" x="1013.5" y="387.6406"/><text fill="#000000" font-family="sans-serif" font-size="12" lengthAdjust="spacing" textLength="87" x="1020.5" y="402.0977">yellowChecker4</text><line style="stroke:#A80036;stroke-width:1.5;" x1="1014.5" x2="1113.5" y1="406.7344" y2="406.7344"/><text fill="#000000" font-family="sans-serif" font-size="10" lengthAdjust="spacing" textLength="36" x="1019.5" y="421.1152">id = 'y4'</text><text fill="#000000" font-family="sans-serif" font-size="10" lengthAdjust="spacing" textLength="65" x="1019.5" y="433.6934">position = 'F1'</text><text fill="#000000" font-family="sans-serif" font-size="10" lengthAdjust="spacing" textLength="66" x="1019.5" y="446.2715">color = yellow</text><!--MD5=[bcb87cb6f330d87db57a981b8131f444]
link newGame to myBoard--><path codeLine="143" d="M663,104.3106 C663,104.3106 663,136.0906 663,150.4506 " fill="none" id="newGame-myBoard" style="stroke:#A80036;stroke-width:1.0;"/><polygon fill="#A80036" points="663,163.5006,667,154.5006,663,158.5006,659,154.5006,663,163.5006" style="stroke:#A80036;stroke-width:1.0;"/><line style="stroke:#A80036;stroke-width:1.0;" x1="663" x2="663" y1="158.5006" y2="150.5006"/><polygon fill="#A80036" points="663,92.3106,659,98.3106,663,104.3106,667,98.3106,663,92.3106" style="stroke:#A80036;stroke-width:1.0;"/><!--MD5=[29c52c2502d6819d5ffc069994ea64e8]
link myBoard to cellD1--><path codeLine="145" d="M702.2351,223.6029 C702.2351,223.6029 737.84,253.4806 753.92,266.9806 " fill="none" id="myBoard-cellD1" style="stroke:#A80036;stroke-width:1.0;"/><polygon fill="#A80036" points="764.09,275.5206,759.7753,266.6672,760.2629,272.303,754.6271,272.7906,764.09,275.5206" style="stroke:#A80036;stroke-width:1.0;"/><line style="stroke:#A80036;stroke-width:1.0;" x1="760.2629" x2="754.13" y1="272.303" y2="267.1656"/><polygon fill="#A80036" points="693.05,215.8806,695.0684,222.8035,702.2351,223.6029,700.2166,216.6801,693.05,215.8806" style="stroke:#A80036;stroke-width:1.0;"/><!--MD5=[97501f5c6a2543fdf208ba892602f475]
link myBoard to cellE1--><path codeLine="146" d="M709.1369,209.866 C709.1369,209.866 819.03,255.6506 866.52,275.4406 " fill="none" id="myBoard-cellE1" style="stroke:#A80036;stroke-width:1.0;"/><polygon fill="#A80036" points="878.8,280.5606,872.0308,273.4068,874.1846,278.6375,868.9538,280.7914,878.8,280.5606" style="stroke:#A80036;stroke-width:1.0;"/><line style="stroke:#A80036;stroke-width:1.0;" x1="874.1846" x2="866.8" y1="278.6375" y2="275.5606"/><polygon fill="#A80036" points="698.06,205.2506,702.06,211.2506,709.1369,209.866,705.1369,203.866,698.06,205.2506" style="stroke:#A80036;stroke-width:1.0;"/><!--MD5=[e68aba6ba95821ba789e8c6892253033]
link myBoard to cellC1--><path codeLine="147" d="M663,227.8806 C663,227.8806 663,251.5306 663,262.1906 " fill="none" id="myBoard-cellC1" style="stroke:#A80036;stroke-width:1.0;"/><polygon fill="#A80036" points="663,275.5206,667,266.5206,663,270.5206,659,266.5206,663,275.5206" style="stroke:#A80036;stroke-width:1.0;"/><line style="stroke:#A80036;stroke-width:1.0;" x1="663" x2="663" y1="270.5206" y2="262.5206"/><polygon fill="#A80036" points="663,215.8806,659,221.8806,663,227.8806,667,221.8806,663,215.8806" style="stroke:#A80036;stroke-width:1.0;"/><!--MD5=[11e7fe8ffa1e15e2d6b474e89e3519e7]
link myBoard to cellF1--><path codeLine="148" d="M710.1647,201.2903 C710.1647,201.2903 894.06,245.0506 993,275.6406 C995.93,276.5406 998.91,277.5006 1001.92,278.4906 " fill="none" id="myBoard-cellF1" style="stroke:#A80036;stroke-width:1.0;"/><polygon fill="#A80036" points="1014.32,282.7006,1007.0861,276.017,1009.586,281.0915,1004.5115,283.5914,1014.32,282.7006" style="stroke:#A80036;stroke-width:1.0;"/><line style="stroke:#A80036;stroke-width:1.0;" x1="1009.586" x2="1002.005" y1="281.0915" y2="278.5206"/><polygon fill="#A80036" points="698.47,198.6006,703.4208,203.8437,710.1647,201.2903,705.2139,196.0472,698.47,198.6006" style="stroke:#A80036;stroke-width:1.0;"/><!--MD5=[73461758ec640bf6e49be43a5cdff709]
link myBoard to cellD2--><path codeLine="149" d="M615.947,197.7729 C615.947,197.7729 380.25,237.7306 251,275.6406 C249.64,276.0406 248.26,276.4606 246.88,276.8906 " fill="none" id="myBoard-cellD2" style="stroke:#A80036;stroke-width:1.0;"/><polygon fill="#A80036" points="234.33,281.0606,244.1324,282.0161,239.0745,279.4828,241.6079,274.4249,234.33,281.0606" style="stroke:#A80036;stroke-width:1.0;"/><line style="stroke:#A80036;stroke-width:1.0;" x1="239.0745" x2="246.665" y1="279.4828" y2="276.9556"/><polygon fill="#A80036" points="627.8,195.9006,621.2494,192.8857,615.947,197.7729,622.4976,200.7878,627.8,195.9006" style="stroke:#A80036;stroke-width:1.0;"/><!--MD5=[6c4fe742aa921deea437a5e97597ef29]
link myBoard to cellD3--><path codeLine="150" d="M616.1403,203.6772 C616.1403,203.6772 463.01,247.8506 382,275.6406 C380.54,276.1406 379.07,276.6506 377.58,277.1706 " fill="none" id="myBoard-cellD3" style="stroke:#A80036;stroke-width:1.0;"/><polygon fill="#A80036" points="365.13,281.6806,374.9535,282.3872,369.833,279.9829,372.2372,274.8624,365.13,281.6806" style="stroke:#A80036;stroke-width:1.0;"/><line style="stroke:#A80036;stroke-width:1.0;" x1="369.833" x2="377.355" y1="279.9829" y2="277.2606"/><polygon fill="#A80036" points="627.69,200.4206,620.8296,198.199,616.1403,203.6772,623.0007,205.8988,627.69,200.4206" style="stroke:#A80036;stroke-width:1.0;"/><!--MD5=[7df7af5544aa7062677b314c933e1119]
link myBoard to cellB1--><path codeLine="151" d="M615.8988,194.6223 C615.8988,194.6223 299.02,227.7806 120,275.6406 C118.63,276.0106 117.24,276.3906 115.85,276.8006 " fill="none" id="myBoard-cellB1" style="stroke:#A80036;stroke-width:1.0;"/><polygon fill="#A80036" points="103.25,280.7906,113.0378,281.8856,108.0165,279.2805,110.6216,274.2592,103.25,280.7906" style="stroke:#A80036;stroke-width:1.0;"/><line style="stroke:#A80036;stroke-width:1.0;" x1="108.0165" x2="115.645" y1="279.2805" y2="276.8606"/><polygon fill="#A80036" points="627.85,193.5406,621.5139,190.0977,615.8988,194.6223,622.235,198.0652,627.85,193.5406" style="stroke:#A80036;stroke-width:1.0;"/><!--MD5=[3d87169a39abc935b38f3ba9ec8d80a3]
link cellD1 to yellowChecker1--><path codeLine="153" d="M793.3722,339.919 C793.3722,339.919 792.96,363.0406 792.78,373.9206 " fill="none" id="cellD1-yellowChecker1" style="stroke:#A80036;stroke-width:1.0;"/><polygon fill="#A80036" points="792.55,387.2406,796.6978,378.3078,792.6324,382.2413,788.6989,378.1759,792.55,387.2406" style="stroke:#A80036;stroke-width:1.0;"/><line style="stroke:#A80036;stroke-width:1.0;" x1="792.6324" x2="792.77" y1="382.2413" y2="374.2456"/><polygon fill="#FFFFFF" points="793.57,327.9206,789.4717,333.8539,793.3722,339.919,797.4706,333.9857,793.57,327.9206" style="stroke:#A80036;stroke-width:1.0;"/><!--MD5=[0f179c52457ad752ab69e80658371963]
link cellE1 to yellowChecker2--><path codeLine="154" d="M927.3255,339.9202 C927.3255,339.9202 927.52,363.0406 927.61,373.9206 " fill="none" id="cellE1-yellowChecker2" style="stroke:#A80036;stroke-width:1.0;"/><polygon fill="#A80036" points="927.73,387.2406,931.6507,378.2058,927.686,382.2408,923.651,378.2761,927.73,387.2406" style="stroke:#A80036;stroke-width:1.0;"/><line style="stroke:#A80036;stroke-width:1.0;" x1="927.686" x2="927.61" y1="382.2408" y2="374.2406"/><polygon fill="#FFFFFF" points="927.22,327.9206,923.2729,333.9556,927.3255,339.9202,931.2726,333.8852,927.22,327.9206" style="stroke:#A80036;stroke-width:1.0;"/><!--MD5=[883cf4f9a9297c2965ef287c432fceca]
link cellC1 to yellowChecker3--><path codeLine="155" d="M660.7545,339.8987 C660.7545,339.8987 659.37,363.0406 658.72,373.9206 " fill="none" id="cellC1-yellowChecker3" style="stroke:#A80036;stroke-width:1.0;"/><polygon fill="#A80036" points="657.92,387.2406,662.4563,378.4986,658.222,382.2498,654.4709,378.0155,657.92,387.2406" style="stroke:#A80036;stroke-width:1.0;"/><line style="stroke:#A80036;stroke-width:1.0;" x1="658.222" x2="658.695" y1="382.2498" y2="374.2656"/><polygon fill="#FFFFFF" points="661.48,327.9206,657.1245,333.6678,660.7545,339.8987,665.1099,334.1515,661.48,327.9206" style="stroke:#A80036;stroke-width:1.0;"/><!--MD5=[9ba2875b939987f4a149e4ff127b3310]
link cellF1 to yellowChecker4--><path codeLine="156" d="M1062.6278,339.919 C1062.6278,339.919 1063.04,363.0406 1063.22,373.9206 " fill="none" id="cellF1-yellowChecker4" style="stroke:#A80036;stroke-width:1.0;"/><polygon fill="#A80036" points="1063.45,387.2406,1067.3011,378.1759,1063.3676,382.2413,1059.3022,378.3078,1063.45,387.2406" style="stroke:#A80036;stroke-width:1.0;"/><line style="stroke:#A80036;stroke-width:1.0;" x1="1063.3676" x2="1063.23" y1="382.2413" y2="374.2456"/><polygon fill="#FFFFFF" points="1062.43,327.9206,1058.5294,333.9857,1062.6278,339.919,1066.5283,333.8539,1062.43,327.9206" style="stroke:#A80036;stroke-width:1.0;"/><!--MD5=[ee80ede3435b921d51424927def2f1dc]
link cellD2 to redChecker1--><path codeLine="157" d="M186,339.9206 C186,339.9206 186,363.0406 186,373.9206 " fill="none" id="cellD2-redChecker1" style="stroke:#A80036;stroke-width:1.0;"/><polygon fill="#A80036" points="186,387.2406,190,378.2406,186,382.2406,182,378.2406,186,387.2406" style="stroke:#A80036;stroke-width:1.0;"/><line style="stroke:#A80036;stroke-width:1.0;" x1="186" x2="186" y1="382.2406" y2="374.2406"/><polygon fill="#FFFFFF" points="186,327.9206,182,333.9206,186,339.9206,190,333.9206,186,327.9206" style="stroke:#A80036;stroke-width:1.0;"/><!--MD5=[cc4130258430ce995c192cac9ee2a0d4]
link cellD3 to redChecker2--><path codeLine="158" d="M315.4056,339.9096 C315.4056,339.9096 314.41,363.0406 313.94,373.9206 " fill="none" id="cellD3-redChecker2" style="stroke:#A80036;stroke-width:1.0;"/><polygon fill="#A80036" points="313.37,387.2406,317.7521,378.4204,313.5843,382.2452,309.7595,378.0774,313.37,387.2406" style="stroke:#A80036;stroke-width:1.0;"/><line style="stroke:#A80036;stroke-width:1.0;" x1="313.5843" x2="313.925" y1="382.2452" y2="374.2556"/><polygon fill="#FFFFFF" points="315.92,327.9206,311.6665,333.7437,315.4056,339.9096,319.6591,334.0866,315.92,327.9206" style="stroke:#A80036;stroke-width:1.0;"/><!--MD5=[bf6d1e648d22e5bde5f679756baf1ea6]
link cellB1 to redChecker3--><path codeLine="159" d="M56.9203,339.9046 C56.9203,339.9046 58.11,363.0406 58.67,373.9206 " fill="none" id="cellB1-redChecker3" style="stroke:#A80036;stroke-width:1.0;"/><polygon fill="#A80036" points="59.36,387.2406,62.9,378.05,59.1073,382.247,54.9102,378.4543,59.36,387.2406" style="stroke:#A80036;stroke-width:1.0;"/><line style="stroke:#A80036;stroke-width:1.0;" x1="59.1073" x2="58.685" y1="382.247" y2="374.2606"/><polygon fill="#FFFFFF" points="56.3,327.9206,52.6155,334.1194,56.9203,339.9046,60.6048,333.7058,56.3,327.9206" style="stroke:#A80036;stroke-width:1.0;"/><!--MD5=[b39d51557d6662a7f013e9743153a243]
reverse link yellowChecker1 to player1--><path codeLine="161" d="M810.29,457.5806 C818.78,474.4906 828.93,494.7406 837.85,512.5006 " fill="none" id="yellowChecker1-backto-player1" style="stroke:#A80036;stroke-width:1.0;stroke-dasharray:7.0,7.0;"/><polygon fill="#A80036" points="807.94,452.9106,808.3998,462.7487,810.1818,457.3799,815.5506,459.1619,807.94,452.9106" style="stroke:#A80036;stroke-width:1.0;"/><!--MD5=[fb2884f44273caf122ef4ee75ed51341]
reverse link yellowChecker2 to player1--><path codeLine="162" d="M909.71,457.5806 C901.22,474.4906 891.07,494.7406 882.15,512.5006 " fill="none" id="yellowChecker2-backto-player1" style="stroke:#A80036;stroke-width:1.0;stroke-dasharray:7.0,7.0;"/><polygon fill="#A80036" points="912.06,452.9106,904.4494,459.1619,909.8182,457.3799,911.6002,462.7487,912.06,452.9106" style="stroke:#A80036;stroke-width:1.0;"/><!--MD5=[ea39d9603ca80a04eedbd5423bfa2cb1]
reverse link yellowChecker3 to player1--><path codeLine="163" d="M707.86,455.5906 C740.14,477.0306 781.33,504.3806 812.71,525.2306 " fill="none" id="yellowChecker3-backto-player1" style="stroke:#A80036;stroke-width:1.0;stroke-dasharray:7.0,7.0;"/><polygon fill="#A80036" points="703.57,452.7406,708.8595,461.0485,707.7368,455.5042,713.2812,454.3816,703.57,452.7406" style="stroke:#A80036;stroke-width:1.0;"/><!--MD5=[4e3ecb52c81e7b33567c6bff26c72129]
reverse link yellowChecker4 to player1--><path codeLine="164" d="M1012.14,455.5906 C979.86,477.0306 938.67,504.3806 907.29,525.2306 " fill="none" id="yellowChecker4-backto-player1" style="stroke:#A80036;stroke-width:1.0;stroke-dasharray:7.0,7.0;"/><polygon fill="#A80036" points="1016.43,452.7406,1006.7188,454.3816,1012.2632,455.5042,1011.1405,461.0485,1016.43,452.7406" style="stroke:#A80036;stroke-width:1.0;"/><!--MD5=[08a922c1e333ffb6519c2e9f9e0a6705]
reverse link redChecker1 to player2--><path codeLine="165" d="M186,458.0206 C186,474.8406 186,494.8906 186,512.5006 " fill="none" id="redChecker1-backto-player2" style="stroke:#A80036;stroke-width:1.0;stroke-dasharray:7.0,7.0;"/><polygon fill="#A80036" points="186,452.9106,182,461.9106,186,457.9106,190,461.9106,186,452.9106" style="stroke:#A80036;stroke-width:1.0;"/><!--MD5=[37e12a6a105e45e19dd5e748ff5512ec]
reverse link redChecker2 to player2--><path codeLine="166" d="M278.91,456.7206 C263.03,473.8006 243.85,494.4306 227.04,512.5006 " fill="none" id="redChecker2-backto-player2" style="stroke:#A80036;stroke-width:1.0;stroke-dasharray:7.0,7.0;"/><polygon fill="#A80036" points="282.46,452.9106,273.41,456.7961,279.0627,456.5792,279.2796,462.2319,282.46,452.9106" style="stroke:#A80036;stroke-width:1.0;"/><!--MD5=[40e6c691a1d53af2828b5ba88d757948]
reverse link redChecker3 to player2--><path codeLine="167" d="M93.82,456.7206 C109.58,473.8006 128.61,494.4306 145.28,512.5006 " fill="none" id="redChecker3-backto-player2" style="stroke:#A80036;stroke-width:1.0;stroke-dasharray:7.0,7.0;"/><polygon fill="#A80036" points="90.31,452.9106,93.4708,462.2385,93.6996,456.5863,99.3518,456.8151,90.31,452.9106" style="stroke:#A80036;stroke-width:1.0;"/><!--MD5=[4df5ad6e1c1b5ca2ab051dcc9c789ad3]
@startuml connect4- -final-state


title Connect4. Final State

object newGame
note left of newGame
    status 0 = not started
    status 1 = started
    status 2 = paused
    status 3 = finished
end note

object myBoard
object player1
object player2
object goal
object turn



object newGame {
    intent = 1
    status = 3
}

object goal {
    name = '4 in a Line'
    status = true
    winner = player1
}

object turn {
    firstPlayer = player1
    turn = 7
    remainingTurns = 35
}

object myBoard {
    columns = 7
    rows = 6
}

object cellD1 {
    coordinates = 'D1'
    filled = 'yellow'
}

object cellD2 {
    coordinates = 'D2'
    filled = 'red'
}

object cellE1 {
    coordinates = 'E1'
    filled = 'yellow'
}

object cellD3 {
    coordinates = 'D3'
    filled = 'red'
}

object cellC1 {
    coordinates = 'C1'
    filled = 'yellow'
}

object cellB1 {
    coordinates = 'B1'
    filled = 'red'
}

object cellF1 {
    coordinates = 'F1'
    filled = 'yellow'
}

note left of cellC1
    rest of cells with filled=false
end note


object yellowChecker1 {
    id = 'y1'
    position = 'D1'
    color = 'yellow'
}

object redChecker1 {
    id = 'r1'
    position = 'D2'
    color = 'red'
}

object yellowChecker2 {
    id = 'y2'
    position = 'E1'
    color = 'yellow'
}

object redChecker2 {
    id = 'r2'
    position = 'D3'
    color = 'red'
}

object yellowChecker3 {
    id = 'y3'
    position = 'C1'
    color = 'yellow'
}

object redChecker3 {
    id = 'r3'
    position = 'B1'
    color = 'red'
}

object yellowChecker4 {
    id = 'y4'
    position = 'F1'
    color = yellow
}


object player1 {
    id = 1
    name = 'vilma'
    color = 'yellow'
    checkers = 21
    usedCheckers = 4
}

object player2 {
    id = 2
    name = 'pedro'
    color = 'red'
    checkers = 21
    usedCheckers = 3
}


newGame *- -> myBoard

myBoard *- -> cellD1
myBoard *- -> cellE1
myBoard *- -> cellC1
myBoard *- -> cellF1
myBoard *- -> cellD2
myBoard *- -> cellD3
myBoard *- -> cellB1

cellD1 o- -> yellowChecker1
cellE1 o- -> yellowChecker2
cellC1 o- -> yellowChecker3
cellF1 o- -> yellowChecker4
cellD2 o- -> redChecker1
cellD3 o- -> redChecker2
cellB1 o- -> redChecker3

player1 .up.> yellowChecker1
player1 .up.> yellowChecker2
player1 .up.> yellowChecker3
player1 .up.> yellowChecker4
player2 .up.> redChecker1
player2 .up.> redChecker2
player2 .up.> redChecker3


@enduml

PlantUML version 1.2022.0(Tue Jan 11 17:16:42 CET 2022)
(GPL source distribution)
Java Runtime: Java(TM) SE Runtime Environment
JVM: Java HotSpot(TM) 64-Bit Server VM
Default Encoding: Cp1252
Language: es
Country: ES
--></g></svg>