<?xml version="1.0" encoding="UTF-8" standalone="no"?><svg xmlns="http://www.w3.org/2000/svg" xmlns:xlink="http://www.w3.org/1999/xlink" contentScriptType="application/ecmascript" contentStyleType="text/css" height="653px" preserveAspectRatio="none" style="width:696px;height:653px;background:#FFFFFF;" version="1.1" viewBox="0 0 696 653" width="696px" zoomAndPan="magnify"><defs><filter height="300%" id="fq6khkxs3l0un" width="300%" x="-1" y="-1"><feGaussianBlur result="blurOut" stdDeviation="2.0"/><feColorMatrix in="blurOut" result="blurOut2" type="matrix" values="0 0 0 0 0 0 0 0 0 0 0 0 0 0 0 0 0 0 .4 0"/><feOffset dx="4.0" dy="4.0" in="blurOut2" result="blurOut3"/><feBlend in="SourceGraphic" in2="blurOut3" mode="normal"/></filter></defs><g><text fill="#000000" font-family="sans-serif" font-size="18" lengthAdjust="spacing" textLength="171" x="256.25" y="18.6855">Connect4 Vocabulary</text><!--MD5=[10b1f240992e2c34b6908209bf85bfd2]
class Connect4--><rect codeLine="5" fill="#FEFECE" filter="url(#fq6khkxs3l0un)" height="48" id="Connect4" style="stroke:#A80036;stroke-width:1.5;" width="85" x="114.5" y="29.6406"/><ellipse cx="129.5" cy="45.6406" fill="#ADD1B2" rx="11" ry="11" style="stroke:#A80036;stroke-width:1.0;"/><path d="M132.2656,41.5156 Q132.4219,41.2969 132.6094,41.1875 Q132.7969,41.0781 133.0156,41.0781 Q133.3906,41.0781 133.625,41.3359 Q133.8594,41.5938 133.8594,42.2031 L133.8594,43.6563 Q133.8594,44.2656 133.625,44.5313 Q133.3906,44.7969 133.0156,44.7969 Q132.6719,44.7969 132.4688,44.5938 Q132.2656,44.4063 132.1563,43.8906 Q132.1094,43.5313 131.9219,43.3438 Q131.5938,42.9688 130.9844,42.75 Q130.375,42.5313 129.75,42.5313 Q128.9844,42.5313 128.3516,42.8594 Q127.7188,43.1875 127.2266,43.9375 Q126.7344,44.6875 126.7344,45.7188 L126.7344,46.8125 Q126.7344,48.0469 127.625,48.8672 Q128.5156,49.6875 130.1094,49.6875 Q131.0469,49.6875 131.7031,49.4375 Q132.0938,49.2813 132.5156,48.8438 Q132.7813,48.5781 132.9297,48.5 Q133.0781,48.4219 133.2813,48.4219 Q133.6094,48.4219 133.8672,48.6797 Q134.125,48.9375 134.125,49.2813 Q134.125,49.625 133.7813,50.0313 Q133.2813,50.6094 132.4844,50.9375 Q131.4063,51.3906 130.1094,51.3906 Q128.5938,51.3906 127.3906,50.7656 Q126.4063,50.2656 125.7188,49.1953 Q125.0313,48.125 125.0313,46.8438 L125.0313,45.6875 Q125.0313,44.3594 125.6484,43.2109 Q126.2656,42.0625 127.3594,41.4453 Q128.4531,40.8281 129.6875,40.8281 Q130.4219,40.8281 131.0703,40.9922 Q131.7188,41.1563 132.2656,41.5156 Z " fill="#000000"/><text fill="#000000" font-family="sans-serif" font-size="12" lengthAdjust="spacing" textLength="53" x="143.5" y="50.5508">Connect4</text><line style="stroke:#A80036;stroke-width:1.5;" x1="115.5" x2="198.5" y1="61.6406" y2="61.6406"/><line style="stroke:#A80036;stroke-width:1.5;" x1="115.5" x2="198.5" y1="69.6406" y2="69.6406"/><!--MD5=[dd91eae41778c45e12552e5329e240e8]
class Turn--><rect codeLine="6" fill="#FEFECE" filter="url(#fq6khkxs3l0un)" height="48" id="Turn" style="stroke:#A80036;stroke-width:1.5;" width="57" x="128.5" y="138.6406"/><ellipse cx="143.5" cy="154.6406" fill="#ADD1B2" rx="11" ry="11" style="stroke:#A80036;stroke-width:1.0;"/><path d="M146.2656,150.5156 Q146.4219,150.2969 146.6094,150.1875 Q146.7969,150.0781 147.0156,150.0781 Q147.3906,150.0781 147.625,150.3359 Q147.8594,150.5938 147.8594,151.2031 L147.8594,152.6563 Q147.8594,153.2656 147.625,153.5313 Q147.3906,153.7969 147.0156,153.7969 Q146.6719,153.7969 146.4688,153.5938 Q146.2656,153.4063 146.1563,152.8906 Q146.1094,152.5313 145.9219,152.3438 Q145.5938,151.9688 144.9844,151.75 Q144.375,151.5313 143.75,151.5313 Q142.9844,151.5313 142.3516,151.8594 Q141.7188,152.1875 141.2266,152.9375 Q140.7344,153.6875 140.7344,154.7188 L140.7344,155.8125 Q140.7344,157.0469 141.625,157.8672 Q142.5156,158.6875 144.1094,158.6875 Q145.0469,158.6875 145.7031,158.4375 Q146.0938,158.2813 146.5156,157.8438 Q146.7813,157.5781 146.9297,157.5 Q147.0781,157.4219 147.2813,157.4219 Q147.6094,157.4219 147.8672,157.6797 Q148.125,157.9375 148.125,158.2813 Q148.125,158.625 147.7813,159.0313 Q147.2813,159.6094 146.4844,159.9375 Q145.4063,160.3906 144.1094,160.3906 Q142.5938,160.3906 141.3906,159.7656 Q140.4063,159.2656 139.7188,158.1953 Q139.0313,157.125 139.0313,155.8438 L139.0313,154.6875 Q139.0313,153.3594 139.6484,152.2109 Q140.2656,151.0625 141.3594,150.4453 Q142.4531,149.8281 143.6875,149.8281 Q144.4219,149.8281 145.0703,149.9922 Q145.7188,150.1563 146.2656,150.5156 Z " fill="#000000"/><text fill="#000000" font-family="sans-serif" font-size="12" lengthAdjust="spacing" textLength="25" x="157.5" y="159.5508">Turn</text><line style="stroke:#A80036;stroke-width:1.5;" x1="129.5" x2="184.5" y1="170.6406" y2="170.6406"/><line style="stroke:#A80036;stroke-width:1.5;" x1="129.5" x2="184.5" y1="178.6406" y2="178.6406"/><!--MD5=[2cb47ba637a0d19583e6199456f6ad0b]
class Player--><rect codeLine="7" fill="#FEFECE" filter="url(#fq6khkxs3l0un)" height="48" id="Player" style="stroke:#A80036;stroke-width:1.5;" width="66" x="189" y="247.6406"/><ellipse cx="204" cy="263.6406" fill="#ADD1B2" rx="11" ry="11" style="stroke:#A80036;stroke-width:1.0;"/><path d="M206.7656,259.5156 Q206.9219,259.2969 207.1094,259.1875 Q207.2969,259.0781 207.5156,259.0781 Q207.8906,259.0781 208.125,259.3359 Q208.3594,259.5938 208.3594,260.2031 L208.3594,261.6563 Q208.3594,262.2656 208.125,262.5313 Q207.8906,262.7969 207.5156,262.7969 Q207.1719,262.7969 206.9688,262.5938 Q206.7656,262.4063 206.6563,261.8906 Q206.6094,261.5313 206.4219,261.3438 Q206.0938,260.9688 205.4844,260.75 Q204.875,260.5313 204.25,260.5313 Q203.4844,260.5313 202.8516,260.8594 Q202.2188,261.1875 201.7266,261.9375 Q201.2344,262.6875 201.2344,263.7188 L201.2344,264.8125 Q201.2344,266.0469 202.125,266.8672 Q203.0156,267.6875 204.6094,267.6875 Q205.5469,267.6875 206.2031,267.4375 Q206.5938,267.2813 207.0156,266.8438 Q207.2813,266.5781 207.4297,266.5 Q207.5781,266.4219 207.7813,266.4219 Q208.1094,266.4219 208.3672,266.6797 Q208.625,266.9375 208.625,267.2813 Q208.625,267.625 208.2813,268.0313 Q207.7813,268.6094 206.9844,268.9375 Q205.9063,269.3906 204.6094,269.3906 Q203.0938,269.3906 201.8906,268.7656 Q200.9063,268.2656 200.2188,267.1953 Q199.5313,266.125 199.5313,264.8438 L199.5313,263.6875 Q199.5313,262.3594 200.1484,261.2109 Q200.7656,260.0625 201.8594,259.4453 Q202.9531,258.8281 204.1875,258.8281 Q204.9219,258.8281 205.5703,258.9922 Q206.2188,259.1563 206.7656,259.5156 Z " fill="#000000"/><text fill="#000000" font-family="sans-serif" font-size="12" lengthAdjust="spacing" textLength="34" x="218" y="268.5508">Player</text><line style="stroke:#A80036;stroke-width:1.5;" x1="190" x2="254" y1="279.6406" y2="279.6406"/><line style="stroke:#A80036;stroke-width:1.5;" x1="190" x2="254" y1="287.6406" y2="287.6406"/><!--MD5=[9563755d011c5cec7ec66dc53565a59e]
class Board--><rect codeLine="8" fill="#FEFECE" filter="url(#fq6khkxs3l0un)" height="48" id="Board" style="stroke:#A80036;stroke-width:1.5;" width="65" x="42.5" y="356.6406"/><ellipse cx="57.5" cy="372.6406" fill="#B4A7E5" rx="11" ry="11" style="stroke:#A80036;stroke-width:1.0;"/><path d="M58.4531,369.2813 L58.4531,375.9375 L60.1719,375.9375 Q60.7813,375.9375 61.0469,376.1719 Q61.3125,376.4063 61.3125,376.7969 Q61.3125,377.1719 61.0469,377.4063 Q60.7813,377.6406 60.1719,377.6406 L55.0313,377.6406 Q54.4219,377.6406 54.1563,377.4063 Q53.8906,377.1719 53.8906,376.7813 Q53.8906,376.4063 54.1563,376.1719 Q54.4219,375.9375 55.0313,375.9375 L56.75,375.9375 L56.75,369.2813 L55.0313,369.2813 Q54.4219,369.2813 54.1563,369.0469 Q53.8906,368.8125 53.8906,368.4219 Q53.8906,368.0469 54.1563,367.8125 Q54.4219,367.5781 55.0313,367.5781 L60.1719,367.5781 Q60.7813,367.5781 61.0469,367.8125 Q61.3125,368.0469 61.3125,368.4219 Q61.3125,368.8125 61.0469,369.0469 Q60.7813,369.2813 60.1719,369.2813 L58.4531,369.2813 Z " fill="#000000"/><text fill="#000000" font-family="sans-serif" font-size="12" font-style="italic" lengthAdjust="spacing" textLength="33" x="71.5" y="377.5508">Board</text><line style="stroke:#A80036;stroke-width:1.5;" x1="43.5" x2="106.5" y1="388.6406" y2="388.6406"/><line style="stroke:#A80036;stroke-width:1.5;" x1="43.5" x2="106.5" y1="396.6406" y2="396.6406"/><!--MD5=[fea3dc74c7473bae0133d22265a91e2f]
class Cell--><rect codeLine="9" fill="#FEFECE" filter="url(#fq6khkxs3l0un)" height="48" id="Cell" style="stroke:#A80036;stroke-width:1.5;" width="54" x="7" y="482.6406"/><ellipse cx="22" cy="498.6406" fill="#ADD1B2" rx="11" ry="11" style="stroke:#A80036;stroke-width:1.0;"/><path d="M24.7656,494.5156 Q24.9219,494.2969 25.1094,494.1875 Q25.2969,494.0781 25.5156,494.0781 Q25.8906,494.0781 26.125,494.3359 Q26.3594,494.5938 26.3594,495.2031 L26.3594,496.6563 Q26.3594,497.2656 26.125,497.5313 Q25.8906,497.7969 25.5156,497.7969 Q25.1719,497.7969 24.9688,497.5938 Q24.7656,497.4063 24.6563,496.8906 Q24.6094,496.5313 24.4219,496.3438 Q24.0938,495.9688 23.4844,495.75 Q22.875,495.5313 22.25,495.5313 Q21.4844,495.5313 20.8516,495.8594 Q20.2188,496.1875 19.7266,496.9375 Q19.2344,497.6875 19.2344,498.7188 L19.2344,499.8125 Q19.2344,501.0469 20.125,501.8672 Q21.0156,502.6875 22.6094,502.6875 Q23.5469,502.6875 24.2031,502.4375 Q24.5938,502.2813 25.0156,501.8438 Q25.2813,501.5781 25.4297,501.5 Q25.5781,501.4219 25.7813,501.4219 Q26.1094,501.4219 26.3672,501.6797 Q26.625,501.9375 26.625,502.2813 Q26.625,502.625 26.2813,503.0313 Q25.7813,503.6094 24.9844,503.9375 Q23.9063,504.3906 22.6094,504.3906 Q21.0938,504.3906 19.8906,503.7656 Q18.9063,503.2656 18.2188,502.1953 Q17.5313,501.125 17.5313,499.8438 L17.5313,498.6875 Q17.5313,497.3594 18.1484,496.2109 Q18.7656,495.0625 19.8594,494.4453 Q20.9531,493.8281 22.1875,493.8281 Q22.9219,493.8281 23.5703,493.9922 Q24.2188,494.1563 24.7656,494.5156 Z " fill="#000000"/><text fill="#000000" font-family="sans-serif" font-size="12" lengthAdjust="spacing" textLength="22" x="36" y="503.5508">Cell</text><line style="stroke:#A80036;stroke-width:1.5;" x1="8" x2="60" y1="514.6406" y2="514.6406"/><line style="stroke:#A80036;stroke-width:1.5;" x1="8" x2="60" y1="522.6406" y2="522.6406"/><!--MD5=[7aa1f1dff9826083057fe155c5dd6e52]
class Checker--><rect codeLine="10" fill="#FEFECE" filter="url(#fq6khkxs3l0un)" height="48" id="Checker" style="stroke:#A80036;stroke-width:1.5;" width="78" x="158" y="482.6406"/><ellipse cx="173" cy="498.6406" fill="#ADD1B2" rx="11" ry="11" style="stroke:#A80036;stroke-width:1.0;"/><path d="M175.7656,494.5156 Q175.9219,494.2969 176.1094,494.1875 Q176.2969,494.0781 176.5156,494.0781 Q176.8906,494.0781 177.125,494.3359 Q177.3594,494.5938 177.3594,495.2031 L177.3594,496.6563 Q177.3594,497.2656 177.125,497.5313 Q176.8906,497.7969 176.5156,497.7969 Q176.1719,497.7969 175.9688,497.5938 Q175.7656,497.4063 175.6563,496.8906 Q175.6094,496.5313 175.4219,496.3438 Q175.0938,495.9688 174.4844,495.75 Q173.875,495.5313 173.25,495.5313 Q172.4844,495.5313 171.8516,495.8594 Q171.2188,496.1875 170.7266,496.9375 Q170.2344,497.6875 170.2344,498.7188 L170.2344,499.8125 Q170.2344,501.0469 171.125,501.8672 Q172.0156,502.6875 173.6094,502.6875 Q174.5469,502.6875 175.2031,502.4375 Q175.5938,502.2813 176.0156,501.8438 Q176.2813,501.5781 176.4297,501.5 Q176.5781,501.4219 176.7813,501.4219 Q177.1094,501.4219 177.3672,501.6797 Q177.625,501.9375 177.625,502.2813 Q177.625,502.625 177.2813,503.0313 Q176.7813,503.6094 175.9844,503.9375 Q174.9063,504.3906 173.6094,504.3906 Q172.0938,504.3906 170.8906,503.7656 Q169.9063,503.2656 169.2188,502.1953 Q168.5313,501.125 168.5313,499.8438 L168.5313,498.6875 Q168.5313,497.3594 169.1484,496.2109 Q169.7656,495.0625 170.8594,494.4453 Q171.9531,493.8281 173.1875,493.8281 Q173.9219,493.8281 174.5703,493.9922 Q175.2188,494.1563 175.7656,494.5156 Z " fill="#000000"/><text fill="#000000" font-family="sans-serif" font-size="12" lengthAdjust="spacing" textLength="46" x="187" y="503.5508">Checker</text><line style="stroke:#A80036;stroke-width:1.5;" x1="159" x2="235" y1="514.6406" y2="514.6406"/><line style="stroke:#A80036;stroke-width:1.5;" x1="159" x2="235" y1="522.6406" y2="522.6406"/><!--MD5=[08be530975453a47bdc5b5370100f2fc]
class Red--><rect codeLine="11" fill="#FEFECE" filter="url(#fq6khkxs3l0un)" height="48" id="Red" style="stroke:#A80036;stroke-width:1.5;" width="55" x="72.5" y="591.6406"/><ellipse cx="87.5" cy="607.6406" fill="#ADD1B2" rx="11" ry="11" style="stroke:#A80036;stroke-width:1.0;"/><path d="M90.2656,603.5156 Q90.4219,603.2969 90.6094,603.1875 Q90.7969,603.0781 91.0156,603.0781 Q91.3906,603.0781 91.625,603.3359 Q91.8594,603.5938 91.8594,604.2031 L91.8594,605.6563 Q91.8594,606.2656 91.625,606.5313 Q91.3906,606.7969 91.0156,606.7969 Q90.6719,606.7969 90.4688,606.5938 Q90.2656,606.4063 90.1563,605.8906 Q90.1094,605.5313 89.9219,605.3438 Q89.5938,604.9688 88.9844,604.75 Q88.375,604.5313 87.75,604.5313 Q86.9844,604.5313 86.3516,604.8594 Q85.7188,605.1875 85.2266,605.9375 Q84.7344,606.6875 84.7344,607.7188 L84.7344,608.8125 Q84.7344,610.0469 85.625,610.8672 Q86.5156,611.6875 88.1094,611.6875 Q89.0469,611.6875 89.7031,611.4375 Q90.0938,611.2813 90.5156,610.8438 Q90.7813,610.5781 90.9297,610.5 Q91.0781,610.4219 91.2813,610.4219 Q91.6094,610.4219 91.8672,610.6797 Q92.125,610.9375 92.125,611.2813 Q92.125,611.625 91.7813,612.0313 Q91.2813,612.6094 90.4844,612.9375 Q89.4063,613.3906 88.1094,613.3906 Q86.5938,613.3906 85.3906,612.7656 Q84.4063,612.2656 83.7188,611.1953 Q83.0313,610.125 83.0313,608.8438 L83.0313,607.6875 Q83.0313,606.3594 83.6484,605.2109 Q84.2656,604.0625 85.3594,603.4453 Q86.4531,602.8281 87.6875,602.8281 Q88.4219,602.8281 89.0703,602.9922 Q89.7188,603.1563 90.2656,603.5156 Z " fill="#000000"/><text fill="#000000" font-family="sans-serif" font-size="12" lengthAdjust="spacing" textLength="23" x="101.5" y="612.5508">Red</text><line style="stroke:#A80036;stroke-width:1.5;" x1="73.5" x2="126.5" y1="623.6406" y2="623.6406"/><line style="stroke:#A80036;stroke-width:1.5;" x1="73.5" x2="126.5" y1="631.6406" y2="631.6406"/><!--MD5=[59a197a4e33151d5112197f2c5528c04]
class Yellow--><rect codeLine="12" fill="#FEFECE" filter="url(#fq6khkxs3l0un)" height="48" id="Yellow" style="stroke:#A80036;stroke-width:1.5;" width="68" x="163" y="591.6406"/><ellipse cx="178" cy="607.6406" fill="#ADD1B2" rx="11" ry="11" style="stroke:#A80036;stroke-width:1.0;"/><path d="M180.7656,603.5156 Q180.9219,603.2969 181.1094,603.1875 Q181.2969,603.0781 181.5156,603.0781 Q181.8906,603.0781 182.125,603.3359 Q182.3594,603.5938 182.3594,604.2031 L182.3594,605.6563 Q182.3594,606.2656 182.125,606.5313 Q181.8906,606.7969 181.5156,606.7969 Q181.1719,606.7969 180.9688,606.5938 Q180.7656,606.4063 180.6563,605.8906 Q180.6094,605.5313 180.4219,605.3438 Q180.0938,604.9688 179.4844,604.75 Q178.875,604.5313 178.25,604.5313 Q177.4844,604.5313 176.8516,604.8594 Q176.2188,605.1875 175.7266,605.9375 Q175.2344,606.6875 175.2344,607.7188 L175.2344,608.8125 Q175.2344,610.0469 176.125,610.8672 Q177.0156,611.6875 178.6094,611.6875 Q179.5469,611.6875 180.2031,611.4375 Q180.5938,611.2813 181.0156,610.8438 Q181.2813,610.5781 181.4297,610.5 Q181.5781,610.4219 181.7813,610.4219 Q182.1094,610.4219 182.3672,610.6797 Q182.625,610.9375 182.625,611.2813 Q182.625,611.625 182.2813,612.0313 Q181.7813,612.6094 180.9844,612.9375 Q179.9063,613.3906 178.6094,613.3906 Q177.0938,613.3906 175.8906,612.7656 Q174.9063,612.2656 174.2188,611.1953 Q173.5313,610.125 173.5313,608.8438 L173.5313,607.6875 Q173.5313,606.3594 174.1484,605.2109 Q174.7656,604.0625 175.8594,603.4453 Q176.9531,602.8281 178.1875,602.8281 Q178.9219,602.8281 179.5703,602.9922 Q180.2188,603.1563 180.7656,603.5156 Z " fill="#000000"/><text fill="#000000" font-family="sans-serif" font-size="12" lengthAdjust="spacing" textLength="36" x="192" y="612.5508">Yellow</text><line style="stroke:#A80036;stroke-width:1.5;" x1="164" x2="230" y1="623.6406" y2="623.6406"/><line style="stroke:#A80036;stroke-width:1.5;" x1="164" x2="230" y1="631.6406" y2="631.6406"/><!--MD5=[80913b1cc667c5997af01db625a44293]
class Put--><rect codeLine="13" fill="#FEFECE" filter="url(#fq6khkxs3l0un)" height="48" id="Put" style="stroke:#A80036;stroke-width:1.5;" width="50" x="216" y="356.6406"/><ellipse cx="231" cy="372.6406" fill="#ADD1B2" rx="11" ry="11" style="stroke:#A80036;stroke-width:1.0;"/><path d="M233.7656,368.5156 Q233.9219,368.2969 234.1094,368.1875 Q234.2969,368.0781 234.5156,368.0781 Q234.8906,368.0781 235.125,368.3359 Q235.3594,368.5938 235.3594,369.2031 L235.3594,370.6563 Q235.3594,371.2656 235.125,371.5313 Q234.8906,371.7969 234.5156,371.7969 Q234.1719,371.7969 233.9688,371.5938 Q233.7656,371.4063 233.6563,370.8906 Q233.6094,370.5313 233.4219,370.3438 Q233.0938,369.9688 232.4844,369.75 Q231.875,369.5313 231.25,369.5313 Q230.4844,369.5313 229.8516,369.8594 Q229.2188,370.1875 228.7266,370.9375 Q228.2344,371.6875 228.2344,372.7188 L228.2344,373.8125 Q228.2344,375.0469 229.125,375.8672 Q230.0156,376.6875 231.6094,376.6875 Q232.5469,376.6875 233.2031,376.4375 Q233.5938,376.2813 234.0156,375.8438 Q234.2813,375.5781 234.4297,375.5 Q234.5781,375.4219 234.7813,375.4219 Q235.1094,375.4219 235.3672,375.6797 Q235.625,375.9375 235.625,376.2813 Q235.625,376.625 235.2813,377.0313 Q234.7813,377.6094 233.9844,377.9375 Q232.9063,378.3906 231.6094,378.3906 Q230.0938,378.3906 228.8906,377.7656 Q227.9063,377.2656 227.2188,376.1953 Q226.5313,375.125 226.5313,373.8438 L226.5313,372.6875 Q226.5313,371.3594 227.1484,370.2109 Q227.7656,369.0625 228.8594,368.4453 Q229.9531,367.8281 231.1875,367.8281 Q231.9219,367.8281 232.5703,367.9922 Q233.2188,368.1563 233.7656,368.5156 Z " fill="#000000"/><text fill="#000000" font-family="sans-serif" font-size="12" lengthAdjust="spacing" textLength="18" x="245" y="377.5508">Put</text><line style="stroke:#A80036;stroke-width:1.5;" x1="217" x2="265" y1="388.6406" y2="388.6406"/><line style="stroke:#A80036;stroke-width:1.5;" x1="217" x2="265" y1="396.6406" y2="396.6406"/><!--MD5=[0992d3fdc9d3d7c02b735131bb70871d]
class Goal--><rect codeLine="14" fill="#FEFECE" filter="url(#fq6khkxs3l0un)" height="48" id="Goal" style="stroke:#A80036;stroke-width:1.5;" width="58" x="361" y="356.6406"/><ellipse cx="376" cy="372.6406" fill="#ADD1B2" rx="11" ry="11" style="stroke:#A80036;stroke-width:1.0;"/><path d="M378.7656,368.5156 Q378.9219,368.2969 379.1094,368.1875 Q379.2969,368.0781 379.5156,368.0781 Q379.8906,368.0781 380.125,368.3359 Q380.3594,368.5938 380.3594,369.2031 L380.3594,370.6563 Q380.3594,371.2656 380.125,371.5313 Q379.8906,371.7969 379.5156,371.7969 Q379.1719,371.7969 378.9688,371.5938 Q378.7656,371.4063 378.6563,370.8906 Q378.6094,370.5313 378.4219,370.3438 Q378.0938,369.9688 377.4844,369.75 Q376.875,369.5313 376.25,369.5313 Q375.4844,369.5313 374.8516,369.8594 Q374.2188,370.1875 373.7266,370.9375 Q373.2344,371.6875 373.2344,372.7188 L373.2344,373.8125 Q373.2344,375.0469 374.125,375.8672 Q375.0156,376.6875 376.6094,376.6875 Q377.5469,376.6875 378.2031,376.4375 Q378.5938,376.2813 379.0156,375.8438 Q379.2813,375.5781 379.4297,375.5 Q379.5781,375.4219 379.7813,375.4219 Q380.1094,375.4219 380.3672,375.6797 Q380.625,375.9375 380.625,376.2813 Q380.625,376.625 380.2813,377.0313 Q379.7813,377.6094 378.9844,377.9375 Q377.9063,378.3906 376.6094,378.3906 Q375.0938,378.3906 373.8906,377.7656 Q372.9063,377.2656 372.2188,376.1953 Q371.5313,375.125 371.5313,373.8438 L371.5313,372.6875 Q371.5313,371.3594 372.1484,370.2109 Q372.7656,369.0625 373.8594,368.4453 Q374.9531,367.8281 376.1875,367.8281 Q376.9219,367.8281 377.5703,367.9922 Q378.2188,368.1563 378.7656,368.5156 Z " fill="#000000"/><text fill="#000000" font-family="sans-serif" font-size="12" lengthAdjust="spacing" textLength="26" x="390" y="377.5508">Goal</text><line style="stroke:#A80036;stroke-width:1.5;" x1="362" x2="418" y1="388.6406" y2="388.6406"/><line style="stroke:#A80036;stroke-width:1.5;" x1="362" x2="418" y1="396.6406" y2="396.6406"/><!--MD5=[f14ebfaa64de903023d2cf0627cbb644]
class 4InALine--><rect codeLine="15" fill="#FEFECE" filter="url(#fq6khkxs3l0un)" height="48" id="4InALine" style="stroke:#A80036;stroke-width:1.5;" width="80" x="415" y="482.6406"/><ellipse cx="430" cy="498.6406" fill="#ADD1B2" rx="11" ry="11" style="stroke:#A80036;stroke-width:1.0;"/><path d="M432.7656,494.5156 Q432.9219,494.2969 433.1094,494.1875 Q433.2969,494.0781 433.5156,494.0781 Q433.8906,494.0781 434.125,494.3359 Q434.3594,494.5938 434.3594,495.2031 L434.3594,496.6563 Q434.3594,497.2656 434.125,497.5313 Q433.8906,497.7969 433.5156,497.7969 Q433.1719,497.7969 432.9688,497.5938 Q432.7656,497.4063 432.6563,496.8906 Q432.6094,496.5313 432.4219,496.3438 Q432.0938,495.9688 431.4844,495.75 Q430.875,495.5313 430.25,495.5313 Q429.4844,495.5313 428.8516,495.8594 Q428.2188,496.1875 427.7266,496.9375 Q427.2344,497.6875 427.2344,498.7188 L427.2344,499.8125 Q427.2344,501.0469 428.125,501.8672 Q429.0156,502.6875 430.6094,502.6875 Q431.5469,502.6875 432.2031,502.4375 Q432.5938,502.2813 433.0156,501.8438 Q433.2813,501.5781 433.4297,501.5 Q433.5781,501.4219 433.7813,501.4219 Q434.1094,501.4219 434.3672,501.6797 Q434.625,501.9375 434.625,502.2813 Q434.625,502.625 434.2813,503.0313 Q433.7813,503.6094 432.9844,503.9375 Q431.9063,504.3906 430.6094,504.3906 Q429.0938,504.3906 427.8906,503.7656 Q426.9063,503.2656 426.2188,502.1953 Q425.5313,501.125 425.5313,499.8438 L425.5313,498.6875 Q425.5313,497.3594 426.1484,496.2109 Q426.7656,495.0625 427.8594,494.4453 Q428.9531,493.8281 430.1875,493.8281 Q430.9219,493.8281 431.5703,493.9922 Q432.2188,494.1563 432.7656,494.5156 Z " fill="#000000"/><text fill="#000000" font-family="sans-serif" font-size="12" lengthAdjust="spacing" textLength="48" x="444" y="503.5508">4InALine</text><line style="stroke:#A80036;stroke-width:1.5;" x1="416" x2="494" y1="514.6406" y2="514.6406"/><line style="stroke:#A80036;stroke-width:1.5;" x1="416" x2="494" y1="522.6406" y2="522.6406"/><!--MD5=[882862e748c516aa1e2af9ad1e0606cc]
class HorizontalFigure--><rect codeLine="16" fill="#FEFECE" filter="url(#fq6khkxs3l0un)" height="48" id="HorizontalFigure" style="stroke:#A80036;stroke-width:1.5;" width="122" x="266" y="591.6406"/><ellipse cx="281" cy="607.6406" fill="#ADD1B2" rx="11" ry="11" style="stroke:#A80036;stroke-width:1.0;"/><path d="M283.7656,603.5156 Q283.9219,603.2969 284.1094,603.1875 Q284.2969,603.0781 284.5156,603.0781 Q284.8906,603.0781 285.125,603.3359 Q285.3594,603.5938 285.3594,604.2031 L285.3594,605.6563 Q285.3594,606.2656 285.125,606.5313 Q284.8906,606.7969 284.5156,606.7969 Q284.1719,606.7969 283.9688,606.5938 Q283.7656,606.4063 283.6563,605.8906 Q283.6094,605.5313 283.4219,605.3438 Q283.0938,604.9688 282.4844,604.75 Q281.875,604.5313 281.25,604.5313 Q280.4844,604.5313 279.8516,604.8594 Q279.2188,605.1875 278.7266,605.9375 Q278.2344,606.6875 278.2344,607.7188 L278.2344,608.8125 Q278.2344,610.0469 279.125,610.8672 Q280.0156,611.6875 281.6094,611.6875 Q282.5469,611.6875 283.2031,611.4375 Q283.5938,611.2813 284.0156,610.8438 Q284.2813,610.5781 284.4297,610.5 Q284.5781,610.4219 284.7813,610.4219 Q285.1094,610.4219 285.3672,610.6797 Q285.625,610.9375 285.625,611.2813 Q285.625,611.625 285.2813,612.0313 Q284.7813,612.6094 283.9844,612.9375 Q282.9063,613.3906 281.6094,613.3906 Q280.0938,613.3906 278.8906,612.7656 Q277.9063,612.2656 277.2188,611.1953 Q276.5313,610.125 276.5313,608.8438 L276.5313,607.6875 Q276.5313,606.3594 277.1484,605.2109 Q277.7656,604.0625 278.8594,603.4453 Q279.9531,602.8281 281.1875,602.8281 Q281.9219,602.8281 282.5703,602.9922 Q283.2188,603.1563 283.7656,603.5156 Z " fill="#000000"/><text fill="#000000" font-family="sans-serif" font-size="12" lengthAdjust="spacing" textLength="90" x="295" y="612.5508">HorizontalFigure</text><line style="stroke:#A80036;stroke-width:1.5;" x1="267" x2="387" y1="623.6406" y2="623.6406"/><line style="stroke:#A80036;stroke-width:1.5;" x1="267" x2="387" y1="631.6406" y2="631.6406"/><!--MD5=[ef3d3684a860c9b89ab6d7f9b437f10d]
class VerticalFigure--><rect codeLine="17" fill="#FEFECE" filter="url(#fq6khkxs3l0un)" height="48" id="VerticalFigure" style="stroke:#A80036;stroke-width:1.5;" width="107" x="423.5" y="591.6406"/><ellipse cx="438.5" cy="607.6406" fill="#ADD1B2" rx="11" ry="11" style="stroke:#A80036;stroke-width:1.0;"/><path d="M441.2656,603.5156 Q441.4219,603.2969 441.6094,603.1875 Q441.7969,603.0781 442.0156,603.0781 Q442.3906,603.0781 442.625,603.3359 Q442.8594,603.5938 442.8594,604.2031 L442.8594,605.6563 Q442.8594,606.2656 442.625,606.5313 Q442.3906,606.7969 442.0156,606.7969 Q441.6719,606.7969 441.4688,606.5938 Q441.2656,606.4063 441.1563,605.8906 Q441.1094,605.5313 440.9219,605.3438 Q440.5938,604.9688 439.9844,604.75 Q439.375,604.5313 438.75,604.5313 Q437.9844,604.5313 437.3516,604.8594 Q436.7188,605.1875 436.2266,605.9375 Q435.7344,606.6875 435.7344,607.7188 L435.7344,608.8125 Q435.7344,610.0469 436.625,610.8672 Q437.5156,611.6875 439.1094,611.6875 Q440.0469,611.6875 440.7031,611.4375 Q441.0938,611.2813 441.5156,610.8438 Q441.7813,610.5781 441.9297,610.5 Q442.0781,610.4219 442.2813,610.4219 Q442.6094,610.4219 442.8672,610.6797 Q443.125,610.9375 443.125,611.2813 Q443.125,611.625 442.7813,612.0313 Q442.2813,612.6094 441.4844,612.9375 Q440.4063,613.3906 439.1094,613.3906 Q437.5938,613.3906 436.3906,612.7656 Q435.4063,612.2656 434.7188,611.1953 Q434.0313,610.125 434.0313,608.8438 L434.0313,607.6875 Q434.0313,606.3594 434.6484,605.2109 Q435.2656,604.0625 436.3594,603.4453 Q437.4531,602.8281 438.6875,602.8281 Q439.4219,602.8281 440.0703,602.9922 Q440.7188,603.1563 441.2656,603.5156 Z " fill="#000000"/><text fill="#000000" font-family="sans-serif" font-size="12" lengthAdjust="spacing" textLength="75" x="452.5" y="612.5508">VerticalFigure</text><line style="stroke:#A80036;stroke-width:1.5;" x1="424.5" x2="529.5" y1="623.6406" y2="623.6406"/><line style="stroke:#A80036;stroke-width:1.5;" x1="424.5" x2="529.5" y1="631.6406" y2="631.6406"/><!--MD5=[1ab8c4e44b05c5e9b3cf4c2a6083ec7e]
class DiagonalFigure--><rect codeLine="18" fill="#FEFECE" filter="url(#fq6khkxs3l0un)" height="48" id="DiagonalFigure" style="stroke:#A80036;stroke-width:1.5;" width="117" x="565.5" y="591.6406"/><ellipse cx="580.5" cy="607.6406" fill="#ADD1B2" rx="11" ry="11" style="stroke:#A80036;stroke-width:1.0;"/><path d="M583.2656,603.5156 Q583.4219,603.2969 583.6094,603.1875 Q583.7969,603.0781 584.0156,603.0781 Q584.3906,603.0781 584.625,603.3359 Q584.8594,603.5938 584.8594,604.2031 L584.8594,605.6563 Q584.8594,606.2656 584.625,606.5313 Q584.3906,606.7969 584.0156,606.7969 Q583.6719,606.7969 583.4688,606.5938 Q583.2656,606.4063 583.1563,605.8906 Q583.1094,605.5313 582.9219,605.3438 Q582.5938,604.9688 581.9844,604.75 Q581.375,604.5313 580.75,604.5313 Q579.9844,604.5313 579.3516,604.8594 Q578.7188,605.1875 578.2266,605.9375 Q577.7344,606.6875 577.7344,607.7188 L577.7344,608.8125 Q577.7344,610.0469 578.625,610.8672 Q579.5156,611.6875 581.1094,611.6875 Q582.0469,611.6875 582.7031,611.4375 Q583.0938,611.2813 583.5156,610.8438 Q583.7813,610.5781 583.9297,610.5 Q584.0781,610.4219 584.2813,610.4219 Q584.6094,610.4219 584.8672,610.6797 Q585.125,610.9375 585.125,611.2813 Q585.125,611.625 584.7813,612.0313 Q584.2813,612.6094 583.4844,612.9375 Q582.4063,613.3906 581.1094,613.3906 Q579.5938,613.3906 578.3906,612.7656 Q577.4063,612.2656 576.7188,611.1953 Q576.0313,610.125 576.0313,608.8438 L576.0313,607.6875 Q576.0313,606.3594 576.6484,605.2109 Q577.2656,604.0625 578.3594,603.4453 Q579.4531,602.8281 580.6875,602.8281 Q581.4219,602.8281 582.0703,602.9922 Q582.7188,603.1563 583.2656,603.5156 Z " fill="#000000"/><text fill="#000000" font-family="sans-serif" font-size="12" lengthAdjust="spacing" textLength="85" x="594.5" y="612.5508">DiagonalFigure</text><line style="stroke:#A80036;stroke-width:1.5;" x1="566.5" x2="681.5" y1="623.6406" y2="623.6406"/><line style="stroke:#A80036;stroke-width:1.5;" x1="566.5" x2="681.5" y1="631.6406" y2="631.6406"/><!--MD5=[46750473935a00282743b47f522de7be]
link Connect4 to Player--><path codeLine="20" d="M178.8246,88.146 C178.8246,88.146 197.25,121.6606 203,138.6406 C214.26,171.8606 210.08,181.9106 215,216.6406 C215.81,222.3306 216.62,228.3506 217.4,234.2406 " fill="none" id="Connect4-Player" style="stroke:#A80036;stroke-width:1.0;"/><polygon fill="#A80036" points="219.12,247.5006,221.9291,238.0609,218.4768,242.5422,213.9955,239.0899,219.12,247.5006" style="stroke:#A80036;stroke-width:1.0;"/><line style="stroke:#A80036;stroke-width:1.0;" x1="218.4768" x2="217.45" y1="242.5422" y2="234.6056"/><polygon fill="#A80036" points="172.61,77.8806,172.2955,85.0849,178.8246,88.146,179.1391,80.9418,172.61,77.8806" style="stroke:#A80036;stroke-width:1.0;"/><text fill="#000000" font-family="sans-serif" font-size="13" lengthAdjust="spacing" textLength="7" x="205.9726" y="236.8049">2</text><!--MD5=[6824fd9902778444ee49992acd2ffe7e]
link Connect4 to Turn--><path codeLine="21" d="M157,89.8606 C157,89.8606 157,114.1406 157,125.2006 " fill="none" id="Connect4-Turn" style="stroke:#A80036;stroke-width:1.0;"/><polygon fill="#A80036" points="157,138.4706,161,129.4706,157,133.4706,153,129.4706,157,138.4706" style="stroke:#A80036;stroke-width:1.0;"/><line style="stroke:#A80036;stroke-width:1.0;" x1="157" x2="157" y1="133.4706" y2="125.4706"/><polygon fill="#A80036" points="157,77.8606,153,83.8606,157,89.8606,161,83.8606,157,77.8606" style="stroke:#A80036;stroke-width:1.0;"/><text fill="#000000" font-family="sans-serif" font-size="13" lengthAdjust="spacing" textLength="29" x="119.7719" y="127.7672">7..42</text><!--MD5=[5426a1d26e36fcd61d30da6b8a6545ec]
link Connect4 to Board--><path codeLine="22" d="M135.1257,88.1302 C135.1257,88.1302 116.72,121.6506 111,138.6406 C87.42,208.7106 79.26,295.4106 76.45,343.3906 " fill="none" id="Connect4-Board" style="stroke:#A80036;stroke-width:1.0;"/><polygon fill="#A80036" points="75.77,356.4206,80.2299,347.6394,76.0285,351.4273,72.2406,347.2259,75.77,356.4206" style="stroke:#A80036;stroke-width:1.0;"/><line style="stroke:#A80036;stroke-width:1.0;" x1="76.0285" x2="76.45" y1="351.4273" y2="343.4356"/><polygon fill="#A80036" points="141.35,77.8706,134.818,80.9256,135.1257,88.1302,141.6577,85.0752,141.35,77.8706" style="stroke:#A80036;stroke-width:1.0;"/><!--MD5=[d81713d91ad05be3b975338c4816ee0b]
link Turn to Player--><path codeLine="24" d="M171.1,186.8606 C181.15,203.4006 194.71,225.7106 205.3,243.1506 " fill="none" id="Turn-to-Player" style="stroke:#A80036;stroke-width:1.0;"/><polygon fill="#A80036" points="207.92,247.4706,206.6811,237.7,205.3307,243.1933,199.8374,241.8429,207.92,247.4706" style="stroke:#A80036;stroke-width:1.0;"/><!--MD5=[5fc9219214a6d7db882d960f5244e6cf]
link Player to Checker--><path codeLine="25" d="M213.94,295.8406 C208.56,312.5206 201.96,335.6806 199,356.6406 C193.1,398.4106 193.9,447.4206 195.27,477.5006 " fill="none" id="Player-to-Checker" style="stroke:#A80036;stroke-width:1.0;"/><polygon fill="#A80036" points="195.51,482.5306,199.0687,473.3472,195.2674,477.5365,191.0781,473.7353,195.51,482.5306" style="stroke:#A80036;stroke-width:1.0;"/><text fill="#000000" font-family="sans-serif" font-size="13" lengthAdjust="spacing" textLength="14" x="174.8219" y="471.8426">21</text><!--MD5=[c1f7e88598f78d9459764ed93737eb14]
link Player to Board--><path codeLine="26" d="M188.83,293.6206 C174.25,303.1006 157.06,314.6206 142,325.6406 C130.19,334.2806 117.61,344.2206 106.57,353.1906 " fill="none" id="Player-to-Board" style="stroke:#A80036;stroke-width:1.0;"/><polygon fill="#A80036" points="102.58,356.4506,112.0874,353.8797,106.4606,353.2977,107.0427,347.6708,102.58,356.4506" style="stroke:#A80036;stroke-width:1.0;"/><!--MD5=[1571e4e0b7cdbae74b04c97a95677c54]
link Player to Goal--><path codeLine="27" d="M255.19,293.7806 C284.54,312.4706 327.14,339.6106 356.56,358.3406 " fill="none" id="Player-to-Goal" style="stroke:#A80036;stroke-width:1.0;"/><polygon fill="#A80036" points="360.81,361.0506,355.3574,352.8489,356.5893,358.3699,351.0683,359.6019,360.81,361.0506" style="stroke:#A80036;stroke-width:1.0;"/><!--MD5=[6362d373c70c914ff64d9e096162a755]
link Player to Put--><path codeLine="28" d="M226.12,295.8606 C229.01,312.1206 232.89,333.9606 235.96,351.2606 " fill="none" id="Player-to-Put" style="stroke:#A80036;stroke-width:1.0;stroke-dasharray:7.0,7.0;"/><polygon fill="#A80036" points="236.89,356.4706,239.2571,346.9105,236.017,351.5474,231.38,348.3073,236.89,356.4706" style="stroke:#A80036;stroke-width:1.0;"/><!--MD5=[c148346f61f96d5968c9850ebe71e5d5]
link Board to Cell--><path codeLine="30" d="M63.6209,416.0666 C63.6209,416.0666 51.3,453.3106 45.84,469.8306 " fill="none" id="Board-Cell" style="stroke:#A80036;stroke-width:1.0;"/><polygon fill="#A80036" points="41.71,482.3106,48.3356,475.0236,43.2812,477.5639,40.7409,472.5096,41.71,482.3106" style="stroke:#A80036;stroke-width:1.0;"/><line style="stroke:#A80036;stroke-width:1.0;" x1="43.2812" x2="45.8" y1="477.5639" y2="469.9706"/><polygon fill="#A80036" points="67.38,404.6706,61.7018,409.1156,63.6209,416.0666,69.2991,411.6217,67.38,404.6706" style="stroke:#A80036;stroke-width:1.0;"/><text fill="#000000" font-family="sans-serif" font-size="13" lengthAdjust="spacing" textLength="21" x="20.0299" y="471.9682">7x6</text><!--MD5=[426b59f6a7e6b44dc35cddfe28235449]
link Cell to Checker--><path codeLine="31" d="M73.28,506.6406 C73.28,506.6406 121.81,506.6406 144.47,506.6406 " fill="none" id="Cell-Checker" style="stroke:#A80036;stroke-width:1.0;"/><polygon fill="#A80036" points="157.71,506.6406,148.71,502.6406,152.71,506.6406,148.71,510.6406,157.71,506.6406" style="stroke:#A80036;stroke-width:1.0;"/><line style="stroke:#A80036;stroke-width:1.0;" x1="152.71" x2="144.71" y1="506.6406" y2="506.6406"/><polygon fill="#FFFFFF" points="61.28,506.6406,67.28,510.6406,73.28,506.6406,67.28,502.6406,61.28,506.6406" style="stroke:#A80036;stroke-width:1.0;"/><polygon fill="#000000" points="78.5,494.8164,87.5451,497.7553,87.5451,491.8775,78.5,494.8164" style="stroke:#000000;stroke-width:1.0;"/><text fill="#000000" font-family="sans-serif" font-size="13" lengthAdjust="spacing" textLength="47" x="92.5" y="500.1357">to put in</text><text fill="#000000" font-family="sans-serif" font-size="13" lengthAdjust="spacing" textLength="22" x="128.0093" y="521.3877">0..1</text><!--MD5=[64c89b477b99cb240b8695075278226f]
reverse link Checker to Red--><path codeLine="33" d="M162.35,545.8606 C148.53,561.1006 133.07,578.1606 121.01,591.4706 " fill="none" id="Checker-backto-Red" style="stroke:#A80036;stroke-width:1.0;"/><polygon fill="none" points="157.33,540.9706,175.95,530.8606,167.71,550.3806,157.33,540.9706" style="stroke:#A80036;stroke-width:1.0;"/><!--MD5=[ebb7cb55d7494e57428671123e36ead2]
reverse link Checker to Yellow--><path codeLine="34" d="M197,551.2206 C197,565.0006 197,579.7006 197,591.4706 " fill="none" id="Checker-backto-Yellow" style="stroke:#A80036;stroke-width:1.0;"/><polygon fill="none" points="190,550.8606,197,530.8606,204,550.8606,190,550.8606" style="stroke:#A80036;stroke-width:1.0;"/><!--MD5=[7e51315509577d1dede857d827f99867]
link Put to Checker--><path codeLine="35" d="M232.83,404.6706 C225.53,425.2506 214.81,455.4506 207,477.4606 " fill="none" id="Put-to-Checker" style="stroke:#A80036;stroke-width:1.0;stroke-dasharray:7.0,7.0;"/><polygon fill="#A80036" points="205.28,482.3106,212.0575,475.1646,206.9508,477.5981,204.5174,472.4913,205.28,482.3106" style="stroke:#A80036;stroke-width:1.0;"/><text fill="#000000" font-family="sans-serif" font-size="13" lengthAdjust="spacing" textLength="31" x="222" y="449.1357">using</text><!--MD5=[1a07547e6d2d2e26192e1faaab7fd9fd]
link Put to Goal--><path codeLine="36" d="M278.28,380.6406 C278.28,380.6406 326.27,380.6406 347.73,380.6406 " fill="none" id="Put-Goal" style="stroke:#A80036;stroke-width:1.0;"/><polygon fill="#A80036" points="360.76,380.6406,351.76,376.6406,355.76,380.6406,351.76,384.6406,360.76,380.6406" style="stroke:#A80036;stroke-width:1.0;"/><line style="stroke:#A80036;stroke-width:1.0;" x1="355.76" x2="347.76" y1="380.6406" y2="380.6406"/><polygon fill="#FFFFFF" points="266.28,380.6406,272.28,384.6406,278.28,380.6406,272.28,376.6406,266.28,380.6406" style="stroke:#A80036;stroke-width:1.0;"/><text fill="#000000" font-family="sans-serif" font-size="13" lengthAdjust="spacing" textLength="58" x="284.5" y="374.1357">to achieve</text><!--MD5=[9e9ed493fd5293f06a1a8f33b82d0363]
reverse link Goal to 4InALine--><path codeLine="38" d="M411.37,422.4006 C421.78,442.2706 433.94,465.4606 442.77,482.3106 " fill="none" id="Goal-backto-4InALine" style="stroke:#A80036;stroke-width:1.0;"/><polygon fill="none" points="405.16,425.6406,402.07,404.6706,417.56,419.1406,405.16,425.6406" style="stroke:#A80036;stroke-width:1.0;"/><!--MD5=[575212f70d536f7796fb51488bc29761]
reverse link 4InALine to HorizontalFigure--><path codeLine="40" d="M411.86,543.7006 C392.99,559.4806 371.4,577.5306 354.72,591.4706 " fill="none" id="4InALine-backto-HorizontalFigure" style="stroke:#A80036;stroke-width:1.0;"/><polygon fill="none" points="407.39,538.3106,427.23,530.8606,416.37,549.0606,407.39,538.3106" style="stroke:#A80036;stroke-width:1.0;"/><!--MD5=[e928516c762018abd73edc99b8bd3b7f]
reverse link 4InALine to VerticalFigure--><path codeLine="41" d="M463.86,550.7306 C466.72,564.6506 469.79,579.5606 472.24,591.4706 " fill="none" id="4InALine-backto-VerticalFigure" style="stroke:#A80036;stroke-width:1.0;"/><polygon fill="none" points="456.95,551.8606,459.77,530.8606,470.66,549.0406,456.95,551.8606" style="stroke:#A80036;stroke-width:1.0;"/><!--MD5=[3f0ea8a7d15af6f17ec5ac65da8f99eb]
reverse link 4InALine to DiagonalFigure--><path codeLine="42" d="M508.6,541.5806 C534.29,557.8406 564.38,576.8906 587.4,591.4706 " fill="none" id="4InALine-backto-DiagonalFigure" style="stroke:#A80036;stroke-width:1.0;"/><polygon fill="none" points="504.82,547.4706,491.67,530.8606,512.31,535.6406,504.82,547.4706" style="stroke:#A80036;stroke-width:1.0;"/><!--MD5=[00201f659c2742f9b4a05e511969d0af]
@startuml connect4- -vocabulary


title Connect4 Vocabulary

class Connect4
class Turn
class Player
interface Board
class Cell
class Checker
Class Red
class Yellow
class Put
class Goal
class 4InALine
class HorizontalFigure
class VerticalFigure
class DiagonalFigure

Connect4 *- -> "2 " Player
Connect4 *- -> "7..42 " Turn
Connect4 *-right-> Board

Turn - -> Player
Player - -> "21 " Checker
Player - -> Board
Player -down-> Goal
Player ..> Put

Board *-down-> "7x6" Cell
Cell o-right-> "0..1" Checker : to put in <

Checker <|-down- Red
Checker <|-down- Yellow
Put ..> Checker : using
Put o-right-> Goal : to achieve

Goal <|- - 4InALine

4InALine <|-down- HorizontalFigure
4InALine <|-down- VerticalFigure
4InALine <|-down- DiagonalFigure



@enduml

PlantUML version 1.2022.0(Tue Jan 11 17:16:42 CET 2022)
(GPL source distribution)
Java Runtime: Java(TM) SE Runtime Environment
JVM: Java HotSpot(TM) 64-Bit Server VM
Default Encoding: Cp1252
Language: es
Country: ES
--></g></svg>