<?xml version="1.0" encoding="UTF-8" standalone="no"?><svg xmlns="http://www.w3.org/2000/svg" xmlns:xlink="http://www.w3.org/1999/xlink" contentScriptType="application/ecmascript" contentStyleType="text/css" height="681px" preserveAspectRatio="none" style="width:640px;height:681px;background:#FFFFFF;" version="1.1" viewBox="0 0 640 681" width="640px" zoomAndPan="magnify"><defs><filter height="300%" id="fvu0vghnyftg0" width="300%" x="-1" y="-1"><feGaussianBlur result="blurOut" stdDeviation="2.0"/><feColorMatrix in="blurOut" result="blurOut2" type="matrix" values="0 0 0 0 0 0 0 0 0 0 0 0 0 0 0 0 0 0 .4 0"/><feOffset dx="4.0" dy="4.0" in="blurOut2" result="blurOut3"/><feBlend in="SourceGraphic" in2="blurOut3" mode="normal"/></filter></defs><g><text fill="#000000" font-family="sans-serif" font-size="18" lengthAdjust="spacing" textLength="171" x="228.25" y="18.6855">Connect4 Vocabulary</text><!--MD5=[10b1f240992e2c34b6908209bf85bfd2]
class Connect4--><rect codeLine="5" fill="#FEFECE" filter="url(#fvu0vghnyftg0)" height="48" id="Connect4" style="stroke:#A80036;stroke-width:1.5;" width="85" x="117" y="29.6406"/><ellipse cx="132" cy="45.6406" fill="#ADD1B2" rx="11" ry="11" style="stroke:#A80036;stroke-width:1.0;"/><path d="M134.7656,41.5156 Q134.9219,41.2969 135.1094,41.1875 Q135.2969,41.0781 135.5156,41.0781 Q135.8906,41.0781 136.125,41.3359 Q136.3594,41.5938 136.3594,42.2031 L136.3594,43.6563 Q136.3594,44.2656 136.125,44.5313 Q135.8906,44.7969 135.5156,44.7969 Q135.1719,44.7969 134.9688,44.5938 Q134.7656,44.4063 134.6563,43.8906 Q134.6094,43.5313 134.4219,43.3438 Q134.0938,42.9688 133.4844,42.75 Q132.875,42.5313 132.25,42.5313 Q131.4844,42.5313 130.8516,42.8594 Q130.2188,43.1875 129.7266,43.9375 Q129.2344,44.6875 129.2344,45.7188 L129.2344,46.8125 Q129.2344,48.0469 130.125,48.8672 Q131.0156,49.6875 132.6094,49.6875 Q133.5469,49.6875 134.2031,49.4375 Q134.5938,49.2813 135.0156,48.8438 Q135.2813,48.5781 135.4297,48.5 Q135.5781,48.4219 135.7813,48.4219 Q136.1094,48.4219 136.3672,48.6797 Q136.625,48.9375 136.625,49.2813 Q136.625,49.625 136.2813,50.0313 Q135.7813,50.6094 134.9844,50.9375 Q133.9063,51.3906 132.6094,51.3906 Q131.0938,51.3906 129.8906,50.7656 Q128.9063,50.2656 128.2188,49.1953 Q127.5313,48.125 127.5313,46.8438 L127.5313,45.6875 Q127.5313,44.3594 128.1484,43.2109 Q128.7656,42.0625 129.8594,41.4453 Q130.9531,40.8281 132.1875,40.8281 Q132.9219,40.8281 133.5703,40.9922 Q134.2188,41.1563 134.7656,41.5156 Z " fill="#000000"/><text fill="#000000" font-family="sans-serif" font-size="12" lengthAdjust="spacing" textLength="53" x="146" y="50.5508">Connect4</text><line style="stroke:#A80036;stroke-width:1.5;" x1="118" x2="201" y1="61.6406" y2="61.6406"/><line style="stroke:#A80036;stroke-width:1.5;" x1="118" x2="201" y1="69.6406" y2="69.6406"/><!--MD5=[dd91eae41778c45e12552e5329e240e8]
class Turn--><rect codeLine="6" fill="#FEFECE" filter="url(#fvu0vghnyftg0)" height="48" id="Turn" style="stroke:#A80036;stroke-width:1.5;" width="57" x="172" y="138.6406"/><ellipse cx="187" cy="154.6406" fill="#ADD1B2" rx="11" ry="11" style="stroke:#A80036;stroke-width:1.0;"/><path d="M189.7656,150.5156 Q189.9219,150.2969 190.1094,150.1875 Q190.2969,150.0781 190.5156,150.0781 Q190.8906,150.0781 191.125,150.3359 Q191.3594,150.5938 191.3594,151.2031 L191.3594,152.6563 Q191.3594,153.2656 191.125,153.5313 Q190.8906,153.7969 190.5156,153.7969 Q190.1719,153.7969 189.9688,153.5938 Q189.7656,153.4063 189.6563,152.8906 Q189.6094,152.5313 189.4219,152.3438 Q189.0938,151.9688 188.4844,151.75 Q187.875,151.5313 187.25,151.5313 Q186.4844,151.5313 185.8516,151.8594 Q185.2188,152.1875 184.7266,152.9375 Q184.2344,153.6875 184.2344,154.7188 L184.2344,155.8125 Q184.2344,157.0469 185.125,157.8672 Q186.0156,158.6875 187.6094,158.6875 Q188.5469,158.6875 189.2031,158.4375 Q189.5938,158.2813 190.0156,157.8438 Q190.2813,157.5781 190.4297,157.5 Q190.5781,157.4219 190.7813,157.4219 Q191.1094,157.4219 191.3672,157.6797 Q191.625,157.9375 191.625,158.2813 Q191.625,158.625 191.2813,159.0313 Q190.7813,159.6094 189.9844,159.9375 Q188.9063,160.3906 187.6094,160.3906 Q186.0938,160.3906 184.8906,159.7656 Q183.9063,159.2656 183.2188,158.1953 Q182.5313,157.125 182.5313,155.8438 L182.5313,154.6875 Q182.5313,153.3594 183.1484,152.2109 Q183.7656,151.0625 184.8594,150.4453 Q185.9531,149.8281 187.1875,149.8281 Q187.9219,149.8281 188.5703,149.9922 Q189.2188,150.1563 189.7656,150.5156 Z " fill="#000000"/><text fill="#000000" font-family="sans-serif" font-size="12" lengthAdjust="spacing" textLength="25" x="201" y="159.5508">Turn</text><line style="stroke:#A80036;stroke-width:1.5;" x1="173" x2="228" y1="170.6406" y2="170.6406"/><line style="stroke:#A80036;stroke-width:1.5;" x1="173" x2="228" y1="178.6406" y2="178.6406"/><!--MD5=[2cb47ba637a0d19583e6199456f6ad0b]
class Player--><rect codeLine="7" fill="#FEFECE" filter="url(#fvu0vghnyftg0)" height="48" id="Player" style="stroke:#A80036;stroke-width:1.5;" width="66" x="148.5" y="247.6406"/><ellipse cx="163.5" cy="263.6406" fill="#ADD1B2" rx="11" ry="11" style="stroke:#A80036;stroke-width:1.0;"/><path d="M166.2656,259.5156 Q166.4219,259.2969 166.6094,259.1875 Q166.7969,259.0781 167.0156,259.0781 Q167.3906,259.0781 167.625,259.3359 Q167.8594,259.5938 167.8594,260.2031 L167.8594,261.6563 Q167.8594,262.2656 167.625,262.5313 Q167.3906,262.7969 167.0156,262.7969 Q166.6719,262.7969 166.4688,262.5938 Q166.2656,262.4063 166.1563,261.8906 Q166.1094,261.5313 165.9219,261.3438 Q165.5938,260.9688 164.9844,260.75 Q164.375,260.5313 163.75,260.5313 Q162.9844,260.5313 162.3516,260.8594 Q161.7188,261.1875 161.2266,261.9375 Q160.7344,262.6875 160.7344,263.7188 L160.7344,264.8125 Q160.7344,266.0469 161.625,266.8672 Q162.5156,267.6875 164.1094,267.6875 Q165.0469,267.6875 165.7031,267.4375 Q166.0938,267.2813 166.5156,266.8438 Q166.7813,266.5781 166.9297,266.5 Q167.0781,266.4219 167.2813,266.4219 Q167.6094,266.4219 167.8672,266.6797 Q168.125,266.9375 168.125,267.2813 Q168.125,267.625 167.7813,268.0313 Q167.2813,268.6094 166.4844,268.9375 Q165.4063,269.3906 164.1094,269.3906 Q162.5938,269.3906 161.3906,268.7656 Q160.4063,268.2656 159.7188,267.1953 Q159.0313,266.125 159.0313,264.8438 L159.0313,263.6875 Q159.0313,262.3594 159.6484,261.2109 Q160.2656,260.0625 161.3594,259.4453 Q162.4531,258.8281 163.6875,258.8281 Q164.4219,258.8281 165.0703,258.9922 Q165.7188,259.1563 166.2656,259.5156 Z " fill="#000000"/><text fill="#000000" font-family="sans-serif" font-size="12" lengthAdjust="spacing" textLength="34" x="177.5" y="268.5508">Player</text><line style="stroke:#A80036;stroke-width:1.5;" x1="149.5" x2="213.5" y1="279.6406" y2="279.6406"/><line style="stroke:#A80036;stroke-width:1.5;" x1="149.5" x2="213.5" y1="287.6406" y2="287.6406"/><!--MD5=[9563755d011c5cec7ec66dc53565a59e]
class Board--><rect codeLine="8" fill="#FEFECE" filter="url(#fvu0vghnyftg0)" height="48" id="Board" style="stroke:#A80036;stroke-width:1.5;" width="65" x="7" y="356.6406"/><ellipse cx="22" cy="372.6406" fill="#B4A7E5" rx="11" ry="11" style="stroke:#A80036;stroke-width:1.0;"/><path d="M22.9531,369.2813 L22.9531,375.9375 L24.6719,375.9375 Q25.2813,375.9375 25.5469,376.1719 Q25.8125,376.4063 25.8125,376.7969 Q25.8125,377.1719 25.5469,377.4063 Q25.2813,377.6406 24.6719,377.6406 L19.5313,377.6406 Q18.9219,377.6406 18.6563,377.4063 Q18.3906,377.1719 18.3906,376.7813 Q18.3906,376.4063 18.6563,376.1719 Q18.9219,375.9375 19.5313,375.9375 L21.25,375.9375 L21.25,369.2813 L19.5313,369.2813 Q18.9219,369.2813 18.6563,369.0469 Q18.3906,368.8125 18.3906,368.4219 Q18.3906,368.0469 18.6563,367.8125 Q18.9219,367.5781 19.5313,367.5781 L24.6719,367.5781 Q25.2813,367.5781 25.5469,367.8125 Q25.8125,368.0469 25.8125,368.4219 Q25.8125,368.8125 25.5469,369.0469 Q25.2813,369.2813 24.6719,369.2813 L22.9531,369.2813 Z " fill="#000000"/><text fill="#000000" font-family="sans-serif" font-size="12" font-style="italic" lengthAdjust="spacing" textLength="33" x="36" y="377.5508">Board</text><line style="stroke:#A80036;stroke-width:1.5;" x1="8" x2="71" y1="388.6406" y2="388.6406"/><line style="stroke:#A80036;stroke-width:1.5;" x1="8" x2="71" y1="396.6406" y2="396.6406"/><!--MD5=[fea3dc74c7473bae0133d22265a91e2f]
class Cell--><rect codeLine="9" fill="#FEFECE" filter="url(#fvu0vghnyftg0)" height="48" id="Cell" style="stroke:#A80036;stroke-width:1.5;" width="54" x="12.5" y="482.6406"/><ellipse cx="27.5" cy="498.6406" fill="#ADD1B2" rx="11" ry="11" style="stroke:#A80036;stroke-width:1.0;"/><path d="M30.2656,494.5156 Q30.4219,494.2969 30.6094,494.1875 Q30.7969,494.0781 31.0156,494.0781 Q31.3906,494.0781 31.625,494.3359 Q31.8594,494.5938 31.8594,495.2031 L31.8594,496.6563 Q31.8594,497.2656 31.625,497.5313 Q31.3906,497.7969 31.0156,497.7969 Q30.6719,497.7969 30.4688,497.5938 Q30.2656,497.4063 30.1563,496.8906 Q30.1094,496.5313 29.9219,496.3438 Q29.5938,495.9688 28.9844,495.75 Q28.375,495.5313 27.75,495.5313 Q26.9844,495.5313 26.3516,495.8594 Q25.7188,496.1875 25.2266,496.9375 Q24.7344,497.6875 24.7344,498.7188 L24.7344,499.8125 Q24.7344,501.0469 25.625,501.8672 Q26.5156,502.6875 28.1094,502.6875 Q29.0469,502.6875 29.7031,502.4375 Q30.0938,502.2813 30.5156,501.8438 Q30.7813,501.5781 30.9297,501.5 Q31.0781,501.4219 31.2813,501.4219 Q31.6094,501.4219 31.8672,501.6797 Q32.125,501.9375 32.125,502.2813 Q32.125,502.625 31.7813,503.0313 Q31.2813,503.6094 30.4844,503.9375 Q29.4063,504.3906 28.1094,504.3906 Q26.5938,504.3906 25.3906,503.7656 Q24.4063,503.2656 23.7188,502.1953 Q23.0313,501.125 23.0313,499.8438 L23.0313,498.6875 Q23.0313,497.3594 23.6484,496.2109 Q24.2656,495.0625 25.3594,494.4453 Q26.4531,493.8281 27.6875,493.8281 Q28.4219,493.8281 29.0703,493.9922 Q29.7188,494.1563 30.2656,494.5156 Z " fill="#000000"/><text fill="#000000" font-family="sans-serif" font-size="12" lengthAdjust="spacing" textLength="22" x="41.5" y="503.5508">Cell</text><line style="stroke:#A80036;stroke-width:1.5;" x1="13.5" x2="65.5" y1="514.6406" y2="514.6406"/><line style="stroke:#A80036;stroke-width:1.5;" x1="13.5" x2="65.5" y1="522.6406" y2="522.6406"/><!--MD5=[7aa1f1dff9826083057fe155c5dd6e52]
class Checker--><rect codeLine="10" fill="#FEFECE" filter="url(#fvu0vghnyftg0)" height="48" id="Checker" style="stroke:#A80036;stroke-width:1.5;" width="78" x="163.5" y="482.6406"/><ellipse cx="178.5" cy="498.6406" fill="#ADD1B2" rx="11" ry="11" style="stroke:#A80036;stroke-width:1.0;"/><path d="M181.2656,494.5156 Q181.4219,494.2969 181.6094,494.1875 Q181.7969,494.0781 182.0156,494.0781 Q182.3906,494.0781 182.625,494.3359 Q182.8594,494.5938 182.8594,495.2031 L182.8594,496.6563 Q182.8594,497.2656 182.625,497.5313 Q182.3906,497.7969 182.0156,497.7969 Q181.6719,497.7969 181.4688,497.5938 Q181.2656,497.4063 181.1563,496.8906 Q181.1094,496.5313 180.9219,496.3438 Q180.5938,495.9688 179.9844,495.75 Q179.375,495.5313 178.75,495.5313 Q177.9844,495.5313 177.3516,495.8594 Q176.7188,496.1875 176.2266,496.9375 Q175.7344,497.6875 175.7344,498.7188 L175.7344,499.8125 Q175.7344,501.0469 176.625,501.8672 Q177.5156,502.6875 179.1094,502.6875 Q180.0469,502.6875 180.7031,502.4375 Q181.0938,502.2813 181.5156,501.8438 Q181.7813,501.5781 181.9297,501.5 Q182.0781,501.4219 182.2813,501.4219 Q182.6094,501.4219 182.8672,501.6797 Q183.125,501.9375 183.125,502.2813 Q183.125,502.625 182.7813,503.0313 Q182.2813,503.6094 181.4844,503.9375 Q180.4063,504.3906 179.1094,504.3906 Q177.5938,504.3906 176.3906,503.7656 Q175.4063,503.2656 174.7188,502.1953 Q174.0313,501.125 174.0313,499.8438 L174.0313,498.6875 Q174.0313,497.3594 174.6484,496.2109 Q175.2656,495.0625 176.3594,494.4453 Q177.4531,493.8281 178.6875,493.8281 Q179.4219,493.8281 180.0703,493.9922 Q180.7188,494.1563 181.2656,494.5156 Z " fill="#000000"/><text fill="#000000" font-family="sans-serif" font-size="12" lengthAdjust="spacing" textLength="46" x="192.5" y="503.5508">Checker</text><line style="stroke:#A80036;stroke-width:1.5;" x1="164.5" x2="240.5" y1="514.6406" y2="514.6406"/><line style="stroke:#A80036;stroke-width:1.5;" x1="164.5" x2="240.5" y1="522.6406" y2="522.6406"/><!--MD5=[18eee71c88ab61f27581b8cbdd3ef5ee]
class Color--><rect codeLine="11" fill="#FEFECE" filter="url(#fvu0vghnyftg0)" height="75.6719" id="Color" style="stroke:#A80036;stroke-width:1.5;" width="62" x="112.5" y="591.6406"/><ellipse cx="127.5" cy="607.6406" fill="#EB937F" rx="11" ry="11" style="stroke:#A80036;stroke-width:1.0;"/><path d="M126.3594,608.4375 L126.3594,610.9375 L130.6875,610.9375 L130.6875,610.0156 Q130.6875,609.4063 130.9297,609.1406 Q131.1719,608.875 131.5469,608.875 Q131.9219,608.875 132.1563,609.1406 Q132.3906,609.4063 132.3906,610.0156 L132.3906,612.6406 L124.3906,612.6406 Q123.7656,612.6406 123.5078,612.4063 Q123.25,612.1719 123.25,611.7813 Q123.25,611.4063 123.5156,611.1719 Q123.7813,610.9375 124.3906,610.9375 L124.6563,610.9375 L124.6563,604.2813 L124.3906,604.2813 Q123.7656,604.2813 123.5078,604.0469 Q123.25,603.8125 123.25,603.4219 Q123.25,603.0469 123.5078,602.8125 Q123.7656,602.5781 124.3906,602.5781 L132.0156,602.5781 L132.0156,605.1719 Q132.0156,605.7813 131.7891,606.0391 Q131.5625,606.2969 131.1719,606.2969 Q130.7969,606.2969 130.5625,606.0391 Q130.3281,605.7813 130.3281,605.1719 L130.3281,604.2813 L126.3594,604.2813 L126.3594,606.7344 L127.8438,606.7344 Q127.8438,606.0781 127.9688,605.8906 Q128.2344,605.4844 128.7031,605.4844 Q129.0781,605.4844 129.3125,605.7422 Q129.5469,606 129.5469,606.6094 L129.5469,608.5781 Q129.5469,609.125 129.4219,609.3125 Q129.1563,609.7031 128.7031,609.7031 Q128.2344,609.7031 127.9688,609.2969 Q127.8438,609.1094 127.8438,608.4375 L126.3594,608.4375 Z " fill="#000000"/><text fill="#000000" font-family="sans-serif" font-size="12" lengthAdjust="spacing" textLength="30" x="141.5" y="612.5508">Color</text><line style="stroke:#A80036;stroke-width:1.5;" x1="113.5" x2="173.5" y1="623.6406" y2="623.6406"/><text fill="#000000" font-family="sans-serif" font-size="11" lengthAdjust="spacing" textLength="22" x="118.5" y="639.0596">Red,</text><text fill="#000000" font-family="sans-serif" font-size="11" lengthAdjust="spacing" textLength="34" x="118.5" y="652.8955">Yellow</text><line style="stroke:#A80036;stroke-width:1.5;" x1="113.5" x2="173.5" y1="659.3125" y2="659.3125"/><!--MD5=[80913b1cc667c5997af01db625a44293]
class Put--><rect codeLine="15" fill="#FEFECE" filter="url(#fvu0vghnyftg0)" height="48" id="Put" style="stroke:#A80036;stroke-width:1.5;" width="50" x="178.5" y="356.6406"/><ellipse cx="193.5" cy="372.6406" fill="#ADD1B2" rx="11" ry="11" style="stroke:#A80036;stroke-width:1.0;"/><path d="M196.2656,368.5156 Q196.4219,368.2969 196.6094,368.1875 Q196.7969,368.0781 197.0156,368.0781 Q197.3906,368.0781 197.625,368.3359 Q197.8594,368.5938 197.8594,369.2031 L197.8594,370.6563 Q197.8594,371.2656 197.625,371.5313 Q197.3906,371.7969 197.0156,371.7969 Q196.6719,371.7969 196.4688,371.5938 Q196.2656,371.4063 196.1563,370.8906 Q196.1094,370.5313 195.9219,370.3438 Q195.5938,369.9688 194.9844,369.75 Q194.375,369.5313 193.75,369.5313 Q192.9844,369.5313 192.3516,369.8594 Q191.7188,370.1875 191.2266,370.9375 Q190.7344,371.6875 190.7344,372.7188 L190.7344,373.8125 Q190.7344,375.0469 191.625,375.8672 Q192.5156,376.6875 194.1094,376.6875 Q195.0469,376.6875 195.7031,376.4375 Q196.0938,376.2813 196.5156,375.8438 Q196.7813,375.5781 196.9297,375.5 Q197.0781,375.4219 197.2813,375.4219 Q197.6094,375.4219 197.8672,375.6797 Q198.125,375.9375 198.125,376.2813 Q198.125,376.625 197.7813,377.0313 Q197.2813,377.6094 196.4844,377.9375 Q195.4063,378.3906 194.1094,378.3906 Q192.5938,378.3906 191.3906,377.7656 Q190.4063,377.2656 189.7188,376.1953 Q189.0313,375.125 189.0313,373.8438 L189.0313,372.6875 Q189.0313,371.3594 189.6484,370.2109 Q190.2656,369.0625 191.3594,368.4453 Q192.4531,367.8281 193.6875,367.8281 Q194.4219,367.8281 195.0703,367.9922 Q195.7188,368.1563 196.2656,368.5156 Z " fill="#000000"/><text fill="#000000" font-family="sans-serif" font-size="12" lengthAdjust="spacing" textLength="18" x="207.5" y="377.5508">Put</text><line style="stroke:#A80036;stroke-width:1.5;" x1="179.5" x2="227.5" y1="388.6406" y2="388.6406"/><line style="stroke:#A80036;stroke-width:1.5;" x1="179.5" x2="227.5" y1="396.6406" y2="396.6406"/><!--MD5=[0992d3fdc9d3d7c02b735131bb70871d]
class Goal--><rect codeLine="16" fill="#FEFECE" filter="url(#fvu0vghnyftg0)" height="48" id="Goal" style="stroke:#A80036;stroke-width:1.5;" width="58" x="323.5" y="356.6406"/><ellipse cx="338.5" cy="372.6406" fill="#ADD1B2" rx="11" ry="11" style="stroke:#A80036;stroke-width:1.0;"/><path d="M341.2656,368.5156 Q341.4219,368.2969 341.6094,368.1875 Q341.7969,368.0781 342.0156,368.0781 Q342.3906,368.0781 342.625,368.3359 Q342.8594,368.5938 342.8594,369.2031 L342.8594,370.6563 Q342.8594,371.2656 342.625,371.5313 Q342.3906,371.7969 342.0156,371.7969 Q341.6719,371.7969 341.4688,371.5938 Q341.2656,371.4063 341.1563,370.8906 Q341.1094,370.5313 340.9219,370.3438 Q340.5938,369.9688 339.9844,369.75 Q339.375,369.5313 338.75,369.5313 Q337.9844,369.5313 337.3516,369.8594 Q336.7188,370.1875 336.2266,370.9375 Q335.7344,371.6875 335.7344,372.7188 L335.7344,373.8125 Q335.7344,375.0469 336.625,375.8672 Q337.5156,376.6875 339.1094,376.6875 Q340.0469,376.6875 340.7031,376.4375 Q341.0938,376.2813 341.5156,375.8438 Q341.7813,375.5781 341.9297,375.5 Q342.0781,375.4219 342.2813,375.4219 Q342.6094,375.4219 342.8672,375.6797 Q343.125,375.9375 343.125,376.2813 Q343.125,376.625 342.7813,377.0313 Q342.2813,377.6094 341.4844,377.9375 Q340.4063,378.3906 339.1094,378.3906 Q337.5938,378.3906 336.3906,377.7656 Q335.4063,377.2656 334.7188,376.1953 Q334.0313,375.125 334.0313,373.8438 L334.0313,372.6875 Q334.0313,371.3594 334.6484,370.2109 Q335.2656,369.0625 336.3594,368.4453 Q337.4531,367.8281 338.6875,367.8281 Q339.4219,367.8281 340.0703,367.9922 Q340.7188,368.1563 341.2656,368.5156 Z " fill="#000000"/><text fill="#000000" font-family="sans-serif" font-size="12" lengthAdjust="spacing" textLength="26" x="352.5" y="377.5508">Goal</text><line style="stroke:#A80036;stroke-width:1.5;" x1="324.5" x2="380.5" y1="388.6406" y2="388.6406"/><line style="stroke:#A80036;stroke-width:1.5;" x1="324.5" x2="380.5" y1="396.6406" y2="396.6406"/><!--MD5=[f14ebfaa64de903023d2cf0627cbb644]
class 4InALine--><rect codeLine="17" fill="#FEFECE" filter="url(#fvu0vghnyftg0)" height="48" id="4InALine" style="stroke:#A80036;stroke-width:1.5;" width="80" x="312.5" y="482.6406"/><ellipse cx="327.5" cy="498.6406" fill="#ADD1B2" rx="11" ry="11" style="stroke:#A80036;stroke-width:1.0;"/><path d="M330.2656,494.5156 Q330.4219,494.2969 330.6094,494.1875 Q330.7969,494.0781 331.0156,494.0781 Q331.3906,494.0781 331.625,494.3359 Q331.8594,494.5938 331.8594,495.2031 L331.8594,496.6563 Q331.8594,497.2656 331.625,497.5313 Q331.3906,497.7969 331.0156,497.7969 Q330.6719,497.7969 330.4688,497.5938 Q330.2656,497.4063 330.1563,496.8906 Q330.1094,496.5313 329.9219,496.3438 Q329.5938,495.9688 328.9844,495.75 Q328.375,495.5313 327.75,495.5313 Q326.9844,495.5313 326.3516,495.8594 Q325.7188,496.1875 325.2266,496.9375 Q324.7344,497.6875 324.7344,498.7188 L324.7344,499.8125 Q324.7344,501.0469 325.625,501.8672 Q326.5156,502.6875 328.1094,502.6875 Q329.0469,502.6875 329.7031,502.4375 Q330.0938,502.2813 330.5156,501.8438 Q330.7813,501.5781 330.9297,501.5 Q331.0781,501.4219 331.2813,501.4219 Q331.6094,501.4219 331.8672,501.6797 Q332.125,501.9375 332.125,502.2813 Q332.125,502.625 331.7813,503.0313 Q331.2813,503.6094 330.4844,503.9375 Q329.4063,504.3906 328.1094,504.3906 Q326.5938,504.3906 325.3906,503.7656 Q324.4063,503.2656 323.7188,502.1953 Q323.0313,501.125 323.0313,499.8438 L323.0313,498.6875 Q323.0313,497.3594 323.6484,496.2109 Q324.2656,495.0625 325.3594,494.4453 Q326.4531,493.8281 327.6875,493.8281 Q328.4219,493.8281 329.0703,493.9922 Q329.7188,494.1563 330.2656,494.5156 Z " fill="#000000"/><text fill="#000000" font-family="sans-serif" font-size="12" lengthAdjust="spacing" textLength="48" x="341.5" y="503.5508">4InALine</text><line style="stroke:#A80036;stroke-width:1.5;" x1="313.5" x2="391.5" y1="514.6406" y2="514.6406"/><line style="stroke:#A80036;stroke-width:1.5;" x1="313.5" x2="391.5" y1="522.6406" y2="522.6406"/><!--MD5=[882862e748c516aa1e2af9ad1e0606cc]
class HorizontalFigure--><rect codeLine="18" fill="#FEFECE" filter="url(#fvu0vghnyftg0)" height="48" id="HorizontalFigure" style="stroke:#A80036;stroke-width:1.5;" width="122" x="504.5" y="605.6406"/><ellipse cx="519.5" cy="621.6406" fill="#ADD1B2" rx="11" ry="11" style="stroke:#A80036;stroke-width:1.0;"/><path d="M522.2656,617.5156 Q522.4219,617.2969 522.6094,617.1875 Q522.7969,617.0781 523.0156,617.0781 Q523.3906,617.0781 523.625,617.3359 Q523.8594,617.5938 523.8594,618.2031 L523.8594,619.6563 Q523.8594,620.2656 523.625,620.5313 Q523.3906,620.7969 523.0156,620.7969 Q522.6719,620.7969 522.4688,620.5938 Q522.2656,620.4063 522.1563,619.8906 Q522.1094,619.5313 521.9219,619.3438 Q521.5938,618.9688 520.9844,618.75 Q520.375,618.5313 519.75,618.5313 Q518.9844,618.5313 518.3516,618.8594 Q517.7188,619.1875 517.2266,619.9375 Q516.7344,620.6875 516.7344,621.7188 L516.7344,622.8125 Q516.7344,624.0469 517.625,624.8672 Q518.5156,625.6875 520.1094,625.6875 Q521.0469,625.6875 521.7031,625.4375 Q522.0938,625.2813 522.5156,624.8438 Q522.7813,624.5781 522.9297,624.5 Q523.0781,624.4219 523.2813,624.4219 Q523.6094,624.4219 523.8672,624.6797 Q524.125,624.9375 524.125,625.2813 Q524.125,625.625 523.7813,626.0313 Q523.2813,626.6094 522.4844,626.9375 Q521.4063,627.3906 520.1094,627.3906 Q518.5938,627.3906 517.3906,626.7656 Q516.4063,626.2656 515.7188,625.1953 Q515.0313,624.125 515.0313,622.8438 L515.0313,621.6875 Q515.0313,620.3594 515.6484,619.2109 Q516.2656,618.0625 517.3594,617.4453 Q518.4531,616.8281 519.6875,616.8281 Q520.4219,616.8281 521.0703,616.9922 Q521.7188,617.1563 522.2656,617.5156 Z " fill="#000000"/><text fill="#000000" font-family="sans-serif" font-size="12" lengthAdjust="spacing" textLength="90" x="533.5" y="626.5508">HorizontalFigure</text><line style="stroke:#A80036;stroke-width:1.5;" x1="505.5" x2="625.5" y1="637.6406" y2="637.6406"/><line style="stroke:#A80036;stroke-width:1.5;" x1="505.5" x2="625.5" y1="645.6406" y2="645.6406"/><!--MD5=[ef3d3684a860c9b89ab6d7f9b437f10d]
class VerticalFigure--><rect codeLine="19" fill="#FEFECE" filter="url(#fvu0vghnyftg0)" height="48" id="VerticalFigure" style="stroke:#A80036;stroke-width:1.5;" width="107" x="210" y="605.6406"/><ellipse cx="225" cy="621.6406" fill="#ADD1B2" rx="11" ry="11" style="stroke:#A80036;stroke-width:1.0;"/><path d="M227.7656,617.5156 Q227.9219,617.2969 228.1094,617.1875 Q228.2969,617.0781 228.5156,617.0781 Q228.8906,617.0781 229.125,617.3359 Q229.3594,617.5938 229.3594,618.2031 L229.3594,619.6563 Q229.3594,620.2656 229.125,620.5313 Q228.8906,620.7969 228.5156,620.7969 Q228.1719,620.7969 227.9688,620.5938 Q227.7656,620.4063 227.6563,619.8906 Q227.6094,619.5313 227.4219,619.3438 Q227.0938,618.9688 226.4844,618.75 Q225.875,618.5313 225.25,618.5313 Q224.4844,618.5313 223.8516,618.8594 Q223.2188,619.1875 222.7266,619.9375 Q222.2344,620.6875 222.2344,621.7188 L222.2344,622.8125 Q222.2344,624.0469 223.125,624.8672 Q224.0156,625.6875 225.6094,625.6875 Q226.5469,625.6875 227.2031,625.4375 Q227.5938,625.2813 228.0156,624.8438 Q228.2813,624.5781 228.4297,624.5 Q228.5781,624.4219 228.7813,624.4219 Q229.1094,624.4219 229.3672,624.6797 Q229.625,624.9375 229.625,625.2813 Q229.625,625.625 229.2813,626.0313 Q228.7813,626.6094 227.9844,626.9375 Q226.9063,627.3906 225.6094,627.3906 Q224.0938,627.3906 222.8906,626.7656 Q221.9063,626.2656 221.2188,625.1953 Q220.5313,624.125 220.5313,622.8438 L220.5313,621.6875 Q220.5313,620.3594 221.1484,619.2109 Q221.7656,618.0625 222.8594,617.4453 Q223.9531,616.8281 225.1875,616.8281 Q225.9219,616.8281 226.5703,616.9922 Q227.2188,617.1563 227.7656,617.5156 Z " fill="#000000"/><text fill="#000000" font-family="sans-serif" font-size="12" lengthAdjust="spacing" textLength="75" x="239" y="626.5508">VerticalFigure</text><line style="stroke:#A80036;stroke-width:1.5;" x1="211" x2="316" y1="637.6406" y2="637.6406"/><line style="stroke:#A80036;stroke-width:1.5;" x1="211" x2="316" y1="645.6406" y2="645.6406"/><!--MD5=[1ab8c4e44b05c5e9b3cf4c2a6083ec7e]
class DiagonalFigure--><rect codeLine="20" fill="#FEFECE" filter="url(#fvu0vghnyftg0)" height="48" id="DiagonalFigure" style="stroke:#A80036;stroke-width:1.5;" width="117" x="352" y="605.6406"/><ellipse cx="367" cy="621.6406" fill="#ADD1B2" rx="11" ry="11" style="stroke:#A80036;stroke-width:1.0;"/><path d="M369.7656,617.5156 Q369.9219,617.2969 370.1094,617.1875 Q370.2969,617.0781 370.5156,617.0781 Q370.8906,617.0781 371.125,617.3359 Q371.3594,617.5938 371.3594,618.2031 L371.3594,619.6563 Q371.3594,620.2656 371.125,620.5313 Q370.8906,620.7969 370.5156,620.7969 Q370.1719,620.7969 369.9688,620.5938 Q369.7656,620.4063 369.6563,619.8906 Q369.6094,619.5313 369.4219,619.3438 Q369.0938,618.9688 368.4844,618.75 Q367.875,618.5313 367.25,618.5313 Q366.4844,618.5313 365.8516,618.8594 Q365.2188,619.1875 364.7266,619.9375 Q364.2344,620.6875 364.2344,621.7188 L364.2344,622.8125 Q364.2344,624.0469 365.125,624.8672 Q366.0156,625.6875 367.6094,625.6875 Q368.5469,625.6875 369.2031,625.4375 Q369.5938,625.2813 370.0156,624.8438 Q370.2813,624.5781 370.4297,624.5 Q370.5781,624.4219 370.7813,624.4219 Q371.1094,624.4219 371.3672,624.6797 Q371.625,624.9375 371.625,625.2813 Q371.625,625.625 371.2813,626.0313 Q370.7813,626.6094 369.9844,626.9375 Q368.9063,627.3906 367.6094,627.3906 Q366.0938,627.3906 364.8906,626.7656 Q363.9063,626.2656 363.2188,625.1953 Q362.5313,624.125 362.5313,622.8438 L362.5313,621.6875 Q362.5313,620.3594 363.1484,619.2109 Q363.7656,618.0625 364.8594,617.4453 Q365.9531,616.8281 367.1875,616.8281 Q367.9219,616.8281 368.5703,616.9922 Q369.2188,617.1563 369.7656,617.5156 Z " fill="#000000"/><text fill="#000000" font-family="sans-serif" font-size="12" lengthAdjust="spacing" textLength="85" x="381" y="626.5508">DiagonalFigure</text><line style="stroke:#A80036;stroke-width:1.5;" x1="353" x2="468" y1="637.6406" y2="637.6406"/><line style="stroke:#A80036;stroke-width:1.5;" x1="353" x2="468" y1="645.6406" y2="645.6406"/><!--MD5=[46750473935a00282743b47f522de7be]
link Connect4 to Player--><path codeLine="22" d="M154.5349,89.6057 C154.5349,89.6057 149.47,154.5706 154.5,186.6406 C157.04,202.8606 162.19,220.2206 167.31,234.9306 " fill="none" id="Connect4-Player" style="stroke:#A80036;stroke-width:1.0;"/><polygon fill="#A80036" points="171.94,247.5806,172.6124,237.7547,170.226,242.8836,165.0972,240.4972,171.94,247.5806" style="stroke:#A80036;stroke-width:1.0;"/><line style="stroke:#A80036;stroke-width:1.0;" x1="170.226" x2="167.475" y1="242.8836" y2="235.3706"/><polygon fill="#A80036" points="155.96,77.6906,151.2758,83.1731,154.5349,89.6057,159.2192,84.1232,155.96,77.6906" style="stroke:#A80036;stroke-width:1.0;"/><text fill="#000000" font-family="sans-serif" font-size="13" lengthAdjust="spacing" textLength="7" x="157.0809" y="236.9054">2</text><!--MD5=[6824fd9902778444ee49992acd2ffe7e]
link Connect4 to Turn--><path codeLine="23" d="M172.6856,89.0692 C172.6856,89.0692 182.51,114.7006 186.91,126.1806 " fill="none" id="Connect4-Turn" style="stroke:#A80036;stroke-width:1.0;"/><polygon fill="#A80036" points="191.62,138.4706,192.1319,128.6351,189.8295,133.8022,184.6624,131.4998,191.62,138.4706" style="stroke:#A80036;stroke-width:1.0;"/><line style="stroke:#A80036;stroke-width:1.0;" x1="189.8295" x2="186.97" y1="133.8022" y2="126.3306"/><polygon fill="#A80036" points="168.4,77.8606,166.8066,84.8935,172.6856,89.0692,174.279,82.0364,168.4,77.8606" style="stroke:#A80036;stroke-width:1.0;"/><text fill="#000000" font-family="sans-serif" font-size="13" lengthAdjust="spacing" textLength="29" x="152.1164" y="127.7672">7..42</text><!--MD5=[5426a1d26e36fcd61d30da6b8a6545ec]
link Connect4 to Board--><path codeLine="24" d="M146.8173,89.0092 C146.8173,89.0092 75.69,281.6106 52.61,344.1406 " fill="none" id="Connect4-Board" style="stroke:#A80036;stroke-width:1.0;"/><polygon fill="#A80036" points="48.07,356.4306,54.9401,349.3736,49.8021,351.7402,47.4354,346.6022,48.07,356.4306" style="stroke:#A80036;stroke-width:1.0;"/><line style="stroke:#A80036;stroke-width:1.0;" x1="49.8021" x2="52.575" y1="351.7402" y2="344.2356"/><polygon fill="#A80036" points="150.97,77.7506,145.1408,81.9956,146.8173,89.0092,152.6465,84.7641,150.97,77.7506" style="stroke:#A80036;stroke-width:1.0;"/><!--MD5=[48736af7f00a353a75917f062947d3dd]
link Connect4 to Goal--><path codeLine="25" d="M198.0011,85.8739 C198.0011,85.8739 233.18,119.5306 246.5,138.6406 C292.82,205.1106 325.82,295.0706 341.73,344.1206 " fill="none" id="Connect4-Goal" style="stroke:#A80036;stroke-width:1.0;"/><polygon fill="#A80036" points="345.67,356.5406,346.7617,346.7525,344.1583,351.7746,339.1361,349.1712,345.67,356.5406" style="stroke:#A80036;stroke-width:1.0;"/><line style="stroke:#A80036;stroke-width:1.0;" x1="344.1583" x2="341.735" y1="351.7746" y2="344.1456"/><polygon fill="#A80036" points="188.98,77.9606,190.8528,84.9243,198.0011,85.8739,196.1283,78.9102,188.98,77.9606" style="stroke:#A80036;stroke-width:1.0;"/><!--MD5=[d81713d91ad05be3b975338c4816ee0b]
link Turn to Player--><path codeLine="27" d="M196.38,186.8606 C193.49,203.1206 189.61,224.9606 186.54,242.2606 " fill="none" id="Turn-to-Player" style="stroke:#A80036;stroke-width:1.0;"/><polygon fill="#A80036" points="185.61,247.4706,191.12,239.3073,186.483,242.5474,183.2429,237.9105,185.61,247.4706" style="stroke:#A80036;stroke-width:1.0;"/><!--MD5=[5fc9219214a6d7db882d960f5244e6cf]
link Player to Checker--><path codeLine="28" d="M173.09,296.1106 C164.73,322.5906 154.13,366.8806 161.5,404.6406 C166.54,430.4306 178.17,457.9606 187.77,477.7606 " fill="none" id="Player-to-Checker" style="stroke:#A80036;stroke-width:1.0;"/><polygon fill="#A80036" points="190.03,482.3606,189.6455,472.5193,187.8225,477.8743,182.4674,476.0513,190.03,482.3606" style="stroke:#A80036;stroke-width:1.0;"/><text fill="#000000" font-family="sans-serif" font-size="13" lengthAdjust="spacing" textLength="14" x="166.5283" y="471.629">21</text><!--MD5=[c1f7e88598f78d9459764ed93737eb14]
link Player to Board--><path codeLine="29" d="M148.19,295.0506 C134.76,304.3006 119.23,315.2606 105.5,325.6406 C93.93,334.3906 81.55,344.3506 70.67,353.3106 " fill="none" id="Player-to-Board" style="stroke:#A80036;stroke-width:1.0;"/><polygon fill="#A80036" points="66.74,356.5706,76.2264,353.9234,70.5951,353.3866,71.132,347.7553,66.74,356.5706" style="stroke:#A80036;stroke-width:1.0;"/><!--MD5=[1571e4e0b7cdbae74b04c97a95677c54]
link Player to Goal--><path codeLine="30" d="M224.9869,300.871 C224.9869,300.871 252.67,318.6106 265.5,326.6406 C280.64,336.1206 297.38,346.3706 312.09,355.3006 " fill="none" id="Player-Goal" style="stroke:#A80036;stroke-width:1.0;"/><polygon fill="#A80036" points="323.39,362.1506,317.7625,354.0678,319.1128,359.5612,313.6194,360.9114,323.39,362.1506" style="stroke:#A80036;stroke-width:1.0;"/><line style="stroke:#A80036;stroke-width:1.0;" x1="319.1128" x2="312.275" y1="359.5612" y2="355.4106"/><polygon fill="#FFFFFF" points="214.9,294.3706,217.7766,300.9831,224.9869,300.871,222.1102,294.2585,214.9,294.3706" style="stroke:#A80036;stroke-width:1.0;"/><!--MD5=[6362d373c70c914ff64d9e096162a755]
link Player to Put--><path codeLine="31" d="M186.27,295.8606 C189.62,312.1206 194.11,333.9606 197.66,351.2606 " fill="none" id="Player-to-Put" style="stroke:#A80036;stroke-width:1.0;stroke-dasharray:7.0,7.0;"/><polygon fill="#A80036" points="198.74,356.4706,200.8596,346.8525,197.7402,351.5716,193.0211,348.4522,198.74,356.4706" style="stroke:#A80036;stroke-width:1.0;"/><!--MD5=[c148346f61f96d5968c9850ebe71e5d5]
link Board to Cell--><path codeLine="33" d="M39.5,416.6706 C39.5,416.6706 39.5,452.8406 39.5,468.9806 " fill="none" id="Board-Cell" style="stroke:#A80036;stroke-width:1.0;"/><polygon fill="#A80036" points="39.5,482.3106,43.5,473.3106,39.5,477.3106,35.5,473.3106,39.5,482.3106" style="stroke:#A80036;stroke-width:1.0;"/><line style="stroke:#A80036;stroke-width:1.0;" x1="39.5" x2="39.5" y1="477.3106" y2="469.3106"/><polygon fill="#A80036" points="39.5,404.6706,35.5,410.6706,39.5,416.6706,43.5,410.6706,39.5,404.6706" style="stroke:#A80036;stroke-width:1.0;"/><text fill="#000000" font-family="sans-serif" font-size="13" lengthAdjust="spacing" textLength="21" x="15.9406" y="471.9682">7x6</text><!--MD5=[426b59f6a7e6b44dc35cddfe28235449]
link Cell to Checker--><path codeLine="34" d="M78.78,506.6406 C78.78,506.6406 127.31,506.6406 149.97,506.6406 " fill="none" id="Cell-Checker" style="stroke:#A80036;stroke-width:1.0;"/><polygon fill="#A80036" points="163.21,506.6406,154.21,502.6406,158.21,506.6406,154.21,510.6406,163.21,506.6406" style="stroke:#A80036;stroke-width:1.0;"/><line style="stroke:#A80036;stroke-width:1.0;" x1="158.21" x2="150.21" y1="506.6406" y2="506.6406"/><polygon fill="#FFFFFF" points="66.78,506.6406,72.78,510.6406,78.78,506.6406,72.78,502.6406,66.78,506.6406" style="stroke:#A80036;stroke-width:1.0;"/><polygon fill="#000000" points="84,494.8164,93.0451,497.7553,93.0451,491.8775,84,494.8164" style="stroke:#000000;stroke-width:1.0;"/><text fill="#000000" font-family="sans-serif" font-size="13" lengthAdjust="spacing" textLength="47" x="98" y="500.1357">to put in</text><text fill="#000000" font-family="sans-serif" font-size="13" lengthAdjust="spacing" textLength="22" x="133.5093" y="521.3877">0..1</text><!--MD5=[01c180ace0bc8fc98fac5bb07e834036]
link Checker to Color--><path codeLine="36" d="M185.9992,541.466 C185.9992,541.466 173.49,567.1406 167.5,579.4206 " fill="none" id="Checker-Color" style="stroke:#A80036;stroke-width:1.0;"/><polygon fill="#A80036" points="161.66,591.4106,169.2007,585.0752,163.852,586.9167,162.0105,581.568,161.66,591.4106" style="stroke:#A80036;stroke-width:1.0;"/><line style="stroke:#A80036;stroke-width:1.0;" x1="163.852" x2="167.35" y1="586.9167" y2="579.7256"/><polygon fill="#A80036" points="191.26,530.6806,185.0345,534.3197,185.9992,541.466,192.2247,537.8269,191.26,530.6806" style="stroke:#A80036;stroke-width:1.0;"/><!--MD5=[7e51315509577d1dede857d827f99867]
link Put to Checker--><path codeLine="37" d="M203.31,404.6706 C203.15,425.1606 202.91,455.2006 202.73,477.1906 " fill="none" id="Put-to-Checker" style="stroke:#A80036;stroke-width:1.0;stroke-dasharray:7.0,7.0;"/><polygon fill="#A80036" points="202.69,482.3106,206.7414,473.3336,202.7186,477.3107,198.7415,473.2879,202.69,482.3106" style="stroke:#A80036;stroke-width:1.0;"/><text fill="#000000" font-family="sans-serif" font-size="13" lengthAdjust="spacing" textLength="31" x="203.5" y="449.1357">using</text><!--MD5=[1a07547e6d2d2e26192e1faaab7fd9fd]
link Put to Goal--><path codeLine="38" d="M228.78,380.6406 C253.3,380.6406 290.69,380.6406 317.95,380.6406 " fill="none" id="Put-to-Goal" style="stroke:#A80036;stroke-width:1.0;"/><polygon fill="#A80036" points="323.26,380.6406,314.26,376.6406,318.26,380.6406,314.26,384.6406,323.26,380.6406" style="stroke:#A80036;stroke-width:1.0;"/><text fill="#000000" font-family="sans-serif" font-size="13" lengthAdjust="spacing" textLength="58" x="247" y="374.1357">to achieve</text><!--MD5=[1d943f816ac5b7ae1e943af90042451e]
link Goal to 4InALine--><path codeLine="40" d="M352.5,416.6706 C352.5,416.6706 352.5,452.8406 352.5,468.9806 " fill="none" id="Goal-4InALine" style="stroke:#A80036;stroke-width:1.0;"/><polygon fill="#A80036" points="352.5,482.3106,356.5,473.3106,352.5,477.3106,348.5,473.3106,352.5,482.3106" style="stroke:#A80036;stroke-width:1.0;"/><line style="stroke:#A80036;stroke-width:1.0;" x1="352.5" x2="352.5" y1="477.3106" y2="469.3106"/><polygon fill="#A80036" points="352.5,404.6706,348.5,410.6706,352.5,416.6706,356.5,410.6706,352.5,404.6706" style="stroke:#A80036;stroke-width:1.0;"/><!--MD5=[2c2f29e8eb43a39e184f562b4011ef0c]
reverse link Checker to 4InALine--><path codeLine="42" d="M246.99,506.6406 C268.75,506.6406 290.51,506.6406 312.27,506.6406 " fill="none" id="Checker-backto-4InALine" style="stroke:#A80036;stroke-width:1.0;"/><polygon fill="#A80036" points="241.76,506.6406,250.76,510.6406,246.76,506.6406,250.76,502.6406,241.76,506.6406" style="stroke:#A80036;stroke-width:1.0;"/><text fill="#000000" font-family="sans-serif" font-size="13" lengthAdjust="spacing" textLength="7" x="249.3766" y="502.7421">4</text><!--MD5=[575212f70d536f7796fb51488bc29761]
reverse link 4InALine to HorizontalFigure--><path codeLine="43" d="M410.03,540.3206 C446.34,560.9506 492.37,587.1006 524.89,605.5706 " fill="none" id="4InALine-backto-HorizontalFigure" style="stroke:#A80036;stroke-width:1.0;"/><polygon fill="none" points="406.5,546.3606,392.56,530.4006,413.41,534.1906,406.5,546.3606" style="stroke:#A80036;stroke-width:1.0;"/><!--MD5=[e928516c762018abd73edc99b8bd3b7f]
reverse link 4InALine to VerticalFigure--><path codeLine="44" d="M323.65,546.8706 C309.47,566.1506 292.86,588.7306 280.69,605.2706 " fill="none" id="4InALine-backto-VerticalFigure" style="stroke:#A80036;stroke-width:1.0;"/><polygon fill="none" points="318.06,542.6506,335.55,530.6806,329.34,550.9406,318.06,542.6506" style="stroke:#A80036;stroke-width:1.0;"/><!--MD5=[3f0ea8a7d15af6f17ec5ac65da8f99eb]
reverse link 4InALine to DiagonalFigure--><path codeLine="45" d="M372.29,548.9306 C381.31,567.7406 391.65,589.3106 399.3,605.2706 " fill="none" id="4InALine-backto-DiagonalFigure" style="stroke:#A80036;stroke-width:1.0;"/><polygon fill="none" points="365.88,551.7406,363.55,530.6806,378.5,545.6906,365.88,551.7406" style="stroke:#A80036;stroke-width:1.0;"/><!--MD5=[13fc6d2e92def848976f6c80c130a8a8]
@startuml connect4- -vocabulary


title Connect4 Vocabulary

class Connect4
class Turn
class Player
interface Board
class Cell
class Checker
enum Color {
    Red,
    Yellow
}
class Put
class Goal
class 4InALine
class HorizontalFigure
class VerticalFigure
class DiagonalFigure

Connect4 *- -> "2 " Player
Connect4 *- -> "7..42 " Turn
Connect4 *-right-> Board
Connect4 *- -> Goal

Turn - -> Player
Player - -> "21 " Checker
Player - -> Board
Player o-down-> Goal
Player ..> Put

Board *-down-> "7x6" Cell
Cell o-right-> "0..1" Checker : to put in <

Checker *-down-> Color
Put ..> Checker : using
Put -right-> Goal : to achieve

Goal *- -> 4InALine

4InALine -left-> "4" Checker
4InALine <|-down- HorizontalFigure
4InALine <|-down- VerticalFigure
4InALine <|-down- DiagonalFigure



@enduml

PlantUML version 1.2022.0(Tue Jan 11 17:16:42 CET 2022)
(GPL source distribution)
Java Runtime: Java(TM) SE Runtime Environment
JVM: Java HotSpot(TM) 64-Bit Server VM
Default Encoding: Cp1252
Language: es
Country: ES
--></g></svg>