<?xml version="1.0" encoding="UTF-8" standalone="no"?><svg xmlns="http://www.w3.org/2000/svg" xmlns:xlink="http://www.w3.org/1999/xlink" contentScriptType="application/ecmascript" contentStyleType="text/css" height="374px" preserveAspectRatio="none" style="width:1127px;height:374px;background:#FFFFFF;" version="1.1" viewBox="0 0 1127 374" width="1127px" zoomAndPan="magnify"><defs><filter height="300%" id="f1kz6oqd52uffx" width="300%" x="-1" y="-1"><feGaussianBlur result="blurOut" stdDeviation="2.0"/><feColorMatrix in="blurOut" result="blurOut2" type="matrix" values="0 0 0 0 0 0 0 0 0 0 0 0 0 0 0 0 0 0 .4 0"/><feOffset dx="4.0" dy="4.0" in="blurOut2" result="blurOut3"/><feBlend in="SourceGraphic" in2="blurOut3" mode="normal"/></filter></defs><g><text fill="#000000" font-family="sans-serif" font-size="18" lengthAdjust="spacing" textLength="175" x="469.5" y="18.6855">Connect4. Initial State</text><rect fill="#FEFECE" filter="url(#f1kz6oqd52uffx)" height="52.25" style="stroke:#A80036;stroke-width:1.5;" width="71" x="262.5" y="48.6406"/><text fill="#000000" font-family="sans-serif" font-size="12" lengthAdjust="spacing" textLength="57" x="269.5" y="63.0977">newGame</text><line style="stroke:#A80036;stroke-width:1.5;" x1="263.5" x2="332.5" y1="67.7344" y2="67.7344"/><text fill="#000000" font-family="sans-serif" font-size="10" lengthAdjust="spacing" textLength="53" x="268.5" y="82.1152">nGame = 0</text><text fill="#000000" font-family="sans-serif" font-size="10" lengthAdjust="spacing" textLength="44" x="268.5" y="94.6934">status = 0</text><path d="M81,37.1406 L81,112.5469 A0,0 0 0 0 81,112.5469 L227,112.5469 A0,0 0 0 0 227,112.5469 L227,78.6406 L262.29,74.6406 L227,70.6406 L227,47.1406 L217,37.1406 L81,37.1406 A0,0 0 0 0 81,37.1406 " fill="#FBFB77" filter="url(#f1kz6oqd52uffx)" style="stroke:#A80036;stroke-width:1.0;"/><path d="M217,37.1406 L217,47.1406 L227,47.1406 L217,37.1406 " fill="#FBFB77" style="stroke:#A80036;stroke-width:1.0;"/><text fill="#000000" font-family="sans-serif" font-size="13" lengthAdjust="spacing" textLength="125" x="87" y="55.6357">status 0 = not started</text><text fill="#000000" font-family="sans-serif" font-size="13" lengthAdjust="spacing" textLength="103" x="87" y="71.9873">status 1 = started</text><text fill="#000000" font-family="sans-serif" font-size="13" lengthAdjust="spacing" textLength="105" x="87" y="88.3389">status 2 = paused</text><text fill="#000000" font-family="sans-serif" font-size="13" lengthAdjust="spacing" textLength="107" x="87" y="104.6904">status 3 = finished</text><rect fill="#FEFECE" filter="url(#f1kz6oqd52uffx)" height="64.8281" style="stroke:#A80036;stroke-width:1.5;" width="103" x="864.5" y="42.1406"/><text fill="#000000" font-family="sans-serif" font-size="12" lengthAdjust="spacing" textLength="24" x="904" y="56.5977">goal</text><line style="stroke:#A80036;stroke-width:1.5;" x1="865.5" x2="966.5" y1="61.2344" y2="61.2344"/><text fill="#000000" font-family="sans-serif" font-size="10" lengthAdjust="spacing" textLength="91" x="870.5" y="75.6152">name = '4 in a line'</text><text fill="#000000" font-family="sans-serif" font-size="10" lengthAdjust="spacing" textLength="60" x="870.5" y="88.1934">status = false</text><text fill="#000000" font-family="sans-serif" font-size="10" lengthAdjust="spacing" textLength="61" x="870.5" y="100.7715">winner = null</text><rect fill="#FEFECE" filter="url(#f1kz6oqd52uffx)" height="64.8281" style="stroke:#A80036;stroke-width:1.5;" width="110" x="1003" y="42.1406"/><text fill="#000000" font-family="sans-serif" font-size="12" lengthAdjust="spacing" textLength="21" x="1047.5" y="56.5977">turn</text><line style="stroke:#A80036;stroke-width:1.5;" x1="1004" x2="1112" y1="61.2344" y2="61.2344"/><text fill="#000000" font-family="sans-serif" font-size="10" lengthAdjust="spacing" textLength="93" x="1009" y="75.6152">firstPlayer = player1</text><text fill="#000000" font-family="sans-serif" font-size="10" lengthAdjust="spacing" textLength="36" x="1009" y="88.1934">turn = 0</text><text fill="#000000" font-family="sans-serif" font-size="10" lengthAdjust="spacing" textLength="98" x="1009" y="100.7715">remainingTurns = 42</text><rect fill="#FEFECE" filter="url(#f1kz6oqd52uffx)" height="52.25" style="stroke:#A80036;stroke-width:1.5;" width="70" x="263" y="186.1406"/><text fill="#000000" font-family="sans-serif" font-size="12" lengthAdjust="spacing" textLength="49" x="273.5" y="200.5977">myBoard</text><line style="stroke:#A80036;stroke-width:1.5;" x1="264" x2="332" y1="205.2344" y2="205.2344"/><text fill="#000000" font-family="sans-serif" font-size="10" lengthAdjust="spacing" textLength="58" x="269" y="219.6152">columns = 7</text><text fill="#000000" font-family="sans-serif" font-size="10" lengthAdjust="spacing" textLength="38" x="269" y="232.1934">rows = 6</text><rect fill="#FEFECE" filter="url(#f1kz6oqd52uffx)" height="52.25" style="stroke:#A80036;stroke-width:1.5;" width="92" x="252" y="308.1406"/><text fill="#000000" font-family="sans-serif" font-size="12" lengthAdjust="spacing" textLength="33" x="281.5" y="322.5977">cellA1</text><line style="stroke:#A80036;stroke-width:1.5;" x1="253" x2="343" y1="327.2344" y2="327.2344"/><text fill="#000000" font-family="sans-serif" font-size="10" lengthAdjust="spacing" textLength="80" x="258" y="341.6152">coordinates = A1</text><text fill="#000000" font-family="sans-serif" font-size="10" lengthAdjust="spacing" textLength="58" x="258" y="354.1934">filled = false</text><rect fill="#FEFECE" filter="url(#f1kz6oqd52uffx)" height="89.9844" style="stroke:#A80036;stroke-width:1.5;" width="94" x="606" y="29.6406"/><text fill="#000000" font-family="sans-serif" font-size="12" lengthAdjust="spacing" textLength="40" x="633" y="44.0977">player1</text><line style="stroke:#A80036;stroke-width:1.5;" x1="607" x2="699" y1="48.7344" y2="48.7344"/><text fill="#000000" font-family="sans-serif" font-size="10" lengthAdjust="spacing" textLength="27" x="612" y="63.1152">id = 1</text><text fill="#000000" font-family="sans-serif" font-size="10" lengthAdjust="spacing" textLength="69" x="612" y="75.6934">name = 'vilma'</text><text fill="#000000" font-family="sans-serif" font-size="10" lengthAdjust="spacing" textLength="70" x="612" y="88.2715">color = 'yellow'</text><text fill="#000000" font-family="sans-serif" font-size="10" lengthAdjust="spacing" textLength="65" x="612" y="100.8496">checkers = 21</text><text fill="#000000" font-family="sans-serif" font-size="10" lengthAdjust="spacing" textLength="82" x="612" y="113.4277">usedCheckers = 0</text><rect fill="#FEFECE" filter="url(#f1kz6oqd52uffx)" height="89.9844" style="stroke:#A80036;stroke-width:1.5;" width="94" x="735" y="29.6406"/><text fill="#000000" font-family="sans-serif" font-size="12" lengthAdjust="spacing" textLength="40" x="762" y="44.0977">player2</text><line style="stroke:#A80036;stroke-width:1.5;" x1="736" x2="828" y1="48.7344" y2="48.7344"/><text fill="#000000" font-family="sans-serif" font-size="10" lengthAdjust="spacing" textLength="27" x="741" y="63.1152">id = 2</text><text fill="#000000" font-family="sans-serif" font-size="10" lengthAdjust="spacing" textLength="70" x="741" y="75.6934">name = 'pedro'</text><text fill="#000000" font-family="sans-serif" font-size="10" lengthAdjust="spacing" textLength="55" x="741" y="88.2715">color = 'red'</text><text fill="#000000" font-family="sans-serif" font-size="10" lengthAdjust="spacing" textLength="65" x="741" y="100.8496">checkers = 21</text><text fill="#000000" font-family="sans-serif" font-size="10" lengthAdjust="spacing" textLength="82" x="741" y="113.4277">usedCheckers = 0</text><rect fill="#FEFECE" filter="url(#f1kz6oqd52uffx)" height="64.8281" style="stroke:#A80036;stroke-width:1.5;" width="85" x="739.5" y="179.6406"/><text fill="#000000" font-family="sans-serif" font-size="12" lengthAdjust="spacing" textLength="71" x="746.5" y="194.0977">redChecker1</text><line style="stroke:#A80036;stroke-width:1.5;" x1="740.5" x2="823.5" y1="198.7344" y2="198.7344"/><text fill="#000000" font-family="sans-serif" font-size="10" lengthAdjust="spacing" textLength="30" x="745.5" y="213.1152">id = r1</text><text fill="#000000" font-family="sans-serif" font-size="10" lengthAdjust="spacing" textLength="67" x="745.5" y="225.6934">position = null</text><text fill="#000000" font-family="sans-serif" font-size="10" lengthAdjust="spacing" textLength="55" x="745.5" y="238.2715">color = 'red'</text><rect fill="#FEFECE" filter="url(#f1kz6oqd52uffx)" height="64.8281" style="stroke:#A80036;stroke-width:1.5;" width="101" x="602.5" y="179.6406"/><text fill="#000000" font-family="sans-serif" font-size="12" lengthAdjust="spacing" textLength="87" x="609.5" y="194.0977">yellowChecker1</text><line style="stroke:#A80036;stroke-width:1.5;" x1="603.5" x2="702.5" y1="198.7344" y2="198.7344"/><text fill="#000000" font-family="sans-serif" font-size="10" lengthAdjust="spacing" textLength="32" x="608.5" y="213.1152">id = y1</text><text fill="#000000" font-family="sans-serif" font-size="10" lengthAdjust="spacing" textLength="67" x="608.5" y="225.6934">position = null</text><text fill="#000000" font-family="sans-serif" font-size="10" lengthAdjust="spacing" textLength="70" x="608.5" y="238.2715">color = 'yellow'</text><path d="M6,190.6406 L6,233.3438 A0,0 0 0 0 6,233.3438 L228,233.3438 A0,0 0 0 0 228,233.3438 L228,216.1406 L262.73,212.1406 L228,208.1406 L228,200.6406 L218,190.6406 L6,190.6406 A0,0 0 0 0 6,190.6406 " fill="#FBFB77" filter="url(#f1kz6oqd52uffx)" style="stroke:#A80036;stroke-width:1.0;"/><path d="M218,190.6406 L218,200.6406 L228,200.6406 L218,190.6406 " fill="#FBFB77" style="stroke:#A80036;stroke-width:1.0;"/><text fill="#000000" font-family="sans-serif" font-size="13" lengthAdjust="spacing" textLength="201" x="12" y="209.1357">7 columns, from A (left) to G (right)</text><text fill="#000000" font-family="sans-serif" font-size="13" lengthAdjust="spacing" textLength="190" x="12" y="225.4873">6 rows, from 1 (bottom) to 6 (top)</text><path d="M59.5,304.6406 L59.5,363.6953 A0,0 0 0 0 59.5,363.6953 L216.5,363.6953 A0,0 0 0 0 216.5,363.6953 L216.5,338.1406 L251.98,334.1406 L216.5,330.1406 L216.5,314.6406 L206.5,304.6406 L59.5,304.6406 A0,0 0 0 0 59.5,304.6406 " fill="#FBFB77" filter="url(#f1kz6oqd52uffx)" style="stroke:#A80036;stroke-width:1.0;"/><path d="M206.5,304.6406 L206.5,314.6406 L216.5,314.6406 L206.5,304.6406 " fill="#FBFB77" style="stroke:#A80036;stroke-width:1.0;"/><text fill="#000000" font-family="sans-serif" font-size="13" lengthAdjust="spacing" textLength="111" x="65.5" y="323.1357">42 equal cells with:</text><text fill="#000000" font-family="sans-serif" font-size="13" lengthAdjust="spacing" textLength="136" x="65.5" y="339.4873">coordinates: [A1]..[G6],</text><text fill="#000000" font-family="sans-serif" font-size="13" lengthAdjust="spacing" textLength="69" x="65.5" y="355.8389">filled = false</text><path d="M368.5,190.6406 L368.5,233.3438 A0,0 0 0 0 368.5,233.3438 L567.5,233.3438 A0,0 0 0 0 567.5,233.3438 L567.5,216.1406 L602.37,212.1406 L567.5,208.1406 L567.5,200.6406 L557.5,190.6406 L368.5,190.6406 A0,0 0 0 0 368.5,190.6406 " fill="#FBFB77" filter="url(#f1kz6oqd52uffx)" style="stroke:#A80036;stroke-width:1.0;"/><path d="M557.5,190.6406 L557.5,200.6406 L567.5,200.6406 L557.5,190.6406 " fill="#FBFB77" style="stroke:#A80036;stroke-width:1.0;"/><text fill="#000000" font-family="sans-serif" font-size="13" lengthAdjust="spacing" textLength="146" x="374.5" y="209.1357">21 equal yellow checkers</text><text fill="#000000" font-family="sans-serif" font-size="13" lengthAdjust="spacing" textLength="178" x="374.5" y="225.4873">With diferent id, from y1 to y21</text><path d="M859.5,190.6406 L859.5,208.1406 L824.82,212.1406 L859.5,216.1406 L859.5,233.3438 A0,0 0 0 0 859.5,233.3438 L1052.5,233.3438 A0,0 0 0 0 1052.5,233.3438 L1052.5,200.6406 L1042.5,190.6406 L859.5,190.6406 A0,0 0 0 0 859.5,190.6406 " fill="#FBFB77" filter="url(#f1kz6oqd52uffx)" style="stroke:#A80036;stroke-width:1.0;"/><path d="M1042.5,190.6406 L1042.5,200.6406 L1052.5,200.6406 L1042.5,190.6406 " fill="#FBFB77" style="stroke:#A80036;stroke-width:1.0;"/><text fill="#000000" font-family="sans-serif" font-size="13" lengthAdjust="spacing" textLength="128" x="865.5" y="209.1357">21 equal red checkers</text><text fill="#000000" font-family="sans-serif" font-size="13" lengthAdjust="spacing" textLength="172" x="865.5" y="225.4873">With diferent id, from r1 to r21</text><!--MD5=[bcb87cb6f330d87db57a981b8131f444]
link newGame to myBoard--><path codeLine="99" d="M298,112.8106 C298,112.8106 298,154.4406 298,172.8506 " fill="none" id="newGame-myBoard" style="stroke:#A80036;stroke-width:1.0;"/><polygon fill="#A80036" points="298,186.1106,302,177.1106,298,181.1106,294,177.1106,298,186.1106" style="stroke:#A80036;stroke-width:1.0;"/><line style="stroke:#A80036;stroke-width:1.0;" x1="298" x2="298" y1="181.1106" y2="173.1106"/><polygon fill="#A80036" points="298,100.8106,294,106.8106,298,112.8106,302,106.8106,298,100.8106" style="stroke:#A80036;stroke-width:1.0;"/><!--MD5=[e2994f30106b005cacea1eb938394b03]
link myBoard to cellA1--><path codeLine="100" d="M298,250.3006 C298,250.3006 298,280.9706 298,294.8606 " fill="none" id="myBoard-cellA1" style="stroke:#A80036;stroke-width:1.0;"/><polygon fill="#A80036" points="298,308.0206,302,299.0206,298,303.0206,294,299.0206,298,308.0206" style="stroke:#A80036;stroke-width:1.0;"/><line style="stroke:#A80036;stroke-width:1.0;" x1="298" x2="298" y1="303.0206" y2="295.0206"/><polygon fill="#A80036" points="298,238.3006,294,244.3006,298,250.3006,302,244.3006,298,238.3006" style="stroke:#A80036;stroke-width:1.0;"/><!--MD5=[44cf5003e9f0839ab8f13bf84e3b518a]
link player1 to yellowChecker1--><path codeLine="102" d="M653,120.0106 C653,137.6306 653,157.6706 653,174.4506 " fill="none" id="player1-to-yellowChecker1" style="stroke:#A80036;stroke-width:1.0;stroke-dasharray:7.0,7.0;"/><polygon fill="#A80036" points="653,179.5506,657,170.5506,653,174.5506,649,170.5506,653,179.5506" style="stroke:#A80036;stroke-width:1.0;"/><!--MD5=[4486f6bb557abb4bf36518b472bef096]
link player2 to redChecker1--><path codeLine="103" d="M782,120.0106 C782,137.6306 782,157.6706 782,174.4506 " fill="none" id="player2-to-redChecker1" style="stroke:#A80036;stroke-width:1.0;stroke-dasharray:7.0,7.0;"/><polygon fill="#A80036" points="782,179.5506,786,170.5506,782,174.5506,778,170.5506,782,179.5506" style="stroke:#A80036;stroke-width:1.0;"/><!--MD5=[33589c1ea8827c42492a9300b764cdc0]
@startuml connect4- -initial-state


title Connect4. Initial State

object newGame
note left of newGame
    status 0 = not started
    status 1 = started
    status 2 = paused
    status 3 = finished
end note

object goal
object turn
object myBoard
object cellA1
object player1
object player2
object redChecker1
object yellowChecker1


object newGame {
    nGame = 0
    status = 0
}

object goal {
    name = '4 in a line'
    status = false
    winner = null
}

object turn {
    firstPlayer = player1
    turn = 0
    remainingTurns = 42
}

object myBoard {
    columns = 7
    rows = 6
}

note left of myBoard
    7 columns, from A (left) to G (right)
    6 rows, from 1 (bottom) to 6 (top)
end note

object cellA1 {
    coordinates = A1
    filled = false
}

note left of cellA1
    42 equal cells with:
    coordinates: [A1]..[G6],
    filled = false
end note

object player1 {
    id = 1
    name = 'vilma'
    color = 'yellow'
    checkers = 21
    usedCheckers = 0
}

object player2 {
    id = 2
    name = 'pedro'
    color = 'red'
    checkers = 21
    usedCheckers = 0
}

object yellowChecker1 {
    id = y1
    position = null
    color = 'yellow'
}

note left of yellowChecker1
    21 equal yellow checkers
    With diferent id, from y1 to y21
end note

object redChecker1 {
    id = r1
    position = null
    color = 'red'
}

note right of redChecker1
    21 equal red checkers
    With diferent id, from r1 to r21
end note

newGame *- -> myBoard
myBoard *- -> cellA1

player1 ..> yellowChecker1
player2 ..> redChecker1


@enduml

PlantUML version 1.2022.0(Tue Jan 11 17:16:42 CET 2022)
(GPL source distribution)
Java Runtime: Java(TM) SE Runtime Environment
JVM: Java HotSpot(TM) 64-Bit Server VM
Default Encoding: Cp1252
Language: es
Country: ES
--></g></svg>